<svg xmlns="http://www.w3.org/2000/svg" viewBox="0 0 300 126"><defs><style>.cls-1{fill:#333;}.cls-1,.cls-17,.cls-18,.cls-19,.cls-2,.cls-20,.cls-21,.cls-22,.cls-23,.cls-24,.cls-25,.cls-26,.cls-3,.cls-4,.cls-6{stroke:#000;}.cls-1,.cls-17,.cls-18,.cls-19,.cls-2,.cls-20,.cls-21,.cls-22,.cls-23,.cls-24,.cls-25,.cls-3,.cls-4,.cls-6{stroke-miterlimit:10;}.cls-1,.cls-17{stroke-width:3px;}.cls-17,.cls-19,.cls-2{fill:none;}.cls-12,.cls-18,.cls-3{fill:#f7931e;}.cls-11,.cls-4{fill:#fbb03b;}.cls-22,.cls-5,.cls-6{fill:gray;}.cls-23,.cls-6{stroke-width:0.5px;}.cls-24,.cls-7{fill:#ccc;}.cls-8{opacity:0.07;}.cls-20,.cls-23,.cls-26,.cls-9{fill:#999;}.cls-10,.cls-25{fill:#666;}.cls-13{opacity:0.12;}.cls-14{fill:#b3b3b3;}.cls-15{opacity:0.15;}.cls-16{opacity:0.09;}.cls-18,.cls-26{stroke-linecap:round;}.cls-19{stroke-width:2px;}.cls-21{fill:#1a1a1a;}.cls-24{stroke-width:0.75px;}.cls-26{stroke-linejoin:round;}</style></defs><title>arch-lm</title><g id="engines"><polygon class="cls-1" points="142 93.5 136.5 111 165 111 159.23 93.5 142 93.5"/><line class="cls-2" x1="138.86" y1="103.5" x2="162.37" y2="103.5"/><line class="cls-2" x1="138.04" y1="105.25" x2="162.88" y2="105.25"/></g><g id="lower_detail" data-name="lower detail"><path class="cls-3" d="M113.5,94a1.5,1.5,0,0,1-1.29-.73L96.66,67.41a1.5,1.5,0,1,1,2.57-1.55l15.56,25.86A1.5,1.5,0,0,1,113.5,94Z"/><path class="cls-4" d="M95.5,69a1.5,1.5,0,0,1-.5-2.92l17-5a1.5,1.5,0,1,1,1,2.83l-17,5A1.5,1.5,0,0,1,95.5,69Z"/><path class="cls-3" d="M110.62,103a1.5,1.5,0,0,1-.73-2.81l17.88-10a1.5,1.5,0,1,1,1.47,2.62l-17.88,10A1.5,1.5,0,0,1,110.62,103Z"/><path class="cls-4" d="M115.5,114.5a2,2,0,0,1-1.83-1.19l-20-45a2,2,0,1,1,3.66-1.62l20,45a2,2,0,0,1-1.83,2.81Z"/><path class="cls-3" d="M110.5,120.5a2,2,0,0,1-1.54-3.28l5-5.94,5-6.94a2,2,0,1,1,3.25,2.33L117,113.78l-5,6a2,2,0,0,1-1.54.72"/><path class="cls-3" d="M187,94a1.5,1.5,0,0,0,1.29-.73l15.56-25.86a1.5,1.5,0,1,0-2.57-1.55L185.71,91.73A1.5,1.5,0,0,0,187,94Z"/><path class="cls-4" d="M205,69a1.5,1.5,0,0,0,.5-2.92l-17-5a1.5,1.5,0,0,0-1,2.83l17,5A1.5,1.5,0,0,0,205,69Z"/><path class="cls-3" d="M189.88,103a1.5,1.5,0,0,0,.73-2.81l-17.88-10a1.5,1.5,0,0,0-1.47,2.62l17.88,10A1.5,1.5,0,0,0,189.88,103Z"/><path class="cls-4" d="M185,114.5a2,2,0,0,0,1.83-1.19l20-45a2,2,0,0,0-3.66-1.62l-20,45A2,2,0,0,0,185,114.5Z"/><path class="cls-3" d="M190,120.5a2,2,0,0,0,1.54-3.28l-5-5.94-5-6.94a2,2,0,0,0-3.25,2.33l5.09,7.12,5,6a2,2,0,0,0,1.54.72"/><path class="cls-5" d="M123.5,39.58c0-1.1-.68-1.41-1.5-.68l-4.32,3.79A5.16,5.16,0,0,0,116.13,46l-.1,6.5a4.77,4.77,0,0,0,1.5,3.28L122,59.49c.84.71,1.53.38,1.53-.72Z"/><path class="cls-2" d="M123.5,39.58c0-1.1-.68-1.41-1.5-.68l-4.32,3.79A5.16,5.16,0,0,0,116.13,46l-.1,6.5a4.77,4.77,0,0,0,1.5,3.28L122,59.49c.84.71,1.53.38,1.53-.72Z"/><path class="cls-5" d="M176.48,36.16a2,2,0,0,1,2-2l8.08.06A5.74,5.74,0,0,1,190,35.65l4.05,4A5.46,5.46,0,0,1,195.5,43v8a7,7,0,0,1-1.2,3.6l-2.1,2.8a8.36,8.36,0,0,1-3.06,2.33l-.78.31a13.41,13.41,0,0,1-3.86.78l-6.33.14a1.92,1.92,0,0,1-2-2Z"/><path class="cls-2" d="M176.48,36.16a2,2,0,0,1,2-2l8.08.06A5.74,5.74,0,0,1,190,35.65l4.05,4A5.46,5.46,0,0,1,195.5,43v8a7,7,0,0,1-1.2,3.6l-2.1,2.8a8.36,8.36,0,0,1-3.06,2.33l-.78.31a13.41,13.41,0,0,1-3.86.78l-6.33.14a1.92,1.92,0,0,1-2-2Z"/><line class="cls-6" x1="186.83" y1="34.16" x2="186.83" y2="60.78"/></g><g id="fill"><rect class="cls-7" x="123.5" y="8.5" width="53" height="57" rx="7" ry="7"/><polygon class="cls-8" points="148.5 61.5 176.5 16.5 176.5 61.5 148.5 61.5"/><circle class="cls-9" cx="150" cy="37" r="23"/><polygon class="cls-10" points="142.26 34.25 158.5 34.16 159.23 40.37 141.5 40.37 142.26 34.25"/><rect class="cls-11" x="111.5" y="61.5" width="78" height="33" rx="3" ry="3"/><rect class="cls-12" x="136.5" y="61.5" width="27" height="33"/><polygon class="cls-13" points="176.34 43.5 176.34 61.5 165 61.5 176.34 43.5"/><polygon class="cls-14" points="142.26 34.25 158.5 34.16 157 21.51 143.84 21.51 142.26 34.25"/><polygon class="cls-5" points="161.21 57.08 158.5 34.16 162.5 29.8 161.21 57.08"/></g><g id="shading"><polygon class="cls-8" points="189 76 156 94 189 94 189 76"/><polygon class="cls-13" points="189 81 189 94 176.17 94 189 81"/><polygon class="cls-16" points="186 110 206 70 187 112 186 110"/><polygon class="cls-16" points="109 103 110 100 106 86 116 109 113 112 109 103"/></g><g id="fuselage_outline_s" data-name="fuselage (outline)s"><path class="cls-17" d="M123.5,61.5v-46a7,7,0,0,1,7-7h39a7,7,0,0,1,7,7v46"/><rect class="cls-17" x="111.5" y="61.5" width="78" height="33" rx="3" ry="3"/></g><g id="detail"><line class="cls-2" x1="136.5" y1="61.5" x2="136.5" y2="93.5"/><line class="cls-2" x1="163.5" y1="61.5" x2="163.5" y2="93.5"/><path class="cls-3" d="M150.5,103a1.5,1.5,0,0,1-.39-.05l-15-4a1.5,1.5,0,1,1,.77-2.9l15,4a1.5,1.5,0,0,1-.39,2.95Z"/><path class="cls-3" d="M150.5,103a1.5,1.5,0,0,1-.39-2.95l15-4a1.5,1.5,0,1,1,.77,2.9l-15,4A1.5,1.5,0,0,1,150.5,103Z"/><path class="cls-4" d="M135.5,99a1.5,1.5,0,0,1-1.38-2.1l13-30a1.5,1.5,0,1,1,2.75,1.19l-13,30A1.5,1.5,0,0,1,135.5,99Z"/><path class="cls-4" d="M165.5,99a1.5,1.5,0,0,1-1.38-.9l-13-30a1.5,1.5,0,1,1,2.75-1.19l13,30A1.5,1.5,0,0,1,165.5,99Z"/><ellipse class="cls-18" cx="150.5" cy="111" rx="9" ry="7"/><path class="cls-4" d="M150.5,113.5a2,2,0,0,1-2-2v-44a2,2,0,0,1,4,0v44A2,2,0,0,1,150.5,113.5Z"/><circle class="cls-19" cx="150" cy="37" r="23"/><line class="cls-20" x1="144.69" y1="14.62" x2="139.38" y2="57.4"/><line class="cls-20" x1="156.21" y1="14.85" x2="161.21" y2="57.08"/><polygon class="cls-21" points="142.26 34.25 131 24.04 143.84 21.51 142.26 34.25"/><polygon class="cls-21" points="157 21.51 168.76 23.69 158.45 33.76 157 21.51"/><rect class="cls-5" x="144.5" y="41.5" width="12" height="12" rx="3" ry="3"/><rect class="cls-2" x="144.5" y="41.5" width="12" height="12" rx="3" ry="3"/><line class="cls-22" x1="141.5" y1="40.37" x2="159.23" y2="40.37"/><line class="cls-6" x1="142.27" y1="34.16" x2="158.5" y2="34.16"/><line class="cls-23" x1="143.53" y1="21.57" x2="157" y2="21.57"/><rect class="cls-22" x="116.5" y="33.5" width="7" height="5"/><polygon class="cls-24" points="117.5 28.5 120.5 28.5 120.5 31.5 119.52 33.5 118.69 33.5 117.5 31.5 117.5 28.5"/><polygon class="cls-24" points="117.5 43.5 120.5 43.5 120.5 40.5 119.52 38.5 118.69 38.5 117.5 40.5 117.5 43.5"/><polygon class="cls-24" points="111.5 37.5 111.5 34.5 114.5 34.5 116.5 35.48 116.5 36.31 114.5 37.5 111.5 37.5"/><rect class="cls-22" x="176.5" y="33.5" width="7" height="5" transform="translate(360 72) rotate(-180)"/><polygon class="cls-24" points="182.5 28.5 179.5 28.5 179.5 31.5 180.48 33.5 181.31 33.5 182.5 31.5 182.5 28.5"/><polygon class="cls-24" points="182.5 43.5 179.5 43.5 179.5 40.5 180.48 38.5 181.31 38.5 182.5 40.5 182.5 43.5"/><polygon class="cls-24" points="188.5 37.5 188.5 34.5 185.5 34.5 183.5 35.48 183.5 36.31 185.5 37.5 188.5 37.5"/><path class="cls-25" d="M123.5,18.5a1,1,0,0,1-.71-.29l-4.5-4.5a1,1,0,0,1,1.41-1.41l4.5,4.5a1,1,0,0,1-.71,1.71Z"/><path class="cls-25" d="M112,16.5a1.5,1.5,0,0,1-1.5-1.5V9a1.5,1.5,0,0,1,3,0v6A1.5,1.5,0,0,1,112,16.5Z"/><path class="cls-20" d="M119,14h-3a1,1,0,0,1-.71-.29l-4-4a1,1,0,0,1,1.41-1.41L116.41,12H119a1,1,0,0,1,0,2Z"/><path class="cls-26" d="M106.5,17.5h11a6.91,6.91,0,0,0-11,0Z"/><line class="cls-26" x1="112" y1="17.5" x2="112" y2="19.5"/></g></svg>