<svg xmlns="http://www.w3.org/2000/svg" viewBox="0 0 300 368"><defs><style>.cls-1,.cls-2,.cls-8,.cls-9{fill:gray;}.cls-1,.cls-10,.cls-12,.cls-17,.cls-2,.cls-20,.cls-21,.cls-22,.cls-23,.cls-3,.cls-4,.cls-5,.cls-7,.cls-8,.cls-9{stroke:#000;stroke-miterlimit:10;}.cls-1,.cls-17,.cls-21{stroke-width:2px;}.cls-2{stroke-width:3px;}.cls-17,.cls-20,.cls-22,.cls-3,.cls-7{fill:none;}.cls-12,.cls-3{stroke-width:0.75px;}.cls-11,.cls-23,.cls-4{fill:#b3b3b3;}.cls-10,.cls-4,.cls-5,.cls-7,.cls-9{stroke-width:0.5px;}.cls-21,.cls-5,.cls-6{fill:#ccc;}.cls-8{stroke-width:0.25px;}.cls-10,.cls-12,.cls-14{fill:#999;}.cls-13{fill:#333;}.cls-15{fill:#c1272d;}.cls-16{opacity:0.15;}.cls-18{opacity:0.07;}.cls-19{opacity:0.12;}.cls-20{stroke-width:4px;}.cls-24{opacity:0.09;}</style></defs><title>arch-sivb</title><g id="engines"><rect class="cls-1" x="145.5" y="302.5" width="8" height="13"/><path class="cls-2" d="M129,362h42c0-14-17-47-17-47h-8S129,346,129,362Z"/><line class="cls-3" x1="140.69" y1="325.5" x2="159.07" y2="325.5"/><line class="cls-3" x1="139.75" y1="327.5" x2="159.98" y2="327.5"/><line class="cls-3" x1="141.66" y1="323.5" x2="158.14" y2="323.5"/><line class="cls-3" x1="142.64" y1="321.5" x2="157.2" y2="321.5"/><line class="cls-3" x1="143.65" y1="319.5" x2="156.23" y2="319.5"/><line class="cls-3" x1="144.67" y1="317.5" x2="155.25" y2="317.5"/><path class="cls-4" d="M173,361.25H127a.75.75,0,0,1,0-1.5h46a.75.75,0,0,1,0,1.5Z"/><path class="cls-4" d="M172.56,358.25h-45.2a.75.75,0,1,1,0-1.5h45.2a.75.75,0,0,1,0,1.5Z"/><path class="cls-4" d="M171.94,355.25h-44a.75.75,0,0,1,0-1.5h44a.75.75,0,0,1,0,1.5Z"/><path class="cls-4" d="M171.17,352.25H128.63a.75.75,0,0,1,0-1.5h42.54a.75.75,0,1,1,0,1.5Z"/><path class="cls-4" d="M170.27,349.25H129.47a.75.75,0,1,1,0-1.5h40.79a.75.75,0,0,1,0,1.5Z"/><path class="cls-4" d="M169.27,346.25H130.43a.75.75,0,1,1,0-1.5h38.83a.75.75,0,1,1,0,1.5Z"/><path class="cls-4" d="M168.19,343.25H131.48a.75.75,0,0,1,0-1.5h36.71a.75.75,0,1,1,0,1.5Z"/><path class="cls-4" d="M167.05,340.25H132.61a.75.75,0,0,1,0-1.5h34.44a.75.75,0,1,1,0,1.5Z"/><polygon class="cls-5" points="163.5 332.5 163.5 329.5 162.5 321.5 161.5 320.5 160.5 320.5 159.5 322.5 160.5 328.5 161.5 331.56 163.5 332.5"/><path class="cls-6" d="M138.5,315.5c-1.1,0-2.1,1.35-2.21,3l-.57,8c-.12,1.65-.89,3.44-1.71,4s-1.05,1.45-.5,2,2.33.78,4,.51h.08a3.68,3.68,0,0,0,3-3.49v-11C140.5,316.85,139.6,315.5,138.5,315.5Z"/><path class="cls-7" d="M138.5,315.5c-1.1,0-2.1,1.35-2.21,3l-.57,8c-.12,1.65-.89,3.44-1.71,4s-1.05,1.45-.5,2,2.33.78,4,.51h.08a3.68,3.68,0,0,0,3-3.49v-11C140.5,316.85,139.6,315.5,138.5,315.5Z"/><path class="cls-5" d="M162.5,331.5h-6.29c-3-.12-8.42-1-12.18-1H134.5a2,2,0,0,0,0,4h10c3.5,0,7.5-1,11.72-1h6.28a1,1,0,0,0,0-2Z"/><line class="cls-7" x1="160.83" y1="329.5" x2="163.5" y2="329.5"/><line class="cls-7" x1="160.17" y1="326.5" x2="163.13" y2="326.5"/><line class="cls-7" x1="160" y1="325.5" x2="163" y2="325.5"/><path class="cls-8" d="M156.75,306.5h-.5v-2a2.42,2.42,0,0,0-2.75-2.75v-.5a2.91,2.91,0,0,1,3.25,3.25Z"/><rect class="cls-9" x="154.5" y="305.5" width="3" height="5"/><path class="cls-10" d="M153.5,309.5h6v4a3.25,3.25,0,0,1-6,0Z"/><polygon class="cls-4" points="162.54 304.5 159.5 304.5 158.5 305.5 158.5 314.5 163.5 314.5 163.5 305.5 162.54 304.5"/><circle class="cls-5" cx="160.5" cy="317.5" r="5"/><path class="cls-10" d="M152,332.5a1.5,1.5,0,0,1-1.36-2.14l8-17a1.5,1.5,0,0,1,2.71,1.28l-8,17A1.5,1.5,0,0,1,152,332.5Z"/><path class="cls-11" d="M142,307.45a40.22,40.22,0,0,1-.54-6v-5a2.54,2.54,0,1,0-5,0v5a28.1,28.1,0,0,1-.76,5.9l-1.42,5.44a2.14,2.14,0,0,0,2.24,2.83l3.95-.1a2.49,2.49,0,0,0,2.46-3Z"/><path class="cls-7" d="M142,307.45a40.22,40.22,0,0,1-.54-6v-5a2.54,2.54,0,1,0-5,0v5a28.1,28.1,0,0,1-.76,5.9l-1.42,5.44a2.14,2.14,0,0,0,2.24,2.83l3.95-.1a2.49,2.49,0,0,0,2.46-3Z"/><circle class="cls-5" cx="138.5" cy="315.5" r="5"/><path class="cls-12" d="M149.5,315.5a1,1,0,0,1-.71-.29l-7-7a1,1,0,0,1,1.41-1.41l7,7a1,1,0,0,1-.71,1.71Z"/><path class="cls-12" d="M143,308.5a1.5,1.5,0,0,1-1-2.63l8-7a1.5,1.5,0,0,1,2,2.26l-8,7A1.49,1.49,0,0,1,143,308.5Z"/><polygon class="cls-4" points="163.5 292.5 157.5 292.5 158.5 304.5 163.5 304.5 163.5 292.5"/></g><g id="fill"><polygon class="cls-13" points="91 204 91 233 154 233 154 261 208 261 208 233 208 204 91 204"/><polygon class="cls-14" points="106.17 261 147 302 152 302 195.67 261 106.17 261"/><rect class="cls-13" x="91" y="41" width="117" height="22"/><polygon class="cls-15" points="174.04 109.04 162.96 109.04 160 106.09 160 86.38 162.83 86.38 162.83 104.91 164.13 106.21 172.87 106.21 174.17 104.91 174.17 86.38 177 86.38 177 106.09 174.04 109.04"/><polygon class="cls-15" points="169.99 163.75 167.01 163.75 160 185 161.42 185 162.91 185 168.5 168.23 174.09 185 175.58 185 177 185 169.99 163.75"/><rect class="cls-15" x="162.83" y="178.27" width="10.98" height="2.83"/><polygon class="cls-15" points="174.04 148.44 162.96 148.44 160 145.48 160 141.71 162.83 141.71 162.83 144.31 164.13 145.6 172.87 145.6 174.17 144.31 174.17 139.11 172.87 137.81 162.96 137.81 160 134.86 160 127.31 162.96 124.35 174.04 124.35 177 127.31 177 131.08 174.17 131.08 174.17 128.48 172.87 127.19 164.13 127.19 162.83 128.48 162.83 133.68 164.13 134.98 174.04 134.98 177 137.93 177 145.48 174.04 148.44"/></g><g id="fill_detail" data-name="fill detail" class="cls-16"><line class="cls-17" x1="97" y1="204" x2="97" y2="261"/><line class="cls-17" x1="102" y1="204" x2="102" y2="261"/><line class="cls-17" x1="107" y1="204" x2="107" y2="261"/><line class="cls-17" x1="112" y1="204" x2="112" y2="261"/><line class="cls-17" x1="117" y1="204" x2="117" y2="261"/><line class="cls-17" x1="122" y1="204" x2="122" y2="261"/><line class="cls-17" x1="127" y1="204" x2="127" y2="261"/><line class="cls-17" x1="132" y1="204" x2="132" y2="261"/><line class="cls-17" x1="137" y1="204" x2="137" y2="261"/><line class="cls-17" x1="142" y1="204" x2="142" y2="261"/><line class="cls-17" x1="147" y1="204" x2="147" y2="261"/><line class="cls-17" x1="152" y1="204" x2="152" y2="261"/><line class="cls-17" x1="157" y1="204" x2="157" y2="261"/><line class="cls-17" x1="162" y1="204" x2="162" y2="261"/><line class="cls-17" x1="167" y1="204" x2="167" y2="261"/><line class="cls-17" x1="172" y1="204" x2="172" y2="261"/><line class="cls-17" x1="177" y1="204" x2="177" y2="261"/><line class="cls-17" x1="182" y1="204" x2="182" y2="261"/><line class="cls-17" x1="187" y1="204" x2="187" y2="261"/><line class="cls-17" x1="192" y1="204" x2="192" y2="261"/><line class="cls-17" x1="197" y1="204" x2="197" y2="261"/><line class="cls-17" x1="202" y1="204" x2="202" y2="261"/><line class="cls-17" x1="97" y1="42" x2="97" y2="76"/><line class="cls-17" x1="102" y1="42" x2="102" y2="76"/><line class="cls-17" x1="107" y1="42" x2="107" y2="76"/><line class="cls-17" x1="112" y1="42" x2="112" y2="76"/><line class="cls-17" x1="117" y1="42" x2="117" y2="76"/><line class="cls-17" x1="122" y1="42" x2="122" y2="76"/><line class="cls-17" x1="127" y1="42" x2="127" y2="76"/><line class="cls-17" x1="132" y1="42" x2="132" y2="76"/><line class="cls-17" x1="137" y1="42" x2="137" y2="76"/><line class="cls-17" x1="142" y1="42" x2="142" y2="76"/><line class="cls-17" x1="147" y1="42" x2="147" y2="76"/><line class="cls-17" x1="152" y1="42" x2="152" y2="76"/><line class="cls-17" x1="157" y1="42" x2="157" y2="76"/><line class="cls-17" x1="162" y1="42" x2="162" y2="76"/><line class="cls-17" x1="167" y1="42" x2="167" y2="76"/><line class="cls-17" x1="172" y1="42" x2="172" y2="76"/><line class="cls-17" x1="177" y1="42" x2="177" y2="76"/><line class="cls-17" x1="182" y1="42" x2="182" y2="76"/><line class="cls-17" x1="187" y1="42" x2="187" y2="76"/><line class="cls-17" x1="192" y1="42" x2="192" y2="76"/><line class="cls-17" x1="197" y1="42" x2="197" y2="76"/><line class="cls-17" x1="202" y1="42" x2="202" y2="76"/><line class="cls-17" x1="102.39" y1="6" x2="97" y2="41"/><line class="cls-17" x1="106.89" y1="6" x2="102" y2="41"/><line class="cls-17" x1="111.39" y1="6" x2="107" y2="41"/><line class="cls-17" x1="115.89" y1="6" x2="112" y2="41"/><line class="cls-17" x1="120.39" y1="6" x2="117" y2="41"/><line class="cls-17" x1="124.89" y1="6" x2="122" y2="41"/><line class="cls-17" x1="129.39" y1="6" x2="127" y2="41"/><line class="cls-17" x1="133.89" y1="6" x2="132" y2="41"/><line class="cls-17" x1="138.38" y1="6" x2="137" y2="41"/><line class="cls-17" x1="142.88" y1="6" x2="142" y2="41"/><line class="cls-17" x1="147.38" y1="6" x2="147" y2="41"/><line class="cls-17" x1="151.88" y1="6" x2="152" y2="41"/><line class="cls-17" x1="156.38" y1="6" x2="157" y2="41"/><line class="cls-17" x1="160.88" y1="6" x2="162" y2="41"/><line class="cls-17" x1="165.38" y1="6" x2="167" y2="41"/><line class="cls-17" x1="169.88" y1="6" x2="172" y2="41"/><line class="cls-17" x1="174.38" y1="6" x2="177" y2="41"/><line class="cls-17" x1="178.88" y1="6" x2="182" y2="41"/><line class="cls-17" x1="183.38" y1="6" x2="187" y2="41"/><line class="cls-17" x1="187.87" y1="6" x2="192" y2="41"/><line class="cls-17" x1="192.37" y1="6" x2="197" y2="41"/><line class="cls-17" x1="196.87" y1="6" x2="202" y2="41"/></g><g id="shading"><polygon class="cls-18" points="208 261 182 261 182 41 179 6 204 6 208 41 208 261"/><polygon class="cls-19" points="208 261 199 261 199 41 194 6 202 6 208 41 208 261"/><polygon class="cls-18" points="194 262 152 302 148 302 171 262 194 262"/><polygon class="cls-19" points="194 262 152 302 148 302 185 262 194 262"/></g><g id="fuselage_outline_s" data-name="fuselage (outline)s"><path class="cls-20" d="M91,258a3,3,0,0,0,3,3H205a3,3,0,0,0,3-3V44a42.63,42.63,0,0,0-.51-6L202.51,9A3.7,3.7,0,0,0,199,6H100a3.7,3.7,0,0,0-3.51,3L91.51,38A42.63,42.63,0,0,0,91,44Z"/><polygon class="cls-20" points="106.17 261 147 302 152 302 195.67 261 106.17 261"/></g><g id="detail"><line class="cls-17" x1="91" y1="41" x2="208" y2="41"/><path class="cls-21" d="M154,251a4,4,0,0,1-4-4V196l4-7,4,7v51A4,4,0,0,1,154,251Z"/><line class="cls-22" x1="148" y1="301" x2="125" y2="261"/><line class="cls-23" x1="154" y1="264" x2="149" y2="301"/><path class="cls-23" d="M149,303h-.21A2,2,0,0,1,147,300.8l5-37a2,2,0,1,1,4,.41l-5,37A2,2,0,0,1,149,303Z"/><line class="cls-22" x1="151" y1="301" x2="174" y2="261"/></g><g id="detail_shading" data-name="detail shading"><path class="cls-24" d="M154,245l-2.78,4.87A4,4,0,0,0,158,247V196l-2,6Z"/><path class="cls-24" d="M156,263.91l-2.24,2L149.5,297.3,147.25,299,147,300.8A2,2,0,0,0,148.8,303H149a2,2,0,0,0,2-1.8l5-37A2,2,0,0,0,156,263.91Z"/></g></svg>