<svg xmlns="http://www.w3.org/2000/svg" viewBox="0 0 300 188"><defs><style>.cls-1,.cls-17{fill:#666;}.cls-2{fill:#4d4d4d;}.cls-18,.cls-22,.cls-23,.cls-3,.cls-4,.cls-9{fill:none;}.cls-15,.cls-16,.cls-17,.cls-18,.cls-20,.cls-22,.cls-23,.cls-3,.cls-4,.cls-9{stroke:#000;stroke-miterlimit:10;}.cls-4{stroke-width:3px;}.cls-5{fill:gray;}.cls-6{fill:#b3b3b3;}.cls-7{fill:#f2f2f2;}.cls-8{opacity:0.15;}.cls-9{stroke-width:2px;}.cls-10{opacity:0.07;}.cls-11{opacity:0.12;}.cls-12,.cls-13,.cls-14{fill:#fff;}.cls-12{opacity:0.21;}.cls-13{opacity:0.2;}.cls-14{opacity:0.5;}.cls-15{fill:#999;}.cls-16{fill:#ccc;}.cls-18,.cls-20{stroke-width:0.5px;}.cls-19,.cls-20{fill:#333;}.cls-21,.cls-23{opacity:0.6;}.cls-22,.cls-23{stroke-width:0.25px;}.cls-24{opacity:0.09;}.cls-25{opacity:0.18;}</style></defs><title>arch-csm</title><g id="engines"><path class="cls-1" d="M127,182.25h47.5c0-22-17-49.25-17-49.25h-13S127,163.75,127,182.25Z"/><path class="cls-2" d="M133.66,155.69c-3.58,8.9-6.66,18.8-6.66,26.56h47.5c0-8.7-2.66-18.23-5.88-26.56Z"/><line class="cls-3" x1="133.66" y1="155.69" x2="168.76" y2="155.69"/><path class="cls-4" d="M127,182.25h47.5c0-22-17-49.25-17-49.25h-13S127,163.75,127,182.25Z"/></g><g id="fill"><path class="cls-5" d="M123.63,129.33s.63,4.54,6.25,4.54h42.5c5.13,0,4.5-4.54,4.5-4.54Z"/><rect class="cls-6" x="115.5" y="44.5" width="70" height="85"/><rect class="cls-7" x="119" y="98" width="51" height="28"/><rect class="cls-7" x="124" y="45" width="13" height="13"/><rect class="cls-7" x="151" y="45" width="13" height="13"/><rect class="cls-7" x="168" y="45" width="13" height="13"/><path class="cls-6" d="M116.57,42.81c-.59.93-.17,1.69.93,1.69h66c1.1,0,1.49-.74.87-1.65L160.63,8.15A4.26,4.26,0,0,0,157.5,6.5h-16a4.05,4.05,0,0,0-3.07,1.69Z"/></g><g id="fill_detail" data-name="fill detail" class="cls-8"><line class="cls-4" x1="123" y1="103" x2="166" y2="103"/><line class="cls-9" x1="126" y1="49" x2="135" y2="49"/><line class="cls-9" x1="126" y1="52" x2="135" y2="52"/><line class="cls-9" x1="126" y1="55" x2="135" y2="55"/><line class="cls-9" x1="153" y1="49" x2="162" y2="49"/><line class="cls-9" x1="153" y1="52" x2="162" y2="52"/><line class="cls-9" x1="153" y1="55" x2="162" y2="55"/><line class="cls-9" x1="170" y1="49" x2="179" y2="49"/><line class="cls-9" x1="170" y1="52" x2="179" y2="52"/><line class="cls-9" x1="170" y1="55" x2="179" y2="55"/><line class="cls-4" x1="123" y1="109" x2="166" y2="109"/><line class="cls-4" x1="123" y1="115" x2="166" y2="115"/><line class="cls-4" x1="123" y1="121" x2="166" y2="121"/></g><g id="shading"><rect class="cls-10" x="159.5" y="44.5" width="26" height="85"/><rect class="cls-11" x="178" y="44.5" width="7.5" height="85"/><path class="cls-10" d="M176.88,129.33H150v4.54h22.38C177.5,133.88,176.88,129.33,176.88,129.33Z"/><path class="cls-11" d="M176.88,129.33H165v4.54h7.38C177.5,133.88,176.88,129.33,176.88,129.33Z"/><path class="cls-10" d="M150.25,133.88S162,156,162,182h12c1-22-16-48.12-16-48.12Z"/><path class="cls-11" d="M156.25,133.88S168,156,168,182h6c1-22-16-48.12-16-48.12Z"/><polygon class="cls-10" points="151.63 6.5 159.5 6.5 185.5 44.5 159 44.5 151.63 6.5"/><polygon class="cls-11" points="157.63 6.5 159.5 6.5 185.5 44.5 178 44.5 157.63 6.5"/><polygon class="cls-12" points="141.5 6.5 145.13 6.5 133.5 44.5 120 44.5 141.5 6.5"/><polygon class="cls-13" points="142.5 6.5 143.13 6.5 128.5 44.5 123 44.5 142.5 6.5"/><polygon class="cls-14" points="142.5 6.5 143.13 6.5 125.5 44.5 124 44.5 142.5 6.5"/></g><g id="fuselage_outline_s" data-name="fuselage (outline)s"><rect class="cls-4" x="115.5" y="44.5" width="70" height="85" rx="1" ry="1"/><path class="cls-4" d="M123,130s1.38,4,7,4h42c5.13,0,5-4,5-4Z"/><path class="cls-4" d="M116.57,42.81c-.59.93-.17,1.69.93,1.69h66c1.1,0,1.49-.74.87-1.65L160.63,8.15A4.26,4.26,0,0,0,157.5,6.5h-16a4.05,4.05,0,0,0-3.07,1.69Z"/></g><g id="detail"><line class="cls-3" x1="174" y1="58" x2="174" y2="126"/><line class="cls-3" x1="115.5" y1="58.5" x2="185.5" y2="58.5"/><polygon class="cls-15" points="157.5 71.5 159.5 65.5 159.5 64.5 155.5 64.5 155.5 65.5 157.5 71.5"/><polygon class="cls-15" points="113.5 71.5 115.5 65.5 115.5 64.5 111.5 64.5 111.5 65.5 113.5 71.5"/><polygon class="cls-15" points="113.5 75.5 115.5 81.5 115.5 82.5 111.5 82.5 111.5 81.5 113.5 75.5"/><polygon class="cls-15" points="157.5 74.5 159.5 80.5 159.5 81.5 155.5 81.5 155.5 80.5 157.5 74.5"/><polygon class="cls-15" points="158 73 164 71 165 71 165 75 164 75 158 73"/><polygon class="cls-15" points="157 73 151 71 150 71 150 75 151 75 157 73"/><rect class="cls-16" x="155" y="69" width="5" height="8"/><polygon class="cls-16" points="115 78 112 77 112 70 115 69 115 78"/><circle class="cls-17" cx="113.5" cy="73.5" r="2"/><polygon class="cls-15" points="187.5 71.5 185.5 65.5 185.5 64.5 189.5 64.5 189.5 65.5 187.5 71.5"/><polygon class="cls-15" points="187.5 75.5 185.5 81.5 185.5 82.5 189.5 82.5 189.5 81.5 187.5 75.5"/><polygon class="cls-16" points="186 78 189 77 189 70 186 69 186 78"/><circle class="cls-17" cx="187.5" cy="73.5" r="2"/><path class="cls-18" d="M133.8,14.53a118.2,118.2,0,0,1,16.1-1,115.82,115.82,0,0,1,16.1,1"/><path class="cls-18" d="M155.78,21.48a1.69,1.69,0,0,1,1.72-2h6a3.82,3.82,0,0,1,3,1.74l6,10.53c.55,1,.09,1.74-1,1.74h-12a2.38,2.38,0,0,1-2.28-2Z"/><path class="cls-19" d="M158.7,22.48a.79.79,0,0,1,.8-1h4a1.6,1.6,0,0,1,1.37.93l1.26,3.14a.63.63,0,0,1-.63.93h-5a1.27,1.27,0,0,1-1.2-1Z"/><path class="cls-18" d="M158.7,22.48a.79.79,0,0,1,.8-1h4a1.6,1.6,0,0,1,1.37.93l1.26,3.14a.63.63,0,0,1-.63.93h-5a1.27,1.27,0,0,1-1.2-1Z"/><path class="cls-19" d="M146.34,18.49a1.23,1.23,0,0,1,1.16-1h4a1,1,0,0,1,1,1v7a.61.61,0,0,1-.92.61l-5.16-2.21a1.34,1.34,0,0,1-.75-1.38Z"/><path class="cls-18" d="M146.34,18.49a1.23,1.23,0,0,1,1.16-1h4a1,1,0,0,1,1,1v7a.61.61,0,0,1-.92.61l-5.16-2.21a1.34,1.34,0,0,1-.75-1.38Z"/><path class="cls-20" d="M168.62,41.44a1,1,0,0,1-1,1.06,1.1,1.1,0,0,1-1.13-1.06,1,1,0,0,1,1-.94A1.12,1.12,0,0,1,168.62,41.44Z"/><path class="cls-20" d="M171.8,41.44A.78.78,0,0,1,171,42.5a1.4,1.4,0,0,1-1.33-1.06.78.78,0,0,1,.82-.94A1.42,1.42,0,0,1,171.8,41.44Z"/><g class="cls-21"><path class="cls-22" d="M166.5,44.5a1.27,1.27,0,0,1-1.2-1l-.61-3a.79.79,0,0,1,.8-1h6a1.6,1.6,0,0,1,1.37.93l1.26,3.14a.63.63,0,0,1-.63.93Z"/></g><path class="cls-19" d="M133.05,26.39a1.78,1.78,0,0,1,1.45-.89h3a.68.68,0,0,1,.68.95l-1.37,4.1a1.48,1.48,0,0,1-1.32.95h-4a.57.57,0,0,1-.55-.89Z"/><path class="cls-18" d="M133.05,26.39a1.78,1.78,0,0,1,1.45-.89h3a.68.68,0,0,1,.68.95l-1.37,4.1a1.48,1.48,0,0,1-1.32.95h-4a.57.57,0,0,1-.55-.89Z"/><path class="cls-20" d="M138.69,38.45a1.68,1.68,0,0,1-1.69,1c-.83,0-1.34-.48-1.16-1a1.76,1.76,0,0,1,1.67-1C138.26,37.5,138.79,37.92,138.69,38.45Z"/><path class="cls-20" d="M142.5,38.45c0,.57-.67,1-1.5,1s-1.43-.48-1.36-1,.74-1,1.49-1S142.5,37.92,142.5,38.45Z"/><polyline class="cls-23" points="122.5 33.5 135.5 33.5 133.5 40.5 144.5 40.5 144.5 44.5"/></g><g id="detail_shading" data-name="detail shading"><polygon class="cls-24" points="157 77 159 69 160 69 160 77 157 77"/><g class="cls-25"><path d="M137.33,26.12c.55-.05,1-.22,1.08-.36s-.36-.26-.91-.26h-3a1.78,1.78,0,0,0-1.45.89l-2.11,4.21c-.25.49-.22.51.07,0l2-3.29a2.25,2.25,0,0,1,1.51-1Z"/></g><g class="cls-25"><path d="M151.51,18.31c.54-.08,1-.3,1-.48s-.45-.33-1-.33h-4a1.23,1.23,0,0,0-1.16,1l-.67,4c-.09.54,0,.56.15,0l.87-2.6a1.8,1.8,0,0,1,1.3-1.1Z"/></g><g class="cls-25"><path d="M159.84,24a1.6,1.6,0,0,1,1.14-1.2l2.73-.61c.54-.12.93-.32.88-.45s-.54-.23-1.09-.23h-4a.79.79,0,0,0-.8,1l.56,2.81c.11.54.27.54.36,0Z"/></g></g></svg>