<svg xmlns="http://www.w3.org/2000/svg" viewBox="0 0 300 1380"><defs><style>.cls-1,.cls-10,.cls-14{fill:#666;}.cls-1,.cls-10,.cls-11,.cls-12,.cls-13,.cls-14,.cls-15,.cls-17,.cls-18,.cls-19,.cls-2,.cls-20,.cls-21,.cls-29,.cls-3,.cls-33,.cls-34,.cls-35,.cls-36,.cls-4,.cls-6,.cls-7,.cls-8,.cls-9{stroke:#000;stroke-miterlimit:10;}.cls-1,.cls-18,.cls-29,.cls-34,.cls-35,.cls-36{stroke-width:2px;}.cls-2{fill:#4d4d4d;}.cls-12,.cls-19,.cls-2{stroke-width:3px;}.cls-29,.cls-3,.cls-33,.cls-6,.cls-9{fill:none;}.cls-3,.cls-8{stroke-width:0.75px;}.cls-12,.cls-13,.cls-17,.cls-36,.cls-4,.cls-5,.cls-8{fill:#999;}.cls-20,.cls-21,.cls-4,.cls-6,.cls-7{stroke-width:0.5px;}.cls-15,.cls-18,.cls-19,.cls-27,.cls-7{fill:gray;}.cls-10,.cls-17,.cls-33{stroke-width:4px;}.cls-11,.cls-21,.cls-22,.cls-34{fill:#ccc;}.cls-16{opacity:0.18;}.cls-20,.cls-35{fill:#b3b3b3;}.cls-23{fill:#fff;}.cls-24{fill:#333;}.cls-25{fill:#c1272d;}.cls-26{fill:#2e3192;}.cls-28{opacity:0.15;}.cls-30{opacity:0.07;}.cls-31{opacity:0.09;}.cls-32{opacity:0.12;}</style></defs><title>arch-lv</title><g id="engines"><rect class="cls-1" x="147.5" y="571.5" width="8" height="13" transform="translate(303 1156) rotate(-180)"/><path class="cls-2" d="M172,631H130c0-14,17-47,17-47h8S172,615,172,631Z"/><line class="cls-3" x1="160.31" y1="594.5" x2="141.93" y2="594.5"/><line class="cls-3" x1="161.25" y1="596.5" x2="141.02" y2="596.5"/><line class="cls-3" x1="159.34" y1="592.5" x2="142.86" y2="592.5"/><line class="cls-3" x1="158.36" y1="590.5" x2="143.8" y2="590.5"/><line class="cls-3" x1="157.35" y1="588.5" x2="144.77" y2="588.5"/><line class="cls-3" x1="156.33" y1="586.5" x2="145.74" y2="586.5"/><path class="cls-4" d="M128,630.25h46a.75.75,0,0,0,0-1.5H128a.75.75,0,0,0,0,1.5Z"/><path class="cls-4" d="M128.44,627.25h45.2a.75.75,0,1,0,0-1.5h-45.2a.75.75,0,0,0,0,1.5Z"/><path class="cls-4" d="M129.06,624.25h44a.75.75,0,0,0,0-1.5h-44a.75.75,0,0,0,0,1.5Z"/><path class="cls-4" d="M129.83,621.25h42.54a.75.75,0,1,0,0-1.5H129.83a.75.75,0,0,0,0,1.5Z"/><path class="cls-4" d="M130.73,618.25h40.79a.75.75,0,0,0,0-1.5H130.73a.75.75,0,0,0,0,1.5Z"/><path class="cls-4" d="M131.73,615.25h38.83a.75.75,0,0,0,0-1.5H131.73a.75.75,0,0,0,0,1.5Z"/><path class="cls-4" d="M132.81,612.25h36.71a.75.75,0,0,0,0-1.5H132.81a.75.75,0,1,0,0,1.5Z"/><path class="cls-4" d="M133.95,609.25h34.44a.75.75,0,0,0,0-1.5H133.95a.75.75,0,1,0,0,1.5Z"/><polygon class="cls-4" points="137.5 601.5 137.5 598.5 138.5 590.5 139.5 589.5 140.5 589.5 141.5 591.5 140.5 597.5 139.5 600.56 137.5 601.5"/><path class="cls-5" d="M162.5,584.5c1.1,0,2.1,1.35,2.21,3l.57,8c.12,1.65.89,3.44,1.71,4s1.05,1.45.5,2-2.33.78-4,.51h-.08a3.68,3.68,0,0,1-3-3.49v-11C160.5,585.85,161.4,584.5,162.5,584.5Z"/><path class="cls-6" d="M162.5,584.5c1.1,0,2.1,1.35,2.21,3l.57,8c.12,1.65.89,3.44,1.71,4s1.05,1.45.5,2-2.33.78-4,.51h-.08a3.68,3.68,0,0,1-3-3.49v-11C160.5,585.85,161.4,584.5,162.5,584.5Z"/><path class="cls-4" d="M138.5,600.5h6.29c3-.12,8.42-1,12.18-1h9.53a2,2,0,0,1,0,4h-10c-3.5,0-7.5-1-11.72-1H138.5a1,1,0,1,1,0-2Z"/><line class="cls-6" x1="140.17" y1="598.5" x2="137.5" y2="598.5"/><line class="cls-6" x1="140.83" y1="595.5" x2="137.87" y2="595.5"/><line class="cls-6" x1="141" y1="594.5" x2="138" y2="594.5"/><rect class="cls-7" x="143.5" y="574.5" width="3" height="5" transform="translate(290 1154) rotate(-180)"/><path class="cls-4" d="M147.5,578.5h-6v4a3.25,3.25,0,0,0,6,0Z"/><rect class="cls-7" x="137.5" y="574.5" width="5" height="9" transform="translate(280 1158) rotate(-180)"/><circle class="cls-4" cx="140.5" cy="586.5" r="5"/><path class="cls-4" d="M149,601.5a1.5,1.5,0,0,0,1.36-2.14l-8-17a1.5,1.5,0,1,0-2.71,1.28l8,17A1.5,1.5,0,0,0,149,601.5Z"/><polygon class="cls-7" points="164.5 573.5 167.44 583.75 157.5 584.5 159.5 573.5 164.5 573.5"/><circle class="cls-4" cx="162.5" cy="584.5" r="5"/><path class="cls-8" d="M151.5,584.5a1,1,0,0,0,.71-.29l7-7a1,1,0,0,0-1.41-1.41l-7,7a1,1,0,0,0,.71,1.71Z"/><path class="cls-8" d="M158,577.5a1.5,1.5,0,0,0,1-2.63l-8-7a1.5,1.5,0,1,0-2,2.26l8,7A1.49,1.49,0,0,0,158,577.5Z"/><path class="cls-5" d="M162.83,1259.48a13.49,13.49,0,0,1,.85-5.74l.64-1.49a4.94,4.94,0,0,1,4.18-2.76h11a3,3,0,0,1,3,3v1a58.33,58.33,0,0,0,.37,6l.26,2a33.57,33.57,0,0,1,.1,6l-.46,5c-.15,1.64-.27,3.66-.27,4.49a2.38,2.38,0,0,1-1,2,1.12,1.12,0,0,0-.5,1.5,19,19,0,0,1,1,3.5l1,5a30.81,30.81,0,0,1,.5,5,47.15,47.15,0,0,1-.42,5.47l-.15,1.06a19.74,19.74,0,0,0,.23,5.9l.7,3.14a8.78,8.78,0,0,1-.35,4.93,5.47,5.47,0,0,0-.5,3.5,17.08,17.08,0,0,1,.42,4.5l-.34,13c0,1.65-1.16,2.19-2.49,1.21l-2.53-1.88a10.72,10.72,0,0,1-3.29-4.65l-10.4-33.81a24,24,0,0,1-.88-5.87v-22c0-1.65-.15-4.34-.33-6Z"/><path class="cls-9" d="M162.83,1259.48a13.49,13.49,0,0,1,.85-5.74l.64-1.49a4.94,4.94,0,0,1,4.18-2.76h11a3,3,0,0,1,3,3v1a58.33,58.33,0,0,0,.37,6l.26,2a33.57,33.57,0,0,1,.1,6l-.46,5c-.15,1.64-.27,3.66-.27,4.49a2.38,2.38,0,0,1-1,2,1.12,1.12,0,0,0-.5,1.5,19,19,0,0,1,1,3.5l1,5a30.81,30.81,0,0,1,.5,5,47.15,47.15,0,0,1-.42,5.47l-.15,1.06a19.74,19.74,0,0,0,.23,5.9l.7,3.14a8.78,8.78,0,0,1-.35,4.93,5.47,5.47,0,0,0-.5,3.5,17.08,17.08,0,0,1,.42,4.5l-.34,13c0,1.65-1.16,2.19-2.49,1.21l-2.53-1.88a10.72,10.72,0,0,1-3.29-4.65l-10.4-33.81a24,24,0,0,1-.88-5.87v-22c0-1.65-.15-4.34-.33-6Z"/><path class="cls-10" d="M182,1373H118c0-44,16-77,16-77h29S182,1329,182,1373Z"/><path class="cls-11" d="M116,1373h0l68-.94a1,1,0,0,0,0-2h0l-68,.94a1,1,0,0,0,0,2Z"/><path class="cls-11" d="M116.09,1368.58h0l67.79-.94a1,1,0,0,0,1-1,1,1,0,0,0-1-1l-67.79.94a1,1,0,0,0,0,2Z"/><path class="cls-11" d="M116.27,1364.2h0l67.37-.95a1,1,0,0,0,1-1,1,1,0,0,0-1-1l-67.37.95a1,1,0,0,0,0,2Z"/><path class="cls-11" d="M116.56,1359.79h0l66.71-.94a1,1,0,0,0,1-1,1,1,0,0,0-1-1l-66.71.94a1,1,0,0,0,0,2Z"/><path class="cls-11" d="M116.94,1355.39h0l65.84-.93a1,1,0,0,0,0-2l-65.84.93a1,1,0,0,0,0,2Z"/><path class="cls-11" d="M117.43,1351h0l64.75-.92a1,1,0,0,0,1-1,1,1,0,0,0-1-1l-64.75.92a1,1,0,0,0,0,2Z"/><line class="cls-9" x1="175.78" y1="1328.5" x2="123.04" y2="1329.45"/><line class="cls-9" x1="174.92" y1="1325.5" x2="123.75" y2="1326.44"/><line class="cls-9" x1="174" y1="1322.5" x2="124.51" y2="1323.43"/><line class="cls-9" x1="173.02" y1="1319.5" x2="125.32" y2="1320.41"/><line class="cls-9" x1="171.98" y1="1316.5" x2="126.19" y2="1317.39"/><line class="cls-9" x1="170.88" y1="1313.5" x2="127.1" y2="1314.37"/><line class="cls-9" x1="169.72" y1="1310.5" x2="128.07" y2="1311.35"/><line class="cls-9" x1="168.5" y1="1307.5" x2="129.1" y2="1308.32"/><line class="cls-9" x1="167.19" y1="1304.5" x2="130.19" y2="1305.29"/><rect class="cls-12" x="134.5" y="1267.5" width="28" height="28"/><path class="cls-13" d="M178.51,1342h-57c-2.49,0-4.5-1.51-4.5-4s2-4,4.5-4l57-1a4.5,4.5,0,1,1,0,9Z"/><path class="cls-11" d="M157.5,1256.5h26a5,5,0,0,1,0,6h-26Z"/><path class="cls-11" d="M130.5,1284.5a2,2,0,0,1-1.86-1.27l-13-33a2,2,0,0,1,3.72-1.47l13,33a2,2,0,0,1-1.13,2.59A2,2,0,0,1,130.5,1284.5Z"/><path class="cls-14" d="M147.5,1285.5h-5a2.58,2.58,0,0,1-2.45-2.18c-.27-.82-.33-.82-.55-.82h-5a1,1,0,0,1,0-2h5a2.58,2.58,0,0,1,2.45,2.18c.27.82.33.82.55.82h5a1,1,0,0,1,0,2Z"/><path class="cls-11" d="M130.5,1283.5a1,1,0,0,1-.35-1.94l16-6a1,1,0,1,1,.7,1.87l-16,6A1,1,0,0,1,130.5,1283.5Z"/><path class="cls-13" d="M141.5,1292.5c-5.06,0-9.06-2.88-11.89-8.55a1,1,0,0,1,1.79-.89c2.47,4.94,5.87,7.45,10.11,7.45a1,1,0,0,1,0,2Z"/><path class="cls-11" d="M146.5,1291.5a1,1,0,0,1-.45-.11l-16-8a1,1,0,1,1,.89-1.79l16,8a1,1,0,0,1-.45,1.89Z"/><path class="cls-11" d="M154.5,1291.5a1,1,0,0,1-.52-1.86l20-12a1,1,0,0,1,1,1.71l-20,12A1,1,0,0,1,154.5,1291.5Z"/><path class="cls-11" d="M174.5,1279.5h-.06l-17-1a1,1,0,0,1-.94-1.06,1,1,0,0,1,1.06-.94l17,1a1,1,0,0,1-.06,2Z"/><line class="cls-9" x1="173.5" y1="1320.23" x2="183.31" y2="1318.93"/><line class="cls-9" x1="171.56" y1="1315.32" x2="184" y2="1313.25"/><line class="cls-9" x1="167.5" y1="1305.5" x2="182.57" y2="1302.99"/><line class="cls-9" x1="165.5" y1="1300.5" x2="183.42" y2="1297.09"/><line class="cls-9" x1="162.5" y1="1291.5" x2="183.33" y2="1290.63"/><line class="cls-9" x1="163.5" y1="1286.5" x2="182.5" y2="1286.5"/><rect class="cls-15" x="146.5" y="1278.5" width="6" height="9"/><path class="cls-15" d="M129.5,1332.5a1,1,0,0,1-1-1c0-8.5,5.4-25.35,7.05-30.32l.05-.13c1.72-3.45,5.46-5.07,8.47-6.37,2.38-1,4.43-1.92,4.43-3.18v-6a1,1,0,0,1,2,0v6c0,2.58-2.74,3.76-5.63,5s-6,2.61-7.44,5.37c-1.21,3.64-6.93,21.26-6.93,29.61A1,1,0,0,1,129.5,1332.5Z"/><path class="cls-16" d="M184.5,1312.5l-2-9,1-7v-5l-1-5-1-5-1-2,2-1v-3l1-11-.19-1.5h-5l-3.3,16,2,7.5,1.4,4.34-.62,7.32,2.6,5.19-2,10.58,2,5.32-5.3,11.88.59,1.92h0l2.85,0a4.5,4.5,0,0,1,4.4,5.43l.1.07.49-19-1-3Z"/><path class="cls-17" d="M64,1373h64c0-44-16-77-16-77H83S64,1329,64,1373Z"/><path class="cls-11" d="M130,1373h0L62,1372a1,1,0,0,1,0-2h0l68,.94a1,1,0,0,1,0,2Z"/><path class="cls-11" d="M129.92,1368.58h0l-67.79-.94a1,1,0,0,1-1-1,1,1,0,0,1,1-1l67.79.94a1,1,0,0,1,0,2Z"/><path class="cls-11" d="M129.74,1364.2h0l-67.37-.95a1,1,0,0,1-1-1,1,1,0,0,1,1-1l67.37.95a1,1,0,0,1,0,2Z"/><path class="cls-11" d="M129.45,1359.79h0l-66.71-.94a1,1,0,0,1-1-1,1,1,0,0,1,1-1l66.71.94a1,1,0,0,1,0,2Z"/><path class="cls-11" d="M129.07,1355.39h0l-65.84-.93a1,1,0,0,1,0-2l65.84.93a1,1,0,0,1,0,2Z"/><path class="cls-11" d="M128.58,1351h0l-64.75-.92a1,1,0,0,1-1-1,1,1,0,0,1,1-1l64.75.92a1,1,0,0,1,0,2Z"/><path class="cls-11" d="M67.5,1342h57c2.49,0,4.5-1.51,4.5-4s-2-4-4.5-4l-57-1a4.5,4.5,0,0,0,0,9Z"/><line class="cls-9" x1="70.23" y1="1328.5" x2="122.97" y2="1329.45"/><line class="cls-9" x1="71.09" y1="1325.5" x2="122.26" y2="1326.44"/><line class="cls-9" x1="72.01" y1="1322.5" x2="121.5" y2="1323.43"/><line class="cls-9" x1="72.99" y1="1319.5" x2="120.68" y2="1320.41"/><line class="cls-9" x1="74.03" y1="1316.5" x2="119.82" y2="1317.39"/><line class="cls-9" x1="75.12" y1="1313.5" x2="118.91" y2="1314.37"/><line class="cls-9" x1="76.28" y1="1310.5" x2="117.94" y2="1311.35"/><line class="cls-9" x1="77.51" y1="1307.5" x2="116.91" y2="1308.32"/><line class="cls-9" x1="78.81" y1="1304.5" x2="115.82" y2="1305.29"/><path class="cls-17" d="M176,1373h64c0-44-16-77-16-77H195S176,1329,176,1373Z"/><path class="cls-11" d="M242,1373h0l-68-.94a1,1,0,0,1,0-2h0l68,.94a1,1,0,0,1,0,2Z"/><path class="cls-11" d="M241.92,1368.58h0l-67.79-.94a1,1,0,0,1-1-1,1,1,0,0,1,1-1l67.79.94a1,1,0,0,1,0,2Z"/><path class="cls-11" d="M241.74,1364.2h0l-67.37-.95a1,1,0,0,1-1-1,1,1,0,0,1,1-1l67.37.95a1,1,0,0,1,0,2Z"/><path class="cls-11" d="M241.45,1359.79h0l-66.71-.94a1,1,0,0,1-1-1,1,1,0,0,1,1-1l66.71.94a1,1,0,0,1,0,2Z"/><path class="cls-11" d="M241.07,1355.39h0l-65.84-.93a1,1,0,0,1,0-2l65.84.93a1,1,0,0,1,0,2Z"/><path class="cls-11" d="M240.58,1351h0l-64.75-.92a1,1,0,0,1-1-1,1,1,0,0,1,1-1l64.75.92a1,1,0,0,1,0,2Z"/><path class="cls-11" d="M179.5,1342h57c2.49,0,4.5-1.51,4.5-4s-2-4-4.5-4l-57-1a4.5,4.5,0,0,0,0,9Z"/><line class="cls-9" x1="182.23" y1="1328.5" x2="234.97" y2="1329.45"/><line class="cls-9" x1="183.09" y1="1325.5" x2="234.26" y2="1326.44"/><line class="cls-9" x1="184.01" y1="1322.5" x2="233.5" y2="1323.43"/><line class="cls-9" x1="184.99" y1="1319.5" x2="232.68" y2="1320.41"/><line class="cls-9" x1="186.03" y1="1316.5" x2="231.82" y2="1317.39"/><line class="cls-9" x1="187.12" y1="1313.5" x2="230.91" y2="1314.37"/><line class="cls-9" x1="188.28" y1="1310.5" x2="229.94" y2="1311.35"/><line class="cls-9" x1="189.51" y1="1307.5" x2="228.91" y2="1308.32"/><line class="cls-9" x1="190.81" y1="1304.5" x2="227.82" y2="1305.29"/><rect class="cls-18" x="110.5" y="571.5" width="8" height="13"/><path class="cls-19" d="M94,631h42c0-14-17-47-17-47h-8S94,615,94,631Z"/><line class="cls-3" x1="105.69" y1="594.5" x2="124.07" y2="594.5"/><line class="cls-3" x1="104.75" y1="596.5" x2="124.98" y2="596.5"/><line class="cls-3" x1="106.66" y1="592.5" x2="123.14" y2="592.5"/><line class="cls-3" x1="107.64" y1="590.5" x2="122.2" y2="590.5"/><line class="cls-3" x1="108.65" y1="588.5" x2="121.23" y2="588.5"/><line class="cls-3" x1="109.67" y1="586.5" x2="120.25" y2="586.5"/><path class="cls-20" d="M138,630.25H92a.75.75,0,0,1,0-1.5h46a.75.75,0,0,1,0,1.5Z"/><path class="cls-20" d="M137.56,627.25H92.37a.75.75,0,1,1,0-1.5h45.2a.75.75,0,0,1,0,1.5Z"/><path class="cls-20" d="M136.94,624.25h-44a.75.75,0,1,1,0-1.5h44a.75.75,0,0,1,0,1.5Z"/><path class="cls-20" d="M136.17,621.25H93.63a.75.75,0,1,1,0-1.5h42.54a.75.75,0,1,1,0,1.5Z"/><path class="cls-20" d="M135.27,618.25H94.47a.75.75,0,1,1,0-1.5h40.79a.75.75,0,0,1,0,1.5Z"/><path class="cls-20" d="M134.27,615.25H95.43a.75.75,0,1,1,0-1.5h38.83a.75.75,0,1,1,0,1.5Z"/><path class="cls-20" d="M133.19,612.25H96.48a.75.75,0,0,1,0-1.5h36.71a.75.75,0,1,1,0,1.5Z"/><path class="cls-20" d="M132.05,609.25H97.61a.75.75,0,0,1,0-1.5h34.44a.75.75,0,1,1,0,1.5Z"/><polygon class="cls-21" points="128.5 601.5 128.5 598.5 127.5 590.5 126.5 589.5 125.5 589.5 124.5 591.5 125.5 597.5 126.5 600.56 128.5 601.5"/><path class="cls-22" d="M103.5,584.5c-1.1,0-2.1,1.35-2.21,3l-.57,8c-.12,1.65-.89,3.44-1.71,4s-1,1.45-.5,2,2.33.78,4,.51h.08a3.68,3.68,0,0,0,3-3.49v-11C105.5,585.85,104.6,584.5,103.5,584.5Z"/><path class="cls-6" d="M103.5,584.5c-1.1,0-2.1,1.35-2.21,3l-.57,8c-.12,1.65-.89,3.44-1.71,4s-1,1.45-.5,2,2.33.78,4,.51h.08a3.68,3.68,0,0,0,3-3.49v-11C105.5,585.85,104.6,584.5,103.5,584.5Z"/><path class="cls-21" d="M127.5,600.5h-6.29c-3-.12-8.42-1-12.18-1H99.5a2,2,0,0,0,0,4h10c3.5,0,7.5-1,11.72-1h6.28a1,1,0,0,0,0-2Z"/><line class="cls-6" x1="125.83" y1="598.5" x2="128.5" y2="598.5"/><line class="cls-6" x1="125.17" y1="595.5" x2="128.13" y2="595.5"/><line class="cls-6" x1="125" y1="594.5" x2="128" y2="594.5"/><rect class="cls-7" x="119.5" y="574.5" width="3" height="5"/><path class="cls-4" d="M118.5,578.5h6v4a3.25,3.25,0,0,1-6,0Z"/><rect class="cls-20" x="123.5" y="574.5" width="5" height="9"/><circle class="cls-21" cx="125.5" cy="586.5" r="5"/><path class="cls-4" d="M117,601.5a1.5,1.5,0,0,1-1.36-2.14l8-17a1.5,1.5,0,0,1,2.71,1.28l-8,17A1.5,1.5,0,0,1,117,601.5Z"/><polygon class="cls-20" points="101.5 573.5 98.56 583.75 108.5 584.5 106.5 573.5 101.5 573.5"/><circle class="cls-21" cx="103.5" cy="584.5" r="5"/><path class="cls-8" d="M114.5,584.5a1,1,0,0,1-.71-.29l-7-7a1,1,0,0,1,1.41-1.41l7,7a1,1,0,0,1-.71,1.71Z"/><path class="cls-8" d="M108,577.5a1.5,1.5,0,0,1-1-2.63l8-7a1.5,1.5,0,0,1,2,2.26l-8,7A1.49,1.49,0,0,1,108,577.5Z"/><rect class="cls-18" x="185.5" y="571.5" width="8" height="13" transform="translate(379 1156) rotate(-180)"/><path class="cls-19" d="M210,631H168c0-14,17-47,17-47h8S210,615,210,631Z"/><line class="cls-3" x1="198.31" y1="594.5" x2="179.93" y2="594.5"/><line class="cls-3" x1="199.25" y1="596.5" x2="179.02" y2="596.5"/><line class="cls-3" x1="197.34" y1="592.5" x2="180.86" y2="592.5"/><line class="cls-3" x1="196.36" y1="590.5" x2="181.8" y2="590.5"/><line class="cls-3" x1="195.35" y1="588.5" x2="182.77" y2="588.5"/><line class="cls-3" x1="194.33" y1="586.5" x2="183.74" y2="586.5"/><path class="cls-20" d="M166,630.25h46a.75.75,0,0,0,0-1.5H166a.75.75,0,0,0,0,1.5Z"/><path class="cls-20" d="M166.44,627.25h45.2a.75.75,0,1,0,0-1.5h-45.2a.75.75,0,0,0,0,1.5Z"/><path class="cls-20" d="M167.06,624.25h44a.75.75,0,0,0,0-1.5h-44a.75.75,0,0,0,0,1.5Z"/><path class="cls-20" d="M167.83,621.25h42.54a.75.75,0,1,0,0-1.5H167.83a.75.75,0,0,0,0,1.5Z"/><path class="cls-20" d="M168.73,618.25h40.79a.75.75,0,0,0,0-1.5H168.73a.75.75,0,0,0,0,1.5Z"/><path class="cls-20" d="M169.73,615.25h38.83a.75.75,0,0,0,0-1.5H169.73a.75.75,0,0,0,0,1.5Z"/><path class="cls-20" d="M170.81,612.25h36.71a.75.75,0,0,0,0-1.5H170.81a.75.75,0,1,0,0,1.5Z"/><path class="cls-20" d="M171.95,609.25h34.44a.75.75,0,0,0,0-1.5H171.95a.75.75,0,1,0,0,1.5Z"/><polygon class="cls-21" points="175.5 601.5 175.5 598.5 176.5 590.5 177.5 589.5 178.5 589.5 179.5 591.5 178.5 597.5 177.5 600.56 175.5 601.5"/><path class="cls-22" d="M200.5,584.5c1.1,0,2.1,1.35,2.21,3l.57,8c.12,1.65.89,3.44,1.71,4s1.05,1.45.5,2-2.33.78-4,.51h-.08a3.68,3.68,0,0,1-3-3.49v-11C198.5,585.85,199.4,584.5,200.5,584.5Z"/><path class="cls-6" d="M200.5,584.5c1.1,0,2.1,1.35,2.21,3l.57,8c.12,1.65.89,3.44,1.71,4s1.05,1.45.5,2-2.33.78-4,.51h-.08a3.68,3.68,0,0,1-3-3.49v-11C198.5,585.85,199.4,584.5,200.5,584.5Z"/><path class="cls-21" d="M176.5,600.5h6.29c3-.12,8.42-1,12.18-1h9.53a2,2,0,0,1,0,4h-10c-3.5,0-7.5-1-11.72-1H176.5a1,1,0,1,1,0-2Z"/><line class="cls-6" x1="178.17" y1="598.5" x2="175.5" y2="598.5"/><line class="cls-6" x1="178.83" y1="595.5" x2="175.87" y2="595.5"/><line class="cls-6" x1="179" y1="594.5" x2="176" y2="594.5"/><rect class="cls-7" x="181.5" y="574.5" width="3" height="5" transform="translate(366 1154) rotate(-180)"/><path class="cls-4" d="M185.5,578.5h-6v4a3.25,3.25,0,0,0,6,0Z"/><rect class="cls-20" x="175.5" y="574.5" width="5" height="9" transform="translate(356 1158) rotate(-180)"/><circle class="cls-21" cx="178.5" cy="586.5" r="5"/><path class="cls-4" d="M187,601.5a1.5,1.5,0,0,0,1.36-2.14l-8-17a1.5,1.5,0,1,0-2.71,1.28l8,17A1.5,1.5,0,0,0,187,601.5Z"/><polygon class="cls-20" points="202.5 573.5 205.44 583.75 195.5 584.5 197.5 573.5 202.5 573.5"/><circle class="cls-21" cx="200.5" cy="584.5" r="5"/><path class="cls-8" d="M189.5,584.5a1,1,0,0,0,.71-.29l7-7a1,1,0,0,0-1.41-1.41l-7,7a1,1,0,0,0,.71,1.71Z"/><path class="cls-8" d="M196,577.5a1.5,1.5,0,0,0,1-2.63l-8-7a1.5,1.5,0,1,0-2,2.26l8,7A1.49,1.49,0,0,0,196,577.5Z"/></g><g id="fill"><path class="cls-23" d="M63,539a3,3,0,0,0,3,3H234a3,3,0,0,0,3-3V111a26.42,26.42,0,0,0-.81-5.89L208.81,6.89A4.19,4.19,0,0,0,205,4H95a4.19,4.19,0,0,0-3.81,2.89L63.81,105.11A26.42,26.42,0,0,0,63,111Z"/><path class="cls-23" d="M255,1299a2.22,2.22,0,0,0,2.26-2.91l-19.51-76.28a28.74,28.74,0,0,1-.74-5.91V644a3,3,0,0,0-3-3H64a3,3,0,0,0-3,3v575.05a33.19,33.19,0,0,1-.65,5.93l-15.71,71.09A2.31,2.31,0,0,0,47,1299h76a2.22,2.22,0,0,0,2.26-2.91l-2.73-10.69a2.22,2.22,0,0,1,2.26-2.91h51.87a2.31,2.31,0,0,1,2.35,2.93l-2.35,10.64A2.31,2.31,0,0,0,179,1299Z"/><polygon class="cls-24" points="238.5 1298.25 237.28 1231.25 214.5 1128.58 214.5 1048 140.5 1048 140.5 1281.75 179.65 1281.75 176 1298.25 238.5 1298.25"/><polygon class="cls-24" points="45 1299 65 1299 65 1048 61 1048 61 1223 45 1299"/><rect class="cls-25" x="83" y="794" width="65" height="3"/><rect class="cls-25" x="83" y="806" width="65" height="3"/><rect class="cls-25" x="83" y="788" width="65" height="3"/><rect class="cls-25" x="83" y="800" width="65" height="3"/><rect class="cls-25" x="83" y="782" width="65" height="3"/><rect class="cls-25" x="83" y="770" width="65" height="3"/><rect class="cls-25" x="83" y="776" width="65" height="3"/><rect class="cls-26" x="83" y="770" width="34" height="21"/><rect class="cls-25" x="218" y="794" width="19" height="3"/><rect class="cls-25" x="218" y="806" width="19" height="3"/><rect class="cls-25" x="218" y="800" width="19" height="3"/><rect class="cls-26" x="218" y="770" width="19" height="21"/><rect class="cls-24" x="61" y="642" width="4" height="57"/><rect class="cls-24" x="141" y="641" width="74" height="58"/><path class="cls-5" d="M79,542c-1.65,0-2.15,1-1.11,2.33l22.22,27.34A7.16,7.16,0,0,0,105,574h91a7.26,7.26,0,0,0,4.91-2.31l22.67-27.38c1.05-1.27.56-2.31-1.09-2.31Z"/><path class="cls-27" d="M94.44,561c-1.65,0-2.15,1-1.11,2.33l6.78,8.34A7.16,7.16,0,0,0,105,574h91a7.26,7.26,0,0,0,4.91-2.31l6.94-8.38c1.05-1.27.56-2.31-1.09-2.31Z"/><polygon class="cls-24" points="237 480 215 480 141 480 63 480 63 481 63 481 63 542 65 542 65 511 141 511 141 542 215 542 215 511 237 511 237 480"/><polygon class="cls-24" points="154 4 154 108 237 108 208 4 154 4"/></g><g id="fill_detail" data-name="fill detail" class="cls-28"><line class="cls-29" x1="67" y1="1129" x2="67" y2="1194.9"/><line class="cls-29" x1="72" y1="1129" x2="72" y2="1172.26"/><line class="cls-29" x1="77" y1="1129" x2="77" y2="1149.63"/><line class="cls-29" x1="87" y1="1129" x2="87" y2="1146.55"/><line class="cls-29" x1="92" y1="1129" x2="92" y2="1166.09"/><line class="cls-29" x1="97" y1="1129" x2="97" y2="1185.64"/><line class="cls-29" x1="102" y1="1129" x2="102" y2="1205.18"/><line class="cls-29" x1="107" y1="1129" x2="107" y2="1224.73"/><line class="cls-29" x1="112" y1="1129" x2="112" y2="1244.27"/><line class="cls-29" x1="117" y1="1129" x2="117" y2="1263.82"/><line class="cls-29" x1="122" y1="1129" x2="122" y2="1283"/><line class="cls-29" x1="127" y1="1129" x2="127" y2="1283"/><line class="cls-29" x1="132" y1="1129" x2="132" y2="1283"/><line class="cls-29" x1="137" y1="1129" x2="137" y2="1283"/><line class="cls-29" x1="142" y1="1129" x2="142" y2="1283"/><line class="cls-29" x1="147" y1="1129" x2="147" y2="1283"/><line class="cls-29" x1="152" y1="1129" x2="152" y2="1283"/><line class="cls-29" x1="157" y1="1129" x2="157" y2="1283"/><line class="cls-29" x1="162" y1="1129" x2="162" y2="1283"/><line class="cls-29" x1="167" y1="1129" x2="167" y2="1283"/><line class="cls-29" x1="172" y1="1129" x2="172" y2="1283"/><line class="cls-29" x1="177" y1="1129" x2="177" y2="1283"/><line class="cls-29" x1="182" y1="1129" x2="182" y2="1271.84"/><line class="cls-29" x1="187" y1="1129" x2="187" y2="1249.21"/><line class="cls-29" x1="192" y1="1129" x2="192" y2="1226.58"/><line class="cls-29" x1="197" y1="1129" x2="197" y2="1203.95"/><line class="cls-29" x1="202" y1="1129" x2="202" y2="1181.32"/><line class="cls-29" x1="207" y1="1129" x2="207" y2="1158.68"/><line class="cls-29" x1="212" y1="1129" x2="212" y2="1136.05"/><line class="cls-29" x1="217" y1="1129" x2="217" y2="1138.73"/><line class="cls-29" x1="222" y1="1129" x2="222" y2="1158.27"/><line class="cls-29" x1="227" y1="1129" x2="227" y2="1177.79"/><line class="cls-29" x1="232" y1="1129" x2="232" y2="1197.36"/><line class="cls-29" x1="66" y1="983" x2="66" y2="1048"/><line class="cls-29" x1="71" y1="983" x2="71" y2="1048"/><line class="cls-29" x1="76" y1="983" x2="76" y2="1048"/><line class="cls-29" x1="81" y1="983" x2="81" y2="1048"/><line class="cls-29" x1="86" y1="983" x2="86" y2="1048"/><line class="cls-29" x1="91" y1="983" x2="91" y2="1048"/><line class="cls-29" x1="96" y1="983" x2="96" y2="1048"/><line class="cls-29" x1="101" y1="983" x2="101" y2="1048"/><line class="cls-29" x1="106" y1="983" x2="106" y2="1048"/><line class="cls-29" x1="111" y1="983" x2="111" y2="1048"/><line class="cls-29" x1="116" y1="983" x2="116" y2="1048"/><line class="cls-29" x1="121" y1="983" x2="121" y2="1048"/><line class="cls-29" x1="126" y1="983" x2="126" y2="1048"/><line class="cls-29" x1="131" y1="983" x2="131" y2="1048"/><line class="cls-29" x1="136" y1="983" x2="136" y2="1048"/><line class="cls-29" x1="141" y1="983" x2="141" y2="1048"/><line class="cls-29" x1="146" y1="983" x2="146" y2="1048"/><line class="cls-29" x1="151" y1="983" x2="151" y2="1048"/><line class="cls-29" x1="156" y1="983" x2="156" y2="1048"/><line class="cls-29" x1="161" y1="983" x2="161" y2="1048"/><line class="cls-29" x1="166" y1="983" x2="166" y2="1048"/><line class="cls-29" x1="171" y1="983" x2="171" y2="1048"/><line class="cls-29" x1="176" y1="983" x2="176" y2="1048"/><line class="cls-29" x1="181" y1="983" x2="181" y2="1048"/><line class="cls-29" x1="186" y1="983" x2="186" y2="1048"/><line class="cls-29" x1="191" y1="983" x2="191" y2="1048"/><line class="cls-29" x1="196" y1="983" x2="196" y2="1048"/><line class="cls-29" x1="201" y1="983" x2="201" y2="1048"/><line class="cls-29" x1="206" y1="983" x2="206" y2="1048"/><line class="cls-29" x1="211" y1="983" x2="211" y2="1048"/><line class="cls-29" x1="216" y1="983" x2="216" y2="1048"/><line class="cls-29" x1="221" y1="983" x2="221" y2="1048"/><line class="cls-29" x1="226" y1="983" x2="226" y2="1048"/><line class="cls-29" x1="231" y1="983" x2="231" y2="1048"/><line class="cls-29" x1="69" y1="641" x2="69" y2="699"/><line class="cls-29" x1="74" y1="641" x2="74" y2="699"/><line class="cls-29" x1="79" y1="641" x2="79" y2="699"/><line class="cls-29" x1="84" y1="641" x2="84" y2="699"/><line class="cls-29" x1="89" y1="641" x2="89" y2="699"/><line class="cls-29" x1="94" y1="641" x2="94" y2="699"/><line class="cls-29" x1="99" y1="641" x2="99" y2="699"/><line class="cls-29" x1="104" y1="641" x2="104" y2="699"/><line class="cls-29" x1="109" y1="641" x2="109" y2="699"/><line class="cls-29" x1="114" y1="641" x2="114" y2="699"/><line class="cls-29" x1="119" y1="641" x2="119" y2="699"/><line class="cls-29" x1="124" y1="641" x2="124" y2="699"/><line class="cls-29" x1="129" y1="641" x2="129" y2="699"/><line class="cls-29" x1="134" y1="641" x2="134" y2="699"/><line class="cls-29" x1="139" y1="641" x2="139" y2="699"/><line class="cls-29" x1="144" y1="641" x2="144" y2="699"/><line class="cls-29" x1="149" y1="641" x2="149" y2="699"/><line class="cls-29" x1="154" y1="641" x2="154" y2="699"/><line class="cls-29" x1="159" y1="641" x2="159" y2="699"/><line class="cls-29" x1="164" y1="641" x2="164" y2="699"/><line class="cls-29" x1="169" y1="641" x2="169" y2="699"/><line class="cls-29" x1="174" y1="641" x2="174" y2="699"/><line class="cls-29" x1="179" y1="641" x2="179" y2="699"/><line class="cls-29" x1="184" y1="641" x2="184" y2="699"/><line class="cls-29" x1="189" y1="641" x2="189" y2="699"/><line class="cls-29" x1="194" y1="641" x2="194" y2="699"/><line class="cls-29" x1="199" y1="641" x2="199" y2="699"/><line class="cls-29" x1="204" y1="641" x2="204" y2="699"/><line class="cls-29" x1="209" y1="641" x2="209" y2="699"/><line class="cls-29" x1="214" y1="641" x2="214" y2="699"/><line class="cls-29" x1="219" y1="641" x2="219" y2="699"/><line class="cls-29" x1="224" y1="641" x2="224" y2="699"/><line class="cls-29" x1="229" y1="641" x2="229" y2="699"/><line class="cls-29" x1="234" y1="641" x2="234" y2="699"/><line class="cls-29" x1="68" y1="480" x2="68" y2="542"/><line class="cls-29" x1="73" y1="480" x2="73" y2="542"/><line class="cls-29" x1="78" y1="480" x2="78" y2="542"/><line class="cls-29" x1="83" y1="480" x2="83" y2="542"/><line class="cls-29" x1="88" y1="480" x2="88" y2="542"/><line class="cls-29" x1="93" y1="480" x2="93" y2="542"/><line class="cls-29" x1="98" y1="480" x2="98" y2="542"/><line class="cls-29" x1="103" y1="480" x2="103" y2="542"/><line class="cls-29" x1="108" y1="480" x2="108" y2="542"/><line class="cls-29" x1="113" y1="480" x2="113" y2="542"/><line class="cls-29" x1="118" y1="480" x2="118" y2="542"/><line class="cls-29" x1="123" y1="480" x2="123" y2="542"/><line class="cls-29" x1="128" y1="480" x2="128" y2="542"/><line class="cls-29" x1="133" y1="480" x2="133" y2="542"/><line class="cls-29" x1="138" y1="480" x2="138" y2="542"/><line class="cls-29" x1="143" y1="480" x2="143" y2="542"/><line class="cls-29" x1="148" y1="480" x2="148" y2="542"/><line class="cls-29" x1="153" y1="480" x2="153" y2="542"/><line class="cls-29" x1="158" y1="480" x2="158" y2="542"/><line class="cls-29" x1="163" y1="480" x2="163" y2="542"/><line class="cls-29" x1="168" y1="480" x2="168" y2="542"/><line class="cls-29" x1="173" y1="480" x2="173" y2="542"/><line class="cls-29" x1="178" y1="480" x2="178" y2="542"/><line class="cls-29" x1="183" y1="480" x2="183" y2="542"/><line class="cls-29" x1="188" y1="480" x2="188" y2="542"/><line class="cls-29" x1="193" y1="480" x2="193" y2="542"/><line class="cls-29" x1="198" y1="480" x2="198" y2="542"/><line class="cls-29" x1="203" y1="480" x2="203" y2="542"/><line class="cls-29" x1="208" y1="480" x2="208" y2="542"/><line class="cls-29" x1="213" y1="480" x2="213" y2="542"/><line class="cls-29" x1="218" y1="480" x2="218" y2="542"/><line class="cls-29" x1="223" y1="480" x2="223" y2="542"/><line class="cls-29" x1="228" y1="480" x2="228" y2="542"/><line class="cls-29" x1="233" y1="480" x2="233" y2="542"/><line class="cls-29" x1="96.64" y1="6" x2="68" y2="108"/><line class="cls-29" x1="100.02" y1="6" x2="73" y2="108"/><line class="cls-29" x1="103.4" y1="6" x2="78" y2="108"/><line class="cls-29" x1="106.78" y1="6" x2="83" y2="108"/><line class="cls-29" x1="110.16" y1="6" x2="88" y2="108"/><line class="cls-29" x1="113.54" y1="6" x2="93" y2="108"/><line class="cls-29" x1="116.92" y1="6" x2="98" y2="108"/><line class="cls-29" x1="120.3" y1="6" x2="103" y2="108"/><line class="cls-29" x1="123.68" y1="6" x2="108" y2="108"/><line class="cls-29" x1="127.06" y1="6" x2="113" y2="108"/><line class="cls-29" x1="130.45" y1="6" x2="118" y2="108"/><line class="cls-29" x1="133.83" y1="6" x2="123" y2="108"/><line class="cls-29" x1="137.21" y1="6" x2="128" y2="108"/><line class="cls-29" x1="140.59" y1="6" x2="133" y2="108"/><line class="cls-29" x1="143.97" y1="6" x2="138" y2="108"/><line class="cls-29" x1="147.35" y1="6" x2="143" y2="108"/><line class="cls-29" x1="150.73" y1="6" x2="148" y2="108"/><line class="cls-29" x1="154.11" y1="6" x2="153" y2="108"/><line class="cls-29" x1="157.49" y1="6" x2="158" y2="108"/><line class="cls-29" x1="160.87" y1="6" x2="163" y2="108"/><line class="cls-29" x1="164.25" y1="6" x2="168" y2="108"/><line class="cls-29" x1="167.64" y1="6" x2="173" y2="108"/><line class="cls-29" x1="171.02" y1="6" x2="178" y2="108"/><line class="cls-29" x1="174.4" y1="6" x2="183" y2="108"/><line class="cls-29" x1="177.78" y1="6" x2="188" y2="108"/><line class="cls-29" x1="181.16" y1="6" x2="193" y2="108"/><line class="cls-29" x1="184.54" y1="6" x2="198" y2="108"/><line class="cls-29" x1="187.92" y1="6" x2="203" y2="108"/><line class="cls-29" x1="191.3" y1="6" x2="208" y2="108"/><line class="cls-29" x1="194.68" y1="6" x2="213" y2="108"/><line class="cls-29" x1="198.06" y1="6" x2="218" y2="108"/><line class="cls-29" x1="201.44" y1="6" x2="223" y2="108"/><line class="cls-29" x1="204.83" y1="6" x2="228" y2="108"/><line class="cls-29" x1="208.21" y1="6" x2="233" y2="108"/><line class="cls-29" x1="96.31" y1="567" x2="204.8" y2="567"/><line class="cls-29" x1="92.16" y1="562" x2="208.94" y2="562"/><line class="cls-29" x1="88.19" y1="557" x2="213.08" y2="557"/><line class="cls-29" x1="84.13" y1="552" x2="217.22" y2="552"/><line class="cls-29" x1="80.06" y1="547" x2="221.36" y2="547"/></g><g id="shading"><polygon class="cls-30" points="199 641 199 1194.08 186 1298.79 258 1298.79 236.22 1209.94 236.22 641 199 641"/><polygon class="cls-31" points="228 641 228 1173.08 250 1298.79 258 1298.79 236.22 1209.94 236.22 641 228 641"/><polygon class="cls-30" points="199 542 236.22 542 236.22 108 207.88 4.06 185.25 4 199 108 199 542"/><polygon class="cls-32" points="228 542 236.22 542 236.22 108 207.1 4 204 4 228 108 228 542"/><g class="cls-30"><path d="M192,542a5,5,0,0,0-4.2,2.75l-11.6,26.5A1.82,1.82,0,0,0,178,574h18a7.26,7.26,0,0,0,4.91-2.31l22.67-27.38c1.05-1.27.56-2.31-1.09-2.31Z"/></g><g class="cls-32"><path d="M219,542a7.16,7.16,0,0,0-4.89,2.33l-22.22,27.34c-1,1.28-.54,2.33,1.11,2.33h3a7.26,7.26,0,0,0,4.91-2.31l22.67-27.38c1.05-1.27.56-2.31-1.09-2.31Z"/></g></g><g id="fuselage_outline_s" data-name="fuselage (outline)s"><path class="cls-33" d="M255,1299a2.22,2.22,0,0,0,2.26-2.91l-19.51-76.28a28.74,28.74,0,0,1-.74-5.91V644a3,3,0,0,0-3-3H64a3,3,0,0,0-3,3v575.05a33.19,33.19,0,0,1-.65,5.93l-15.71,71.09A2.31,2.31,0,0,0,47,1299h76a2.22,2.22,0,0,0,2.26-2.91l-2.73-10.69a2.22,2.22,0,0,1,2.26-2.91h51.87a2.31,2.31,0,0,1,2.35,2.93l-2.35,10.64A2.31,2.31,0,0,0,179,1299Z"/><path class="cls-33" d="M63,539a3,3,0,0,0,3,3H234a3,3,0,0,0,3-3V111a26.42,26.42,0,0,0-.81-5.89L208.81,6.89A4.19,4.19,0,0,0,205,4H95a4.19,4.19,0,0,0-3.81,2.89L63.81,105.11A26.42,26.42,0,0,0,63,111Z"/><path class="cls-33" d="M79,542c-1.65,0-2.15,1-1.11,2.33l22.22,27.34A7.16,7.16,0,0,0,105,574h91a7.26,7.26,0,0,0,4.91-2.31l22.67-27.38c1.05-1.27.56-2.31-1.09-2.31Z"/></g><g id="detail"><path class="cls-29" d="M82.74,1129.91c-.41-1.6-1-1.59-1.39,0L44.65,1296.07A2.31,2.31,0,0,0,47,1299h76a2.22,2.22,0,0,0,2.26-2.91Z"/><path class="cls-29" d="M214.74,1129.91c-.41-1.6-1-1.59-1.39,0l-36.71,166.14A2.31,2.31,0,0,0,179,1299h76a2.22,2.22,0,0,0,2.26-2.91Z"/><path class="cls-23" d="M61.64,1232.86c1.3-1,2.55-.52,2.78,1.11A197,197,0,0,1,66,1259c0,14-1.41,21.06-1.41,21.06A3.82,3.82,0,0,1,61,1283H34a3,3,0,0,1-3-3v-20a7,7,0,0,1,2.36-4.86Z"/><path class="cls-29" d="M61.64,1232.86c1.3-1,2.55-.52,2.78,1.11A197,197,0,0,1,66,1259c0,14-1.41,21.06-1.41,21.06A3.82,3.82,0,0,1,61,1283H34a3,3,0,0,1-3-3v-20a7,7,0,0,1,2.36-4.86Z"/><path class="cls-23" d="M240.36,1232.86c-1.3-1-2.55-.52-2.78,1.11a197,197,0,0,0-1.58,25c0,14,1.41,21.06,1.41,21.06A3.82,3.82,0,0,0,241,1283h27a3,3,0,0,0,3-3v-20a7,7,0,0,0-2.36-4.86Z"/><path class="cls-29" d="M240.36,1232.86c-1.3-1-2.55-.52-2.78,1.11a197,197,0,0,0-1.58,25c0,14,1.41,21.06,1.41,21.06A3.82,3.82,0,0,0,241,1283h27a3,3,0,0,0,3-3v-20a7,7,0,0,0-2.36-4.86Z"/><line class="cls-29" x1="61" y1="699" x2="237" y2="699"/><path class="cls-34" d="M163,1229a4,4,0,0,1-4-4V641a4,4,0,0,1,8,0v584A4,4,0,0,1,163,1229Z"/><path class="cls-35" d="M213,537a4,4,0,0,1-4-4V422a4,4,0,0,1,8,0V533A4,4,0,0,1,213,537Z"/><path class="cls-36" d="M227,537a4,4,0,0,1-4-4V496a4,4,0,0,1,8,0v37A4,4,0,0,1,227,537Z"/><path class="cls-34" d="M87,537a4,4,0,0,1-4-4V496a4,4,0,0,1,8,0v37A4,4,0,0,1,87,537Z"/><path class="cls-35" d="M73,537a4,4,0,0,1-4-4V422a4,4,0,0,1,8,0V533A4,4,0,0,1,73,537Z"/><line class="cls-29" x1="102.92" y1="542" x2="118.5" y2="573.77"/><line class="cls-29" x1="133.04" y1="542" x2="141.2" y2="574"/><line class="cls-29" x1="199.08" y1="542" x2="183.39" y2="574"/><line class="cls-29" x1="168.96" y1="542" x2="160.8" y2="574"/><line class="cls-29" x1="63" y1="108" x2="237" y2="108"/><polygon class="cls-25" points="184.63 156.38 174.66 156.38 172 153.72 172 136 174.55 136 174.55 152.67 175.71 153.83 183.57 153.83 184.74 152.67 184.74 136 187.28 136 187.28 153.72 184.63 156.38"/><polygon class="cls-25" points="184.74 161.15 184.74 176.05 174.8 161.15 174.55 161.15 173.27 161.15 172 161.15 172 180.26 174.55 180.26 174.55 165.36 184.48 180.26 184.74 180.26 186.01 180.26 187.28 180.26 187.28 161.15 184.74 161.15"/><rect class="cls-25" x="178.37" y="185.03" width="2.55" height="19.1"/><rect class="cls-25" x="173.27" y="208.92" width="12.74" height="2.55"/><rect class="cls-25" x="178.37" y="210.19" width="2.55" height="19.1"/><polygon class="cls-25" points="186.65 255.72 172.64 255.72 172.64 234.07 186.65 234.07 186.65 236.62 175.18 236.62 175.18 253.17 186.65 253.17 186.65 255.72"/><rect class="cls-25" x="173.91" y="243.62" width="12.74" height="2.55"/><path class="cls-25" d="M184.63,282.15H172V260.5h12.63l2.66,2.66v16.34Zm-10.08-2.55h9l1.16-1.16V264.21L183.57,263h-9Z"/><polygon class="cls-25" points="184.63 328.95 174.66 328.95 172 326.3 172 322.9 174.55 322.9 174.55 325.24 175.71 326.41 183.57 326.41 184.74 325.24 184.74 320.57 183.57 319.4 174.66 319.4 172 316.75 172 309.96 174.66 307.3 184.63 307.3 187.28 309.96 187.28 313.35 184.74 313.35 184.74 311.01 183.57 309.85 175.71 309.85 174.55 311.01 174.55 315.69 175.71 316.86 184.63 316.86 187.28 319.51 187.28 326.3 184.63 328.95"/><rect class="cls-25" x="173.27" y="333.73" width="12.74" height="2.55"/><rect class="cls-25" x="178.37" y="335" width="2.55" height="19.1"/><polygon class="cls-25" points="180.98 358.89 178.3 358.89 172 377.99 173.27 377.99 174.62 377.99 179.64 362.91 184.67 377.99 186.01 377.99 187.28 377.99 180.98 358.89"/><rect class="cls-25" x="174.55" y="371.94" width="9.87" height="2.55"/><rect class="cls-25" x="173.27" y="382.77" width="12.74" height="2.55"/><rect class="cls-25" x="178.37" y="384.04" width="2.55" height="19.1"/><polygon class="cls-25" points="186.65 429.57 172.64 429.57 172.64 407.92 186.65 407.92 186.65 410.47 175.18 410.47 175.18 427.02 186.65 427.02 186.65 429.57"/><rect class="cls-25" x="173.91" y="417.47" width="12.74" height="2.55"/><polygon class="cls-25" points="184.63 456 174.66 456 172 453.34 172 449.95 174.55 449.95 174.55 452.29 175.71 453.45 183.57 453.45 184.74 452.29 184.74 447.61 183.57 446.45 174.66 446.45 172 443.79 172 437 174.66 434.35 184.63 434.35 187.28 437 187.28 440.4 184.74 440.4 184.74 438.06 183.57 436.9 175.71 436.9 174.55 438.06 174.55 442.74 175.71 443.9 184.63 443.9 187.28 446.56 187.28 453.34 184.63 456"/></g><g id="detail_shading" data-name="detail shading"><path class="cls-31" d="M73,537a4,4,0,0,0,4-4V422a4,4,0,0,0-.71-2.27L73,445v84l-4,2.5V533A4,4,0,0,0,73,537Z"/><path class="cls-31" d="M213,537a4,4,0,0,0,4-4V422a4,4,0,0,0-.71-2.27L213,445v84l-4,2.5V533A4,4,0,0,0,213,537Z"/><path class="cls-31" d="M90,537a4,4,0,0,0,4-4V496a4,4,0,0,0-.34-1.61L90,505v25l-4,2.29V533A4,4,0,0,0,90,537Z"/><path class="cls-31" d="M230,537a4,4,0,0,0,4-4V496a4,4,0,0,0-.34-1.61L230,505v25l-4,2.29V533A4,4,0,0,0,230,537Z"/><path class="cls-31" d="M163,1229a4,4,0,0,0,4-4V672.2L163,753v467l-4,2.33V1225A4,4,0,0,0,163,1229Z"/></g></svg>