<svg id="Layer_1" data-name="Layer 1" xmlns="http://www.w3.org/2000/svg" viewBox="0 0 300 100"><defs><style>.cls-1,.cls-11,.cls-12,.cls-13,.cls-14,.cls-15,.cls-17,.cls-19,.cls-20,.cls-22,.cls-23,.cls-24,.cls-25,.cls-6{fill:none;}.cls-1{stroke:#b3b3b3;}.cls-1,.cls-12,.cls-13,.cls-19,.cls-20,.cls-21,.cls-22,.cls-23,.cls-24,.cls-25{stroke-linecap:round;}.cls-1,.cls-19,.cls-24,.cls-25{stroke-linejoin:round;}.cls-2{fill:#b3b3b3;}.cls-3{fill:#e6e6e6;}.cls-4{fill:#999;}.cls-5{fill:#ccc;}.cls-17,.cls-6{stroke:#000;}.cls-11,.cls-12,.cls-13,.cls-14,.cls-15,.cls-17,.cls-20,.cls-21,.cls-22,.cls-23,.cls-6{stroke-miterlimit:10;}.cls-7{opacity:0.16;}.cls-8{fill:#0071bc;}.cls-21,.cls-9{fill:#fff;}.cls-10{fill:#c1272d;}.cls-11{stroke:#ccc;}.cls-11,.cls-13,.cls-15,.cls-17,.cls-19,.cls-20,.cls-23{stroke-width:2px;}.cls-12,.cls-14,.cls-19,.cls-23{stroke:#fff;}.cls-12,.cls-14{stroke-width:4px;}.cls-13,.cls-21,.cls-22{stroke:#009245;}.cls-15,.cls-24{stroke:#0071bc;}.cls-16{fill:#009245;}.cls-18{opacity:0.2;}.cls-20,.cls-25{stroke:#c1272d;}</style></defs><title>burn-profile</title><polyline class="cls-1" points="12.11 77.7 7 63 15 47"/><circle class="cls-2" cx="276.5" cy="47.5" r="4"/><path class="cls-3" d="M274.72,48.61l-.45-.22c.29-.58.52-1.35.38-1.58,0,0,0-.06-.15-.06l-.18-.43a3.26,3.26,0,0,0,.93-1.82h.5a1.7,1.7,0,0,0,1.75,1.75v.5a.71.71,0,0,0-.75.75l-.43.18a.56.56,0,0,0-.49-.2c-.48.08-1,.84-1.11,1.13Zm.21-2.23a.61.61,0,0,1,.14.16,1.1,1.1,0,0,1,.1.7,1.33,1.33,0,0,1,.58-.26,1,1,0,0,1,.56.08,1.08,1.08,0,0,1,.29-.46,2,2,0,0,1-1.12-1.06A4.48,4.48,0,0,1,274.94,46.38Z"/><path class="cls-4" d="M275.49,46a2.17,2.17,0,0,0,.72.65l0,.06a1.17,1.17,0,0,0-.27,0,1.29,1.29,0,0,0-.48.1,1,1,0,0,0-.14-.4l0,0c.07-.1.15-.21.22-.33m0-1.55a3.49,3.49,0,0,1-1,2c1,0,0,2,0,2s.64-1.28,1.41-1.28a.83.83,0,0,1,.59.28,1,1,0,0,1,1-1,2,2,0,0,1-2-2Zm-1,4h0Zm0,0h0Zm0,0h0Z"/><path class="cls-4" d="M277.59,49.28A.83.83,0,0,1,277,49a2.24,2.24,0,0,1-1.48,2.37,4,4,0,0,0,.77.11,2.46,2.46,0,0,0,1.16-1.71h.14a1.55,1.55,0,0,0,1-.42,4.76,4.76,0,0,0,.34,1.3,4,4,0,0,0,.41-.34A8.28,8.28,0,0,1,279,48S278.36,49.28,277.59,49.28Z"/><path class="cls-5" d="M275.52,51.37A2.24,2.24,0,0,0,277,49a.83.83,0,0,0,.59.28c.77,0,1.41-1.28,1.41-1.28a8.28,8.28,0,0,0,.33,2.32,4,4,0,0,0,.38-.46A8,8,0,0,1,279.5,48l-.95-.22c-.21.41-.67,1-1,1a.37.37,0,0,1-.24-.13l-.85.35c0,.75,0,1.41-1.65,2.14A4,4,0,0,0,275.52,51.37Z"/><circle class="cls-6" cx="276.5" cy="47.5" r="4"/><path class="cls-7" d="M279.85,45.32A6,6,0,0,1,274,50a6.07,6.07,0,0,1-.63,0,4,4,0,0,0,6.48-4.64Z"/><circle class="cls-8" cx="269.5" cy="18.5" r="8.5"/><path class="cls-9" d="M266.84,15a4,4,0,0,1,5.81.36,3.13,3.13,0,0,1,.59,1.61h-1.8a2.45,2.45,0,0,0-.44-.94,2,2,0,0,0-3,.23,3.88,3.88,0,0,0-.56,2.25,3.4,3.4,0,0,0,.59,2.18,1.84,1.84,0,0,0,1.49.72,1.69,1.69,0,0,0,1.42-.62,2.72,2.72,0,0,0,.45-1h1.79a3.89,3.89,0,0,1-1.19,2.3,3.45,3.45,0,0,1-2.44.88,3.67,3.67,0,0,1-2.9-1.2,4.82,4.82,0,0,1-1.05-3.29A4.77,4.77,0,0,1,266.84,15Z"/><circle class="cls-10" cx="269.5" cy="80.5" r="8.5"/><path class="cls-9" d="M271.39,76.38a2.85,2.85,0,0,1,1.47,1.1,3.83,3.83,0,0,1,.62,1.39,6.69,6.69,0,0,1,.16,1.43,5.73,5.73,0,0,1-.69,2.92,3.12,3.12,0,0,1-2.9,1.61h-3.72V76.2h3.72A4.54,4.54,0,0,1,271.39,76.38Zm-3.31,1.31v5.64h1.67a1.8,1.8,0,0,0,1.78-1.26,4.44,4.44,0,0,0,.28-1.65,4,4,0,0,0-.41-2,1.75,1.75,0,0,0-1.65-.71Z"/><circle class="cls-2" cx="15.5" cy="86.5" r="8.5"/><path class="cls-9" d="M14.38,81.86h2l3.06,8.64h-2L17,88.72H13.77l-.59,1.78H11.3Zm-.12,5.37h2.21l-1.09-3.4Z"/><circle class="cls-11" cx="44" cy="46" r="26"/><path class="cls-12" d="M18,47c0,68,173-9,258-9"/><path class="cls-13" d="M18,47c0,68,173-9,258-9"/><circle class="cls-14" cx="276.5" cy="47.5" r="9.5"/><circle class="cls-15" cx="276.5" cy="47.5" r="9.5"/><path class="cls-12" d="M277,57C190,60,143,19,43,26.28"/><circle class="cls-8" cx="44.5" cy="46.5" r="20"/><path class="cls-16" d="M56.83,30.78C55,33.23,53.17,35.94,50.5,35.5c-6-1-2,3-2,3s-7,4-7,0-5-8-5-8l-2,8c-3,4-9,8,0,13s-2,4-2,4-2,2,1,3a3.1,3.1,0,0,1,2,4l-1.27,1.14a19.9,19.9,0,0,0,19.6.54c-.54-2.75-1.53-5.13-3.33-4.68-4,1-9-11-4-9s2-10,4-7,7-2,7,1c0,2.4,4.48-1.6,6.27-3.29A20,20,0,0,0,56.83,30.78Z"/><circle class="cls-17" cx="44.5" cy="46.5" r="20"/><path class="cls-16" d="M53,50c2,0,4,3.54,3,3.77s-3,2.73-3,2.73S54,53,51,53,53,50,53,50Z"/><path class="cls-18" d="M33,62l-1.17,0A20,20,0,0,0,63.73,41,33,33,0,0,1,33,62Z"/><line class="cls-19" x1="194.33" y1="18.63" x2="247.5" y2="53.5"/><path class="cls-20" d="M277,57C190,60,143,19,43,26.28"/><line class="cls-21" x1="161.09" y1="79.58" x2="108" y2="72"/><line class="cls-22" x1="166.6" y1="71.84" x2="161.5" y2="60.5"/><line class="cls-22" x1="176.96" y1="73.57" x2="196.5" y2="52.5"/><line class="cls-23" x1="178.58" y1="75.59" x2="227.5" y2="45.5"/><line class="cls-22" x1="178.58" y1="75.59" x2="227.5" y2="45.5"/><polyline class="cls-24" points="288 47.5 293 33 277.22 23.8"/><polyline class="cls-25" points="277.01 74.75 295 60 288 48.5"/><line class="cls-25" x1="194.33" y1="18.63" x2="247.5" y2="53.5"/><line class="cls-25" x1="189.28" y1="22.4" x2="196.5" y2="45.5"/><line class="cls-25" x1="177.75" y1="16.85" x2="139.5" y2="31.5"/><circle class="cls-10" cx="186.5" cy="13.5" r="8.5"/><path class="cls-9" d="M189.7,10.79h-4.57v1.83h4.2v1.5h-4.2v2.22h4.78V17.9h-6.54V9.26h6.33Z"/><circle class="cls-16" cx="170.5" cy="80.5" r="8.5"/><path class="cls-9" d="M173.77,77.12a2.19,2.19,0,0,1,.4,1.32,1.92,1.92,0,0,1-.4,1.27,2.06,2.06,0,0,1-.66.49,1.92,1.92,0,0,1,1,.76,2.28,2.28,0,0,1,.34,1.27,2.52,2.52,0,0,1-.38,1.38,2.38,2.38,0,0,1-1.59,1.11,6,6,0,0,1-1.22.12h-3.89V76.2h4.17A2.65,2.65,0,0,1,173.77,77.12Zm-4.69.58v1.9h2.1a1.74,1.74,0,0,0,.91-.21.82.82,0,0,0,.35-.76.77.77,0,0,0-.46-.8,3.25,3.25,0,0,0-1-.13Zm0,3.33v2.3h2.1a2,2,0,0,0,.88-.15,1.09,1.09,0,0,0,.57-1.08.93.93,0,0,0-.55-.93,2.19,2.19,0,0,0-.86-.15Z"/></svg>