<svg xmlns="http://www.w3.org/2000/svg" xmlns:xlink="http://www.w3.org/1999/xlink" viewBox="0 0 1180 845"><defs><style>.cls-1,.cls-11,.cls-12,.cls-13,.cls-14,.cls-15,.cls-16,.cls-17,.cls-18,.cls-19,.cls-20,.cls-22,.cls-24,.cls-25,.cls-26,.cls-29,.cls-3,.cls-30,.cls-31,.cls-34,.cls-4,.cls-41,.cls-43,.cls-44,.cls-5,.cls-57,.cls-6,.cls-62,.cls-7,.cls-8,.cls-9{fill:none;}.cls-2{fill:#e6e6e6;}.cls-3,.cls-4,.cls-5,.cls-6,.cls-8,.cls-9{stroke:#999;}.cls-11,.cls-12,.cls-13,.cls-14,.cls-15,.cls-16,.cls-17,.cls-18,.cls-19,.cls-20,.cls-22,.cls-24,.cls-25,.cls-26,.cls-29,.cls-3,.cls-30,.cls-31,.cls-34,.cls-4,.cls-40,.cls-41,.cls-43,.cls-44,.cls-47,.cls-5,.cls-51,.cls-57,.cls-58,.cls-6,.cls-61,.cls-62,.cls-7,.cls-8,.cls-9{stroke-miterlimit:10;}.cls-19,.cls-3,.cls-34,.cls-7{stroke-dasharray:6;}.cls-5{stroke-dasharray:3 3;}.cls-6{stroke-dasharray:5.14 5.14;}.cls-7{stroke:#666;}.cls-14,.cls-16,.cls-22,.cls-26,.cls-40,.cls-43,.cls-8{stroke-width:1.5px;}.cls-15,.cls-25,.cls-44,.cls-9{stroke-width:2px;}.cls-10{fill:#999;}.cls-11,.cls-12,.cls-13,.cls-14,.cls-15,.cls-16,.cls-17,.cls-18,.cls-19,.cls-20{stroke:#c1272d;}.cls-11,.cls-14{stroke-linecap:round;}.cls-11,.cls-12{stroke-width:2.5px;}.cls-17{stroke-dasharray:6 6;}.cls-18{stroke-dasharray:6.23 6.23;}.cls-20,.cls-24,.cls-51,.cls-61{stroke-width:3px;}.cls-21,.cls-64,.cls-65{fill:#c1272d;}.cls-22,.cls-24,.cls-25,.cls-26,.cls-29,.cls-30,.cls-31,.cls-34,.cls-40{stroke:#603813;}.cls-23,.cls-27,.cls-32,.cls-39,.cls-66{fill:#603813;}.cls-26{opacity:0.5;}.cls-27,.cls-32,.cls-64,.cls-68,.cls-69,.cls-71,.cls-72{font-size:10px;}.cls-27,.cls-32,.cls-64,.cls-65,.cls-66{font-family:Helvetica, Helvetica;}.cls-27,.cls-38{letter-spacing:-0.04em;}.cls-28{letter-spacing:-0.09em;}.cls-30{stroke-dasharray:5.76 5.76;}.cls-31{stroke-dasharray:4.25 4.25;}.cls-33{letter-spacing:-0.05em;}.cls-35{letter-spacing:-0.02em;}.cls-36,.cls-58{fill:#ccc;}.cls-37,.cls-38,.cls-39,.cls-65,.cls-66{font-size:8px;}.cls-37,.cls-38,.cls-39{font-family:HelveticaNeue-Bold, Helvetica Neue;}.cls-37,.cls-38,.cls-39,.cls-67,.cls-68,.cls-69,.cls-71,.cls-72{font-weight:700;}.cls-37,.cls-39{letter-spacing:-0.04em;}.cls-40,.cls-63{fill:#fff;}.cls-41,.cls-44,.cls-47,.cls-51,.cls-57,.cls-58,.cls-61{stroke:#000;}.cls-41,.cls-47,.cls-58,.cls-62{stroke-width:0.75px;}.cls-42{clip-path:url(#clip-path);}.cls-43{stroke:gray;}.cls-45{fill:#00c1ed;}.cls-46,.cls-47,.cls-51,.cls-72{fill:#8cc63f;}.cls-48,.cls-69{fill:#f15a24;}.cls-49{fill:#93278f;}.cls-50,.cls-68{fill:#0071bc;}.cls-52,.cls-71{fill:#ebc500;}.cls-53{fill:url(#linear-gradient);}.cls-54{fill:#b3b3b3;}.cls-55{fill:#ed1c24;}.cls-56{clip-path:url(#clip-path-2);}.cls-59{fill:url(#linear-gradient-2);}.cls-60{clip-path:url(#clip-path-3);}.cls-62{stroke:#fff;}.cls-67{font-size:12px;}.cls-67,.cls-68,.cls-69,.cls-71,.cls-72{font-family:Helvetica-Bold, Helvetica;}.cls-70{letter-spacing:-0.07em;}</style><clipPath id="clip-path"><rect class="cls-1" x="370" y="121" width="32" height="16"/></clipPath><linearGradient id="linear-gradient" x1="687" y1="272.63" x2="687" y2="384.38" gradientUnits="userSpaceOnUse"><stop offset="0.2" stop-color="#93278f"/><stop offset="0.8" stop-color="#f15a24"/></linearGradient><clipPath id="clip-path-2"><polygon class="cls-1" points="135.5 362.5 135.5 364.5 124.5 364.5 124.5 362.5 124.5 358.5 124.5 351.5 100.5 351.5 100.5 375.5 124.5 375.5 124.5 374.5 124.5 370.5 124.5 368.5 135.5 368.5 135.5 370.5 237 370.5 237 362.5 135.5 362.5"/></clipPath><linearGradient id="linear-gradient-2" x1="240" y1="367" x2="284" y2="367" gradientUnits="userSpaceOnUse"><stop offset="0" stop-color="#93278f"/><stop offset="1" stop-color="#f15a24"/></linearGradient><clipPath id="clip-path-3"><polygon class="cls-1" points="266 349.5 258 349.5 240 362.5 234 362.5 234 370.5 240 370.5 258 384.5 266 384.5 284 370.5 284 362.5 266 349.5"/></clipPath></defs><title>eps-fuelcells</title><g id="lower_meta" data-name="lower meta"><path class="cls-2" d="M952,233V592H40V233H952m3-3H37V595H955V230Z"/></g><g id="wiring"><line class="cls-3" x1="793" y1="142" x2="812.5" y2="142"/><polyline class="cls-3" points="633 781 595.5 781 595.5 786.5"/><polyline class="cls-3" points="701 781 719.5 781 719.5 827.5 573.5 827.5 573.5 790.5"/><line class="cls-4" x1="258.5" y1="752" x2="258.5" y2="755"/><line class="cls-5" x1="258.5" y1="758" x2="258.5" y2="762.5"/><line class="cls-4" x1="258.5" y1="764" x2="258.5" y2="767"/><line class="cls-4" x1="258.5" y1="794" x2="258.5" y2="797"/><line class="cls-6" x1="258.5" y1="802.14" x2="258.5" y2="830.43"/><polyline class="cls-4" points="258.5 833 258.5 836 261.5 836"/><line class="cls-4" x1="266.5" y1="836" x2="269.5" y2="836"/><line class="cls-7" x1="845" y1="314" x2="896" y2="314"/><line class="cls-7" x1="382" y1="326.5" x2="433" y2="326.5"/><polyline class="cls-8" points="570.27 307 570.27 335.5 584 335.5"/><line class="cls-9" x1="463.5" y1="419" x2="454.5" y2="419"/><line class="cls-9" x1="845" y1="375.5" x2="845" y2="366.5"/><line class="cls-9" x1="663" y1="538.75" x2="663" y2="547.75"/><polyline class="cls-8" points="225.5 548 225.5 566 192 566 192 384"/><polyline class="cls-8" points="150 351 150 189 126 189"/><circle class="cls-4" cx="94" cy="189" r="2"/><circle class="cls-4" cx="124" cy="189" r="2"/><line class="cls-4" x1="96.5" y1="189" x2="116.68" y2="189"/><polygon class="cls-10" points="115.5 190.74 122 189 115.5 187.26 115.5 190.74"/><line class="cls-8" x1="92.5" y1="189" x2="55.5" y2="189"/><line class="cls-11" x1="343.5" y1="494" x2="343.5" y2="193"/><line class="cls-12" x1="331.5" y1="362" x2="343.63" y2="349.88"/><line class="cls-13" x1="267" y1="438" x2="343.63" y2="438"/><path class="cls-13" d="M386.5,163v6l-5,5h-35a3.25,3.25,0,0,0-6,0h-30a3.25,3.25,0,0,0-6,0h-33"/><line class="cls-14" x1="386.5" y1="156" x2="386.5" y2="163"/><path class="cls-13" d="M386.5,163l-5,5h-35a3.25,3.25,0,0,0-6,0h-33"/><polyline class="cls-13" points="386.5 156 381.5 161 343.5 161"/><polyline class="cls-13" points="307.5 155 307.5 183 312.5 188"/><circle class="cls-15" cx="271.5" cy="153" r="2"/><circle class="cls-15" cx="307.5" cy="153" r="2"/><circle class="cls-15" cx="343.5" cy="153" r="2"/><circle class="cls-15" cx="271.5" cy="138" r="2"/><circle class="cls-15" cx="307.5" cy="138" r="2"/><circle class="cls-15" cx="343.5" cy="138" r="2"/><circle class="cls-15" cx="271.5" cy="108" r="2"/><circle class="cls-15" cx="307.5" cy="108" r="2"/><circle class="cls-15" cx="343.5" cy="108" r="2"/><circle class="cls-15" cx="271.5" cy="85" r="2"/><circle class="cls-15" cx="307.5" cy="85" r="2"/><circle class="cls-15" cx="343.5" cy="85" r="2"/><circle class="cls-15" cx="264.5" cy="90" r="2"/><circle class="cls-15" cx="300.5" cy="90" r="2"/><circle class="cls-15" cx="336.5" cy="90" r="2"/><circle class="cls-15" cx="278.5" cy="90" r="2"/><circle class="cls-15" cx="314.5" cy="90" r="2"/><circle class="cls-15" cx="350.5" cy="90" r="2"/><path class="cls-16" d="M274.5,150.5s3-1,3-5-3-5-3-5"/><path class="cls-16" d="M310.5,150.5s3-1,3-5-3-5-3-5"/><path class="cls-16" d="M346.5,150.5s3-1,3-5-3-5-3-5"/><line class="cls-13" x1="271.5" y1="136" x2="271.5" y2="110"/><line class="cls-13" x1="307.5" y1="136" x2="307.5" y2="110"/><line class="cls-13" x1="343.5" y1="136" x2="343.5" y2="110"/><line class="cls-13" x1="256.5" y1="145.5" x2="259.5" y2="145.5"/><line class="cls-17" x1="265.5" y1="145.5" x2="346.5" y2="145.5"/><line class="cls-13" x1="349.5" y1="145.5" x2="352.5" y2="145.5"/><line class="cls-13" x1="256.5" y1="95" x2="259.5" y2="95"/><line class="cls-18" x1="265.73" y1="95" x2="337.38" y2="95"/><line class="cls-13" x1="340.5" y1="95" x2="343.5" y2="95"/><line class="cls-19" x1="352" y1="148.5" x2="352" y2="142.5"/><line class="cls-20" x1="271.5" y1="105.5" x2="271.5" y2="88.5"/><line class="cls-20" x1="307.5" y1="105.5" x2="307.5" y2="88.5"/><line class="cls-20" x1="343.5" y1="105.5" x2="343.5" y2="88.5"/><polyline class="cls-13" points="264.5 88.5 264.5 57.5 259.5 52.5"/><polyline class="cls-13" points="300.5 88.5 300.5 57.5 295.5 52.5"/><line class="cls-11" x1="259.5" y1="52.5" x2="251.36" y2="52.5"/><polygon class="cls-21" points="253.34 49.59 242.5 52.5 253.34 55.41 253.34 49.59"/><line class="cls-14" x1="295.5" y1="52.5" x2="259.5" y2="52.5"/><polyline class="cls-13" points="336.5 88.5 336.5 57.5 331.5 52.5 295.5 52.5"/><polyline class="cls-13" points="350.5 87.5 350.5 35.5 355.5 30.5"/><line class="cls-11" x1="355.5" y1="30.5" x2="363.64" y2="30.5"/><polygon class="cls-21" points="361.66 33.41 372.5 30.5 361.66 27.59 361.66 33.41"/><line class="cls-14" x1="319.5" y1="30.5" x2="355.5" y2="30.5"/><path class="cls-13" d="M278.5,87.5v-32a3.25,3.25,0,0,1,0-6v-14l5-5h36"/><path class="cls-13" d="M314.5,87.5v-32a3.25,3.25,0,0,1,0-6v-14l5-5"/><polyline class="cls-8" points="269 442 300 442 300 666"/><circle class="cls-4" cx="300" cy="698" r="2"/><circle class="cls-4" cx="300" cy="668" r="2"/><line class="cls-4" x1="300" y1="695.5" x2="300" y2="675.32"/><polygon class="cls-10" points="301.74 676.5 300 670 298.26 676.5 301.74 676.5"/><circle class="cls-4" cx="208.5" cy="729.5" r="2"/><circle class="cls-4" cx="230.5" cy="729.5" r="2"/><line class="cls-4" x1="211" y1="729.5" x2="223.18" y2="729.5"/><polygon class="cls-10" points="222 731.24 228.5 729.5 222 727.76 222 731.24"/><polyline class="cls-8" points="300 699.5 300 713.5 318 713.5"/><line class="cls-4" x1="300" y1="573.5" x2="312.5" y2="573.5"/><polygon class="cls-10" points="311.31 575.24 317.82 573.5 311.31 571.76 311.31 575.24"/><polyline class="cls-8" points="130 668.5 130 749.5 93 749.5"/><polyline class="cls-8" points="187.5 605.5 201.5 605.5 201.5 620.5"/><polyline class="cls-8" points="187.5 620.5 237.5 620.5 237.5 729.5 232 729.5"/><line class="cls-8" x1="237.38" y1="697.13" x2="192.35" y2="697.13"/><polygon class="cls-10" points="194.13 694.51 184.38 697.13 194.13 699.74 194.13 694.51"/><line class="cls-8" x1="207.88" y1="697.38" x2="207.88" y2="702.9"/><polygon class="cls-10" points="205.26 701.12 207.88 710.88 210.49 701.12 205.26 701.12"/><line class="cls-8" x1="206.5" y1="729.5" x2="192.5" y2="729.5"/><polyline class="cls-22" points="338 798 409 798 409 790 405 790 405 786 413 786 413 782 405 782 405 778 413 778 413 774 405 774 405 770 413 770 413 766 405 766 405 762 409 762 409 714"/><polygon class="cls-23" points="411.18 715.49 409 707.36 406.82 715.49 411.18 715.49"/><line class="cls-22" x1="268" y1="798" x2="316" y2="798"/><polyline class="cls-22" points="395 798 395 790 399 790 399 786 391 786 391 782 399 782 399 778 391 778 391 774 399 774 399 770 391 770 391 766 399 766 399 762 395 762 395 754 409 754"/><polyline class="cls-22" points="368 732 354 732 354 740 358 740 358 744 350 744 350 748 358 748 358 752 350 752 350 756 358 756 358 760 350 760 350 764 358 764 358 768 354 768 354 776"/><polyline class="cls-8" points="94.5 620.5 84.5 620.5 84.5 605.5"/><polyline class="cls-8" points="94.5 605.5 19.5 605.5 19.5 632.53"/><polygon class="cls-10" points="16.89 630.74 19.5 640.5 22.11 630.74 16.89 630.74"/><polyline class="cls-22" points="698 273 698 218.5 603 218.5 603 180 684 180 684 170 692 170 693.5 168 696.5 172 699.5 168 702.5 172 705.5 168 708.5 172 710 170 807 170"/><polyline class="cls-22" points="684 180 684 190 692 190 693.5 188 696.5 192 699.5 188 702.5 192 705.5 188 708.5 192 710 190 807 190"/><line class="cls-22" x1="807" y1="174" x2="807" y2="166"/><line class="cls-22" x1="810" y1="174" x2="810" y2="166"/><line class="cls-22" x1="807" y1="194" x2="807" y2="186"/><line class="cls-22" x1="810" y1="194" x2="810" y2="186"/><polyline class="cls-22" points="810 170 822 170 822 218 720.5 218 720.5 272"/><line class="cls-22" x1="810" y1="190" x2="822" y2="190"/><polyline class="cls-8" points="542 271 542 263 511.5 263 511.5 289"/><path class="cls-22" d="M720.5,246.5H701a3.25,3.25,0,0,0-6,0H553V377h5V357h5v20h5V357h5v20h5V357h5v20h5V346"/><circle class="cls-22" cx="588" cy="342.25" r="3"/><circle class="cls-22" cx="588" cy="326.25" r="3"/><line class="cls-24" x1="586.42" y1="339.7" x2="581.5" y2="330.75"/><polyline class="cls-22" points="588 323 588 309 637 309 637 344"/><polygon class="cls-23" points="634.82 342.51 637 350.64 639.18 342.51 634.82 342.51"/><line class="cls-8" x1="764" y1="271" x2="998" y2="271"/><circle class="cls-4" cx="1023" cy="271" r="2"/><circle class="cls-4" cx="1000" cy="271" r="2"/><line class="cls-4" x1="1020.5" y1="271" x2="1007.32" y2="271"/><polygon class="cls-10" points="1008.5 269.26 1002 271 1008.5 272.74 1008.5 269.26"/><line class="cls-8" x1="1025.5" y1="271" x2="1079.5" y2="271"/><line class="cls-22" x1="623.5" y1="173" x2="623.5" y2="133"/><line class="cls-22" x1="633.5" y1="173" x2="633.5" y2="133"/><line class="cls-8" x1="984" y1="265" x2="984" y2="247.47"/><polygon class="cls-10" points="986.62 249.26 984 239.5 981.38 249.26 986.62 249.26"/><line class="cls-22" x1="784" y1="159" x2="784" y2="153"/><circle class="cls-25" cx="784" cy="150" r="2"/><circle class="cls-25" cx="784" cy="135" r="2"/><circle class="cls-25" cx="778.5" cy="104" r="2"/><circle class="cls-25" cx="778.5" cy="88" r="2"/><circle class="cls-25" cx="786.5" cy="92" r="2"/><circle class="cls-25" cx="770.5" cy="92" r="2"/><path class="cls-22" d="M787,147.5s3-1,3-5-3-5-3-5"/><circle class="cls-25" cx="773" cy="150" r="2"/><circle class="cls-25" cx="773" cy="135" r="2"/><line class="cls-26" x1="784" y1="180" x2="784" y2="159"/><line class="cls-22" x1="784" y1="183" x2="784" y2="180"/><line class="cls-22" x1="773" y1="162" x2="773" y2="153"/><path class="cls-22" d="M774.27,148.74A3.25,3.25,0,0,0,773,142.5"/><path class="cls-22" d="M771.73,136.26A3.25,3.25,0,0,0,773,142.5"/><polyline class="cls-22" points="773 133 773 114 784 114 784 133"/><line class="cls-25" x1="770" y1="122" x2="776" y2="122"/><line class="cls-25" x1="781" y1="122" x2="787" y2="122"/><polygon class="cls-23" points="773.08 121.79 770.15 126.85 776 126.85 773.08 121.79"/><polygon class="cls-23" points="784.08 121.79 781.15 126.85 787 126.85 784.08 121.79"/><text class="cls-27" transform="translate(756.25 145.75)">5<tspan class="cls-28" x="5.16" y="0">A</tspan></text><line class="cls-22" x1="778.5" y1="114" x2="778.5" y2="106"/><line class="cls-22" x1="635" y1="127" x2="653" y2="127"/><polygon class="cls-23" points="651.51 129.18 659.64 127 651.51 124.82 651.51 129.18"/><line class="cls-24" x1="778.5" y1="102" x2="778.5" y2="90"/><polyline class="cls-13" points="312.5 188 276.5 188 271.5 183 271.5 155"/><polyline class="cls-14" points="343.5 193 338.5 188 312.5 188"/><line class="cls-13" x1="343.5" y1="155" x2="343.5" y2="193"/><line class="cls-11" x1="386.5" y1="155.5" x2="386.5" y2="137.5"/><path class="cls-22" d="M768,92H433V329a4,4,0,0,1-8,0,4,4,0,0,1-8,0,4,4,0,0,1-8,0,4,4,0,0,1-8,0V211"/><polygon class="cls-23" points="403.18 212.49 401 204.35 398.82 212.49 403.18 212.49"/><path class="cls-22" d="M888,317a4,4,0,0,0,8,0V209"/><polygon class="cls-23" points="898.18 210.49 896 202.35 893.82 210.49 898.18 210.49"/><path class="cls-22" d="M880,317a4,4,0,0,0,8,0"/><path class="cls-22" d="M872,317a4,4,0,0,0,8,0"/><path class="cls-22" d="M789,92h75V317a4,4,0,0,0,8,0"/><line class="cls-22" x1="623.25" y1="159.5" x2="584" y2="159.5"/><path class="cls-22" d="M633.5,151.25h-7a3.25,3.25,0,0,0-6,0H584"/><polyline class="cls-8" points="803.5 384 803.5 395 1077.03 395"/><polygon class="cls-10" points="1075.24 397.62 1085 395 1075.24 392.38 1075.24 397.62"/><polyline class="cls-8" points="638.5 531 638.5 518 1077.03 518"/><polygon class="cls-10" points="1075.24 520.62 1085 518 1075.24 515.38 1075.24 520.62"/><polyline class="cls-22" points="924.5 419 924.5 440 959 440"/><line class="cls-8" x1="895" y1="624" x2="998" y2="624"/><circle class="cls-4" cx="1023" cy="624" r="2"/><circle class="cls-4" cx="1000" cy="624" r="2"/><line class="cls-4" x1="1020.5" y1="624" x2="1007.32" y2="624"/><polygon class="cls-10" points="1008.5 622.26 1002 624 1008.5 625.74 1008.5 622.26"/><line class="cls-8" x1="1025.5" y1="624" x2="1079.5" y2="624"/><line class="cls-8" x1="987" y1="624" x2="987" y2="640.53"/><polygon class="cls-10" points="984.38 638.74 987 648.5 989.62 638.74 984.38 638.74"/><line class="cls-8" x1="470" y1="612" x2="502" y2="612"/><circle class="cls-4" cx="527" cy="612" r="2"/><circle class="cls-4" cx="504" cy="612" r="2"/><line class="cls-4" x1="524.5" y1="612" x2="511.32" y2="612"/><polygon class="cls-10" points="512.5 610.26 506 612 512.5 613.74 512.5 610.26"/><line class="cls-8" x1="529.5" y1="612" x2="1080" y2="612"/><circle class="cls-25" cx="251" cy="776" r="2"/><circle class="cls-25" cx="266" cy="776" r="2"/><path class="cls-22" d="M253.5,773s1-3,5-3,5,3,5,3"/><circle class="cls-25" cx="228" cy="786" r="2"/><circle class="cls-25" cx="243" cy="786" r="2"/><path class="cls-22" d="M229.26,784.73A3.25,3.25,0,0,1,235.5,786"/><path class="cls-22" d="M241.74,787.27A3.25,3.25,0,0,1,235.5,786"/><path class="cls-22" d="M338,776h30v-8h-4v-4h8v-4h-8v-4h8v-4h-8v-4h8v-4h-8v-4h4v-8h41"/><path class="cls-22" d="M268,776h48"/><polyline class="cls-22" points="245 786 302 786 302 776"/><line class="cls-22" x1="214" y1="786" x2="226" y2="786"/><line class="cls-25" x1="279" y1="789" x2="279" y2="783"/><line class="cls-25" x1="279" y1="779" x2="279" y2="773"/><polygon class="cls-23" points="279 786 274 789 274 783 279 786"/><polygon class="cls-23" points="279 776 274 779 274 773 279 776"/><circle class="cls-25" cx="228" cy="808" r="2"/><circle class="cls-25" cx="243" cy="808" r="2"/><path class="cls-22" d="M253.5,795s1-3,5-3,5,3,5,3"/><circle class="cls-25" cx="251" cy="798" r="2"/><circle class="cls-25" cx="266" cy="798" r="2"/><path class="cls-22" d="M229.26,806.73A3.25,3.25,0,0,1,235.5,808"/><path class="cls-22" d="M241.74,809.27A3.25,3.25,0,0,1,235.5,808"/><polyline class="cls-22" points="245 808 301.67 808 301.67 798"/><polyline class="cls-22" points="226 808 129 808 129 776 249 776"/><line class="cls-22" x1="214" y1="798" x2="249" y2="798"/><line class="cls-25" x1="279" y1="795" x2="279" y2="801"/><line class="cls-25" x1="279" y1="805" x2="279" y2="811"/><polygon class="cls-23" points="279 798 274 795 274 801 279 798"/><polygon class="cls-23" points="279 808 274 805 274 811 279 808"/><polyline class="cls-8" points="471.5 383 478 383 478 195.97"/><polygon class="cls-10" points="480.62 197.76 478 188 475.38 197.76 480.62 197.76"/><line class="cls-8" x1="478" y1="212.5" x2="492.03" y2="212.5"/><polygon class="cls-10" points="490.24 215.12 500 212.5 490.24 209.88 490.24 215.12"/><line class="cls-8" x1="155" y1="210" x2="169.03" y2="210"/><polygon class="cls-10" points="167.24 212.62 177 210 167.24 207.38 167.24 212.62"/><line class="cls-22" x1="642" y1="805" x2="642" y2="791"/><circle class="cls-25" cx="642" cy="788.5" r="2"/><circle class="cls-25" cx="642" cy="773.5" r="2"/><circle class="cls-25" cx="642" cy="751" r="2"/><circle class="cls-25" cx="609" cy="751" r="2"/><path class="cls-22" d="M639,786s-3-1-3-5,3-5,3-5"/><line class="cls-22" x1="692" y1="805" x2="692" y2="791"/><line class="cls-22" x1="642" y1="771" x2="642" y2="753"/><line class="cls-22" x1="692" y1="771" x2="692" y2="753"/><circle class="cls-25" cx="692" cy="788.5" r="2"/><circle class="cls-25" cx="692" cy="773.5" r="2"/><path class="cls-22" d="M695,786s3-1,3-5-3-5-3-5"/><line class="cls-22" x1="790" y1="142" x2="793" y2="142"/><line class="cls-22" x1="793" y1="139" x2="793" y2="145"/><line class="cls-22" x1="258.5" y1="770" x2="258.5" y2="767"/><line class="cls-22" x1="255.5" y1="767" x2="261.5" y2="767"/><line class="cls-22" x1="258.5" y1="792" x2="258.5" y2="789"/><line class="cls-22" x1="255.5" y1="789" x2="261.5" y2="789"/><line class="cls-22" x1="698" y1="781" x2="701" y2="781"/><line class="cls-22" x1="701" y1="778" x2="701" y2="784"/><line class="cls-22" x1="636" y1="781" x2="633" y2="781"/><line class="cls-22" x1="633" y1="778" x2="633" y2="784"/><polyline class="cls-22" points="642 764 609 764 609 753"/><line class="cls-24" x1="609" y1="749" x2="609" y2="731"/><line class="cls-24" x1="642" y1="749" x2="642" y2="731"/><line class="cls-24" x1="692" y1="749" x2="699" y2="734"/><circle class="cls-25" cx="609" cy="729" r="2"/><circle class="cls-25" cx="617" cy="733" r="2"/><circle class="cls-25" cx="601" cy="733" r="2"/><circle class="cls-25" cx="642" cy="729" r="2"/><circle class="cls-25" cx="650" cy="733" r="2"/><circle class="cls-25" cx="692" cy="751" r="2"/><circle class="cls-25" cx="700" cy="733" r="2"/><circle class="cls-25" cx="684" cy="733" r="2"/><circle class="cls-25" cx="634" cy="733" r="2"/><line class="cls-29" x1="642" y1="740.75" x2="639" y2="740.75"/><line class="cls-30" x1="633.24" y1="740.75" x2="520.88" y2="740.75"/><polyline class="cls-29" points="518 740.75 515 740.75 515 743.75"/><line class="cls-31" x1="515" y1="748" x2="515" y2="754.38"/><line class="cls-29" x1="515" y1="756.5" x2="515" y2="759.5"/><line class="cls-7" x1="455" y1="685.5" x2="506" y2="685.5"/><line class="cls-7" x1="877" y1="685.5" x2="826" y2="685.5"/><path class="cls-22" d="M834,679.5a4,4,0,0,0-8,0H730l-1.5,2-3-4-3,4-3-4-3,4-3-4-1.5,2H700v14a3.25,3.25,0,0,0,0,6V731"/><path class="cls-22" d="M842,679.5a4,4,0,0,0-8,0"/><path class="cls-22" d="M850,679.5a4,4,0,0,0-8,0"/><path class="cls-22" d="M858,727.5v-48a4,4,0,0,0-8,0"/><polygon class="cls-23" points="860.62 725.72 858 735.47 855.38 725.72 860.62 725.72"/><path class="cls-22" d="M601,731V696.5H506a4,4,0,0,0-8,0,4,4,0,0,0-8,0,4,4,0,0,0-8,0,4,4,0,0,0-8,0"/><path class="cls-22" d="M850,696.5a4,4,0,0,1,8,0"/><path class="cls-22" d="M842,696.5a4,4,0,0,1,8,0"/><path class="cls-22" d="M834,696.5a4,4,0,0,1,8,0"/><path class="cls-22" d="M634,731V696.5H826a4,4,0,0,1,8,0"/><path class="cls-22" d="M650,731V711.5h47a3.25,3.25,0,0,1,6,0h41.5v-12a3.25,3.25,0,0,1,0-6v-14"/><line class="cls-22" x1="617" y1="731" x2="617" y2="679.5"/><path class="cls-22" d="M700,679.5H688l-1.5,2-3-4-3,4-3-4-3,4-3-4-1.5,2H506a4,4,0,0,0-8,0,4,4,0,0,0-8,0,4,4,0,0,0-8,0,4,4,0,0,0-8,0v48"/><polygon class="cls-23" points="471.82 726.01 474 734.14 476.18 726.01 471.82 726.01"/><text class="cls-32" transform="translate(628.83 357.67)">DC-</text><text class="cls-32" transform="translate(400.83 705.67)">DC-</text><text class="cls-32" transform="translate(465.83 741.67)">DC-</text><text class="cls-32" transform="translate(849.83 743.67)">DC-</text><text class="cls-32" transform="translate(657.83 784.67)">10<tspan class="cls-33" x="11.12" y="0">A</tspan></text><line class="cls-24" x1="320" y1="776" x2="334" y2="776"/><circle class="cls-25" cx="318" cy="776" r="2"/><circle class="cls-25" cx="336" cy="776" r="2"/><circle class="cls-25" cx="334" cy="767" r="2"/><line class="cls-24" x1="320" y1="798" x2="334" y2="798"/><circle class="cls-25" cx="318" cy="798" r="2"/><circle class="cls-25" cx="336" cy="798" r="2"/><circle class="cls-25" cx="334" cy="789" r="2"/><polyline class="cls-34" points="327 777 327 811 544 811 544 755.5"/><text class="cls-32" transform="translate(584.83 729.67)">O<tspan class="cls-35" x="7.78" y="0">f</tspan><tspan x="10.38" y="0">f</tspan></text><text class="cls-32" transform="translate(478.6 670.67)">Open</text><text class="cls-32" transform="translate(652.83 729.67)">On</text><text class="cls-32" transform="translate(702.83 729.67)">Latch</text><text class="cls-32" transform="translate(478.05 705.67)">Close</text><text class="cls-32" transform="translate(829.6 670.67)">Open</text><text class="cls-32" transform="translate(829.05 705.67)">Close</text></g><g id="wiring_blocks" data-name="wiring blocks"><rect class="cls-36" x="185" y="370.25" width="14" height="14"/><path d="M198,371.25v12H186v-12h12m2-2H184v16h16v-16Z"/><rect class="cls-36" x="143" y="348.75" width="14" height="14"/><path d="M156,349.75v12H144v-12h12m2-2H142v16h16v-16Z"/><rect class="cls-36" x="143" y="202.75" width="14" height="14"/><path d="M156,203.75v12H144v-12h12m2-2H142v16h16v-16Z"/><text class="cls-37" transform="translate(144.75 212.5)">SC</text><text class="cls-38" transform="translate(187.75 380)">°F</text><rect class="cls-36" x="535" y="271.5" width="14" height="14"/><path d="M548,272.5v12H536v-12h12m2-2H534v16h16v-16Z"/><text class="cls-38" transform="translate(537.75 281.25)">°F</text><rect class="cls-36" x="563.5" y="293.5" width="14" height="14"/><path d="M576.5,294.5v12h-12v-12h12m2-2h-16v16h16v-16Z"/><text class="cls-38" transform="translate(566.25 303.25)">°F</text><rect class="cls-36" x="753.5" y="264" width="14" height="14"/><path d="M766.5,265v12h-12V265h12m2-2h-16v16h16V263Z"/><text class="cls-38" transform="translate(756.25 273.75)">°F</text><rect class="cls-36" x="796.5" y="370" width="14" height="14"/><path d="M809.5,371v12h-12V371h12m2-2h-16v16h16V369Z"/><text class="cls-37" transform="translate(798.25 379.25)">psi</text><rect class="cls-36" x="631.5" y="530" width="14" height="14"/><path d="M644.5,531v12h-12V531h12m2-2h-16v16h16V529Z"/><text class="cls-37" transform="translate(633.25 539.25)">psi</text><text class="cls-39" transform="translate(961.25 442.75)">GSE</text><text class="cls-38" transform="translate(145.75 359)">°F</text><rect class="cls-36" x="174" y="612.25" width="14" height="14"/><path d="M187,613.25v12H175v-12h12m2-2H173v16h16v-16Z"/><rect class="cls-36" x="215.5" y="689.5" width="14" height="14"/><path d="M228.5,690.5v12h-12v-12h12m2-2h-16v16h16v-16Z"/><text class="cls-38" transform="translate(176.75 622)">°F</text><text class="cls-37" transform="translate(219.75 699.5)">∆</text><rect class="cls-36" x="61.5" y="598" width="14" height="14"/><path d="M74.5,599v12h-12V599h12m2-2h-16v16h16V597Z"/><text class="cls-37" transform="translate(65.75 608)">∆</text><rect class="cls-36" x="174" y="598.25" width="14" height="14"/><path d="M187,599.25v12H175v-12h12m2-2H173v16h16v-16Z"/><text class="cls-38" transform="translate(176.75 608)">°F</text><rect class="cls-36" x="94.5" y="612.25" width="14" height="14"/><path d="M107.5,613.25v12h-12v-12h12m2-2h-16v16h16v-16Z"/><text class="cls-38" transform="translate(97.25 622)">°F</text><rect class="cls-36" x="94.5" y="598.25" width="14" height="14"/><path d="M107.5,599.25v12h-12v-12h12m2-2h-16v16h16v-16Z"/><text class="cls-38" transform="translate(97.25 608)">°F</text><rect class="cls-40" x="611" y="173" width="34" height="14"/><rect class="cls-40" x="652" y="173" width="25" height="14"/><text class="cls-32" transform="translate(614.83 183.17)">Shunt</text><text class="cls-32" transform="translate(655.83 183.67)">DC-</text><rect class="cls-40" x="721" y="162.5" width="75" height="14"/><text class="cls-32" transform="translate(723.83 172.67)">Main DC Bus<tspan class="cls-33" x="58.91" y="0" xml:space="preserve"> A</tspan></text><rect class="cls-40" x="721" y="182.5" width="75" height="14"/><text class="cls-32" transform="translate(723.83 192.67)">Main DC Bus B</text><rect class="cls-36" x="621.5" y="120.75" width="14" height="14"/><path d="M634.5,121.75v12h-12v-12h12m2-2h-16v16h16v-16Z"/><text class="cls-37" transform="translate(623.25 130.5)">SC</text><rect class="cls-36" x="977" y="264" width="14" height="14"/><path d="M990,265v12H978V265h12m2-2H976v16h16V263Z"/><text class="cls-37" transform="translate(978.75 273.75)">SC</text><rect class="cls-36" x="368" y="119" width="36" height="20"/><path d="M403,120v18H369V120h34m2-2H367v22h38V118Z"/><polyline class="cls-22" points="742 573.5 717 573.5 717 598"/><text class="cls-39" transform="translate(708.75 606.25)">GSE</text><rect class="cls-36" x="459" y="605" width="14" height="14"/><path d="M472,606v12H460V606h12m2-2H458v16h16V604Z"/><text class="cls-37" transform="translate(460.25 612.25)">lb</text><text class="cls-38" transform="translate(467.25 617.25)">h</text><line class="cls-41" x1="463" y1="616" x2="470.5" y2="608.5"/><rect class="cls-36" x="882" y="617" width="14" height="14"/><path d="M895,618v12H883V618h12m2-2H881v16h16V616Z"/><text class="cls-37" transform="translate(883.25 624.25)">lb</text><text class="cls-38" transform="translate(890.25 629.25)">h</text><line class="cls-41" x1="886" y1="628" x2="893.5" y2="620.5"/><rect class="cls-40" x="140" y="785" width="75" height="14"/><text class="cls-32" transform="translate(142.83 795.17)">Main DC Bus B</text><rect class="cls-40" x="60" y="785" width="75" height="14"/><text class="cls-32" transform="translate(62.83 795.17)">Main DC Bus<tspan class="cls-33" x="58.91" y="0" xml:space="preserve"> A</tspan></text><rect class="cls-40" x="624" y="805" width="86" height="14"/><text class="cls-32" transform="translate(626.83 815.17)">Battery Relay Bus</text><rect class="cls-36" x="458.5" y="376" width="14" height="14"/><path d="M471.5,377v12h-12V377h12m2-2h-16v16h16V375Z"/><text class="cls-37" transform="translate(460.25 385.25)">psi</text><g class="cls-42"><path class="cls-4" d="M366,123c6,0,6,12,12,12s6-12,12-12,6,12,12,12,6-12,12-12"/><path class="cls-43" d="M360,123c6,0,6,12,12,12s6-12,12-12,6,12,12,12,6-12,12-12"/><path class="cls-44" d="M354,123c6,0,6,12,12,12s6-12,12-12,6,12,12,12,6-12,12-12"/></g></g><g id="lower_blocks" data-name="lower blocks"><path d="M751,259V398H667V259h84m3-3H664V401h90V256Z"/><path d="M533.5,341.5v44h-44v-44h44m3-3h-50v50h50v-50Z"/><path d="M899,449v44H855V449h44m3-3H852v50h50V446Z"/><path d="M134.5,341.5v44h-44v-44h44m3-3h-50v50h50v-50Z"/><path d="M476.5,471v44h-44V471h44m3-3h-50v50h50V468Z"/><path d="M135,513v44H91V513h44m3-3H88v50h50V510Z"/><path d="M266,349.5l18,13v8l-18,14h-8l-18-14v-8l18-13h8m1-3H257l-.79.57-18,13L237,361v11l1.16.9,18,14,.81.63H267l.81-.63,18-14L287,372V361l-1.24-.9-18-13-.79-.57Z"/><path class="cls-36" d="M543.5,566A17.5,17.5,0,1,1,561,548.5,17.52,17.52,0,0,1,543.5,566Z"/><path d="M543.5,532.5a16,16,0,1,1-16,16,16,16,0,0,1,16-16m0-3a19,19,0,1,0,19,19,19,19,0,0,0-19-19Z"/></g><g id="glycol_lines" data-name="glycol lines"><polygon class="cls-45" points="79.13 658.88 79.13 636.13 108.13 636.13 108.13 557.38 90.63 557.38 90.63 512.63 108.13 512.63 108.13 495.13 432.13 495.13 432.13 470.63 476.88 470.63 476.88 481.63 859.88 481.63 859.88 490.38 476.88 490.38 476.88 515.38 432.13 515.38 432.13 503.88 116.88 503.88 116.88 512.63 135.38 512.63 135.38 557.38 116.88 557.38 116.88 644.88 87.88 644.88 87.88 658.88 79.13 658.88"/><path d="M476.5,471v11h383v8h-383v25h-44V503.5h-316V513H135v44H116.5v87.5h-29v14h-8v-22h29V557H91V513h17.5V495.5h324V471h44m.75-.75h-45.5v24.5h-324v17.5H90.25v45.5h17.5v78h-29v23.5h9.5v-14h29v-87.5h18.5v-45.5h-18.5v-8h314.5v11.5h45.5v-25h383v-9.5h-383v-11Z"/><rect class="cls-45" x="102.63" y="664.63" width="12.75" height="8.75"/><path d="M115,665v8H103v-8h12m.75-.75h-13.5v9.5h13.5v-9.5Z"/><rect class="cls-45" x="142.63" y="664.63" width="12.75" height="8.75"/><path d="M155,665v8H143v-8h12m.75-.75h-13.5v9.5h13.5v-9.5Z"/><polygon class="cls-45" points="125.63 657.38 125.63 636.63 165.63 636.63 165.63 552.38 121.63 552.38 121.63 547.38 100.63 547.38 100.63 522.63 121.63 522.63 121.63 517.63 229.88 517.63 229.88 533.38 221.13 533.38 221.13 526.38 125.38 526.38 125.38 543.63 211.38 543.63 211.38 552.38 174.38 552.38 174.38 655.38 165.63 655.38 165.63 645.38 134.38 645.38 134.38 657.38 125.63 657.38"/><path d="M229.5,518v15h-8v-7H125v18h86v8H174V655h-8V645H134v12h-8V637h40V552H122v-5H101V523h21v-5H229.5m.75-.75h-109v5h-21v25.5h21v5h44v83.5h-40v21.5h9.5v-12h30.5v10h9.5v-103h37v-9.5h-86v-16.5h95v7h9.5v-16.5Z"/><path class="cls-45" d="M543.5,564.88a16.48,16.48,0,0,1-15.9-12.5h-289v-8.75h74V481.88h-247V362.13h24.5v-21h44.75v44.75h-18v65.75h743v8.75H108.13v-74.5h-18v-15H74.38V473.13h247v70.5h206.5a16.37,16.37,0,1,1,15.63,21.25Z"/><path d="M134.5,341.5v44h-18V452h743v8h-751V385.5h-18v-15H74v103H321V544H528.15a16,16,0,1,1-.26,8H239v-8h74V481.5H66v-119H90.5v-21h44m.75-.75H89.75v21H65.25v120.5h247v61h-74v9.5H527.31a16.75,16.75,0,1,0,.29-9.5H321.75v-70.5h-247V371.25h15v15h18v74.5h752.5v-9.5h-743v-65h18v-45.5Z"/><rect class="cls-45" x="855" y="449" width="44" height="44"/></g><g id="lower_lines" data-name="lower lines"><polygon class="cls-46" points="637.63 440.38 637.63 423.38 470.63 423.38 470.63 414.63 840.63 414.63 840.63 381.63 849.38 381.63 849.38 414.63 911.38 414.63 911.38 423.38 646.38 423.38 646.38 431.63 660.38 431.63 660.38 440.38 637.63 440.38"/><path d="M849,382v33h62v8H646v9h14v8H638V423H471v-8H841V382h8m.75-.75h-9.5v33h-370v9.5h167v17h23.5v-9.5h-14v-7.5h265v-9.5h-62v-33Z"/><path class="cls-47" d="M705,495V440H687v-8h18V395h8V503H631v41h18v8H559.1a16,16,0,0,1-15.39,12.49,23.48,23.48,0,0,0,0-32A16,16,0,0,1,558.85,544H623V495Z"/><polygon class="cls-48" points="377.13 810.88 377.13 647.38 364.63 647.38 364.63 638.63 377.13 638.63 377.13 620.38 364.63 620.38 364.63 611.63 377.13 611.63 377.13 341.13 385.88 341.13 385.88 414.13 439.88 414.13 439.88 422.88 385.88 422.88 385.88 810.88 377.13 810.88"/><path d="M385.5,341.5v73h54v8h-54v388h-8V647H365v-8h12.5V620H365v-8h12.5V341.5h8m.75-.75h-9.5v270.5h-12.5v9.5h12.5v17.5h-12.5v9.5h12.5v163.5h9.5v-388h54v-9.5h-54v-73Z"/><polygon class="cls-49" points="385.5 396.5 377.5 416.5 377.5 343.5 385.5 343.5 385.5 396.5"/><polygon class="cls-50" points="257.63 694.38 257.63 379.63 266.38 379.63 266.38 624.63 272.38 624.63 272.38 633.38 266.38 633.38 266.38 649.63 272.38 649.63 272.38 658.38 266.38 658.38 266.38 694.38 257.63 694.38"/><path d="M266,380V625h6v8h-6v17h6v8h-6v36h-8V380h8m.75-.75h-9.5v315.5h9.5v-36h6v-9.5h-6v-15.5h6v-9.5h-6v-245Z"/><rect class="cls-50" x="269" y="625" width="7" height="8"/><rect class="cls-50" x="269" y="650" width="7" height="8"/><rect class="cls-50" x="258" y="691" width="8" height="7"/><rect class="cls-46" x="667" y="259" width="84" height="139"/><polygon class="cls-48" points="450.13 405.88 450.13 370.88 280.13 370.88 280.13 362.13 489.13 362.13 489.13 341.13 533.88 341.13 533.88 362.13 688.88 362.13 688.88 370.88 533.88 370.88 533.88 385.88 489.13 385.88 489.13 370.88 458.88 370.88 458.88 405.88 450.13 405.88"/><path d="M533.5,341.5v21h155v8h-155v15h-44v-15h-31v35h-8v-35h-170v-8h209v-21h44m.75-.75h-45.5v21h-209v9.5h170v35h9.5v-35h29.5v15h45.5v-15h155v-9.5h-155v-21Z"/><rect class="cls-46" x="658.63" y="561.63" width="8.75" height="70.75"/><path d="M667,562v70h-8V562h8m.75-.75h-9.5v71.5h9.5v-71.5Z"/><rect class="cls-46" x="659" y="628" width="8" height="8"/><polygon class="cls-46" points="737.63 559.38 737.63 552.38 676.63 552.38 676.63 543.63 771.38 543.63 771.38 552.38 746.38 552.38 746.38 559.38 737.63 559.38"/><path d="M771,544v8H746v7h-8v-7H677v-8h94m.75-.75h-95.5v9.5h61v7h9.5v-7h25v-9.5Z"/><rect class="cls-51" x="764" y="537" width="55" height="22" rx="11" ry="11"/><rect class="cls-46" x="760" y="544" width="8" height="8"/><rect class="cls-46" x="737.63" y="586.63" width="8.75" height="45.75"/><path d="M746,587v45h-8V587h8m.75-.75h-9.5v46.5h9.5v-46.5Z"/><rect class="cls-46" x="738" y="628" width="8" height="8"/></g><g id="lines"><polygon class="cls-52" points="840.63 352.38 840.63 326.63 849.38 326.63 849.38 335.63 1000.38 335.63 1000.38 344.38 849.38 344.38 849.38 352.38 840.63 352.38"/><path d="M849,327v9h151v8H849v8h-8V327h8m.75-.75h-9.5v26.5h9.5v-8h151v-9.5h-151v-9Z"/><rect class="cls-49" x="524.13" y="285.13" width="161.75" height="8.75"/><path d="M685.5,285.5v8h-161v-8h161m.75-.75H523.75v9.5h162.5v-9.5Z"/><polygon class="cls-49" points="499.13 375.88 499.13 357.88 488.88 357.88 488.88 359.88 449.13 359.88 449.13 293.88 385.88 293.88 385.88 313.88 377.13 313.88 377.13 293.88 116.88 293.88 116.88 340.88 114.88 340.88 114.88 351.13 124.88 351.13 124.88 364.13 135.13 364.13 135.13 362.13 243.88 362.13 243.88 370.88 135.13 370.88 135.13 368.88 124.88 368.88 124.88 375.88 100.13 375.88 100.13 351.13 110.13 351.13 110.13 340.88 108.13 340.88 108.13 285.13 498.88 285.13 498.88 293.88 457.88 293.88 457.88 351.13 488.88 351.13 488.88 353.13 499.13 353.13 499.13 351.13 509.13 351.13 509.13 340.88 507.13 340.88 507.13 303.13 515.88 303.13 515.88 340.88 513.88 340.88 513.88 351.13 523.88 351.13 523.88 375.88 499.13 375.88"/><path d="M498.5,285.5v8h-41v58h31v2h11v-2h10v-11h-2v-37h8v37h-2v11h10v24h-24v-18h-11v2h-39v-66h-64v20h-8v-20h-261v47h-2v11h10v13h11v-2h108v8h-108v-2h-11v7h-24v-24h10v-11h-2v-55h390m.75-.75H107.75v56.5h2v9.5h-10v25.5h25.5v-7h9.5v2h109.5v-9.5H134.75v2h-9.5v-13h-10v-9.5h2v-47h259.5v20h9.5v-20h62.5v66h40.5v-2h9.5v18h25.5v-25.5h-10v-9.5h2v-38.5h-9.5v38.5h2v9.5h-10v2h-9.5v-2h-31v-56.5h41v-9.5Z"/><rect class="cls-48" x="450.63" y="700.63" width="8.75" height="19.75"/><path d="M459,701v19h-8V701h8m.75-.75h-9.5v20.5h9.5v-20.5Z"/><rect class="cls-48" x="451" y="715" width="8" height="10"/><rect class="cls-48" x="377.5" y="806" width="8" height="10"/><rect class="cls-48" x="361" y="639" width="13" height="8"/><rect class="cls-48" x="361" y="612" width="13" height="8"/><rect class="cls-52" x="994" y="336" width="10" height="8"/><polygon class="cls-52" points="724.63 384.38 724.63 272.63 737.38 272.63 737.38 284.63 849.38 284.63 849.38 301.38 840.63 301.38 840.63 293.38 737.38 293.38 737.38 361.63 831.38 361.63 831.38 370.38 737.38 370.38 737.38 384.38 724.63 384.38"/><path d="M737,273v12H849v16h-8v-8H737v69h94v8H737v14H725V273h12m.75-.75h-13.5v112.5h13.5v-14h94v-9.5h-94v-67.5h102.5v8h9.5v-17.5h-112v-12Z"/><rect class="cls-52" x="872.63" y="698.63" width="8.75" height="22.75"/><path d="M881,699v22h-8V699h8m.75-.75h-9.5v23.5h9.5v-23.5Z"/><rect class="cls-52" x="873" y="715" width="8" height="10"/><polygon class="cls-52" points="872.63 672.38 872.63 493.63 874.63 493.63 874.63 483.38 864.63 483.38 864.63 458.63 874.63 458.63 874.63 448.38 872.63 448.38 872.63 370.38 857.63 370.38 857.63 361.63 881.38 361.63 881.38 448.38 879.38 448.38 879.38 458.63 889.38 458.63 889.38 483.38 879.38 483.38 879.38 493.63 881.38 493.63 881.38 672.38 872.63 672.38"/><path d="M881,362v86h-2v11h10v24H879v11h2V672h-8V494h2V483H865V459h10V448h-2V370H858v-8h23m.75-.75h-24.5v9.5h15v78h2v9.5h-10v25.5h10v9.5h-2v179.5h9.5V493.25h-2v-9.5h10v-25.5h-10v-9.5h2v-87.5Z"/><rect class="cls-53" x="680.63" y="272.63" width="12.75" height="111.75"/><path d="M693,273V384H681V273h12m.75-.75h-13.5v112.5h13.5V272.25Z"/><rect class="cls-54" x="693.63" y="272.63" width="8.75" height="111.75"/><path d="M702,273V384h-8V273h8m.75-.75h-9.5v112.5h9.5V272.25Z"/><rect class="cls-55" x="702.63" y="277.63" width="12.75" height="101.75"/><path d="M715,278V379H703V278h12m.75-.75h-13.5v102.5h13.5V277.25Z"/><rect class="cls-54" x="715.63" y="272.63" width="8.75" height="111.75"/><path d="M724,273V384h-8V273h8m.75-.75h-9.5v112.5h9.5V272.25Z"/><polygon class="cls-48" points="450.13 671.88 450.13 515.63 452.13 515.63 452.13 505.38 442.13 505.38 442.13 480.63 452.13 480.63 452.13 470.38 450.13 470.38 450.13 432.13 458.88 432.13 458.88 470.38 456.88 470.38 456.88 480.63 466.88 480.63 466.88 505.38 456.88 505.38 456.88 515.63 458.88 515.63 458.88 671.88 450.13 671.88"/><path d="M458.5,432.5V470h-2v11h10v24h-10v11h2V671.5h-8V516h2V505h-10V481h10V470h-2V432.5h8m.75-.75h-9.5v39h2v9.5h-10v25.5h10v9.5h-2v157h9.5v-157h-2v-9.5h10v-25.5h-10v-9.5h2v-39Z"/><rect class="cls-46" x="937.63" y="414.63" width="62.75" height="8.75"/><path d="M1000,415v8H938v-8h62m.75-.75h-63.5v9.5h63.5v-9.5Z"/><rect class="cls-46" x="996" y="415" width="8" height="8"/></g><g id="line_detail" data-name="line detail"><g class="cls-56"><circle class="cls-50" cx="144" cy="363" r="3"/><circle class="cls-50" cx="134" cy="369" r="3"/><circle class="cls-50" cx="124" cy="364" r="3"/><circle class="cls-50" cx="154" cy="370" r="3"/><circle class="cls-50" cx="164" cy="366" r="3"/><circle class="cls-50" cx="174" cy="368" r="3"/><circle class="cls-50" cx="184" cy="362" r="3"/><circle class="cls-50" cx="194" cy="370" r="3"/><circle class="cls-50" cx="204" cy="365" r="3"/><circle class="cls-50" cx="214" cy="368" r="3"/><circle class="cls-50" cx="224" cy="370" r="3"/><circle class="cls-50" cx="234" cy="363" r="3"/></g><rect class="cls-49" x="675" y="285.5" width="9" height="8"/><rect class="cls-48" x="675" y="362.5" width="9" height="8"/><path class="cls-57" d="M315.5,352.5c-6.2-6.2-27.11-6.59-37.27-3.43"/><polygon points="278.57 347.06 273.5 351.5 280.11 350.19 278.57 347.06"/></g><g id="upper_blocks" data-name="upper blocks"><polygon class="cls-58" points="528.5 280.5 494.5 298.5 494.5 280.5 528.5 298.5 528.5 280.5"/><polygon class="cls-58" points="511.5 290 502.5 307 520.5 307 511.5 290"/><polygon class="cls-58" points="463.75 435.75 445.75 401.75 463.75 401.75 445.75 435.75 463.75 435.75"/><polygon class="cls-58" points="454.25 418.75 437.25 409.75 437.25 427.75 454.25 418.75"/><polygon class="cls-58" points="208.5 557 242.5 539 242.5 557 208.5 539 208.5 557"/><polygon class="cls-58" points="225.5 547.5 234.5 530.5 216.5 530.5 225.5 547.5"/><polygon class="cls-58" points="113 678 147 660 147 678 113 660 113 678"/><polygon class="cls-58" points="130 668.5 139 651.5 121 651.5 130 668.5"/><polygon class="cls-58" points="828 375.25 862 357.25 862 375.25 828 357.25 828 375.25"/><polygon class="cls-58" points="845 365.75 854 348.75 836 348.75 845 365.75"/><polygon class="cls-58" points="680 539.25 646 557.25 646 539.25 680 557.25 680 539.25"/><polygon class="cls-58" points="663 548.75 654 565.75 672 565.75 663 548.75"/><polygon class="cls-58" points="463.75 702.75 445.75 668.75 463.75 668.75 445.75 702.75 463.75 702.75"/><polygon class="cls-58" points="390.5 343.5 372.5 309.5 390.5 309.5 372.5 343.5 390.5 343.5"/><polygon class="cls-58" points="854 331 836 297 854 297 836 331 854 331"/><polygon class="cls-58" points="751 590.5 733 556.5 751 556.5 733 590.5 751 590.5"/><polygon class="cls-58" points="907.5 428 941.5 410 941.5 428 907.5 410 907.5 428"/><polygon class="cls-58" points="886 702.5 868 668.5 886 668.5 868 702.5 886 702.5"/><polygon class="cls-59" points="240 362.5 258 349.5 266 349.5 284 362.5 284 370.5 266 384.5 258 384.5 240 370.5 240 362.5"/><g class="cls-60"><circle class="cls-50" cx="243" cy="371" r="6"/><circle class="cls-50" cx="253" cy="387" r="12"/><circle class="cls-50" cx="274" cy="393" r="14"/><circle class="cls-50" cx="263" cy="387" r="9"/><circle class="cls-50" cx="252" cy="372" r="3"/></g><circle class="cls-50" cx="259.5" cy="370.5" r="2.5"/><circle class="cls-50" cx="266" cy="367" r="1"/><circle class="cls-50" cx="268.5" cy="372.5" r="1.5"/><rect class="cls-61" x="659" y="428" width="32" height="16"/><path class="cls-46" d="M690,429h0A30,30,0,0,1,660,429h0v14h0A30,30,0,0,1,690,443h0Z"/><rect class="cls-54" x="57.63" y="649.63" width="46.75" height="32.75"/><path d="M104,650v32H58V650h46m.75-.75H57.25v33.5h47.5v-33.5Z"/><line class="cls-43" x1="58.5" y1="652.5" x2="103.5" y2="652.5"/><line class="cls-43" x1="58.5" y1="655" x2="103.5" y2="655"/><line class="cls-43" x1="58.5" y1="657.5" x2="103.5" y2="657.5"/><line class="cls-43" x1="58.5" y1="660" x2="103.5" y2="660"/><line class="cls-43" x1="58.5" y1="662.5" x2="103.5" y2="662.5"/><line class="cls-43" x1="58.5" y1="665" x2="103.5" y2="665"/><line class="cls-43" x1="58.5" y1="667.5" x2="103.5" y2="667.5"/><line class="cls-43" x1="58.5" y1="670" x2="103.5" y2="670"/><line class="cls-43" x1="58.5" y1="672.5" x2="103.5" y2="672.5"/><line class="cls-43" x1="58.5" y1="675" x2="103.5" y2="675"/><line class="cls-43" x1="58.5" y1="677.5" x2="103.5" y2="677.5"/><line class="cls-43" x1="58.5" y1="680" x2="103.5" y2="680"/><rect class="cls-54" x="155.63" y="649.63" width="46.75" height="32.75"/><path d="M202,650v32H156V650h46m.75-.75h-47.5v33.5h47.5v-33.5Z"/><line class="cls-43" x1="156.5" y1="652.5" x2="201.5" y2="652.5"/><line class="cls-43" x1="156.5" y1="655" x2="201.5" y2="655"/><line class="cls-43" x1="156.5" y1="657.5" x2="201.5" y2="657.5"/><line class="cls-43" x1="156.5" y1="660" x2="201.5" y2="660"/><line class="cls-43" x1="156.5" y1="662.5" x2="201.5" y2="662.5"/><line class="cls-43" x1="156.5" y1="665" x2="201.5" y2="665"/><line class="cls-43" x1="156.5" y1="667.5" x2="201.5" y2="667.5"/><line class="cls-43" x1="156.5" y1="670" x2="201.5" y2="670"/><line class="cls-43" x1="156.5" y1="672.5" x2="201.5" y2="672.5"/><line class="cls-43" x1="156.5" y1="675" x2="201.5" y2="675"/><line class="cls-43" x1="156.5" y1="677.5" x2="201.5" y2="677.5"/><line class="cls-43" x1="156.5" y1="680" x2="201.5" y2="680"/><path class="cls-36" d="M343.5,513.5a14,14,0,1,1,14-14A14,14,0,0,1,343.5,513.5Z"/><path d="M343.5,487A12.5,12.5,0,1,1,331,499.5,12.5,12.5,0,0,1,343.5,487m0-3A15.5,15.5,0,1,0,359,499.5,15.52,15.52,0,0,0,343.5,484Z"/><path class="cls-36" d="M322.5,380.5a14,14,0,1,1,14-14A14,14,0,0,1,322.5,380.5Z"/><path d="M322.5,354A12.5,12.5,0,1,1,310,366.5,12.5,12.5,0,0,1,322.5,354m0-3A15.5,15.5,0,1,0,338,366.5,15.52,15.52,0,0,0,322.5,351Z"/><circle class="cls-36" cx="343.5" cy="494" r="4.5"/><path d="M343.5,490a4,4,0,1,1-4,4,4,4,0,0,1,4-4m0-1a5,5,0,1,0,5,5,5,5,0,0,0-5-5Z"/><circle class="cls-36" cx="343.5" cy="505" r="4.5"/><path d="M343.5,501a4,4,0,1,1-4,4,4,4,0,0,1,4-4m0-1a5,5,0,1,0,5,5,5,5,0,0,0-5-5Z"/><line class="cls-57" x1="312.72" y1="374.28" x2="330.28" y2="356.72"/><line class="cls-57" x1="332.28" y1="374.28" x2="314.72" y2="356.72"/><circle class="cls-36" cx="322.5" cy="365" r="5.5"/><path d="M322.5,360a5,5,0,1,1-5,5,5,5,0,0,1,5-5m0-1a6,6,0,1,0,6,6,6,6,0,0,0-6-6Z"/><rect class="cls-36" x="463" y="412" width="14" height="14"/><path d="M476,413v12H464V413h12m2-2H462v16h16V411Z"/><rect class="cls-36" x="838" y="375" width="14" height="14"/><path d="M851,376v12H839V376h12m2-2H837v16h16V374Z"/><rect class="cls-36" x="656" y="525.25" width="14" height="14"/><path d="M669,526.25v12H657v-12h12m2-2H655v16h16v-16Z"/><rect class="cls-54" x="253.5" y="403.5" width="17" height="17"/><path d="M269,405v14H255V405h14m3-3H252v20h20V402Z"/><line class="cls-41" x1="262" y1="407" x2="262" y2="412"/><polygon points="260.26 410.81 262 417.32 263.74 410.81 260.26 410.81"/><rect class="cls-36" x="255" y="432.25" width="14" height="14"/><path d="M268,433.25v12H256v-12h12m2-2H254v16h16v-16Z"/><text class="cls-37" transform="translate(256.75 442)">pH</text><line class="cls-22" x1="698" y1="248" x2="698" y2="272"/><line class="cls-22" x1="720.5" y1="248" x2="720.5" y2="272"/></g><g id="arrows"><polyline class="cls-62" points="70 372.5 70 366.5 84 366.5"/><polygon class="cls-63" points="83.26 367.59 87.32 366.5 83.26 365.41 83.26 367.59"/><polyline class="cls-62" points="118.5 499.5 112.5 499.5 112.5 505.5"/><polygon class="cls-63" points="111.41 504.76 112.5 508.82 113.59 504.76 111.41 504.76"/><polyline class="cls-62" points="87.5 640.5 83.5 640.5 83.5 644.5"/><polygon class="cls-63" points="82.41 643.76 83.5 647.82 84.59 643.76 82.41 643.76"/><polyline class="cls-62" points="221.5 522 225.5 522 225.5 526"/><polygon class="cls-63" points="224.41 525.26 225.5 529.32 226.59 525.26 224.41 525.26"/><polyline class="cls-62" points="322 547 318 547 318 543"/><polygon class="cls-63" points="319.09 543.74 318 539.68 316.91 543.74 319.09 543.74"/><polyline class="cls-62" points="130 647 130 641 136 641"/><polygon class="cls-63" points="135.26 642.09 139.32 641 135.26 639.91 135.26 642.09"/><polyline class="cls-62" points="170 554 170 548 176 548"/><polygon class="cls-63" points="175.26 549.09 179.32 548 175.26 546.91 175.26 549.09"/><line class="cls-62" x1="170" y1="548" x2="164" y2="548"/><polygon class="cls-63" points="164.74 546.91 160.68 548 164.74 549.09 164.74 546.91"/><line class="cls-62" x1="112.5" y1="388.5" x2="112.5" y2="396.5"/><polygon class="cls-63" points="111.41 395.76 112.5 399.82 113.59 395.76 111.41 395.76"/><line class="cls-62" x1="317.5" y1="456" x2="325.5" y2="456"/><polygon class="cls-63" points="324.76 457.09 328.82 456 324.76 454.91 324.76 457.09"/><line class="cls-62" x1="112.5" y1="560" x2="112.5" y2="568"/><polygon class="cls-63" points="111.41 567.26 112.5 571.32 113.59 567.26 111.41 567.26"/><line class="cls-62" x1="244.5" y1="548" x2="252.5" y2="548"/><polygon class="cls-63" points="251.76 549.09 255.82 548 251.76 546.91 251.76 549.09"/><line class="cls-62" x1="413" y1="548" x2="421" y2="548"/><polygon class="cls-63" points="413.74 549.09 409.68 548 413.74 546.91 413.74 549.09"/><polygon class="cls-63" points="420.26 549.09 424.32 548 420.26 546.91 420.26 549.09"/><line class="cls-62" x1="514" y1="548" x2="522" y2="548"/><polygon class="cls-63" points="514.74 549.09 510.68 548 514.74 546.91 514.74 549.09"/><polygon class="cls-63" points="521.26 549.09 525.32 548 521.26 546.91 521.26 549.09"/><line class="cls-62" x1="311" y1="550" x2="319" y2="550"/><polygon class="cls-63" points="318.26 551.09 322.32 550 318.26 548.91 318.26 551.09"/><line class="cls-62" x1="315" y1="550" x2="315" y2="546"/><polygon class="cls-63" points="316.09 546.74 315 542.68 313.91 546.74 316.09 546.74"/><line class="cls-62" x1="138" y1="522" x2="146" y2="522"/><polygon class="cls-63" points="145.26 523.09 149.32 522 145.26 520.91 145.26 523.09"/><line class="cls-62" x1="174" y1="477.5" x2="166" y2="477.5"/><polygon class="cls-63" points="166.74 476.41 162.68 477.5 166.74 478.59 166.74 476.41"/><line class="cls-62" x1="105.5" y1="669" x2="108.5" y2="669"/><polygon class="cls-63" points="107.76 670.09 111.82 669 107.76 667.91 107.76 670.09"/><line class="cls-62" x1="148" y1="669" x2="151" y2="669"/><polygon class="cls-63" points="150.26 670.09 154.32 669 150.26 667.91 150.26 670.09"/><line class="cls-62" x1="577.5" y1="456" x2="585.5" y2="456"/><polygon class="cls-63" points="584.76 457.09 588.82 456 584.76 454.91 584.76 457.09"/><line class="cls-62" x1="664" y1="289.5" x2="656" y2="289.5"/><polygon class="cls-63" points="656.74 288.41 652.68 289.5 656.74 290.59 656.74 288.41"/><line class="cls-62" x1="765" y1="366" x2="757" y2="366"/><polygon class="cls-63" points="757.74 364.91 753.68 366 757.74 367.09 757.74 364.91"/><line class="cls-62" x1="493" y1="419" x2="485" y2="419"/><polygon class="cls-63" points="485.74 417.91 481.68 419 485.74 420.09 485.74 417.91"/><line class="cls-62" x1="642.5" y1="419" x2="636" y2="419"/><polygon class="cls-63" points="636.74 417.91 632.68 419 636.74 420.09 636.74 417.91"/><line class="cls-62" x1="544" y1="289.5" x2="536" y2="289.5"/><polygon class="cls-63" points="536.74 288.41 532.68 289.5 536.74 290.59 536.74 288.41"/><line class="cls-62" x1="112.5" y1="327.5" x2="112.5" y2="335.5"/><polygon class="cls-63" points="111.41 334.76 112.5 338.82 113.59 334.76 111.41 334.76"/><line class="cls-62" x1="137.5" y1="366.5" x2="145.5" y2="366.5"/><polygon class="cls-63" points="144.76 367.59 148.82 366.5 144.76 365.41 144.76 367.59"/><line class="cls-62" x1="225.5" y1="366.5" x2="233.5" y2="366.5"/><polygon class="cls-63" points="232.76 367.59 236.82 366.5 232.76 365.41 232.76 367.59"/><line class="cls-62" x1="287" y1="366.5" x2="295" y2="366.5"/><polygon class="cls-63" points="294.26 367.59 298.32 366.5 294.26 365.41 294.26 367.59"/><line class="cls-62" x1="262" y1="387.5" x2="262" y2="395.5"/><polygon class="cls-63" points="260.91 394.76 262 398.82 263.09 394.76 260.91 394.76"/><line class="cls-62" x1="511.5" y1="311.5" x2="511.5" y2="319.5"/><polygon class="cls-63" points="510.41 318.76 511.5 322.82 512.59 318.76 510.41 318.76"/><line class="cls-62" x1="381.5" y1="804" x2="381.5" y2="812"/><polygon class="cls-63" points="380.41 811.26 381.5 815.32 382.59 811.26 380.41 811.26"/><line class="cls-62" x1="262" y1="686" x2="262" y2="694"/><polygon class="cls-63" points="260.91 693.26 262 697.32 263.09 693.26 260.91 693.26"/><line class="cls-62" x1="455" y1="724" x2="455" y2="710"/><polygon class="cls-63" points="456.09 710.74 455 706.68 453.91 710.74 456.09 710.74"/><line class="cls-62" x1="877" y1="724" x2="877" y2="710"/><polygon class="cls-63" points="878.09 710.74 877 706.68 875.91 710.74 878.09 710.74"/><line class="cls-62" x1="742" y1="635" x2="742" y2="627"/><polygon class="cls-63" points="743.09 627.74 742 623.68 740.91 627.74 743.09 627.74"/><line class="cls-62" x1="663" y1="624" x2="663" y2="632"/><polygon class="cls-63" points="661.91 631.26 663 635.32 664.09 631.26 661.91 631.26"/><line class="cls-62" x1="763.5" y1="548" x2="755.5" y2="548"/><polygon class="cls-63" points="756.24 546.91 752.18 548 756.24 549.09 756.24 546.91"/><line class="cls-62" x1="694.5" y1="548" x2="686.5" y2="548"/><polygon class="cls-63" points="687.24 546.91 683.18 548 687.24 549.09 687.24 546.91"/><line class="cls-62" x1="709" y1="412.5" x2="709" y2="404.5"/><polygon class="cls-63" points="710.09 405.24 709 401.18 707.91 405.24 710.09 405.24"/><line class="cls-62" x1="573.5" y1="548" x2="565.5" y2="548"/><polygon class="cls-63" points="566.24 546.91 562.18 548 566.24 549.09 566.24 546.91"/><line class="cls-62" x1="454.5" y1="530" x2="454.5" y2="522"/><polygon class="cls-63" points="455.59 522.74 454.5 518.68 453.41 522.74 455.59 522.74"/><line class="cls-62" x1="454.5" y1="468" x2="454.5" y2="444"/><polygon class="cls-63" points="455.59 444.74 454.5 440.68 453.41 444.74 455.59 444.74"/><line class="cls-62" x1="486" y1="355.5" x2="478" y2="355.5"/><polygon class="cls-63" points="478.74 354.41 474.68 355.5 478.74 356.59 478.74 354.41"/><line class="cls-62" x1="536.5" y1="366.5" x2="544.5" y2="366.5"/><polygon class="cls-63" points="543.76 367.59 547.82 366.5 543.76 365.41 543.76 367.59"/><line class="cls-62" x1="652.5" y1="366.5" x2="660.5" y2="366.5"/><polygon class="cls-63" points="659.76 367.59 663.82 366.5 659.76 365.41 659.76 367.59"/><line class="cls-62" x1="754" y1="289" x2="762" y2="289"/><polygon class="cls-63" points="761.26 290.09 765.32 289 761.26 287.91 761.26 290.09"/><line class="cls-62" x1="992" y1="340" x2="1000" y2="340"/><polygon class="cls-63" points="999.26 341.09 1003.32 340 999.26 338.91 999.26 341.09"/><line class="cls-62" x1="840.5" y1="456" x2="848.5" y2="456"/><polygon class="cls-63" points="847.76 457.09 851.82 456 847.76 454.91 847.76 457.09"/><line class="cls-62" x1="992" y1="419" x2="1000" y2="419"/><polygon class="cls-63" points="999.26 420.09 1003.32 419 999.26 417.91 999.26 420.09"/><line class="cls-62" x1="852" y1="486" x2="844" y2="486"/><polygon class="cls-63" points="844.74 484.91 840.68 486 844.74 487.09 844.74 484.91"/><line class="cls-62" x1="877" y1="507.5" x2="877" y2="499.5"/><polygon class="cls-63" points="878.09 500.24 877 496.18 875.91 500.24 878.09 500.24"/><line class="cls-62" x1="877" y1="446" x2="877" y2="438"/><polygon class="cls-63" points="878.09 438.74 877 434.68 875.91 438.74 878.09 438.74"/><line class="cls-62" x1="490.5" y1="486" x2="482.5" y2="486"/><polygon class="cls-63" points="483.24 484.91 479.18 486 483.24 487.09 483.24 484.91"/><line class="cls-62" x1="429.5" y1="499.5" x2="421.5" y2="499.5"/><polygon class="cls-63" points="422.24 498.41 418.18 499.5 422.24 500.59 422.24 498.41"/><line class="cls-62" x1="170" y1="646" x2="170" y2="637"/><polygon class="cls-63" points="171.09 637.74 170 633.68 168.91 637.74 171.09 637.74"/><line class="cls-62" x1="164" y1="641" x2="170" y2="641"/><line class="cls-62" x1="489.5" y1="289.5" x2="449.5" y2="289.5"/><polygon class="cls-63" points="450.24 288.41 446.18 289.5 450.24 290.59 450.24 288.41"/><line class="cls-62" x1="453.5" y1="295.5" x2="453.5" y2="289.5"/><line class="cls-62" x1="449.5" y1="366.5" x2="483.5" y2="366.5"/><polygon class="cls-63" points="482.76 367.59 486.82 366.5 482.76 365.41 482.76 367.59"/><line class="cls-62" x1="454.5" y1="372.5" x2="454.5" y2="366.5"/><line class="cls-62" x1="385.5" y1="289.5" x2="377.5" y2="289.5"/><polygon class="cls-63" points="378.24 288.41 374.18 289.5 378.24 290.59 378.24 288.41"/><line class="cls-62" x1="381.5" y1="289.5" x2="381.5" y2="293.5"/><polygon class="cls-63" points="380.41 292.76 381.5 296.82 382.59 292.76 380.41 292.76"/><line class="cls-62" x1="631" y1="548" x2="623" y2="548"/><polygon class="cls-63" points="623.74 546.91 619.68 548 623.74 549.09 623.74 546.91"/><line class="cls-62" x1="627" y1="548" x2="627" y2="544"/><polygon class="cls-63" points="628.09 544.74 627 540.68 625.91 544.74 628.09 544.74"/><line class="cls-62" x1="709" y1="440" x2="709" y2="432"/><polygon class="cls-63" points="710.09 432.74 709 428.68 707.91 432.74 710.09 432.74"/><line class="cls-62" x1="709" y1="436" x2="705" y2="436"/><polygon class="cls-63" points="705.74 434.91 701.68 436 705.74 437.09 705.74 434.91"/><line class="cls-62" x1="841" y1="419" x2="849" y2="419"/><polygon class="cls-63" points="848.26 420.09 852.32 419 848.26 417.91 848.26 420.09"/><line class="cls-62" x1="845" y1="419" x2="845" y2="415"/><polygon class="cls-63" points="846.09 415.74 845 411.68 843.91 415.74 846.09 415.74"/><line class="cls-62" x1="381.5" y1="413.5" x2="381.5" y2="422.5"/><polygon class="cls-63" points="380.41 421.76 381.5 425.82 382.59 421.76 380.41 421.76"/><line class="cls-62" x1="387.5" y1="418.5" x2="381.5" y2="418.5"/><line class="cls-62" x1="381.5" y1="610" x2="381.5" y2="647"/><polygon class="cls-63" points="380.41 646.26 381.5 650.32 382.59 646.26 380.41 646.26"/><line class="cls-62" x1="375.5" y1="643" x2="381.5" y2="643"/><line class="cls-62" x1="375.5" y1="616" x2="381.5" y2="616"/><line class="cls-62" x1="262" y1="623" x2="262" y2="658"/><polygon class="cls-63" points="260.91 657.26 262 661.32 263.09 657.26 260.91 657.26"/><line class="cls-62" x1="268" y1="654" x2="262" y2="654"/><line class="cls-62" x1="268" y1="629" x2="262" y2="629"/><polyline class="cls-62" points="877 372 877 366 872 366"/><polygon class="cls-63" points="872.74 364.91 868.68 366 872.74 367.09 872.74 364.91"/><polyline class="cls-62" points="703 499 709 499 709 494"/><polygon class="cls-63" points="710.09 494.74 709 490.68 707.91 494.74 710.09 494.74"/><polyline class="cls-62" points="648 436 642 436 642 419 648 419"/><polygon class="cls-63" points="647.26 420.09 651.32 419 647.26 417.91 647.26 420.09"/><polyline class="cls-62" points="845 291 845 289 836 289"/><polygon class="cls-63" points="846.09 290.26 845 294.32 843.91 290.26 846.09 290.26"/><polyline class="cls-62" points="851 340 845 340 845 346"/><polygon class="cls-63" points="850.26 338.91 854.32 340 850.26 341.09 850.26 338.91"/><line class="cls-62" x1="845" y1="334" x2="845" y2="340"/></g><g id="labels"><text class="cls-32" transform="translate(887.83 201.67)">DC-</text><text class="cls-32" transform="translate(392.83 204.67)">DC-</text><text class="cls-64" transform="translate(373.83 34.17)">AC Bus 2 (3ø)</text><text class="cls-64" transform="translate(177.83 55.17)">AC Bus 1 (3ø)</text><text class="cls-65" transform="translate(251.78 81.17)">AC<tspan x="3.33" y="7">1</tspan></text><text class="cls-65" transform="translate(280.78 81.17)">AC<tspan x="3.33" y="7">2</tspan></text><text class="cls-66" transform="translate(758.33 86.17)">H₂</text><text class="cls-66" transform="translate(788.11 86.17)">O₂</text><text class="cls-67" transform="translate(46 248)">Fuel Cell<tspan x="0" y="14.4">Power Plant</tspan></text><text class="cls-68" transform="translate(276.39 632.67)">FC1</text><text class="cls-68" transform="translate(276.39 657.67)">FC2</text><text class="cls-69" transform="translate(342.39 619.67)">FC1</text><text class="cls-69" transform="translate(341.39 646.67)">FC2</text><text class="cls-69" transform="translate(458.22 806.97) rotate(-90)">SM Storage <tspan class="cls-70" x="57.79" y="0">T</tspan><tspan x="63.16" y="0">ank</tspan></text><text class="cls-69" transform="translate(385.22 838.78) rotate(-90)"><tspan class="cls-33">V</tspan><tspan x="6.12" y="0">ent</tspan></text><text class="cls-68" transform="translate(265.72 722.78) rotate(-90)"><tspan class="cls-70">T</tspan><tspan x="5.37" y="0">ank</tspan></text><text class="cls-71" transform="translate(880.72 806.97) rotate(-90)">SM Storage <tspan class="cls-70" x="57.79" y="0">T</tspan><tspan x="63.16" y="0">ank</tspan></text><text class="cls-72" transform="translate(666.22 658.78) rotate(-90)"><tspan class="cls-33">V</tspan><tspan x="6.12" y="0">ent</tspan></text><text class="cls-72" transform="translate(745.72 657.78) rotate(-90)">GSE</text><text class="cls-72" transform="translate(1005.32 422.66)"><tspan class="cls-33">V</tspan><tspan x="6.12" y="0">ent</tspan></text><text class="cls-71" transform="translate(1005.32 343.66)"><tspan class="cls-33">V</tspan><tspan x="6.12" y="0">ent</tspan></text></g><g id="meta"><path d="M955,230H943v3h12v-3Zm-24,0H919v3h12v-3Zm-24,0H895v3h12v-3Zm-24,0H871v3h12v-3Zm-24,0H847v3h12v-3Zm-24,0H823v3h12v-3Zm-24,0H799v3h12v-3Zm-24,0H775v3h12v-3Zm-24,0H751v3h12v-3Zm-24,0H727v3h12v-3Zm-24,0H703v3h12v-3Zm-24,0H679v3h12v-3Zm-24,0H655v3h12v-3Zm-24,0H631v3h12v-3Zm-24,0H607v3h12v-3Zm-24,0H583v3h12v-3Zm-24,0H559v3h12v-3Zm-24,0H535v3h12v-3Zm-24,0H511v3h12v-3Zm-24,0H487v3h12v-3Zm-24,0H463v3h12v-3Zm-24,0H439v3h12v-3Zm-24,0H415v3h12v-3Zm-24,0H391v3h12v-3Zm-24,0H367v3h12v-3Zm-24,0H343v3h12v-3Zm-24,0H319v3h12v-3Zm-24,0H295v3h12v-3Zm-24,0H271v3h12v-3Zm-24,0H247v3h12v-3Zm-24,0H223v3h12v-3Zm-24,0H199v3h12v-3Zm-24,0H175v3h12v-3Zm-24,0H151v3h12v-3Zm-24,0H127v3h12v-3Zm-24,0H103v3h12v-3Zm-24,0H79v3H91v-3Zm-24,0H55v3H67v-3Zm-24,0H37v3h0v3h3v-3h3v-3Zm-3,18H37v12h3V248Zm0,24H37v12h3V272Zm0,24H37v12h3V296Zm0,24H37v12h3V320Zm0,24H37v12h3V344Zm0,24H37v12h3V368Zm0,24H37v12h3V392Zm0,24H37v12h3V416Zm0,24H37v12h3V440Zm0,24H37v12h3V464Zm0,24H37v12h3V488Zm0,24H37v12h3V512Zm0,24H37v12h3V536Zm0,24H37v12h3V560Zm0,24H37v11h3V584Zm22,8H50v3H62v-3Zm24,0H74v3H86v-3Zm24,0H98v3h12v-3Zm24,0H122v3h12v-3Zm24,0H146v3h12v-3Zm24,0H170v3h12v-3Zm24,0H194v3h12v-3Zm24,0H218v3h12v-3Zm24,0H242v3h12v-3Zm24,0H266v3h12v-3Zm24,0H290v3h12v-3Zm24,0H314v3h12v-3Zm24,0H338v3h12v-3Zm24,0H362v3h12v-3Zm24,0H386v3h12v-3Zm24,0H410v3h12v-3Zm24,0H434v3h12v-3Zm24,0H458v3h12v-3Zm24,0H482v3h12v-3Zm24,0H506v3h12v-3Zm24,0H530v3h12v-3Zm24,0H554v3h12v-3Zm24,0H578v3h12v-3Zm24,0H602v3h12v-3Zm24,0H626v3h12v-3Zm24,0H650v3h12v-3Zm24,0H674v3h12v-3Zm24,0H698v3h12v-3Zm24,0H722v3h12v-3Zm24,0H746v3h12v-3Zm24,0H770v3h12v-3Zm24,0H794v3h12v-3Zm24,0H818v3h12v-3Zm24,0H842v3h12v-3Zm24,0H866v3h12v-3Zm24,0H890v3h12v-3Zm24,0H914v3h12v-3Zm24,0H938v3h12v-3Zm5-16h-3v12h3V576Zm0-24h-3v12h3V552Zm0-24h-3v12h3V528Zm0-24h-3v12h3V504Zm0-24h-3v12h3V480Zm0-24h-3v12h3V456Zm0-24h-3v12h3V432Zm0-24h-3v12h3V408Zm0-24h-3v12h3V384Zm0-24h-3v12h3V360Zm0-24h-3v12h3V336Zm0-24h-3v12h3V312Zm0-24h-3v12h3V288Zm0-24h-3v12h3V264Zm0-24h-3v12h3V240Z"/></g></svg>