<svg xmlns="http://www.w3.org/2000/svg" viewBox="0 0 300 700"><defs><style>.cls-1,.cls-10,.cls-22,.cls-23,.cls-27,.cls-31,.cls-35,.cls-4,.cls-5,.cls-51,.cls-52,.cls-53,.cls-57,.cls-70,.cls-73,.cls-74,.cls-75,.cls-76,.cls-77,.cls-78,.cls-9{fill:none;}.cls-1,.cls-10,.cls-15,.cls-16,.cls-17,.cls-22,.cls-23,.cls-25,.cls-27,.cls-30,.cls-31,.cls-32,.cls-35,.cls-36,.cls-37,.cls-38,.cls-39,.cls-4,.cls-40,.cls-41,.cls-42,.cls-43,.cls-44,.cls-45,.cls-46,.cls-47,.cls-5,.cls-50,.cls-51,.cls-52,.cls-53,.cls-54,.cls-57,.cls-58,.cls-59,.cls-60,.cls-61,.cls-62,.cls-64,.cls-65,.cls-66,.cls-67,.cls-68,.cls-70,.cls-71,.cls-9{stroke:#000;}.cls-1,.cls-10,.cls-15,.cls-16,.cls-17,.cls-22,.cls-23,.cls-25,.cls-27,.cls-30,.cls-31,.cls-32,.cls-35,.cls-36,.cls-37,.cls-38,.cls-39,.cls-4,.cls-40,.cls-41,.cls-42,.cls-44,.cls-45,.cls-46,.cls-47,.cls-5,.cls-50,.cls-51,.cls-52,.cls-53,.cls-54,.cls-57,.cls-58,.cls-59,.cls-60,.cls-61,.cls-64,.cls-65,.cls-66,.cls-67,.cls-68,.cls-70,.cls-71,.cls-73,.cls-74,.cls-75,.cls-76,.cls-77,.cls-78,.cls-9{stroke-miterlimit:10;}.cls-1,.cls-10,.cls-35,.cls-44,.cls-51,.cls-64,.cls-65,.cls-73,.cls-75,.cls-77,.cls-78{stroke-width:2px;}.cls-1{stroke-dasharray:8;}.cls-17,.cls-2,.cls-42{fill:#666;}.cls-3{fill:#4d4d4d;}.cls-5,.cls-58,.cls-9{stroke-width:3px;}.cls-32,.cls-38,.cls-40,.cls-6,.cls-65,.cls-67{fill:gray;}.cls-66,.cls-68,.cls-7,.cls-71{fill:#b3b3b3;}.cls-8{fill:#d7d7d7;}.cls-10,.cls-21,.cls-52,.cls-53,.cls-9{opacity:0.5;}.cls-11{opacity:0.07;}.cls-12{opacity:0.12;}.cls-13,.cls-14,.cls-20,.cls-21,.cls-64,.cls-69{fill:#fff;}.cls-13{opacity:0.21;}.cls-14,.cls-72{opacity:0.2;}.cls-15,.cls-34,.cls-36,.cls-39,.cls-43,.cls-62{fill:#999;}.cls-16,.cls-33,.cls-41,.cls-61{fill:#ccc;}.cls-18{opacity:0.09;}.cls-19{fill:#c1272d;}.cls-20{font-size:12px;font-family:HelveticaNeue-Bold, Helvetica Neue;font-weight:700;}.cls-22,.cls-27,.cls-54,.cls-66,.cls-67{stroke-width:0.25px;}.cls-23,.cls-25,.cls-32,.cls-39,.cls-41,.cls-42,.cls-43,.cls-45,.cls-46,.cls-68{stroke-width:0.5px;}.cls-24,.cls-25,.cls-30,.cls-44,.cls-54,.cls-58{fill:#333;}.cls-26,.cls-27{opacity:0.6;}.cls-28{opacity:0.18;}.cls-29{fill:#0071bc;}.cls-31,.cls-36,.cls-37,.cls-40,.cls-53,.cls-61,.cls-71{stroke-width:0.75px;}.cls-37,.cls-60{fill:#1a1a1a;}.cls-43,.cls-50,.cls-62,.cls-74,.cls-75,.cls-78{stroke-linecap:round;}.cls-43,.cls-62{stroke-linejoin:round;}.cls-45,.cls-47,.cls-49,.cls-50{fill:#f7931e;}.cls-46,.cls-48,.cls-59{fill:#fbb03b;}.cls-51{stroke-dasharray:7.4 7.4;}.cls-52{stroke-width:1.5px;}.cls-55{fill:#e6e6e6;}.cls-56{opacity:0.16;}.cls-57{stroke-dasharray:4;}.cls-63{fill:#009245;}.cls-70{opacity:0.15;}.cls-73{stroke:#ccc;}.cls-74,.cls-76{stroke:#fff;stroke-width:4px;}.cls-75{stroke:#009245;}.cls-77{stroke:#0071bc;}.cls-78{stroke:#c1272d;}</style></defs><title>lifecycle</title><g id="stack_4" data-name="stack 4"><line class="cls-1" x1="150" y1="628" x2="177" y2="628"/><path class="cls-2" d="M6.63,606.88v47.5c22,0,49.25-17,49.25-17v-13S25.13,606.88,6.63,606.88Z"/><path class="cls-3" d="M33.19,613.54c-8.9-3.58-18.8-6.66-26.56-6.66v47.5c8.7,0,18.23-2.66,26.56-5.88Z"/><line class="cls-4" x1="33.19" y1="613.54" x2="33.19" y2="648.63"/><path class="cls-5" d="M6.63,606.88v47.5c22,0,49.25-17,49.25-17v-13S25.13,606.88,6.63,606.88Z"/><path class="cls-6" d="M59.54,603.5s-4.54.63-4.54,6.25v42.5c0,5.13,4.54,4.5,4.54,4.5Z"/><rect class="cls-7" x="66.88" y="587.87" width="70" height="85" transform="translate(732.25 528.5) rotate(90)"/><rect class="cls-8" x="51.38" y="610.37" width="51" height="28" transform="translate(701.25 547.5) rotate(90)"/><rect class="cls-8" x="130.88" y="603.87" width="13" height="13" transform="translate(747.75 473) rotate(90)"/><rect class="cls-8" x="130.88" y="630.87" width="13" height="13" transform="translate(774.75 500) rotate(90)"/><rect class="cls-8" x="130.88" y="647.87" width="13" height="13" transform="translate(791.75 517) rotate(90)"/><line class="cls-9" x1="85.88" y1="602.87" x2="85.88" y2="645.87"/><line class="cls-10" x1="139.88" y1="605.87" x2="139.88" y2="614.87"/><line class="cls-10" x1="136.88" y1="605.87" x2="136.88" y2="614.87"/><line class="cls-10" x1="133.88" y1="605.87" x2="133.88" y2="614.87"/><line class="cls-10" x1="139.88" y1="632.87" x2="139.88" y2="641.87"/><line class="cls-10" x1="136.88" y1="632.87" x2="136.88" y2="641.87"/><line class="cls-10" x1="133.88" y1="632.87" x2="133.88" y2="641.87"/><line class="cls-10" x1="139.88" y1="649.87" x2="139.88" y2="658.87"/><line class="cls-10" x1="136.88" y1="649.87" x2="136.88" y2="658.87"/><line class="cls-10" x1="133.88" y1="649.87" x2="133.88" y2="658.87"/><line class="cls-9" x1="79.88" y1="602.87" x2="79.88" y2="645.87"/><line class="cls-9" x1="73.88" y1="602.87" x2="73.88" y2="645.87"/><line class="cls-9" x1="67.88" y1="602.87" x2="67.88" y2="645.87"/><rect class="cls-11" x="88.88" y="609.87" width="26" height="85" transform="translate(754.25 550.5) rotate(90)"/><rect class="cls-12" x="98.13" y="619.12" width="7.5" height="85" transform="translate(763.5 559.75) rotate(90)"/><path class="cls-11" d="M59.54,656.75V629.88H55v22.38C55,657.38,59.54,656.75,59.54,656.75Z"/><path class="cls-12" d="M59.54,656.75V644.88H55v7.38C55,657.38,59.54,656.75,59.54,656.75Z"/><path class="cls-11" d="M55,630.13S32.88,641.88,6.88,641.88v12c22,1,48.13-16,48.13-16Z"/><path class="cls-12" d="M55,636.13S32.88,647.88,6.88,647.88v6c22,1,48.13-16,48.13-16Z"/><rect class="cls-13" x="94.38" y="564.37" width="14" height="85" transform="translate(708.25 505.5) rotate(90)"/><rect class="cls-14" x="98.38" y="563.37" width="6" height="85" transform="translate(707.25 504.5) rotate(90)"/><rect class="cls-5" x="59.38" y="595.37" width="85" height="70" rx="1" ry="1"/><path class="cls-5" d="M58.88,602.88s-4,1.38-4,7v42c0,5.13,4,5,4,5Z"/><line class="cls-4" x1="130.88" y1="653.87" x2="62.88" y2="653.87"/><line class="cls-4" x1="130.38" y1="595.37" x2="130.38" y2="665.37"/><polygon class="cls-15" points="117.38 630.38 123.38 632.38 124.38 632.38 124.38 628.38 123.38 628.38 117.38 630.38"/><polygon class="cls-15" points="117.38 593.38 123.38 595.38 124.38 595.38 124.38 591.38 123.38 591.38 117.38 593.38"/><polygon class="cls-15" points="113.38 593.38 107.38 595.38 106.38 595.38 106.38 591.38 107.38 591.38 113.38 593.38"/><polygon class="cls-15" points="114.38 630.38 108.38 632.38 107.38 632.38 107.38 628.38 108.38 628.38 114.38 630.38"/><polygon class="cls-15" points="115.88 630.88 117.88 636.88 117.88 637.88 113.88 637.88 113.88 636.88 115.88 630.88"/><polygon class="cls-15" points="115.88 629.88 117.88 623.88 117.88 622.88 113.88 622.88 113.88 623.88 115.88 629.88"/><rect class="cls-16" x="113.38" y="626.37" width="5" height="8" transform="translate(746.25 514.5) rotate(90)"/><polygon class="cls-16" points="110.88 594.88 111.88 591.88 118.88 591.88 119.88 594.88 110.88 594.88"/><circle class="cls-17" cx="115.38" cy="593.37" r="2"/><polygon class="cls-15" points="117.38 667.38 123.38 665.38 124.38 665.38 124.38 669.38 123.38 669.38 117.38 667.38"/><polygon class="cls-15" points="113.38 667.38 107.38 665.38 106.38 665.38 106.38 669.38 107.38 669.38 113.38 667.38"/><polygon class="cls-16" points="110.88 665.88 111.88 668.88 118.88 668.88 119.88 665.88 110.88 665.88"/><circle class="cls-17" cx="115.38" cy="667.37" r="2"/><polygon class="cls-18" points="111.88 629.88 119.88 631.88 119.88 632.88 111.88 632.88 111.88 629.88"/><circle class="cls-19" cx="21.5" cy="588.5" r="8.5"/><text class="cls-20" transform="translate(18.04 592.44)">4</text><path class="cls-7" d="M186.07,596.44c-.93-.59-1.69-.17-1.69.93v66c0,1.1.74,1.49,1.65.87l34.7-23.74a4.26,4.26,0,0,0,1.65-3.13v-16a4.05,4.05,0,0,0-1.69-3.07Z"/><polygon class="cls-11" points="222.38 631.5 222.38 639.38 184.38 665.38 184.38 638.88 222.38 631.5"/><polygon class="cls-12" points="222.38 637.5 222.38 639.38 184.38 665.38 184.38 657.88 222.38 637.5"/><polygon class="cls-13" points="222.38 621.38 222.38 625 184.38 613.38 184.38 599.88 222.38 621.38"/><polygon class="cls-14" points="222.38 622.38 222.38 623 184.38 608.38 184.38 602.88 222.38 622.38"/><polygon class="cls-21" points="222.38 622.38 222.38 623 184.38 605.38 184.38 603.88 222.38 622.38"/><path class="cls-5" d="M186.07,596.44c-.93-.59-1.69-.17-1.69.93v66c0,1.1.74,1.49,1.65.87l34.7-23.74a4.26,4.26,0,0,0,1.65-3.13v-16a4.05,4.05,0,0,0-1.69-3.07Z"/><path class="cls-22" d="M214.35,613.67a60.41,60.41,0,0,1,2,16.1,59.77,59.77,0,0,1-2,16.1"/><path class="cls-23" d="M207.4,635.66a1.69,1.69,0,0,1,2,1.72v6a3.82,3.82,0,0,1-1.74,3l-10.53,6c-1,.55-1.74.09-1.74-1v-12a2.38,2.38,0,0,1,2-2.28Z"/><path class="cls-24" d="M206.39,638.57a.79.79,0,0,1,1,.8v4a1.6,1.6,0,0,1-.93,1.37L203.3,646a.63.63,0,0,1-.93-.63v-5a1.27,1.27,0,0,1,1-1.2Z"/><path class="cls-23" d="M206.39,638.57a.79.79,0,0,1,1,.8v4a1.6,1.6,0,0,1-.93,1.37L203.3,646a.63.63,0,0,1-.93-.63v-5a1.27,1.27,0,0,1,1-1.2Z"/><path class="cls-24" d="M210.39,626.21a1.23,1.23,0,0,1,1,1.16v4a1,1,0,0,1-1,1h-7a.61.61,0,0,1-.61-.92l2.21-5.16a1.34,1.34,0,0,1,1.38-.75Z"/><path class="cls-23" d="M210.39,626.21a1.23,1.23,0,0,1,1,1.16v4a1,1,0,0,1-1,1h-7a.61.61,0,0,1-.61-.92l2.21-5.16a1.34,1.34,0,0,1,1.38-.75Z"/><path class="cls-25" d="M187.43,648.49a1,1,0,0,1-1.06-1,1.1,1.1,0,0,1,1.06-1.13,1,1,0,0,1,.94,1A1.12,1.12,0,0,1,187.43,648.49Z"/><path class="cls-25" d="M187.43,651.67a.78.78,0,0,1-1.06-.79,1.4,1.4,0,0,1,1.06-1.33.78.78,0,0,1,.94.82A1.42,1.42,0,0,1,187.43,651.67Z"/><g class="cls-26"><path class="cls-22" d="M184.38,646.38a1.27,1.27,0,0,1,1-1.2l3-.61a.79.79,0,0,1,1,.8v6a1.6,1.6,0,0,1-.93,1.37L185.3,654a.63.63,0,0,1-.93-.63Z"/></g><path class="cls-24" d="M202.48,612.93a1.78,1.78,0,0,1,.89,1.45v3a.68.68,0,0,1-.95.68l-4.1-1.37a1.48,1.48,0,0,1-.95-1.32v-4a.57.57,0,0,1,.89-.55Z"/><path class="cls-23" d="M202.48,612.93a1.78,1.78,0,0,1,.89,1.45v3a.68.68,0,0,1-.95.68l-4.1-1.37a1.48,1.48,0,0,1-.95-1.32v-4a.57.57,0,0,1,.89-.55Z"/><path class="cls-25" d="M190.42,618.57a1.68,1.68,0,0,1-1-1.69c0-.83.48-1.34,1-1.16a1.76,1.76,0,0,1,1,1.67C191.38,618.13,191,618.67,190.42,618.57Z"/><path class="cls-25" d="M190.42,622.38c-.57,0-1-.67-1-1.5s.48-1.43,1-1.36,1,.74,1,1.49S191,622.38,190.42,622.38Z"/><polyline class="cls-27" points="195.38 602.38 195.38 615.38 188.38 613.38 188.38 624.38 184.38 624.38"/><g class="cls-28"><path d="M202.76,617.21c.05.55.22,1,.36,1.08s.26-.36.26-.91v-3a1.78,1.78,0,0,0-.89-1.45l-4.21-2.11c-.49-.25-.51-.22,0,.07l3.29,2a2.25,2.25,0,0,1,1,1.51Z"/></g><g class="cls-28"><path d="M210.57,631.39c.08.54.3,1,.48,1s.33-.45.33-1v-4a1.23,1.23,0,0,0-1-1.16l-4-.67c-.54-.09-.56,0,0,.15l2.6.87a1.8,1.8,0,0,1,1.1,1.3Z"/></g><g class="cls-28"><path d="M204.89,639.71a1.6,1.6,0,0,1,1.2,1.14l.61,2.73c.12.54.32.93.45.88s.23-.54.23-1.09v-4a.79.79,0,0,0-1-.8l-2.81.56c-.54.11-.54.27,0,.36Z"/></g></g><g id="stack_3" data-name="stack 3"><circle class="cls-29" cx="21.5" cy="396.5" r="8.5"/><text class="cls-20" transform="translate(18.13 400.44)">3</text><polygon class="cls-30" points="127.71 514.7 133.86 512.76 133.86 522.78 127.71 520.75 127.71 514.7"/><line class="cls-23" x1="130.72" y1="513.59" x2="130.72" y2="521.85"/><line class="cls-23" x1="131.84" y1="513.31" x2="131.84" y2="522.03"/><path class="cls-6" d="M111.45,504.15c-1.1,0-1.36-.63-.58-1.4l.36-.36a5.7,5.7,0,0,1,3.42-1.42l6.25-.05a5.35,5.35,0,0,1,3.39,1.42l.36.37c.76.79.49,1.44-.61,1.44Z"/><path class="cls-31" d="M111.45,504.15c-1.1,0-1.36-.63-.58-1.4l.36-.36a5.7,5.7,0,0,1,3.42-1.42l6.25-.05a5.35,5.35,0,0,1,3.39,1.42l.36.37c.76.79.49,1.44-.61,1.44Z"/><path class="cls-6" d="M107.74,530.63a1.8,1.8,0,0,0-2,1.54,4.06,4.06,0,0,0,1.64,2.7l.14.1a7.21,7.21,0,0,0,3.62,1.18h8a11,11,0,0,0,3.5-.62,3.94,3.94,0,0,0,1.94-1.75,8.45,8.45,0,0,0,.5-2.21c0-.6-.84-1.08-1.94-1.07Z"/><path class="cls-31" d="M107.74,530.63a1.8,1.8,0,0,0-2,1.54,4.06,4.06,0,0,0,1.64,2.7l.14.1a7.21,7.21,0,0,0,3.62,1.18h8a11,11,0,0,0,3.5-.62,3.94,3.94,0,0,0,1.94-1.75,8.45,8.45,0,0,0,.5-2.21c0-.6-.84-1.08-1.94-1.07Z"/><line class="cls-32" x1="105.74" y1="533.31" x2="125.05" y2="533.31"/><rect class="cls-33" x="99.91" y="504.15" width="28.5" height="26.5" rx="3" ry="3"/><polygon class="cls-11" points="128.41 516.65 105.91 530.65 128.41 530.65 128.41 516.65"/><circle class="cls-34" cx="114.16" cy="517.4" r="11.5"/><polygon class="cls-2" points="112.78 513.52 112.74 521.64 115.84 522.01 115.84 513.14 112.78 513.52"/><polygon class="cls-12" points="119.41 530.57 128.41 530.57 128.41 524.9 119.41 530.57"/><polygon class="cls-7" points="112.78 513.52 112.74 521.64 106.41 520.89 106.41 514.32 112.78 513.52"/><polygon class="cls-6" points="124.2 523 112.74 521.64 110.56 523.65 124.2 523"/><path class="cls-35" d="M126.41,504.15h-23a3.51,3.51,0,0,0-3.5,3.5v19.5a3.51,3.51,0,0,0,3.5,3.5h23c1.08,0,2-1,2-2.92V506.61C128.41,504.78,127.33,504.15,126.41,504.15Z"/><circle class="cls-4" cx="114.16" cy="517.4" r="11.5"/><line class="cls-36" x1="102.97" y1="514.74" x2="124.36" y2="512.09"/><line class="cls-36" x1="103.08" y1="520.5" x2="124.2" y2="523"/><polygon class="cls-37" points="112.78 513.52 107.68 507.9 106.41 514.32 112.78 513.52"/><polygon class="cls-37" points="106.41 520.89 107.5 526.78 112.53 521.62 106.41 520.89"/><path class="cls-6" d="M119.41,520.65a3,3,0,0,0,0-6h0a3,3,0,0,0-3,3h0a3,3,0,0,0,3,3Z"/><path class="cls-31" d="M119.41,520.65a3,3,0,0,0,0-6h0a3,3,0,0,0-3,3h0a3,3,0,0,0,3,3Z"/><line class="cls-38" x1="115.84" y1="513.14" x2="115.84" y2="522.01"/><line class="cls-32" x1="112.74" y1="513.53" x2="112.74" y2="521.65"/><line class="cls-39" x1="106.44" y1="514.16" x2="106.44" y2="520.9"/><rect class="cls-40" x="111.91" y="501.15" width="3.5" height="2.5" transform="translate(616.05 388.74) rotate(90)"/><polygon class="cls-41" points="109.91 501.15 109.91 502.65 111.41 502.65 112.41 502.16 112.41 501.74 111.41 501.15 109.91 501.15"/><polygon class="cls-41" points="117.41 501.15 117.41 502.65 115.91 502.65 114.91 502.16 114.91 501.74 115.91 501.15 117.41 501.15"/><polygon class="cls-41" points="114.41 498.15 112.91 498.15 112.91 499.65 113.4 500.65 113.81 500.65 114.41 499.65 114.41 498.15"/><rect class="cls-40" x="111.91" y="531.15" width="3.5" height="2.5" transform="translate(-418.74 646.05) rotate(-90)"/><polygon class="cls-41" points="109.91 533.65 109.91 532.15 111.41 532.15 112.41 532.64 112.41 533.05 111.41 533.65 109.91 533.65"/><polygon class="cls-41" points="117.41 533.65 117.41 532.15 115.91 532.15 114.91 532.64 114.91 533.05 115.91 533.65 117.41 533.65"/><polygon class="cls-41" points="114.41 536.65 112.91 536.65 112.91 535.15 113.4 534.15 113.81 534.15 114.41 535.15 114.41 536.65"/><path class="cls-42" d="M104.91,504.15a.5.5,0,0,0-.15-.35l-2.25-2.25a.5.5,0,0,0-.71.71l2.25,2.25a.5.5,0,0,0,.85-.35Z"/><path class="cls-42" d="M103.91,498.4a.75.75,0,0,0-.75-.75h-3a.75.75,0,1,0,0,1.5h3A.75.75,0,0,0,103.91,498.4Z"/><path class="cls-39" d="M102.66,501.9v-1.5a.5.5,0,0,0-.15-.35l-2-2a.5.5,0,1,0-.71.71l1.85,1.85v1.29a.5.5,0,0,0,1,0Z"/><path class="cls-43" d="M104.41,495.65v5.5a3.45,3.45,0,0,1,0-5.5Z"/><line class="cls-43" x1="104.41" y1="498.4" x2="105.41" y2="498.4"/><polygon class="cls-44" points="198.6 466.51 206.73 470.76 196.65 480.83 192.5 472.61 198.6 466.51"/><line class="cls-23" x1="203.24" y1="468.94" x2="194.93" y2="477.25"/><line class="cls-23" x1="204.15" y1="469.27" x2="195.37" y2="478.05"/><path class="cls-45" d="M208.85,456.61a.75.75,0,0,0,.2-.71l-3.64-14.64a.75.75,0,1,0-1.46.36l3.64,14.64a.75.75,0,0,0,1.26.35Z"/><path class="cls-46" d="M206.37,441.41a.75.75,0,0,0-.85-1.21l-7.78,4.24a.75.75,0,0,0,.65,1.35l7.78-4.24A.75.75,0,0,0,206.37,441.41Z"/><path class="cls-45" d="M213.06,458.79a.75.75,0,0,0-.73-1.25l-9.86,2.78a.75.75,0,1,0,.41,1.44l9.86-2.78A.75.75,0,0,0,213.06,458.79Z"/><path class="cls-46" d="M215.39,464.57a1,1,0,0,0,.23-1.07l-8.84-23a1,1,0,1,0-1.87.72l8.84,23a1,1,0,0,0,1.64.35Z"/><path class="cls-47" d="M219.28,464.92a1,1,0,0,0-.62-1.7l-3.85-.35-4.21-.7a1,1,0,1,0-.33,2l4.32.72,3.89.35a1,1,0,0,0,.8-.29"/><path class="cls-45" d="M182.86,482.6a.75.75,0,0,1-.71.2l-14.64-3.64a.75.75,0,0,1,.36-1.46l14.64,3.64a.75.75,0,0,1,.35,1.26Z"/><path class="cls-46" d="M167.66,480.12a.75.75,0,0,1-1.21-.85l4.24-7.78a.75.75,0,0,1,1.35.65l-4.24,7.78A.75.75,0,0,1,167.66,480.12Z"/><path class="cls-45" d="M185,486.81a.75.75,0,0,1-1.25-.73l2.78-9.86a.75.75,0,1,1,1.44.41l-2.78,9.86A.75.75,0,0,1,185,486.81Z"/><path class="cls-46" d="M190.82,489.14a1,1,0,0,1-1.07.23l-23-8.84a1,1,0,0,1,.72-1.87l23,8.84a1,1,0,0,1,.35,1.64Z"/><path class="cls-47" d="M191.17,493a1,1,0,0,1-1.7-.62l-.35-3.85-.7-4.21a1,1,0,1,1,2-.33l.72,4.32.35,3.89a1,1,0,0,1-.29.8"/><path class="cls-6" d="M183.24,438.08c-.78-.78-.51-1.41.59-1.4h.51a5.7,5.7,0,0,1,3.43,1.42l4.46,4.38a5.35,5.35,0,0,1,1.39,3.4v.52c0,1.1-.67,1.36-1.45.59Z"/><path class="cls-31" d="M183.24,438.08c-.78-.78-.51-1.41.59-1.4h.51a5.7,5.7,0,0,1,3.43,1.42l4.46,4.38a5.35,5.35,0,0,1,1.39,3.4v.52c0,1.1-.67,1.36-1.45.59Z"/><path class="cls-6" d="M161.9,454.18a1.8,1.8,0,0,0-2.49-.31,4.06,4.06,0,0,0-.75,3.07l0,.17a7.21,7.21,0,0,0,1.72,3.39l5.66,5.66a11,11,0,0,0,2.92,2,3.94,3.94,0,0,0,2.61.14,8.45,8.45,0,0,0,1.92-1.21c.44-.4.16-1.36-.62-2.13Z"/><path class="cls-31" d="M161.9,454.18a1.8,1.8,0,0,0-2.49-.31,4.06,4.06,0,0,0-.75,3.07l0,.17a7.21,7.21,0,0,0,1.72,3.39l5.66,5.66a11,11,0,0,0,2.92,2,3.94,3.94,0,0,0,2.61.14,8.45,8.45,0,0,0,1.92-1.21c.44-.4.16-1.36-.62-2.13Z"/><line class="cls-32" x1="158.59" y1="454.67" x2="172.24" y2="468.32"/><rect class="cls-33" x="162.54" y="435.12" width="26.5" height="28.5" rx="7" ry="7" transform="translate(-266.26 255.92) rotate(-45)"/><polygon class="cls-11" points="184.99 457.5 159.18 451.49 175.09 467.4 184.99 457.5"/><circle class="cls-34" cx="175.79" cy="449.37" r="11.5" transform="translate(-266.26 255.92) rotate(-45)"/><polygon class="cls-2" points="177.56 445.66 171.79 451.37 173.72 453.82 179.99 447.55 177.56 445.66"/><rect class="cls-48" x="170.61" y="455.79" width="39" height="16.5" rx="3" ry="3" transform="translate(-272.44 270.34) rotate(-45)"/><rect class="cls-49" x="183.54" y="455.61" width="13.5" height="16.5" transform="translate(-272.27 270.42) rotate(-45)"/><polygon class="cls-12" points="168.78 460.98 175.14 467.34 179.15 463.33 168.78 460.98"/><polygon class="cls-7" points="177.56 445.66 171.79 451.37 167.84 446.36 172.49 441.71 177.56 445.66"/><polygon class="cls-6" points="178.93 460.43 171.79 451.37 168.83 451.24 178.93 460.43"/><polygon class="cls-11" points="175.79 476.94 193.82 471.64 182.16 483.31 175.79 476.94"/><polygon class="cls-12" points="177.56 478.71 182.16 483.31 186.69 478.77 177.56 478.71"/><polygon class="cls-18" points="188.87 487.9 167.66 480.83 189.23 488.96 188.87 487.9"/><polygon class="cls-18" points="213.62 458.2 212.21 457.5 208.67 451.13 213.27 462.8 215.39 462.8 213.62 458.2"/><path class="cls-35" d="M193.82,448.66,177.56,432.4a3.51,3.51,0,0,0-4.95,0l-13.79,13.79a3.51,3.51,0,0,0,0,4.95l16.26,16.26"/><rect class="cls-35" x="170.61" y="455.79" width="39" height="16.5" rx="3" ry="3" transform="translate(-272.44 270.34) rotate(-45)"/><line class="cls-23" x1="189.23" y1="453.25" x2="200.54" y2="464.57"/><line class="cls-23" x1="179.68" y1="462.8" x2="191" y2="474.11"/><path class="cls-45" d="M198.95,472.88a.75.75,0,0,0,.12-.16L203,466a.75.75,0,1,0-1.3-.75L197.77,472a.75.75,0,0,0,1.18.91Z"/><path class="cls-45" d="M199,472.88a.75.75,0,0,0-.91-1.18l-6.72,3.89a.75.75,0,0,0,.75,1.3L198.8,473A.75.75,0,0,0,199,472.88Z"/><path class="cls-46" d="M202.84,466.16a.75.75,0,0,0-.25-1.23l-15.2-6a.75.75,0,1,0-.55,1.39l15.2,6A.75.75,0,0,0,202.84,466.16Z"/><path class="cls-46" d="M192.23,476.77a.75.75,0,0,0,.17-.81l-6-15.2a.75.75,0,1,0-1.39.55l6,15.2a.75.75,0,0,0,1.23.26Z"/><ellipse class="cls-50" cx="201.78" cy="475.71" rx="4.5" ry="3.5" transform="translate(-277.28 282.01) rotate(-45)"/><path class="cls-45" d="M187.11,461a1,1,0,0,0,0-1.41l-1.77-1.77a1,1,0,1,0-1.41,1.41l1.77,1.77A1,1,0,0,0,187.11,461Z"/><path class="cls-46" d="M202.66,476.59a1,1,0,0,0,0-1.41l-15.56-15.56a1,1,0,1,0-1.41,1.41l15.56,15.56A1,1,0,0,0,202.66,476.59Z"/><circle class="cls-4" cx="175.79" cy="449.37" r="11.5" transform="translate(-266.26 255.92) rotate(-45)"/><line class="cls-36" x1="169.76" y1="439.58" x2="186.76" y2="452.82"/><line class="cls-36" x1="165.77" y1="443.73" x2="178.93" y2="460.43"/><polygon class="cls-37" points="177.56 445.66 177.93 438.06 172.49 441.71 177.56 445.66"/><polygon class="cls-37" points="167.84 446.36 164.46 451.29 171.66 451.21 167.84 446.36"/><path class="cls-6" d="M177.21,455.38a3,3,0,1,0,0-4.24h0A3,3,0,0,0,177.21,455.38Z"/><path class="cls-31" d="M177.21,455.38a3,3,0,1,0,0-4.24h0A3,3,0,0,0,177.21,455.38Z"/><line class="cls-38" x1="179.99" y1="447.55" x2="173.72" y2="453.82"/><line class="cls-32" x1="177.52" y1="445.63" x2="171.79" y2="451.37"/><line class="cls-39" x1="172.63" y1="441.62" x2="167.86" y2="446.39"/><rect class="cls-40" x="184.3" y="437.16" width="3.5" height="2.5" transform="translate(627.6 616.85) rotate(135)"/><polygon class="cls-41" points="184.28 434.87 183.22 435.93 184.28 436.99 185.33 437.35 185.63 437.06 185.34 435.93 184.28 434.87"/><polygon class="cls-41" points="189.58 440.17 188.52 441.23 187.46 440.17 187.1 439.12 187.39 438.82 188.52 439.11 189.58 440.17"/><polygon class="cls-41" points="189.58 435.93 188.52 434.87 187.46 435.93 187.1 436.98 187.39 437.28 188.52 436.99 189.58 435.93"/><rect class="cls-40" x="163.08" y="458.37" width="3.5" height="2.5" transform="translate(-276.72 251.17) rotate(-45)"/><polygon class="cls-41" points="161.3 457.85 162.36 456.79 163.42 457.85 163.78 458.9 163.48 459.2 162.36 458.91 161.3 457.85"/><polygon class="cls-41" points="166.6 463.15 167.66 462.09 166.6 461.03 165.55 460.67 165.25 460.97 165.54 462.09 166.6 463.15"/><polygon class="cls-41" points="162.36 463.15 161.3 462.09 162.36 461.03 163.41 460.67 163.71 460.97 163.42 462.09 162.36 463.15"/><path class="cls-42" d="M178.62,433.46a.5.5,0,0,0,.15-.35v-3.18a.5.5,0,0,0-1,0v3.18a.5.5,0,0,0,.85.35Z"/><path class="cls-42" d="M182,428.68a.75.75,0,0,0,0-1.06l-2.12-2.12a.75.75,0,1,0-1.06,1.06l2.12,2.12A.75.75,0,0,0,182,428.68Z"/><path class="cls-39" d="M178.62,430.27l1.06-1.06a.5.5,0,0,0,.15-.35V426a.5.5,0,1,0-1,0v2.62l-.91.91a.5.5,0,0,0,.71.71Z"/><path class="cls-43" d="M184.28,427.09,180.39,431a3.45,3.45,0,0,1,3.89-3.89Z"/><line class="cls-43" x1="182.33" y1="429.04" x2="183.04" y2="429.74"/><path class="cls-35" d="M103.5,425.5c1.31,0,2.64,0,4,0"/><path class="cls-51" d="M114.9,425.84c14.75.83,30.65,3.2,40,6.85"/><path class="cls-35" d="M158.24,434.21a13.87,13.87,0,0,1,3.26,2.29"/><rect class="cls-7" x="41.69" y="404.12" width="35" height="42.5" transform="translate(484.56 366.19) rotate(90)"/><rect class="cls-8" x="33.94" y="415.37" width="25.5" height="14" transform="translate(469.06 375.69) rotate(90)"/><rect class="cls-8" x="73.69" y="412.12" width="6.5" height="6.5" transform="translate(492.31 338.44) rotate(90)"/><rect class="cls-8" x="73.69" y="425.62" width="6.5" height="6.5" transform="translate(505.81 351.94) rotate(90)"/><rect class="cls-8" x="73.69" y="434.12" width="6.5" height="6.5" transform="translate(514.31 360.44) rotate(90)"/><path class="cls-7" d="M82.13,408.94c-.93-.59-1.69-.17-1.69.93v31c0,1.1.74,1.49,1.65.87L97.79,431a4.26,4.26,0,0,0,1.65-3.13v-6a4.05,4.05,0,0,0-1.69-3.07Z"/><line class="cls-52" x1="51.19" y1="411.62" x2="51.19" y2="433.12"/><line class="cls-53" x1="78.19" y1="413.12" x2="78.19" y2="417.62"/><line class="cls-53" x1="76.69" y1="413.12" x2="76.69" y2="417.62"/><line class="cls-53" x1="75.19" y1="413.12" x2="75.19" y2="417.62"/><line class="cls-53" x1="78.19" y1="426.62" x2="78.19" y2="431.12"/><line class="cls-53" x1="76.69" y1="426.62" x2="76.69" y2="431.12"/><line class="cls-53" x1="75.19" y1="426.62" x2="75.19" y2="431.12"/><line class="cls-53" x1="78.19" y1="435.12" x2="78.19" y2="439.62"/><line class="cls-53" x1="76.69" y1="435.12" x2="76.69" y2="439.62"/><line class="cls-53" x1="75.19" y1="435.12" x2="75.19" y2="439.62"/><line class="cls-52" x1="48.19" y1="411.62" x2="48.19" y2="433.12"/><line class="cls-52" x1="45.19" y1="411.62" x2="45.19" y2="433.12"/><line class="cls-52" x1="42.19" y1="411.62" x2="42.19" y2="433.12"/><rect class="cls-11" x="52.69" y="415.12" width="13" height="42.5" transform="translate(495.56 377.19) rotate(90)"/><rect class="cls-12" x="57.31" y="419.75" width="3.75" height="42.5" transform="translate(500.19 381.81) rotate(90)"/><polygon class="cls-11" points="99.44 425.94 99.44 429.88 80.44 442.88 80.44 429.63 99.44 425.94"/><polygon class="cls-12" points="99.44 428.94 99.44 429.88 80.44 442.88 80.44 439.13 99.44 428.94"/><polygon class="cls-13" points="99.44 420.88 99.44 422.69 80.44 416.88 80.44 410.13 99.44 420.88"/><polygon class="cls-14" points="99.44 421.38 99.44 421.69 80.44 414.38 80.44 411.63 99.44 421.38"/><polygon class="cls-21" points="99.44 421.38 99.44 421.69 80.44 412.88 80.44 412.13 99.44 421.38"/><rect class="cls-13" x="55.44" y="392.37" width="7" height="42.5" transform="translate(472.56 354.69) rotate(90)"/><rect class="cls-14" x="57.44" y="391.87" width="3" height="42.5" transform="translate(472.06 354.19) rotate(90)"/><rect class="cls-35" x="37.94" y="407.87" width="42.5" height="35" rx="1" ry="1"/><path class="cls-35" d="M82.13,408.94c-.93-.59-1.69-.17-1.69.93v31c0,1.1.74,1.49,1.65.87L97.79,431a4.26,4.26,0,0,0,1.65-3.13v-6a4.05,4.05,0,0,0-1.69-3.07Z"/><line class="cls-31" x1="73.69" y1="437.12" x2="39.69" y2="437.12"/><line class="cls-31" x1="73.44" y1="407.87" x2="73.44" y2="442.87"/><polygon class="cls-39" points="66.94 425.38 69.94 426.38 70.44 426.38 70.44 424.38 69.94 424.38 66.94 425.38"/><polygon class="cls-39" points="66.94 406.88 69.94 407.88 70.44 407.88 70.44 405.88 69.94 405.88 66.94 406.88"/><polygon class="cls-39" points="64.94 406.88 61.94 407.88 61.44 407.88 61.44 405.88 61.94 405.88 64.94 406.88"/><polygon class="cls-39" points="65.44 425.38 62.44 426.38 61.94 426.38 61.94 424.38 62.44 424.38 65.44 425.38"/><polygon class="cls-39" points="66.19 425.63 67.19 428.63 67.19 429.13 65.19 429.13 65.19 428.63 66.19 425.63"/><polygon class="cls-39" points="66.19 425.13 67.19 422.13 67.19 421.63 65.19 421.63 65.19 422.13 66.19 425.13"/><rect class="cls-41" x="64.94" y="423.37" width="2.5" height="4" transform="translate(491.56 359.19) rotate(90)"/><polygon class="cls-41" points="63.69 407.63 64.19 406.13 67.69 406.13 68.19 407.63 63.69 407.63"/><circle class="cls-42" cx="65.94" cy="406.87" r="1"/><polygon class="cls-39" points="66.94 443.88 69.94 442.88 70.44 442.88 70.44 444.88 69.94 444.88 66.94 443.88"/><polygon class="cls-39" points="64.94 443.88 61.94 442.88 61.44 442.88 61.44 444.88 61.94 444.88 64.94 443.88"/><polygon class="cls-41" points="63.69 443.13 64.19 444.63 67.69 444.63 68.19 443.13 63.69 443.13"/><circle class="cls-42" cx="65.94" cy="443.87" r="1"/><path class="cls-22" d="M95.42,417a30.21,30.21,0,0,1,1,8.05,29.89,29.89,0,0,1-1,8.05"/><path class="cls-22" d="M91,428.16a1.69,1.69,0,0,1,2,1.72v1a3.82,3.82,0,0,1-1.74,3l-3.53,2c-1,.55-1.74.09-1.74-1v-4a2.38,2.38,0,0,1,2-2.28Z"/><path class="cls-24" d="M91,429.57a.79.79,0,0,1,1,.8v1a1.6,1.6,0,0,1-.93,1.37l-.64.26a.63.63,0,0,1-.93-.63v-1.5a1.27,1.27,0,0,1,1-1.2Z"/><path class="cls-22" d="M91,429.57a.79.79,0,0,1,1,.8v1a1.6,1.6,0,0,1-.93,1.37l-.64.26a.63.63,0,0,1-.93-.63v-1.5a1.27,1.27,0,0,1,1-1.2Z"/><path class="cls-24" d="M93,423.21a1.23,1.23,0,0,1,1,1.16v1a1,1,0,0,1-1,1h-2.5a.61.61,0,0,1-.61-.92l.71-1.66a1.34,1.34,0,0,1,1.38-.75Z"/><path class="cls-22" d="M93,423.21a1.23,1.23,0,0,1,1,1.16v1a1,1,0,0,1-1,1h-2.5a.61.61,0,0,1-.61-.92l.71-1.66a1.34,1.34,0,0,1,1.38-.75Z"/><path class="cls-54" d="M82,434.43a.48.48,0,0,1-.53-.5.55.55,0,0,1,.53-.56.48.48,0,0,1,.47.5A.56.56,0,0,1,82,434.43Z"/><path class="cls-54" d="M82,436a.39.39,0,0,1-.53-.4A.7.7,0,0,1,82,435a.39.39,0,0,1,.47.41A.71.71,0,0,1,82,436Z"/><g class="cls-26"><path class="cls-22" d="M80.44,433.88a1.27,1.27,0,0,1,1-1.2l.54-.11a.79.79,0,0,1,1,.8v2a1.6,1.6,0,0,1-.93,1.37l-.64.26a.63.63,0,0,1-.93-.63Z"/></g><path class="cls-24" d="M89,416.43a1.78,1.78,0,0,1,.89,1.45v.5a.68.68,0,0,1-.95.68l-1.1-.37a1.48,1.48,0,0,1-.95-1.32v-1a.57.57,0,0,1,.89-.55Z"/><path class="cls-22" d="M89,416.43a1.78,1.78,0,0,1,.89,1.45v.5a.68.68,0,0,1-.95.68l-1.1-.37a1.48,1.48,0,0,1-.95-1.32v-1a.57.57,0,0,1,.89-.55Z"/><path class="cls-54" d="M83.46,419.47a.84.84,0,0,1-.52-.85c0-.41.24-.67.52-.58a.88.88,0,0,1,.48.83C83.94,419.25,83.73,419.52,83.46,419.47Z"/><path class="cls-54" d="M83.46,421.38c-.28,0-.52-.34-.52-.75s.24-.72.52-.68.48.37.48.75S83.73,421.38,83.46,421.38Z"/><polyline class="cls-27" points="85.94 411.38 85.94 417.88 82.44 416.88 82.44 422.38 80.44 422.38"/><polygon class="cls-18" points="64.19 425.13 68.19 426.13 68.19 426.63 64.19 426.63 64.19 425.13"/><g class="cls-28"><path d="M89.58,418.29a2.58,2.58,0,0,0,.23,1c.07,0,.13-.41.13-1v-.5a1.78,1.78,0,0,0-.89-1.45l-1.21-.61c-.49-.25-.51-.22,0,.07l.79.47a2.25,2.25,0,0,1,1,1.51Z"/></g><g class="cls-28"><path d="M93.46,425.39c.08.54.23,1,.32,1s.16-.45.16-1v-1a1.23,1.23,0,0,0-1-1.16l-1-.17c-.54-.09-.56,0,0,.15l.35.12a1.8,1.8,0,0,1,1.1,1.3Z"/></g><g class="cls-28"><path d="M90.37,430a1.48,1.48,0,0,1,1,1.11l.09.39c.12.54.27,1,.33.93a2.69,2.69,0,0,0,.11-1v-1a.79.79,0,0,0-1-.8l-.43.09C90,429.76,89.92,429.91,90.37,430Z"/></g><path class="cls-2" d="M11.85,414.38v23.75c11,0,24.63-8.5,24.63-8.5v-6.48S21.1,414.38,11.85,414.38Z"/><path class="cls-3" d="M25.13,417.71c-4.45-1.79-9.4-3.33-13.28-3.33v23.75a38.59,38.59,0,0,0,13.28-2.94Z"/><line class="cls-31" x1="25.13" y1="417.71" x2="25.13" y2="435.25"/><path class="cls-35" d="M11.85,414.38v23.75c11,0,24.63-8.5,24.63-8.5v-6.48S21.1,414.38,11.85,414.38Z"/><path class="cls-6" d="M38.31,412.69A2.86,2.86,0,0,0,36,415.81v21.25a2,2,0,0,0,2.27,2.25Z"/><path class="cls-11" d="M38.31,439.31V425.88H36v11.19A2,2,0,0,0,38.31,439.31Z"/><path class="cls-12" d="M38.31,439.31v-5.94H36v3.69A2,2,0,0,0,38.31,439.31Z"/><path class="cls-11" d="M36,426A57.4,57.4,0,0,1,12,431.88v6c11,.5,24.06-8,24.06-8Z"/><path class="cls-12" d="M36,429A57.4,57.4,0,0,1,12,434.88v3c11,.5,24.06-8,24.06-8Z"/><path class="cls-4" d="M38,412.38a3.47,3.47,0,0,0-2,3.5v21c0,2.56,2,2.5,2,2.5Z"/><rect class="cls-7" x="41.69" y="496.12" width="35" height="42.5" transform="translate(576.56 458.19) rotate(90)"/><rect class="cls-8" x="33.94" y="507.37" width="25.5" height="14" transform="translate(561.06 467.69) rotate(90)"/><rect class="cls-8" x="73.69" y="504.12" width="6.5" height="6.5" transform="translate(584.31 430.44) rotate(90)"/><rect class="cls-8" x="73.69" y="517.62" width="6.5" height="6.5" transform="translate(597.81 443.94) rotate(90)"/><rect class="cls-8" x="73.69" y="526.12" width="6.5" height="6.5" transform="translate(606.31 452.44) rotate(90)"/><path class="cls-7" d="M82.13,500.94c-.93-.59-1.69-.17-1.69.93v31c0,1.1.74,1.49,1.65.87L97.79,523a4.26,4.26,0,0,0,1.65-3.13v-6a4.05,4.05,0,0,0-1.69-3.07Z"/><line class="cls-52" x1="51.19" y1="503.62" x2="51.19" y2="525.12"/><line class="cls-53" x1="78.19" y1="505.12" x2="78.19" y2="509.62"/><line class="cls-53" x1="76.69" y1="505.12" x2="76.69" y2="509.62"/><line class="cls-53" x1="75.19" y1="505.12" x2="75.19" y2="509.62"/><line class="cls-53" x1="78.19" y1="518.62" x2="78.19" y2="523.12"/><line class="cls-53" x1="76.69" y1="518.62" x2="76.69" y2="523.12"/><line class="cls-53" x1="75.19" y1="518.62" x2="75.19" y2="523.12"/><line class="cls-53" x1="78.19" y1="527.12" x2="78.19" y2="531.62"/><line class="cls-53" x1="76.69" y1="527.12" x2="76.69" y2="531.62"/><line class="cls-53" x1="75.19" y1="527.12" x2="75.19" y2="531.62"/><line class="cls-52" x1="48.19" y1="503.62" x2="48.19" y2="525.12"/><line class="cls-52" x1="45.19" y1="503.62" x2="45.19" y2="525.12"/><line class="cls-52" x1="42.19" y1="503.62" x2="42.19" y2="525.12"/><rect class="cls-11" x="52.69" y="507.12" width="13" height="42.5" transform="translate(587.56 469.19) rotate(90)"/><rect class="cls-12" x="57.31" y="511.75" width="3.75" height="42.5" transform="translate(592.19 473.81) rotate(90)"/><polygon class="cls-11" points="99.44 517.94 99.44 521.88 80.44 534.88 80.44 521.63 99.44 517.94"/><polygon class="cls-12" points="99.44 520.94 99.44 521.88 80.44 534.88 80.44 531.13 99.44 520.94"/><polygon class="cls-13" points="99.44 512.88 99.44 514.69 80.44 508.88 80.44 502.13 99.44 512.88"/><polygon class="cls-14" points="99.44 513.38 99.44 513.69 80.44 506.38 80.44 503.63 99.44 513.38"/><polygon class="cls-21" points="99.44 513.38 99.44 513.69 80.44 504.88 80.44 504.13 99.44 513.38"/><rect class="cls-13" x="55.44" y="484.37" width="7" height="42.5" transform="translate(564.56 446.69) rotate(90)"/><rect class="cls-14" x="57.44" y="483.87" width="3" height="42.5" transform="translate(564.06 446.19) rotate(90)"/><rect class="cls-35" x="37.94" y="499.87" width="42.5" height="35" rx="1" ry="1"/><path class="cls-35" d="M82.13,500.94c-.93-.59-1.69-.17-1.69.93v31c0,1.1.74,1.49,1.65.87L97.79,523a4.26,4.26,0,0,0,1.65-3.13v-6a4.05,4.05,0,0,0-1.69-3.07Z"/><line class="cls-31" x1="73.69" y1="529.12" x2="39.69" y2="529.12"/><line class="cls-31" x1="73.44" y1="499.87" x2="73.44" y2="534.87"/><polygon class="cls-39" points="66.94 517.38 69.94 518.38 70.44 518.38 70.44 516.38 69.94 516.38 66.94 517.38"/><polygon class="cls-39" points="66.94 498.88 69.94 499.88 70.44 499.88 70.44 497.88 69.94 497.88 66.94 498.88"/><polygon class="cls-39" points="64.94 498.88 61.94 499.88 61.44 499.88 61.44 497.88 61.94 497.88 64.94 498.88"/><polygon class="cls-39" points="65.44 517.38 62.44 518.38 61.94 518.38 61.94 516.38 62.44 516.38 65.44 517.38"/><polygon class="cls-39" points="66.19 517.63 67.19 520.63 67.19 521.13 65.19 521.13 65.19 520.63 66.19 517.63"/><polygon class="cls-39" points="66.19 517.13 67.19 514.13 67.19 513.63 65.19 513.63 65.19 514.13 66.19 517.13"/><rect class="cls-41" x="64.94" y="515.37" width="2.5" height="4" transform="translate(583.56 451.19) rotate(90)"/><polygon class="cls-41" points="63.69 499.63 64.19 498.13 67.69 498.13 68.19 499.63 63.69 499.63"/><circle class="cls-42" cx="65.94" cy="498.87" r="1"/><polygon class="cls-39" points="66.94 535.88 69.94 534.88 70.44 534.88 70.44 536.88 69.94 536.88 66.94 535.88"/><polygon class="cls-39" points="64.94 535.88 61.94 534.88 61.44 534.88 61.44 536.88 61.94 536.88 64.94 535.88"/><polygon class="cls-41" points="63.69 535.13 64.19 536.63 67.69 536.63 68.19 535.13 63.69 535.13"/><circle class="cls-42" cx="65.94" cy="535.87" r="1"/><path class="cls-22" d="M95.42,509a30.21,30.21,0,0,1,1,8.05,29.89,29.89,0,0,1-1,8.05"/><path class="cls-22" d="M91,520.16a1.69,1.69,0,0,1,2,1.72v1a3.82,3.82,0,0,1-1.74,3l-3.53,2c-1,.55-1.74.09-1.74-1v-4a2.38,2.38,0,0,1,2-2.28Z"/><path class="cls-24" d="M91,521.57a.79.79,0,0,1,1,.8v1a1.6,1.6,0,0,1-.93,1.37l-.64.26a.63.63,0,0,1-.93-.63v-1.5a1.27,1.27,0,0,1,1-1.2Z"/><path class="cls-22" d="M91,521.57a.79.79,0,0,1,1,.8v1a1.6,1.6,0,0,1-.93,1.37l-.64.26a.63.63,0,0,1-.93-.63v-1.5a1.27,1.27,0,0,1,1-1.2Z"/><path class="cls-24" d="M93,515.21a1.23,1.23,0,0,1,1,1.16v1a1,1,0,0,1-1,1h-2.5a.61.61,0,0,1-.61-.92l.71-1.66a1.34,1.34,0,0,1,1.38-.75Z"/><path class="cls-22" d="M93,515.21a1.23,1.23,0,0,1,1,1.16v1a1,1,0,0,1-1,1h-2.5a.61.61,0,0,1-.61-.92l.71-1.66a1.34,1.34,0,0,1,1.38-.75Z"/><path class="cls-54" d="M82,526.43a.48.48,0,0,1-.53-.5.55.55,0,0,1,.53-.56.48.48,0,0,1,.47.5A.56.56,0,0,1,82,526.43Z"/><path class="cls-54" d="M82,528a.39.39,0,0,1-.53-.4A.7.7,0,0,1,82,527a.39.39,0,0,1,.47.41A.71.71,0,0,1,82,528Z"/><g class="cls-26"><path class="cls-22" d="M80.44,525.88a1.27,1.27,0,0,1,1-1.2l.54-.11a.79.79,0,0,1,1,.8v2a1.6,1.6,0,0,1-.93,1.37l-.64.26a.63.63,0,0,1-.93-.63Z"/></g><path class="cls-24" d="M89,508.43a1.78,1.78,0,0,1,.89,1.45v.5a.68.68,0,0,1-.95.68l-1.1-.37a1.48,1.48,0,0,1-.95-1.32v-1a.57.57,0,0,1,.89-.55Z"/><path class="cls-22" d="M89,508.43a1.78,1.78,0,0,1,.89,1.45v.5a.68.68,0,0,1-.95.68l-1.1-.37a1.48,1.48,0,0,1-.95-1.32v-1a.57.57,0,0,1,.89-.55Z"/><path class="cls-54" d="M83.46,511.47a.84.84,0,0,1-.52-.85c0-.41.24-.67.52-.58a.88.88,0,0,1,.48.83C83.94,511.25,83.73,511.52,83.46,511.47Z"/><path class="cls-54" d="M83.46,513.38c-.28,0-.52-.34-.52-.75s.24-.72.52-.68.48.37.48.75S83.73,513.38,83.46,513.38Z"/><polyline class="cls-27" points="85.94 503.38 85.94 509.88 82.44 508.88 82.44 514.38 80.44 514.38"/><polygon class="cls-18" points="64.19 517.13 68.19 518.13 68.19 518.63 64.19 518.63 64.19 517.13"/><g class="cls-28"><path d="M89.58,510.29a2.58,2.58,0,0,0,.23,1c.07,0,.13-.41.13-1v-.5a1.78,1.78,0,0,0-.89-1.45l-1.21-.61c-.49-.25-.51-.22,0,.07l.79.47a2.25,2.25,0,0,1,1,1.51Z"/></g><g class="cls-28"><path d="M93.46,517.39c.08.54.23,1,.32,1s.16-.45.16-1v-1a1.23,1.23,0,0,0-1-1.16l-1-.17c-.54-.09-.56,0,0,.15l.35.12a1.8,1.8,0,0,1,1.1,1.3Z"/></g><g class="cls-28"><path d="M90.37,522a1.48,1.48,0,0,1,1,1.11l.09.39c.12.54.27,1,.33.93a2.69,2.69,0,0,0,.11-1v-1a.79.79,0,0,0-1-.8l-.43.09C90,521.76,89.92,521.91,90.37,522Z"/></g><path class="cls-2" d="M11.85,506.38v23.75c11,0,24.63-8.5,24.63-8.5v-6.48S21.1,506.38,11.85,506.38Z"/><path class="cls-3" d="M25.13,509.71c-4.45-1.79-9.4-3.33-13.28-3.33v23.75a38.59,38.59,0,0,0,13.28-2.94Z"/><line class="cls-31" x1="25.13" y1="509.71" x2="25.13" y2="527.25"/><path class="cls-35" d="M11.85,506.38v23.75c11,0,24.63-8.5,24.63-8.5v-6.48S21.1,506.38,11.85,506.38Z"/><path class="cls-6" d="M38.31,504.69A2.86,2.86,0,0,0,36,507.81v21.25a2,2,0,0,0,2.27,2.25Z"/><path class="cls-11" d="M38.31,531.31V517.88H36v11.19A2,2,0,0,0,38.31,531.31Z"/><path class="cls-12" d="M38.31,531.31v-5.94H36v3.69A2,2,0,0,0,38.31,531.31Z"/><path class="cls-11" d="M36,518A57.4,57.4,0,0,1,12,523.88v6c11,.5,24.06-8,24.06-8Z"/><path class="cls-12" d="M36,521A57.4,57.4,0,0,1,12,526.88v3c11,.5,24.06-8,24.06-8Z"/><path class="cls-4" d="M38,504.38a3.47,3.47,0,0,0-2,3.5v21c0,2.56,2,2.5,2,2.5Z"/><circle class="cls-7" cx="253.25" cy="475.25" r="23.75"/><path class="cls-55" d="M242.7,481.85,240,480.52c1.73-3.46,3.07-8,2.24-9.39-.06-.1-.21-.34-.91-.34l-1-2.53c.05-.06,5.5-5.58,5.5-10.83h3c0,.42.17,10.39,10.39,10.39v3a4.23,4.23,0,0,0-4.45,4.45l-2.53,1a3.31,3.31,0,0,0-2.9-1.19c-2.86.46-5.72,5-6.59,6.73ZM244,468.63a3.6,3.6,0,0,1,.85,1,6.55,6.55,0,0,1,.59,4.17,7.88,7.88,0,0,1,3.42-1.57,5.69,5.69,0,0,1,3.33.47,6.41,6.41,0,0,1,1.7-2.76,11.89,11.89,0,0,1-6.63-6.31A26.61,26.61,0,0,1,244,468.63Z"/><path class="cls-34" d="M247.24,466.61a12.86,12.86,0,0,0,4.27,3.86l-.19.33a7,7,0,0,0-1.59-.18,7.64,7.64,0,0,0-2.85.56,6.07,6.07,0,0,0-.81-2.39l-.16-.25c.43-.58.88-1.23,1.33-1.93m.07-9.18c0,5.94-5.94,11.88-5.94,11.88,5.93,0,0,11.84,0,11.87s3.81-7.6,8.36-7.6a4.93,4.93,0,0,1,3.52,1.66c0-5.94,5.94-5.94,5.94-5.94-11.87,0-11.87-11.87-11.87-11.87Zm-5.94,23.75h0Zm0,0h0Zm0,0h0Z"/><path class="cls-34" d="M259.73,485.82a4.93,4.93,0,0,1-3.52-1.66c0,4.68,0,9.36-8.77,14a23.64,23.64,0,0,0,4.59.68c4.55-3.17,6.28-6.51,6.86-10.14a6.84,6.84,0,0,0,.84.05,9.18,9.18,0,0,0,5.9-2.47,28.28,28.28,0,0,0,2,7.7,23.88,23.88,0,0,0,2.41-2c-2-5.25-2-13.79-2-13.79S264.29,485.82,259.73,485.82Z"/><path class="cls-33" d="M247.45,498.2c8.73-4.68,8.77-9.36,8.77-14a4.93,4.93,0,0,0,3.52,1.66c4.56,0,8.36-7.6,8.36-7.6s0,8.54,2,13.79a23.93,23.93,0,0,0,2.26-2.74,47.25,47.25,0,0,1-1.27-11.06l-5.62-1.33c-1.23,2.44-4,6-5.71,6a2.19,2.19,0,0,1-1.42-.79l-5.07,2.1c0,4.45,0,8.38-9.77,12.69A23.53,23.53,0,0,0,247.45,498.2Z"/><circle class="cls-35" cx="253.25" cy="475.25" r="23.75"/><path class="cls-56" d="M273.13,462.32a35.62,35.62,0,0,1-34.73,27.77,36.05,36.05,0,0,1-3.72-.2,23.68,23.68,0,0,0,38.45-27.58Z"/><path class="cls-57" d="M207,481c24,28,66,32,63.33,10.28"/><path class="cls-57" d="M270.07,492C291.5,486.5,280,436,240,449c-21.73,7.06-32.25,69.07-102.12,69.07"/></g><g id="stack_2" data-name="stack 2"><path class="cls-2" d="M6.63,281.88v47.5c22,0,49.25-17,49.25-17v-13S25.13,281.88,6.63,281.88Z"/><path class="cls-3" d="M33.19,288.54c-8.9-3.58-18.8-6.66-26.56-6.66v47.5c8.7,0,18.23-2.66,26.56-5.88Z"/><line class="cls-4" x1="33.19" y1="288.54" x2="33.19" y2="323.63"/><path class="cls-5" d="M6.63,281.88v47.5c22,0,49.25-17,49.25-17v-13S25.13,281.88,6.63,281.88Z"/><path class="cls-6" d="M59.54,278.5s-4.54.63-4.54,6.25v42.5c0,5.13,4.54,4.5,4.54,4.5Z"/><rect class="cls-7" x="66.88" y="262.87" width="70" height="85" transform="translate(407.25 203.5) rotate(90)"/><rect class="cls-8" x="51.38" y="285.37" width="51" height="28" transform="translate(376.25 222.5) rotate(90)"/><rect class="cls-8" x="130.88" y="278.87" width="13" height="13" transform="translate(422.75 148) rotate(90)"/><rect class="cls-8" x="130.88" y="305.87" width="13" height="13" transform="translate(449.75 175) rotate(90)"/><rect class="cls-8" x="130.88" y="322.87" width="13" height="13" transform="translate(466.75 192) rotate(90)"/><path class="cls-7" d="M146.07,271.44c-.93-.59-1.69-.17-1.69.93v66c0,1.1.74,1.49,1.65.87l34.7-23.74a4.26,4.26,0,0,0,1.65-3.13v-16a4.05,4.05,0,0,0-1.69-3.07Z"/><line class="cls-9" x1="85.88" y1="277.87" x2="85.88" y2="320.87"/><line class="cls-10" x1="139.88" y1="280.87" x2="139.88" y2="289.87"/><line class="cls-10" x1="136.88" y1="280.87" x2="136.88" y2="289.87"/><line class="cls-10" x1="133.88" y1="280.87" x2="133.88" y2="289.87"/><line class="cls-10" x1="139.88" y1="307.87" x2="139.88" y2="316.87"/><line class="cls-10" x1="136.88" y1="307.87" x2="136.88" y2="316.87"/><line class="cls-10" x1="133.88" y1="307.87" x2="133.88" y2="316.87"/><line class="cls-10" x1="139.88" y1="324.87" x2="139.88" y2="333.87"/><line class="cls-10" x1="136.88" y1="324.87" x2="136.88" y2="333.87"/><line class="cls-10" x1="133.88" y1="324.87" x2="133.88" y2="333.87"/><line class="cls-9" x1="79.88" y1="277.87" x2="79.88" y2="320.87"/><line class="cls-9" x1="73.88" y1="277.87" x2="73.88" y2="320.87"/><line class="cls-9" x1="67.88" y1="277.87" x2="67.88" y2="320.87"/><rect class="cls-11" x="88.88" y="284.87" width="26" height="85" transform="translate(429.25 225.5) rotate(90)"/><rect class="cls-12" x="98.13" y="294.12" width="7.5" height="85" transform="translate(438.5 234.75) rotate(90)"/><path class="cls-11" d="M59.54,331.75V304.88H55v22.38C55,332.38,59.54,331.75,59.54,331.75Z"/><path class="cls-12" d="M59.54,331.75V319.88H55v7.38C55,332.38,59.54,331.75,59.54,331.75Z"/><path class="cls-11" d="M55,305.13S32.88,316.88,6.88,316.88v12c22,1,48.13-16,48.13-16Z"/><path class="cls-12" d="M55,311.13S32.88,322.88,6.88,322.88v6c22,1,48.13-16,48.13-16Z"/><polygon class="cls-11" points="182.38 306.5 182.38 314.38 144.38 340.38 144.38 313.88 182.38 306.5"/><polygon class="cls-12" points="182.38 312.5 182.38 314.38 144.38 340.38 144.38 332.88 182.38 312.5"/><polygon class="cls-13" points="182.38 296.38 182.38 300 144.38 288.38 144.38 274.88 182.38 296.38"/><polygon class="cls-14" points="182.38 297.38 182.38 298 144.38 283.38 144.38 277.88 182.38 297.38"/><polygon class="cls-21" points="182.38 297.38 182.38 298 144.38 280.38 144.38 278.88 182.38 297.38"/><rect class="cls-13" x="94.38" y="239.37" width="14" height="85" transform="translate(383.25 180.5) rotate(90)"/><rect class="cls-14" x="98.38" y="238.37" width="6" height="85" transform="translate(382.25 179.5) rotate(90)"/><rect class="cls-5" x="59.38" y="270.37" width="85" height="70" rx="1" ry="1"/><path class="cls-5" d="M58.88,277.88s-4,1.38-4,7v42c0,5.13,4,5,4,5Z"/><path class="cls-5" d="M146.07,271.44c-.93-.59-1.69-.17-1.69.93v66c0,1.1.74,1.49,1.65.87l34.7-23.74a4.26,4.26,0,0,0,1.65-3.13v-16a4.05,4.05,0,0,0-1.69-3.07Z"/><line class="cls-4" x1="130.88" y1="328.87" x2="62.88" y2="328.87"/><line class="cls-4" x1="130.38" y1="270.37" x2="130.38" y2="340.37"/><polygon class="cls-15" points="117.38 305.38 123.38 307.38 124.38 307.38 124.38 303.38 123.38 303.38 117.38 305.38"/><polygon class="cls-15" points="117.38 268.38 123.38 270.38 124.38 270.38 124.38 266.38 123.38 266.38 117.38 268.38"/><polygon class="cls-15" points="113.38 268.38 107.38 270.38 106.38 270.38 106.38 266.38 107.38 266.38 113.38 268.38"/><polygon class="cls-15" points="114.38 305.38 108.38 307.38 107.38 307.38 107.38 303.38 108.38 303.38 114.38 305.38"/><polygon class="cls-15" points="115.88 305.88 117.88 311.88 117.88 312.88 113.88 312.88 113.88 311.88 115.88 305.88"/><polygon class="cls-15" points="115.88 304.88 117.88 298.88 117.88 297.88 113.88 297.88 113.88 298.88 115.88 304.88"/><rect class="cls-16" x="113.38" y="301.37" width="5" height="8" transform="translate(421.25 189.5) rotate(90)"/><polygon class="cls-16" points="110.88 269.88 111.88 266.88 118.88 266.88 119.88 269.88 110.88 269.88"/><circle class="cls-17" cx="115.38" cy="268.37" r="2"/><polygon class="cls-15" points="117.38 342.38 123.38 340.38 124.38 340.38 124.38 344.38 123.38 344.38 117.38 342.38"/><polygon class="cls-15" points="113.38 342.38 107.38 340.38 106.38 340.38 106.38 344.38 107.38 344.38 113.38 342.38"/><polygon class="cls-16" points="110.88 340.88 111.88 343.88 118.88 343.88 119.88 340.88 110.88 340.88"/><circle class="cls-17" cx="115.38" cy="342.37" r="2"/><path class="cls-22" d="M174.35,288.67a60.41,60.41,0,0,1,2,16.1,59.77,59.77,0,0,1-2,16.1"/><path class="cls-23" d="M167.4,310.66a1.69,1.69,0,0,1,2,1.72v6a3.82,3.82,0,0,1-1.74,3l-10.53,6c-1,.55-1.74.09-1.74-1v-12a2.38,2.38,0,0,1,2-2.28Z"/><path class="cls-24" d="M166.39,313.57a.79.79,0,0,1,1,.8v4a1.6,1.6,0,0,1-.93,1.37L163.3,321a.63.63,0,0,1-.93-.63v-5a1.27,1.27,0,0,1,1-1.2Z"/><path class="cls-23" d="M166.39,313.57a.79.79,0,0,1,1,.8v4a1.6,1.6,0,0,1-.93,1.37L163.3,321a.63.63,0,0,1-.93-.63v-5a1.27,1.27,0,0,1,1-1.2Z"/><path class="cls-24" d="M170.39,301.21a1.23,1.23,0,0,1,1,1.16v4a1,1,0,0,1-1,1h-7a.61.61,0,0,1-.61-.92l2.21-5.16a1.34,1.34,0,0,1,1.38-.75Z"/><path class="cls-23" d="M170.39,301.21a1.23,1.23,0,0,1,1,1.16v4a1,1,0,0,1-1,1h-7a.61.61,0,0,1-.61-.92l2.21-5.16a1.34,1.34,0,0,1,1.38-.75Z"/><path class="cls-25" d="M147.43,323.49a1,1,0,0,1-1.06-1,1.1,1.1,0,0,1,1.06-1.13,1,1,0,0,1,.94,1A1.12,1.12,0,0,1,147.43,323.49Z"/><path class="cls-25" d="M147.43,326.67a.78.78,0,0,1-1.06-.79,1.4,1.4,0,0,1,1.06-1.33.78.78,0,0,1,.94.82A1.42,1.42,0,0,1,147.43,326.67Z"/><g class="cls-26"><path class="cls-22" d="M144.38,321.38a1.27,1.27,0,0,1,1-1.2l3-.61a.79.79,0,0,1,1,.8v6a1.6,1.6,0,0,1-.93,1.37L145.3,329a.63.63,0,0,1-.93-.63Z"/></g><path class="cls-24" d="M162.48,287.93a1.78,1.78,0,0,1,.89,1.45v3a.68.68,0,0,1-.95.68l-4.1-1.37a1.48,1.48,0,0,1-.95-1.32v-4a.57.57,0,0,1,.89-.55Z"/><path class="cls-23" d="M162.48,287.93a1.78,1.78,0,0,1,.89,1.45v3a.68.68,0,0,1-.95.68l-4.1-1.37a1.48,1.48,0,0,1-.95-1.32v-4a.57.57,0,0,1,.89-.55Z"/><path class="cls-25" d="M150.42,293.57a1.68,1.68,0,0,1-1-1.69c0-.83.48-1.34,1-1.16a1.76,1.76,0,0,1,1,1.67C151.38,293.13,151,293.67,150.42,293.57Z"/><path class="cls-25" d="M150.42,297.38c-.57,0-1-.67-1-1.5s.48-1.43,1-1.36,1,.74,1,1.49S151,297.38,150.42,297.38Z"/><polyline class="cls-27" points="155.38 277.38 155.38 290.38 148.38 288.38 148.38 299.38 144.38 299.38"/><polygon class="cls-18" points="111.88 304.88 119.88 306.88 119.88 307.88 111.88 307.88 111.88 304.88"/><g class="cls-28"><path d="M162.76,292.21c.05.55.22,1,.36,1.08s.26-.36.26-.91v-3a1.78,1.78,0,0,0-.89-1.45l-4.21-2.11c-.49-.25-.51-.22,0,.07l3.29,2a2.25,2.25,0,0,1,1,1.51Z"/></g><g class="cls-28"><path d="M170.57,306.39c.08.54.3,1,.48,1s.33-.45.33-1v-4a1.23,1.23,0,0,0-1-1.16l-4-.67c-.54-.09-.56,0,0,.15l2.6.87a1.8,1.8,0,0,1,1.1,1.3Z"/></g><g class="cls-28"><path d="M164.89,314.71a1.6,1.6,0,0,1,1.2,1.14l.61,2.73c.12.54.32.93.45.88s.23-.54.23-1.09v-4a.79.79,0,0,0-1-.8l-2.81.56c-.54.11-.54.27,0,.36Z"/></g><polygon class="cls-58" points="267.75 295.75 285.25 290.25 285.25 318.75 267.75 312.98 267.75 295.75"/><line class="cls-31" x1="277.75" y1="292.61" x2="277.75" y2="316.12"/><line class="cls-31" x1="279.5" y1="291.79" x2="279.5" y2="316.63"/><path class="cls-47" d="M268.25,267.25a1.5,1.5,0,0,0-.73-1.29l-25.86-15.56a1.5,1.5,0,0,0-1.55,2.57L266,268.54a1.5,1.5,0,0,0,2.27-1.28Z"/><path class="cls-59" d="M243.25,249.25a1.5,1.5,0,0,0-2.92-.5l-5,17a1.5,1.5,0,1,0,2.83,1l5-17A1.5,1.5,0,0,0,243.25,249.25Z"/><path class="cls-47" d="M277.27,264.37a1.5,1.5,0,0,0-2.81-.73l-10,17.88a1.5,1.5,0,0,0,2.62,1.47l10-17.88A1.5,1.5,0,0,0,277.27,264.37Z"/><path class="cls-59" d="M288.75,269.25a2,2,0,0,0-1.19-1.83l-45-20a2,2,0,1,0-1.62,3.66l45,20a2,2,0,0,0,2.81-1.83Z"/><path class="cls-47" d="M294.75,264.25a2,2,0,0,0-3.28-1.54l-5.94,5-6.94,5a2,2,0,1,0,2.33,3.25l7.12-5.09,6-5a2,2,0,0,0,.72-1.54"/><path class="cls-47" d="M268.25,340.75a1.5,1.5,0,0,1-.73,1.29l-25.86,15.56a1.5,1.5,0,0,1-1.55-2.57L266,339.46a1.5,1.5,0,0,1,2.27,1.28Z"/><path class="cls-59" d="M243.25,358.75a1.5,1.5,0,0,1-2.92.5l-5-17a1.5,1.5,0,1,1,2.83-1l5,17A1.5,1.5,0,0,1,243.25,358.75Z"/><path class="cls-47" d="M277.27,343.63a1.5,1.5,0,0,1-2.81.73l-10-17.88a1.5,1.5,0,0,1,2.62-1.47l10,17.88A1.5,1.5,0,0,1,277.27,343.63Z"/><path class="cls-59" d="M288.75,338.75a2,2,0,0,1-1.19,1.83l-45,20a2,2,0,1,1-1.62-3.66l45-20a2,2,0,0,1,2.81,1.83Z"/><path class="cls-47" d="M294.75,343.75a2,2,0,0,1-3.28,1.54l-5.94-5-6.94-5a2,2,0,1,1,2.33-3.25l7.12,5.09,6,5a2,2,0,0,1,.72,1.54"/><path class="cls-6" d="M203.83,277.25c-1.1,0-1.36-.63-.58-1.4l3.58-3.53a5.7,5.7,0,0,1,3.42-1.42l16.5-.13a5.35,5.35,0,0,1,3.39,1.42l3.5,3.62c.76.79.49,1.44-.61,1.44Z"/><path class="cls-4" d="M203.83,277.25c-1.1,0-1.36-.63-.58-1.4l3.58-3.53a5.7,5.7,0,0,1,3.42-1.42l16.5-.13a5.35,5.35,0,0,1,3.39,1.42l3.5,3.62c.76.79.49,1.44-.61,1.44Z"/><path class="cls-6" d="M196.41,330.23a2,2,0,0,0-2,2l0,2.08a4.52,4.52,0,0,0,1.64,3.18l3.52,2.56a7.21,7.21,0,0,0,3.62,1.18h20a12,12,0,0,0,3.85-.77l2.31-1a5.44,5.44,0,0,0,2.58-2.63l.31-.78a14.7,14.7,0,0,0,.84-3.86l0-.34a1.86,1.86,0,0,0-1.9-2Z"/><path class="cls-4" d="M196.41,330.23a2,2,0,0,0-2,2l0,2.08a4.52,4.52,0,0,0,1.64,3.18l3.52,2.56a7.21,7.21,0,0,0,3.62,1.18h20a12,12,0,0,0,3.85-.77l2.31-1a5.44,5.44,0,0,0,2.58-2.63l.31-.78a14.7,14.7,0,0,0,.84-3.86l0-.34a1.86,1.86,0,0,0-1.9-2Z"/><line class="cls-32" x1="194.41" y1="335.58" x2="233.03" y2="335.58"/><rect class="cls-33" x="182.75" y="277.25" width="57" height="53" rx="7" ry="7"/><polygon class="cls-11" points="235.75 302.25 190.75 330.25 235.75 330.25 235.75 302.25"/><circle class="cls-34" cx="211.25" cy="303.75" r="23"/><polygon class="cls-2" points="208.5 296.01 208.41 312.25 214.62 312.98 214.62 295.25 208.5 296.01"/><rect class="cls-48" x="235.75" y="265.25" width="33" height="78" rx="3" ry="3"/><rect class="cls-49" x="235.75" y="290.25" width="33" height="27"/><polygon class="cls-12" points="217.75 330.09 235.75 330.09 235.75 318.75 217.75 330.09"/><polygon class="cls-7" points="208.5 296.01 208.41 312.25 195.76 310.75 195.76 297.59 208.5 296.01"/><polygon class="cls-6" points="231.33 314.96 208.41 312.25 204.05 316.25 231.33 314.96"/><polygon class="cls-11" points="250.25 342.75 268.25 309.75 268.25 342.75 250.25 342.75"/><polygon class="cls-12" points="255.25 342.75 268.25 342.75 268.25 329.92 255.25 342.75"/><polygon class="cls-18" points="284.25 339.75 244.25 359.75 286.25 340.75 284.25 339.75"/><polygon class="cls-18" points="277.25 262.75 274.25 263.75 260.25 259.75 283.25 269.75 286.25 266.75 277.25 262.75"/><path class="cls-5" d="M235.75,277.25h-46a7,7,0,0,0-7,7v39a7,7,0,0,0,7,7h46"/><rect class="cls-5" x="235.75" y="265.25" width="33" height="78" rx="3" ry="3"/><line class="cls-4" x1="235.75" y1="290.25" x2="267.75" y2="290.25"/><line class="cls-4" x1="235.75" y1="317.25" x2="267.75" y2="317.25"/><path class="cls-47" d="M277.25,304.25a1.5,1.5,0,0,0-.05-.39l-4-15a1.5,1.5,0,1,0-2.9.77l4,15a1.5,1.5,0,0,0,2.95-.39Z"/><path class="cls-47" d="M277.25,304.25a1.5,1.5,0,0,0-2.95-.39l-4,15a1.5,1.5,0,1,0,2.9.77l4-15A1.5,1.5,0,0,0,277.25,304.25Z"/><path class="cls-59" d="M273.25,289.25a1.5,1.5,0,0,0-2.1-1.38l-30,13a1.5,1.5,0,0,0,1.19,2.75l30-13A1.5,1.5,0,0,0,273.25,289.25Z"/><path class="cls-59" d="M273.25,319.25a1.5,1.5,0,0,0-.9-1.38l-30-13a1.5,1.5,0,1,0-1.19,2.75l30,13a1.5,1.5,0,0,0,2.1-1.37Z"/><ellipse class="cls-50" cx="285.25" cy="304.25" rx="7" ry="9"/><path class="cls-47" d="M243.75,304.25a2,2,0,0,0-2-2h-5a2,2,0,1,0,0,4h5A2,2,0,0,0,243.75,304.25Z"/><path class="cls-59" d="M287.75,304.25a2,2,0,0,0-2-2h-44a2,2,0,1,0,0,4h44A2,2,0,0,0,287.75,304.25Z"/><circle class="cls-35" cx="211.25" cy="303.75" r="23"/><line class="cls-15" x1="188.87" y1="298.44" x2="231.65" y2="293.13"/><line class="cls-15" x1="189.1" y1="309.96" x2="231.33" y2="314.96"/><polygon class="cls-60" points="208.5 296.01 198.29 284.75 195.76 297.59 208.5 296.01"/><polygon class="cls-60" points="195.76 310.75 197.94 322.51 208.01 312.2 195.76 310.75"/><rect class="cls-6" x="215.75" y="298.25" width="12" height="12" rx="3" ry="3"/><rect class="cls-4" x="215.75" y="298.25" width="12" height="12" rx="3" ry="3"/><line class="cls-38" x1="214.62" y1="295.25" x2="214.62" y2="312.98"/><line class="cls-32" x1="208.41" y1="296.02" x2="208.41" y2="312.25"/><line class="cls-39" x1="195.82" y1="297.28" x2="195.82" y2="310.75"/><rect class="cls-38" x="206.75" y="271.25" width="7" height="5" transform="translate(484 63.5) rotate(90)"/><polygon class="cls-61" points="202.75 271.25 202.75 274.25 205.75 274.25 207.75 273.27 207.75 272.44 205.75 271.25 202.75 271.25"/><polygon class="cls-61" points="217.75 271.25 217.75 274.25 214.75 274.25 212.75 273.27 212.75 272.44 214.75 271.25 217.75 271.25"/><polygon class="cls-61" points="211.75 265.25 208.75 265.25 208.75 268.25 209.73 270.25 210.56 270.25 211.75 268.25 211.75 265.25"/><rect class="cls-38" x="206.75" y="331.25" width="7" height="5" transform="translate(-123.5 544) rotate(-90)"/><polygon class="cls-61" points="202.75 336.25 202.75 333.25 205.75 333.25 207.75 334.23 207.75 335.06 205.75 336.25 202.75 336.25"/><polygon class="cls-61" points="217.75 336.25 217.75 333.25 214.75 333.25 212.75 334.23 212.75 335.06 214.75 336.25 217.75 336.25"/><polygon class="cls-61" points="211.75 342.25 208.75 342.25 208.75 339.25 209.73 337.25 210.56 337.25 211.75 339.25 211.75 342.25"/><path class="cls-17" d="M192.75,277.25a1,1,0,0,0-.29-.71L188,272a1,1,0,0,0-1.41,1.41L191,278a1,1,0,0,0,1.71-.71Z"/><path class="cls-17" d="M190.75,265.75a1.5,1.5,0,0,0-1.5-1.5h-6a1.5,1.5,0,1,0,0,3h6A1.5,1.5,0,0,0,190.75,265.75Z"/><path class="cls-15" d="M188.25,272.75v-3A1,1,0,0,0,188,269l-4-4a1,1,0,0,0-1.41,1.41l3.71,3.71v2.59a1,1,0,0,0,2,0Z"/><path class="cls-62" d="M191.75,260.25v11a6.91,6.91,0,0,1,0-11Z"/><line class="cls-62" x1="191.75" y1="265.75" x2="193.75" y2="265.75"/><circle class="cls-7" cx="280.5" cy="45.5" r="4"/><path class="cls-55" d="M278.72,46.61l-.45-.22c.29-.58.52-1.35.38-1.58,0,0,0-.06-.15-.06l-.18-.43a3.26,3.26,0,0,0,.93-1.82h.5a1.7,1.7,0,0,0,1.75,1.75v.5a.71.71,0,0,0-.75.75l-.43.18a.56.56,0,0,0-.49-.2c-.48.08-1,.84-1.11,1.13Zm.21-2.23a.61.61,0,0,1,.14.16,1.1,1.1,0,0,1,.1.7,1.33,1.33,0,0,1,.58-.26,1,1,0,0,1,.56.08,1.08,1.08,0,0,1,.29-.46,2,2,0,0,1-1.12-1.06A4.48,4.48,0,0,1,278.94,44.38Z"/><path class="cls-34" d="M279.49,44a2.17,2.17,0,0,0,.72.65l0,.06a1.17,1.17,0,0,0-.27,0,1.29,1.29,0,0,0-.48.1,1,1,0,0,0-.14-.4l0,0c.07-.1.15-.21.22-.33m0-1.55a3.49,3.49,0,0,1-1,2c1,0,0,2,0,2s.64-1.28,1.41-1.28a.83.83,0,0,1,.59.28,1,1,0,0,1,1-1,2,2,0,0,1-2-2Zm-1,4h0Zm0,0h0Zm0,0h0Z"/><path class="cls-34" d="M281.59,47.28A.83.83,0,0,1,281,47a2.24,2.24,0,0,1-1.48,2.37,4,4,0,0,0,.77.11,2.46,2.46,0,0,0,1.16-1.71h.14a1.55,1.55,0,0,0,1-.42,4.76,4.76,0,0,0,.34,1.3,4,4,0,0,0,.41-.34A8.28,8.28,0,0,1,283,46S282.36,47.28,281.59,47.28Z"/><path class="cls-33" d="M279.52,49.37A2.24,2.24,0,0,0,281,47a.83.83,0,0,0,.59.28c.77,0,1.41-1.28,1.41-1.28a8.28,8.28,0,0,0,.33,2.32,4,4,0,0,0,.38-.46A8,8,0,0,1,283.5,46l-.95-.22c-.21.41-.67,1-1,1a.37.37,0,0,1-.24-.13l-.85.35c0,.75,0,1.41-1.65,2.14A4,4,0,0,0,279.52,49.37Z"/><circle class="cls-4" cx="280.5" cy="45.5" r="4"/><path class="cls-56" d="M283.85,43.32A6,6,0,0,1,278,48a6.07,6.07,0,0,1-.63,0,4,4,0,0,0,6.48-4.64Z"/><circle class="cls-63" cx="28.5" cy="81.5" r="8.5"/><text class="cls-20" transform="translate(25.13 85.44)">2</text><circle class="cls-63" cx="21.5" cy="264.5" r="8.5"/><text class="cls-20" transform="translate(18.13 268.44)">2</text><circle class="cls-29" cx="273.5" cy="21.5" r="8.5"/><text class="cls-20" transform="translate(270.13 25.44)">3</text><circle class="cls-19" cx="138.5" cy="17.5" r="8.5"/><text class="cls-20" transform="translate(135.04 21.44)">4</text><circle class="cls-7" cx="85.5" cy="46.5" r="8.5"/><text class="cls-20" transform="translate(82.13 50.44)">1</text></g><g id="stack_1" data-name="stack 1"><polygon class="cls-64" points="190 154 235 163 235 198 190 206 190 154"/><rect class="cls-7" x="238.69" y="159.12" width="35" height="42.5" transform="translate(436.56 -75.81) rotate(90)"/><rect class="cls-8" x="230.94" y="170.37" width="25.5" height="14" transform="translate(421.06 -66.31) rotate(90)"/><rect class="cls-8" x="270.69" y="167.12" width="6.5" height="6.5" transform="translate(444.31 -103.56) rotate(90)"/><rect class="cls-8" x="270.69" y="180.62" width="6.5" height="6.5" transform="translate(457.81 -90.06) rotate(90)"/><rect class="cls-8" x="270.69" y="189.12" width="6.5" height="6.5" transform="translate(466.31 -81.56) rotate(90)"/><path class="cls-7" d="M279.13,163.94c-.93-.59-1.69-.17-1.69.93v31c0,1.1.74,1.49,1.65.87L294.79,186a4.26,4.26,0,0,0,1.65-3.13v-6a4.05,4.05,0,0,0-1.69-3.07Z"/><line class="cls-52" x1="248.19" y1="166.62" x2="248.19" y2="188.12"/><line class="cls-53" x1="275.19" y1="168.12" x2="275.19" y2="172.62"/><line class="cls-53" x1="273.69" y1="168.12" x2="273.69" y2="172.62"/><line class="cls-53" x1="272.19" y1="168.12" x2="272.19" y2="172.62"/><line class="cls-53" x1="275.19" y1="181.62" x2="275.19" y2="186.12"/><line class="cls-53" x1="273.69" y1="181.62" x2="273.69" y2="186.12"/><line class="cls-53" x1="272.19" y1="181.62" x2="272.19" y2="186.12"/><line class="cls-53" x1="275.19" y1="190.12" x2="275.19" y2="194.62"/><line class="cls-53" x1="273.69" y1="190.12" x2="273.69" y2="194.62"/><line class="cls-53" x1="272.19" y1="190.12" x2="272.19" y2="194.62"/><line class="cls-52" x1="245.19" y1="166.62" x2="245.19" y2="188.12"/><line class="cls-52" x1="242.19" y1="166.62" x2="242.19" y2="188.12"/><line class="cls-52" x1="239.19" y1="166.62" x2="239.19" y2="188.12"/><rect class="cls-11" x="249.69" y="170.12" width="13" height="42.5" transform="translate(447.56 -64.81) rotate(90)"/><rect class="cls-12" x="254.31" y="174.75" width="3.75" height="42.5" transform="translate(452.19 -60.19) rotate(90)"/><polygon class="cls-11" points="296.44 180.94 296.44 184.88 277.44 197.88 277.44 184.63 296.44 180.94"/><polygon class="cls-12" points="296.44 183.94 296.44 184.88 277.44 197.88 277.44 194.13 296.44 183.94"/><polygon class="cls-13" points="296.44 175.88 296.44 177.69 277.44 171.88 277.44 165.13 296.44 175.88"/><polygon class="cls-14" points="296.44 176.38 296.44 176.69 277.44 169.38 277.44 166.63 296.44 176.38"/><polygon class="cls-21" points="296.44 176.38 296.44 176.69 277.44 167.88 277.44 167.13 296.44 176.38"/><rect class="cls-13" x="252.44" y="147.37" width="7" height="42.5" transform="translate(424.56 -87.31) rotate(90)"/><rect class="cls-14" x="254.44" y="146.87" width="3" height="42.5" transform="translate(424.06 -87.81) rotate(90)"/><rect class="cls-35" x="234.94" y="162.87" width="42.5" height="35" rx="1" ry="1"/><path class="cls-35" d="M279.13,163.94c-.93-.59-1.69-.17-1.69.93v31c0,1.1.74,1.49,1.65.87L294.79,186a4.26,4.26,0,0,0,1.65-3.13v-6a4.05,4.05,0,0,0-1.69-3.07Z"/><line class="cls-31" x1="270.69" y1="192.12" x2="236.69" y2="192.12"/><line class="cls-31" x1="270.44" y1="162.87" x2="270.44" y2="197.87"/><polygon class="cls-39" points="263.94 180.38 266.94 181.38 267.44 181.38 267.44 179.38 266.94 179.38 263.94 180.38"/><polygon class="cls-39" points="263.94 161.88 266.94 162.88 267.44 162.88 267.44 160.88 266.94 160.88 263.94 161.88"/><polygon class="cls-39" points="261.94 161.88 258.94 162.88 258.44 162.88 258.44 160.88 258.94 160.88 261.94 161.88"/><polygon class="cls-39" points="262.44 180.38 259.44 181.38 258.94 181.38 258.94 179.38 259.44 179.38 262.44 180.38"/><polygon class="cls-39" points="263.19 180.63 264.19 183.63 264.19 184.13 262.19 184.13 262.19 183.63 263.19 180.63"/><polygon class="cls-39" points="263.19 180.13 264.19 177.13 264.19 176.63 262.19 176.63 262.19 177.13 263.19 180.13"/><rect class="cls-41" x="261.94" y="178.37" width="2.5" height="4" transform="translate(443.56 -82.81) rotate(90)"/><polygon class="cls-41" points="260.69 162.63 261.19 161.13 264.69 161.13 265.19 162.63 260.69 162.63"/><circle class="cls-42" cx="262.94" cy="161.87" r="1"/><polygon class="cls-39" points="263.94 198.88 266.94 197.88 267.44 197.88 267.44 199.88 266.94 199.88 263.94 198.88"/><polygon class="cls-39" points="261.94 198.88 258.94 197.88 258.44 197.88 258.44 199.88 258.94 199.88 261.94 198.88"/><polygon class="cls-41" points="260.69 198.13 261.19 199.63 264.69 199.63 265.19 198.13 260.69 198.13"/><circle class="cls-42" cx="262.94" cy="198.87" r="1"/><path class="cls-22" d="M292.42,172a30.21,30.21,0,0,1,1,8.05,29.89,29.89,0,0,1-1,8.05"/><path class="cls-22" d="M288,183.16a1.69,1.69,0,0,1,2,1.72v1a3.82,3.82,0,0,1-1.74,3l-3.53,2c-1,.55-1.74.09-1.74-1v-4a2.38,2.38,0,0,1,2-2.28Z"/><path class="cls-24" d="M288,184.57a.79.79,0,0,1,1,.8v1a1.6,1.6,0,0,1-.93,1.37l-.64.26a.63.63,0,0,1-.93-.63v-1.5a1.27,1.27,0,0,1,1-1.2Z"/><path class="cls-22" d="M288,184.57a.79.79,0,0,1,1,.8v1a1.6,1.6,0,0,1-.93,1.37l-.64.26a.63.63,0,0,1-.93-.63v-1.5a1.27,1.27,0,0,1,1-1.2Z"/><path class="cls-24" d="M290,178.21a1.23,1.23,0,0,1,1,1.16v1a1,1,0,0,1-1,1h-2.5a.61.61,0,0,1-.61-.92l.71-1.66a1.34,1.34,0,0,1,1.38-.75Z"/><path class="cls-22" d="M290,178.21a1.23,1.23,0,0,1,1,1.16v1a1,1,0,0,1-1,1h-2.5a.61.61,0,0,1-.61-.92l.71-1.66a1.34,1.34,0,0,1,1.38-.75Z"/><path class="cls-54" d="M279,189.43a.48.48,0,0,1-.53-.5.55.55,0,0,1,.53-.56.48.48,0,0,1,.47.5A.56.56,0,0,1,279,189.43Z"/><path class="cls-54" d="M279,191a.39.39,0,0,1-.53-.4A.7.7,0,0,1,279,190a.39.39,0,0,1,.47.41A.71.71,0,0,1,279,191Z"/><g class="cls-26"><path class="cls-22" d="M277.44,188.88a1.27,1.27,0,0,1,1-1.2l.54-.11a.79.79,0,0,1,1,.8v2a1.6,1.6,0,0,1-.93,1.37l-.64.26a.63.63,0,0,1-.93-.63Z"/></g><path class="cls-24" d="M286,171.43a1.78,1.78,0,0,1,.89,1.45v.5a.68.68,0,0,1-.95.68l-1.1-.37a1.48,1.48,0,0,1-.95-1.32v-1a.57.57,0,0,1,.89-.55Z"/><path class="cls-22" d="M286,171.43a1.78,1.78,0,0,1,.89,1.45v.5a.68.68,0,0,1-.95.68l-1.1-.37a1.48,1.48,0,0,1-.95-1.32v-1a.57.57,0,0,1,.89-.55Z"/><path class="cls-54" d="M280.46,174.47a.84.84,0,0,1-.52-.85c0-.41.24-.67.52-.58a.88.88,0,0,1,.48.83C280.94,174.25,280.73,174.52,280.46,174.47Z"/><path class="cls-54" d="M280.46,176.38c-.28,0-.52-.34-.52-.75s.24-.72.52-.68.48.37.48.75S280.73,176.38,280.46,176.38Z"/><polyline class="cls-27" points="282.94 166.38 282.94 172.88 279.44 171.88 279.44 177.38 277.44 177.38"/><polygon class="cls-18" points="261.19 180.13 265.19 181.13 265.19 181.63 261.19 181.63 261.19 180.13"/><g class="cls-28"><path d="M286.58,173.29a2.58,2.58,0,0,0,.23,1c.07,0,.13-.41.13-1v-.5a1.78,1.78,0,0,0-.89-1.45l-1.21-.61c-.49-.25-.51-.22,0,.07l.79.47a2.25,2.25,0,0,1,1,1.51Z"/></g><g class="cls-28"><path d="M290.46,180.39c.08.54.23,1,.32,1s.16-.45.16-1v-1a1.23,1.23,0,0,0-1-1.16l-1-.17c-.54-.09-.56,0,0,.15l.35.12a1.8,1.8,0,0,1,1.1,1.3Z"/></g><g class="cls-28"><path d="M287.37,185a1.48,1.48,0,0,1,1,1.11l.09.39c.12.54.27,1,.33.93a2.69,2.69,0,0,0,.11-1v-1a.79.79,0,0,0-1-.8l-.43.09C287,184.76,286.92,184.91,287.37,185Z"/></g><rect class="cls-65" x="37" y="176.75" width="4" height="6.5" transform="translate(219 141) rotate(90)"/><path class="cls-65" d="M12.5,169.75v21c7,0,23.5-8.5,23.5-8.5v-4S20.5,169.75,12.5,169.75Z"/><line class="cls-23" x1="30.75" y1="175.6" x2="30.75" y2="184.78"/><line class="cls-23" x1="29.75" y1="175.13" x2="29.75" y2="185.24"/><line class="cls-23" x1="31.75" y1="176.08" x2="31.75" y2="184.32"/><line class="cls-23" x1="32.75" y1="176.57" x2="32.75" y2="183.85"/><line class="cls-23" x1="33.75" y1="177.07" x2="33.75" y2="183.37"/><line class="cls-31" x1="34.75" y1="177.59" x2="34.75" y2="182.88"/><path class="cls-66" d="M14.38,191.53v-22.6a.38.38,0,0,1,.75,0v22.6a.38.38,0,0,1-.75,0Z"/><path class="cls-66" d="M15.88,191.22v-22a.38.38,0,0,1,.75,0v22a.38.38,0,0,1-.75,0Z"/><path class="cls-66" d="M17.38,190.83V169.56a.38.38,0,0,1,.75,0v21.27a.38.38,0,0,1-.75,0Z"/><path class="cls-66" d="M18.88,190.38V170a.38.38,0,0,1,.75,0v20.4a.38.38,0,0,1-.75,0Z"/><path class="cls-66" d="M20.38,189.88V170.47a.38.38,0,0,1,.75,0v19.42a.38.38,0,0,1-.75,0Z"/><path class="cls-66" d="M21.88,189.35V171a.38.38,0,0,1,.75,0v18.36a.38.38,0,0,1-.75,0Z"/><path class="cls-66" d="M23.38,188.78V171.56a.38.38,0,0,1,.75,0v17.22a.38.38,0,0,1-.75,0Z"/><polygon class="cls-41" points="27.25 187 28.75 187 32.75 186.5 33.25 186 33.25 185.5 32.25 185 29.25 185.5 27.72 186 27.25 187"/><path class="cls-33" d="M35.75,174.5c0-.55-1.35-1.1-3-1.21l-1-.07c-1.65-.12-3.22-.55-3.49-1s-.73-.53-1-.25a2.84,2.84,0,0,0-.25,2c.14.82,1.6,1.5,3.25,1.5h2.5C34.4,175.5,35.75,175.05,35.75,174.5Z"/><path class="cls-23" d="M35.75,174.5c0-.55-1.35-1.1-3-1.21l-1-.07c-1.65-.12-3.22-.55-3.49-1s-.73-.53-1-.25a2.84,2.84,0,0,0-.25,2c.14.82,1.6,1.5,3.25,1.5h2.5C34.4,175.5,35.75,175.05,35.75,174.5Z"/><path class="cls-41" d="M27.75,186.5v-3.14h0c.06-1.5.49-4.21.49-6.09V172.5a1,1,0,0,0-2,0v5c0,1.75.5,3.75.5,5.86h0v3.14a.5.5,0,0,0,1,0Z"/><line class="cls-22" x1="28.75" y1="185.66" x2="28.75" y2="187"/><line class="cls-22" x1="30.25" y1="185.33" x2="30.25" y2="186.81"/><line class="cls-22" x1="30.75" y1="185.25" x2="30.75" y2="186.75"/><path class="cls-67" d="M40.25,183.63v-.25h1A1.21,1.21,0,0,0,42.63,182h.25a1.45,1.45,0,0,1-1.62,1.63Z"/><rect class="cls-32" x="38.75" y="182" width="1.5" height="2.5" transform="translate(222.75 143.75) rotate(90)"/><path class="cls-39" d="M38.75,182v3h-2a1.63,1.63,0,0,1,0-3Z"/><polygon class="cls-68" points="41.25 186.52 41.25 185 40.75 184.5 36.25 184.5 36.25 187 40.75 187 41.25 186.52"/><circle class="cls-41" cx="34.75" cy="185.5" r="2.5"/><path class="cls-39" d="M27.25,181.25a.75.75,0,0,1,1.07-.68l8.5,4a.75.75,0,1,1-.64,1.36l-8.5-4A.75.75,0,0,1,27.25,181.25Z"/><path class="cls-7" d="M38.5,176.5A37.17,37.17,0,0,1,44,176c1.51,0,2.75-.56,2.75-1.25S45.51,173.5,44,173.5a26.51,26.51,0,0,1-5.56-.74c-1.55-.4-2.78.38-2.75,1.75A2.21,2.21,0,0,0,38.5,176.5Z"/><path class="cls-23" d="M38.5,176.5A37.17,37.17,0,0,1,44,176c1.51,0,2.75-.56,2.75-1.25S45.51,173.5,44,173.5a26.51,26.51,0,0,1-5.56-.74c-1.55-.4-2.78.38-2.75,1.75A2.21,2.21,0,0,0,38.5,176.5Z"/><circle class="cls-41" cx="35.75" cy="174.5" r="2.5"/><path class="cls-36" d="M35.75,180a.5.5,0,0,1,.15-.35l3.5-3.5a.5.5,0,0,1,.71.71l-3.5,3.5a.5.5,0,0,1-.85-.35Z"/><path class="cls-36" d="M39.25,176.75a.75.75,0,0,1,1.31-.49l3.5,4a.75.75,0,0,1-1.13,1l-3.5-4A.75.75,0,0,1,39.25,176.75Z"/><polygon class="cls-68" points="47.25 187 47.25 184 41.25 184.5 41.25 187 47.25 187"/><path class="cls-69" d="M66,150.75a3,3,0,0,0-3,3v52.5a3,3,0,0,0,3,3H170a42.63,42.63,0,0,0,6-.51l11.59-2a3.7,3.7,0,0,0,3-3.51v-46.5a3.7,3.7,0,0,0-3-3.51l-11.59-2a42.63,42.63,0,0,0-6-.51Z"/><polygon class="cls-24" points="91.5 150.75 77 150.75 77 182.25 63 182.25 63 209.25 77 209.25 91.5 209.25 91.5 150.75"/><polygon class="cls-34" points="63 158.33 42.5 178.75 42.5 181.25 63 203.08 63 158.33"/><rect class="cls-24" x="138.25" y="174.5" width="58.5" height="11" transform="translate(347.5 12.5) rotate(90)"/><polygon class="cls-19" points="138.98 192.27 138.98 186.73 140.46 185.25 150.31 185.25 150.31 186.67 141.04 186.67 140.4 187.31 140.4 191.69 141.04 192.33 150.31 192.33 150.31 193.75 140.46 193.75 138.98 192.27"/><polygon class="cls-19" points="111.63 190.25 111.63 188.75 101 185.25 101 185.96 101 186.71 109.39 189.5 101 192.29 101 193.04 101 193.75 111.63 190.25"/><rect class="cls-19" x="102.95" y="186.67" width="1.42" height="5.49"/><polygon class="cls-19" points="119.28 192.27 119.28 186.73 120.76 185.25 122.65 185.25 122.65 186.67 121.35 186.67 120.7 187.31 120.7 191.69 121.35 192.33 123.95 192.33 124.59 191.69 124.59 186.73 126.07 185.25 129.84 185.25 131.32 186.73 131.32 192.27 129.84 193.75 127.96 193.75 127.96 192.33 129.26 192.33 129.91 191.69 129.91 187.31 129.26 186.67 126.66 186.67 126.01 187.31 126.01 192.27 124.53 193.75 120.76 193.75 119.28 192.27"/><line class="cls-70" x1="91.5" y1="153.75" x2="63" y2="153.75"/><line class="cls-70" x1="91.5" y1="156.25" x2="63" y2="156.25"/><line class="cls-70" x1="91.5" y1="158.75" x2="63" y2="158.75"/><line class="cls-70" x1="91.5" y1="161.25" x2="63" y2="161.25"/><line class="cls-70" x1="91.5" y1="163.75" x2="63" y2="163.75"/><line class="cls-70" x1="91.5" y1="166.25" x2="63" y2="166.25"/><line class="cls-70" x1="91.5" y1="168.75" x2="63" y2="168.75"/><line class="cls-70" x1="91.5" y1="171.25" x2="63" y2="171.25"/><line class="cls-70" x1="91.5" y1="173.75" x2="63" y2="173.75"/><line class="cls-70" x1="91.5" y1="176.25" x2="63" y2="176.25"/><line class="cls-70" x1="91.5" y1="178.75" x2="63" y2="178.75"/><line class="cls-70" x1="91.5" y1="181.25" x2="63" y2="181.25"/><line class="cls-70" x1="91.5" y1="183.75" x2="63" y2="183.75"/><line class="cls-70" x1="91.5" y1="186.25" x2="63" y2="186.25"/><line class="cls-70" x1="91.5" y1="188.75" x2="63" y2="188.75"/><line class="cls-70" x1="91.5" y1="191.25" x2="63" y2="191.25"/><line class="cls-70" x1="91.5" y1="193.75" x2="63" y2="193.75"/><line class="cls-70" x1="91.5" y1="196.25" x2="63" y2="196.25"/><line class="cls-70" x1="91.5" y1="198.75" x2="63" y2="198.75"/><line class="cls-70" x1="91.5" y1="201.25" x2="63" y2="201.25"/><line class="cls-70" x1="91.5" y1="203.75" x2="63" y2="203.75"/><line class="cls-70" x1="91.5" y1="206.25" x2="63" y2="206.25"/><line class="cls-70" x1="172.5" y1="153.75" x2="155.5" y2="153.75"/><line class="cls-70" x1="172.5" y1="156.25" x2="155.5" y2="156.25"/><line class="cls-70" x1="172.5" y1="158.75" x2="155.5" y2="158.75"/><line class="cls-70" x1="172.5" y1="161.25" x2="155.5" y2="161.25"/><line class="cls-70" x1="172.5" y1="163.75" x2="155.5" y2="163.75"/><line class="cls-70" x1="172.5" y1="166.25" x2="155.5" y2="166.25"/><line class="cls-70" x1="172.5" y1="168.75" x2="155.5" y2="168.75"/><line class="cls-70" x1="172.5" y1="171.25" x2="155.5" y2="171.25"/><line class="cls-70" x1="172.5" y1="173.75" x2="155.5" y2="173.75"/><line class="cls-70" x1="172.5" y1="176.25" x2="155.5" y2="176.25"/><line class="cls-70" x1="172.5" y1="178.75" x2="155.5" y2="178.75"/><line class="cls-70" x1="172.5" y1="181.25" x2="155.5" y2="181.25"/><line class="cls-70" x1="172.5" y1="183.75" x2="155.5" y2="183.75"/><line class="cls-70" x1="172.5" y1="186.25" x2="155.5" y2="186.25"/><line class="cls-70" x1="172.5" y1="188.75" x2="155.5" y2="188.75"/><line class="cls-70" x1="172.5" y1="191.25" x2="155.5" y2="191.25"/><line class="cls-70" x1="172.5" y1="193.75" x2="155.5" y2="193.75"/><line class="cls-70" x1="172.5" y1="196.25" x2="155.5" y2="196.25"/><line class="cls-70" x1="172.5" y1="198.75" x2="155.5" y2="198.75"/><line class="cls-70" x1="172.5" y1="201.25" x2="155.5" y2="201.25"/><line class="cls-70" x1="172.5" y1="203.75" x2="155.5" y2="203.75"/><line class="cls-70" x1="172.5" y1="206.25" x2="155.5" y2="206.25"/><line class="cls-70" x1="190.5" y1="156.45" x2="173" y2="153.75"/><line class="cls-70" x1="190.5" y1="158.7" x2="173" y2="156.25"/><line class="cls-70" x1="190.5" y1="160.94" x2="173" y2="158.75"/><line class="cls-70" x1="190.5" y1="163.19" x2="173" y2="161.25"/><line class="cls-70" x1="190.5" y1="165.44" x2="173" y2="163.75"/><line class="cls-70" x1="190.5" y1="167.69" x2="173" y2="166.25"/><line class="cls-70" x1="190.5" y1="169.94" x2="173" y2="168.75"/><line class="cls-70" x1="190.5" y1="172.19" x2="173" y2="171.25"/><line class="cls-70" x1="190.5" y1="174.44" x2="173" y2="173.75"/><line class="cls-70" x1="190.5" y1="176.69" x2="173" y2="176.25"/><line class="cls-70" x1="190.5" y1="178.94" x2="173" y2="178.75"/><line class="cls-70" x1="190.5" y1="181.19" x2="173" y2="181.25"/><line class="cls-70" x1="190.5" y1="183.44" x2="173" y2="183.75"/><line class="cls-70" x1="190.5" y1="185.69" x2="173" y2="186.25"/><line class="cls-70" x1="190.5" y1="187.94" x2="173" y2="188.75"/><line class="cls-70" x1="190.5" y1="190.19" x2="173" y2="191.25"/><line class="cls-70" x1="190.5" y1="192.44" x2="173" y2="193.75"/><line class="cls-70" x1="190.5" y1="194.69" x2="173" y2="196.25"/><line class="cls-70" x1="190.5" y1="196.94" x2="173" y2="198.75"/><line class="cls-70" x1="190.5" y1="199.19" x2="173" y2="201.25"/><line class="cls-70" x1="190.5" y1="201.44" x2="173" y2="203.75"/><line class="cls-70" x1="190.5" y1="203.69" x2="173" y2="206.25"/><polygon class="cls-11" points="63 209.25 63 196.25 173 196.25 190.5 194.75 190.5 207.25 173 209.25 63 209.25"/><polygon class="cls-12" points="63 209.25 63 204.75 173 204.75 190.5 202.25 190.5 206.25 173 209.25 63 209.25"/><polygon class="cls-11" points="62.5 202.25 42.5 181.25 42.5 179.25 62.5 190.75 62.5 202.25"/><polygon class="cls-12" points="62.5 202.25 42.5 181.25 42.5 179.25 62.5 197.75 62.5 202.25"/><path class="cls-35" d="M66,150.75a3,3,0,0,0-3,3v52.5a3,3,0,0,0,3,3H170a42.63,42.63,0,0,0,6-.51l11.59-2a3.7,3.7,0,0,0,3-3.51v-46.5a3.7,3.7,0,0,0-3-3.51l-11.59-2a42.63,42.63,0,0,0-6-.51Z"/><polygon class="cls-35" points="63 158.33 42.5 178.75 42.5 181.25 63 203.08 63 158.33"/><line class="cls-4" x1="173" y1="150.75" x2="173" y2="209.25"/><path class="cls-16" d="M68,182.25a2,2,0,0,1,2-2H95.5l3.5,2-3.5,2H70A2,2,0,0,1,68,182.25Z"/><line class="cls-23" x1="43" y1="179.25" x2="63" y2="167.75"/><line class="cls-71" x1="61.5" y1="182.25" x2="43" y2="179.75"/><path class="cls-71" d="M42,179.75s0-.07,0-.1a1,1,0,0,1,1.1-.89l18.5,2.5a1,1,0,1,1-.2,2l-18.5-2.5A1,1,0,0,1,42,179.75Z"/><line class="cls-23" x1="43" y1="180.75" x2="63" y2="192.25"/><path class="cls-18" d="M71,182.25l-2.43-1.39A2,2,0,0,0,70,184.25H95.5l-3-1Z"/><path class="cls-18" d="M61.54,183.24l-1-1.12L44.85,180,44,178.87l-.88-.12a1,1,0,0,0-1.1.89s0,.07,0,.1a1,1,0,0,0,.9,1l18.5,2.5Z"/><polygon class="cls-11" points="190.5 194.69 234.94 184.88 235 198 190 206 190.5 194.69"/><polygon class="cls-12" points="190.5 202.25 234.94 194.13 235 198 190 206 190.5 202.25"/><line class="cls-23" x1="190.5" y1="168.69" x2="235.25" y2="173.62"/><line class="cls-23" x1="190.5" y1="203.5" x2="234.5" y2="194.5"/><circle class="cls-7" cx="21.5" cy="149.5" r="8.5"/><text class="cls-20" transform="translate(18.13 153.44)">1</text><path class="cls-72" d="M219.9,196.82h0l-1.33-1.33V194.3a.46.46,0,0,0-.13-.32l-1.74-1.74h.27a3.21,3.21,0,0,0,3.21-3.21V171.17a3.21,3.21,0,0,0-3.21-3.21h-2.14l0-2.79-3.09-2.25h-3.43v-.46h-1.37v.46h-6.18l-2.75,1.14-.81,2.06L197,168h-1.15v-4.76a.69.69,0,0,0,.19-.74l-1.87-6.36a.68.68,0,0,0-.08-.43l-.06-.07-.09-.32a.9.9,0,0,0,0-.75.92.92,0,0,0-1.21-.46L172.65,163l-2.31-1.92a.92.92,0,0,0-1.17,1.41l2.75,2.29,3.26,2.33a.92.92,0,1,0,1.06-1.49l-1.9-1.36,3-1.34,3.4,6.06v3.87l-1.1-.48h0l0,0h-.22l-.13,0-.12,0-.11.07-.1.09a.66.66,0,0,0-.08.11.64.64,0,0,0,0,.07s0,0,0,0l0,0-.55,2-5-1.64v13.05l4.94-1.55.58,2.19,0,0s0,0,0,0a.65.65,0,0,0,0,.07.66.66,0,0,0,.08.11l.1.08.11.07.12,0,.13,0h.22l0,0h0l1.1-.48V191l-3.4,6.06-3-1.34,1.9-1.36a.92.92,0,1,0-1.06-1.49l-3.26,2.33-2.75,2.29a.92.92,0,1,0,1.17,1.41l2.31-1.92.11,0,0,0,4.12,1.83.05,0,15.83,7a.92.92,0,0,0,1.21-.46.9.9,0,0,0,0-.75l.09-.32.06-.07a.68.68,0,0,0,.08-.43L196,197.5a.69.69,0,0,0-.19-.74v-4.53h.33l2.87,3,7.33-.06v.29h1l-.54.92v1.37h1.37v-1.37l-.45-.92h.91v-.53l.3-.29.62.37H211v-1.37h-1l1.39-1.37h4.16a.46.46,0,0,0,.13.32l1.93,1.93v1.18a.46.46,0,0,0,.13.32l.82.82h-1.4A3.46,3.46,0,0,0,216,195v5a3.46,3.46,0,0,0,1.16-1.83h2.73a.69.69,0,1,0,0-1.37Zm-26.86,6-8.52-5.13h10ZM194.48,162H184.9l8.14-4.9Zm-15.87.35,11.64-5.17-8,4.83h-1.49v4.16ZM179.83,174l.92.4v1.38l-1.28-.42Zm.92,10v1.49l-.92.4-.39-1.47Zm0,9.89v3.93h1.11l8.4,5.06-5.87-2.61.26.07-4.22-1.84-1.81-.8Z"/></g><g id="overview"><circle class="cls-73" cx="48" cy="44" r="26"/><path class="cls-74" d="M22,45c0,68,173-9,258-9"/><path class="cls-75" d="M22,45c0,68,173-9,258-9"/><circle class="cls-76" cx="280.5" cy="45.5" r="9.5"/><circle class="cls-77" cx="280.5" cy="45.5" r="9.5"/><path class="cls-74" d="M281,55C243,55,164.08,25.28,54,25.28"/><circle class="cls-29" cx="48.5" cy="44.5" r="20"/><path class="cls-63" d="M60.83,28.78C59,31.23,57.17,33.94,54.5,33.5c-6-1-2,3-2,3s-7,4-7,0-5-8-5-8l-2,8c-3,4-9,8,0,13s-2,4-2,4-2,2,1,3a3.1,3.1,0,0,1,2,4l-1.27,1.14a19.9,19.9,0,0,0,19.6.54c-.54-2.75-1.53-5.13-3.33-4.68-4,1-9-11-4-9s2-10,4-7,7-2,7,1c0,2.4,4.48-1.6,6.27-3.29A20,20,0,0,0,60.83,28.78Z"/><circle class="cls-35" cx="48.5" cy="44.5" r="20"/><path class="cls-63" d="M57,48c2,0,4,3.54,3,3.77s-3,2.73-3,2.73S58,51,55,51,57,48,57,48Z"/><path class="cls-72" d="M37,60l-1.17,0A20,20,0,0,0,67.73,39,33,33,0,0,1,37,60Z"/><path class="cls-78" d="M281,55C243,55,164.08,25.28,54,25.28"/></g></svg>