<svg xmlns="http://www.w3.org/2000/svg" viewBox="0 0 300 365"><defs><style>.cls-1{fill:#f2f2f2;}.cls-2{opacity:0.04;}.cls-15,.cls-3{fill:#333;}.cls-4,.cls-6,.cls-8{fill:#ccc;}.cls-10,.cls-13,.cls-14,.cls-15,.cls-16,.cls-17,.cls-20,.cls-21,.cls-23,.cls-24,.cls-25,.cls-28,.cls-30,.cls-33,.cls-4,.cls-5,.cls-6,.cls-7,.cls-8,.cls-9{stroke:#000;}.cls-10,.cls-13,.cls-14,.cls-15,.cls-16,.cls-17,.cls-20,.cls-21,.cls-23,.cls-24,.cls-25,.cls-28,.cls-30,.cls-33,.cls-4,.cls-8{stroke-miterlimit:10;}.cls-21,.cls-25,.cls-26,.cls-5{fill:#b3b3b3;}.cls-5,.cls-6,.cls-7,.cls-9{stroke-linejoin:bevel;}.cls-19,.cls-7{fill:#e6e6e6;}.cls-13,.cls-14,.cls-15,.cls-30,.cls-8{stroke-width:0.75px;}.cls-10,.cls-30,.cls-9{fill:#999;}.cls-11{opacity:0.14;}.cls-12{opacity:0.2;}.cls-13,.cls-17,.cls-28{fill:#666;}.cls-14,.cls-20,.cls-23,.cls-33{fill:none;}.cls-16,.cls-27{fill:gray;}.cls-16,.cls-17,.cls-25,.cls-33{stroke-width:0.5px;}.cls-18{opacity:0.25;}.cls-21,.cls-28{stroke-width:3px;}.cls-22,.cls-24{fill:#4d4d4d;}.cls-23{stroke-width:2px;}.cls-29{opacity:0.1;}.cls-31{font-size:10px;font-family:Helvetica, Helvetica;}.cls-32{letter-spacing:-0.11em;}</style></defs><title>o2-tank</title><g id="vessel_shading" data-name="vessel shading"><circle class="cls-1" cx="149.5" cy="216.5" r="120"/><path class="cls-2" d="M223.76,122.24A120,120,0,0,1,55.24,290.76,120,120,0,1,0,223.76,122.24Z"/></g><g id="guts"><polygon class="cls-3" points="176.5 110 172.5 110 172 110.5 171.5 110 170.5 110 169.5 110 169 110.5 168.5 110 164.5 110 163.5 110.58 163.5 112 177.5 112 177.5 110.63 176.5 110"/><rect class="cls-4" x="141" y="97" width="18" height="39"/><polygon class="cls-5" points="141 136 159 136 156.5 138.5 143.5 138.5 141 136"/><rect class="cls-6" x="143.5" y="138.5" width="13" height="13"/><rect class="cls-4" x="141" y="321.5" width="18" height="7"/><polygon class="cls-7" points="141 321.5 159 321.5 156.5 319 143.5 319 141 321.5"/><rect class="cls-6" x="143.5" y="312" width="13" height="7"/><rect class="cls-6" x="145.5" y="151.5" width="9" height="160.5"/><rect class="cls-4" x="161" y="130" width="18" height="15"/><rect class="cls-4" x="162.5" y="145" width="15" height="146.5"/><polygon class="cls-5" points="179 130 161 130 162 127 178 127 179 130"/><polygon class="cls-8" points="163 111 163 99.5 161 99.5 161 112 161 112.5 161 127 179 127 179 112 164.5 112 163 111"/><polygon class="cls-3" points="176 327.5 172 327.5 171.5 327 171 327.5 170 327.5 169 327.5 168.5 327 168 327.5 164 327.5 163 326.92 163 325.5 177 325.5 177 326.88 176 327.5"/><rect class="cls-4" x="161" y="291.5" width="18" height="17"/><polygon class="cls-9" points="179 308.5 161 308.5 162 311.5 178 311.5 179 308.5"/><rect class="cls-8" x="161" y="311.5" width="18" height="14"/><polygon class="cls-10" points="137 328 177 328 177 330 139 330 139 337 137 337 137 328"/></g><g id="fan_intake" data-name="fan intake"><circle class="cls-3" cx="166" cy="219.5" r="1.5"/><circle class="cls-3" cx="170" cy="217.5" r="1.5"/><circle class="cls-3" cx="174" cy="215.5" r="1.5"/><circle class="cls-3" cx="166" cy="227.5" r="1.5"/><circle class="cls-3" cx="170" cy="225.5" r="1.5"/><circle class="cls-3" cx="174" cy="223.5" r="1.5"/></g><g id="guts_shading" data-name="guts shading"><polygon class="cls-11" points="152 99 152 136 151 138 151 151.5 152 151.5 152 312 151 312 151 319 153 321 153 328 159 328 159 321.5 156.5 319 156.5 312 154.5 312 154.5 151.5 156.5 151.5 156.5 138.5 159 136 159 99 152 99"/><polygon class="cls-11" points="173 112 173 127 172 127 173 130 173 145 174 145 174 291.5 173 291.5 173 308.5 172.25 311.5 173 311.5 173 325.5 179 325.5 179 311.5 178 311.5 179 308.5 179 291.5 177.5 291.5 177.5 145 179 145 179 130 177.96 126.96 179 126.96 179 112 173 112"/><g class="cls-12"><path d="M162.5,171.25a1.25,1.25,0,0,1-.59-2.35l15-8a1.25,1.25,0,0,1,1.18,2.21l-15,8A1.25,1.25,0,0,1,162.5,171.25Z"/><path d="M162.5,171.63a1.63,1.63,0,0,1-.77-3.06l15-8a1.63,1.63,0,0,1,1.53,2.87l-15,8A1.63,1.63,0,0,1,162.5,171.63Zm15-10.5a.87.87,0,0,0-.41.1l-15,8a.88.88,0,0,0-.36,1.18.9.9,0,0,0,1.18.36l15-8a.88.88,0,0,0,.36-1.18.88.88,0,0,0-.77-.46Z"/></g><g class="cls-12"><path d="M162.5,163.25a1.25,1.25,0,0,1-.59-2.35l15-8a1.25,1.25,0,0,1,1.18,2.21l-15,8A1.25,1.25,0,0,1,162.5,163.25Z"/><path d="M162.5,163.63a1.63,1.63,0,0,1-.77-3.06l15-8a1.63,1.63,0,0,1,1.53,2.87l-15,8A1.63,1.63,0,0,1,162.5,163.63Zm15-10.5a.87.87,0,0,0-.41.1l-15,8a.88.88,0,0,0-.36,1.18.9.9,0,0,0,1.18.36l15-8a.88.88,0,0,0,.36-1.18.88.88,0,0,0-.77-.46Z"/></g><g class="cls-12"><path d="M162.5,179.25a1.25,1.25,0,0,1-.59-2.35l15-8a1.25,1.25,0,0,1,1.18,2.21l-15,8A1.25,1.25,0,0,1,162.5,179.25Z"/><path d="M162.5,179.63a1.63,1.63,0,0,1-.77-3.06l15-8a1.63,1.63,0,0,1,1.53,2.87l-15,8A1.63,1.63,0,0,1,162.5,179.63Zm15-10.5a.87.87,0,0,0-.41.1l-15,8a.88.88,0,0,0-.36,1.18.9.9,0,0,0,1.18.36l15-8a.88.88,0,0,0,.36-1.18.88.88,0,0,0-.77-.46Z"/></g><g class="cls-12"><path d="M162.5,187.25a1.25,1.25,0,0,1-.59-2.35l15-8a1.25,1.25,0,0,1,1.18,2.21l-15,8A1.25,1.25,0,0,1,162.5,187.25Z"/><path d="M162.5,187.63a1.63,1.63,0,0,1-.77-3.06l15-8a1.63,1.63,0,0,1,1.53,2.87l-15,8A1.63,1.63,0,0,1,162.5,187.63Zm15-10.5a.87.87,0,0,0-.41.1l-15,8a.88.88,0,0,0-.36,1.18.9.9,0,0,0,1.18.36l15-8a.88.88,0,0,0,.36-1.18.88.88,0,0,0-.77-.46Z"/></g><g class="cls-12"><path d="M162.5,195.25a1.25,1.25,0,0,1-.59-2.35l15-8a1.25,1.25,0,0,1,1.18,2.21l-15,8A1.25,1.25,0,0,1,162.5,195.25Z"/><path d="M162.5,195.63a1.63,1.63,0,0,1-.77-3.06l15-8a1.63,1.63,0,0,1,1.53,2.87l-15,8A1.63,1.63,0,0,1,162.5,195.63Zm15-10.5a.87.87,0,0,0-.41.1l-15,8a.88.88,0,0,0-.36,1.18.89.89,0,0,0,1.18.36l15-8a.88.88,0,0,0,.36-1.18.88.88,0,0,0-.77-.46Z"/></g><g class="cls-12"><path d="M162.5,203.25a1.25,1.25,0,0,1-.59-2.35l15-8a1.25,1.25,0,0,1,1.18,2.21l-15,8A1.25,1.25,0,0,1,162.5,203.25Z"/><path d="M162.5,203.63a1.63,1.63,0,0,1-.77-3.06l15-8a1.63,1.63,0,0,1,2.2.67,1.63,1.63,0,0,1-.67,2.2l-15,8A1.64,1.64,0,0,1,162.5,203.63Zm15-10.5a.87.87,0,0,0-.41.1l-15,8a.87.87,0,0,0-.36,1.18.9.9,0,0,0,1.18.36l15-8a.88.88,0,0,0,.36-1.18.88.88,0,0,0-.77-.46Z"/></g><g class="cls-12"><path d="M162.5,211.25a1.25,1.25,0,0,1-.59-2.35l15-8a1.25,1.25,0,0,1,1.18,2.21l-15,8A1.25,1.25,0,0,1,162.5,211.25Z"/><path d="M162.5,211.63a1.63,1.63,0,0,1-.77-3.06l15-8a1.63,1.63,0,0,1,2.2.67,1.63,1.63,0,0,1-.67,2.2l-15,8A1.64,1.64,0,0,1,162.5,211.63Zm15-10.5a.87.87,0,0,0-.41.1l-15,8a.88.88,0,0,0-.36,1.18.9.9,0,0,0,1.18.36l15-8a.88.88,0,0,0,.36-1.18.88.88,0,0,0-.77-.46Z"/></g><g class="cls-12"><path d="M162.5,219.25a1.25,1.25,0,0,1-.59-2.35l15-8a1.25,1.25,0,0,1,1.18,2.21l-15,8A1.25,1.25,0,0,1,162.5,219.25Z"/><path d="M162.5,219.63a1.63,1.63,0,0,1-.77-3.06l15-8a1.63,1.63,0,0,1,1.53,2.87l-15,8A1.64,1.64,0,0,1,162.5,219.63Zm15-10.5a.87.87,0,0,0-.41.1l-15,8a.88.88,0,0,0-.36,1.18.9.9,0,0,0,1.18.36l15-8a.88.88,0,0,0-.41-1.65Z"/></g><g class="cls-12"><path d="M162.5,227.25a1.25,1.25,0,0,1-.59-2.35l15-8a1.25,1.25,0,0,1,1.18,2.21l-15,8A1.25,1.25,0,0,1,162.5,227.25Z"/><path d="M162.5,227.63a1.63,1.63,0,0,1-.77-3.06l15-8a1.63,1.63,0,0,1,1.53,2.87l-15,8A1.64,1.64,0,0,1,162.5,227.63Zm15-10.5a.87.87,0,0,0-.41.1l-15,8a.88.88,0,0,0-.36,1.18.9.9,0,0,0,1.18.36l15-8a.88.88,0,0,0-.41-1.65Z"/></g><g class="cls-12"><path d="M162.5,235.25a1.25,1.25,0,0,1-.59-2.35l15-8a1.25,1.25,0,0,1,1.18,2.21l-15,8A1.25,1.25,0,0,1,162.5,235.25Z"/><path d="M162.5,235.63a1.63,1.63,0,0,1-.77-3.06l15-8a1.63,1.63,0,0,1,1.53,2.87l-15,8A1.64,1.64,0,0,1,162.5,235.63Zm15-10.5a.87.87,0,0,0-.41.1l-15,8a.88.88,0,0,0-.36,1.18.9.9,0,0,0,1.18.36l15-8a.88.88,0,0,0-.41-1.65Z"/></g><g class="cls-12"><path d="M162.5,243.25a1.25,1.25,0,0,1-.59-2.35l15-8a1.25,1.25,0,0,1,1.18,2.21l-15,8A1.25,1.25,0,0,1,162.5,243.25Z"/><path d="M162.5,243.63a1.63,1.63,0,0,1-.77-3.06l15-8a1.63,1.63,0,0,1,1.53,2.87l-15,8A1.64,1.64,0,0,1,162.5,243.63Zm15-10.5a.87.87,0,0,0-.41.1l-15,8a.88.88,0,0,0-.36,1.18.9.9,0,0,0,1.18.36l15-8a.88.88,0,0,0-.41-1.65Z"/></g><g class="cls-12"><path d="M162.5,251.25a1.25,1.25,0,0,1-.59-2.35l15-8a1.25,1.25,0,0,1,1.18,2.21l-15,8A1.25,1.25,0,0,1,162.5,251.25Z"/><path d="M162.5,251.63a1.63,1.63,0,0,1-.77-3.06l15-8a1.63,1.63,0,0,1,1.53,2.87l-15,8A1.64,1.64,0,0,1,162.5,251.63Zm15-10.5a.87.87,0,0,0-.41.1l-15,8a.88.88,0,0,0-.36,1.18.9.9,0,0,0,1.18.36l15-8a.88.88,0,0,0-.41-1.65Z"/></g><g class="cls-12"><path d="M162.5,259.25a1.25,1.25,0,0,1-.59-2.35l15-8a1.25,1.25,0,0,1,1.18,2.21l-15,8A1.25,1.25,0,0,1,162.5,259.25Z"/><path d="M162.5,259.63a1.63,1.63,0,0,1-.77-3.06l15-8a1.63,1.63,0,0,1,1.53,2.87l-15,8A1.64,1.64,0,0,1,162.5,259.63Zm15-10.5a.87.87,0,0,0-.41.1l-15,8a.88.88,0,0,0-.36,1.18.9.9,0,0,0,1.18.36l15-8a.88.88,0,0,0-.41-1.65Z"/></g><g class="cls-12"><path d="M162.5,267.25a1.25,1.25,0,0,1-.59-2.35l15-8a1.25,1.25,0,0,1,1.18,2.21l-15,8A1.25,1.25,0,0,1,162.5,267.25Z"/><path d="M162.5,267.63a1.63,1.63,0,0,1-.77-3.06l15-8a1.63,1.63,0,0,1,1.53,2.87l-15,8A1.64,1.64,0,0,1,162.5,267.63Zm15-10.5a.87.87,0,0,0-.41.1l-15,8a.88.88,0,0,0-.36,1.18.9.9,0,0,0,1.18.36l15-8a.88.88,0,0,0-.41-1.65Z"/></g><g class="cls-12"><path d="M162.5,275.25a1.25,1.25,0,0,1-.59-2.35l15-8a1.25,1.25,0,0,1,1.18,2.21l-15,8A1.25,1.25,0,0,1,162.5,275.25Z"/><path d="M162.5,275.63a1.63,1.63,0,0,1-.77-3.06l15-8a1.63,1.63,0,0,1,1.53,2.87l-15,8A1.64,1.64,0,0,1,162.5,275.63Zm15-10.5a.87.87,0,0,0-.41.1l-15,8a.88.88,0,0,0-.36,1.18.9.9,0,0,0,1.18.36l15-8a.88.88,0,0,0-.41-1.65Z"/></g><g class="cls-12"><path d="M162.5,283.25a1.25,1.25,0,0,1-.59-2.35l15-8a1.25,1.25,0,0,1,1.18,2.21l-15,8A1.25,1.25,0,0,1,162.5,283.25Z"/><path d="M162.5,283.63a1.63,1.63,0,0,1-.77-3.06l15-8a1.63,1.63,0,0,1,1.53,2.87l-15,8A1.64,1.64,0,0,1,162.5,283.63Zm15-10.5a.87.87,0,0,0-.41.1l-15,8a.88.88,0,0,0-.36,1.18.89.89,0,0,0,1.18.36l15-8a.88.88,0,0,0-.41-1.65Z"/></g><g class="cls-12"><path d="M162.5,291.25a1.25,1.25,0,0,1-.59-2.35l15-8a1.25,1.25,0,0,1,1.18,2.21l-15,8A1.25,1.25,0,0,1,162.5,291.25Z"/><path d="M162.5,291.63a1.63,1.63,0,0,1-.77-3.06l15-8a1.63,1.63,0,0,1,1.53,2.87l-15,8A1.64,1.64,0,0,1,162.5,291.63Zm15-10.5a.87.87,0,0,0-.41.1l-15,8a.88.88,0,0,0-.36,1.18.89.89,0,0,0,1.18.36l15-8a.88.88,0,0,0-.41-1.65Z"/></g><g class="cls-12"><path d="M162.5,155.25a1.25,1.25,0,0,1-.59-2.35l5.43-2.9a1.25,1.25,0,0,1,1.18,2.21l-5.43,2.9A1.25,1.25,0,0,1,162.5,155.25Z"/><path d="M162.5,155.63a1.63,1.63,0,0,1-.77-3.06l5.43-2.9a1.63,1.63,0,0,1,1.53,2.87l-5.43,2.9A1.63,1.63,0,0,1,162.5,155.63Zm5.43-5.39a.87.87,0,0,0-.41.1l-5.43,2.89a.87.87,0,0,0-.36,1.18.9.9,0,0,0,1.18.36l5.43-2.9a.87.87,0,0,0-.41-1.65Z"/></g></g><g id="guts_L2" data-name="guts L2"><path class="cls-13" d="M162.5,170.75a1.25,1.25,0,0,1-.59-2.35l15-8a1.25,1.25,0,0,1,1.18,2.21l-15,8A1.25,1.25,0,0,1,162.5,170.75Z"/><path class="cls-13" d="M162.5,162.75a1.25,1.25,0,0,1-.59-2.35l15-8a1.25,1.25,0,0,1,1.18,2.21l-15,8A1.25,1.25,0,0,1,162.5,162.75Z"/><path class="cls-13" d="M162.5,178.75a1.25,1.25,0,0,1-.59-2.35l15-8a1.25,1.25,0,0,1,1.18,2.21l-15,8A1.25,1.25,0,0,1,162.5,178.75Z"/><path class="cls-13" d="M162.5,186.75a1.25,1.25,0,0,1-.59-2.35l15-8a1.25,1.25,0,0,1,1.18,2.21l-15,8A1.25,1.25,0,0,1,162.5,186.75Z"/><path class="cls-13" d="M162.5,194.75a1.25,1.25,0,0,1-.59-2.35l15-8a1.25,1.25,0,0,1,1.18,2.21l-15,8A1.25,1.25,0,0,1,162.5,194.75Z"/><path class="cls-13" d="M162.5,202.75a1.25,1.25,0,0,1-.59-2.35l15-8a1.25,1.25,0,0,1,1.18,2.21l-15,8A1.25,1.25,0,0,1,162.5,202.75Z"/><path class="cls-13" d="M162.5,210.75a1.25,1.25,0,0,1-.59-2.35l15-8a1.25,1.25,0,0,1,1.18,2.21l-15,8A1.25,1.25,0,0,1,162.5,210.75Z"/><path class="cls-13" d="M162.5,218.75a1.25,1.25,0,0,1-.59-2.35l15-8a1.25,1.25,0,0,1,1.18,2.21l-15,8A1.25,1.25,0,0,1,162.5,218.75Z"/><path class="cls-13" d="M162.5,226.75a1.25,1.25,0,0,1-.59-2.35l15-8a1.25,1.25,0,0,1,1.18,2.21l-15,8A1.25,1.25,0,0,1,162.5,226.75Z"/><path class="cls-13" d="M162.5,234.75a1.25,1.25,0,0,1-.59-2.35l15-8a1.25,1.25,0,0,1,1.18,2.21l-15,8A1.25,1.25,0,0,1,162.5,234.75Z"/><path class="cls-13" d="M162.5,242.75a1.25,1.25,0,0,1-.59-2.35l15-8a1.25,1.25,0,0,1,1.18,2.21l-15,8A1.25,1.25,0,0,1,162.5,242.75Z"/><path class="cls-13" d="M162.5,250.75a1.25,1.25,0,0,1-.59-2.35l15-8a1.25,1.25,0,0,1,1.18,2.21l-15,8A1.25,1.25,0,0,1,162.5,250.75Z"/><path class="cls-13" d="M162.5,258.75a1.25,1.25,0,0,1-.59-2.35l15-8a1.25,1.25,0,0,1,1.18,2.21l-15,8A1.25,1.25,0,0,1,162.5,258.75Z"/><path class="cls-13" d="M162.5,266.75a1.25,1.25,0,0,1-.59-2.35l15-8a1.25,1.25,0,0,1,1.18,2.21l-15,8A1.25,1.25,0,0,1,162.5,266.75Z"/><path class="cls-13" d="M162.5,274.75a1.25,1.25,0,0,1-.59-2.35l15-8a1.25,1.25,0,0,1,1.18,2.21l-15,8A1.25,1.25,0,0,1,162.5,274.75Z"/><path class="cls-13" d="M162.5,282.75a1.25,1.25,0,0,1-.59-2.35l15-8a1.25,1.25,0,0,1,1.18,2.21l-15,8A1.25,1.25,0,0,1,162.5,282.75Z"/><path class="cls-13" d="M162.5,290.75a1.25,1.25,0,0,1-.59-2.35l15-8a1.25,1.25,0,0,1,1.18,2.21l-15,8A1.25,1.25,0,0,1,162.5,290.75Z"/><path class="cls-13" d="M162.5,154.75a1.25,1.25,0,0,1-.59-2.35l5.43-2.9a1.25,1.25,0,0,1,1.18,2.21l-5.43,2.9A1.25,1.25,0,0,1,162.5,154.75Z"/><circle class="cls-3" cx="148" cy="156" r="1.5"/><circle class="cls-3" cx="152" cy="156" r="1.5"/><circle class="cls-3" cx="148" cy="161" r="1.5"/><circle class="cls-3" cx="152" cy="161" r="1.5"/><circle class="cls-3" cx="148" cy="166" r="1.5"/><circle class="cls-3" cx="152" cy="166" r="1.5"/><circle class="cls-3" cx="148" cy="171" r="1.5"/><circle class="cls-3" cx="152" cy="171" r="1.5"/><circle class="cls-3" cx="148" cy="176" r="1.5"/><circle class="cls-3" cx="152" cy="176" r="1.5"/><circle class="cls-3" cx="148" cy="181" r="1.5"/><circle class="cls-3" cx="152" cy="181" r="1.5"/><circle class="cls-3" cx="148" cy="186" r="1.5"/><circle class="cls-3" cx="152" cy="186" r="1.5"/><circle class="cls-3" cx="148" cy="191" r="1.5"/><circle class="cls-3" cx="152" cy="191" r="1.5"/><circle class="cls-3" cx="148" cy="196" r="1.5"/><circle class="cls-3" cx="152" cy="196" r="1.5"/><circle class="cls-3" cx="148" cy="201" r="1.5"/><circle class="cls-3" cx="152" cy="201" r="1.5"/><circle class="cls-3" cx="148" cy="206" r="1.5"/><circle class="cls-3" cx="152" cy="206" r="1.5"/><circle class="cls-3" cx="148" cy="211" r="1.5"/><circle class="cls-3" cx="152" cy="211" r="1.5"/><circle class="cls-3" cx="148" cy="216" r="1.5"/><circle class="cls-3" cx="152" cy="216" r="1.5"/><circle class="cls-3" cx="148" cy="221" r="1.5"/><circle class="cls-3" cx="152" cy="221" r="1.5"/><circle class="cls-3" cx="148" cy="226" r="1.5"/><circle class="cls-3" cx="152" cy="226" r="1.5"/><circle class="cls-3" cx="148" cy="231" r="1.5"/><circle class="cls-3" cx="152" cy="231" r="1.5"/><circle class="cls-3" cx="148" cy="236" r="1.5"/><circle class="cls-3" cx="152" cy="236" r="1.5"/><circle class="cls-3" cx="148" cy="241" r="1.5"/><circle class="cls-3" cx="152" cy="241" r="1.5"/><circle class="cls-3" cx="148" cy="246" r="1.5"/><circle class="cls-3" cx="152" cy="246" r="1.5"/><circle class="cls-3" cx="148" cy="251" r="1.5"/><circle class="cls-3" cx="152" cy="251" r="1.5"/><circle class="cls-3" cx="148" cy="256" r="1.5"/><circle class="cls-3" cx="152" cy="256" r="1.5"/><circle class="cls-3" cx="148" cy="261" r="1.5"/><circle class="cls-3" cx="152" cy="261" r="1.5"/><circle class="cls-3" cx="148" cy="266" r="1.5"/><circle class="cls-3" cx="152" cy="266" r="1.5"/><circle class="cls-3" cx="148" cy="271" r="1.5"/><circle class="cls-3" cx="152" cy="271" r="1.5"/><circle class="cls-3" cx="148" cy="276" r="1.5"/><circle class="cls-3" cx="152" cy="276" r="1.5"/><circle class="cls-3" cx="148" cy="281" r="1.5"/><circle class="cls-3" cx="152" cy="281" r="1.5"/><circle class="cls-3" cx="148" cy="286" r="1.5"/><circle class="cls-3" cx="152" cy="286" r="1.5"/><circle class="cls-3" cx="148" cy="291" r="1.5"/><circle class="cls-3" cx="152" cy="291" r="1.5"/><circle class="cls-3" cx="148" cy="296" r="1.5"/><circle class="cls-3" cx="152" cy="296" r="1.5"/><circle class="cls-3" cx="148" cy="301" r="1.5"/><circle class="cls-3" cx="152" cy="301" r="1.5"/><circle class="cls-3" cx="148" cy="306" r="1.5"/><circle class="cls-3" cx="152" cy="306" r="1.5"/><rect class="cls-3" x="161.5" y="134.5" width="3" height="6" rx="1" ry="1"/><rect class="cls-14" x="161.5" y="134.5" width="3" height="6" rx="1" ry="1"/><rect class="cls-3" x="175.5" y="134.5" width="3" height="6" rx="1" ry="1"/><rect class="cls-14" x="175.5" y="134.5" width="3" height="6" rx="1" ry="1"/><rect class="cls-3" x="167.5" y="134.5" width="5" height="6" rx="1" ry="1"/><rect class="cls-14" x="167.5" y="134.5" width="5" height="6" rx="1" ry="1"/><circle class="cls-15" cx="170" cy="116.5" r="2.5"/><circle class="cls-15" cx="170" cy="122.5" r="2.5"/><rect class="cls-3" x="161.5" y="296" width="3" height="6" rx="1" ry="1"/><rect class="cls-14" x="161.5" y="296" width="3" height="6" rx="1" ry="1"/><rect class="cls-3" x="175.5" y="296" width="3" height="6" rx="1" ry="1"/><rect class="cls-14" x="175.5" y="296" width="3" height="6" rx="1" ry="1"/><rect class="cls-3" x="167.5" y="296" width="5" height="6" rx="1" ry="1"/><rect class="cls-14" x="167.5" y="296" width="5" height="6" rx="1" ry="1"/><path class="cls-3" d="M167.5,314a1,1,0,0,0-1-1h0a1,1,0,0,0-1,1v3a1,1,0,0,0,1,1h0a1,1,0,0,0,1-1Z"/><path class="cls-14" d="M167.5,314a1,1,0,0,0-1-1h0a1,1,0,0,0-1,1v3a1,1,0,0,0,1,1h0a1,1,0,0,0,1-1Z"/><path class="cls-3" d="M167.5,321a1,1,0,0,0-1-1h0a1,1,0,0,0-1,1v2a1,1,0,0,0,1,1h0a1,1,0,0,0,1-1Z"/><path class="cls-14" d="M167.5,321a1,1,0,0,0-1-1h0a1,1,0,0,0-1,1v2a1,1,0,0,0,1,1h0a1,1,0,0,0,1-1Z"/><path class="cls-3" d="M174.5,314a1,1,0,0,0-1-1h0a1,1,0,0,0-1,1v3a1,1,0,0,0,1,1h0a1,1,0,0,0,1-1Z"/><path class="cls-14" d="M174.5,314a1,1,0,0,0-1-1h0a1,1,0,0,0-1,1v3a1,1,0,0,0,1,1h0a1,1,0,0,0,1-1Z"/><path class="cls-3" d="M174.5,321a1,1,0,0,0-1-1h0a1,1,0,0,0-1,1v2a1,1,0,0,0,1,1h0a1,1,0,0,0,1-1Z"/><path class="cls-14" d="M174.5,321a1,1,0,0,0-1-1h0a1,1,0,0,0-1,1v2a1,1,0,0,0,1,1h0a1,1,0,0,0,1-1Z"/><rect class="cls-16" x="145" y="141" width="3" height="8"/></g><g id="guts_L3" data-name="guts L3"><path class="cls-17" d="M162,156.18c-3,1-3,6.59-3,8.82v7s-.09,4-2,4c0,0-.08,0-.12-.09-1.13-1.23-1.2-7.07-.88-10.88l1-27.5a1,1,0,1,0-2-.07l-1,27.45c-.14,1.66-.72,10,1.4,12.35A2.13,2.13,0,0,0,157,178c3.16,0,4-3.77,4-6v-7c0-3.72.47-5.5,1-6.33Z"/><path class="cls-17" d="M178,151a3.89,3.89,0,0,1-4-4c0-1.62.27-2.18.79-2.71.08-.08.21-.21.21-1.29,0-2.78-1.91-7.58-1.93-7.63a1,1,0,0,1,1.86-.74c.08.21,2.07,5.22,2.07,8.37,0,1.62-.27,2.18-.79,2.71-.08.08-.21.21-.21,1.29a1.88,1.88,0,0,0,2,2,1,1,0,0,1,0,2Z"/><path class="cls-18" d="M158.07,177.82a4.14,4.14,0,0,0,2.45-2.81l-1.87-.75c-.28.91-.77,1.74-1.65,1.74,0,0-.08,0-.12-.09a6.64,6.64,0,0,1-.89-3.28l-1.49-1-.6,0a15.78,15.78,0,0,0,.75,4.24Z"/><path class="cls-17" d="M158,176c-5.93,0-6-19.18-6-20V137.5a1,1,0,0,1,2,0V156c0,10.14,2.15,18,4,18,2.64,0,3-4,3-8,0-2.92,3-11.07,5.68-11.95a1,1,0,0,1,.63,1.9c-1.22.41-4.32,7.18-4.32,10.05C163,169.25,163,176,158,176Z"/><g class="cls-11"><path d="M154,140.46v-3a1,1,0,0,0-2,0v3.73Z"/><path d="M157,137.54a1,1,0,1,0-2-.07l-.1,2.65,2-.78Z"/></g><path class="cls-11" d="M176.89,144.41l-2.6.6a4.94,4.94,0,0,0-.29,2,4,4,0,0,0,.63,2.22l1.93-.74A1.92,1.92,0,0,1,176,147c0-1.09.13-1.22.21-1.29A2.3,2.3,0,0,0,176.89,144.41Z"/></g><g id="exterior"><rect class="cls-19" x="142.5" y="32.5" width="11" height="10" rx="1" ry="1"/><rect class="cls-20" x="142.5" y="32.5" width="11" height="10" rx="1" ry="1"/><rect class="cls-19" x="139.5" y="41.5" width="17" height="5" rx="1" ry="1"/><rect class="cls-20" x="139.5" y="41.5" width="17" height="5" rx="1" ry="1"/><rect class="cls-19" x="144.5" y="343.5" width="11" height="10" rx="1" ry="1"/><rect class="cls-20" x="144.5" y="343.5" width="11" height="10" rx="1" ry="1"/><rect class="cls-19" x="141.5" y="339.5" width="17" height="5" rx="1" ry="1"/><rect class="cls-20" x="141.5" y="339.5" width="17" height="5" rx="1" ry="1"/><path class="cls-21" d="M104,104V62c0-8,21-17,44-17s43,11,43,15v44l-40-9Z"/><rect class="cls-22" x="116.5" y="44.5" width="13" height="4" rx="1" ry="1" transform="matrix(0.96, -0.26, 0.26, 0.96, -7.9, 33.96)"/><rect class="cls-23" x="116.5" y="44.5" width="13" height="4" rx="1" ry="1" transform="matrix(0.96, -0.26, 0.26, 0.96, -7.9, 33.96)"/><polygon class="cls-24" points="151.25 75.47 147.75 75.47 146 78.5 147.75 81.53 151.25 81.53 153 78.5 151.25 75.47"/><circle class="cls-25" cx="149.5" cy="78.5" r="2"/><circle cx="149.5" cy="78.5" r="0.5"/><polygon class="cls-24" points="125.75 86.47 122.25 86.47 120.5 89.5 122.25 92.53 125.75 92.53 127.5 89.5 125.75 86.47"/><circle class="cls-25" cx="124" cy="89.5" r="2"/><circle cx="124" cy="89.5" r="0.5"/><rect class="cls-26" x="190.5" y="82.5" width="10.5" height="5" rx="1" ry="1"/><rect class="cls-20" x="190.5" y="82.5" width="10.5" height="5" rx="1" ry="1"/><rect class="cls-27" x="195" y="82" width="4" height="6" rx="1" ry="1"/><rect class="cls-20" x="195" y="82" width="4" height="6" rx="1" ry="1"/><rect x="101" y="79" width="3" height="11"/></g><g id="exterior_shading" data-name="exterior shading"><polygon class="cls-11" points="150.5 341 150.5 344.5 152 344.5 152 353.5 155.5 353.5 155.5 344.5 158.5 344.5 158.5 341 150.5 341"/><polygon class="cls-11" points="148.5 45 148.5 41.5 150 41.5 150 32.5 153.5 32.5 153.5 41.5 156.5 41.5 156.5 45 148.5 45"/><polygon class="cls-11" points="190 85.5 195 85.5 195 86 199 86 199 85.5 201 85.5 201 87.5 190 87.5 190 85.5"/></g><g id="vessel"><path class="cls-28" d="M150,341A124,124,0,1,1,274,217,124.14,124.14,0,0,1,150,341Zm0-242A118,118,0,1,0,268,217,118.13,118.13,0,0,0,150,99Z"/></g><g id="cutaway"><g class="cls-29"><path class="cls-30" d="M218,122a1,1,0,0,1-.83-1.55l1.44-2.16C206.43,110.36,188.67,103.07,187,103c-3,0-3-3.72-3-7V86.19C179.31,74.52,172.66,62,170,62H129c-2.47,0-4,1.56-4,3V89a1,1,0,0,1-2,0V65c0-2.4,2.29-5,6-5h41c5.27,0,13.52,19.62,15.93,25.63A1,1,0,0,1,186,86V96c0,2.11,0,5,1,5,2.39,0,21.63,8.22,33.55,16.17a1,1,0,0,1,.28,1.39l-2,3A1,1,0,0,1,218,122Z"/></g></g><g id="text"><text class="cls-31" transform="translate(47 37.5)">Blowout disc</text><text class="cls-31" transform="translate(46 67.5)">Electrical</text><text class="cls-31" transform="translate(34 97.5)">Supply line</text><text class="cls-31" transform="translate(73.86 158.5)"><tspan class="cls-32">T</tspan><tspan x="5" y="0">emperature</tspan><tspan x="26.12" y="12">sensor</tspan></text><text class="cls-31" transform="translate(84.41 215.5)">Capacitance<tspan x="25.58" y="12">sensor</tspan></text><text class="cls-31" transform="translate(205 47.5)">Fill line</text><text class="cls-31" transform="translate(164 23.5)">Closeout cap</text><text class="cls-31" transform="translate(175 353.5)">Closeout cap</text><text class="cls-31" transform="translate(206 72.5)">Oxygen vent</text><text class="cls-31" transform="translate(183 215.5)">Heater</text><text class="cls-31" transform="translate(184 129)">Fan<tspan x="0" y="12">motor</tspan></text><text class="cls-31" transform="translate(184 303)">Fan<tspan x="0" y="12">motor</tspan></text><line class="cls-33" x1="105" y1="35" x2="117" y2="42"/><line class="cls-33" x1="87.5" y1="64.5" x2="98.5" y2="78.5"/><line class="cls-33" x1="83.5" y1="94.5" x2="117.5" y2="90.5"/><line class="cls-33" x1="162.5" y1="20.5" x2="149.5" y2="30.5"/><line class="cls-33" x1="203.5" y1="44.5" x2="154.5" y2="74.5"/><line class="cls-33" x1="204.5" y1="69.5" x2="198.5" y2="78.5"/><line class="cls-33" x1="131.5" y1="155.5" x2="146.5" y2="144.5"/><line class="cls-33" x1="173.5" y1="350.5" x2="158.5" y2="350.5"/></g></svg>