<svg xmlns="http://www.w3.org/2000/svg" viewBox="0 0 75 75"><defs><style>.cls-1{fill:#e6e6e6;}.cls-1,.cls-5{stroke:#4d4d4d;}.cls-1,.cls-3,.cls-4,.cls-5{stroke-miterlimit:10;}.cls-1,.cls-3,.cls-5{stroke-width:2px;}.cls-2{fill:#4d4d4d;}.cls-3,.cls-4,.cls-5{fill:none;}.cls-3,.cls-4{stroke:#e6e6e6;}.cls-5{stroke-linecap:round;}</style></defs><title>panel-tiny-gauge</title><g id="sprites"><circle class="cls-1" cx="38.5" cy="37.5" r="33.5"/><path class="cls-2" d="M38.5,8A29.5,29.5,0,1,0,68,37.5,29.5,29.5,0,0,0,38.5,8Zm8.11,47.22L41.2,43.41a6.5,6.5,0,1,0-5.41,0L30.39,55.22a19.5,19.5,0,1,1,16.22,0Z"/><line class="cls-3" x1="57.46" y1="37.5" x2="63.5" y2="37.5"/><line class="cls-3" x1="13.5" y1="37.5" x2="19.5" y2="37.5"/><line class="cls-3" x1="38.5" y1="18.42" x2="38.5" y2="13"/><line class="cls-4" x1="56.04" y1="30.24" x2="58.83" y2="29.08"/><line class="cls-4" x1="18.17" y1="45.92" x2="20.96" y2="44.76"/><line class="cls-4" x1="51.92" y1="24.08" x2="54.06" y2="21.94"/><line class="cls-4" x1="22.94" y1="53.06" x2="25.1" y2="50.9"/><line class="cls-4" x1="45.76" y1="19.98" x2="46.92" y2="17.17"/><line class="cls-4" x1="31.22" y1="19.92" x2="30.08" y2="17.17"/><line class="cls-4" x1="25.04" y1="24.04" x2="22.94" y2="21.94"/><line class="cls-4" x1="54.06" y1="53.06" x2="51.89" y2="50.89"/><line class="cls-4" x1="20.91" y1="30.22" x2="18.17" y2="29.08"/><line class="cls-4" x1="58.83" y1="45.92" x2="55.99" y2="44.75"/><line class="cls-5" x1="38.5" y1="37.75" x2="49" y2="27.25"/></g></svg>