<svg xmlns="http://www.w3.org/2000/svg" viewBox="0 0 2960 1830"><defs><style>.cls-1{fill:#e6e6e6;}.cls-2,.cls-4,.cls-6,.cls-8{fill:none;}.cls-2,.cls-8{stroke:#000;}.cls-2,.cls-4,.cls-6,.cls-7,.cls-8{stroke-miterlimit:10;}.cls-2{stroke-width:5px;}.cls-3{fill:#f2f2f2;}.cls-4{stroke:gray;stroke-width:3px;}.cls-5{fill:#ddd;}.cls-6{stroke:#b3b3b3;}.cls-7{fill:#4d4d4d;stroke:#c1272d;stroke-width:8px;}</style></defs><title>panel-cm-aux</title><g id="main_panels" data-name="main panels"><path class="cls-1" d="M930.88,707A9,9,0,0,0,940,717h291a15.76,15.76,0,0,0,13.61-9.33l222.78-575.35a8,8,0,0,0-6.23-11.11L999.84,37.78A9,9,0,0,0,989.12,46Z"/><path class="cls-2" d="M930.88,707A9,9,0,0,0,940,717h291a15.76,15.76,0,0,0,13.61-9.33l222.78-575.35a8,8,0,0,0-6.23-11.11L999.84,37.78A9,9,0,0,0,989.12,46Z"/><path class="cls-3" d="M1229,727a8.57,8.57,0,0,1,8.7,9.92l-71.41,546.17c-.71,5.45-5.51,11.49-10.67,13.41l-177.26,66a62.42,62.42,0,0,1-19.37,3.26l-774-17.55a13.24,13.24,0,0,1-12-10L47,736.79A7.81,7.81,0,0,1,55,727Z"/><path class="cls-2" d="M1229,727a8.57,8.57,0,0,1,8.7,9.92l-71.41,546.17c-.71,5.45-5.51,11.49-10.67,13.41l-177.26,66a62.42,62.42,0,0,1-19.37,3.26l-774-17.55a13.24,13.24,0,0,1-12-10L47,736.79A7.81,7.81,0,0,1,55,727Z"/><path class="cls-3" d="M471.28,1787.8a9.44,9.44,0,0,0,13.63,2.08l639.18-494.76c4.35-3.37,3.42-5.84-2.07-5.49l-946,59.74c-5.49.35-7.41,4.32-4.26,8.83Z"/><path class="cls-2" d="M471.28,1787.8a9.44,9.44,0,0,0,13.63,2.08l639.18-494.76c4.35-3.37,3.42-5.84-2.07-5.49l-946,59.74c-5.49.35-7.41,4.32-4.26,8.83Z"/><path class="cls-1" d="M1734.38,707.06A15.68,15.68,0,0,0,1748,716.4h286.75a9.06,9.06,0,0,0,9.16-10l-56.23-666A8.87,8.87,0,0,0,1977,32.35l-457.22,85.89a8.07,8.07,0,0,0-6.26,11.19Z"/><path class="cls-2" d="M1734.38,707.06A15.68,15.68,0,0,0,1748,716.4h286.75a9.06,9.06,0,0,0,9.16-10l-56.23-666A8.87,8.87,0,0,0,1977,32.35l-457.22,85.89a8.07,8.07,0,0,0-6.26,11.19Z"/><path class="cls-3" d="M1740.1,735.37a8.63,8.63,0,0,1,8.76-9.92H2912.44c5.5,0,9,4.39,7.85,9.77l-135,612.08a13.89,13.89,0,0,1-12.14,10.27l-697.6,35.19a53.82,53.82,0,0,1-19.25-3.26L1818.71,1293c-5.1-2.07-9.82-8.23-10.51-13.69Z"/><path class="cls-2" d="M1740.1,735.37a8.63,8.63,0,0,1,8.76-9.92H2912.44c5.5,0,9,4.39,7.85,9.77l-135,612.08a13.89,13.89,0,0,1-12.14,10.27l-697.6,35.19a53.82,53.82,0,0,1-19.25-3.26L1818.71,1293c-5.1-2.07-9.82-8.23-10.51-13.69Z"/><path class="cls-3" d="M2473,1788.78a9.36,9.36,0,0,0,13.6-1.92l303.33-428c3.18-4.49,1.29-8.48-4.19-8.88l-937.41-67.34c-5.49-.39-6.46,2.09-2.16,5.52Z"/><path class="cls-2" d="M2473,1788.78a9.36,9.36,0,0,0,13.6-1.92l303.33-428c3.18-4.49,1.29-8.48-4.19-8.88l-937.41-67.34c-5.49-.39-6.46,2.09-2.16,5.52Z"/><rect class="cls-3" x="2306" y="107" width="404" height="514" rx="10" ry="10"/><rect class="cls-2" x="2306" y="107" width="404" height="514" rx="10" ry="10"/></g><g id="subpanels"><path class="cls-1" d="M1748.28,742.92A8.59,8.59,0,0,1,1757,733H2901a7.78,7.78,0,0,1,7.92,9.78l-101.84,479.44A12.93,12.93,0,0,1,2795,1232H2551c-5.5,0-10-4-10-9s-4.5-9-10-9H2416a10,10,0,0,0-10,10v12a10,10,0,0,1-10,10H1823a11.71,11.71,0,0,1-11.28-9.92Z"/><path class="cls-4" d="M1748.28,742.92A8.59,8.59,0,0,1,1757,733H2901a7.78,7.78,0,0,1,7.92,9.78l-101.84,479.44A12.93,12.93,0,0,1,2795,1232H2551c-5.5,0-10-4-10-9s-4.5-9-10-9H2416a10,10,0,0,0-10,10v12a10,10,0,0,1-10,10H1823a11.71,11.71,0,0,1-11.28-9.92Z"/><path class="cls-1" d="M2399,1294a10,10,0,0,0,10,10h116a10,10,0,0,0,10-10v-62a10,10,0,0,0-10-10H2423a10,10,0,0,0-10,10v12c0,5.5-3.15,10-7,10s-7,4.5-7,10Z"/><path class="cls-4" d="M2399,1294a10,10,0,0,0,10,10h116a10,10,0,0,0,10-10v-62a10,10,0,0,0-10-10H2423a10,10,0,0,0-10,10v12c0,5.5-3.15,10-7,10s-7,4.5-7,10Z"/><path class="cls-1" d="M2084.92,1454.44c-1.61,5.26.6,12.37,4.9,15.8l316.37,252.52a9.19,9.19,0,0,0,13.47-2l248.69-362.51c3.11-4.54,1.17-8.58-4.32-9L2139,1310.73a13.15,13.15,0,0,0-12.89,8.83Z"/><path class="cls-4" d="M2084.92,1454.44c-1.61,5.26.6,12.37,4.9,15.8l316.37,252.52a9.19,9.19,0,0,0,13.47-2l248.69-362.51c3.11-4.54,1.17-8.58-4.32-9L2139,1310.73a13.15,13.15,0,0,0-12.89,8.83Z"/><path class="cls-1" d="M57.05,743.79A7.8,7.8,0,0,1,65,734H1221a8.58,8.58,0,0,1,8.72,9.92l-68.43,528.17A11.72,11.72,0,0,1,1150,1282H180a12.89,12.89,0,0,1-12.05-9.79Z"/><path class="cls-4" d="M57.05,743.79A7.8,7.8,0,0,1,65,734H1221a8.58,8.58,0,0,1,8.72,9.92l-68.43,528.17A11.72,11.72,0,0,1,1150,1282H180a12.89,12.89,0,0,1-12.05-9.79Z"/><path class="cls-1" d="M716,1176a10,10,0,0,1,10-10h44a10,10,0,0,1,10,10v6a10,10,0,0,0,10,10h9a10,10,0,0,1,10,10v34a10,10,0,0,1-10,10H726a10,10,0,0,1-10-10Z"/><path class="cls-4" d="M716,1176a10,10,0,0,1,10-10h44a10,10,0,0,1,10,10v6a10,10,0,0,0,10,10h9a10,10,0,0,1,10,10v34a10,10,0,0,1-10,10H726a10,10,0,0,1-10-10Z"/><path class="cls-1" d="M270.73,1485.2c-3.15-4.51-4-12.37-2-17.47l45.5-112.46c2.06-5.1,8.24-9.55,13.73-9.9l615-38.74a13,13,0,0,1,12.73,9l20.51,71.77c1.51,5.29-.82,12.36-5.18,15.72L586.92,1698.9c-4.36,3.36-12.28,5-17.6,3.59l-169.64-44c-5.32-1.38-12.26-6.2-15.41-10.71Z"/><path class="cls-4" d="M270.73,1485.2c-3.15-4.51-4-12.37-2-17.47l45.5-112.46c2.06-5.1,8.24-9.55,13.73-9.9l615-38.74a13,13,0,0,1,12.73,9l20.51,71.77c1.51,5.29-.82,12.36-5.18,15.72L586.92,1698.9c-4.36,3.36-12.28,5-17.6,3.59l-169.64-44c-5.32-1.38-12.26-6.2-15.41-10.71Z"/><rect class="cls-1" x="2314" y="116" width="388" height="451" rx="10" ry="10"/><rect class="cls-4" x="2314" y="116" width="388" height="451" rx="10" ry="10"/></g><g id="panels"><rect class="cls-5" x="247" y="800" width="940" height="66" rx="10" ry="10"/><rect class="cls-6" x="247" y="800" width="940" height="66" rx="10" ry="10"/><path class="cls-5" d="M82,832.5a20.06,20.06,0,0,1,20-20h98a20.06,20.06,0,0,1,20,20h0a20.06,20.06,0,0,1-20,20H102a20.06,20.06,0,0,1-20-20Z"/><path class="cls-6" d="M82,832.5a20.06,20.06,0,0,1,20-20h98a20.06,20.06,0,0,1,20,20h0a20.06,20.06,0,0,1-20,20H102a20.06,20.06,0,0,1-20-20Z"/><path class="cls-5" d="M120,945.5a20.06,20.06,0,0,1,20-20H765a20.06,20.06,0,0,1,20,20h0a20.06,20.06,0,0,1-20,20H140a20.06,20.06,0,0,1-20-20Z"/><path class="cls-6" d="M120,945.5a20.06,20.06,0,0,1,20-20H765a20.06,20.06,0,0,1,20,20h0a20.06,20.06,0,0,1-20,20H140a20.06,20.06,0,0,1-20-20Z"/><path class="cls-5" d="M140,1033.5a20.06,20.06,0,0,1,20-20H566a20.06,20.06,0,0,1,20,20h0a20.06,20.06,0,0,1-20,20H160a20.06,20.06,0,0,1-20-20Z"/><path class="cls-6" d="M140,1033.5a20.06,20.06,0,0,1,20-20H566a20.06,20.06,0,0,1,20,20h0a20.06,20.06,0,0,1-20,20H160a20.06,20.06,0,0,1-20-20Z"/><path class="cls-5" d="M151,1133.5a20.06,20.06,0,0,1,20-20H753a20.06,20.06,0,0,1,20,20h0a20.06,20.06,0,0,1-20,20H171a20.06,20.06,0,0,1-20-20Z"/><path class="cls-6" d="M151,1133.5a20.06,20.06,0,0,1,20-20H753a20.06,20.06,0,0,1,20,20h0a20.06,20.06,0,0,1-20,20H171a20.06,20.06,0,0,1-20-20Z"/><path class="cls-5" d="M169,1222.5a20.06,20.06,0,0,1,20-20H683a20.06,20.06,0,0,1,20,20h0a20.06,20.06,0,0,1-20,20H189a20.06,20.06,0,0,1-20-20Z"/><path class="cls-6" d="M169,1222.5a20.06,20.06,0,0,1,20-20H683a20.06,20.06,0,0,1,20,20h0a20.06,20.06,0,0,1-20,20H189a20.06,20.06,0,0,1-20-20Z"/><path class="cls-5" d="M782,1107.5a20.06,20.06,0,0,1,20-20h333a20.06,20.06,0,0,1,20,20h0a20.06,20.06,0,0,1-20,20H802a20.06,20.06,0,0,1-20-20Z"/><path class="cls-6" d="M782,1107.5a20.06,20.06,0,0,1,20-20h333a20.06,20.06,0,0,1,20,20h0a20.06,20.06,0,0,1-20,20H802a20.06,20.06,0,0,1-20-20Z"/><path class="cls-5" d="M825,1222.5a20.06,20.06,0,0,1,20-20h275a20.06,20.06,0,0,1,20,20h0a20.06,20.06,0,0,1-20,20H845a20.06,20.06,0,0,1-20-20Z"/><path class="cls-6" d="M825,1222.5a20.06,20.06,0,0,1,20-20h275a20.06,20.06,0,0,1,20,20h0a20.06,20.06,0,0,1-20,20H845a20.06,20.06,0,0,1-20-20Z"/><path class="cls-5" d="M1826,1083.5a20.06,20.06,0,0,1,20-20h77a20.06,20.06,0,0,1,20,20h0a20.06,20.06,0,0,1-20,20h-77a20.06,20.06,0,0,1-20-20Z"/><path class="cls-6" d="M1826,1083.5a20.06,20.06,0,0,1,20-20h77a20.06,20.06,0,0,1,20,20h0a20.06,20.06,0,0,1-20,20h-77a20.06,20.06,0,0,1-20-20Z"/><path class="cls-5" d="M1958,1083.5a20.06,20.06,0,0,1,20-20h139a20.06,20.06,0,0,1,20,20h0a20.06,20.06,0,0,1-20,20H1978a20.06,20.06,0,0,1-20-20Z"/><path class="cls-6" d="M1958,1083.5a20.06,20.06,0,0,1,20-20h139a20.06,20.06,0,0,1,20,20h0a20.06,20.06,0,0,1-20,20H1978a20.06,20.06,0,0,1-20-20Z"/><path class="cls-5" d="M2087,1186a20.06,20.06,0,0,1,20-20h117a20.06,20.06,0,0,1,20,20h0a20.06,20.06,0,0,1-20,20H2107a20.06,20.06,0,0,1-20-20Z"/><path class="cls-6" d="M2087,1186a20.06,20.06,0,0,1,20-20h117a20.06,20.06,0,0,1,20,20h0a20.06,20.06,0,0,1-20,20H2107a20.06,20.06,0,0,1-20-20Z"/><path class="cls-5" d="M2397.6,1668.08a20.06,20.06,0,0,1-5.4-27.76l53.7-79.61a20,20,0,1,1,33.16,22.37l-53.7,79.61A20.06,20.06,0,0,1,2397.6,1668.08Z"/><path class="cls-6" d="M2397.6,1668.08a20.06,20.06,0,0,1-5.4-27.76l53.7-79.61a20,20,0,1,1,33.16,22.37l-53.7,79.61A20.06,20.06,0,0,1,2397.6,1668.08Z"/><path class="cls-5" d="M2263,1186a20.06,20.06,0,0,1,20-20h50.5a20.06,20.06,0,0,1,20,20h0a20.06,20.06,0,0,1-20,20H2283a20.06,20.06,0,0,1-20-20Z"/><path class="cls-6" d="M2263,1186a20.06,20.06,0,0,1,20-20h50.5a20.06,20.06,0,0,1,20,20h0a20.06,20.06,0,0,1-20,20H2283a20.06,20.06,0,0,1-20-20Z"/><path class="cls-5" d="M2002.25,1186a20.06,20.06,0,0,1,20-20h0a20.06,20.06,0,0,1,20,20h0a20.06,20.06,0,0,1-20,20h0a20.06,20.06,0,0,1-20-20Z"/><path class="cls-6" d="M2002.25,1186a20.06,20.06,0,0,1,20-20h0a20.06,20.06,0,0,1,20,20h0a20.06,20.06,0,0,1-20,20h0a20.06,20.06,0,0,1-20-20Z"/><path class="cls-5" d="M1914,1186a20.06,20.06,0,0,1,20-20h0a20.06,20.06,0,0,1,20,20h0a20.06,20.06,0,0,1-20,20h0a20.06,20.06,0,0,1-20-20Z"/><path class="cls-6" d="M1914,1186a20.06,20.06,0,0,1,20-20h0a20.06,20.06,0,0,1,20,20h0a20.06,20.06,0,0,1-20,20h0a20.06,20.06,0,0,1-20-20Z"/><path class="cls-5" d="M2160,1083.5a20.06,20.06,0,0,1,20-20h139a20.06,20.06,0,0,1,20,20h0a20.06,20.06,0,0,1-20,20H2180a20.06,20.06,0,0,1-20-20Z"/><path class="cls-6" d="M2160,1083.5a20.06,20.06,0,0,1,20-20h139a20.06,20.06,0,0,1,20,20h0a20.06,20.06,0,0,1-20,20H2180a20.06,20.06,0,0,1-20-20Z"/><path class="cls-5" d="M2390,1084a20.06,20.06,0,0,1,20-20h138.5a20.06,20.06,0,0,1,20,20h0a20.06,20.06,0,0,1-20,20H2410a20.06,20.06,0,0,1-20-20Z"/><path class="cls-6" d="M2390,1084a20.06,20.06,0,0,1,20-20h138.5a20.06,20.06,0,0,1,20,20h0a20.06,20.06,0,0,1-20,20H2410a20.06,20.06,0,0,1-20-20Z"/><path class="cls-5" d="M2609,1084a20.06,20.06,0,0,1,20-20h139.5a20.06,20.06,0,0,1,20,20h0a20.06,20.06,0,0,1-20,20H2629a20.06,20.06,0,0,1-20-20Z"/><path class="cls-6" d="M2609,1084a20.06,20.06,0,0,1,20-20h139.5a20.06,20.06,0,0,1,20,20h0a20.06,20.06,0,0,1-20,20H2629a20.06,20.06,0,0,1-20-20Z"/><path class="cls-5" d="M2496,1186a20.06,20.06,0,0,1,20-20h227.5a20.06,20.06,0,0,1,20,20h0a20.06,20.06,0,0,1-20,20H2516a20.06,20.06,0,0,1-20-20Z"/><path class="cls-6" d="M2496,1186a20.06,20.06,0,0,1,20-20h227.5a20.06,20.06,0,0,1,20,20h0a20.06,20.06,0,0,1-20,20H2516a20.06,20.06,0,0,1-20-20Z"/><path class="cls-5" d="M2234,987.5a20.06,20.06,0,0,1,20-20h94a20.06,20.06,0,0,1,20,20h0a20.06,20.06,0,0,1-20,20h-94a20.06,20.06,0,0,1-20-20Z"/><path class="cls-6" d="M2234,987.5a20.06,20.06,0,0,1,20-20h94a20.06,20.06,0,0,1,20,20h0a20.06,20.06,0,0,1-20,20h-94a20.06,20.06,0,0,1-20-20Z"/><path class="cls-5" d="M2409,988a20.06,20.06,0,0,1,20-20h271.5a20.06,20.06,0,0,1,20,20h0a20.06,20.06,0,0,1-20,20H2429a20.06,20.06,0,0,1-20-20Z"/><path class="cls-6" d="M2409,988a20.06,20.06,0,0,1,20-20h271.5a20.06,20.06,0,0,1,20,20h0a20.06,20.06,0,0,1-20,20H2429a20.06,20.06,0,0,1-20-20Z"/><path class="cls-5" d="M2425.5,812a20.06,20.06,0,0,1,20-20h50a20.06,20.06,0,0,1,20,20h0a20.06,20.06,0,0,1-20,20h-50a20.06,20.06,0,0,1-20-20Z"/><path class="cls-6" d="M2425.5,812a20.06,20.06,0,0,1,20-20h50a20.06,20.06,0,0,1,20,20h0a20.06,20.06,0,0,1-20,20h-50a20.06,20.06,0,0,1-20-20Z"/><path class="cls-5" d="M2709,812a20.06,20.06,0,0,1,20-20h93.5a20.06,20.06,0,0,1,20,20h0a20.06,20.06,0,0,1-20,20H2729a20.06,20.06,0,0,1-20-20Z"/><path class="cls-6" d="M2709,812a20.06,20.06,0,0,1,20-20h93.5a20.06,20.06,0,0,1,20,20h0a20.06,20.06,0,0,1-20,20H2729a20.06,20.06,0,0,1-20-20Z"/><path class="cls-5" d="M2394,900a20.06,20.06,0,0,1,20-20h97.5a20.06,20.06,0,0,1,20,20h0a20.06,20.06,0,0,1-20,20H2414a20.06,20.06,0,0,1-20-20Z"/><path class="cls-6" d="M2394,900a20.06,20.06,0,0,1,20-20h97.5a20.06,20.06,0,0,1,20,20h0a20.06,20.06,0,0,1-20,20H2414a20.06,20.06,0,0,1-20-20Z"/><path class="cls-5" d="M2546,900a20.06,20.06,0,0,1,20-20h270.5a20.06,20.06,0,0,1,20,20h0a20.06,20.06,0,0,1-20,20H2566a20.06,20.06,0,0,1-20-20Z"/><path class="cls-6" d="M2546,900a20.06,20.06,0,0,1,20-20h270.5a20.06,20.06,0,0,1,20,20h0a20.06,20.06,0,0,1-20,20H2566a20.06,20.06,0,0,1-20-20Z"/><path class="cls-5" d="M2561,812a20.06,20.06,0,0,1,20-20h0a20.06,20.06,0,0,1,20,20h0a20.06,20.06,0,0,1-20,20h0a20.06,20.06,0,0,1-20-20Z"/><path class="cls-6" d="M2561,812a20.06,20.06,0,0,1,20-20h0a20.06,20.06,0,0,1,20,20h0a20.06,20.06,0,0,1-20,20h0a20.06,20.06,0,0,1-20-20Z"/><path class="cls-5" d="M2649,812a20.06,20.06,0,0,1,20-20h0a20.06,20.06,0,0,1,20,20h0a20.06,20.06,0,0,1-20,20h0a20.06,20.06,0,0,1-20-20Z"/><path class="cls-6" d="M2649,812a20.06,20.06,0,0,1,20-20h0a20.06,20.06,0,0,1,20,20h0a20.06,20.06,0,0,1-20,20h0a20.06,20.06,0,0,1-20-20Z"/><path class="cls-5" d="M2765,988a20.06,20.06,0,0,1,20-20h0a20.06,20.06,0,0,1,20,20h0a20.06,20.06,0,0,1-20,20h0a20.06,20.06,0,0,1-20-20Z"/><path class="cls-6" d="M2765,988a20.06,20.06,0,0,1,20-20h0a20.06,20.06,0,0,1,20,20h0a20.06,20.06,0,0,1-20,20h0a20.06,20.06,0,0,1-20-20Z"/><rect class="cls-5" x="617" y="1001" width="127.5" height="66" rx="10" ry="10"/><rect class="cls-6" x="617" y="1001" width="127.5" height="66" rx="10" ry="10"/><rect class="cls-5" x="638.31" y="1477.71" width="66" height="70.22" rx="10" ry="10" transform="translate(-731.19 634.03) rotate(-34)"/><rect class="cls-6" x="638.31" y="1477.71" width="66" height="70.22" rx="10" ry="10" transform="translate(-731.19 634.03) rotate(-34)"/><rect class="cls-5" x="841.31" y="1351.71" width="66" height="70.22" rx="10" ry="10" transform="translate(-626.02 726) rotate(-34)"/><rect class="cls-6" x="841.31" y="1351.71" width="66" height="70.22" rx="10" ry="10" transform="translate(-626.02 726) rotate(-34)"/><rect class="cls-5" x="727.87" y="1390.12" width="66" height="127.58" rx="10" ry="10" transform="translate(-682.94 674.04) rotate(-34)"/><rect class="cls-6" x="727.87" y="1390.12" width="66" height="127.58" rx="10" ry="10" transform="translate(-682.94 674.04) rotate(-34)"/><rect class="cls-5" x="562.82" y="1512.66" width="66" height="129.26" rx="10" ry="10" transform="translate(-780.15 602.83) rotate(-34)"/><rect class="cls-6" x="562.82" y="1512.66" width="66" height="129.26" rx="10" ry="10" transform="translate(-780.15 602.83) rotate(-34)"/><rect class="cls-5" x="1054.54" y="488.3" width="66" height="189.79" rx="10" ry="10" transform="translate(182.05 1421.61) rotate(-71)"/><rect class="cls-6" x="1054.54" y="488.3" width="66" height="189.79" rx="10" ry="10" transform="translate(182.05 1421.61) rotate(-71)"/><rect class="cls-5" x="1012.13" y="373.41" width="79.34" height="125.14" rx="10" ry="10" transform="translate(297.15 1288.53) rotate(-71)"/><rect class="cls-6" x="1012.13" y="373.41" width="79.34" height="125.14" rx="10" ry="10" transform="translate(297.15 1288.53) rotate(-71)"/><rect class="cls-5" x="1055.13" y="256.41" width="79.34" height="125.14" rx="10" ry="10" transform="translate(436.77 1250.28) rotate(-71)"/><rect class="cls-6" x="1055.13" y="256.41" width="79.34" height="125.14" rx="10" ry="10" transform="translate(436.77 1250.28) rotate(-71)"/><rect class="cls-5" x="1102.13" y="136.41" width="79.34" height="125.14" rx="10" ry="10" transform="translate(581.93 1213.79) rotate(-71)"/><rect class="cls-6" x="1102.13" y="136.41" width="79.34" height="125.14" rx="10" ry="10" transform="translate(581.93 1213.79) rotate(-71)"/><rect class="cls-5" x="1291.13" y="136.41" width="79.34" height="125.14" rx="10" ry="10" transform="translate(709.4 1392.49) rotate(-71)"/><rect class="cls-6" x="1291.13" y="136.41" width="79.34" height="125.14" rx="10" ry="10" transform="translate(709.4 1392.49) rotate(-71)"/><rect class="cls-5" x="1245.13" y="255.41" width="79.34" height="125.14" rx="10" ry="10" transform="translate(565.86 1429.26) rotate(-71)"/><rect class="cls-6" x="1245.13" y="255.41" width="79.34" height="125.14" rx="10" ry="10" transform="translate(565.86 1429.26) rotate(-71)"/><rect class="cls-5" x="1199.13" y="373.41" width="79.34" height="125.14" rx="10" ry="10" transform="translate(423.27 1465.35) rotate(-71)"/><rect class="cls-6" x="1199.13" y="373.41" width="79.34" height="125.14" rx="10" ry="10" transform="translate(423.27 1465.35) rotate(-71)"/><rect class="cls-5" x="1632.23" y="278.31" width="125.14" height="79.34" rx="10" ry="10" transform="translate(-11.19 569.1) rotate(-19)"/><rect class="cls-6" x="1632.23" y="278.31" width="125.14" height="79.34" rx="10" ry="10" transform="translate(-11.19 569.1) rotate(-19)"/><rect class="cls-5" x="1589.23" y="160.31" width="125.14" height="79.34" rx="10" ry="10" transform="matrix(0.95, -0.33, 0.33, 0.95, 24.89, 548.67)"/><rect class="cls-6" x="1589.23" y="160.31" width="125.14" height="79.34" rx="10" ry="10" transform="matrix(0.95, -0.33, 0.33, 0.95, 24.89, 548.67)"/><rect class="cls-5" x="1774.23" y="159.31" width="125.14" height="79.34" rx="10" ry="10" transform="translate(35.29 608.84) rotate(-19)"/><rect class="cls-6" x="1774.23" y="159.31" width="125.14" height="79.34" rx="10" ry="10" transform="translate(35.29 608.84) rotate(-19)"/><rect class="cls-5" x="1819.23" y="278.31" width="125.14" height="79.34" rx="10" ry="10" transform="translate(-1 629.98) rotate(-19)"/><rect class="cls-6" x="1819.23" y="278.31" width="125.14" height="79.34" rx="10" ry="10" transform="translate(-1 629.98) rotate(-19)"/><rect class="cls-5" x="1676.23" y="395.31" width="125.14" height="79.34" rx="10" ry="10" transform="translate(-46.88 589.8) rotate(-19)"/><rect class="cls-6" x="1676.23" y="395.31" width="125.14" height="79.34" rx="10" ry="10" transform="translate(-46.88 589.8) rotate(-19)"/><rect class="cls-5" x="1864.23" y="395.31" width="125.14" height="79.34" rx="10" ry="10" transform="translate(-36.64 651) rotate(-19)"/><rect class="cls-6" x="1864.23" y="395.31" width="125.14" height="79.34" rx="10" ry="10" transform="translate(-36.64 651) rotate(-19)"/><rect class="cls-5" x="1822" y="790" width="244" height="66" rx="10" ry="10"/><rect class="cls-6" x="1822" y="790" width="244" height="66" rx="10" ry="10"/><rect class="cls-5" x="2134" y="790" width="244" height="66" rx="10" ry="10"/><rect class="cls-6" x="2134" y="790" width="244" height="66" rx="10" ry="10"/><rect class="cls-5" x="2096" y="927" width="128" height="66" rx="10" ry="10"/><rect class="cls-6" x="2096" y="927" width="128" height="66" rx="10" ry="10"/><rect class="cls-5" x="2158.9" y="1358.49" width="68.56" height="66" rx="10" ry="10" transform="translate(-186.83 2431.61) rotate(-56)"/><rect class="cls-6" x="2158.9" y="1358.49" width="68.56" height="66" rx="10" ry="10" transform="translate(-186.83 2431.61) rotate(-56)"/><rect class="cls-5" x="2269.9" y="1372.49" width="68.56" height="66" rx="10" ry="10" transform="translate(-149.51 2529.8) rotate(-56)"/><rect class="cls-6" x="2269.9" y="1372.49" width="68.56" height="66" rx="10" ry="10" transform="translate(-149.51 2529.8) rotate(-56)"/><rect class="cls-5" x="2373.42" y="1411.2" width="128.18" height="66" rx="10" ry="10" transform="translate(-122.83 2657.4) rotate(-56)"/><rect class="cls-6" x="2373.42" y="1411.2" width="128.18" height="66" rx="10" ry="10" transform="translate(-122.83 2657.4) rotate(-56)"/><rect class="cls-5" x="1854.74" y="533.39" width="146.39" height="66" rx="10" ry="10" transform="translate(-79.36 658.53) rotate(-19)"/><rect class="cls-6" x="1854.74" y="533.39" width="146.39" height="66" rx="10" ry="10" transform="translate(-79.36 658.53) rotate(-19)"/><rect class="cls-5" x="2211.93" y="1459.06" width="67.71" height="66" rx="10" ry="10" transform="translate(-247.02 2519.55) rotate(-56)"/><rect class="cls-6" x="2211.93" y="1459.06" width="67.71" height="66" rx="10" ry="10" transform="translate(-247.02 2519.55) rotate(-56)"/><path class="cls-5" d="M2494.78,1524a20.06,20.06,0,0,1-5.4-27.76l54.87-81.35a20,20,0,0,1,33.16,22.37l-54.87,81.35A20.06,20.06,0,0,1,2494.78,1524Z"/><path class="cls-6" d="M2494.78,1524a20.06,20.06,0,0,1-5.4-27.76l54.87-81.35a20,20,0,0,1,33.16,22.37l-54.87,81.35A20.06,20.06,0,0,1,2494.78,1524Z"/><path class="cls-5" d="M2396,189a20.06,20.06,0,0,1,20-20h47.5a20.06,20.06,0,0,1,20,20h0a20.06,20.06,0,0,1-20,20H2416a20.06,20.06,0,0,1-20-20Z"/><path class="cls-6" d="M2396,189a20.06,20.06,0,0,1,20-20h47.5a20.06,20.06,0,0,1,20,20h0a20.06,20.06,0,0,1-20,20H2416a20.06,20.06,0,0,1-20-20Z"/><path class="cls-5" d="M2341,189a20.06,20.06,0,0,1,20-20h0a20.06,20.06,0,0,1,20,20h0a20.06,20.06,0,0,1-20,20h0a20.06,20.06,0,0,1-20-20Z"/><path class="cls-6" d="M2341,189a20.06,20.06,0,0,1,20-20h0a20.06,20.06,0,0,1,20,20h0a20.06,20.06,0,0,1-20,20h0a20.06,20.06,0,0,1-20-20Z"/><path class="cls-5" d="M2500,189a20.06,20.06,0,0,1,20-20h137.5a20.06,20.06,0,0,1,20,20h0a20.06,20.06,0,0,1-20,20H2520a20.06,20.06,0,0,1-20-20Z"/><path class="cls-6" d="M2500,189a20.06,20.06,0,0,1,20-20h137.5a20.06,20.06,0,0,1,20,20h0a20.06,20.06,0,0,1-20,20H2520a20.06,20.06,0,0,1-20-20Z"/><path class="cls-5" d="M2396,291a20.06,20.06,0,0,1,20-20h47.5a20.06,20.06,0,0,1,20,20h0a20.06,20.06,0,0,1-20,20H2416a20.06,20.06,0,0,1-20-20Z"/><path class="cls-6" d="M2396,291a20.06,20.06,0,0,1,20-20h47.5a20.06,20.06,0,0,1,20,20h0a20.06,20.06,0,0,1-20,20H2416a20.06,20.06,0,0,1-20-20Z"/><path class="cls-5" d="M2341,291a20.06,20.06,0,0,1,20-20h0a20.06,20.06,0,0,1,20,20h0a20.06,20.06,0,0,1-20,20h0a20.06,20.06,0,0,1-20-20Z"/><path class="cls-6" d="M2341,291a20.06,20.06,0,0,1,20-20h0a20.06,20.06,0,0,1,20,20h0a20.06,20.06,0,0,1-20,20h0a20.06,20.06,0,0,1-20-20Z"/><path class="cls-5" d="M2500,291a20.06,20.06,0,0,1,20-20h137.5a20.06,20.06,0,0,1,20,20h0a20.06,20.06,0,0,1-20,20H2520a20.06,20.06,0,0,1-20-20Z"/><path class="cls-6" d="M2500,291a20.06,20.06,0,0,1,20-20h137.5a20.06,20.06,0,0,1,20,20h0a20.06,20.06,0,0,1-20,20H2520a20.06,20.06,0,0,1-20-20Z"/><path class="cls-5" d="M2396,392a20.06,20.06,0,0,1,20-20h47.5a20.06,20.06,0,0,1,20,20h0a20.06,20.06,0,0,1-20,20H2416a20.06,20.06,0,0,1-20-20Z"/><path class="cls-6" d="M2396,392a20.06,20.06,0,0,1,20-20h47.5a20.06,20.06,0,0,1,20,20h0a20.06,20.06,0,0,1-20,20H2416a20.06,20.06,0,0,1-20-20Z"/><path class="cls-5" d="M2341,392a20.06,20.06,0,0,1,20-20h0a20.06,20.06,0,0,1,20,20h0a20.06,20.06,0,0,1-20,20h0a20.06,20.06,0,0,1-20-20Z"/><path class="cls-6" d="M2341,392a20.06,20.06,0,0,1,20-20h0a20.06,20.06,0,0,1,20,20h0a20.06,20.06,0,0,1-20,20h0a20.06,20.06,0,0,1-20-20Z"/><path class="cls-5" d="M2500,392a20.06,20.06,0,0,1,20-20h137.5a20.06,20.06,0,0,1,20,20h0a20.06,20.06,0,0,1-20,20H2520a20.06,20.06,0,0,1-20-20Z"/><path class="cls-6" d="M2500,392a20.06,20.06,0,0,1,20-20h137.5a20.06,20.06,0,0,1,20,20h0a20.06,20.06,0,0,1-20,20H2520a20.06,20.06,0,0,1-20-20Z"/><path class="cls-5" d="M2514,492a20.06,20.06,0,0,1,20-20h136.5a20.06,20.06,0,0,1,20,20h0a20.06,20.06,0,0,1-20,20H2534a20.06,20.06,0,0,1-20-20Z"/><path class="cls-6" d="M2514,492a20.06,20.06,0,0,1,20-20h136.5a20.06,20.06,0,0,1,20,20h0a20.06,20.06,0,0,1-20,20H2534a20.06,20.06,0,0,1-20-20Z"/><path class="cls-5" d="M2325,492a20.06,20.06,0,0,1,20-20h136.5a20.06,20.06,0,0,1,20,20h0a20.06,20.06,0,0,1-20,20H2345a20.06,20.06,0,0,1-20-20Z"/><path class="cls-6" d="M2325,492a20.06,20.06,0,0,1,20-20h136.5a20.06,20.06,0,0,1,20,20h0a20.06,20.06,0,0,1-20,20H2345a20.06,20.06,0,0,1-20-20Z"/></g><g id="details"><circle class="cls-7" cx="2453" cy="1257" r="16.5"/><circle class="cls-7" cx="758" cy="1214" r="16.5"/><path class="cls-8" d="M2352,1564l7.28-73.65q-3.59-.35-7.28-.35a73.73,73.73,0,0,0-30.63,6.62L2352,1564"/><line class="cls-8" x1="2306" y1="1531" x2="2352" y2="1564"/><path class="cls-8" d="M2352,1564l-67.68,30a73.72,73.72,0,0,1-6.32-30q0-3.39.3-6.7l73.7,6.7"/><path class="cls-8" d="M538.94,1626.25q.06-1.12.06-2.25a44,44,0,0,0-24.5-39.45"/><polygon points="517.35 1582.67 506.2 1581.44 515.24 1588.08 517.35 1582.67"/><line class="cls-8" x1="622" y1="1411" x2="658.08" y2="1369.49"/><line class="cls-8" x1="622" y1="1411" x2="674.02" y2="1393.09"/><line class="cls-8" x1="622" y1="1411" x2="675.99" y2="1421.5"/><line class="cls-8" x1="622" y1="1411" x2="632.5" y2="1357"/><line class="cls-8" x1="481.93" y1="1422.46" x2="506.04" y2="1373.03"/><line class="cls-8" x1="481.93" y1="1422.46" x2="527.54" y2="1391.7"/><line class="cls-8" x1="481.94" y1="1422.46" x2="536.8" y2="1418.62"/><line class="cls-8" x1="341.93" y1="1451.46" x2="366.04" y2="1402.03"/><line class="cls-8" x1="341.93" y1="1451.46" x2="387.54" y2="1420.7"/><line class="cls-8" x1="341.94" y1="1451.46" x2="396.8" y2="1447.62"/><line class="cls-8" x1="408.93" y1="1549.46" x2="433.04" y2="1500.03"/><line class="cls-8" x1="408.93" y1="1549.46" x2="454.54" y2="1518.7"/><line class="cls-8" x1="408.94" y1="1549.46" x2="463.8" y2="1545.62"/></g><g id="labels"><path d="M68.5,711.65a6.59,6.59,0,0,1-4.33,1.27h-3.6v6.21H57V701.86h7.42a6,6,0,0,1,4.09,1.34A5.21,5.21,0,0,1,70,707.33Q70,710.39,68.5,711.65Zm-2.75-6.22a2.91,2.91,0,0,0-1.92-.57H60.58v5.09h3.25a2.76,2.76,0,0,0,1.92-.62,2.54,2.54,0,0,0,.69-2A2.38,2.38,0,0,0,65.75,705.43Z"/><path d="M77.71,711.36a5.3,5.3,0,0,0,1.33-.29,1,1,0,0,0,.72-.95,1.12,1.12,0,0,0-.55-1.08,3.49,3.49,0,0,0-1.62-.3,2.13,2.13,0,0,0-1.7.59,2.41,2.41,0,0,0-.48,1.17H72.19a4.89,4.89,0,0,1,.94-2.75q1.33-1.69,4.57-1.69a8.15,8.15,0,0,1,3.74.83A3.19,3.19,0,0,1,83.08,710v5.86q0,.61,0,1.48a1.86,1.86,0,0,0,.2.89,1.2,1.2,0,0,0,.49.39v.49H80.16a3.72,3.72,0,0,1-.21-.73q-.06-.34-.09-.77a6.89,6.89,0,0,1-1.6,1.28,4.84,4.84,0,0,1-2.45.62,4.23,4.23,0,0,1-2.88-1,3.52,3.52,0,0,1-1.14-2.81,3.64,3.64,0,0,1,1.83-3.41,8.17,8.17,0,0,1,3-.82Zm2,1.56a3.7,3.7,0,0,1-.65.32,5.46,5.46,0,0,1-.9.23l-.76.14a5,5,0,0,0-1.54.46,1.52,1.52,0,0,0-.79,1.42,1.48,1.48,0,0,0,.48,1.24,1.83,1.83,0,0,0,1.17.38,3.49,3.49,0,0,0,2-.63,2.68,2.68,0,0,0,1-2.31Z"/><path d="M96.29,707.09a4.22,4.22,0,0,1,1.25,3.44v8.6H94.13v-7.77a3.56,3.56,0,0,0-.27-1.55,1.88,1.88,0,0,0-1.86-1,2.31,2.31,0,0,0-2.31,1.44,5,5,0,0,0-.33,1.95v6.91H86V706.38h3.23v1.86a5.65,5.65,0,0,1,1.21-1.42,4.2,4.2,0,0,1,2.6-.77A4.89,4.89,0,0,1,96.29,707.09Z"/><path d="M109,706.62a5.19,5.19,0,0,1,2.21,1.89,6.29,6.29,0,0,1,1,2.64,16.34,16.34,0,0,1,.11,2.54H103a3.06,3.06,0,0,0,1.34,2.7,3.39,3.39,0,0,0,1.84.48,2.82,2.82,0,0,0,1.85-.59,2.79,2.79,0,0,0,.69-.88h3.41a4.17,4.17,0,0,1-1.24,2.31,6.21,6.21,0,0,1-4.81,1.86,7,7,0,0,1-4.5-1.57q-1.95-1.57-1.95-5.11a6.92,6.92,0,0,1,1.76-5.09A6.16,6.16,0,0,1,106,706,7.28,7.28,0,0,1,109,706.62Zm-5,2.88a3.47,3.47,0,0,0-.89,2h5.75a2.79,2.79,0,0,0-.89-2,2.93,2.93,0,0,0-2-.69A2.65,2.65,0,0,0,104,709.5Z"/><path d="M117.41,719.13h-3.34V701.86h3.34Z"/><path d="M127.06,711.83a4.1,4.1,0,0,1,1.89-1.75,4,4,0,0,1-1.61-1.78,5,5,0,0,1-.37-1.79,4.17,4.17,0,0,1,1.4-3.16,6.61,6.61,0,0,1,7.89,0,4.17,4.17,0,0,1,1.4,3.16,5,5,0,0,1-.37,1.79,3.41,3.41,0,0,1-1.6,1.66,4.72,4.72,0,0,1,1.9,1.86,5.3,5.3,0,0,1,.64,2.59,4.84,4.84,0,0,1-1.59,3.65,6.2,6.2,0,0,1-4.44,1.51,5.76,5.76,0,0,1-4.32-1.51,5,5,0,0,1-1.47-3.65A5.22,5.22,0,0,1,127.06,711.83Zm3.47,4.31a2.69,2.69,0,0,0,3.6,0,3.25,3.25,0,0,0,0-3.92,2.71,2.71,0,0,0-3.57,0,3.25,3.25,0,0,0,0,3.92Zm.21-7.73a2.1,2.1,0,0,0,1.58.59,2.08,2.08,0,0,0,1.58-.59,2.1,2.1,0,0,0,.56-1.51,2.15,2.15,0,0,0-.56-1.58,2.11,2.11,0,0,0-1.58-.57,2,2,0,0,0-2.15,2.14A2.07,2.07,0,0,0,130.74,708.41Z"/><path d="M165.1,1379.47a6.58,6.58,0,0,1-3.52-2.82l-2.06-2.95-5.09,3.56-2.06-2.94,14.16-9.9,4.25,6.08a6,6,0,0,1,1.25,4.12,5.21,5.21,0,0,1-2.52,3.62Q167,1380,165.1,1379.47Zm3.52-5.82a2.91,2.91,0,0,0-.63-1.9l-1.86-2.67L162,1372l1.86,2.67a2.75,2.75,0,0,0,1.61,1.22,2.53,2.53,0,0,0,2-.57A2.38,2.38,0,0,0,168.62,1373.65Z"/><path d="M170.61,1386.84a5.3,5.3,0,0,0,1,.93,1,1,0,0,0,1.19,0,1.12,1.12,0,0,0,.57-1.07,3.49,3.49,0,0,0-.68-1.5,2.13,2.13,0,0,0-1.45-1.06,2.42,2.42,0,0,0-1.23.28l-1.85-2.64a4.88,4.88,0,0,1,2.8-.81q2.14.12,4,2.78a8.15,8.15,0,0,1,1.46,3.54,3.19,3.19,0,0,1-1.64,3.14l-4.8,3.36-1.2.87a1.88,1.88,0,0,0-.62.67,1.21,1.21,0,0,0,0,.63l-.4.28-2.08-3a3.78,3.78,0,0,1,.47-.59c.16-.16.36-.34.58-.52a6.88,6.88,0,0,1-2-.58,4.83,4.83,0,0,1-1.91-1.65A4.22,4.22,0,0,1,162,1387a3.51,3.51,0,0,1,1.65-2.54,3.64,3.64,0,0,1,3.84-.46,8.17,8.17,0,0,1,2.36,1.95Zm-.11,2.57a3.62,3.62,0,0,1-.64-.35,5.37,5.37,0,0,1-.7-.6l-.55-.54a5,5,0,0,0-1.25-1,1.52,1.52,0,0,0-1.61.17,1.48,1.48,0,0,0-.74,1.1,1.83,1.83,0,0,0,.36,1.18,3.48,3.48,0,0,0,1.67,1.29,2.68,2.68,0,0,0,2.44-.54Z"/><path d="M184.76,1399.63a4.23,4.23,0,0,1-2.1,3l-7,4.93-2-2.8,6.37-4.45a3.55,3.55,0,0,0,1.11-1.11,1.88,1.88,0,0,0-.26-2.09,2.3,2.3,0,0,0-2.51-1.07,4.93,4.93,0,0,0-1.78.85l-5.67,4-1.91-2.74,10.45-7.31,1.85,2.65-1.53,1.07a5.67,5.67,0,0,1,1.86.18,4.2,4.2,0,0,1,2.13,1.69A4.9,4.9,0,0,1,184.76,1399.63Z"/><path d="M192.42,1409.75a5.19,5.19,0,0,1-.28,2.89,6.28,6.28,0,0,1-1.58,2.35,16.16,16.16,0,0,1-2,1.54l-5.33-7.62a3.07,3.07,0,0,0-1.44,2.64,3.4,3.4,0,0,0,.66,1.79,2.59,2.59,0,0,0,2.66,1.24l2,2.79a4.17,4.17,0,0,1-2.6.31,6.21,6.21,0,0,1-4.28-2.87,7,7,0,0,1-1.29-4.59q.17-2.5,3.07-4.53a6.92,6.92,0,0,1,5.18-1.47,6.16,6.16,0,0,1,4.07,2.73A7.28,7.28,0,0,1,192.42,1409.75Zm-5.23-2.44a3.48,3.48,0,0,0-2.13.4l3.3,4.71a2.78,2.78,0,0,0,1.14-1.89,2.93,2.93,0,0,0-.57-2A2.65,2.65,0,0,0,187.19,1407.31Z"/><path d="M187,1423.84l-1.91-2.74,14.16-9.9,1.91,2.74Z"/><path d="M210.65,1433a21.25,21.25,0,0,0-3.35-.21,21.64,21.64,0,0,0-8.4,1.56,16,16,0,0,0-3.4,1.68l-2-2.84a20.42,20.42,0,0,1,9.51-3,22.43,22.43,0,0,1,5.26.08l-4.85-6.94,2.49-1.68,6.88,9.83Z"/><path d="M1018.46,25.65a6.58,6.58,0,0,1-4.49.48l-3.54-.63-1.1,6.11L1005.8,31l3-17,7.3,1.31a6,6,0,0,1,3.79,2,5.22,5.22,0,0,1,.77,4.34Q1020.17,24.67,1018.46,25.65ZM1016.84,19a2.91,2.91,0,0,0-1.79-.9l-3.2-.57-.9,5,3.2.57a2.76,2.76,0,0,0,2-.27,2.54,2.54,0,0,0,1-1.82A2.38,2.38,0,0,0,1016.84,19Z"/><path d="M1027.56,27a5.32,5.32,0,0,0,1.37-.05,1,1,0,0,0,.88-.81,1.12,1.12,0,0,0-.35-1.17,3.49,3.49,0,0,0-1.54-.58,2.13,2.13,0,0,0-1.77.28,2.41,2.41,0,0,0-.68,1.07l-3.17-.57a4.89,4.89,0,0,1,1.41-2.54q1.61-1.43,4.79-.86a8.14,8.14,0,0,1,3.54,1.48,3.19,3.19,0,0,1,1.06,3.38l-1,5.77q-.11.6-.24,1.46a1.84,1.84,0,0,0,0,.91,1.18,1.18,0,0,0,.42.47l-.09.48-3.58-.64a3.82,3.82,0,0,1-.08-.75c0-.23,0-.49,0-.78a6.9,6.9,0,0,1-1.8,1,4.86,4.86,0,0,1-2.52.18,4.23,4.23,0,0,1-2.66-1.48,3.52,3.52,0,0,1-.62-3,3.64,3.64,0,0,1,2.4-3,8.2,8.2,0,0,1,3-.29Zm1.74,1.89a3.63,3.63,0,0,1-.7.2,5.29,5.29,0,0,1-.92.07h-.77a5,5,0,0,0-1.59.18,1.52,1.52,0,0,0-1,1.26,1.48,1.48,0,0,0,.26,1.3,1.83,1.83,0,0,0,1.09.58,3.49,3.49,0,0,0,2.1-.27,2.68,2.68,0,0,0,1.35-2.1Z"/><path d="M1046.62,26.06a4.23,4.23,0,0,1,.63,3.61l-1.52,8.47-3.37-.6,1.37-7.65a3.56,3.56,0,0,0,0-1.57,1.88,1.88,0,0,0-1.66-1.3,2.31,2.31,0,0,0-2.53,1,4.94,4.94,0,0,0-.66,1.86l-1.22,6.8-3.29-.59,2.25-12.55,3.18.57-.33,1.83a5.63,5.63,0,0,1,1.44-1.18,4.21,4.21,0,0,1,2.7-.3A4.9,4.9,0,0,1,1046.62,26.06Z"/><path d="M1059.18,27.84a5.19,5.19,0,0,1,1.84,2.25,6.29,6.29,0,0,1,.54,2.78,16.41,16.41,0,0,1-.34,2.51l-9.16-1.64a3.06,3.06,0,0,0,.84,2.89,3.39,3.39,0,0,0,1.73.8,2.6,2.6,0,0,0,2.76-1l3.36.6a4.17,4.17,0,0,1-1.63,2.05,6.21,6.21,0,0,1-5.06,1,7,7,0,0,1-4.15-2.34q-1.64-1.89-1-5.38a6.92,6.92,0,0,1,2.63-4.7,6.16,6.16,0,0,1,4.81-.94A7.28,7.28,0,0,1,1059.18,27.84Zm-5.43,2a3.47,3.47,0,0,0-1.22,1.79l5.66,1a2.79,2.79,0,0,0-.52-2.14,2.92,2.92,0,0,0-1.83-1A2.65,2.65,0,0,0,1053.76,29.79Z"/><path d="M1065.28,41.64l-3.29-.59,3-17,3.29.59Z"/><path d="M1078.49,28.33a5.82,5.82,0,0,1,9,3.37,13.34,13.34,0,0,1-.1,5.19,14.6,14.6,0,0,1-1.68,4.93,5.5,5.5,0,0,1-6.12,2.89,5.62,5.62,0,0,1-3.18-1.72,4.46,4.46,0,0,1-1.14-3.56l3.28.59a2,2,0,0,0,.41,1.31,2,2,0,0,0,1.27.7,2.38,2.38,0,0,0,2.61-1.39,10.69,10.69,0,0,0,1-2.82,3.63,3.63,0,0,1-1.11.69,4.43,4.43,0,0,1-2.37.15,5.25,5.25,0,0,1-3.29-2,5.13,5.13,0,0,1-.83-4.25A6.23,6.23,0,0,1,1078.49,28.33Zm4.34,7.63a2.76,2.76,0,0,0,1.56-2.28,3.56,3.56,0,0,0-.26-2.37,2.23,2.23,0,0,0-1.67-1.16,2.3,2.3,0,0,0-1.53.21,3,3,0,0,0-1.39,2.33,3.53,3.53,0,0,0,.21,2.34,2.3,2.3,0,0,0,1.73,1.08A2.34,2.34,0,0,0,1082.83,36Z"/><path d="M2763.14,1426.2a6.59,6.59,0,0,1-1.48,4.26l-2.08,2.93,5.06,3.6-2.08,2.92-14.08-10,4.29-6a6,6,0,0,1,3.46-2.56,5.21,5.21,0,0,1,4.26,1.15Q2763,1424.24,2763.14,1426.2Zm-6.67-1.36a2.9,2.9,0,0,0-1.58,1.23l-1.88,2.65,4.15,2.95L2759,1429a2.76,2.76,0,0,0,.61-1.93,2.53,2.53,0,0,0-1.21-1.7A2.38,2.38,0,0,0,2756.47,1424.85Z"/><path d="M2768.23,1418.53a5.35,5.35,0,0,0,.53-1.26,1,1,0,0,0-.36-1.14,1.12,1.12,0,0,0-1.2-.18,3.48,3.48,0,0,0-1.18,1.15,2.13,2.13,0,0,0-.51,1.72,2.4,2.4,0,0,0,.68,1.07l-1.87,2.63a4.88,4.88,0,0,1-1.7-2.36q-.6-2.06,1.27-4.7a8.14,8.14,0,0,1,2.85-2.57,3.19,3.19,0,0,1,3.51.49l4.78,3.39,1.22.84a1.86,1.86,0,0,0,.84.35,1.2,1.2,0,0,0,.6-.18l.4.29-2.1,3a3.69,3.69,0,0,1-.71-.25c-.21-.1-.44-.22-.69-.37a6.92,6.92,0,0,1,.11,2,4.86,4.86,0,0,1-.91,2.36,4.23,4.23,0,0,1-2.48,1.78,3.52,3.52,0,0,1-2.95-.7,3.64,3.64,0,0,1-1.72-3.47,8.14,8.14,0,0,1,1-2.88Zm2.45-.76a3.77,3.77,0,0,1-.11.71,5.36,5.36,0,0,1-.33.86l-.32.7a5,5,0,0,0-.52,1.52,1.52,1.52,0,0,0,.7,1.46,1.48,1.48,0,0,0,1.29.32,1.83,1.83,0,0,0,1-.73,3.49,3.49,0,0,0,.65-2,2.68,2.68,0,0,0-1.33-2.12Z"/><path d="M2775.51,1400.91a4.23,4.23,0,0,1,3.53,1l7,5-2,2.79-6.33-4.5a3.58,3.58,0,0,0-1.42-.68,1.88,1.88,0,0,0-1.88.95,2.3,2.3,0,0,0-.17,2.72,5,5,0,0,0,1.4,1.39l5.64,4-1.93,2.72-10.39-7.38,1.87-2.64,1.52,1.08a5.66,5.66,0,0,1-.45-1.81,4.21,4.21,0,0,1,.88-2.57A4.89,4.89,0,0,1,2775.51,1400.91Z"/><path d="M2782.47,1390.29a5.19,5.19,0,0,1,2.82-.71,6.28,6.28,0,0,1,2.74.7,16.34,16.34,0,0,1,2.13,1.38l-5.39,7.58a3.06,3.06,0,0,0,3,.47,3.4,3.4,0,0,0,1.46-1.22,2.83,2.83,0,0,0,.6-1.85,2.78,2.78,0,0,0-.32-1.07l2-2.78a4.17,4.17,0,0,1,1.17,2.35,6.21,6.21,0,0,1-1.26,5,7,7,0,0,1-3.89,2.76q-2.41.68-5.3-1.37a6.91,6.91,0,0,1-3.13-4.38,6.16,6.16,0,0,1,1.2-4.75A7.26,7.26,0,0,1,2782.47,1390.29Zm-.54,5.74a3.47,3.47,0,0,0,1.1,1.87l3.33-4.69a2.79,2.79,0,0,0-2.16-.44,2.92,2.92,0,0,0-1.71,1.22A2.65,2.65,0,0,0,2781.93,1396Z"/><path d="M2797.56,1390.66l-1.93,2.72-14.08-10,1.93-2.72Z"/><path d="M2806.7,1371.49l-1.11,1.57,3,2.12-1.89,2.67-3-2.12-3.89,5.48-2.38-1.69-4.79-11.06,2.17-3.06,8.66,6.15,1.11-1.57Zm-5.14,2.72-6-4.24,3.51,7.7Z"/><path d="M2842.44,710.85a6.59,6.59,0,0,1-4.33,1.27h-3.6v6.21h-3.59V701.05h7.42a6,6,0,0,1,4.09,1.34,5.21,5.21,0,0,1,1.53,4.14Q2844,709.58,2842.44,710.85Zm-2.75-6.22a2.91,2.91,0,0,0-1.92-.57h-3.25v5.09h3.25a2.76,2.76,0,0,0,1.92-.62,2.54,2.54,0,0,0,.69-2A2.38,2.38,0,0,0,2839.68,704.63Z"/><path d="M2851.64,710.56a5.3,5.3,0,0,0,1.33-.29,1,1,0,0,0,.72-.95,1.12,1.12,0,0,0-.55-1.08,3.49,3.49,0,0,0-1.62-.3,2.13,2.13,0,0,0-1.7.59,2.41,2.41,0,0,0-.48,1.17h-3.22a4.89,4.89,0,0,1,.94-2.75q1.33-1.69,4.57-1.69a8.15,8.15,0,0,1,3.74.83,3.19,3.19,0,0,1,1.64,3.14v5.86q0,.61,0,1.48a1.86,1.86,0,0,0,.2.89,1.2,1.2,0,0,0,.49.39v.49h-3.63a3.72,3.72,0,0,1-.21-.73q-.06-.34-.09-.77a6.89,6.89,0,0,1-1.6,1.28,4.84,4.84,0,0,1-2.45.62,4.23,4.23,0,0,1-2.88-1,3.52,3.52,0,0,1-1.14-2.81,3.64,3.64,0,0,1,1.83-3.41,8.17,8.17,0,0,1,3-.82Zm2,1.56a3.7,3.7,0,0,1-.65.32,5.46,5.46,0,0,1-.9.23l-.76.14a5,5,0,0,0-1.54.46,1.52,1.52,0,0,0-.79,1.42,1.48,1.48,0,0,0,.48,1.24,1.83,1.83,0,0,0,1.17.38,3.49,3.49,0,0,0,2-.63,2.68,2.68,0,0,0,1-2.31Z"/><path d="M2870.23,706.28a4.22,4.22,0,0,1,1.25,3.44v8.6h-3.42v-7.77a3.56,3.56,0,0,0-.27-1.55,1.88,1.88,0,0,0-1.86-1,2.31,2.31,0,0,0-2.31,1.44,5,5,0,0,0-.33,1.95v6.91H2860V705.58h3.23v1.86a5.65,5.65,0,0,1,1.21-1.42,4.2,4.2,0,0,1,2.6-.77A4.9,4.9,0,0,1,2870.23,706.28Z"/><path d="M2882.91,705.81a5.19,5.19,0,0,1,2.21,1.89,6.28,6.28,0,0,1,1,2.64,16.33,16.33,0,0,1,.11,2.54h-9.3a3.06,3.06,0,0,0,1.34,2.7,3.39,3.39,0,0,0,1.84.48,2.82,2.82,0,0,0,1.85-.59,2.79,2.79,0,0,0,.69-.88h3.41a4.16,4.16,0,0,1-1.24,2.31,6.21,6.21,0,0,1-4.81,1.86,7,7,0,0,1-4.5-1.57q-1.95-1.57-2-5.11a6.92,6.92,0,0,1,1.76-5.09,6.16,6.16,0,0,1,4.57-1.77A7.26,7.26,0,0,1,2882.91,705.81Zm-5,2.89a3.47,3.47,0,0,0-.89,2h5.75a2.79,2.79,0,0,0-.89-2,2.93,2.93,0,0,0-2-.69A2.65,2.65,0,0,0,2877.92,708.7Z"/><path d="M2891.35,718.32H2888V701.05h3.34Z"/><path d="M2903.67,713.78a3.22,3.22,0,0,0,.76,1.68,2.15,2.15,0,0,0,1.64.59,2.21,2.21,0,0,0,1.89-.87,3.59,3.59,0,0,0,.65-2.2,3.83,3.83,0,0,0-.61-2.2,2.13,2.13,0,0,0-1.89-.9,3.25,3.25,0,0,0-1.05.15,2.1,2.1,0,0,0-1.18,1l-3-.14,1.19-9.39h9.35v2.84h-6.94l-.61,3.71a7,7,0,0,1,1.21-.67,5.09,5.09,0,0,1,1.77-.27,5.13,5.13,0,0,1,5.24,5.54,6.48,6.48,0,0,1-1.51,4.21,5.49,5.49,0,0,1-4.52,1.85,6,6,0,0,1-4-1.3,5.06,5.06,0,0,1-1.73-3.69Z"/><path d="M1904.36,31.3a6.58,6.58,0,0,1-4,2l-3.54.67,1.15,6.1-3.52.66-3.19-17,7.29-1.37a6,6,0,0,1,4.26.56,5.21,5.21,0,0,1,2.26,3.78Q1905.62,29.78,1904.36,31.3Zm-3.86-5.61a2.91,2.91,0,0,0-2-.21l-3.2.6.94,5,3.2-.6a2.76,2.76,0,0,0,1.77-1,2.54,2.54,0,0,0,.31-2.06A2.39,2.39,0,0,0,1900.5,25.7Z"/><path d="M1913.35,29.31a5.27,5.27,0,0,0,1.26-.54,1,1,0,0,0,.53-1.07,1.12,1.12,0,0,0-.74-1,3.48,3.48,0,0,0-1.65,0,2.13,2.13,0,0,0-1.56.89,2.41,2.41,0,0,0-.25,1.24l-3.17.6a4.88,4.88,0,0,1,.42-2.88q1-1.9,4.17-2.5a8.14,8.14,0,0,1,3.83.13,3.19,3.19,0,0,1,2.19,2.78l1.08,5.76c.08.4.17.88.3,1.45a1.86,1.86,0,0,0,.36.84,1.2,1.2,0,0,0,.55.29l.09.48-3.57.67a3.65,3.65,0,0,1-.34-.67c-.08-.22-.16-.46-.24-.74a6.92,6.92,0,0,1-1.34,1.55,4.84,4.84,0,0,1-2.29,1.06,4.23,4.23,0,0,1-3-.44,3.52,3.52,0,0,1-1.64-2.55A3.64,3.64,0,0,1,1909.5,31a8.15,8.15,0,0,1,2.75-1.35Zm2.29,1.15a3.8,3.8,0,0,1-.58.44,5.52,5.52,0,0,1-.84.39l-.72.28a5,5,0,0,0-1.42.73,1.53,1.53,0,0,0-.51,1.54,1.48,1.48,0,0,0,.7,1.13,1.83,1.83,0,0,0,1.22.16,3.49,3.49,0,0,0,1.87-1,2.68,2.68,0,0,0,.51-2.45Z"/><path d="M1930.83,21.68a4.22,4.22,0,0,1,1.87,3.15l1.59,8.45-3.36.63-1.44-7.64a3.56,3.56,0,0,0-.55-1.47,1.88,1.88,0,0,0-2-.62,2.31,2.31,0,0,0-2,1.84,5,5,0,0,0,0,2l1.28,6.79-3.28.62-2.36-12.53,3.18-.6.34,1.83a5.65,5.65,0,0,1,.93-1.62,4.21,4.21,0,0,1,2.41-1.24A4.89,4.89,0,0,1,1930.83,21.68Z"/><path d="M1943.2,18.87a5.19,5.19,0,0,1,2.52,1.45,6.28,6.28,0,0,1,1.49,2.41,16.27,16.27,0,0,1,.58,2.47l-9.14,1.72a3.06,3.06,0,0,0,1.81,2.4,3.39,3.39,0,0,0,1.9.13,2.59,2.59,0,0,0,2.23-1.91l3.35-.63a4.17,4.17,0,0,1-.79,2.5,6.2,6.2,0,0,1-4.38,2.72,7,7,0,0,1-4.71-.71q-2.21-1.18-2.86-4.67a6.92,6.92,0,0,1,.79-5.33,6.16,6.16,0,0,1,4.16-2.58A7.27,7.27,0,0,1,1943.2,18.87Zm-4.37,3.76a3.47,3.47,0,0,0-.51,2.11l5.66-1.06a2.79,2.79,0,0,0-1.25-1.82,2.92,2.92,0,0,0-2.07-.31A2.64,2.64,0,0,0,1938.83,22.63Z"/><path d="M1953.81,29.61l-3.28.62-3.19-17,3.28-.62Z"/><path d="M1968.33,13.93a1.71,1.71,0,0,0-.48-.83,1.83,1.83,0,0,0-1.75-.48,2.41,2.41,0,0,0-1.94,2.23,11.42,11.42,0,0,0,0,3,3.75,3.75,0,0,1,1.22-1.33,5.28,5.28,0,0,1,5.71.14,5.5,5.5,0,0,1,2.15,3.59,6.63,6.63,0,0,1-.62,4.38,5.24,5.24,0,0,1-4,2.6,5.07,5.07,0,0,1-5.15-1.76,11,11,0,0,1-2.16-5.1,24.59,24.59,0,0,1-.42-3.14,9.68,9.68,0,0,1,.45-3.76,5.84,5.84,0,0,1,1.51-2.3,5.13,5.13,0,0,1,2.63-1.26,5.57,5.57,0,0,1,3.93.49,4.61,4.61,0,0,1,2.15,2.88Zm-2.12,10.14a2.36,2.36,0,0,0,2,.5,2.08,2.08,0,0,0,1.57-1.15,3.49,3.49,0,0,0,.23-2.25,3.26,3.26,0,0,0-1.14-2.11,2.32,2.32,0,0,0-1.9-.45,2.38,2.38,0,0,0-1.39.79,2.92,2.92,0,0,0-.51,2.6A3.34,3.34,0,0,0,1966.21,24.08Z"/><path d="M2327.44,91.85a6.59,6.59,0,0,1-4.33,1.27h-3.6v6.21h-3.59V82.05h7.42a6,6,0,0,1,4.09,1.34,5.21,5.21,0,0,1,1.53,4.14Q2329,90.58,2327.44,91.85Zm-2.75-6.22a2.91,2.91,0,0,0-1.92-.57h-3.25v5.09h3.25a2.76,2.76,0,0,0,1.92-.62,2.54,2.54,0,0,0,.69-2A2.38,2.38,0,0,0,2324.68,85.63Z"/><path d="M2336.64,91.56a5.3,5.3,0,0,0,1.33-.29,1,1,0,0,0,.72-.95,1.12,1.12,0,0,0-.55-1.08,3.49,3.49,0,0,0-1.62-.3,2.13,2.13,0,0,0-1.7.59,2.41,2.41,0,0,0-.48,1.17h-3.22a4.89,4.89,0,0,1,.94-2.75q1.33-1.69,4.57-1.69a8.15,8.15,0,0,1,3.74.83,3.19,3.19,0,0,1,1.64,3.14v5.86q0,.61,0,1.48a1.86,1.86,0,0,0,.2.89,1.2,1.2,0,0,0,.49.39v.49h-3.63a3.72,3.72,0,0,1-.21-.73q-.06-.34-.09-.77a6.89,6.89,0,0,1-1.6,1.28,4.84,4.84,0,0,1-2.45.62,4.23,4.23,0,0,1-2.88-1,3.52,3.52,0,0,1-1.14-2.81,3.64,3.64,0,0,1,1.83-3.41,8.17,8.17,0,0,1,3-.82Zm2,1.56a3.7,3.7,0,0,1-.65.32,5.46,5.46,0,0,1-.9.23l-.76.14a5,5,0,0,0-1.54.46,1.52,1.52,0,0,0-.79,1.42,1.48,1.48,0,0,0,.48,1.24,1.83,1.83,0,0,0,1.17.38,3.49,3.49,0,0,0,2-.63,2.68,2.68,0,0,0,1-2.31Z"/><path d="M2355.23,87.28a4.22,4.22,0,0,1,1.25,3.44v8.6h-3.42V91.56a3.56,3.56,0,0,0-.27-1.55,1.88,1.88,0,0,0-1.86-1,2.31,2.31,0,0,0-2.31,1.44,5,5,0,0,0-.33,1.95v6.91H2345V86.58h3.23v1.86A5.65,5.65,0,0,1,2349.4,87a4.2,4.2,0,0,1,2.6-.77A4.9,4.9,0,0,1,2355.23,87.28Z"/><path d="M2367.91,86.81a5.19,5.19,0,0,1,2.21,1.89,6.28,6.28,0,0,1,1,2.64,16.33,16.33,0,0,1,.11,2.54h-9.3a3.06,3.06,0,0,0,1.34,2.7,3.39,3.39,0,0,0,1.84.48,2.82,2.82,0,0,0,1.85-.59,2.79,2.79,0,0,0,.69-.88h3.41a4.16,4.16,0,0,1-1.24,2.31,6.21,6.21,0,0,1-4.81,1.86,7,7,0,0,1-4.5-1.57q-1.95-1.57-2-5.11a6.92,6.92,0,0,1,1.76-5.09,6.16,6.16,0,0,1,4.57-1.77A7.26,7.26,0,0,1,2367.91,86.81Zm-5,2.89a3.47,3.47,0,0,0-.89,2h5.75a2.79,2.79,0,0,0-.89-2,2.93,2.93,0,0,0-2-.69A2.65,2.65,0,0,0,2362.92,89.7Z"/><path d="M2376.35,99.32H2373V82.05h3.34Z"/><path d="M2386.25,96a9.44,9.44,0,0,1,3.38-3.6,24.75,24.75,0,0,0,3-2.37,3.5,3.5,0,0,0,1-2.44,2.7,2.7,0,0,0-.6-1.79,2.44,2.44,0,0,0-3.79.42,5.64,5.64,0,0,0-.37,2.09h-3.25a8.19,8.19,0,0,1,.79-3.5,4.9,4.9,0,0,1,4.75-2.54,6,6,0,0,1,4.29,1.49,5.16,5.16,0,0,1,1.6,4,5.35,5.35,0,0,1-1.13,3.35,11.23,11.23,0,0,1-2.43,2.17l-1.34.95q-1.26.89-1.72,1.29a3.75,3.75,0,0,0-.78.93h7.42v2.94h-11.64A8,8,0,0,1,2386.25,96Z"/><path d="M2399.6,96a9.44,9.44,0,0,1,3.38-3.6,24.75,24.75,0,0,0,3-2.37,3.5,3.5,0,0,0,1-2.44,2.7,2.7,0,0,0-.6-1.79,2.44,2.44,0,0,0-3.79.42,5.64,5.64,0,0,0-.37,2.09H2399a8.19,8.19,0,0,1,.79-3.5,4.9,4.9,0,0,1,4.75-2.54,6,6,0,0,1,4.29,1.49,5.16,5.16,0,0,1,1.6,4A5.35,5.35,0,0,1,2409.3,91a11.23,11.23,0,0,1-2.43,2.17l-1.34.95q-1.26.89-1.72,1.29a3.75,3.75,0,0,0-.78.93h7.42v2.94h-11.64A8,8,0,0,1,2399.6,96Z"/><path d="M2420.21,86.61a1.7,1.7,0,0,0-.32-.9,1.83,1.83,0,0,0-1.63-.8,2.41,2.41,0,0,0-2.32,1.83,11.34,11.34,0,0,0-.52,3,3.75,3.75,0,0,1,1.44-1.08,5.28,5.28,0,0,1,5.58,1.19,5.49,5.49,0,0,1,1.45,3.93,6.63,6.63,0,0,1-1.42,4.2,5.24,5.24,0,0,1-4.41,1.82,5.07,5.07,0,0,1-4.73-2.68,10.93,10.93,0,0,1-1.18-5.41,24.62,24.62,0,0,1,.16-3.16,9.68,9.68,0,0,1,1.14-3.61,5.82,5.82,0,0,1,1.9-2,5.14,5.14,0,0,1,2.82-.75,5.58,5.58,0,0,1,3.77,1.21,4.61,4.61,0,0,1,1.58,3.23Zm-4,9.58a2.36,2.36,0,0,0,1.88.87,2.08,2.08,0,0,0,1.75-.84,3.5,3.5,0,0,0,.64-2.17,3.25,3.25,0,0,0-.73-2.28A2.33,2.33,0,0,0,2418,91a2.38,2.38,0,0,0-1.51.52,2.92,2.92,0,0,0-1,2.46A3.33,3.33,0,0,0,2416.25,96.18Z"/><path d="M2433.84,86.41a25.12,25.12,0,0,1,2.71-4.64h2.52l-.71,1.31a19.54,19.54,0,0,0-2.05,5.67,22.44,22.44,0,0,0-.37,4.24,20,20,0,0,0,1,6.6,30.1,30.1,0,0,0,2.16,4.57h-2.47l-.83-1.14a15.23,15.23,0,0,1-1.72-3.07,17.49,17.49,0,0,1-1.63-7.17A15.91,15.91,0,0,1,2433.84,86.41Z"/><path d="M2452.31,82.49a4.26,4.26,0,0,1,1.62,1.21,5.37,5.37,0,0,1,.87,1.45,4.83,4.83,0,0,1,.32,1.82,5.18,5.18,0,0,1-.62,2.42,3.48,3.48,0,0,1-2.05,1.68,3.22,3.22,0,0,1,1.69,1.36,5.68,5.68,0,0,1,.5,2.7v1.16a8.64,8.64,0,0,0,.1,1.61,1.44,1.44,0,0,0,.67,1v.43h-4q-.16-.57-.23-.93a8.51,8.51,0,0,1-.15-1.49l0-1.61a3.26,3.26,0,0,0-.57-2.2,2.91,2.91,0,0,0-2.06-.55h-3.53v6.77h-3.53V82h8.26A7.52,7.52,0,0,1,2452.31,82.49ZM2444.85,85v4.64h3.88a4.14,4.14,0,0,0,1.74-.28,1.94,1.94,0,0,0,1-1.95,2.18,2.18,0,0,0-1-2.11,3.58,3.58,0,0,0-1.67-.3Z"/><path d="M2458.55,99.32V82h3.59v6.59h6.71V82h3.59V99.32h-3.59V91.61h-6.71v7.71Z"/><path d="M2488.68,85.1h-9.14v3.67h8.39v3h-8.39v4.44h9.56v3.11H2476V82h12.67Z"/><path d="M2504.8,83.88a4.39,4.39,0,0,1,.79,2.64,3.85,3.85,0,0,1-.8,2.54,4.13,4.13,0,0,1-1.32,1,3.85,3.85,0,0,1,2,1.52,4.57,4.57,0,0,1,.67,2.53,5.05,5.05,0,0,1-.77,2.75,4.75,4.75,0,0,1-3.17,2.23,12,12,0,0,1-2.44.23H2492V82h8.35Q2503.48,82.09,2504.8,83.88ZM2495.42,85v3.81h4.2a3.48,3.48,0,0,0,1.83-.43,1.63,1.63,0,0,0,.7-1.52,1.55,1.55,0,0,0-.93-1.59,6.5,6.5,0,0,0-2-.27Zm0,6.67v4.61h4.19a4.07,4.07,0,0,0,1.75-.3,2.18,2.18,0,0,0,1.13-2.16,1.86,1.86,0,0,0-1.1-1.85,4.36,4.36,0,0,0-1.73-.29Z"/><path d="M2512.94,86.4a15.92,15.92,0,0,1,1.37,6.38,17.51,17.51,0,0,1-1.62,7.17A15.24,15.24,0,0,1,2511,103l-.83,1.14h-2.47a30.17,30.17,0,0,0,2.15-4.57,20.12,20.12,0,0,0,1-6.6,22.61,22.61,0,0,0-.37-4.24,19.61,19.61,0,0,0-2-5.67l-.71-1.31h2.51A25.07,25.07,0,0,1,2512.94,86.4Z"/></g></svg>