<svg xmlns="http://www.w3.org/2000/svg" viewBox="0 0 50 50"><defs><style>.cls-1{fill:#e6e6e6;stroke:#4d4d4d;stroke-width:2px;}.cls-1,.cls-4{stroke-miterlimit:10;}.cls-2{fill:#fff;}.cls-3{fill:#333;}.cls-4{fill:none;stroke:#666;}</style></defs><title>panel-valve</title><g id="sprites"><circle class="cls-1" cx="25" cy="24" r="18"/><circle class="cls-2" cx="25" cy="24" r="13.5"/><path class="cls-3" d="M13.81,16.45,16,17l5-3V11.1A13.53,13.53,0,0,0,13.81,16.45Z"/><path class="cls-3" d="M29.55,11.3l-.06,2.07,4,4.24,3-.66A13.52,13.52,0,0,0,29.55,11.3Z"/><path class="cls-3" d="M36,25l-1,3-3,.15L20.34,16.51l-2.83,2.83L33,34.84h0a13.55,13.55,0,0,0,1.89-1.71h0a13.43,13.43,0,0,0,3.56-8.76Z"/><circle class="cls-4" cx="25" cy="24" r="13.5"/></g></svg>