<svg xmlns="http://www.w3.org/2000/svg" xmlns:xlink="http://www.w3.org/1999/xlink" viewBox="0 0 75 75"><defs><style>.cls-1,.cls-4,.cls-5,.cls-6{fill:none;}.cls-2{fill:#e6e6e6;}.cls-2,.cls-6{stroke:#4d4d4d;}.cls-2,.cls-4,.cls-5,.cls-6{stroke-miterlimit:10;}.cls-2,.cls-4,.cls-6{stroke-width:2px;}.cls-3{fill:#4d4d4d;}.cls-4,.cls-5{stroke:#e6e6e6;}.cls-6{stroke-linecap:round;}.cls-7{opacity:0.4;}.cls-8{clip-path:url(#clip-path);}.cls-9{fill:red;}</style><clipPath id="clip-path"><path class="cls-1" d="M120,123,85.5,157.5v55l128,1v21h29V123ZM236.5,228.5h-17v-21l-128-1V160l31-31h114Z"/></clipPath></defs><title>panel-tiny-gauge</title><g id="sprites"><circle class="cls-2" cx="38.5" cy="37.5" r="33.5"/><path class="cls-3" d="M38.5,8A29.5,29.5,0,1,0,68,37.5,29.5,29.5,0,0,0,38.5,8Zm8.11,47.22L41.2,43.41a6.5,6.5,0,1,0-5.41,0L30.39,55.22a19.5,19.5,0,1,1,16.22,0Z"/><line class="cls-4" x1="57.46" y1="37.5" x2="63.5" y2="37.5"/><line class="cls-4" x1="13.5" y1="37.5" x2="19.5" y2="37.5"/><line class="cls-4" x1="38.5" y1="18.42" x2="38.5" y2="13"/><line class="cls-5" x1="56.04" y1="30.24" x2="58.83" y2="29.08"/><line class="cls-5" x1="18.17" y1="45.92" x2="20.96" y2="44.76"/><line class="cls-5" x1="51.92" y1="24.08" x2="54.06" y2="21.94"/><line class="cls-5" x1="22.94" y1="53.06" x2="25.1" y2="50.9"/><line class="cls-5" x1="45.76" y1="19.98" x2="46.92" y2="17.17"/><line class="cls-5" x1="31.22" y1="19.92" x2="30.08" y2="17.17"/><line class="cls-5" x1="25.04" y1="24.04" x2="22.94" y2="21.94"/><line class="cls-5" x1="54.06" y1="53.06" x2="51.89" y2="50.89"/><line class="cls-5" x1="20.91" y1="30.22" x2="18.17" y2="29.08"/><line class="cls-5" x1="58.83" y1="45.92" x2="55.99" y2="44.75"/><line class="cls-6" x1="38.5" y1="37.75" x2="49" y2="27.25"/><g class="cls-7"><g class="cls-8"><rect class="cls-9" x="122.88" y="-0.5" width="10" height="398.95" transform="translate(178.15 -32.14) rotate(45)"/><rect class="cls-9" x="137.02" y="13.64" width="10" height="398.95" transform="translate(192.29 -38) rotate(45)"/><rect class="cls-9" x="108.73" y="-14.64" width="10" height="398.95" transform="translate(164.01 -26.28) rotate(45)"/><rect class="cls-9" x="94.59" y="-28.78" width="10" height="398.95" transform="translate(149.87 -20.43) rotate(45)"/><rect class="cls-9" x="80.45" y="-42.93" width="10" height="398.95" transform="translate(135.73 -14.57) rotate(45)"/><rect class="cls-9" x="66.31" y="-57.07" width="10" height="398.95" transform="translate(121.58 -8.71) rotate(45)"/><rect class="cls-9" x="52.16" y="-71.21" width="10" height="398.95" transform="translate(107.44 -2.85) rotate(45)"/><rect class="cls-9" x="38.02" y="-85.35" width="10" height="398.95" transform="translate(93.3 3) rotate(45)"/></g></g></g></svg>