<svg xmlns="http://www.w3.org/2000/svg" viewBox="0 0 128 128"><defs><style>.cls-1{fill:#e6e6e6;}.cls-1,.cls-2,.cls-3,.cls-4{stroke:#4d4d4d;}.cls-1,.cls-2,.cls-3,.cls-4,.cls-6{stroke-miterlimit:10;}.cls-2{fill:#fff;}.cls-3,.cls-4,.cls-6{fill:none;}.cls-3,.cls-6{stroke-width:2px;}.cls-5{fill:#4d4d4d;}.cls-6{stroke:#333;stroke-linecap:round;}</style></defs><title>panel-g-gauge</title><g id="sprites"><circle class="cls-1" cx="63.5" cy="63.5" r="58"/><circle class="cls-2" cx="63.5" cy="63.5" r="53"/><line class="cls-3" x1="102.5" y1="63.5" x2="116.5" y2="63.5"/><line class="cls-3" x1="10.5" y1="63.5" x2="24.5" y2="63.5"/><line class="cls-4" x1="108.91" y1="75.67" x2="114.7" y2="77.22"/><line class="cls-4" x1="12.29" y1="49.78" x2="18.09" y2="51.33"/><line class="cls-3" x1="97.28" y1="83" x2="109.41" y2="90.01"/><line class="cls-3" x1="17.59" y1="37" x2="29.73" y2="44"/><line class="cls-4" x1="96.73" y1="96.73" x2="100.98" y2="100.98"/><line class="cls-4" x1="26.03" y1="26.03" x2="30.26" y2="30.26"/><line class="cls-3" x1="37" y1="17.59" x2="44" y2="29.72"/><line class="cls-4" x1="49.78" y1="12.29" x2="51.33" y2="18.09"/><line class="cls-3" x1="63.5" y1="10.42" x2="63.5" y2="24.5"/><line class="cls-4" x1="77.22" y1="12.29" x2="75.67" y2="18.09"/><line class="cls-3" x1="90" y1="17.59" x2="83" y2="29.72"/><line class="cls-4" x1="100.98" y1="26.02" x2="96.73" y2="30.27"/><line class="cls-3" x1="109.41" y1="37" x2="97.28" y2="44"/><line class="cls-4" x1="18.09" y1="75.67" x2="12.3" y2="77.22"/><line class="cls-4" x1="114.71" y1="49.78" x2="108.91" y2="51.33"/><path class="cls-5" d="M76.12,83.91A24,24,0,1,0,42,74.08l-26,12.79a53,53,0,0,0,75.44,21.71Z"/><line class="cls-6" x1="64" y1="64" x2="24" y2="54"/></g></svg>