<svg xmlns="http://www.w3.org/2000/svg" viewBox="0 0 2960 1830"><defs><style>.cls-1{fill:#e6e6e6;}.cls-2,.cls-4,.cls-6,.cls-8{fill:none;}.cls-2,.cls-8{stroke:#000;}.cls-2,.cls-4,.cls-6,.cls-7,.cls-8{stroke-miterlimit:10;}.cls-2{stroke-width:5px;}.cls-3{fill:#f2f2f2;}.cls-4{stroke:gray;stroke-width:3px;}.cls-5{fill:#ddd;}.cls-6{stroke:#b3b3b3;}.cls-7{fill:#4d4d4d;stroke:#c1272d;stroke-width:8px;}</style></defs><title>panel-cm-aux</title><g id="main_panels" data-name="main panels"><path class="cls-1" d="M930.88,707A9,9,0,0,0,940,717h291a15.76,15.76,0,0,0,13.61-9.33l222.78-575.35a8,8,0,0,0-6.23-11.11L999.84,37.78A9,9,0,0,0,989.12,46Z"/><path class="cls-2" d="M930.88,707A9,9,0,0,0,940,717h291a15.76,15.76,0,0,0,13.61-9.33l222.78-575.35a8,8,0,0,0-6.23-11.11L999.84,37.78A9,9,0,0,0,989.12,46Z"/><path class="cls-3" d="M1229,727a8.57,8.57,0,0,1,8.7,9.92l-71.41,546.17c-.71,5.45-5.51,11.49-10.67,13.41l-177.26,66a62.42,62.42,0,0,1-19.37,3.26l-774-17.55a13.24,13.24,0,0,1-12-10L47,736.79A7.81,7.81,0,0,1,55,727Z"/><path class="cls-2" d="M1229,727a8.57,8.57,0,0,1,8.7,9.92l-71.41,546.17c-.71,5.45-5.51,11.49-10.67,13.41l-177.26,66a62.42,62.42,0,0,1-19.37,3.26l-774-17.55a13.24,13.24,0,0,1-12-10L47,736.79A7.81,7.81,0,0,1,55,727Z"/><path class="cls-3" d="M471.28,1787.8a9.44,9.44,0,0,0,13.63,2.08l639.18-494.76c4.35-3.37,3.42-5.84-2.07-5.49l-946,59.74c-5.49.35-7.41,4.32-4.26,8.83Z"/><path class="cls-2" d="M471.28,1787.8a9.44,9.44,0,0,0,13.63,2.08l639.18-494.76c4.35-3.37,3.42-5.84-2.07-5.49l-946,59.74c-5.49.35-7.41,4.32-4.26,8.83Z"/><path class="cls-1" d="M1734.38,707.06A15.68,15.68,0,0,0,1748,716.4h286.75a9.06,9.06,0,0,0,9.16-10l-56.23-666A8.87,8.87,0,0,0,1977,32.35l-457.22,85.89a8.07,8.07,0,0,0-6.26,11.19Z"/><path class="cls-2" d="M1734.38,707.06A15.68,15.68,0,0,0,1748,716.4h286.75a9.06,9.06,0,0,0,9.16-10l-56.23-666A8.87,8.87,0,0,0,1977,32.35l-457.22,85.89a8.07,8.07,0,0,0-6.26,11.19Z"/><path class="cls-3" d="M1740.1,735.37a8.63,8.63,0,0,1,8.76-9.92H2912.44c5.5,0,9,4.39,7.85,9.77l-135,612.08a13.89,13.89,0,0,1-12.14,10.27l-697.6,35.19a53.82,53.82,0,0,1-19.25-3.26L1818.71,1293c-5.1-2.07-9.82-8.23-10.51-13.69Z"/><path class="cls-2" d="M1740.1,735.37a8.63,8.63,0,0,1,8.76-9.92H2912.44c5.5,0,9,4.39,7.85,9.77l-135,612.08a13.89,13.89,0,0,1-12.14,10.27l-697.6,35.19a53.82,53.82,0,0,1-19.25-3.26L1818.71,1293c-5.1-2.07-9.82-8.23-10.51-13.69Z"/><path class="cls-3" d="M2473,1788.78a9.36,9.36,0,0,0,13.6-1.92l303.33-428c3.18-4.49,1.29-8.48-4.19-8.88l-937.41-67.34c-5.49-.39-6.46,2.09-2.16,5.52Z"/><path class="cls-2" d="M2473,1788.78a9.36,9.36,0,0,0,13.6-1.92l303.33-428c3.18-4.49,1.29-8.48-4.19-8.88l-937.41-67.34c-5.49-.39-6.46,2.09-2.16,5.52Z"/></g><g id="subpanels"><path class="cls-1" d="M1748.28,742.92A8.59,8.59,0,0,1,1757,733H2901a7.78,7.78,0,0,1,7.92,9.78l-101.84,479.44A12.93,12.93,0,0,1,2795,1232H2551c-5.5,0-10-4-10-9s-4.5-9-10-9H2416a10,10,0,0,0-10,10v12a10,10,0,0,1-10,10H1823a11.71,11.71,0,0,1-11.28-9.92Z"/><path class="cls-4" d="M1748.28,742.92A8.59,8.59,0,0,1,1757,733H2901a7.78,7.78,0,0,1,7.92,9.78l-101.84,479.44A12.93,12.93,0,0,1,2795,1232H2551c-5.5,0-10-4-10-9s-4.5-9-10-9H2416a10,10,0,0,0-10,10v12a10,10,0,0,1-10,10H1823a11.71,11.71,0,0,1-11.28-9.92Z"/><path class="cls-1" d="M2399,1294a10,10,0,0,0,10,10h116a10,10,0,0,0,10-10v-62a10,10,0,0,0-10-10H2423a10,10,0,0,0-10,10v12c0,5.5-3.15,10-7,10s-7,4.5-7,10Z"/><path class="cls-4" d="M2399,1294a10,10,0,0,0,10,10h116a10,10,0,0,0,10-10v-62a10,10,0,0,0-10-10H2423a10,10,0,0,0-10,10v12c0,5.5-3.15,10-7,10s-7,4.5-7,10Z"/><path class="cls-1" d="M2084.92,1454.44c-1.61,5.26.6,12.37,4.9,15.8l316.37,252.52a9.19,9.19,0,0,0,13.47-2l248.69-362.51c3.11-4.54,1.17-8.58-4.32-9L2139,1310.73a13.15,13.15,0,0,0-12.89,8.83Z"/><path class="cls-4" d="M2084.92,1454.44c-1.61,5.26.6,12.37,4.9,15.8l316.37,252.52a9.19,9.19,0,0,0,13.47-2l248.69-362.51c3.11-4.54,1.17-8.58-4.32-9L2139,1310.73a13.15,13.15,0,0,0-12.89,8.83Z"/><path class="cls-1" d="M57.05,743.79A7.8,7.8,0,0,1,65,734H1221a8.58,8.58,0,0,1,8.72,9.92l-68.43,528.17A11.72,11.72,0,0,1,1150,1282H180a12.89,12.89,0,0,1-12.05-9.79Z"/><path class="cls-4" d="M57.05,743.79A7.8,7.8,0,0,1,65,734H1221a8.58,8.58,0,0,1,8.72,9.92l-68.43,528.17A11.72,11.72,0,0,1,1150,1282H180a12.89,12.89,0,0,1-12.05-9.79Z"/><path class="cls-1" d="M716,1176a10,10,0,0,1,10-10h44a10,10,0,0,1,10,10v6a10,10,0,0,0,10,10h9a10,10,0,0,1,10,10v34a10,10,0,0,1-10,10H726a10,10,0,0,1-10-10Z"/><path class="cls-4" d="M716,1176a10,10,0,0,1,10-10h44a10,10,0,0,1,10,10v6a10,10,0,0,0,10,10h9a10,10,0,0,1,10,10v34a10,10,0,0,1-10,10H726a10,10,0,0,1-10-10Z"/><path class="cls-1" d="M270.73,1485.2c-3.15-4.51-4-12.37-2-17.47l45.5-112.46c2.06-5.1,8.24-9.55,13.73-9.9l615-38.74a13,13,0,0,1,12.73,9l20.51,71.77c1.51,5.29-.82,12.36-5.18,15.72L586.92,1698.9c-4.36,3.36-12.28,5-17.6,3.59l-169.64-44c-5.32-1.38-12.26-6.2-15.41-10.71Z"/><path class="cls-4" d="M270.73,1485.2c-3.15-4.51-4-12.37-2-17.47l45.5-112.46c2.06-5.1,8.24-9.55,13.73-9.9l615-38.74a13,13,0,0,1,12.73,9l20.51,71.77c1.51,5.29-.82,12.36-5.18,15.72L586.92,1698.9c-4.36,3.36-12.28,5-17.6,3.59l-169.64-44c-5.32-1.38-12.26-6.2-15.41-10.71Z"/></g><g id="panels"><rect class="cls-5" x="247" y="800" width="940" height="66" rx="10" ry="10"/><rect class="cls-6" x="247" y="800" width="940" height="66" rx="10" ry="10"/><path class="cls-5" d="M82,832.5a20.06,20.06,0,0,1,20-20h98a20.06,20.06,0,0,1,20,20h0a20.06,20.06,0,0,1-20,20H102a20.06,20.06,0,0,1-20-20Z"/><path class="cls-6" d="M82,832.5a20.06,20.06,0,0,1,20-20h98a20.06,20.06,0,0,1,20,20h0a20.06,20.06,0,0,1-20,20H102a20.06,20.06,0,0,1-20-20Z"/><path class="cls-5" d="M120,945.5a20.06,20.06,0,0,1,20-20H765a20.06,20.06,0,0,1,20,20h0a20.06,20.06,0,0,1-20,20H140a20.06,20.06,0,0,1-20-20Z"/><path class="cls-6" d="M120,945.5a20.06,20.06,0,0,1,20-20H765a20.06,20.06,0,0,1,20,20h0a20.06,20.06,0,0,1-20,20H140a20.06,20.06,0,0,1-20-20Z"/><path class="cls-5" d="M140,1033.5a20.06,20.06,0,0,1,20-20H566a20.06,20.06,0,0,1,20,20h0a20.06,20.06,0,0,1-20,20H160a20.06,20.06,0,0,1-20-20Z"/><path class="cls-6" d="M140,1033.5a20.06,20.06,0,0,1,20-20H566a20.06,20.06,0,0,1,20,20h0a20.06,20.06,0,0,1-20,20H160a20.06,20.06,0,0,1-20-20Z"/><path class="cls-5" d="M151,1133.5a20.06,20.06,0,0,1,20-20H753a20.06,20.06,0,0,1,20,20h0a20.06,20.06,0,0,1-20,20H171a20.06,20.06,0,0,1-20-20Z"/><path class="cls-6" d="M151,1133.5a20.06,20.06,0,0,1,20-20H753a20.06,20.06,0,0,1,20,20h0a20.06,20.06,0,0,1-20,20H171a20.06,20.06,0,0,1-20-20Z"/><path class="cls-5" d="M169,1222.5a20.06,20.06,0,0,1,20-20H683a20.06,20.06,0,0,1,20,20h0a20.06,20.06,0,0,1-20,20H189a20.06,20.06,0,0,1-20-20Z"/><path class="cls-6" d="M169,1222.5a20.06,20.06,0,0,1,20-20H683a20.06,20.06,0,0,1,20,20h0a20.06,20.06,0,0,1-20,20H189a20.06,20.06,0,0,1-20-20Z"/><path class="cls-5" d="M782,1107.5a20.06,20.06,0,0,1,20-20h333a20.06,20.06,0,0,1,20,20h0a20.06,20.06,0,0,1-20,20H802a20.06,20.06,0,0,1-20-20Z"/><path class="cls-6" d="M782,1107.5a20.06,20.06,0,0,1,20-20h333a20.06,20.06,0,0,1,20,20h0a20.06,20.06,0,0,1-20,20H802a20.06,20.06,0,0,1-20-20Z"/><path class="cls-5" d="M825,1222.5a20.06,20.06,0,0,1,20-20h275a20.06,20.06,0,0,1,20,20h0a20.06,20.06,0,0,1-20,20H845a20.06,20.06,0,0,1-20-20Z"/><path class="cls-6" d="M825,1222.5a20.06,20.06,0,0,1,20-20h275a20.06,20.06,0,0,1,20,20h0a20.06,20.06,0,0,1-20,20H845a20.06,20.06,0,0,1-20-20Z"/><path class="cls-5" d="M1826,1083.5a20.06,20.06,0,0,1,20-20h77a20.06,20.06,0,0,1,20,20h0a20.06,20.06,0,0,1-20,20h-77a20.06,20.06,0,0,1-20-20Z"/><path class="cls-6" d="M1826,1083.5a20.06,20.06,0,0,1,20-20h77a20.06,20.06,0,0,1,20,20h0a20.06,20.06,0,0,1-20,20h-77a20.06,20.06,0,0,1-20-20Z"/><path class="cls-5" d="M1958,1083.5a20.06,20.06,0,0,1,20-20h139a20.06,20.06,0,0,1,20,20h0a20.06,20.06,0,0,1-20,20H1978a20.06,20.06,0,0,1-20-20Z"/><path class="cls-6" d="M1958,1083.5a20.06,20.06,0,0,1,20-20h139a20.06,20.06,0,0,1,20,20h0a20.06,20.06,0,0,1-20,20H1978a20.06,20.06,0,0,1-20-20Z"/><path class="cls-5" d="M2087,1186a20.06,20.06,0,0,1,20-20h117a20.06,20.06,0,0,1,20,20h0a20.06,20.06,0,0,1-20,20H2107a20.06,20.06,0,0,1-20-20Z"/><path class="cls-6" d="M2087,1186a20.06,20.06,0,0,1,20-20h117a20.06,20.06,0,0,1,20,20h0a20.06,20.06,0,0,1-20,20H2107a20.06,20.06,0,0,1-20-20Z"/><path class="cls-5" d="M2397.6,1668.08a20.06,20.06,0,0,1-5.4-27.76l53.7-79.61a20,20,0,1,1,33.16,22.37l-53.7,79.61A20.06,20.06,0,0,1,2397.6,1668.08Z"/><path class="cls-6" d="M2397.6,1668.08a20.06,20.06,0,0,1-5.4-27.76l53.7-79.61a20,20,0,1,1,33.16,22.37l-53.7,79.61A20.06,20.06,0,0,1,2397.6,1668.08Z"/><path class="cls-5" d="M2263,1186a20.06,20.06,0,0,1,20-20h50.5a20.06,20.06,0,0,1,20,20h0a20.06,20.06,0,0,1-20,20H2283a20.06,20.06,0,0,1-20-20Z"/><path class="cls-6" d="M2263,1186a20.06,20.06,0,0,1,20-20h50.5a20.06,20.06,0,0,1,20,20h0a20.06,20.06,0,0,1-20,20H2283a20.06,20.06,0,0,1-20-20Z"/><path class="cls-5" d="M2002.25,1186a20.06,20.06,0,0,1,20-20h0a20.06,20.06,0,0,1,20,20h0a20.06,20.06,0,0,1-20,20h0a20.06,20.06,0,0,1-20-20Z"/><path class="cls-6" d="M2002.25,1186a20.06,20.06,0,0,1,20-20h0a20.06,20.06,0,0,1,20,20h0a20.06,20.06,0,0,1-20,20h0a20.06,20.06,0,0,1-20-20Z"/><path class="cls-5" d="M1914,1186a20.06,20.06,0,0,1,20-20h0a20.06,20.06,0,0,1,20,20h0a20.06,20.06,0,0,1-20,20h0a20.06,20.06,0,0,1-20-20Z"/><path class="cls-6" d="M1914,1186a20.06,20.06,0,0,1,20-20h0a20.06,20.06,0,0,1,20,20h0a20.06,20.06,0,0,1-20,20h0a20.06,20.06,0,0,1-20-20Z"/><path class="cls-5" d="M2160,1083.5a20.06,20.06,0,0,1,20-20h139a20.06,20.06,0,0,1,20,20h0a20.06,20.06,0,0,1-20,20H2180a20.06,20.06,0,0,1-20-20Z"/><path class="cls-6" d="M2160,1083.5a20.06,20.06,0,0,1,20-20h139a20.06,20.06,0,0,1,20,20h0a20.06,20.06,0,0,1-20,20H2180a20.06,20.06,0,0,1-20-20Z"/><path class="cls-5" d="M2390,1084a20.06,20.06,0,0,1,20-20h138.5a20.06,20.06,0,0,1,20,20h0a20.06,20.06,0,0,1-20,20H2410a20.06,20.06,0,0,1-20-20Z"/><path class="cls-6" d="M2390,1084a20.06,20.06,0,0,1,20-20h138.5a20.06,20.06,0,0,1,20,20h0a20.06,20.06,0,0,1-20,20H2410a20.06,20.06,0,0,1-20-20Z"/><path class="cls-5" d="M2609,1084a20.06,20.06,0,0,1,20-20h139.5a20.06,20.06,0,0,1,20,20h0a20.06,20.06,0,0,1-20,20H2629a20.06,20.06,0,0,1-20-20Z"/><path class="cls-6" d="M2609,1084a20.06,20.06,0,0,1,20-20h139.5a20.06,20.06,0,0,1,20,20h0a20.06,20.06,0,0,1-20,20H2629a20.06,20.06,0,0,1-20-20Z"/><path class="cls-5" d="M2496,1186a20.06,20.06,0,0,1,20-20h227.5a20.06,20.06,0,0,1,20,20h0a20.06,20.06,0,0,1-20,20H2516a20.06,20.06,0,0,1-20-20Z"/><path class="cls-6" d="M2496,1186a20.06,20.06,0,0,1,20-20h227.5a20.06,20.06,0,0,1,20,20h0a20.06,20.06,0,0,1-20,20H2516a20.06,20.06,0,0,1-20-20Z"/><path class="cls-5" d="M2234,987.5a20.06,20.06,0,0,1,20-20h94a20.06,20.06,0,0,1,20,20h0a20.06,20.06,0,0,1-20,20h-94a20.06,20.06,0,0,1-20-20Z"/><path class="cls-6" d="M2234,987.5a20.06,20.06,0,0,1,20-20h94a20.06,20.06,0,0,1,20,20h0a20.06,20.06,0,0,1-20,20h-94a20.06,20.06,0,0,1-20-20Z"/><path class="cls-5" d="M2409,988a20.06,20.06,0,0,1,20-20h271.5a20.06,20.06,0,0,1,20,20h0a20.06,20.06,0,0,1-20,20H2429a20.06,20.06,0,0,1-20-20Z"/><path class="cls-6" d="M2409,988a20.06,20.06,0,0,1,20-20h271.5a20.06,20.06,0,0,1,20,20h0a20.06,20.06,0,0,1-20,20H2429a20.06,20.06,0,0,1-20-20Z"/><path class="cls-5" d="M2425.5,812a20.06,20.06,0,0,1,20-20h50a20.06,20.06,0,0,1,20,20h0a20.06,20.06,0,0,1-20,20h-50a20.06,20.06,0,0,1-20-20Z"/><path class="cls-6" d="M2425.5,812a20.06,20.06,0,0,1,20-20h50a20.06,20.06,0,0,1,20,20h0a20.06,20.06,0,0,1-20,20h-50a20.06,20.06,0,0,1-20-20Z"/><path class="cls-5" d="M2709,812a20.06,20.06,0,0,1,20-20h93.5a20.06,20.06,0,0,1,20,20h0a20.06,20.06,0,0,1-20,20H2729a20.06,20.06,0,0,1-20-20Z"/><path class="cls-6" d="M2709,812a20.06,20.06,0,0,1,20-20h93.5a20.06,20.06,0,0,1,20,20h0a20.06,20.06,0,0,1-20,20H2729a20.06,20.06,0,0,1-20-20Z"/><path class="cls-5" d="M2394,900a20.06,20.06,0,0,1,20-20h97.5a20.06,20.06,0,0,1,20,20h0a20.06,20.06,0,0,1-20,20H2414a20.06,20.06,0,0,1-20-20Z"/><path class="cls-6" d="M2394,900a20.06,20.06,0,0,1,20-20h97.5a20.06,20.06,0,0,1,20,20h0a20.06,20.06,0,0,1-20,20H2414a20.06,20.06,0,0,1-20-20Z"/><path class="cls-5" d="M2546,900a20.06,20.06,0,0,1,20-20h270.5a20.06,20.06,0,0,1,20,20h0a20.06,20.06,0,0,1-20,20H2566a20.06,20.06,0,0,1-20-20Z"/><path class="cls-6" d="M2546,900a20.06,20.06,0,0,1,20-20h270.5a20.06,20.06,0,0,1,20,20h0a20.06,20.06,0,0,1-20,20H2566a20.06,20.06,0,0,1-20-20Z"/><path class="cls-5" d="M2561,812a20.06,20.06,0,0,1,20-20h0a20.06,20.06,0,0,1,20,20h0a20.06,20.06,0,0,1-20,20h0a20.06,20.06,0,0,1-20-20Z"/><path class="cls-6" d="M2561,812a20.06,20.06,0,0,1,20-20h0a20.06,20.06,0,0,1,20,20h0a20.06,20.06,0,0,1-20,20h0a20.06,20.06,0,0,1-20-20Z"/><path class="cls-5" d="M2649,812a20.06,20.06,0,0,1,20-20h0a20.06,20.06,0,0,1,20,20h0a20.06,20.06,0,0,1-20,20h0a20.06,20.06,0,0,1-20-20Z"/><path class="cls-6" d="M2649,812a20.06,20.06,0,0,1,20-20h0a20.06,20.06,0,0,1,20,20h0a20.06,20.06,0,0,1-20,20h0a20.06,20.06,0,0,1-20-20Z"/><path class="cls-5" d="M2765,988a20.06,20.06,0,0,1,20-20h0a20.06,20.06,0,0,1,20,20h0a20.06,20.06,0,0,1-20,20h0a20.06,20.06,0,0,1-20-20Z"/><path class="cls-6" d="M2765,988a20.06,20.06,0,0,1,20-20h0a20.06,20.06,0,0,1,20,20h0a20.06,20.06,0,0,1-20,20h0a20.06,20.06,0,0,1-20-20Z"/><rect class="cls-5" x="617" y="1001" width="127.5" height="66" rx="10" ry="10"/><rect class="cls-6" x="617" y="1001" width="127.5" height="66" rx="10" ry="10"/><rect class="cls-5" x="638.31" y="1477.71" width="66" height="70.22" rx="10" ry="10" transform="translate(-731.19 634.03) rotate(-34)"/><rect class="cls-6" x="638.31" y="1477.71" width="66" height="70.22" rx="10" ry="10" transform="translate(-731.19 634.03) rotate(-34)"/><rect class="cls-5" x="841.31" y="1351.71" width="66" height="70.22" rx="10" ry="10" transform="translate(-626.02 726) rotate(-34)"/><rect class="cls-6" x="841.31" y="1351.71" width="66" height="70.22" rx="10" ry="10" transform="translate(-626.02 726) rotate(-34)"/><rect class="cls-5" x="727.87" y="1390.12" width="66" height="127.58" rx="10" ry="10" transform="translate(-682.94 674.04) rotate(-34)"/><rect class="cls-6" x="727.87" y="1390.12" width="66" height="127.58" rx="10" ry="10" transform="translate(-682.94 674.04) rotate(-34)"/><rect class="cls-5" x="562.82" y="1512.66" width="66" height="129.26" rx="10" ry="10" transform="matrix(0.83, -0.56, 0.56, 0.83, -780.15, 602.83)"/><rect class="cls-6" x="562.82" y="1512.66" width="66" height="129.26" rx="10" ry="10" transform="matrix(0.83, -0.56, 0.56, 0.83, -780.15, 602.83)"/><rect class="cls-5" x="1054.54" y="488.3" width="66" height="189.79" rx="10" ry="10" transform="translate(182.05 1421.61) rotate(-71)"/><rect class="cls-6" x="1054.54" y="488.3" width="66" height="189.79" rx="10" ry="10" transform="translate(182.05 1421.61) rotate(-71)"/><rect class="cls-5" x="1012.13" y="373.41" width="79.34" height="125.14" rx="10" ry="10" transform="translate(297.15 1288.53) rotate(-71)"/><rect class="cls-6" x="1012.13" y="373.41" width="79.34" height="125.14" rx="10" ry="10" transform="translate(297.15 1288.53) rotate(-71)"/><rect class="cls-5" x="1055.13" y="256.41" width="79.34" height="125.14" rx="10" ry="10" transform="translate(436.77 1250.28) rotate(-71)"/><rect class="cls-6" x="1055.13" y="256.41" width="79.34" height="125.14" rx="10" ry="10" transform="translate(436.77 1250.28) rotate(-71)"/><rect class="cls-5" x="1102.13" y="136.41" width="79.34" height="125.14" rx="10" ry="10" transform="translate(581.93 1213.79) rotate(-71)"/><rect class="cls-6" x="1102.13" y="136.41" width="79.34" height="125.14" rx="10" ry="10" transform="translate(581.93 1213.79) rotate(-71)"/><rect class="cls-5" x="1291.13" y="136.41" width="79.34" height="125.14" rx="10" ry="10" transform="translate(709.4 1392.49) rotate(-71)"/><rect class="cls-6" x="1291.13" y="136.41" width="79.34" height="125.14" rx="10" ry="10" transform="translate(709.4 1392.49) rotate(-71)"/><rect class="cls-5" x="1245.13" y="255.41" width="79.34" height="125.14" rx="10" ry="10" transform="translate(565.86 1429.26) rotate(-71)"/><rect class="cls-6" x="1245.13" y="255.41" width="79.34" height="125.14" rx="10" ry="10" transform="translate(565.86 1429.26) rotate(-71)"/><rect class="cls-5" x="1199.13" y="373.41" width="79.34" height="125.14" rx="10" ry="10" transform="translate(423.27 1465.35) rotate(-71)"/><rect class="cls-6" x="1199.13" y="373.41" width="79.34" height="125.14" rx="10" ry="10" transform="translate(423.27 1465.35) rotate(-71)"/><rect class="cls-5" x="1632.23" y="278.31" width="125.14" height="79.34" rx="10" ry="10" transform="translate(-11.19 569.1) rotate(-19)"/><rect class="cls-6" x="1632.23" y="278.31" width="125.14" height="79.34" rx="10" ry="10" transform="translate(-11.19 569.1) rotate(-19)"/><rect class="cls-5" x="1589.23" y="160.31" width="125.14" height="79.34" rx="10" ry="10" transform="translate(24.89 548.67) rotate(-19)"/><rect class="cls-6" x="1589.23" y="160.31" width="125.14" height="79.34" rx="10" ry="10" transform="translate(24.89 548.67) rotate(-19)"/><rect class="cls-5" x="1774.23" y="159.31" width="125.14" height="79.34" rx="10" ry="10" transform="translate(35.29 608.84) rotate(-19)"/><rect class="cls-6" x="1774.23" y="159.31" width="125.14" height="79.34" rx="10" ry="10" transform="translate(35.29 608.84) rotate(-19)"/><rect class="cls-5" x="1819.23" y="278.31" width="125.14" height="79.34" rx="10" ry="10" transform="translate(-1 629.98) rotate(-19)"/><rect class="cls-6" x="1819.23" y="278.31" width="125.14" height="79.34" rx="10" ry="10" transform="translate(-1 629.98) rotate(-19)"/><rect class="cls-5" x="1676.23" y="395.31" width="125.14" height="79.34" rx="10" ry="10" transform="translate(-46.88 589.8) rotate(-19)"/><rect class="cls-6" x="1676.23" y="395.31" width="125.14" height="79.34" rx="10" ry="10" transform="translate(-46.88 589.8) rotate(-19)"/><rect class="cls-5" x="1864.23" y="395.31" width="125.14" height="79.34" rx="10" ry="10" transform="translate(-36.64 651) rotate(-19)"/><rect class="cls-6" x="1864.23" y="395.31" width="125.14" height="79.34" rx="10" ry="10" transform="translate(-36.64 651) rotate(-19)"/><rect class="cls-5" x="1822" y="790" width="244" height="66" rx="10" ry="10"/><rect class="cls-6" x="1822" y="790" width="244" height="66" rx="10" ry="10"/><rect class="cls-5" x="2134" y="790" width="244" height="66" rx="10" ry="10"/><rect class="cls-6" x="2134" y="790" width="244" height="66" rx="10" ry="10"/><rect class="cls-5" x="2096" y="927" width="128" height="66" rx="10" ry="10"/><rect class="cls-6" x="2096" y="927" width="128" height="66" rx="10" ry="10"/><rect class="cls-5" x="2158.9" y="1358.49" width="68.56" height="66" rx="10" ry="10" transform="translate(-186.83 2431.61) rotate(-56)"/><rect class="cls-6" x="2158.9" y="1358.49" width="68.56" height="66" rx="10" ry="10" transform="translate(-186.83 2431.61) rotate(-56)"/><rect class="cls-5" x="2269.9" y="1372.49" width="68.56" height="66" rx="10" ry="10" transform="translate(-149.51 2529.8) rotate(-56)"/><rect class="cls-6" x="2269.9" y="1372.49" width="68.56" height="66" rx="10" ry="10" transform="translate(-149.51 2529.8) rotate(-56)"/><rect class="cls-5" x="2373.42" y="1411.2" width="128.18" height="66" rx="10" ry="10" transform="translate(-122.83 2657.4) rotate(-56)"/><rect class="cls-6" x="2373.42" y="1411.2" width="128.18" height="66" rx="10" ry="10" transform="translate(-122.83 2657.4) rotate(-56)"/><rect class="cls-5" x="1854.74" y="533.39" width="146.39" height="66" rx="10" ry="10" transform="translate(-79.36 658.53) rotate(-19)"/><rect class="cls-6" x="1854.74" y="533.39" width="146.39" height="66" rx="10" ry="10" transform="translate(-79.36 658.53) rotate(-19)"/><rect class="cls-5" x="2211.93" y="1459.06" width="67.71" height="66" rx="10" ry="10" transform="matrix(0.56, -0.83, 0.83, 0.56, -247.02, 2519.55)"/><rect class="cls-6" x="2211.93" y="1459.06" width="67.71" height="66" rx="10" ry="10" transform="matrix(0.56, -0.83, 0.83, 0.56, -247.02, 2519.55)"/><path class="cls-5" d="M2494.78,1524a20.06,20.06,0,0,1-5.4-27.76l54.87-81.35a20,20,0,0,1,33.16,22.37l-54.87,81.35A20.06,20.06,0,0,1,2494.78,1524Z"/><path class="cls-6" d="M2494.78,1524a20.06,20.06,0,0,1-5.4-27.76l54.87-81.35a20,20,0,0,1,33.16,22.37l-54.87,81.35A20.06,20.06,0,0,1,2494.78,1524Z"/></g><g id="details"><circle class="cls-7" cx="2453" cy="1257" r="16.5"/><circle class="cls-7" cx="758" cy="1214" r="16.5"/><path class="cls-8" d="M2352,1564l7.28-73.65q-3.59-.35-7.28-.35a73.73,73.73,0,0,0-30.63,6.62L2352,1564"/><line class="cls-8" x1="2306" y1="1531" x2="2352" y2="1564"/><path class="cls-8" d="M2352,1564l-67.68,30a73.72,73.72,0,0,1-6.32-30q0-3.39.3-6.7l73.7,6.7"/><path class="cls-8" d="M538.94,1626.25q.06-1.12.06-2.25a44,44,0,0,0-24.5-39.45"/><polygon points="517.35 1582.67 506.2 1581.44 515.24 1588.08 517.35 1582.67"/><line class="cls-8" x1="622" y1="1411" x2="658.08" y2="1369.49"/><line class="cls-8" x1="622" y1="1411" x2="674.02" y2="1393.09"/><line class="cls-8" x1="622" y1="1411" x2="675.99" y2="1421.5"/><line class="cls-8" x1="622" y1="1411" x2="632.5" y2="1357"/><line class="cls-8" x1="481.93" y1="1422.46" x2="506.04" y2="1373.03"/><line class="cls-8" x1="481.93" y1="1422.46" x2="527.54" y2="1391.7"/><line class="cls-8" x1="481.94" y1="1422.46" x2="536.8" y2="1418.62"/><line class="cls-8" x1="341.93" y1="1451.46" x2="366.04" y2="1402.03"/><line class="cls-8" x1="341.93" y1="1451.46" x2="387.54" y2="1420.7"/><line class="cls-8" x1="341.94" y1="1451.46" x2="396.8" y2="1447.62"/><line class="cls-8" x1="408.93" y1="1549.46" x2="433.04" y2="1500.03"/><line class="cls-8" x1="408.93" y1="1549.46" x2="454.54" y2="1518.7"/><line class="cls-8" x1="408.94" y1="1549.46" x2="463.8" y2="1545.62"/></g></svg>