<svg xmlns="http://www.w3.org/2000/svg" viewBox="0 0 50 80"><defs><style>.cls-1{fill:#ccc;}.cls-2{fill:#b3b3b3;}.cls-3{fill:none;stroke:#4d4d4d;stroke-miterlimit:10;stroke-width:2px;}</style></defs><title>panel-guard</title><g id="sprites"><path class="cls-1" d="M40,5H10A4,4,0,0,0,6,9V72c0,2.2,1.35,4,3,4s3-1.8,3-4a4,4,0,0,1,4-4H34a4,4,0,0,1,4,4c0,2.2,1.35,4,3,4s3-1.8,3-4V9A4,4,0,0,0,40,5Zm-.5,52.5h-29v-15h29Z"/><path class="cls-2" d="M9,76c1.65,0,3-1.8,3-4a4,4,0,0,1,4-4H34a4,4,0,0,1,4,4c0,2.2,1.35,4,3,4s3-1.8,3-4V35.85L26.35,42.5H39.5v15h-29v-9L6,50.17V72C6,74.2,7.35,76,9,76Z"/><path class="cls-3" d="M40,5H10A4,4,0,0,0,6,9V72c0,2.2,1.35,4,3,4s3-1.8,3-4a4,4,0,0,1,4-4H34a4,4,0,0,1,4,4c0,2.2,1.35,4,3,4s3-1.8,3-4V9A4,4,0,0,0,40,5Zm-.5,52.5h-29v-15h29Z"/></g></svg>