<svg xmlns="http://www.w3.org/2000/svg" viewBox="0 0 116 116"><defs><style>.cls-1{fill:#e6e6e6;}.cls-1,.cls-3,.cls-4,.cls-5{stroke:#4d4d4d;stroke-miterlimit:10;}.cls-2{fill:#4d4d4d;}.cls-3,.cls-4,.cls-5{fill:none;}.cls-3,.cls-5{stroke-width:2px;}.cls-5{stroke-linecap:round;}</style></defs><title>panel-dblgauge</title><g id="sprites"><circle class="cls-1" cx="58" cy="58" r="52"/><path class="cls-2" d="M57.5,16.5a41,41,0,1,0,41,41A41,41,0,0,0,57.5,16.5ZM47.91,80H32V65.48a9,9,0,0,0,0-17V35H47a34,34,0,0,1,.88,45ZM84,48.52a9,9,0,0,0,0,17V80H68.09A34,34,0,0,1,69,35H84Z"/><line class="cls-3" x1="64" y1="58" x2="52" y2="58"/><line class="cls-3" x1="46.19" y1="40.26" x2="49.42" y2="37.89"/><line class="cls-3" x1="46.2" y1="75.74" x2="49.42" y2="78.11"/><line class="cls-3" x1="50.55" y1="48.76" x2="54.36" y2="47.53"/><line class="cls-3" x1="50.55" y1="67.24" x2="54.35" y2="68.47"/><line class="cls-3" x1="69.36" y1="40.26" x2="66.13" y2="37.89"/><line class="cls-3" x1="69.35" y1="75.74" x2="66.13" y2="78.11"/><line class="cls-3" x1="65" y1="48.76" x2="61.19" y2="47.53"/><line class="cls-3" x1="65" y1="67.24" x2="61.19" y2="68.47"/><line class="cls-4" x1="50.45" y1="43.34" x2="52.23" y2="42.43"/><line class="cls-4" x1="53.57" y1="52.74" x2="55.54" y2="52.41"/><line class="cls-4" x1="50.46" y1="72.66" x2="52.25" y2="73.52"/><line class="cls-4" x1="53.57" y1="63.26" x2="55.54" y2="63.59"/><line class="cls-4" x1="65.54" y1="43.34" x2="63.76" y2="42.43"/><line class="cls-4" x1="62.43" y1="52.74" x2="60.45" y2="52.41"/><line class="cls-4" x1="65.54" y1="72.66" x2="63.74" y2="73.52"/><line class="cls-4" x1="62.43" y1="63.26" x2="60.45" y2="63.59"/><line class="cls-5" x1="29.5" y1="57.5" x2="46.5" y2="46.5"/><line class="cls-5" x1="85" y1="57" x2="68" y2="67"/></g></svg>