<svg xmlns="http://www.w3.org/2000/svg" viewBox="0 0 5572 2144"><defs><style>.cls-1{fill:#f2f2f2;}.cls-10,.cls-11,.cls-12,.cls-2,.cls-3,.cls-5,.cls-7{fill:none;}.cls-10,.cls-2,.cls-3,.cls-8{stroke:#b3b3b3;}.cls-10,.cls-11,.cls-12,.cls-2,.cls-3,.cls-5,.cls-6,.cls-7,.cls-8{stroke-miterlimit:10;}.cls-2,.cls-3,.cls-5{stroke-width:5px;}.cls-2{stroke-dasharray:47.91 7.99;}.cls-3{stroke-dasharray:48.22 8.04;}.cls-4,.cls-6{fill:#e6e6e6;}.cls-11,.cls-12,.cls-5{stroke:#000;}.cls-6,.cls-7{stroke:gray;stroke-width:3px;}.cls-8{fill:#ddd;}.cls-9{fill:#4d4d4d;}.cls-12{stroke-width:1.5px;}.cls-13,.cls-14{fill:#00bf00;}.cls-13{opacity:0.15;}</style></defs><title>panel-lm</title><g id="main_panels" data-name="main panels"><rect class="cls-1" x="61.5" y="52.5" width="1682" height="926" rx="10" ry="10"/><rect class="cls-2" x="61.5" y="52.5" width="1682" height="926" rx="10" ry="10"/><rect class="cls-1" x="3965.5" y="86.5" width="1553" height="706" rx="10" ry="10"/><rect class="cls-3" x="3965.5" y="86.5" width="1553" height="706" rx="10" ry="10"/><rect class="cls-4" x="2385.5" y="32.5" width="874" height="184" rx="10" ry="10"/><rect class="cls-5" x="2385.5" y="32.5" width="874" height="184" rx="10" ry="10"/><path class="cls-1" d="M3671.07,1639.48a10.74,10.74,0,0,0-10.57-10h-55a12.48,12.48,0,0,1-11.8-9.84l-52.65-288.33a8.06,8.06,0,0,1,8.2-9.84h95.24a10,10,0,0,0,10-10V247.5a10,10,0,0,0-10-10h-1669a10,10,0,0,0-10,10v1064a10,10,0,0,0,10,10h70a10,10,0,0,1,10,10v288a10,10,0,0,1-10,10h-133a10.86,10.86,0,0,0-10.66,10l-28.69,437a9.26,9.26,0,0,0,9.34,10h1804a9.36,9.36,0,0,0,9.43-10Z"/><path class="cls-5" d="M3671.07,1639.48a10.74,10.74,0,0,0-10.57-10h-55a12.48,12.48,0,0,1-11.8-9.84l-52.65-288.33a8.06,8.06,0,0,1,8.2-9.84h95.24a10,10,0,0,0,10-10V247.5a10,10,0,0,0-10-10h-1669a10,10,0,0,0-10,10v1064a10,10,0,0,0,10,10h70a10,10,0,0,1,10,10v288a10,10,0,0,1-10,10h-133a10.86,10.86,0,0,0-10.66,10l-28.69,437a9.26,9.26,0,0,0,9.34,10h1804a9.36,9.36,0,0,0,9.43-10Z"/><path class="cls-1" d="M3891.33,1353.91c-1.55,5.28,1.67,9.59,7.17,9.59h1610a10,10,0,0,0,10-10v-265a10,10,0,0,0-10-10h-1526a14.22,14.22,0,0,0-12.83,9.59Z"/><path class="cls-5" d="M3891.33,1353.91c-1.55,5.28,1.67,9.59,7.17,9.59h1610a10,10,0,0,0,10-10v-265a10,10,0,0,0-10-10h-1526a14.22,14.22,0,0,0-12.83,9.59Z"/><path class="cls-1" d="M3735.1,2076.63a8.26,8.26,0,0,0,8.4,9.87h1765a10,10,0,0,0,10-10v-406a10,10,0,0,0-10-10h-1696a12.18,12.18,0,0,0-11.6,9.87Z"/><path class="cls-5" d="M3735.1,2076.63a8.26,8.26,0,0,0,8.4,9.87h1765a10,10,0,0,0,10-10v-406a10,10,0,0,0-10-10h-1696a12.18,12.18,0,0,0-11.6,9.87Z"/><path class="cls-1" d="M70.5,1644.5a10,10,0,0,0-10,10v419a10,10,0,0,0,10,10h1726a8.65,8.65,0,0,0,8.78-9.93l-51.56-419.15a11.63,11.63,0,0,0-11.22-9.93Z"/><path class="cls-5" d="M70.5,1644.5a10,10,0,0,0-10,10v419a10,10,0,0,0,10,10h1726a8.65,8.65,0,0,0,8.78-9.93l-51.56-419.15a11.63,11.63,0,0,0-11.22-9.93Z"/><rect class="cls-1" x="61.5" y="1194.5" width="554" height="217" rx="10" ry="10"/><rect class="cls-5" x="61.5" y="1194.5" width="554" height="217" rx="10" ry="10"/></g><g id="subpanels"><rect class="cls-6" x="92.5" y="75.5" width="1482" height="51"/><rect class="cls-6" x="92.5" y="265.5" width="1482" height="51"/><rect class="cls-6" x="92.5" y="455.5" width="1482" height="51"/><rect class="cls-6" x="92.5" y="647.5" width="1622" height="51"/><rect class="cls-6" x="92.5" y="837.5" width="1622" height="51"/><rect class="cls-6" x="4001.5" y="110.5" width="1482" height="51"/><rect class="cls-6" x="4001.5" y="299.5" width="1482" height="51"/><path class="cls-4" d="M2247.5,415.5a10,10,0,0,0-10,10v282a10,10,0,0,0,10,10h187a10,10,0,0,0,10-10v-30a10,10,0,0,1,10-10h348a10,10,0,0,0,10-10v-232a10,10,0,0,0-10-10Z"/><path class="cls-7" d="M2247.5,415.5a10,10,0,0,0-10,10v282a10,10,0,0,0,10,10h187a10,10,0,0,0,10-10v-30a10,10,0,0,1,10-10h348a10,10,0,0,0,10-10v-232a10,10,0,0,0-10-10Z"/><rect class="cls-4" x="1976.5" y="465.5" width="253" height="58" rx="10" ry="10"/><rect class="cls-7" x="1976.5" y="465.5" width="253" height="58" rx="10" ry="10"/><rect class="cls-4" x="1989.5" y="691.5" width="222" height="220" rx="10" ry="10"/><rect class="cls-7" x="1989.5" y="691.5" width="222" height="220" rx="10" ry="10"/><rect class="cls-4" x="2450.5" y="242.5" width="168" height="173" rx="10" ry="10"/><rect class="cls-7" x="2450.5" y="242.5" width="168" height="173" rx="10" ry="10"/><path class="cls-4" d="M1976.5,1054.5a10,10,0,0,1,10-10h74a10,10,0,0,1,10,10v149a63.79,63.79,0,0,1-3.63,19.32l-29.74,76.36a15.8,15.8,0,0,1-13.63,9.32h-37a10,10,0,0,1-10-10Z"/><path class="cls-7" d="M1976.5,1054.5a10,10,0,0,1,10-10h74a10,10,0,0,1,10,10v149a63.79,63.79,0,0,1-3.63,19.32l-29.74,76.36a15.8,15.8,0,0,1-13.63,9.32h-37a10,10,0,0,1-10-10Z"/><rect class="cls-4" x="2450.5" y="684.5" width="349" height="189" rx="10" ry="10"/><rect class="cls-7" x="2450.5" y="684.5" width="349" height="189" rx="10" ry="10"/><rect class="cls-4" x="3202.5" y="247.5" width="343" height="173" rx="10" ry="10"/><rect class="cls-7" x="3202.5" y="247.5" width="343" height="173" rx="10" ry="10"/><rect class="cls-4" x="2835.5" y="487.5" width="343" height="182" rx="10" ry="10"/><rect class="cls-7" x="2835.5" y="487.5" width="343" height="182" rx="10" ry="10"/><rect class="cls-4" x="3202.5" y="487.5" width="231" height="182" rx="10" ry="10"/><rect class="cls-7" x="3202.5" y="487.5" width="231" height="182" rx="10" ry="10"/><rect class="cls-4" x="3489.5" y="472.5" width="90" height="197" rx="10" ry="10"/><rect class="cls-7" x="3489.5" y="472.5" width="90" height="197" rx="10" ry="10"/><rect class="cls-4" x="2825.5" y="427.5" width="783" height="38" rx="10" ry="10"/><rect class="cls-7" x="2825.5" y="427.5" width="783" height="38" rx="10" ry="10"/><path class="cls-4" d="M3189.5,734.5a10,10,0,0,1,10-10h217a10,10,0,0,0,10-10v-15a10,10,0,0,1,10-10h199a10,10,0,0,1,10,10v203a10,10,0,0,1-10,10h-198c-5.5,0-10-2.48-10-5.5s-4.5-5.5-10-5.5h-218a10,10,0,0,1-10-10Z"/><path class="cls-7" d="M3189.5,734.5a10,10,0,0,1,10-10h217a10,10,0,0,0,10-10v-15a10,10,0,0,1,10-10h199a10,10,0,0,1,10,10v203a10,10,0,0,1-10,10h-198c-5.5,0-10-2.48-10-5.5s-4.5-5.5-10-5.5h-218a10,10,0,0,1-10-10Z"/><path class="cls-4" d="M3545.5,1040.5a10,10,0,0,1,10-10h80a10,10,0,0,1,10,10v259a10,10,0,0,1-10,10h-48c-5.5,0-11.71-4.16-13.8-9.25l-24.41-59.5a60.72,60.72,0,0,1-3.8-19.25Z"/><path class="cls-7" d="M3545.5,1040.5a10,10,0,0,1,10-10h80a10,10,0,0,1,10,10v259a10,10,0,0,1-10,10h-48c-5.5,0-11.71-4.16-13.8-9.25l-24.41-59.5a60.72,60.72,0,0,1-3.8-19.25Z"/><rect class="cls-4" x="2812.5" y="684.5" width="359" height="505" rx="10" ry="10"/><rect class="cls-7" x="2812.5" y="684.5" width="359" height="505" rx="10" ry="10"/><rect class="cls-4" x="2450.5" y="964.5" width="158" height="269" rx="10" ry="10"/><rect class="cls-7" x="2450.5" y="964.5" width="158" height="269" rx="10" ry="10"/><rect class="cls-4" x="2619.5" y="964.5" width="78" height="269" rx="10" ry="10"/><rect class="cls-7" x="2619.5" y="964.5" width="78" height="269" rx="10" ry="10"/><path class="cls-4" d="M2312.5,797.5a10,10,0,0,1,10-10h106a10,10,0,0,1,10,10v97a10,10,0,0,0,10,10h349a10,10,0,0,1,10,10v604a10,10,0,0,1-10,10h-163a10,10,0,0,0-10,10v52a10,10,0,0,1-10,10h-504a10,10,0,0,1-10-10v-104a10,10,0,0,0-10-10h-10a10,10,0,0,1-10-10v-148a10,10,0,0,1,10-10h243c5.5,0,13.18-3.18,17.07-7.07l47.86-47.86c3.89-3.89,11.57-7.07,17.07-7.07h297a10,10,0,0,0,10-10v-289a10,10,0,0,0-10-10h-380a10,10,0,0,1-10-10Z"/><path class="cls-7" d="M2312.5,797.5a10,10,0,0,1,10-10h106a10,10,0,0,1,10,10v97a10,10,0,0,0,10,10h349a10,10,0,0,1,10,10v604a10,10,0,0,1-10,10h-163a10,10,0,0,0-10,10v52a10,10,0,0,1-10,10h-504a10,10,0,0,1-10-10v-104a10,10,0,0,0-10-10h-10a10,10,0,0,1-10-10v-148a10,10,0,0,1,10-10h243c5.5,0,13.18-3.18,17.07-7.07l47.86-47.86c3.89-3.89,11.57-7.07,17.07-7.07h297a10,10,0,0,0,10-10v-289a10,10,0,0,0-10-10h-380a10,10,0,0,1-10-10Z"/><path class="cls-4" d="M2812.5,1213.5a10,10,0,0,1,10-10h339a10,10,0,0,1,10,10v76a10,10,0,0,0,10,10h326a12.64,12.64,0,0,1,11.9,9.82l58.21,301.36a8,8,0,0,1-8.1,9.82h-570a10,10,0,0,1-10-10v-51a10,10,0,0,0-10-10h-157a10,10,0,0,1-10-10Z"/><path class="cls-7" d="M2812.5,1213.5a10,10,0,0,1,10-10h339a10,10,0,0,1,10,10v76a10,10,0,0,0,10,10h326a12.64,12.64,0,0,1,11.9,9.82l58.21,301.36a8,8,0,0,1-8.1,9.82h-570a10,10,0,0,1-10-10v-51a10,10,0,0,0-10-10h-157a10,10,0,0,1-10-10Z"/><path class="cls-4" d="M1898.71,1892.47a11,11,0,0,1,10.79-10h69a12.48,12.48,0,0,0,11.79-9.84l41.42-227.32a12.48,12.48,0,0,1,11.79-9.84h397a10,10,0,0,1,10,10v416a10,10,0,0,1-10,10h-546a9.11,9.11,0,0,1-9.21-10Z"/><path class="cls-7" d="M1898.71,1892.47a11,11,0,0,1,10.79-10h69a12.48,12.48,0,0,0,11.79-9.84l41.42-227.32a12.48,12.48,0,0,1,11.79-9.84h397a10,10,0,0,1,10,10v416a10,10,0,0,1-10,10h-546a9.11,9.11,0,0,1-9.21-10Z"/><rect class="cls-4" x="2450.5" y="1635.5" width="356" height="436" rx="10" ry="10"/><rect class="cls-7" x="2450.5" y="1635.5" width="356" height="436" rx="10" ry="10"/><rect class="cls-4" x="2806.5" y="1635.5" width="441" height="436" rx="10" ry="10"/><rect class="cls-7" x="2806.5" y="1635.5" width="441" height="436" rx="10" ry="10"/><path class="cls-4" d="M3247.5,1645.5a10,10,0,0,1,10-10h256a12.6,12.6,0,0,1,11.87,9.82l44.26,232.35a12.6,12.6,0,0,0,11.87,9.82h75a11.29,11.29,0,0,1,11,10l16.05,164.1a8.91,8.91,0,0,1-9,10h-417a10,10,0,0,1-10-10Z"/><path class="cls-7" d="M3247.5,1645.5a10,10,0,0,1,10-10h256a12.6,12.6,0,0,1,11.87,9.82l44.26,232.35a12.6,12.6,0,0,0,11.87,9.82h75a11.29,11.29,0,0,1,11,10l16.05,164.1a8.91,8.91,0,0,1-9,10h-417a10,10,0,0,1-10-10Z"/><path class="cls-4" d="M363.5,1663.5a10,10,0,0,1,10-10h786a10,10,0,0,1,10,10v398a10,10,0,0,1-10,10h-405a10,10,0,0,1-10-10v-158a10,10,0,0,0-10-10h-361a10,10,0,0,1-10-10Z"/><path class="cls-7" d="M363.5,1663.5a10,10,0,0,1,10-10h786a10,10,0,0,1,10,10v398a10,10,0,0,1-10,10h-405a10,10,0,0,1-10-10v-158a10,10,0,0,0-10-10h-361a10,10,0,0,1-10-10Z"/><path class="cls-4" d="M1241.5,1663.5a10,10,0,0,1,10-10h404a10,10,0,0,1,10,10v50a10,10,0,0,0,10,10h61a10,10,0,0,1,10,10v211a10,10,0,0,0,10,10h10a10,10,0,0,1,10,10v97a10,10,0,0,1-10,10h-515a10,10,0,0,1-10-10Z"/><path class="cls-7" d="M1241.5,1663.5a10,10,0,0,1,10-10h404a10,10,0,0,1,10,10v50a10,10,0,0,0,10,10h61a10,10,0,0,1,10,10v211a10,10,0,0,0,10,10h10a10,10,0,0,1,10,10v97a10,10,0,0,1-10,10h-515a10,10,0,0,1-10-10Z"/><polygon class="cls-6" points="69.5 1237.5 105.5 1201.5 573.5 1201.5 607.5 1235.5 607.5 1367.5 571 1404 109.5 1404 70.25 1364.75 69.5 1237.5"/><path class="cls-4" d="M3905.31,1343.9c-1.55,5.28,1.69,9.6,7.19,9.6h92a10,10,0,0,0,10-10v-188a10,10,0,0,0-10-10h-31a14.19,14.19,0,0,0-12.81,9.6Z"/><path class="cls-7" d="M3905.31,1343.9c-1.55,5.28,1.69,9.6,7.19,9.6h92a10,10,0,0,0,10-10v-188a10,10,0,0,0-10-10h-31a14.19,14.19,0,0,0-12.81,9.6Z"/><path class="cls-4" d="M4171.5,1096.5a10,10,0,0,1,10-10h353a14.58,14.58,0,0,1,13,9.53l26,81.93a77.78,77.78,0,0,1,3,19.53v146a10,10,0,0,1-10,10h-293a10,10,0,0,1-10-10v-217a10,10,0,0,0-10-10h-72a10,10,0,0,1-10-10Z"/><path class="cls-7" d="M4171.5,1096.5a10,10,0,0,1,10-10h353a14.58,14.58,0,0,1,13,9.53l26,81.93a77.78,77.78,0,0,1,3,19.53v146a10,10,0,0,1-10,10h-293a10,10,0,0,1-10-10v-217a10,10,0,0,0-10-10h-72a10,10,0,0,1-10-10Z"/><path class="cls-4" d="M4547.52,1096c-1.66-5.24,1.48-9.53,7-9.53h467a10,10,0,0,1,10,10v205a10,10,0,0,1-10,10h-84a10,10,0,0,0-10,10v22a10,10,0,0,1-10,10h-331a10,10,0,0,1-10-10v-146a77.78,77.78,0,0,0-3-19.53Z"/><path class="cls-7" d="M4547.52,1096c-1.66-5.24,1.48-9.53,7-9.53h467a10,10,0,0,1,10,10v205a10,10,0,0,1-10,10h-84a10,10,0,0,0-10,10v22a10,10,0,0,1-10,10h-331a10,10,0,0,1-10-10v-146a77.78,77.78,0,0,0-3-19.53Z"/><rect class="cls-4" x="5031.5" y="1086.5" width="476" height="225" rx="10" ry="10"/><rect class="cls-7" x="5031.5" y="1086.5" width="476" height="225" rx="10" ry="10"/><rect class="cls-4" x="3784.5" y="1914.5" width="118" height="160" rx="10" ry="10"/><rect class="cls-7" x="3784.5" y="1914.5" width="118" height="160" rx="10" ry="10"/><path class="cls-4" d="M3808.5,1747.5a10,10,0,0,1,10-10h90a10,10,0,0,0,10-10v-46a10,10,0,0,1,10-10h435a10,10,0,0,1,10,10v116a10,10,0,0,1-10,10h-48a10,10,0,0,0-10,10v247a10,10,0,0,1-10,10h-363a10,10,0,0,1-10-10v-154a10,10,0,0,0-10-10h-94a10,10,0,0,1-10-10Z"/><path class="cls-7" d="M3808.5,1747.5a10,10,0,0,1,10-10h90a10,10,0,0,0,10-10v-46a10,10,0,0,1,10-10h435a10,10,0,0,1,10,10v116a10,10,0,0,1-10,10h-48a10,10,0,0,0-10,10v247a10,10,0,0,1-10,10h-363a10,10,0,0,1-10-10v-154a10,10,0,0,0-10-10h-94a10,10,0,0,1-10-10Z"/><path class="cls-4" d="M4477.5,1966.41V1936.5a10,10,0,0,0-10-10h-31a10,10,0,0,1-10-10v-100a10,10,0,0,0-10-10h-20a10,10,0,0,1-10-10v-115a10,10,0,0,1,10-10h567c5.5,0,8.38,4.2,6.4,9.33l-43.79,113.34a64.28,64.28,0,0,0-3.6,19.33v251a10,10,0,0,1-10,10h-425a10,10,0,0,1-10-10Z"/><path class="cls-7" d="M4477.5,1966.41V1936.5a10,10,0,0,0-10-10h-31a10,10,0,0,1-10-10v-100a10,10,0,0,0-10-10h-20a10,10,0,0,1-10-10v-115a10,10,0,0,1,10-10h567c5.5,0,8.38,4.2,6.4,9.33l-43.79,113.34a64.28,64.28,0,0,0-3.6,19.33v251a10,10,0,0,1-10,10h-425a10,10,0,0,1-10-10Z"/><path class="cls-4" d="M4983.5,1671.5a15.75,15.75,0,0,0-13.6,9.33l-43.79,113.34a64.28,64.28,0,0,0-3.6,19.33v251a10,10,0,0,0,10,10h539a10,10,0,0,0,10-10v-383a10,10,0,0,0-10-10Z"/><path class="cls-7" d="M4983.5,1671.5a15.75,15.75,0,0,0-13.6,9.33l-43.79,113.34a64.28,64.28,0,0,0-3.6,19.33v251a10,10,0,0,0,10,10h539a10,10,0,0,0,10-10v-383a10,10,0,0,0-10-10Z"/><rect class="cls-4" x="2255.5" y="242.5" width="168" height="173" rx="10" ry="10"/><rect class="cls-7" x="2255.5" y="242.5" width="168" height="173" rx="10" ry="10"/></g><g id="panels"><path class="cls-8" d="M118.5,148.5v-20H1552v20h0a20.06,20.06,0,0,1-20,20H138.5a20.06,20.06,0,0,1-20-20Z"/><path class="cls-8" d="M118.5,338.5v-20H1552v20h0a20.06,20.06,0,0,1-20,20H138.5a20.06,20.06,0,0,1-20-20Z"/><path class="cls-8" d="M118.5,528.5v-20H1552v20h0a20.06,20.06,0,0,1-20,20H138.5a20.06,20.06,0,0,1-20-20Z"/><path class="cls-8" d="M118.5,720.5v-20H1692v20h0a20.06,20.06,0,0,1-20,20H138.5a20.06,20.06,0,0,1-20-20Z"/><path class="cls-8" d="M118.5,910.5v-20H1692v20h0a20.06,20.06,0,0,1-20,20H138.5a20.06,20.06,0,0,1-20-20Z"/><path class="cls-8" d="M4027.5,183.5v-20H5461v20h0a20.06,20.06,0,0,1-20,20H4047.5a20.06,20.06,0,0,1-20-20Z"/><path class="cls-8" d="M4027.5,372.5v-20H5461v20h0a20.06,20.06,0,0,1-20,20H4047.5a20.06,20.06,0,0,1-20-20Z"/><rect class="cls-6" x="4001.5" y="479.5" width="1482" height="51"/><path class="cls-8" d="M4027.5,552.5v-20H5461v20h0a20.06,20.06,0,0,1-20,20H4047.5a20.06,20.06,0,0,1-20-20Z"/><rect class="cls-6" x="4001.5" y="659.5" width="1482" height="51"/><path class="cls-8" d="M4027.5,732.5v-20H5461v20h0a20.06,20.06,0,0,1-20,20H4047.5a20.06,20.06,0,0,1-20-20Z"/><rect class="cls-9" x="1989" y="529" width="227" height="56" rx="10" ry="10"/><rect class="cls-10" x="1989" y="529" width="227" height="56" rx="10" ry="10"/><rect class="cls-9" x="2270.5" y="531.5" width="142" height="56" rx="10" ry="10"/><rect class="cls-10" x="2270.5" y="531.5" width="142" height="56" rx="10" ry="10"/><rect class="cls-9" x="2628.5" y="530.5" width="142" height="56" rx="10" ry="10"/><rect class="cls-10" x="2628.5" y="530.5" width="142" height="56" rx="10" ry="10"/><rect class="cls-9" x="2467.5" y="480.5" width="102" height="56" rx="10" ry="10"/><rect class="cls-10" x="2467.5" y="480.5" width="102" height="56" rx="10" ry="10"/><rect class="cls-9" x="2467.5" y="559.5" width="102" height="56" rx="10" ry="10"/><rect class="cls-10" x="2467.5" y="559.5" width="102" height="56" rx="10" ry="10"/></g><g id="details"><line class="cls-11" x1="2656.2" y1="1447.56" x2="2752.8" y2="1473.44"/><line class="cls-11" x1="2704.5" y1="1460.5" x2="2752.8" y2="1447.56"/><line class="cls-11" x1="2704.5" y1="1460.5" x2="2739.86" y2="1425.14"/><line class="cls-11" x1="2704.5" y1="1460.5" x2="2717.44" y2="1412.2"/><line class="cls-11" x1="2704.5" y1="1460.5" x2="2691.56" y2="1412.2"/><line class="cls-11" x1="2704.5" y1="1460.5" x2="2669.14" y2="1425.14"/><line class="cls-11" x1="2877" y1="1460" x2="2932" y2="1460"/><line class="cls-11" x1="2877" y1="1460" x2="2924.63" y2="1432.5"/><line class="cls-11" x1="2877" y1="1460" x2="2904.5" y2="1412.37"/><line class="cls-11" x1="2877" y1="1460" x2="2877" y2="1405"/><line class="cls-11" x1="3257.5" y1="1398.5" x2="3310.63" y2="1384.26"/><line class="cls-11" x1="3257.5" y1="1398.5" x2="3296.39" y2="1359.61"/><line class="cls-11" x1="3257.5" y1="1398.5" x2="3310.63" y2="1412.74"/><line class="cls-11" x1="3257.5" y1="1544.5" x2="3310.63" y2="1530.26"/><line class="cls-11" x1="3257.5" y1="1544.5" x2="3296.39" y2="1505.61"/><line class="cls-11" x1="3257.5" y1="1544.5" x2="3310.63" y2="1558.74"/><line class="cls-11" x1="3460.5" y1="1469.5" x2="3513.63" y2="1455.26"/><line class="cls-11" x1="3460.5" y1="1469.5" x2="3499.39" y2="1430.61"/><line class="cls-11" x1="3460.5" y1="1469.5" x2="3474.74" y2="1416.37"/><line class="cls-11" x1="3460.5" y1="1469.5" x2="3446.26" y2="1416.37"/><line class="cls-11" x1="2030.5" y1="1990.5" x2="2083.63" y2="2004.74"/><line class="cls-11" x1="2030.5" y1="1990.5" x2="2083.63" y2="1976.26"/><line class="cls-11" x1="2030.5" y1="1990.5" x2="2069.39" y2="1951.61"/><line class="cls-11" x1="2030.5" y1="1990.5" x2="2044.74" y2="1937.37"/><line class="cls-11" x1="2030.5" y1="1990.5" x2="2016.26" y2="1937.37"/><line class="cls-11" x1="2030.5" y1="1990.5" x2="1991.61" y2="1951.61"/><line class="cls-11" x1="2369.5" y1="1979.5" x2="2369.5" y2="1924.5"/><line class="cls-11" x1="2369.5" y1="1979.5" x2="2342" y2="1931.87"/><line class="cls-11" x1="2369.5" y1="1979.5" x2="2397" y2="1931.87"/><line class="cls-11" x1="2897.5" y1="1986.5" x2="2936.39" y2="1947.61"/><line class="cls-11" x1="2936.39" y1="2025.39" x2="2858.61" y2="1947.61"/><line class="cls-11" x1="2950.63" y1="2000.74" x2="2897.5" y2="1986.5"/><line class="cls-11" x1="2950.63" y1="1972.26" x2="2897.5" y2="1986.5"/><line class="cls-11" x1="2911.74" y1="1933.37" x2="2897.5" y2="1986.5"/><line class="cls-11" x1="2883.26" y1="1933.37" x2="2897.5" y2="1986.5"/><line class="cls-11" x1="3319.37" y1="1971.26" x2="3425.63" y2="1999.74"/><line class="cls-11" x1="3319.37" y1="1999.74" x2="3425.63" y2="1971.26"/><line class="cls-11" x1="3372.5" y1="1985.5" x2="3411.39" y2="1946.61"/><line class="cls-11" x1="3372.5" y1="1985.5" x2="3386.74" y2="1932.37"/><line class="cls-11" x1="3372.5" y1="1985.5" x2="3358.26" y2="1932.37"/><line class="cls-11" x1="3372.5" y1="1985.5" x2="3333.61" y2="1946.61"/><path class="cls-12" d="M3515.32,1869.31a59,59,0,1,0-106.2,7.19"/><polygon points="3518.38 1868.77 3511.88 1876.5 3513.64 1866.55 3518.38 1868.77"/><line class="cls-11" x1="470.5" y1="1305.5" x2="580.5" y2="1305.5"/><line class="cls-11" x1="471.34" y1="1315.05" x2="579.66" y2="1295.95"/><line class="cls-11" x1="473.82" y1="1324.31" x2="577.18" y2="1286.69"/><line class="cls-11" x1="477.87" y1="1333" x2="573.13" y2="1278"/><line class="cls-11" x1="483.37" y1="1340.85" x2="567.63" y2="1270.15"/><line class="cls-11" x1="490.15" y1="1347.63" x2="560.85" y2="1263.37"/><line class="cls-11" x1="525.54" y1="1305.43" x2="553" y2="1257.87"/><line class="cls-11" x1="525.53" y1="1305.42" x2="544.31" y2="1253.82"/><line class="cls-11" x1="525.51" y1="1305.42" x2="535.05" y2="1251.34"/><line class="cls-11" x1="525.5" y1="1305.43" x2="525.5" y2="1250.5"/><line class="cls-11" x1="525.49" y1="1305.44" x2="515.95" y2="1251.34"/><line class="cls-11" x1="525.48" y1="1305.45" x2="506.69" y2="1253.82"/><line class="cls-11" x1="525.48" y1="1305.46" x2="498" y2="1257.87"/><line class="cls-11" x1="560.85" y1="1347.63" x2="490.15" y2="1263.37"/><line class="cls-11" x1="567.63" y1="1340.85" x2="483.37" y2="1270.15"/><line class="cls-11" x1="573.13" y1="1333" x2="477.87" y2="1278"/><line class="cls-11" x1="577.18" y1="1324.31" x2="473.82" y2="1286.69"/><line class="cls-11" x1="579.66" y1="1315.05" x2="471.34" y2="1295.95"/><line class="cls-11" x1="473.2" y1="1310.08" x2="577.8" y2="1300.92"/><line class="cls-11" x1="474.79" y1="1319.09" x2="576.21" y2="1291.91"/><line class="cls-11" x1="477.92" y1="1327.69" x2="573.08" y2="1283.31"/><line class="cls-11" x1="482.49" y1="1335.61" x2="568.51" y2="1275.39"/><line class="cls-11" x1="488.38" y1="1342.62" x2="562.62" y2="1268.38"/><line class="cls-11" x1="525.55" y1="1305.43" x2="555.61" y2="1262.49"/><line class="cls-11" x1="525.53" y1="1305.43" x2="547.69" y2="1257.92"/><line class="cls-11" x1="525.52" y1="1305.42" x2="539.09" y2="1254.79"/><line class="cls-11" x1="525.51" y1="1305.43" x2="530.08" y2="1253.2"/><line class="cls-11" x1="525.49" y1="1305.43" x2="520.92" y2="1253.2"/><line class="cls-11" x1="525.49" y1="1305.44" x2="511.91" y2="1254.79"/><line class="cls-11" x1="525.48" y1="1305.46" x2="503.31" y2="1257.92"/><line class="cls-11" x1="525.48" y1="1305.47" x2="495.39" y2="1262.49"/><line class="cls-11" x1="562.62" y1="1342.62" x2="488.38" y2="1268.38"/><line class="cls-11" x1="568.51" y1="1335.61" x2="482.49" y2="1275.39"/><line class="cls-11" x1="573.08" y1="1327.69" x2="477.92" y2="1283.31"/><line class="cls-11" x1="576.21" y1="1319.09" x2="474.79" y2="1291.91"/><line class="cls-11" x1="577.8" y1="1310.08" x2="473.2" y2="1300.92"/><path class="cls-11" d="M4428,1243l3.5-3.5-3.5,3.5a70,70,0,1,1,99-99l-3.54,3.53L4527,1144"/><line class="cls-11" x1="4422.5" y1="1193.5" x2="4532.5" y2="1193.5"/><line class="cls-11" x1="4429.87" y1="1221" x2="4525.13" y2="1166"/><line class="cls-11" x1="4477.5" y1="1193.5" x2="4477.5" y2="1138.5"/><line class="cls-11" x1="4477.5" y1="1193.5" x2="4450" y2="1145.87"/><line class="cls-11" x1="4525.13" y1="1221" x2="4429.87" y2="1166"/><path class="cls-11" d="M4538.13,1158.5l-4.33,2.5,4.33-2.5a70.09,70.09,0,0,1,0,70l-4.33-2.5"/><line class="cls-11" x1="4450" y1="1241.13" x2="4505" y2="1145.87"/></g><g id="lettering"><polygon class="cls-13" points="2071.5 555.16 2060.26 555.16 2058.53 556.55 2059.5 557.84 2070.74 557.84 2072.48 556.45 2071.5 555.16"/><path class="cls-14" d="M2063,543.58h11.34l2.4-1.93a2,2,0,0,0-1.55-.65h-11.78a3.23,3.23,0,0,0-1.87.65Z"/><path class="cls-14" d="M2061.27,541.87a3.41,3.41,0,0,0-1.07,1.71L2057.39,555l1,1.29L2060,555l2.76-11.24Z"/><path class="cls-14" d="M2076.91,541.87l-2.4,1.93-2.74,11.13,1,1.29,1.61-1.29,2.79-11.35A2.17,2.17,0,0,0,2076.91,541.87Z"/><path class="cls-14" d="M2056.49,569.2l2.74-11.13-1-1.29-1.61,1.29-2.79,11.35a2.17,2.17,0,0,0,.23,1.71Z"/><path class="cls-14" d="M2068,569.42h-11.34l-2.4,1.93a2,2,0,0,0,1.55.65h11.78a3.23,3.23,0,0,0,1.87-.65Z"/><path class="cls-14" d="M2072.64,556.67,2071,558l-2.76,11.24,1.46,1.93a3.41,3.41,0,0,0,1.07-1.71l2.81-11.46Z"/><polygon class="cls-14" points="2048.5 555.16 2037.26 555.16 2035.53 556.55 2036.5 557.84 2047.74 557.84 2049.48 556.45 2048.5 555.16"/><path class="cls-14" d="M2040,543.58h11.34l2.4-1.93a2,2,0,0,0-1.55-.65h-11.78a3.23,3.23,0,0,0-1.87.65Z"/><path class="cls-13" d="M2038.27,541.87a3.41,3.41,0,0,0-1.07,1.71L2034.39,555l1,1.29L2037,555l2.76-11.24Z"/><path class="cls-14" d="M2053.91,541.87l-2.4,1.93-2.74,11.13,1,1.29,1.61-1.29,2.79-11.35A2.17,2.17,0,0,0,2053.91,541.87Z"/><path class="cls-14" d="M2033.49,569.2l2.74-11.13-1-1.29-1.61,1.29-2.79,11.35a2.17,2.17,0,0,0,.23,1.71Z"/><path class="cls-14" d="M2045,569.42h-11.34l-2.4,1.93a2,2,0,0,0,1.55.65h11.78a3.23,3.23,0,0,0,1.87-.65Z"/><path class="cls-13" d="M2049.64,556.67,2048,558l-2.76,11.24,1.46,1.93a3.41,3.41,0,0,0,1.07-1.71l2.81-11.46Z"/><polygon class="cls-13" points="2025.5 555.16 2014.26 555.16 2012.53 556.55 2013.5 557.84 2024.74 557.84 2026.48 556.45 2025.5 555.16"/><path class="cls-14" d="M2017,543.58h11.34l2.4-1.93a2,2,0,0,0-1.55-.65h-11.78a3.23,3.23,0,0,0-1.87.65Z"/><path class="cls-14" d="M2015.27,541.87a3.41,3.41,0,0,0-1.07,1.71L2011.39,555l1,1.29L2014,555l2.76-11.24Z"/><path class="cls-14" d="M2030.91,541.87l-2.4,1.93-2.74,11.13,1,1.29,1.61-1.29,2.79-11.35A2.17,2.17,0,0,0,2030.91,541.87Z"/><path class="cls-14" d="M2010.49,569.2l2.74-11.13-1-1.29-1.61,1.29-2.79,11.35a2.17,2.17,0,0,0,.23,1.71Z"/><path class="cls-14" d="M2022,569.42h-11.34l-2.4,1.93a2,2,0,0,0,1.55.65h11.78a3.23,3.23,0,0,0,1.87-.65Z"/><path class="cls-14" d="M2026.64,556.67,2025,558l-2.76,11.24,1.46,1.93a3.41,3.41,0,0,0,1.07-1.71l2.81-11.46Z"/><polygon class="cls-14" points="2108.5 555.16 2097.26 555.16 2095.53 556.55 2096.5 557.84 2107.74 557.84 2109.48 556.45 2108.5 555.16"/><path class="cls-14" d="M2100,543.58h11.34l2.4-1.93a2,2,0,0,0-1.55-.65h-11.78a3.23,3.23,0,0,0-1.87.65Z"/><path class="cls-14" d="M2098.27,541.87a3.41,3.41,0,0,0-1.07,1.71L2094.39,555l1,1.29L2097,555l2.76-11.24Z"/><path class="cls-13" d="M2113.91,541.87l-2.4,1.93-2.74,11.13,1,1.29,1.61-1.29,2.79-11.35A2.17,2.17,0,0,0,2113.91,541.87Z"/><path class="cls-13" d="M2093.49,569.2l2.74-11.13-1-1.29-1.61,1.29-2.79,11.35a2.17,2.17,0,0,0,.23,1.71Z"/><path class="cls-14" d="M2105,569.42h-11.34l-2.4,1.93a2,2,0,0,0,1.55.65h11.78a3.23,3.23,0,0,0,1.87-.65Z"/><path class="cls-14" d="M2109.64,556.67,2108,558l-2.76,11.24,1.46,1.93a3.41,3.41,0,0,0,1.07-1.71l2.81-11.46Z"/><polygon class="cls-14" points="2131.5 555.16 2120.26 555.16 2118.53 556.55 2119.5 557.84 2130.74 557.84 2132.48 556.45 2131.5 555.16"/><path class="cls-14" d="M2123,543.58h11.34l2.4-1.93a2,2,0,0,0-1.55-.65h-11.78a3.23,3.23,0,0,0-1.87.65Z"/><path class="cls-14" d="M2121.27,541.87a3.41,3.41,0,0,0-1.07,1.71L2117.39,555l1,1.29L2120,555l2.76-11.24Z"/><path class="cls-14" d="M2136.91,541.87l-2.4,1.93-2.74,11.13,1,1.29,1.61-1.29,2.79-11.35A2.17,2.17,0,0,0,2136.91,541.87Z"/><path class="cls-14" d="M2116.49,569.2l2.74-11.13-1-1.29-1.61,1.29-2.79,11.35a2.17,2.17,0,0,0,.23,1.71Z"/><path class="cls-14" d="M2128,569.42h-11.34l-2.4,1.93a2,2,0,0,0,1.55.65h11.78a3.23,3.23,0,0,0,1.87-.65Z"/><path class="cls-14" d="M2132.64,556.67,2131,558l-2.76,11.24,1.46,1.93a3.41,3.41,0,0,0,1.07-1.71l2.81-11.46Z"/><polygon class="cls-14" points="2168.5 555.16 2157.26 555.16 2155.53 556.55 2156.5 557.84 2167.74 557.84 2169.48 556.45 2168.5 555.16"/><path class="cls-14" d="M2160,543.58h11.34l2.4-1.93a2,2,0,0,0-1.55-.65h-11.78a3.23,3.23,0,0,0-1.87.65Z"/><path class="cls-13" d="M2158.27,541.87a3.41,3.41,0,0,0-1.07,1.71L2154.39,555l1,1.29L2157,555l2.76-11.24Z"/><path class="cls-14" d="M2173.91,541.87l-2.4,1.93-2.74,11.13,1,1.29,1.61-1.29,2.79-11.35A2.17,2.17,0,0,0,2173.91,541.87Z"/><path class="cls-13" d="M2153.49,569.2l2.74-11.13-1-1.29-1.61,1.29-2.79,11.35a2.17,2.17,0,0,0,.23,1.71Z"/><path class="cls-14" d="M2165,569.42h-11.34l-2.4,1.93a2,2,0,0,0,1.55.65h11.78a3.23,3.23,0,0,0,1.87-.65Z"/><path class="cls-14" d="M2169.64,556.67,2168,558l-2.76,11.24,1.46,1.93a3.41,3.41,0,0,0,1.07-1.71l2.81-11.46Z"/><polygon class="cls-13" points="2191.5 555.16 2180.26 555.16 2178.53 556.55 2179.5 557.84 2190.74 557.84 2192.48 556.45 2191.5 555.16"/><path class="cls-14" d="M2183,543.58h11.34l2.4-1.93a2,2,0,0,0-1.55-.65h-11.78a3.23,3.23,0,0,0-1.87.65Z"/><path class="cls-13" d="M2181.27,541.87a3.41,3.41,0,0,0-1.07,1.71L2177.39,555l1,1.29L2180,555l2.76-11.24Z"/><path class="cls-14" d="M2196.91,541.87l-2.4,1.93-2.74,11.13,1,1.29,1.61-1.29,2.79-11.35A2.17,2.17,0,0,0,2196.91,541.87Z"/><path class="cls-13" d="M2176.49,569.2l2.74-11.13-1-1.29-1.61,1.29-2.79,11.35a2.17,2.17,0,0,0,.23,1.71Z"/><path class="cls-13" d="M2188,569.42h-11.34l-2.4,1.93a2,2,0,0,0,1.55.65h11.78a3.23,3.23,0,0,0,1.87-.65Z"/><path class="cls-14" d="M2192.64,556.67,2191,558l-2.76,11.24,1.46,1.93a3.41,3.41,0,0,0,1.07-1.71l2.81-11.46Z"/><polygon class="cls-14" points="2306.5 558.16 2295.26 558.16 2293.53 559.55 2294.5 560.84 2305.74 560.84 2307.48 559.45 2306.5 558.16"/><path class="cls-14" d="M2298,546.58h11.34l2.4-1.93a2,2,0,0,0-1.55-.65h-11.78a3.23,3.23,0,0,0-1.87.65Z"/><path class="cls-14" d="M2296.27,544.87a3.41,3.41,0,0,0-1.07,1.71L2292.39,558l1,1.29L2295,558l2.76-11.24Z"/><path class="cls-13" d="M2311.91,544.87l-2.4,1.93-2.74,11.13,1,1.29,1.61-1.29,2.79-11.35A2.17,2.17,0,0,0,2311.91,544.87Z"/><path class="cls-13" d="M2291.49,572.2l2.74-11.13-1-1.29-1.61,1.29-2.79,11.35a2.17,2.17,0,0,0,.23,1.71Z"/><path class="cls-14" d="M2303,572.42h-11.34l-2.4,1.93a2,2,0,0,0,1.55.65h11.78a3.23,3.23,0,0,0,1.87-.65Z"/><path class="cls-14" d="M2307.64,559.67,2306,561l-2.76,11.24,1.46,1.93a3.41,3.41,0,0,0,1.07-1.71l2.81-11.46Z"/><polygon class="cls-14" points="2329.5 558.16 2318.26 558.16 2316.53 559.55 2317.5 560.84 2328.74 560.84 2330.48 559.45 2329.5 558.16"/><path class="cls-14" d="M2321,546.58h11.34l2.4-1.93a2,2,0,0,0-1.55-.65h-11.78a3.23,3.23,0,0,0-1.87.65Z"/><path class="cls-14" d="M2319.27,544.87a3.41,3.41,0,0,0-1.07,1.71L2315.39,558l1,1.29L2318,558l2.76-11.24Z"/><path class="cls-14" d="M2334.91,544.87l-2.4,1.93-2.74,11.13,1,1.29,1.61-1.29,2.79-11.35A2.17,2.17,0,0,0,2334.91,544.87Z"/><path class="cls-13" d="M2314.49,572.2l2.74-11.13-1-1.29-1.61,1.29-2.79,11.35a2.17,2.17,0,0,0,.23,1.71Z"/><path class="cls-14" d="M2326,572.42h-11.34l-2.4,1.93a2,2,0,0,0,1.55.65h11.78a3.23,3.23,0,0,0,1.87-.65Z"/><path class="cls-14" d="M2330.64,559.67,2329,561l-2.76,11.24,1.46,1.93a3.41,3.41,0,0,0,1.07-1.71l2.81-11.46Z"/><polygon class="cls-14" points="2366.5 558.16 2355.26 558.16 2353.53 559.55 2354.5 560.84 2365.74 560.84 2367.48 559.45 2366.5 558.16"/><path class="cls-14" d="M2358,546.58h11.34l2.4-1.93a2,2,0,0,0-1.55-.65h-11.78a3.23,3.23,0,0,0-1.87.65Z"/><path class="cls-14" d="M2356.27,544.87a3.41,3.41,0,0,0-1.07,1.71L2352.39,558l1,1.29L2355,558l2.76-11.24Z"/><path class="cls-13" d="M2371.91,544.87l-2.4,1.93-2.74,11.13,1,1.29,1.61-1.29,2.79-11.35A2.17,2.17,0,0,0,2371.91,544.87Z"/><path class="cls-13" d="M2351.49,572.2l2.74-11.13-1-1.29-1.61,1.29-2.79,11.35a2.17,2.17,0,0,0,.23,1.71Z"/><path class="cls-14" d="M2363,572.42h-11.34l-2.4,1.93a2,2,0,0,0,1.55.65h11.78a3.23,3.23,0,0,0,1.87-.65Z"/><path class="cls-14" d="M2367.64,559.67,2366,561l-2.76,11.24,1.46,1.93a3.41,3.41,0,0,0,1.07-1.71l2.81-11.46Z"/><polygon class="cls-14" points="2389.5 558.16 2378.26 558.16 2376.53 559.55 2377.5 560.84 2388.74 560.84 2390.48 559.45 2389.5 558.16"/><path class="cls-14" d="M2381,546.58h11.34l2.4-1.93a2,2,0,0,0-1.55-.65h-11.78a3.23,3.23,0,0,0-1.87.65Z"/><path class="cls-14" d="M2379.27,544.87a3.41,3.41,0,0,0-1.07,1.71L2375.39,558l1,1.29L2378,558l2.76-11.24Z"/><path class="cls-14" d="M2394.91,544.87l-2.4,1.93-2.74,11.13,1,1.29,1.61-1.29,2.79-11.35A2.17,2.17,0,0,0,2394.91,544.87Z"/><path class="cls-13" d="M2374.49,572.2l2.74-11.13-1-1.29-1.61,1.29-2.79,11.35a2.17,2.17,0,0,0,.23,1.71Z"/><path class="cls-14" d="M2386,572.42h-11.34l-2.4,1.93a2,2,0,0,0,1.55.65h11.78a3.23,3.23,0,0,0,1.87-.65Z"/><path class="cls-14" d="M2390.64,559.67,2389,561l-2.76,11.24,1.46,1.93a3.41,3.41,0,0,0,1.07-1.71l2.81-11.46Z"/><polygon class="cls-14" points="2512.5 507.16 2501.26 507.16 2499.53 508.55 2500.5 509.84 2511.74 509.84 2513.48 508.45 2512.5 507.16"/><path class="cls-14" d="M2504,495.58h11.34l2.4-1.93a2,2,0,0,0-1.55-.65h-11.78a3.23,3.23,0,0,0-1.87.65Z"/><path class="cls-13" d="M2502.27,493.87a3.41,3.41,0,0,0-1.07,1.71L2498.39,507l1,1.29L2501,507l2.76-11.24Z"/><path class="cls-14" d="M2517.91,493.87l-2.4,1.93-2.74,11.13,1,1.29,1.61-1.29,2.79-11.35A2.17,2.17,0,0,0,2517.91,493.87Z"/><path class="cls-13" d="M2497.49,521.2l2.74-11.13-1-1.29-1.61,1.29-2.79,11.35a2.17,2.17,0,0,0,.23,1.71Z"/><path class="cls-14" d="M2509,521.42h-11.34l-2.4,1.93a2,2,0,0,0,1.55.65h11.78a3.23,3.23,0,0,0,1.87-.65Z"/><path class="cls-14" d="M2513.64,508.67,2512,510l-2.76,11.24,1.46,1.93a3.41,3.41,0,0,0,1.07-1.71l2.81-11.46Z"/><polygon class="cls-14" points="2535.5 507.16 2524.26 507.16 2522.53 508.55 2523.5 509.84 2534.74 509.84 2536.48 508.45 2535.5 507.16"/><path class="cls-14" d="M2527,495.58h11.34l2.4-1.93a2,2,0,0,0-1.55-.65h-11.78a3.23,3.23,0,0,0-1.87.65Z"/><path class="cls-13" d="M2525.27,493.87a3.41,3.41,0,0,0-1.07,1.71L2521.39,507l1,1.29L2524,507l2.76-11.24Z"/><path class="cls-14" d="M2540.91,493.87l-2.4,1.93-2.74,11.13,1,1.29,1.61-1.29,2.79-11.35A2.17,2.17,0,0,0,2540.91,493.87Z"/><path class="cls-13" d="M2520.49,521.2l2.74-11.13-1-1.29-1.61,1.29-2.79,11.35a2.17,2.17,0,0,0,.23,1.71Z"/><path class="cls-14" d="M2532,521.42h-11.34l-2.4,1.93a2,2,0,0,0,1.55.65h11.78a3.23,3.23,0,0,0,1.87-.65Z"/><path class="cls-14" d="M2536.64,508.67,2535,510l-2.76,11.24,1.46,1.93a3.41,3.41,0,0,0,1.07-1.71l2.81-11.46Z"/><polygon class="cls-14" points="2512.5 586.16 2501.26 586.16 2499.53 587.55 2500.5 588.84 2511.74 588.84 2513.48 587.45 2512.5 586.16"/><path class="cls-14" d="M2504,574.58h11.34l2.4-1.93a2,2,0,0,0-1.55-.65h-11.78a3.23,3.23,0,0,0-1.87.65Z"/><path class="cls-13" d="M2502.27,572.87a3.41,3.41,0,0,0-1.07,1.71L2498.39,586l1,1.29L2501,586l2.76-11.24Z"/><path class="cls-14" d="M2517.91,572.87l-2.4,1.93-2.74,11.13,1,1.29,1.61-1.29,2.79-11.35A2.17,2.17,0,0,0,2517.91,572.87Z"/><path class="cls-13" d="M2497.49,600.2l2.74-11.13-1-1.29-1.61,1.29-2.79,11.35a2.17,2.17,0,0,0,.23,1.71Z"/><path class="cls-14" d="M2509,600.42h-11.34l-2.4,1.93a2,2,0,0,0,1.55.65h11.78a3.23,3.23,0,0,0,1.87-.65Z"/><path class="cls-14" d="M2513.64,587.67,2512,589l-2.76,11.24,1.46,1.93a3.41,3.41,0,0,0,1.07-1.71l2.81-11.46Z"/><polygon class="cls-14" points="2535.5 586.16 2524.26 586.16 2522.53 587.55 2523.5 588.84 2534.74 588.84 2536.48 587.45 2535.5 586.16"/><path class="cls-14" d="M2527,574.58h11.34l2.4-1.93a2,2,0,0,0-1.55-.65h-11.78a3.23,3.23,0,0,0-1.87.65Z"/><path class="cls-13" d="M2525.27,572.87a3.41,3.41,0,0,0-1.07,1.71L2521.39,586l1,1.29L2524,586l2.76-11.24Z"/><path class="cls-14" d="M2540.91,572.87l-2.4,1.93-2.74,11.13,1,1.29,1.61-1.29,2.79-11.35A2.17,2.17,0,0,0,2540.91,572.87Z"/><path class="cls-13" d="M2520.49,600.2l2.74-11.13-1-1.29-1.61,1.29-2.79,11.35a2.17,2.17,0,0,0,.23,1.71Z"/><path class="cls-14" d="M2532,600.42h-11.34l-2.4,1.93a2,2,0,0,0,1.55.65h11.78a3.23,3.23,0,0,0,1.87-.65Z"/><path class="cls-14" d="M2536.64,587.67,2535,589l-2.76,11.24,1.46,1.93a3.41,3.41,0,0,0,1.07-1.71l2.81-11.46Z"/><polygon class="cls-14" points="2671.5 557.16 2660.26 557.16 2658.53 558.55 2659.5 559.84 2670.74 559.84 2672.48 558.45 2671.5 557.16"/><path class="cls-14" d="M2663,545.58h11.34l2.4-1.93a2,2,0,0,0-1.55-.65h-11.78a3.23,3.23,0,0,0-1.87.65Z"/><path class="cls-13" d="M2661.27,543.87a3.41,3.41,0,0,0-1.07,1.71L2657.39,557l1,1.29L2660,557l2.76-11.24Z"/><path class="cls-14" d="M2676.91,543.87l-2.4,1.93-2.74,11.13,1,1.29,1.61-1.29,2.79-11.35A2.17,2.17,0,0,0,2676.91,543.87Z"/><path class="cls-14" d="M2656.49,571.2l2.74-11.13-1-1.29-1.61,1.29-2.79,11.35a2.17,2.17,0,0,0,.23,1.71Z"/><path class="cls-14" d="M2668,571.42h-11.34l-2.4,1.93a2,2,0,0,0,1.55.65h11.78a3.23,3.23,0,0,0,1.87-.65Z"/><path class="cls-13" d="M2672.64,558.67,2671,560l-2.76,11.24,1.46,1.93a3.41,3.41,0,0,0,1.07-1.71l2.81-11.46Z"/><polygon class="cls-14" points="2694.5 557.16 2683.26 557.16 2681.53 558.55 2682.5 559.84 2693.74 559.84 2695.48 558.45 2694.5 557.16"/><path class="cls-14" d="M2686,545.58h11.34l2.4-1.93a2,2,0,0,0-1.55-.65h-11.78a3.23,3.23,0,0,0-1.87.65Z"/><path class="cls-14" d="M2684.27,543.87a3.41,3.41,0,0,0-1.07,1.71L2680.39,557l1,1.29L2683,557l2.76-11.24Z"/><path class="cls-14" d="M2699.91,543.87l-2.4,1.93-2.74,11.13,1,1.29,1.61-1.29,2.79-11.35A2.17,2.17,0,0,0,2699.91,543.87Z"/><path class="cls-14" d="M2679.49,571.2l2.74-11.13-1-1.29-1.61,1.29-2.79,11.35a2.17,2.17,0,0,0,.23,1.71Z"/><path class="cls-14" d="M2691,571.42h-11.34l-2.4,1.93a2,2,0,0,0,1.55.65h11.78a3.23,3.23,0,0,0,1.87-.65Z"/><path class="cls-14" d="M2695.64,558.67,2694,560l-2.76,11.24,1.46,1.93a3.41,3.41,0,0,0,1.07-1.71l2.81-11.46Z"/><polygon class="cls-13" points="2717.5 557.16 2706.26 557.16 2704.53 558.55 2705.5 559.84 2716.74 559.84 2718.48 558.45 2717.5 557.16"/><path class="cls-14" d="M2709,545.58h11.34l2.4-1.93a2,2,0,0,0-1.55-.65h-11.78a3.23,3.23,0,0,0-1.87.65Z"/><path class="cls-14" d="M2707.27,543.87a3.41,3.41,0,0,0-1.07,1.71L2703.39,557l1,1.29L2706,557l2.76-11.24Z"/><path class="cls-14" d="M2722.91,543.87l-2.4,1.93-2.74,11.13,1,1.29,1.61-1.29,2.79-11.35A2.17,2.17,0,0,0,2722.91,543.87Z"/><path class="cls-14" d="M2702.49,571.2l2.74-11.13-1-1.29-1.61,1.29-2.79,11.35a2.17,2.17,0,0,0,.23,1.71Z"/><path class="cls-14" d="M2714,571.42h-11.34l-2.4,1.93a2,2,0,0,0,1.55.65h11.78a3.23,3.23,0,0,0,1.87-.65Z"/><path class="cls-14" d="M2718.64,558.67,2717,560l-2.76,11.24,1.46,1.93a3.41,3.41,0,0,0,1.07-1.71l2.81-11.46Z"/><polygon class="cls-13" points="2740.5 557.16 2729.26 557.16 2727.53 558.55 2728.5 559.84 2739.74 559.84 2741.48 558.45 2740.5 557.16"/><path class="cls-14" d="M2732,545.58h11.34l2.4-1.93a2,2,0,0,0-1.55-.65h-11.78a3.23,3.23,0,0,0-1.87.65Z"/><path class="cls-14" d="M2730.27,543.87a3.41,3.41,0,0,0-1.07,1.71L2726.39,557l1,1.29L2729,557l2.76-11.24Z"/><path class="cls-14" d="M2745.91,543.87l-2.4,1.93-2.74,11.13,1,1.29,1.61-1.29,2.79-11.35A2.17,2.17,0,0,0,2745.91,543.87Z"/><path class="cls-14" d="M2725.49,571.2l2.74-11.13-1-1.29-1.61,1.29-2.79,11.35a2.17,2.17,0,0,0,.23,1.71Z"/><path class="cls-14" d="M2737,571.42h-11.34l-2.4,1.93a2,2,0,0,0,1.55.65h11.78a3.23,3.23,0,0,0,1.87-.65Z"/><path class="cls-14" d="M2741.64,558.67,2740,560l-2.76,11.24,1.46,1.93a3.41,3.41,0,0,0,1.07-1.71l2.81-11.46Z"/></g></svg>