<svg xmlns="http://www.w3.org/2000/svg" viewBox="0 0 205 205"><defs><style>.cls-1{fill:#4d4d4d;}.cls-2{fill:#fff;}.cls-3,.cls-4,.cls-5{fill:none;stroke-miterlimit:10;}.cls-3,.cls-4{stroke:#f2f2f2;}.cls-3,.cls-5{stroke-width:2px;}.cls-5{stroke:#4d4d4d;stroke-linecap:round;}</style></defs><title>panel-xpntr</title><g id="sprites"><path class="cls-1" d="M192.5,0H12.5A12.54,12.54,0,0,0,0,12.5V159.42L45.58,205H192.5A12.54,12.54,0,0,0,205,192.5V12.5A12.54,12.54,0,0,0,192.5,0Z"/><rect class="cls-2" x="37" y="7" width="160" height="160"/><line class="cls-3" x1="35" y1="7" x2="26" y2="7"/><line class="cls-4" x1="35" y1="11" x2="30" y2="11"/><line class="cls-4" x1="35" y1="15" x2="30" y2="15"/><line class="cls-4" x1="35" y1="19" x2="30" y2="19"/><line class="cls-4" x1="35" y1="23" x2="30" y2="23"/><line class="cls-3" x1="35" y1="27" x2="26" y2="27"/><line class="cls-4" x1="35" y1="31" x2="30" y2="31"/><line class="cls-4" x1="35" y1="35" x2="30" y2="35"/><line class="cls-4" x1="35" y1="39" x2="30" y2="39"/><line class="cls-4" x1="35" y1="43" x2="30" y2="43"/><line class="cls-3" x1="35" y1="47" x2="26" y2="47"/><line class="cls-4" x1="35" y1="51" x2="30" y2="51"/><line class="cls-4" x1="35" y1="55" x2="30" y2="55"/><line class="cls-4" x1="35" y1="59" x2="30" y2="59"/><line class="cls-4" x1="35" y1="63" x2="30" y2="63"/><line class="cls-3" x1="35" y1="67" x2="26" y2="67"/><line class="cls-4" x1="35" y1="71" x2="30" y2="71"/><line class="cls-4" x1="35" y1="75" x2="30" y2="75"/><line class="cls-4" x1="35" y1="79" x2="30" y2="79"/><line class="cls-4" x1="35" y1="83" x2="30" y2="83"/><line class="cls-3" x1="35" y1="87" x2="26" y2="87"/><line class="cls-4" x1="35" y1="91" x2="30" y2="91"/><line class="cls-4" x1="35" y1="95" x2="30" y2="95"/><line class="cls-4" x1="35" y1="99" x2="30" y2="99"/><line class="cls-4" x1="35" y1="103" x2="30" y2="103"/><line class="cls-3" x1="35" y1="107" x2="26" y2="107"/><line class="cls-4" x1="35" y1="111" x2="30" y2="111"/><line class="cls-4" x1="35" y1="115" x2="30" y2="115"/><line class="cls-4" x1="35" y1="119" x2="30" y2="119"/><line class="cls-4" x1="35" y1="123" x2="30" y2="123"/><line class="cls-3" x1="35" y1="127" x2="26" y2="127"/><line class="cls-4" x1="35" y1="131" x2="30" y2="131"/><line class="cls-4" x1="35" y1="135" x2="30" y2="135"/><line class="cls-4" x1="35" y1="139" x2="30" y2="139"/><line class="cls-4" x1="35" y1="143" x2="30" y2="143"/><line class="cls-3" x1="35" y1="147" x2="26" y2="147"/><line class="cls-4" x1="35" y1="151" x2="30" y2="151"/><line class="cls-4" x1="35" y1="155" x2="30" y2="155"/><line class="cls-4" x1="35" y1="159" x2="30" y2="159"/><line class="cls-4" x1="35" y1="163" x2="30" y2="163"/><line class="cls-3" x1="35" y1="167" x2="26" y2="167"/><line class="cls-3" x1="37" y1="169" x2="37" y2="178"/><line class="cls-4" x1="41" y1="169" x2="41" y2="174"/><line class="cls-4" x1="45" y1="169" x2="45" y2="174"/><line class="cls-4" x1="49" y1="169" x2="49" y2="174"/><line class="cls-4" x1="53" y1="169" x2="53" y2="174"/><line class="cls-3" x1="57" y1="169" x2="57" y2="178"/><line class="cls-4" x1="61" y1="169" x2="61" y2="174"/><line class="cls-4" x1="65" y1="169" x2="65" y2="174"/><line class="cls-4" x1="69" y1="169" x2="69" y2="174"/><line class="cls-4" x1="73" y1="169" x2="73" y2="174"/><line class="cls-3" x1="77" y1="169" x2="77" y2="178"/><line class="cls-4" x1="81" y1="169" x2="81" y2="174"/><line class="cls-4" x1="85" y1="169" x2="85" y2="174"/><line class="cls-4" x1="89" y1="169" x2="89" y2="174"/><line class="cls-4" x1="93" y1="169" x2="93" y2="174"/><line class="cls-3" x1="97" y1="169" x2="97" y2="178"/><line class="cls-4" x1="101" y1="169" x2="101" y2="174"/><line class="cls-4" x1="105" y1="169" x2="105" y2="174"/><line class="cls-4" x1="109" y1="169" x2="109" y2="174"/><line class="cls-4" x1="113" y1="169" x2="113" y2="174"/><line class="cls-3" x1="117" y1="169" x2="117" y2="178"/><line class="cls-4" x1="121" y1="169" x2="121" y2="174"/><line class="cls-4" x1="125" y1="169" x2="125" y2="174"/><line class="cls-4" x1="129" y1="169" x2="129" y2="174"/><line class="cls-4" x1="133" y1="169" x2="133" y2="174"/><line class="cls-3" x1="137" y1="169" x2="137" y2="178"/><line class="cls-4" x1="141" y1="169" x2="141" y2="174"/><line class="cls-4" x1="145" y1="169" x2="145" y2="174"/><line class="cls-4" x1="149" y1="169" x2="149" y2="174"/><line class="cls-4" x1="153" y1="169" x2="153" y2="174"/><line class="cls-3" x1="157" y1="169" x2="157" y2="178"/><line class="cls-4" x1="161" y1="169" x2="161" y2="174"/><line class="cls-4" x1="165" y1="169" x2="165" y2="174"/><line class="cls-4" x1="169" y1="169" x2="169" y2="174"/><line class="cls-4" x1="173" y1="169" x2="173" y2="174"/><line class="cls-3" x1="177" y1="169" x2="177" y2="178"/><line class="cls-4" x1="181" y1="169" x2="181" y2="174"/><line class="cls-4" x1="185" y1="169" x2="185" y2="174"/><line class="cls-4" x1="189" y1="169" x2="189" y2="174"/><line class="cls-4" x1="193" y1="169" x2="193" y2="174"/><line class="cls-3" x1="197" y1="169" x2="197" y2="178"/><path class="cls-5" d="M92.54,167c-21.37-75.07-7-117,2.79-160"/><path class="cls-5" d="M37,114.34c38.22,10.19,68.55,16.62,160-4.87"/></g></svg>