<svg xmlns="http://www.w3.org/2000/svg" viewBox="0 0 375 355"><defs><style>.cls-1{fill:#e6e6e6;stroke:#b3b3b3;}.cls-1,.cls-10,.cls-11,.cls-2,.cls-3,.cls-4,.cls-5,.cls-9{stroke-miterlimit:10;}.cls-2{fill:#ccc;}.cls-2,.cls-3,.cls-4,.cls-5,.cls-9{stroke:#999;}.cls-10,.cls-11,.cls-2,.cls-4,.cls-9{stroke-width:2px;}.cls-10,.cls-11,.cls-3,.cls-4,.cls-5{fill:none;}.cls-3{stroke-width:4px;}.cls-6{fill:#fff;}.cls-7{fill:#666;}.cls-8{fill:#5d5d5d;}.cls-9{fill:#c1272d;}.cls-10{stroke:#fcee21;}.cls-11{stroke:gray;}.cls-12{fill:#333;}</style></defs><title>panel-fdai</title><g id="sprites"><path class="cls-1" d="M269.1,5.66,106.05,6S7.5,79.5,7.5,170.5c0,92.23,87.77,180,180,180,107,0,180-87.77,180-180C367.5,79.5,269.1,5.66,269.1,5.66Z"/><path class="cls-2" d="M189,67A110,110,0,1,0,299,177,110,110,0,0,0,189,67Zm0,196a86,86,0,1,1,86-86A86,86,0,0,1,189,263Z"/><line class="cls-3" x1="189" y1="273" x2="189" y2="79"/><line class="cls-3" x1="92" y1="176" x2="286" y2="176"/><line class="cls-4" x1="97.41" y1="192.15" x2="280.59" y2="159.85"/><line class="cls-4" x1="101.61" y1="207.81" x2="276.39" y2="144.19"/><line class="cls-4" x1="108.46" y1="222.5" x2="269.54" y2="129.5"/><line class="cls-4" x1="117.76" y1="235.78" x2="260.24" y2="116.22"/><line class="cls-4" x1="129.22" y1="247.24" x2="248.78" y2="104.76"/><line class="cls-4" x1="142.5" y1="256.54" x2="235.5" y2="95.46"/><line class="cls-4" x1="157.19" y1="263.39" x2="220.81" y2="88.61"/><line class="cls-4" x1="172.85" y1="267.59" x2="205.15" y2="84.41"/><line class="cls-4" x1="205.15" y1="267.59" x2="172.85" y2="84.41"/><line class="cls-4" x1="220.81" y1="263.39" x2="157.19" y2="88.61"/><line class="cls-4" x1="235.5" y1="256.54" x2="142.5" y2="95.46"/><line class="cls-4" x1="248.78" y1="247.24" x2="129.22" y2="104.76"/><line class="cls-4" x1="260.24" y1="235.78" x2="117.76" y2="116.22"/><line class="cls-4" x1="269.54" y1="222.5" x2="108.46" y2="129.5"/><line class="cls-4" x1="276.39" y1="207.81" x2="101.61" y2="144.19"/><line class="cls-4" x1="280.59" y1="192.15" x2="97.41" y2="159.85"/><line class="cls-5" x1="101.73" y1="199.38" x2="276.27" y2="152.62"/><line class="cls-5" x1="107.12" y1="214.18" x2="270.88" y2="137.82"/><line class="cls-5" x1="114.99" y1="227.82" x2="263.01" y2="124.18"/><line class="cls-5" x1="125.12" y1="239.88" x2="252.88" y2="112.12"/><line class="cls-5" x1="137.18" y1="250.01" x2="240.82" y2="101.99"/><line class="cls-5" x1="150.82" y1="257.88" x2="227.18" y2="94.12"/><line class="cls-5" x1="165.62" y1="263.27" x2="212.38" y2="88.73"/><line class="cls-5" x1="181.13" y1="266" x2="196.87" y2="86"/><line class="cls-5" x1="212.38" y1="263.27" x2="165.62" y2="88.73"/><line class="cls-5" x1="227.18" y1="257.88" x2="150.82" y2="94.12"/><line class="cls-5" x1="240.82" y1="250.01" x2="137.18" y2="101.99"/><line class="cls-5" x1="252.88" y1="239.88" x2="125.12" y2="112.12"/><line class="cls-5" x1="263.01" y1="227.82" x2="114.99" y2="124.18"/><line class="cls-5" x1="270.88" y1="214.18" x2="107.12" y2="137.82"/><line class="cls-5" x1="276.27" y1="199.38" x2="101.73" y2="152.62"/><line class="cls-5" x1="279" y1="183.87" x2="99" y2="168.13"/><line class="cls-5" x1="99" y1="183.87" x2="279" y2="168.13"/><line class="cls-5" x1="196.87" y1="266" x2="181.13" y2="86"/><circle class="cls-6" cx="189" cy="177" r="86"/><path class="cls-7" d="M103.5,186.34A87,87,0,0,1,103,177a86,86,0,0,1,60.39-82.12C207.64,103.66,246,140,246,140s18,16,29,37a86,86,0,0,1-171.5,9.34Z"/><path class="cls-5" d="M189,54A123,123,0,1,0,312,177,123,123,0,0,0,189,54Zm0,209a86,86,0,1,1,86-86A86,86,0,0,1,189,263Z"/><path class="cls-8" d="M189,253a86,86,0,0,1-85.84-81c-.09,1.66-.16,3.32-.16,5a86,86,0,0,0,172,0c0-1.68-.06-3.34-.16-5A86,86,0,0,1,189,253Z"/><circle class="cls-4" cx="189" cy="177" r="86"/><path class="cls-4" d="M183,248.67c2.22,8.75,3.78,14.31,3.78,14.31"/><path class="cls-4" d="M170.53,189.55c2.27,14.78,5.61,30.49,8.67,43.57"/><path class="cls-4" d="M164.21,94.63s.6,42.82,4.06,77"/><path class="cls-4" d="M129,169q.89-3.46,2-7c11-36,33-67,33-67"/><path class="cls-4" d="M123.3,232.49a202.94,202.94,0,0,1,2.08-45.8"/><path class="cls-4" d="M241.11,229.27c2.91,7.53,4.66,12.33,4.66,12.33"/><path class="cls-4" d="M219.33,177.83c5.88,12.41,11.53,25.79,16.1,37.07"/><path class="cls-4" d="M113.38,136C128,114,164,95,164,95s26.16,29.53,45.15,63"/><path class="cls-9" d="M196.49,91.34c-2.47-.21-5-.34-7.49-.34a85.6,85.6,0,0,0-52.83,18.16A38.36,38.36,0,0,0,161,118C178.83,118,193.63,106.47,196.49,91.34Z"/><line class="cls-10" x1="175" y1="176" x2="203" y2="176"/><line class="cls-10" x1="189" y1="176" x2="189" y2="189"/><path class="cls-3" d="M231,176H203a14,14,0,0,1-28,0H147"/><path class="cls-6" d="M110.3,27.14l5.2-3.64h146l10,7V55.22h-4.93a318.43,318.43,0,0,0-156.15,0H105.5V30.5Z"/><path class="cls-7" d="M110.42,55.22a318.43,318.43,0,0,1,156.15,0h4.93V40.5h-166V55.22Z"/><path class="cls-11" d="M110.3,27.14l5.2-3.64h146l10,7V55.22h-4.93a318.43,318.43,0,0,0-156.15,0H105.5V30.5Z"/><polygon class="cls-12" points="136 26 151 26 151 29 143.5 38 136 29 136 26"/><path class="cls-6" d="M337.72,98.16l3.64,5.2v146l-7,10H309.64v-4.93a316.53,316.53,0,0,0,9.72-78.07,316.62,316.62,0,0,0-9.72-78.08c0-.1,0-4.92,0-4.92h24.72Z"/><path class="cls-7" d="M309.64,98.28a316.62,316.62,0,0,1,9.72,78.08,316.53,316.53,0,0,1-9.72,78.07v4.93h14.72v-166H309.64Z"/><path class="cls-11" d="M337.72,98.16l3.64,5.2v146l-7,10H309.64v-4.93a316.53,316.53,0,0,0,9.72-78.07,316.62,316.62,0,0,0-9.72-78.08c0-.1,0-4.92,0-4.92h24.72Z"/><polygon class="cls-12" points="338.86 163.86 338.86 178.86 335.86 178.86 326.86 171.36 335.86 163.86 338.86 163.86"/><path class="cls-6" d="M266.7,324.58l-5.2,3.64h-146l-10-7V296.5h4.93a316.53,316.53,0,0,0,78.07,9.72,316.62,316.62,0,0,0,78.08-9.72h4.92v24.72Z"/><path class="cls-7" d="M266.58,296.5a316.62,316.62,0,0,1-78.08,9.72,316.53,316.53,0,0,1-78.07-9.72H105.5v14.72h166V296.5Z"/><path class="cls-11" d="M266.7,324.58l-5.2,3.64h-146l-10-7V296.5h4.93a316.53,316.53,0,0,0,78.07,9.72,316.62,316.62,0,0,0,78.08-9.72h4.92v24.72Z"/><polygon class="cls-12" points="181 325.72 166 325.72 166 322.72 173.5 313.72 181 322.72 181 325.72"/><path class="cls-4" d="M114.9,133.36c12.3,10.8,33.43,16.31,56.38,13.16,32.68-4.49,57.1-24.91,56.29-46.38"/><path class="cls-4" d="M272.06,154.63A139.32,139.32,0,0,1,233.5,191c-40.2,25.58-88.09,28-126.52,10.59"/></g></svg>