<svg xmlns="http://www.w3.org/2000/svg" xmlns:xlink="http://www.w3.org/1999/xlink" viewBox="0 0 215 192"><defs><style>.cls-1,.cls-6,.cls-7,.cls-8{fill:none;}.cls-2{fill:#ccc;}.cls-2,.cls-8,.cls-9{stroke:#333;stroke-linecap:round;}.cls-2,.cls-3,.cls-4,.cls-6,.cls-7,.cls-8,.cls-9{stroke-miterlimit:10;}.cls-3{fill:#f2f2f2;}.cls-3,.cls-4,.cls-6,.cls-7{stroke:#4d4d4d;}.cls-4{fill:#fff;}.cls-5{fill:#4d4d4d;}.cls-6{stroke-width:2px;}.cls-8{stroke-width:3px;}.cls-9{fill:#999;}.cls-10{opacity:0.4;}.cls-11{clip-path:url(#clip-path);}.cls-12{fill:red;}</style><clipPath id="clip-path"><path class="cls-1" d="M-3,248l-34.5,34.5v55l128,1v21h29V248ZM113.5,353.5h-17v-21l-128-1V285l31-31h114Z"/></clipPath></defs><title>panel-altimeter</title><g id="sprites"><path class="cls-2" d="M33.5,113.5h-13a18,18,0,0,1,0-36h13Z"/><circle class="cls-3" cx="117.5" cy="95.5" r="88"/><circle class="cls-4" cx="117.5" cy="95.5" r="78"/><circle class="cls-5" cx="117.5" cy="95.5" r="47"/><line class="cls-6" x1="39" y1="95" x2="50" y2="95"/><line class="cls-6" x1="117" y1="173" x2="117" y2="163"/><line class="cls-7" x1="112.92" y1="172.89" x2="113.13" y2="168.87"/><line class="cls-7" x1="108.85" y1="172.57" x2="109.27" y2="168.54"/><line class="cls-7" x1="104.8" y1="172.04" x2="105.44" y2="168.01"/><line class="cls-7" x1="100.78" y1="171.3" x2="101.64" y2="167.28"/><line class="cls-6" x1="96.81" y1="170.34" x2="99.43" y2="160.56"/><line class="cls-7" x1="92.9" y1="169.18" x2="94.18" y2="165.22"/><line class="cls-7" x1="89.05" y1="167.82" x2="90.55" y2="163.9"/><line class="cls-7" x1="85.27" y1="166.26" x2="87" y2="162.39"/><line class="cls-7" x1="81.59" y1="164.5" x2="83.53" y2="160.69"/><line class="cls-6" x1="78" y1="162.55" x2="83.16" y2="153.62"/><line class="cls-7" x1="74.52" y1="160.42" x2="76.89" y2="156.77"/><line class="cls-7" x1="71.15" y1="158.1" x2="73.73" y2="154.55"/><line class="cls-7" x1="67.91" y1="155.62" x2="70.7" y2="152.18"/><line class="cls-7" x1="64.81" y1="152.97" x2="67.8" y2="149.65"/><line class="cls-6" x1="61.85" y1="150.15" x2="69.35" y2="142.65"/><line class="cls-7" x1="59.03" y1="147.19" x2="62.41" y2="144.15"/><line class="cls-7" x1="56.38" y1="144.09" x2="59.94" y2="141.21"/><line class="cls-7" x1="53.9" y1="140.85" x2="57.63" y2="138.14"/><line class="cls-7" x1="51.58" y1="137.48" x2="55.48" y2="134.95"/><line class="cls-6" x1="49.45" y1="134" x2="58.69" y2="128.66"/><line class="cls-7" x1="47.5" y1="130.41" x2="51.7" y2="128.27"/><line class="cls-7" x1="45.74" y1="126.73" x2="50.07" y2="124.8"/><line class="cls-7" x1="44.18" y1="122.95" x2="48.64" y2="121.24"/><line class="cls-7" x1="42.82" y1="119.1" x2="47.39" y2="117.62"/><line class="cls-6" x1="41.66" y1="115.19" x2="52.13" y2="112.38"/><line class="cls-7" x1="40.7" y1="111.22" x2="45.47" y2="110.2"/><line class="cls-7" x1="39.96" y1="107.2" x2="44.81" y2="106.43"/><line class="cls-7" x1="39.43" y1="103.15" x2="44.34" y2="102.64"/><line class="cls-7" x1="39.11" y1="99.08" x2="44.07" y2="98.82"/><line class="cls-7" x1="39.11" y1="90.92" x2="44.13" y2="91.18"/><line class="cls-7" x1="39.43" y1="86.85" x2="44.44" y2="87.37"/><line class="cls-7" x1="39.96" y1="82.8" x2="44.96" y2="83.59"/><line class="cls-7" x1="40.7" y1="78.78" x2="45.67" y2="79.84"/><line class="cls-6" x1="41.66" y1="74.81" x2="52.37" y2="77.68"/><line class="cls-7" x1="42.82" y1="70.9" x2="47.67" y2="72.47"/><line class="cls-7" x1="44.18" y1="67.05" x2="48.96" y2="68.88"/><line class="cls-7" x1="45.74" y1="63.27" x2="50.44" y2="65.37"/><line class="cls-7" x1="47.5" y1="59.59" x2="52.1" y2="61.93"/><line class="cls-6" x1="49.45" y1="56" x2="59.13" y2="61.59"/><line class="cls-6" x1="117.5" y1="28" x2="117.5" y2="17.5"/><line class="cls-7" x1="98.47" y1="24.48" x2="97.31" y2="20.16"/><line class="cls-6" x1="83.75" y1="37.04" x2="78.5" y2="27.95"/><line class="cls-7" x1="65.53" y1="43.53" x2="62.35" y2="40.35"/><line class="cls-7" x1="135.94" y1="24.33" x2="137.19" y2="19.66"/><line class="cls-6" x1="150.66" y1="36.7" x2="156" y2="27.45"/><line class="cls-6" x1="185" y1="95" x2="195" y2="95"/><line class="cls-7" x1="190.54" y1="87.27" x2="194.57" y2="86.85"/><line class="cls-7" x1="189.28" y1="79.64" x2="193.3" y2="78.78"/><line class="cls-7" x1="187.22" y1="72.18" x2="191.18" y2="70.9"/><line class="cls-7" x1="184.39" y1="65" x2="188.26" y2="63.27"/><line class="cls-6" x1="175.62" y1="61.16" x2="184.55" y2="56"/><line class="cls-7" x1="176.55" y1="51.73" x2="180.1" y2="49.15"/><line class="cls-7" x1="171.65" y1="45.8" x2="174.97" y2="42.81"/><line class="cls-7" x1="166.15" y1="40.41" x2="169.19" y2="37.03"/><line class="cls-7" x1="160.14" y1="35.63" x2="162.85" y2="31.9"/><line class="cls-6" x1="179.98" y1="121.09" x2="189.06" y2="124.85"/><line class="cls-6" x1="165.23" y1="143.23" x2="172.15" y2="150.15"/><line class="cls-6" x1="143.09" y1="157.98" x2="146.85" y2="167.06"/><line class="cls-8" x1="117" y1="95" x2="54" y2="73"/><path class="cls-9" d="M30,96.5a3.4,3.4,0,0,0-2.4-3.24,3.39,3.39,0,0,0-3.24-5.62,3.39,3.39,0,0,0-5.62-3.24,3.39,3.39,0,0,0-6.48,0,3.39,3.39,0,0,0-5.62,3.24A3.39,3.39,0,0,0,3.4,93.26a3.39,3.39,0,0,0,0,6.48,3.39,3.39,0,0,0,3.24,5.62,3.39,3.39,0,0,0,5.62,3.24,3.39,3.39,0,0,0,6.48,0,3.39,3.39,0,0,0,5.62-3.24,3.39,3.39,0,0,0,3.24-5.62A3.4,3.4,0,0,0,30,96.5Z"/><g class="cls-10"><g class="cls-11"><rect class="cls-12" x="-0.12" y="124.5" width="10" height="398.95" transform="translate(230.51 91.44) rotate(45)"/><rect class="cls-12" x="-14.27" y="110.36" width="10" height="398.95" transform="translate(216.37 97.3) rotate(45)"/><rect class="cls-12" x="-28.41" y="96.22" width="10" height="398.95" transform="translate(202.23 103.16) rotate(45)"/><rect class="cls-12" x="-42.55" y="82.07" width="10" height="398.95" transform="translate(188.09 109.02) rotate(45)"/><rect class="cls-12" x="-56.69" y="67.93" width="10" height="398.95" transform="translate(173.95 114.87) rotate(45)"/><rect class="cls-12" x="-70.84" y="53.79" width="10" height="398.95" transform="translate(159.8 120.73) rotate(45)"/><rect class="cls-12" x="-84.98" y="39.65" width="10" height="398.95" transform="translate(145.66 126.59) rotate(45)"/></g></g></g></svg>