<svg xmlns="http://www.w3.org/2000/svg" viewBox="0 0 50 65"><defs><style>.cls-1{fill:#e6e6e6;stroke:#4d4d4d;stroke-width:2px;}.cls-1,.cls-2,.cls-5{stroke-miterlimit:10;}.cls-2{fill:gray;stroke:#666;}.cls-3{fill:#b3b3b3;}.cls-4{fill:#999;}.cls-5{fill:none;stroke:#333;stroke-width:1.5px;}.cls-6{fill:#ccc;}</style></defs><title>panel-togglelong</title><g id="sprites"><polygon class="cls-1" points="34.81 15 15.19 15 5.37 32 15.19 49 34.81 49 44.63 32 34.81 15"/><circle class="cls-2" cx="25" cy="32" r="14"/><path class="cls-3" d="M25.14,28A5.14,5.14,0,0,0,20,33.14V55H30.29V33.14A5.14,5.14,0,0,0,25.14,28Z"/><path class="cls-4" d="M20,47.31V55H30.29V30.57H29C29,43.08,29,47.29,20,47.31Z"/><path class="cls-5" d="M25.14,28A5.14,5.14,0,0,0,20,33.14V55H30.29V33.14A5.14,5.14,0,0,0,25.14,28Z"/><ellipse class="cls-6" cx="25" cy="55.5" rx="11" ry="7.15"/><path class="cls-3" d="M25,62.65c6.08,0,11-3.2,11-7.15a5,5,0,0,0-.75-2.58c-3.38,6.55-10.62,7.4-16.45,8.48A15.38,15.38,0,0,0,25,62.65Z"/><ellipse class="cls-5" cx="25" cy="55.5" rx="11" ry="7.15"/></g></svg>