<svg xmlns="http://www.w3.org/2000/svg" xmlns:xlink="http://www.w3.org/1999/xlink" viewBox="0 0 75 75"><defs><style>.cls-1,.cls-4{fill:none;}.cls-2{fill:#e6e6e6;stroke:#4d4d4d;}.cls-2,.cls-4{stroke-miterlimit:10;stroke-width:2px;}.cls-3{fill:#4d4d4d;}.cls-4{stroke:#333;stroke-linecap:round;}.cls-5{opacity:0.4;}.cls-6{clip-path:url(#clip-path);}.cls-7{fill:red;}</style><clipPath id="clip-path"><path class="cls-1" d="M199,123l-34.5,34.5v55l128,1v21h29V123ZM315.5,228.5h-17v-21l-128-1V160l31-31h114Z"/></clipPath></defs><title>panel-sig-gauge</title><g id="sprites"><circle class="cls-2" cx="37.5" cy="37.5" r="33.5"/><path class="cls-3" d="M37.5,8A29.5,29.5,0,1,0,67,37.5,29.5,29.5,0,0,0,37.5,8ZM56,44l-7-7h3.15a14.67,14.67,0,1,0-27.64,7.31L17.62,48A22.5,22.5,0,1,1,60,37h3Z"/><line class="cls-4" x1="37.5" y1="37.75" x2="52" y2="23.25"/><g class="cls-5"><g class="cls-6"><rect class="cls-7" x="201.88" y="-0.5" width="10" height="398.95" transform="translate(201.29 -88) rotate(45)"/><rect class="cls-7" x="187.73" y="-14.64" width="10" height="398.95" transform="translate(187.15 -82.15) rotate(45)"/><rect class="cls-7" x="173.59" y="-28.78" width="10" height="398.95" transform="translate(173.01 -76.29) rotate(45)"/><rect class="cls-7" x="159.45" y="-42.93" width="10" height="398.95" transform="translate(158.86 -70.43) rotate(45)"/><rect class="cls-7" x="145.31" y="-57.07" width="10" height="398.95" transform="translate(144.72 -64.57) rotate(45)"/><rect class="cls-7" x="131.16" y="-71.21" width="10" height="398.95" transform="translate(130.58 -58.71) rotate(45)"/><rect class="cls-7" x="117.02" y="-85.35" width="10" height="398.95" transform="translate(116.44 -52.86) rotate(45)"/></g></g></g></svg>