<svg xmlns="http://www.w3.org/2000/svg" viewBox="0 0 900 420"><defs><style>.cls-1,.cls-10,.cls-11,.cls-12,.cls-13,.cls-14,.cls-15,.cls-16,.cls-2,.cls-3,.cls-4,.cls-5,.cls-6,.cls-7,.cls-8,.cls-9{fill:none;}.cls-1{stroke:#006837;}.cls-1,.cls-11,.cls-12,.cls-13,.cls-14,.cls-15,.cls-16,.cls-2,.cls-3,.cls-4,.cls-5,.cls-6,.cls-7,.cls-8,.cls-9{stroke-miterlimit:10;}.cls-1,.cls-10,.cls-11,.cls-12,.cls-13,.cls-2,.cls-3,.cls-4,.cls-5,.cls-6,.cls-7,.cls-8,.cls-9{stroke-width:0.75px;}.cls-2{stroke:#0071bc;}.cls-10,.cls-11,.cls-12,.cls-13,.cls-3,.cls-4,.cls-5,.cls-6,.cls-7,.cls-8,.cls-9{stroke:#662d91;}.cls-4{stroke-dasharray:4.43 1.11;}.cls-5{stroke-dasharray:5.08 1.27;}.cls-6{stroke-dasharray:4.16 1.04;}.cls-7{stroke-dasharray:4.03 1.01;}.cls-8{stroke-dasharray:3.96 0.99;}.cls-9{stroke-dasharray:3.7 0.93;}.cls-10{stroke-linejoin:bevel;}.cls-10,.cls-11{stroke-dasharray:4 1;}.cls-12{stroke-linecap:round;}.cls-13{stroke-dasharray:5 1;}.cls-14,.cls-15,.cls-16{stroke:#000;}.cls-14{stroke-width:2px;}.cls-16{stroke-width:0.5px;}</style></defs><title>rcs</title><g id="cm_thrusters" data-name="cm thrusters"><ellipse class="cls-1" cx="128.75" cy="187" rx="6" ry="4" transform="translate(-86.35 259.65) rotate(-74.11)"/><path class="cls-1" d="M119.94,189l-13.36.73c-3.14-.89-4.59-5.43-3.26-10.14s5-7.8,8.1-6.9l10.67,7.77"/><path class="cls-1" d="M130.39,181.23l-5-1.5c-2.12-.6-4.58,1.49-5.49,4.68s.08,6.26,2.2,6.87l5,1.5"/><ellipse class="cls-1" cx="223.85" cy="57.09" rx="6" ry="4" transform="translate(107.66 256.77) rotate(-74.11)"/><path class="cls-1" d="M215,59.11l-13.36.73c-3.14-.89-4.59-5.43-3.26-10.14s5-7.8,8.1-6.9l10.67,7.77"/><path class="cls-1" d="M225.49,51.32l-5-1.5c-2.12-.6-4.58,1.49-5.49,4.68s.08,6.26,2.2,6.87l5,1.5"/><ellipse class="cls-1" cx="322.36" cy="116.27" rx="6" ry="4" transform="translate(122.29 394.49) rotate(-74.11)"/><path class="cls-1" d="M313.55,118.29l-13.36.73c-3.14-.89-4.59-5.43-3.26-10.14s5-7.8,8.1-6.9l10.67,7.77"/><path class="cls-1" d="M324,110.5l-5-1.5c-2.12-.6-4.58,1.49-5.49,4.68s.08,6.26,2.2,6.87l5,1.5"/><ellipse class="cls-1" cx="115.83" cy="165" rx="6.5" ry="4.33"/><path class="cls-1" d="M109.33,165v-6c0-2.39,2.91-4.33,6.5-4.33s6.5,1.94,6.5,4.33v6"/><path class="cls-1" d="M119.57,155.29,125,142c0-2.39-4.09-4.33-9.15-4.33s-9.15,1.94-9.15,4.33l5.78,13.29"/><path class="cls-1" d="M71.33,93c0,2.39,2.91,4.33,6.5,4.33s6.5-1.94,6.5-4.33"/><ellipse class="cls-1" cx="77.83" cy="87" rx="6.5" ry="4.33"/><path class="cls-1" d="M68.69,70c0,2.39,4.09,4.33,9.15,4.33S87,72.39,87,70s-4.09-4.33-9.15-4.33S68.69,67.61,68.69,70"/><line class="cls-1" x1="84.33" y1="93" x2="84.33" y2="87"/><line class="cls-1" x1="71.33" y1="93" x2="71.33" y2="87"/><path class="cls-1" d="M69.16,71.37,74.33,86.5c0,1.29,1.57,2.33,3.5,2.33s3.5-1,3.5-2.33l5.18-15.13"/><path class="cls-2" d="M97.33,85.43c0,2.39,2.91,4.33,6.5,4.33s6.5-1.94,6.5-4.33"/><ellipse class="cls-2" cx="103.83" cy="79.43" rx="6.5" ry="4.33"/><path class="cls-2" d="M94.69,62.43c0,2.39,4.09,4.33,9.15,4.33S113,64.82,113,62.43s-4.09-4.33-9.15-4.33S94.69,60,94.69,62.43"/><line class="cls-1" x1="110.33" y1="85.43" x2="110.33" y2="79.43"/><line class="cls-1" x1="97.33" y1="85.43" x2="97.33" y2="79.43"/><path class="cls-2" d="M95.16,63.8l5.18,15.13c0,1.29,1.57,2.33,3.5,2.33s3.5-1,3.5-2.33l5.18-15.13"/><path class="cls-1" d="M134.15,77.49l2-4c1.42-2.46,5.19-2.94,8.43-1.07s4.7,5.37,3.28,7.83l-2,4"/><path class="cls-1" d="M142.32,86.42a4.61,4.61,0,0,0,3.54-2.16c1.42-2.46,0-6-3.28-7.83s-7-1.39-8.43,1.07a4.47,4.47,0,0,0-.28,3.66"/><ellipse class="cls-1" cx="131.59" cy="94.43" rx="6.5" ry="8.55" transform="translate(-15.98 161.17) rotate(-60)"/><path class="cls-1" d="M126.39,88.1l9.49-8.81c.88-1.52,3.21-1.82,5.2-.66s2.9,3.32,2,4.84l-3.44,12.71"/><ellipse class="cls-2" cx="130.75" cy="205" rx="6" ry="4" transform="translate(-102.21 274.64) rotate(-74.11)"/><path class="cls-2" d="M104.83,201.06a12.74,12.74,0,0,1,.5-3.44c1.34-4.71,5-7.8,8.1-6.9l10.67,7.77"/><line class="cls-2" x1="121.94" y1="207.02" x2="111.45" y2="207.59"/><path class="cls-2" d="M132.39,199.23l-5-1.5c-2.12-.6-4.58,1.49-5.49,4.68s.08,6.26,2.2,6.87l5,1.5"/><ellipse class="cls-2" cx="249.85" cy="39.09" rx="6" ry="4" transform="translate(143.86 268.7) rotate(-74.11)"/><path class="cls-2" d="M241,41.11l-13.36.73c-3.14-.89-4.59-5.43-3.26-10.14s5-7.8,8.1-6.9l10.67,7.77"/><path class="cls-2" d="M251.49,33.32l-5-1.5c-2.12-.6-4.58,1.49-5.49,4.68s.08,6.26,2.2,6.87l5,1.5"/><ellipse class="cls-2" cx="323.36" cy="90.27" rx="6" ry="4" transform="translate(148.02 376.57) rotate(-74.11)"/><path class="cls-2" d="M314.55,92.29,301.19,93c-3.14-.89-4.59-5.43-3.26-10.14s5-7.8,8.1-6.9l10.67,7.77"/><path class="cls-2" d="M325,84.5,320,83c-2.12-.6-4.58,1.49-5.49,4.68s.08,6.26,2.2,6.87l5,1.5"/><ellipse class="cls-2" cx="305.54" cy="66.58" rx="5.75" ry="4.75" transform="translate(7.65 161.69) rotate(-30)"/><path class="cls-2" d="M297.72,62.1l-8.35-8.68c-1.76-3-.19-7.23,3.49-9.36s8.09-1.39,9.85,1.66l2.78,12.08"/><path class="cls-2" d="M300.56,69.45l-2.5-4c-1.31-2.27-.14-5.4,2.61-7s6-1,7.35,1.24l2.5,4"/><ellipse class="cls-2" cx="263.34" cy="25.67" rx="6.33" ry="4.18" transform="translate(109.44 240.89) rotate(-60)"/><path class="cls-2" d="M260.18,31.15l5,3c2,1.15,5-.37,6.78-3.4s1.55-6.42-.45-7.57l-5-3"/><path class="cls-2" d="M273.15,26.73l14.59,2.32c2.77,1.6,3.05,6.31.62,10.51s-6.64,6.32-9.42,4.72L269,33.86"/></g><g id="sm_lower" data-name="sm lower"><polyline class="cls-3" points="615.57 176.66 615 178.57 613.08 178"/><line class="cls-4" x1="612.02" y1="177.68" x2="596.63" y2="173.08"/><polyline class="cls-3" points="596.1 172.92 594.18 172.35 594.75 170.43"/><line class="cls-5" x1="595.12" y1="169.22" x2="596.75" y2="163.74"/><polyline class="cls-3" points="596.94 163.14 597.51 161.22 599.43 161.79"/><line class="cls-4" x1="600.49" y1="162.11" x2="615.88" y2="166.71"/><polyline class="cls-3" points="616.41 166.87 618.32 167.44 617.75 169.36"/><line class="cls-5" x1="617.39" y1="170.57" x2="615.75" y2="176.05"/><path class="cls-3" d="M610.34,177.18s0,.79.05,2"/><path class="cls-6" d="M610.4,180.22c0,3.21-.08,8.12-.84,10.39-.16.53-2.19.39-4.54-.31s-4.12-1.7-4-2.23A47.76,47.76,0,0,1,606,178.4"/><path class="cls-3" d="M606.26,178c.66-1,1.1-1.67,1.1-1.67"/><path class="cls-3" d="M617.08,171.61s.79,0,2-.05"/><path class="cls-7" d="M620.08,171.55c3,0,7.62.1,9.85.84.53.16.39,2.19-.31,4.54s-1.7,4.12-2.23,4a40.4,40.4,0,0,1-9.17-4.83"/><path class="cls-3" d="M617.8,175.78c-1-.69-1.63-1.15-1.63-1.15"/><path class="cls-3" d="M604.4,163.28s0-.79-.08-2"/><path class="cls-8" d="M604.3,160.3c-.05-2.95,0-7.33.7-9.56.15-.53,2.18-.43,4.54.24s4.15,1.63,4,2.16a37.71,37.71,0,0,1-4.63,9"/><path class="cls-3" d="M608.63,162.57c-.68,1-1.15,1.63-1.15,1.63"/><path class="cls-3" d="M595.06,169.42l-2,0"/><path class="cls-9" d="M592.14,169.36c-3.06-.1-6.83-.35-8.72-1-.53-.17-.34-2.2.41-4.53s1.79-4.08,2.32-3.91a42.13,42.13,0,0,1,8.06,4.16"/><path class="cls-3" d="M594.59,164.3c.63.4,1.19.78,1.67,1.1"/><polygon class="cls-10" points="489 356.5 496.33 351.67 519.33 359.17 512 363.93 489 356.5"/><line class="cls-11" x1="510.09" y1="367.9" x2="512" y2="363.93"/><polyline class="cls-3" points="494.76 365.86 508.83 370.5 510.09 367.9"/><line class="cls-12" x1="489" y1="356.5" x2="489.15" y2="357.54"/><line class="cls-11" x1="516.9" y1="363.45" x2="519.33" y2="359.17"/><line class="cls-11" x1="508.83" y1="370.5" x2="514.18" y2="367.12"/><path class="cls-3" d="M477.07,357.83c.11,2.5,1.39,4.54,3.29,4.9l6.16.37"/><path class="cls-11" d="M490.7,355.38l-8-4.7c-2.37-.46-4.81,1.87-5.45,5.2a8.4,8.4,0,0,0-.15,1.95"/><path class="cls-3" d="M523.08,371.08c-.29,2,0,3.5.78,3.77s2-.85,3-2.71"/><path class="cls-11" d="M526.87,372.13a15.91,15.91,0,0,0,1-2.4c1.08-3.21,1-6.12-.11-6.51s-3,1.9-4,5.11a15.68,15.68,0,0,0-.67,2.74"/><line class="cls-3" x1="519.31" y1="370.5" x2="523.38" y2="374.46"/><path class="cls-13" d="M527.32,363.21l-9.61.53-2-.7c-.39-.17-1.11.58-1.6,1.69s-.56,2.15-.17,2.32l2,.7,3.37,2.76"/><path class="cls-11" d="M509,355.8l.4-2.58c.81-2.12,3.44-3.08,5.87-2.15s3.74,3.41,2.93,5.53l-1.5,1.71"/><path class="cls-11" d="M486.56,361.31a4.63,4.63,0,0,1,3.79-4.12c2.45-.27,4.7,1.94,5,4.93a6.54,6.54,0,0,1-.06,1.88"/><path class="cls-3" d="M495.32,364a4.61,4.61,0,0,1-3.77,4c-2.45.27-4.7-1.94-5-4.93a6.56,6.56,0,0,1,0-1.79"/><path class="cls-11" d="M495.41,360.55a2.22,2.22,0,0,1,1.3,1.87,2.43,2.43,0,0,1-.35,1.58"/><line class="cls-11" x1="494.76" y1="365.67" x2="496.31" y2="364.06"/><line class="cls-11" x1="494.64" y1="359.74" x2="495.64" y2="360.66"/></g><g id="hull"><ellipse class="cls-14" cx="237.12" cy="151.09" rx="137.18" ry="98.08" transform="translate(26.89 337.8) rotate(-74.11)"/><path class="cls-14" d="M482.3,77.38c-47.39-1.78-96.45,42.7-115,107.77-20.74,72.87,4.69,144,56.79,158.79l184.55,51.43"/><line class="cls-14" x1="683.76" y1="131.49" x2="523.78" y2="86.91"/><path class="cls-14" d="M747.06,224.15c-4.27-45.68-27.48-82.46-63.3-92.66-52.1-14.83-111.14,32.22-131.88,105.09s4.69,144,56.79,158.79c35.82,10.19,74.92-8.86,102.6-45.44"/><ellipse class="cls-14" cx="820.44" cy="311.26" rx="92.14" ry="65.88" transform="translate(296.49 1015.17) rotate(-74.11)"/><path class="cls-14" d="M681.54,239.14a21.77,21.77,0,0,0-12-8.95c-14.57-4.15-31.08,9-36.88,29.39S634,299.84,648.57,304a21.87,21.87,0,0,0,15.22-1.46"/><path class="cls-14" d="M171.37,267.56,22.3,118.38l-.08-.08c-5.11-5.37-7-15.13-4.17-25.07,2.78-9.78,9.36-17,16.41-19L235,19"/><path class="cls-14" d="M664,238.37c-10.95-3.12-23.35,6.77-27.71,22.08s1,30.25,11.93,33.36"/><path class="cls-15" d="M675,241.37c-10.95-3.12-23.35,6.77-27.71,22.08s1,30.25,11.93,33.36"/><path class="cls-14" d="M845.66,222.64c-78.33-15-170.7,18.73-170.7,18.73l-11-3"/><path class="cls-14" d="M788.83,397.57c-84-39.68-129.64-100.75-129.64-100.75l-11-3"/></g><g id="sm_packages" data-name="sm packages"><polyline class="cls-3" points="489.37 79.22 492.67 76.33 496.67 73.83 508 77.43 511.95 82.05"/><polygon class="cls-3" points="405.24 292.31 392.07 288.78 392.66 282.8 405.83 286.33 405.24 292.31"/><polyline class="cls-3" points="391.04 281.46 391.45 277.36 397.17 278.89"/><polyline class="cls-3" points="400.5 293.39 390.14 290.61 390.66 285.38"/><polyline class="cls-3" points="410.58 291.83 410.17 295.98 403.09 294.08"/><polyline class="cls-3" points="400.88 279.89 411.48 282.73 410.97 287.89"/><line class="cls-3" x1="392.66" y1="282.8" x2="391.45" y2="277.36"/><line class="cls-3" x1="392.07" y1="288.78" x2="390.14" y2="290.61"/><line class="cls-3" x1="405.24" y1="292.31" x2="410.17" y2="295.98"/><line class="cls-3" x1="405.84" y1="286.33" x2="411.48" y2="282.73"/><polyline class="cls-3" points="507.33 91.83 504.5 79.67 492.67 76.33"/><line class="cls-3" x1="508" y1="77.43" x2="504.5" y2="79.67"/><polyline class="cls-3" points="488.51 86.09 507.33 91.83 514.25 88.05"/></g><g id="sm_thrusters" data-name="sm thrusters"><path class="cls-3" d="M482.85,79.42a7.34,7.34,0,0,1-.6-2.95c0-3.26,2-5.91,4.5-5.91l7.21,5"/><ellipse class="cls-3" cx="400.79" cy="269.56" rx="2.31" ry="4.44" transform="translate(72.59 623.93) rotate(-81.12)"/><path class="cls-3" d="M396.46,269.5l.84,8.7-.4,2c-.1.54.65,1.14,1.69,1.34s2-.08,2.07-.62l.4-2,3.79-8"/><ellipse class="cls-3" cx="418.94" cy="291.74" rx="4.49" ry="3.42" transform="translate(59.64 654.4) rotate(-80.12)"/><path class="cls-3" d="M416.58,295.27l-6.46-3.7-2-.5A1.69,1.69,0,0,1,407,289c.18-1,.94-1.72,1.72-1.59l2,.5,7.61-.48"/><path class="cls-3" d="M398.94,295.87l1.3-1.9.31-1.35c0-.12.63-.09,1.35.08s1.28.4,1.25.53l-.31,1.35,1.54,9.63c-.11.45-2.34.32-5-.3s-4.71-1.49-4.6-1.94Z"/><path class="cls-3" d="M379.89,278.93c.72-1.71,1.83-2.78,2.9-2.63l7.41,5.07,1,.2c.53.06.87,1,.76,2s-.64,1.87-1.18,1.82l-1-.2-8.59,2.15c-1.54-.22-2.43-2.88-2-5.94A10.26,10.26,0,0,1,379.89,278.93Z"/><ellipse class="cls-3" cx="484.82" cy="82.5" rx="2.76" ry="4.95"/><path class="cls-3" d="M486,87l6.86-2.47c.63,0,1.14-.91,1.14-2s-.51-2-1.14-2L486,78"/><ellipse class="cls-3" cx="521.44" cy="84.77" rx="2.56" ry="5.23"/><path class="cls-3" d="M521.44,90l-12-3.1c-.58,0-1-1-1-2.12s.47-2.12,1-2.12l2.51-.6,9.49-2.5"/><path class="cls-3" d="M518.71,80.37a7.23,7.23,0,0,0,0-4c-.77-2.91-2.91-4.87-4.78-4.37l-7,5.06"/></g><g id="labels"><path d="M502.37,58.79h2.38l3.56,10.08H506l-.66-2.07h-3.71L501,68.87h-2.2Zm-.14,6.27h2.58l-1.27-4Z"/><path d="M626,186.8a2.56,2.56,0,0,1,.46,1.54,2.24,2.24,0,0,1-.47,1.48,2.41,2.41,0,0,1-.77.57,2.24,2.24,0,0,1,1.16.89,2.67,2.67,0,0,1,.39,1.48,3,3,0,0,1-.45,1.61,2.78,2.78,0,0,1-1.85,1.3,7,7,0,0,1-1.42.14h-4.54V185.72h4.87A3.09,3.09,0,0,1,626,186.8Zm-5.47.68v2.22H623a2,2,0,0,0,1.07-.25,1,1,0,0,0,.41-.89.9.9,0,0,0-.54-.93,3.79,3.79,0,0,0-1.19-.16Zm0,3.89v2.69H623a2.38,2.38,0,0,0,1-.18,1.27,1.27,0,0,0,.66-1.26,1.08,1.08,0,0,0-.64-1.08,2.55,2.55,0,0,0-1-.17Z"/><path d="M497.67,338.67a4.7,4.7,0,0,1,6.78.42,3.64,3.64,0,0,1,.69,1.88H503a2.86,2.86,0,0,0-.52-1.09,2.29,2.29,0,0,0-3.44.27,4.53,4.53,0,0,0-.65,2.62,4,4,0,0,0,.69,2.54,2.15,2.15,0,0,0,1.74.84,2,2,0,0,0,1.65-.72,3.2,3.2,0,0,0,.52-1.17h2.09a4.55,4.55,0,0,1-1.38,2.68,4,4,0,0,1-2.85,1,4.28,4.28,0,0,1-3.38-1.39,6.61,6.61,0,0,1,.17-7.91Z"/><path d="M420.66,268.55a3.33,3.33,0,0,1,1.72,1.28,4.48,4.48,0,0,1,.72,1.63,7.79,7.79,0,0,1,.19,1.67,6.69,6.69,0,0,1-.81,3.4,3.64,3.64,0,0,1-3.38,1.88h-4.34V268.34h4.34A5.31,5.31,0,0,1,420.66,268.55Zm-3.86,1.53v6.58h1.94a2.1,2.1,0,0,0,2.08-1.47,5.17,5.17,0,0,0,.32-1.92,4.73,4.73,0,0,0-.48-2.36,2,2,0,0,0-1.92-.82Z"/><path d="M232.5,57.45V55.67h2.8v-2.8h1.8v2.8h2.8v1.78h-2.8v2.82h-1.8V57.45Z"/><path d="M248,55.91a3.84,3.84,0,0,1-2.53.74h-2.1v3.62h-2.09V50.19h4.33A3.49,3.49,0,0,1,248,51a3,3,0,0,1,.89,2.41A3.13,3.13,0,0,1,248,55.91Zm-1.61-3.63a1.7,1.7,0,0,0-1.12-.33h-1.9v3h1.9a1.61,1.61,0,0,0,1.12-.36,1.48,1.48,0,0,0,.4-1.15A1.39,1.39,0,0,0,246.4,52.28Z"/><path d="M273.53,6.75a4.7,4.7,0,0,1,6.78.42A3.64,3.64,0,0,1,281,9h-2.11A2.87,2.87,0,0,0,278.37,8a2.08,2.08,0,0,0-1.67-.66,2.05,2.05,0,0,0-1.77.93,4.53,4.53,0,0,0-.65,2.62,4,4,0,0,0,.69,2.54,2.15,2.15,0,0,0,1.74.84,2,2,0,0,0,1.65-.72,3.2,3.2,0,0,0,.52-1.17H281A4.54,4.54,0,0,1,279.59,15a4,4,0,0,1-2.85,1,4.28,4.28,0,0,1-3.38-1.39,5.62,5.62,0,0,1-1.23-3.84A5.57,5.57,0,0,1,273.53,6.75Z"/><path d="M283.64,6.75a4.7,4.7,0,0,1,6.78.42A3.64,3.64,0,0,1,291.11,9H289A2.87,2.87,0,0,0,288.48,8a2.08,2.08,0,0,0-1.67-.66,2.05,2.05,0,0,0-1.77.93,4.53,4.53,0,0,0-.65,2.62,4,4,0,0,0,.69,2.54,2.15,2.15,0,0,0,1.74.84,2,2,0,0,0,1.65-.72,3.2,3.2,0,0,0,.52-1.17h2.09A4.54,4.54,0,0,1,289.7,15a4,4,0,0,1-2.85,1,4.28,4.28,0,0,1-3.38-1.39,5.62,5.62,0,0,1-1.23-3.84A5.57,5.57,0,0,1,283.64,6.75Z"/><path d="M294.16,5.69l1.33,5.77.29,1.61.29-1.57,1.14-5.8h2.22l1.2,5.77.31,1.61.31-1.54,1.34-5.83h2.14L301.9,15.77h-2l-1.22-5.89-.36-1.95L298,9.88l-1.22,5.89h-2L291.92,5.69Z"/><path d="M320.62,38.5a4.7,4.7,0,0,1,6.78.42,3.64,3.64,0,0,1,.69,1.88H326a2.87,2.87,0,0,0-.52-1.09,2.08,2.08,0,0,0-1.67-.66A2.05,2.05,0,0,0,322,40a4.53,4.53,0,0,0-.65,2.62,4,4,0,0,0,.69,2.54,2.15,2.15,0,0,0,1.74.84,2,2,0,0,0,1.65-.72,3.2,3.2,0,0,0,.52-1.17h2.09a4.54,4.54,0,0,1-1.38,2.68,4,4,0,0,1-2.85,1,4.28,4.28,0,0,1-3.38-1.39,5.62,5.62,0,0,1-1.23-3.84A5.57,5.57,0,0,1,320.62,38.5Z"/><path d="M331.13,37.44l1.33,5.77.29,1.61.29-1.57,1.14-5.8h2.22l1.2,5.77.31,1.61.31-1.54,1.34-5.83h2.14l-2.83,10.08h-2l-1.22-5.89-.36-1.95-.36,1.95-1.22,5.89h-2L328.9,37.44Z"/><path d="M277.1,100V98.23h2.8v-2.8h1.8v2.8h2.8V100h-2.8v2.82h-1.8V100Z"/><path d="M291.6,92.75H294L290.61,99v3.78h-2.11V99L285,92.75h2.48l2.09,4.39Z"/><path d="M141.77,194h3.81v1.85h-3.81Z"/><path d="M152.93,188.75h2.39l-3.37,6.3v3.78h-2.11V195l-3.49-6.3h2.48l2.09,4.39Z"/><path d="M144.43,150.44a4.7,4.7,0,0,1,6.78.42,3.64,3.64,0,0,1,.69,1.88h-2.11a2.87,2.87,0,0,0-.52-1.09,2.08,2.08,0,0,0-1.67-.66,2.05,2.05,0,0,0-1.77.93,4.53,4.53,0,0,0-.65,2.62,4,4,0,0,0,.69,2.54,2.15,2.15,0,0,0,1.74.84,2,2,0,0,0,1.65-.72,3.2,3.2,0,0,0,.52-1.17h2.09a4.54,4.54,0,0,1-1.38,2.68,4,4,0,0,1-2.85,1,4.28,4.28,0,0,1-3.38-1.39,6.61,6.61,0,0,1,.17-7.91Z"/><path d="M154.54,150.44a4.7,4.7,0,0,1,6.78.42,3.64,3.64,0,0,1,.69,1.88H159.9a2.87,2.87,0,0,0-.52-1.09,2.08,2.08,0,0,0-1.67-.66,2.05,2.05,0,0,0-1.77.93,4.53,4.53,0,0,0-.65,2.62,4,4,0,0,0,.69,2.54,2.15,2.15,0,0,0,1.74.84,2,2,0,0,0,1.65-.72,3.2,3.2,0,0,0,.52-1.17H162a4.54,4.54,0,0,1-1.38,2.68,4,4,0,0,1-2.85,1,4.28,4.28,0,0,1-3.38-1.39,6.61,6.61,0,0,1,.17-7.91Z"/><path d="M165.05,149.38l1.33,5.77.29,1.61.29-1.57,1.14-5.8h2.22l1.2,5.77.31,1.61.31-1.54,1.34-5.83h2.14l-2.83,10.08h-2l-1.22-5.89-.36-1.95-.36,1.95-1.22,5.89h-2l-2.86-10.08Z"/><path d="M160.18,93.8a4.7,4.7,0,0,1,6.78.42,3.64,3.64,0,0,1,.69,1.88h-2.11A2.87,2.87,0,0,0,165,95a2.08,2.08,0,0,0-1.67-.66,2.05,2.05,0,0,0-1.77.93,4.53,4.53,0,0,0-.65,2.62,4,4,0,0,0,.69,2.54,2.15,2.15,0,0,0,1.74.84,2,2,0,0,0,1.65-.72,3.2,3.2,0,0,0,.52-1.17h2.09a4.54,4.54,0,0,1-1.38,2.68,4,4,0,0,1-2.85,1,4.28,4.28,0,0,1-3.38-1.39,6.61,6.61,0,0,1,.17-7.91Z"/><path d="M170.69,92.75,172,98.52l.29,1.61.29-1.57,1.14-5.8H176l1.2,5.77.31,1.61.31-1.54,1.34-5.83h2.14l-2.83,10.08h-2l-1.22-5.89L174.84,95l-.36,1.95-1.22,5.89h-2l-2.86-10.08Z"/><path d="M83.16,49.89H87v1.85H83.16Z"/><path d="M95.33,50.36a3.84,3.84,0,0,1-2.53.74H90.7v3.62H88.61V44.64h4.33a3.49,3.49,0,0,1,2.39.78,3,3,0,0,1,.89,2.41A3.13,3.13,0,0,1,95.33,50.36Zm-1.61-3.63a1.7,1.7,0,0,0-1.12-.33H90.7v3h1.9A1.61,1.61,0,0,0,93.72,49a1.48,1.48,0,0,0,.4-1.15A1.39,1.39,0,0,0,93.72,46.73Z"/></g><g id="compass_rose" data-name="compass rose"><line class="cls-14" x1="810.67" y1="93.91" x2="810.67" y2="41"/><polygon points="812.99 92.33 810.67 101 808.34 92.33 812.99 92.33"/><line class="cls-14" x1="781.69" y1="78.76" x2="832.8" y2="65.07"/><polygon points="831.87 67.72 839.64 63.23 830.67 63.23 831.87 67.72"/><line class="cls-14" x1="788.53" y1="65.07" x2="839.64" y2="78.76"/><polygon points="789.46 67.72 781.69 63.23 790.67 63.23 789.46 67.72"/><path class="cls-16" d="M812.64,37.25c4.45-.37,7.8-2,7.8-3.92,0-2.21-4.38-4-9.77-4s-9.77,1.79-9.77,4c0,1.91,3.26,3.5,7.62,3.9"/><polygon points="813.19 37.94 810.43 37.44 813.07 36.49 813.19 37.94"/><path class="cls-16" d="M772.64,83.23c1.51,4.21,3.94,7,5.81,6.52,2.13-.57,2.73-5.26,1.33-10.48s-4.26-9-6.39-8.41c-1.84.49-2.54,4.05-1.8,8.37"/><polygon points="772.12 83.94 771.89 81.14 773.49 83.45 772.12 83.94"/><path class="cls-16" d="M842.69,82.12c-.79,4.4-.1,8.05,1.77,8.55,2.13.57,5-3.19,6.39-8.41s.8-9.9-1.33-10.48c-1.84-.49-4.22,2.24-5.74,6.35"/><polygon points="841.88 82.48 843.08 79.94 843.32 82.74 841.88 82.48"/><path d="M767.61,62.24V61h2V59h1.28v2h2v1.27h-2v2h-1.28v-2Z"/><path d="M775,64.25h-1.75l2.31-3.67-2.2-3.53h1.8l1.28,2.34,1.32-2.34h1.74l-2.2,3.47,2.34,3.73h-1.83l-1.37-2.45Z"/><path d="M805.36,109.24V108h2v-2h1.28v2h2v1.27h-2v2h-1.28v-2Z"/><path d="M811.09,110l3.68-4.65h-3.59v-1.27h5.45v1.21L812.91,110h3.74v1.27h-5.56Z"/><path d="M842.72,62.24V61h2V59H846v2h2v1.27h-2v2h-1.28v-2Z"/><path d="M853.07,57.05h1.7l-2.41,4.5v2.7h-1.5v-2.7l-2.49-4.5h1.77l1.49,3.13Z"/></g></svg>