<svg xmlns="http://www.w3.org/2000/svg" xmlns:xlink="http://www.w3.org/1999/xlink" viewBox="0 0 300 240"><defs><style>.cls-1,.cls-2,.cls-4,.cls-5,.cls-6{fill:none;}.cls-2{stroke:#000;}.cls-2,.cls-4,.cls-5,.cls-6{stroke-miterlimit:10;stroke-width:2px;}.cls-3{clip-path:url(#clip-path);}.cls-4{stroke:#c1272d;}.cls-5{stroke:#2e3192;}.cls-6{stroke:#009245;}</style><clipPath id="clip-path"><rect class="cls-1" x="16" y="-21" width="270" height="320"/></clipPath></defs><title>ac-phases</title><g id="baseline"><line class="cls-2" x1="16" y1="59.5" x2="286" y2="59.5"/></g><g id="waves"><g class="cls-3"><path class="cls-4" d="M16,9.5c34,0,34,100,68,100s34-100,68-100,34,100,68,100,34-100,68-100,34,100,68,100"/><path class="cls-5" d="M-51,9.5c33.93,0,33.93,100,67.86,100S50.78,9.5,84.71,9.5s33.93,100,67.85,100,33.93-100,67.86-100,33.93,100,67.86,100,33.93-100,67.86-100,33.93,100,67.86,100"/><line class="cls-2" x1="16" y1="179.5" x2="286" y2="179.5"/><path class="cls-4" d="M16,129.5c34,0,34,100,68,100s34-100,68-100,34,100,68,100,34-100,68-100,34,100,68,100"/><path class="cls-5" d="M-75,129.5c33.93,0,33.93,100,67.86,100s33.93-100,67.86-100,33.93,100,67.85,100,33.93-100,67.86-100,33.93,100,67.86,100,33.93-100,67.86-100,33.93,100,67.86,100"/><path class="cls-6" d="M-31,129.5c33.93,0,33.93,100,67.86,100s33.93-100,67.86-100,33.93,100,67.85,100,33.93-100,67.86-100,33.93,100,67.86,100,33.93-100,67.86-100,33.93,100,67.86,100"/></g></g></svg>