<svg id="Layer_1" data-name="Layer 1" xmlns="http://www.w3.org/2000/svg" viewBox="0 0 50 128"><title>cm</title><path d="M7.59,30.07c-.93-.59-1.69-.17-1.69.93V97c0,1.1.75,1.49,1.65.87l34.7-23.74A4.25,4.25,0,0,0,43.9,71V55a4.06,4.06,0,0,0-1.69-3.07Z" style="fill:#b4b4b4"/><polygon points="43.9 65.13 43.9 73 5.9 99 5.9 72.5 43.9 65.13" style="fill:#010101;opacity:0.07"/><polygon points="43.9 71.13 43.9 73 5.9 99 5.9 91.5 43.9 71.13" style="fill:#010101;opacity:0.12"/><polygon points="43.9 55 43.9 58.63 5.9 47 5.9 33.5 43.9 55" style="fill:#fff;opacity:0.21"/><polygon points="43.9 56 43.9 56.63 5.9 42 5.9 36.5 43.9 56" style="fill:#fff;opacity:0.2"/><polygon points="43.9 56 43.9 56.63 5.9 39 5.9 37.5 43.9 56" style="fill:#fff;opacity:0.5"/><path d="M7.59,30.07c-.93-.59-1.69-.17-1.69.93V97c0,1.1.75,1.49,1.65.87l34.7-23.74A4.25,4.25,0,0,0,43.9,71V55a4.06,4.06,0,0,0-1.69-3.07Z" style="fill:none;stroke:#010101;stroke-miterlimit:10;stroke-width:3px"/><path d="M35.87,47.3a60.52,60.52,0,0,1,2,16.1,59.87,59.87,0,0,1-2,16.1" style="fill:none;stroke:#010101;stroke-miterlimit:10;stroke-width:0.25px"/><path d="M28.92,69.28a1.69,1.69,0,0,1,2,1.72v6a3.81,3.81,0,0,1-1.73,3L18.64,86c-1,.54-1.74.09-1.74-1V73a2.37,2.37,0,0,1,2-2.28Z" style="fill:none;stroke:#010101;stroke-miterlimit:10;stroke-width:0.5px"/><path d="M27.92,72.2a.79.79,0,0,1,1,.8v4A1.58,1.58,0,0,1,28,78.37l-3.14,1.26A.63.63,0,0,1,23.9,79V74a1.28,1.28,0,0,1,1-1.2Z" style="fill:#333"/><path d="M27.92,72.2a.79.79,0,0,1,1,.8v4A1.58,1.58,0,0,1,28,78.37l-3.14,1.26A.63.63,0,0,1,23.9,79V74a1.28,1.28,0,0,1,1-1.2Z" style="fill:none;stroke:#010101;stroke-miterlimit:10;stroke-width:0.5px"/><path d="M31.92,59.84a1.22,1.22,0,0,1,1,1.16v4a1,1,0,0,1-1,1h-7a.61.61,0,0,1-.6-.92l2.21-5.16a1.34,1.34,0,0,1,1.38-.76Z" style="fill:#333"/><path d="M31.92,59.84a1.22,1.22,0,0,1,1,1.16v4a1,1,0,0,1-1,1h-7a.61.61,0,0,1-.6-.92l2.21-5.16a1.34,1.34,0,0,1,1.38-.76Z" style="fill:none;stroke:#010101;stroke-miterlimit:10;stroke-width:0.5px"/><path d="M9,82.12a1,1,0,0,1-1.06-1A1.1,1.1,0,0,1,9,80a1,1,0,0,1,.94,1A1.12,1.12,0,0,1,9,82.12Z" style="fill:#333;stroke:#010101;stroke-miterlimit:10;stroke-width:0.5px"/><path d="M9,85.3a.78.78,0,0,1-1.06-.8A1.38,1.38,0,0,1,9,83.18.77.77,0,0,1,9.9,84,1.42,1.42,0,0,1,9,85.3Z" style="fill:#333;stroke:#010101;stroke-miterlimit:10;stroke-width:0.5px"/><g style="opacity:0.6000000000000001"><path d="M5.9,80a1.28,1.28,0,0,1,1-1.2l3-.6a.79.79,0,0,1,1,.8v6A1.58,1.58,0,0,1,10,86.37L6.83,87.63A.63.63,0,0,1,5.9,87Z" style="fill:none;stroke:#010101;stroke-miterlimit:10;stroke-width:0.25px"/></g><path d="M24,46.55A1.79,1.79,0,0,1,24.9,48v3a.67.67,0,0,1-.95.68l-4.1-1.36a1.5,1.5,0,0,1-1-1.32V45a.57.57,0,0,1,.9-.55Z" style="fill:#333"/><path d="M24,46.55A1.79,1.79,0,0,1,24.9,48v3a.67.67,0,0,1-.95.68l-4.1-1.36a1.5,1.5,0,0,1-1-1.32V45a.57.57,0,0,1,.9-.55Z" style="fill:none;stroke:#010101;stroke-miterlimit:10;stroke-width:0.5px"/><path d="M12,52.19a1.68,1.68,0,0,1-1-1.69c0-.83.49-1.34,1-1.16a1.75,1.75,0,0,1,1,1.67C12.9,51.76,12.49,52.29,12,52.19Z" style="fill:#333;stroke:#010101;stroke-miterlimit:10;stroke-width:0.5px"/><path d="M12,56c-.56,0-1-.67-1-1.5s.49-1.43,1-1.36a1.43,1.43,0,0,1,1,1.5C12.9,55.39,12.49,56,12,56Z" style="fill:#333;stroke:#010101;stroke-miterlimit:10;stroke-width:0.5px"/><polyline points="16.9 36 16.9 49 9.9 47 9.9 58 5.9 58" style="fill:none;stroke:#010101;stroke-miterlimit:10;stroke-width:0.25px;opacity:0.6000000000000001"/><g style="opacity:0.18"><path d="M24.29,50.83c.05.55.21,1,.35,1.08s.26-.36.26-.91V48A1.79,1.79,0,0,0,24,46.55l-4.21-2.1c-.49-.25-.51-.22,0,.06l3.29,2A2.22,2.22,0,0,1,24,48Z" style="fill:#010101"/></g><g style="opacity:0.18"><path d="M32.1,65c.08.55.3,1,.48,1s.32-.45.32-1V61a1.22,1.22,0,0,0-1-1.16l-4-.68c-.54-.09-.56,0,0,.16l2.6.86a1.82,1.82,0,0,1,1.11,1.31Z" style="fill:#010101"/></g><g style="opacity:0.18"><path d="M26.42,73.34a1.6,1.6,0,0,1,1.2,1.14l.61,2.73c.12.53.32.93.44.88s.23-.54.23-1.09V73a.79.79,0,0,0-1-.8l-2.81.56c-.54.11-.54.27,0,.36Z" style="fill:#010101"/></g></svg>