<svg id="Layer_1" data-name="Layer 1" xmlns="http://www.w3.org/2000/svg" viewBox="0 0 50 50"><title>Artboard 1</title><circle cx="25" cy="25" r="20" style="fill:#1072ba"/><path d="M37.33,9.28C35.54,11.73,33.67,14.44,31,14c-6-1-2,3-2,3s-7,4-7,0-5-8-5-8l-2,8c-3,4-9,8,0,13s-2,4-2,4-2,2,1,3a3.1,3.1,0,0,1,2,4l-1.27,1.14a19.89,19.89,0,0,0,19.6.54C33.79,39.93,32.8,37.55,31,38c-4,1-9-11-4-9s2-10,4-7,7-2,7,1c0,2.4,4.48-1.6,6.27-3.29A20,20,0,0,0,37.33,9.28Z" style="fill:#079247"/><circle cx="25" cy="25" r="20" style="fill:none;stroke:#010101;stroke-miterlimit:10;stroke-width:2px"/><path d="M33.5,28.5c2,0,4,3.54,3,3.77s-3,2.73-3,2.73,1-3.5-2-3.5S33.5,28.5,33.5,28.5Z" style="fill:#079247"/><path d="M13.5,40.5l-1.17,0a20,20,0,0,0,31.9-20.93A33,33,0,0,1,13.5,40.5Z" style="fill:#010101;opacity:0.2"/></svg>