<svg xmlns="http://www.w3.org/2000/svg" viewBox="0 0 300 400"><defs><style>.cls-1{fill:#e6e6e6;}.cls-19,.cls-2,.cls-22,.cls-24{fill:#ccc;}.cls-21,.cls-3{fill:#666;}.cls-12,.cls-13,.cls-14,.cls-15,.cls-16,.cls-17,.cls-18,.cls-27,.cls-4,.cls-5{fill:none;}.cls-17,.cls-18,.cls-20,.cls-21,.cls-22,.cls-23,.cls-24,.cls-26,.cls-27,.cls-4,.cls-5{stroke:#000;}.cls-12,.cls-13,.cls-14,.cls-15,.cls-16,.cls-18,.cls-19,.cls-20,.cls-21,.cls-22,.cls-23,.cls-24,.cls-26,.cls-27,.cls-4,.cls-5{stroke-miterlimit:10;}.cls-4{stroke-width:3px;}.cls-5{stroke-width:2px;}.cls-6{fill:#bdbdbd;}.cls-23,.cls-7{fill:#999;}.cls-20,.cls-26,.cls-8{fill:#b3b3b3;}.cls-9{fill:#ddd;}.cls-10{fill:#bcbcbc;}.cls-11{fill:#b9b9b9;}.cls-12,.cls-13,.cls-14,.cls-15{stroke:#999;}.cls-12,.cls-13,.cls-14,.cls-15,.cls-16,.cls-17,.cls-18,.cls-19,.cls-23,.cls-24,.cls-26{stroke-width:0.5px;}.cls-12{stroke-dasharray:6 2;}.cls-14{stroke-dasharray:5.96 1.99;}.cls-15{stroke-dasharray:5.79 1.93;}.cls-16{stroke:#4d4d4d;}.cls-17{stroke-linejoin:bevel;}.cls-19{stroke:gray;}.cls-25{fill:gray;}</style></defs><title>imu</title><g id="lower_shell" data-name="lower shell"><path class="cls-1" d="M128.46,378.77a57,57,0,0,1-30.9-8.55C76.93,356.66,64.58,331,62.77,298c-1.89-34.59,8-73.34,27.83-109.1,31.88-57.5,83.79-96.13,129.17-96.13a67.32,67.32,0,0,1,28.37,6c1.77.81,3.52,1.72,5.21,2.7,19.67,12.19,31.11,36.78,32.21,69.27,1.17,34.29-9.3,73.21-29.48,109.6-16.41,29.6-37.66,54.68-61.45,72.52-22.33,16.74-45.83,26-66.18,26Z"/><path class="cls-2" d="M200,101c38.63,0,71.3,18.51,82.16,44-4.88-19.77-14.73-34.84-28.81-43.56-1.69-1-3.44-1.89-5.21-2.7a67.32,67.32,0,0,0-28.37-6c-14.18,0-29,3.77-43.65,10.72A116.38,116.38,0,0,1,200,101Z"/><path class="cls-3" d="M258.49,92.85c-.51-.3-1-.57-1.55-.85l-4.85,8.74c.42.23.84.45,1.26.69,19.67,12.19,31.11,36.78,32.21,69.27,1.17,34.29-9.3,73.21-29.48,109.6-16.41,29.6-37.66,54.68-61.45,72.52-22.33,16.74-45.83,26-66.18,26h0a57.89,57.89,0,0,1-27-6.3l-4.85,8.75c49.29,25.85,124.23-16.8,168.19-96.08C308.4,206.56,305.32,121.71,258.49,92.85Z"/><path class="cls-4" d="M95.33,380.52c49.27,27.31,125.16-15.39,169.51-95.38s40.36-166.48-8.91-193.79"/><path class="cls-5" d="M253.35,101.42c19.67,12.19,31.11,36.78,32.21,69.27,1.17,34.29-9.3,73.21-29.48,109.6-16.41,29.6-37.66,54.68-61.45,72.52-22.33,16.74-45.83,26-66.18,26h0a57.9,57.9,0,0,1-27-6.29"/></g><g id="stable_member_1" data-name="stable member 1"><polygon class="cls-2" points="191 252 191 193 185 183 162 170 157 173 155 172 113 197 113 207 107 222 107 237 113 245 113 257 151 278.71 191 252"/><polygon class="cls-6" points="144 202 178 182 188 198 151 220 144 210 144 202"/><polygon class="cls-7" points="113 245 116 246.25 110 238 107 237 113 245"/><polygon class="cls-8" points="116 199 118.51 197.5 118.51 260.15 116 258.71 116 246.25 110 238 110 223 116 209 116 199"/><polygon class="cls-8" points="151 278.71 151 220 188 198 188 195 191 193 191 252 151 278.71"/></g><g id="s.m._2_fill" data-name="s.m. 2 fill"><polygon class="cls-2" points="142.5 246.5 142.5 236.5 199.5 202.5 212.5 202.5 235.5 215.5 235.5 261.5 225.5 279.5 190.5 297.5 183.5 293.5 180.5 296.5 162.5 296.5 147.5 288.5 147.5 249.5 142.5 246.5"/><path class="cls-9" d="M185.22,255.47a56.85,56.85,0,0,1,4.19-10c7.38-13.78,19.45-23,30-23a15.86,15.86,0,0,1,7.58,1.85,15.56,15.56,0,0,1,4.29,3.4l0,0c-5.44-6.78-17.45-9.53-29.85-6.14-15.09,4.13-25.05,15.79-22.25,26a14.63,14.63,0,0,0,5.78,8Z"/><rect class="cls-10" x="167.5" y="256.5" width="16" height="4"/><polygon class="cls-11" points="162.5 296.5 162.5 257.8 167.5 260.5 183.5 260.5 183.5 293.5 180.5 296.5 162.5 296.5"/><path class="cls-8" d="M183.5,256.5l1.72-1a56.85,56.85,0,0,1,4.19-10c7.38-13.78,19.45-23,30-23a15.86,15.86,0,0,1,7.58,1.85,15.56,15.56,0,0,1,4.29,3.4l4.19-2.53V261.5l-10,18-35,18-7-4Z"/><path class="cls-2" d="M222.54,234.5a2.44,2.44,0,0,1,.52-.08A2.38,2.38,0,0,0,222.54,234.5Z"/><path class="cls-2" d="M221.93,234.75a2.32,2.32,0,0,1,.51-.22A2.37,2.37,0,0,0,221.93,234.75Z"/><path class="cls-2" d="M199,277.79l-.53-.12Z"/><path class="cls-2" d="M197.9,277.52l-.4-.13Z"/><path class="cls-2" d="M228,243.7a14.15,14.15,0,0,0-3-8.46,2.37,2.37,0,0,0-1.88-.82,14.81,14.81,0,0,1,2.89,8.49c.36,5.75-1.38,12.32-4.89,18.52-5.29,9.34-13.8,16-21,16.52l-.63-.08a11.08,11.08,0,0,0,1.67.14h0c7.42,0,16.47-6.66,22-16.2C226.57,255.75,228.31,249.32,228,243.7Z"/><path class="cls-7" d="M196.58,277a9.68,9.68,0,0,0,3.45.94c7.23-.55,15.74-7.18,21-16.52,3.51-6.2,5.25-12.77,4.89-18.52a14.81,14.81,0,0,0-2.89-8.49,2.37,2.37,0,0,0-1.14.33l-27.25,16.1a2.4,2.4,0,0,0-1,1.07,30.87,30.87,0,0,0-3,14.38C191,271.49,193.13,275.29,196.58,277Z"/><path class="cls-2" d="M226.07,226.07c-10.29-5.51-25.91,3.61-34.9,20.37s-7.93,34.83,2.36,40.34,25.91-3.61,34.9-20.37S236.36,231.59,226.07,226.07Zm-.29,38.37C219.33,276,208.78,284,200.12,284h0a11.34,11.34,0,0,1-5.23-1.2c-4-2.07-6.46-6.66-6.84-12.92-.41-6.78,1.61-14.54,5.71-21.85,6.45-11.51,17-19.56,25.66-19.56a11.33,11.33,0,0,1,5.23,1.2c4,2.07,6.46,6.66,6.84,12.92C231.9,249.37,229.87,257.13,225.78,264.45Z"/></g><g id="s.m.1_accel" data-name="s.m.1 accel"><path class="cls-12" d="M141.81,233.41l41-23c4.47-3,3.95-11.61-1.17-19.22s-12.89-11.34-17.36-8.34l-41,23"/><line class="cls-13" x1="153.26" y1="222.04" x2="155.88" y2="220.57"/><path class="cls-14" d="M157.61,219.6l6.68-3.75c4.47-3,12.24.73,17.36,8.34q.59.88,1.1,1.77"/><path class="cls-13" d="M183.21,226.83a26,26,0,0,1,1.24,2.73"/><path class="cls-12" d="M153.47,232.77c-4.59-4.19-9.87-5.75-13.24-3.42l-16.95,9.51"/><path class="cls-12" d="M141.81,266.41l8.19-4.6"/><path class="cls-13" d="M168.08,227.16a24.91,24.91,0,0,0-2.15-2.09"/><path class="cls-15" d="M164.41,223.87c-4-2.88-8.25-3.73-11.13-1.8-2.53,1.7-3.46,5.19-2.87,9.28"/><path class="cls-13" d="M150.58,232.31a21.62,21.62,0,0,0,.79,2.89"/><ellipse class="cls-16" cx="132.54" cy="219.63" rx="9.75" ry="16.6" transform="translate(-99.98 111.29) rotate(-33.91)"/><ellipse class="cls-16" cx="132.54" cy="252.63" rx="9.75" ry="16.6" transform="translate(-118.39 116.9) rotate(-33.91)"/></g><g id="s.m.2_accel" data-name="s.m.2 accel"><line class="cls-12" x1="228" y1="244.5" x2="228" y2="219.67"/><line class="cls-12" x1="185" y1="219.67" x2="185" y2="229.81"/><path class="cls-12" d="M150,239.67v43c0,7,9.63,12.67,21.5,12.67s21.5-5.67,21.5-12.67v-43"/><path class="cls-12" d="M154,241.63v22c0,5,6.72,9,15,9s15-4,15-9v-22"/><path class="cls-16" d="M226.83,223.81a8.12,8.12,0,0,0,1.17-4.14c0-7-9.63-12.67-21.5-12.67S185,212.67,185,219.67c0,2.84,1.58,5.46,4.26,7.57"/><path class="cls-12" d="M189.26,227.23c3.92,3.1,10.18,5.1,17.24,5.1,9.41,0,17.41-3.56,20.33-8.53"/><path class="cls-16" d="M185.68,230.15A31.31,31.31,0,0,0,171.5,227c-11.87,0-21.5,5.67-21.5,12.67s9.63,12.67,21.5,12.67a34.34,34.34,0,0,0,9.27-1.23"/><path class="cls-12" d="M180.77,251.1c7.23-2,12.23-6.39,12.23-11.43,0-3.79-2.83-7.2-7.32-9.52"/><path class="cls-16" d="M180.77,236.66c-2.75-1.85-7-3-11.77-3-8.28,0-15,3.58-15,8s6.72,8,15,8a23.36,23.36,0,0,0,10.3-2.19"/><path class="cls-12" d="M179.3,247.44c2.89-1.46,4.7-3.52,4.7-5.81,0-1.87-1.21-3.6-3.23-5"/></g><g id="s.m.1_stroke" data-name="s.m.1 stroke"><polyline class="cls-5" points="191 207.57 191 193 185 183 162 170 157 173 155 172 113 197 113 207 107 222 107 237 113 245 113 257 147.5 276.71"/><polygon class="cls-17" points="116 199 116 209 110 223 110 238 116 246.25 116 258.71 118.51 260.15 118.51 197.5 116 199"/><polyline class="cls-18" points="118.51 197.5 123.24 197.69 163 174.5 158.67 172"/><polygon class="cls-18" points="123.24 197.69 144 210 144 202 129.78 193.88 123.24 197.69"/><polyline class="cls-18" points="144 210 151 220 188 198 178 182 144 202"/><line class="cls-18" x1="151" y1="220" x2="151" y2="231.43"/><polygon class="cls-17" points="178 182 182 185 188 195 188 198 178 182"/><polygon class="cls-18" points="185 183 182 185 188 195 191 193 185 183"/></g><g id="s.m._2_stroke" data-name="s.m. 2 stroke"><polygon class="cls-5" points="142.5 246.5 142.5 236.5 199.5 202.5 212.5 202.5 235.5 215.5 235.5 261.5 225.5 279.5 190.5 297.5 183.5 293.5 180.5 296.5 162.5 296.5 147.5 288.5 147.5 249.5 142.5 246.5"/><polygon class="cls-17" points="142.5 246.5 142.5 242.33 167.5 256.5 167.5 260.5 162.5 257.8 162.5 296.5 147.5 288.5 147.5 249.5 142.5 246.5"/><rect class="cls-18" x="167.5" y="256.5" width="16" height="4"/><line class="cls-17" x1="183.5" y1="293.5" x2="183.5" y2="260.5"/><path class="cls-18" d="M183.5,256.5l1.72-1a56.85,56.85,0,0,1,4.19-10c7.38-13.78,19.45-23,30-23a15.86,15.86,0,0,1,7.58,1.85,15.56,15.56,0,0,1,4.29,3.4l4.19-2.53"/><ellipse class="cls-18" cx="209.8" cy="256.43" rx="34.44" ry="21.14" transform="translate(-115.32 320.23) rotate(-61.81)"/><path class="cls-18" d="M200.12,284a11.34,11.34,0,0,1-5.23-1.2c-4-2.07-6.46-6.66-6.84-12.92-.41-6.78,1.61-14.54,5.71-21.85,6.45-11.51,17-19.56,25.66-19.56a11.33,11.33,0,0,1,5.23,1.2c4,2.07,6.46,6.66,6.84,12.92.41,6.78-1.61,14.54-5.71,21.86C219.33,276,208.78,284,200.12,284Z"/><path class="cls-18" d="M223.06,261.8c3.51-6.06,5.25-12.49,4.89-18.1a14.15,14.15,0,0,0-3-8.46,2.38,2.38,0,0,0-3-.49l-27.25,16.1a2.4,2.4,0,0,0-1,1.07,30.87,30.87,0,0,0-3,14.38c.33,5.19,2.41,9,5.87,10.7a10,10,0,0,0,4.48,1h0C208.49,278,217.54,271.34,223.06,261.8Z"/><path class="cls-18" d="M196.58,277a9.68,9.68,0,0,0,3.45.94c7.23-.55,15.74-7.18,21-16.52,3.51-6.2,5.25-12.77,4.89-18.52a14.81,14.81,0,0,0-2.89-8.49,2.37,2.37,0,0,0-1.14.33l-27.25,16.1a2.4,2.4,0,0,0-1,1.07,30.87,30.87,0,0,0-3,14.38C191,271.49,193.13,275.29,196.58,277Z"/></g><g id="rings_rods" data-name="rings/rods"><ellipse class="cls-19" cx="171.5" cy="361.88" rx="4.17" ry="2.5"/><path class="cls-20" d="M171.5,362.3a1.84,1.84,0,0,1-2-1.8V338.25a2,2,0,0,1,4,0V360.5A1.84,1.84,0,0,1,171.5,362.3Z"/><path class="cls-21" d="M236.73,123.6c25.84,16,31.5,84.12-3.71,145.12-34.09,59.05-92.83,90.24-121.12,77.21,37,18.28,93.47-13.8,127.84-73.33C275,211.6,273.61,144.89,236.73,123.6Z"/><path class="cls-22" d="M257.25,284.38a2,2,0,0,1-1-.26l-49.5-27.87a2,2,0,0,1,2-3.49l49.5,27.88a2,2,0,0,1-1,3.74Z"/><path class="cls-23" d="M251.91,178.8l4-2c2.62-1.74,6.63-.29,9,3.22s2.09,7.77-.52,9.5l-4.76,2.4"/><ellipse class="cls-24" cx="256.12" cy="185.16" rx="5.69" ry="7.63" transform="translate(-59.66 172.34) rotate(-33.54)"/><path class="cls-25" d="M173,168.33c63.73,0,115.4,29.4,115.4,65.67,0-46-51.66-71.3-115.4-71.3S57.56,188,57.56,234C57.56,197.73,109.23,168.33,173,168.33Z"/><path class="cls-24" d="M261.77,275l-4-2c-2.89-1.83-7.31,0-9.87,4s-2.28,8.8.62,10.63l4.73,2.37"/><ellipse class="cls-26" cx="257.15" cy="282.27" rx="8.66" ry="6.2" transform="translate(-118.85 348.85) rotate(-57.71)"/><path class="cls-2" d="M173,299.67c-63.73,0-115.4-29.4-115.4-65.67,0,46,51.66,71.3,115.4,71.3S288.35,280,288.35,234C288.35,270.27,236.69,299.67,173,299.67Z"/><ellipse class="cls-27" cx="172.96" cy="234" rx="115.4" ry="65.67"/><path class="cls-27" d="M288.35,234c0-46-51.66-71.3-115.4-71.3S57.56,188,57.56,234s51.66,71.3,115.4,71.3S288.35,280,288.35,234Z"/><path class="cls-23" d="M79.91,276.9l4-2c2.62-1.74,6.63-.29,9,3.22s2.09,7.77-.52,9.5L87.58,290"/><ellipse class="cls-24" cx="84.12" cy="283.26" rx="5.69" ry="7.63" transform="translate(-142.5 93.64) rotate(-33.54)"/><ellipse class="cls-26" cx="93.45" cy="188.17" rx="8.66" ry="6.2" transform="translate(-115.55 166.64) rotate(-57.71)"/><path class="cls-22" d="M105.41,196.85l-11.63-6.55a2,2,0,1,1,2-3.49l11.68,6.58"/><path class="cls-22" d="M112.91,199.38c34-58.94,93.87-89.6,121.09-77.23C197,103.9,140.54,136,106.18,195.5c-35.22,61-33.87,127.71,3,149C81,327.33,77.69,260.38,112.91,199.38Z"/><line class="cls-27" x1="233.99" y1="122.15" x2="236.73" y2="123.6"/><line class="cls-27" x1="109.19" y1="344.5" x2="111.89" y2="345.93"/><ellipse class="cls-18" cx="83.82" cy="283.46" rx="1.5" ry="2.01" transform="translate(-142.66 93.51) rotate(-33.54)"/><ellipse class="cls-18" cx="256.12" cy="185.16" rx="1.5" ry="2.01" transform="translate(-59.66 172.34) rotate(-33.54)"/><ellipse class="cls-18" cx="257.25" cy="282.38" rx="1.33" ry="0.95" transform="translate(-118.88 348.98) rotate(-57.71)"/><path class="cls-20" d="M171.5,133.5a2,2,0,0,1-2-2V97.25a2,2,0,0,1,4,0V131.5A2,2,0,0,1,171.5,133.5Z"/><ellipse class="cls-18" cx="171" cy="337.89" rx="1.75" ry="1.44" transform="matrix(0.99, -0.13, 0.13, 0.99, -41.56, 24.47)"/></g><g id="upper_shell" data-name="upper shell"><path class="cls-3" d="M97.56,370.23C76.93,356.66,64.58,331,62.77,298c-1.89-34.59,8-73.34,27.83-109.1,31.88-57.5,83.79-96.13,129.17-96.13a67.32,67.32,0,0,1,28.37,6c1.34.62,2.65,1.3,4,2L256.94,92c-1.52-.84-3.05-1.63-4.62-2.35C199.92,65.51,124.81,106.55,81.86,184s-38,163,10.29,194.61q2.21,1.4,4.5,2.59l4.85-8.75C100.16,371.78,98.84,371,97.56,370.23Z"/><path class="cls-2" d="M213.81,73.83a164.61,164.61,0,0,1,44.07,18.67c-52.53-29.89-131.52,11.28-176,91.53S44.3,353.2,97.57,381.86a165.56,165.56,0,0,1,116.24-308Z"/><path class="cls-8" d="M52.82,299a144.86,144.86,0,0,1-5.46-173.9A165.54,165.54,0,0,0,97.57,381.86C70.13,367.1,55,336.35,52.82,299Z"/><path class="cls-4" d="M257.19,92.08A165.53,165.53,0,1,0,96.75,381.44"/><path class="cls-5" d="M257.18,92.1c-52.53-29.12-131,12-175.32,91.93S44.23,352.3,96.76,381.42"/><path class="cls-5" d="M101.49,372.48q-2-1-3.93-2.25C76.93,356.66,64.58,331,62.77,298c-1.89-34.59,8-73.34,27.83-109.1,31.88-57.5,83.79-96.13,129.17-96.13a67.32,67.32,0,0,1,28.37,6c1.77.81,3.52,1.72,5.21,2.7"/></g><g id="compass_rose" data-name="compass rose"><line class="cls-5" x1="246.5" y1="66.5" x2="246.5" y2="23.59"/><polygon points="248.82 25.17 246.5 16.5 244.18 25.17 248.82 25.17"/><line class="cls-5" x1="224.85" y1="54" x2="262.01" y2="32.54"/><polygon points="261.8 35.35 268.15 29 259.48 31.32 261.8 35.35"/><line class="cls-5" x1="224.85" y1="29" x2="262.01" y2="50.46"/><polygon points="259.48 51.68 268.15 54 261.8 47.65 259.48 51.68"/><path d="M240.86,12.74V11.46h2v-2h1.28v2h2v1.27h-2v2h-1.28v-2Z"/><path d="M246.46,14.75l1.82-2.7-1.74-2.62h1.71l.89,1.54L250,9.44h1.65L249.91,12l1.82,2.72H250l-.92-1.6-.93,1.6Z"/><path d="M268.86,26.74V25.46h2v-2h1.28v2h2v1.27h-2v2h-1.28v-2Z"/><path d="M274.69,24.56V23.43h4.21v1.16l-2.61,3H279v1.14H274.5V27.67l2.64-3.11Z"/><path d="M267.86,57.74V56.46h2v-2h1.28v2h2v1.27h-2v2h-1.28v-2Z"/><path d="M274.2,60.77h.18a2.23,2.23,0,0,0,.39,0,.7.7,0,0,0,.31-.11.75.75,0,0,0,.23-.35.83.83,0,0,0,.09-.32l-2-5.56H275l1.16,3.93,1.1-3.93h1.48l-1.83,5.23a7.37,7.37,0,0,1-.84,1.88,1.59,1.59,0,0,1-1.23.36h-.3l-.34,0Z"/></g></svg>