<svg id="Layer_1" data-name="Layer 1" xmlns="http://www.w3.org/2000/svg" viewBox="0 0 80 128"><title>lm-a</title><polygon points="61.07 57.18 75.76 52.56 75.76 76.48 61.07 71.64 61.07 57.18" style="fill:#333;stroke:#010101;stroke-miterlimit:10;stroke-width:3px"/><line x1="68.27" y1="54.54" x2="68.27" y2="74.28" style="fill:none;stroke:#010101;stroke-miterlimit:10"/><line x1="70.93" y1="53.85" x2="70.93" y2="74.7" style="fill:none;stroke:#010101;stroke-miterlimit:10"/><path d="M25.14,37c-1.1,0-1.35-.63-.57-1.4l3.57-3.53a5.75,5.75,0,0,1,3.43-1.42l16.5-.13a5.37,5.37,0,0,1,3.39,1.42L55,35.56c.76.79.48,1.44-.62,1.44Z" style="fill:#818181"/><path d="M25.14,37c-1.1,0-1.35-.63-.57-1.4l3.57-3.53a5.75,5.75,0,0,1,3.43-1.42l16.5-.13a5.37,5.37,0,0,1,3.39,1.42L55,35.56c.76.79.48,1.44-.62,1.44Z" style="fill:none;stroke:#010101;stroke-miterlimit:10"/><path d="M17.73,90a2,2,0,0,0-2,2l0,2.08a4.55,4.55,0,0,0,1.65,3.18L21,99.82A7.2,7.2,0,0,0,24.57,101h20a12.1,12.1,0,0,0,3.85-.77l2.3-1a5.41,5.41,0,0,0,2.58-2.63l.31-.78A15,15,0,0,0,54.45,92l0-.34a1.88,1.88,0,0,0-1.9-2Z" style="fill:#818181"/><path d="M17.73,90a2,2,0,0,0-2,2l0,2.08a4.55,4.55,0,0,0,1.65,3.18L21,99.82A7.2,7.2,0,0,0,24.57,101h20a12.1,12.1,0,0,0,3.85-.77l2.3-1a5.41,5.41,0,0,0,2.58-2.63l.31-.78A15,15,0,0,0,54.45,92l0-.34a1.88,1.88,0,0,0-1.9-2Z" style="fill:none;stroke:#010101;stroke-miterlimit:10"/><line x1="15.73" y1="95.33" x2="54.34" y2="95.33" style="fill:#818181;stroke:#010101;stroke-miterlimit:10;stroke-width:0.5px"/><rect x="4.07" y="37" width="57" height="53" rx="7" style="fill:#ccc"/><rect x="4.07" y="37" width="57" height="53" rx="7" style="fill:none;stroke:#010101;stroke-miterlimit:10;stroke-width:3px"/><path d="M61.07,84.43V62.26l-45,28h38.5C61.07,90.26,61.07,84.43,61.07,84.43Z" style="fill:#010101;opacity:0.07"/><circle cx="32.57" cy="63.5" r="23" style="fill:#989898"/><polygon points="29.82 55.76 29.73 72 35.94 72.73 35.94 55 29.82 55.76" style="fill:#676767"/><path d="M61.07,84.17V78.5l-18,11.34h11.5C60.12,89.84,61.07,84.17,61.07,84.17Z" style="fill:#010101;opacity:0.12"/><polygon points="29.82 55.76 29.73 72 17.08 70.5 17.08 57.34 29.82 55.76" style="fill:#b4b4b4"/><polygon points="52.65 74.71 29.73 72 25.37 76 52.65 74.71" style="fill:#818181"/><circle cx="32.57" cy="63.5" r="23" style="fill:none;stroke:#010101;stroke-miterlimit:10;stroke-width:2px"/><line x1="10.19" y1="58.19" x2="52.97" y2="52.88" style="fill:#989898;stroke:#010101;stroke-miterlimit:10"/><line x1="10.42" y1="69.71" x2="52.65" y2="74.71" style="fill:#989898;stroke:#010101;stroke-miterlimit:10"/><polygon points="29.82 55.76 19.61 44.5 17.08 57.34 29.82 55.76" style="fill:#1a1a1a;stroke:#010101;stroke-miterlimit:10"/><polygon points="17.08 70.5 19.26 82.26 29.32 71.95 17.08 70.5" style="fill:#1a1a1a;stroke:#010101;stroke-miterlimit:10"/><rect x="37.07" y="58" width="12" height="12" rx="3" style="fill:#818181"/><rect x="37.07" y="58" width="12" height="12" rx="3" style="fill:none;stroke:#010101;stroke-miterlimit:10"/><line x1="35.94" y1="55" x2="35.94" y2="72.73" style="fill:#818181;stroke:#010101;stroke-miterlimit:10"/><line x1="29.73" y1="55.77" x2="29.73" y2="72" style="fill:#818181;stroke:#010101;stroke-miterlimit:10;stroke-width:0.5px"/><line x1="17.14" y1="57.03" x2="17.14" y2="70.5" style="fill:#989898;stroke:#010101;stroke-miterlimit:10;stroke-width:0.5px"/><rect x="28.07" y="31" width="7" height="5" transform="translate(65.07 1.93) rotate(90)" style="fill:#818181;stroke:#010101;stroke-miterlimit:10"/><polygon points="24.07 31 24.07 34 27.07 34 29.07 33.02 29.07 32.19 27.07 31 24.07 31" style="fill:#ccc;stroke:#010101;stroke-miterlimit:10;stroke-width:0.75px"/><polygon points="39.07 31 39.07 34 36.07 34 34.07 33.02 34.07 32.19 36.07 31 39.07 31" style="fill:#ccc;stroke:#010101;stroke-miterlimit:10;stroke-width:0.75px"/><polygon points="33.07 25 30.07 25 30.07 28 31.05 30 31.88 30 33.07 28 33.07 25" style="fill:#ccc;stroke:#010101;stroke-miterlimit:10;stroke-width:0.75px"/><rect x="28.07" y="91" width="7" height="5" transform="translate(-61.93 125.07) rotate(-90)" style="fill:#818181;stroke:#010101;stroke-miterlimit:10"/><polygon points="24.07 96 24.07 93 27.07 93 29.07 93.98 29.07 94.81 27.07 96 24.07 96" style="fill:#ccc;stroke:#010101;stroke-miterlimit:10;stroke-width:0.75px"/><polygon points="39.07 96 39.07 93 36.07 93 34.07 93.98 34.07 94.81 36.07 96 39.07 96" style="fill:#ccc;stroke:#010101;stroke-miterlimit:10;stroke-width:0.75px"/><polygon points="33.07 102 30.07 102 30.07 99 31.05 97 31.88 97 33.07 99 33.07 102" style="fill:#ccc;stroke:#010101;stroke-miterlimit:10;stroke-width:0.75px"/><path d="M14.07,37a1,1,0,0,0-.29-.71l-4.5-4.5a1,1,0,0,0-1.42,1.42l4.5,4.5a1,1,0,0,0,1.42,0A1,1,0,0,0,14.07,37Z" style="fill:#676767;stroke:#010101;stroke-miterlimit:10"/><path d="M12.07,25.5a1.5,1.5,0,0,0-1.5-1.5h-6a1.5,1.5,0,0,0,0,3h6A1.5,1.5,0,0,0,12.07,25.5Z" style="fill:#676767;stroke:#010101;stroke-miterlimit:10"/><path d="M9.57,32.5v-3a1,1,0,0,0-.29-.71l-4-4a1,1,0,0,0-1.42,1.42l3.71,3.7V32.5a1,1,0,0,0,2,0Z" style="fill:#989898;stroke:#010101;stroke-miterlimit:10"/><path d="M13.07,20V31a7.28,7.28,0,0,1-2.73-5.5A7.28,7.28,0,0,1,13.07,20Z" style="fill:#989898;stroke:#010101;stroke-linecap:round;stroke-linejoin:round"/><line x1="13.07" y1="25.5" x2="15.07" y2="25.5" style="fill:#989898;stroke:#010101;stroke-linecap:round;stroke-linejoin:round"/></svg>