<svg id="Layer_1" data-name="Layer 1" xmlns="http://www.w3.org/2000/svg" viewBox="0 0 70 128"><title>lm-d</title><polygon points="39.01 55.75 56.51 50.25 56.51 78.75 39.01 72.98 39.01 55.75" style="fill:#333;stroke:#010101;stroke-miterlimit:10;stroke-width:3px"/><line x1="49" y1="52.61" x2="49" y2="76.12" style="fill:none;stroke:#010101;stroke-miterlimit:10;stroke-width:0.75px"/><line x1="50.76" y1="51.79" x2="50.76" y2="76.63" style="fill:none;stroke:#010101;stroke-miterlimit:10;stroke-width:0.75px"/><path d="M39.51,27.25A1.48,1.48,0,0,0,38.78,26L12.92,10.41A1.5,1.5,0,0,0,11.37,13L37.23,28.54A1.51,1.51,0,0,0,39.29,28,1.46,1.46,0,0,0,39.51,27.25Z" style="fill:#f79421;stroke:#010101;stroke-miterlimit:10"/><path d="M14.51,9.25a1.5,1.5,0,0,0-2.92-.5l-5,17a1.5,1.5,0,0,0,2.83,1l5-17A1.47,1.47,0,0,0,14.51,9.25Z" style="fill:#fbb03b;stroke:#010101;stroke-miterlimit:10"/><path d="M48.53,24.37a1.52,1.52,0,0,0-.77-1.31,1.5,1.5,0,0,0-2,.58l-10,17.88A1.5,1.5,0,1,0,38.31,43l10-17.88A1.49,1.49,0,0,0,48.53,24.37Z" style="fill:#f79421;stroke:#010101;stroke-miterlimit:10"/><path d="M60,29.25a2,2,0,0,0-1.19-1.83l-45-20a2,2,0,0,0-1.63,3.66l45,20a2,2,0,0,0,2.64-1A2,2,0,0,0,60,29.25Z" style="fill:#fbb03b;stroke:#010101;stroke-miterlimit:10"/><path d="M66,24.25a2,2,0,0,0-3.28-1.54l-5.95,5-6.94,4.95a2,2,0,0,0,2.33,3.26l7.12-5.09,6-5A2,2,0,0,0,66,24.25" style="fill:#f79421;stroke:#010101;stroke-miterlimit:10"/><path d="M39.51,100.75a1.48,1.48,0,0,1-.73,1.28L12.92,117.59A1.5,1.5,0,1,1,11.37,115L37.23,99.46a1.51,1.51,0,0,1,2.06.52A1.46,1.46,0,0,1,39.51,100.75Z" style="fill:#f79421;stroke:#010101;stroke-miterlimit:10"/><path d="M14.51,118.75a1.5,1.5,0,0,1-2.92.5l-5-17a1.5,1.5,0,0,1,2.83-1l5,17A1.47,1.47,0,0,1,14.51,118.75Z" style="fill:#fbb03b;stroke:#010101;stroke-miterlimit:10"/><path d="M48.53,103.63a1.52,1.52,0,0,1-.77,1.31,1.5,1.5,0,0,1-2-.58l-10-17.88A1.5,1.5,0,1,1,38.31,85l10,17.88A1.49,1.49,0,0,1,48.53,103.63Z" style="fill:#f79421;stroke:#010101;stroke-miterlimit:10"/><path d="M60,98.75a2,2,0,0,1-1.19,1.83l-45,20a2,2,0,0,1-1.63-3.66l45-20a2,2,0,0,1,2.64,1A2,2,0,0,1,60,98.75Z" style="fill:#fbb03b;stroke:#010101;stroke-miterlimit:10"/><path d="M66,103.75a2,2,0,0,1-3.28,1.54l-5.95-5-6.94-5a2,2,0,0,1,2.33-3.26l7.12,5.09,6,5a2,2,0,0,1,.72,1.54" style="fill:#f79421;stroke:#010101;stroke-miterlimit:10"/><rect x="7.01" y="25.25" width="33" height="78" rx="3" style="fill:#fbb03b"/><rect x="7.01" y="50.25" width="33" height="27" style="fill:#f79421"/><polygon points="21.5 102.75 39.51 69.75 39.51 102.75 21.5 102.75" style="fill:#010101;opacity:0.07"/><polygon points="26.5 102.75 39.51 102.75 39.51 89.92 26.5 102.75" style="fill:#010101;opacity:0.12"/><polygon points="55.51 99.75 15.51 119.75 57.51 100.75 55.51 99.75" style="fill:#010101;opacity:0.09"/><polygon points="48.51 22.75 45.51 23.75 31.5 19.75 54.51 29.75 57.51 26.75 48.51 22.75" style="fill:#010101;opacity:0.09"/><rect x="7.01" y="25.25" width="33" height="78" rx="3" style="fill:none;stroke:#010101;stroke-miterlimit:10;stroke-width:3px"/><line x1="7.01" y1="50.25" x2="39.01" y2="50.25" style="fill:none;stroke:#010101;stroke-miterlimit:10"/><line x1="7.01" y1="77.25" x2="39.01" y2="77.25" style="fill:none;stroke:#010101;stroke-miterlimit:10"/><path d="M48.51,64.25a1.32,1.32,0,0,0-.06-.39l-4-15a1.5,1.5,0,1,0-2.89.78l4,15a1.49,1.49,0,0,0,1.83,1.06A1.51,1.51,0,0,0,48.51,64.25Z" style="fill:#f79421;stroke:#010101;stroke-miterlimit:10"/><path d="M48.51,64.25a1.51,1.51,0,0,0-1.12-1.45,1.49,1.49,0,0,0-1.83,1.06l-4,15a1.5,1.5,0,1,0,2.89.78l4-15A1.32,1.32,0,0,0,48.51,64.25Z" style="fill:#f79421;stroke:#010101;stroke-miterlimit:10"/><path d="M44.51,49.25a1.44,1.44,0,0,0-.13-.6,1.5,1.5,0,0,0-2-.78l-30,13a1.5,1.5,0,0,0,1.19,2.76l30-13A1.51,1.51,0,0,0,44.51,49.25Z" style="fill:#fbb03b;stroke:#010101;stroke-miterlimit:10"/><path d="M44.51,79.25a1.51,1.51,0,0,0-.91-1.38l-30-13a1.5,1.5,0,0,0-1.19,2.76l30,13a1.5,1.5,0,0,0,2-.78A1.44,1.44,0,0,0,44.51,79.25Z" style="fill:#fbb03b;stroke:#010101;stroke-miterlimit:10"/><ellipse cx="56.51" cy="64.25" rx="7" ry="9" style="fill:#f79421;stroke:#010101;stroke-linecap:round;stroke-miterlimit:10"/><path d="M15,64.25a2,2,0,0,0-2-2H8a2,2,0,0,0,0,4h5A2,2,0,0,0,15,64.25Z" style="fill:#f79421;stroke:#010101;stroke-miterlimit:10"/><path d="M59,64.25a2,2,0,0,0-2-2H13a2,2,0,0,0,0,4H57A2,2,0,0,0,59,64.25Z" style="fill:#fbb03b;stroke:#010101;stroke-miterlimit:10"/></svg>