<svg id="Layer_1" data-name="Layer 1" xmlns="http://www.w3.org/2000/svg" viewBox="0 0 600 320"><defs><style>.cls-1{fill:#fff;}</style></defs><title>mocr</title><rect class="cls-1" x="87.5" y="20.5" width="59" height="38" rx="1.5" ry="1.5"/><path d="M145,21a1,1,0,0,1,1,1V57a1,1,0,0,1-1,1H89a1,1,0,0,1-1-1V22a1,1,0,0,1,1-1h56m0-1H89a2,2,0,0,0-2,2V57a2,2,0,0,0,2,2h56a2,2,0,0,0,2-2V22a2,2,0,0,0-2-2Z"/><rect class="cls-1" x="146.5" y="20.5" width="59" height="38" rx="1.5" ry="1.5"/><path d="M204,21a1,1,0,0,1,1,1V57a1,1,0,0,1-1,1H148a1,1,0,0,1-1-1V22a1,1,0,0,1,1-1h56m0-1H148a2,2,0,0,0-2,2V57a2,2,0,0,0,2,2h56a2,2,0,0,0,2-2V22a2,2,0,0,0-2-2Z"/><rect class="cls-1" x="247.5" y="20.5" width="59" height="38" rx="1.5" ry="1.5"/><path d="M305,21a1,1,0,0,1,1,1V57a1,1,0,0,1-1,1H249a1,1,0,0,1-1-1V22a1,1,0,0,1,1-1h56m0-1H249a2,2,0,0,0-2,2V57a2,2,0,0,0,2,2h56a2,2,0,0,0,2-2V22a2,2,0,0,0-2-2Z"/><rect class="cls-1" x="306.5" y="20.5" width="59" height="38" rx="1.5" ry="1.5"/><path d="M364,21a1,1,0,0,1,1,1V57a1,1,0,0,1-1,1H308a1,1,0,0,1-1-1V22a1,1,0,0,1,1-1h56m0-1H308a2,2,0,0,0-2,2V57a2,2,0,0,0,2,2h56a2,2,0,0,0,2-2V22a2,2,0,0,0-2-2Z"/><rect class="cls-1" x="107.5" y="100.5" width="59" height="38" rx="1.5" ry="1.5"/><path d="M165,101a1,1,0,0,1,1,1v35a1,1,0,0,1-1,1H109a1,1,0,0,1-1-1V102a1,1,0,0,1,1-1h56m0-1H109a2,2,0,0,0-2,2v35a2,2,0,0,0,2,2h56a2,2,0,0,0,2-2V102a2,2,0,0,0-2-2Z"/><rect class="cls-1" x="166.5" y="100.5" width="59" height="38" rx="1.5" ry="1.5"/><path d="M224,101a1,1,0,0,1,1,1v35a1,1,0,0,1-1,1H168a1,1,0,0,1-1-1V102a1,1,0,0,1,1-1h56m0-1H168a2,2,0,0,0-2,2v35a2,2,0,0,0,2,2h56a2,2,0,0,0,2-2V102a2,2,0,0,0-2-2Z"/><rect class="cls-1" x="48.5" y="180.5" width="59" height="38" rx="1.5" ry="1.5"/><path d="M106,181a1,1,0,0,1,1,1v35a1,1,0,0,1-1,1H50a1,1,0,0,1-1-1V182a1,1,0,0,1,1-1h56m0-1H50a2,2,0,0,0-2,2v35a2,2,0,0,0,2,2h56a2,2,0,0,0,2-2V182a2,2,0,0,0-2-2Z"/><rect class="cls-1" x="107.5" y="180.5" width="59" height="38" rx="1.5" ry="1.5"/><path d="M165,181a1,1,0,0,1,1,1v35a1,1,0,0,1-1,1H109a1,1,0,0,1-1-1V182a1,1,0,0,1,1-1h56m0-1H109a2,2,0,0,0-2,2v35a2,2,0,0,0,2,2h56a2,2,0,0,0,2-2V182a2,2,0,0,0-2-2Z"/><rect class="cls-1" x="166.5" y="180.5" width="59" height="38" rx="1.5" ry="1.5"/><path d="M224,181a1,1,0,0,1,1,1v35a1,1,0,0,1-1,1H168a1,1,0,0,1-1-1V182a1,1,0,0,1,1-1h56m0-1H168a2,2,0,0,0-2,2v35a2,2,0,0,0,2,2h56a2,2,0,0,0,2-2V182a2,2,0,0,0-2-2Z"/><rect class="cls-1" x="466.5" y="100.5" width="59" height="38" rx="1.5" ry="1.5"/><path d="M524,101a1,1,0,0,1,1,1v35a1,1,0,0,1-1,1H468a1,1,0,0,1-1-1V102a1,1,0,0,1,1-1h56m0-1H468a2,2,0,0,0-2,2v35a2,2,0,0,0,2,2h56a2,2,0,0,0,2-2V102a2,2,0,0,0-2-2Z"/><rect class="cls-1" x="276.5" y="180.5" width="59" height="38" rx="1.5" ry="1.5"/><path d="M334,181a1,1,0,0,1,1,1v35a1,1,0,0,1-1,1H278a1,1,0,0,1-1-1V182a1,1,0,0,1,1-1h56m0-1H278a2,2,0,0,0-2,2v35a2,2,0,0,0,2,2h56a2,2,0,0,0,2-2V182a2,2,0,0,0-2-2Z"/><rect class="cls-1" x="427.5" y="180.5" width="59" height="38" rx="1.5" ry="1.5"/><path d="M485,181a1,1,0,0,1,1,1v35a1,1,0,0,1-1,1H429a1,1,0,0,1-1-1V182a1,1,0,0,1,1-1h56m0-1H429a2,2,0,0,0-2,2v35a2,2,0,0,0,2,2h56a2,2,0,0,0,2-2V182a2,2,0,0,0-2-2Z"/><rect class="cls-1" x="486.5" y="180.5" width="59" height="38" rx="1.5" ry="1.5"/><path d="M544,181a1,1,0,0,1,1,1v35a1,1,0,0,1-1,1H488a1,1,0,0,1-1-1V182a1,1,0,0,1,1-1h56m0-1H488a2,2,0,0,0-2,2v35a2,2,0,0,0,2,2h56a2,2,0,0,0,2-2V182a2,2,0,0,0-2-2Z"/><rect class="cls-1" x="176.5" y="260.5" width="59" height="38" rx="1.5" ry="1.5"/><path d="M234,261a1,1,0,0,1,1,1v35a1,1,0,0,1-1,1H178a1,1,0,0,1-1-1V262a1,1,0,0,1,1-1h56m0-1H178a2,2,0,0,0-2,2v35a2,2,0,0,0,2,2h56a2,2,0,0,0,2-2V262a2,2,0,0,0-2-2Z"/><rect class="cls-1" x="296" y="260" width="60" height="39" rx="2" ry="2"/><path d="M354,260H342v1h12v-1Zm-15,0H327v1h12v-1Zm-15,0H312v1h12v-1Zm-15,0H297.35a2,2,0,0,0-.31.14l.48.88A1,1,0,0,1,298,261h11v-1Zm-12,2.86h-1v12h1v-12Zm0,15h-1v12h1v-12Zm0,15h-1V297a2,2,0,0,0,2,2h4.72v-1H298a1,1,0,0,1-1-1v-4.14ZM317.72,298h-12v1h12v-1Zm15,0h-12v1h12v-1Zm15,0h-12v1h12v-1Zm8.28-6.58h-1V297a1,1,0,0,1-1,1h-3.28v1H354a2,2,0,0,0,2-2v-5.58Zm0-15h-1v12h1v-12Zm-.08-15-1,.29a1,1,0,0,1,0,.28v11.42h1V262h0a2,2,0,0,0-.08-.46Z"/><rect class="cls-1" x="386" y="260" width="60" height="39" rx="2" ry="2"/><path d="M444,260H432v1h12v-1Zm-15,0H417v1h12v-1Zm-15,0H402v1h12v-1Zm-15,0H387.35a2,2,0,0,0-.31.14l.48.88A1,1,0,0,1,388,261h11v-1Zm-12,2.86h-1v12h1v-12Zm0,15h-1v12h1v-12Zm0,15h-1V297a2,2,0,0,0,2,2h4.72v-1H388a1,1,0,0,1-1-1v-4.14ZM407.72,298h-12v1h12v-1Zm15,0h-12v1h12v-1Zm15,0h-12v1h12v-1Zm8.28-6.58h-1V297a1,1,0,0,1-1,1h-3.28v1H444a2,2,0,0,0,2-2v-5.58Zm0-15h-1v12h1v-12Zm-.08-15-1,.29a1,1,0,0,1,0,.28v11.42h1V262h0a2,2,0,0,0-.08-.46Z"/><rect class="cls-1" x="476" y="260" width="60" height="39" rx="2" ry="2"/><path d="M534,260H522v1h12v-1Zm-15,0H507v1h12v-1Zm-15,0H492v1h12v-1Zm-15,0H477.35a2,2,0,0,0-.31.14l.48.88A1,1,0,0,1,478,261h11v-1Zm-12,2.86h-1v12h1v-12Zm0,15h-1v12h1v-12Zm0,15h-1V297a2,2,0,0,0,2,2h4.72v-1H478a1,1,0,0,1-1-1v-4.14ZM497.72,298h-12v1h12v-1Zm15,0h-12v1h12v-1Zm15,0h-12v1h12v-1Zm8.28-6.58h-1V297a1,1,0,0,1-1,1h-3.28v1H534a2,2,0,0,0,2-2v-5.58Zm0-15h-1v12h1v-12Zm-.08-15-1,.29a1,1,0,0,1,0,.28v11.42h1V262h0a2,2,0,0,0-.05-.36h0v-.05Z"/><rect class="cls-1" x="348.5" y="100.5" width="59" height="38" rx="1.5" ry="1.5"/><path d="M406,101a1,1,0,0,1,1,1v35a1,1,0,0,1-1,1H350a1,1,0,0,1-1-1V102a1,1,0,0,1,1-1h56m0-1H350a2,2,0,0,0-2,2v35a2,2,0,0,0,2,2h56a2,2,0,0,0,2-2V102a2,2,0,0,0-2-2Z"/><rect class="cls-1" x="407.5" y="100.5" width="59" height="38" rx="1.5" ry="1.5"/><path d="M465,101a1,1,0,0,1,1,1v35a1,1,0,0,1-1,1H409a1,1,0,0,1-1-1V102a1,1,0,0,1,1-1h56m0-1H409a2,2,0,0,0-2,2v35a2,2,0,0,0,2,2h56a2,2,0,0,0,2-2V102a2,2,0,0,0-2-2Z"/><rect class="cls-1" x="289.5" y="100.5" width="59" height="38" rx="1.5" ry="1.5"/><path d="M347,101a1,1,0,0,1,1,1v35a1,1,0,0,1-1,1H291a1,1,0,0,1-1-1V102a1,1,0,0,1,1-1h56m0-1H291a2,2,0,0,0-2,2v35a2,2,0,0,0,2,2h56a2,2,0,0,0,2-2V102a2,2,0,0,0-2-2Z"/><path d="M98.41,37.07a1.83,1.83,0,0,1,.33,1.1,1.6,1.6,0,0,1-.33,1.06,1.71,1.71,0,0,1-.55.41,1.6,1.6,0,0,1,.83.63A1.9,1.9,0,0,1,99,41.33a2.11,2.11,0,0,1-.32,1.15,2,2,0,0,1-1.32.93,5,5,0,0,1-1,.1H93.06V36.3h3.48A2.21,2.21,0,0,1,98.41,37.07Zm-3.91.48v1.59h1.75A1.45,1.45,0,0,0,97,39a.68.68,0,0,0,.29-.63.64.64,0,0,0-.39-.66,2.71,2.71,0,0,0-.85-.11Zm0,2.78v1.92h1.75a1.7,1.7,0,0,0,.73-.13.91.91,0,0,0,.47-.9.77.77,0,0,0-.46-.77,1.82,1.82,0,0,0-.72-.12Z"/><path d="M105.8,42.86a3.73,3.73,0,0,1-4.72,0,3.88,3.88,0,0,1-1.09-3,3.81,3.81,0,0,1,1.09-3,3.73,3.73,0,0,1,4.72,0,3.82,3.82,0,0,1,1.09,3A3.89,3.89,0,0,1,105.8,42.86Zm-.94-1.09a3.61,3.61,0,0,0,0-3.75,1.72,1.72,0,0,0-1.42-.66A1.74,1.74,0,0,0,102,38a3.57,3.57,0,0,0,0,3.75,1.74,1.74,0,0,0,1.43.66A1.72,1.72,0,0,0,104.86,41.77Z"/><path d="M113.58,42.86a3.73,3.73,0,0,1-4.72,0,3.88,3.88,0,0,1-1.09-3,3.81,3.81,0,0,1,1.09-3,3.73,3.73,0,0,1,4.72,0,3.82,3.82,0,0,1,1.09,3A3.89,3.89,0,0,1,113.58,42.86Zm-.94-1.09a3.61,3.61,0,0,0,0-3.75,1.72,1.72,0,0,0-1.42-.66,1.74,1.74,0,0,0-1.43.66,3.57,3.57,0,0,0,0,3.75,1.74,1.74,0,0,0,1.43.66A1.72,1.72,0,0,0,112.64,41.77Z"/><path d="M116.9,41.28a1.45,1.45,0,0,0,.27.74,1.6,1.6,0,0,0,1.28.44,2.76,2.76,0,0,0,.88-.12.84.84,0,0,0,.64-.83.62.62,0,0,0-.31-.55,3.42,3.42,0,0,0-1-.34l-.78-.17a4.86,4.86,0,0,1-1.58-.55,1.76,1.76,0,0,1-.73-1.56,2.07,2.07,0,0,1,.71-1.61,3,3,0,0,1,2.09-.64,3.21,3.21,0,0,1,2,.6,2.14,2.14,0,0,1,.85,1.75h-1.45a1,1,0,0,0-.58-.92,2,2,0,0,0-.9-.18,1.7,1.7,0,0,0-1,.23.74.74,0,0,0-.36.65.62.62,0,0,0,.35.58,4.35,4.35,0,0,0,1,.3l1.26.3a3.21,3.21,0,0,1,1.24.52,1.76,1.76,0,0,1,.64,1.47,2.07,2.07,0,0,1-.76,1.64,3.22,3.22,0,0,1-2.15.65,3.52,3.52,0,0,1-2.24-.64,2.12,2.12,0,0,1-.81-1.77Z"/><path d="M127.72,36.3v1.27h-2.15V43.5H124V37.58h-2.16V36.3Z"/><path d="M133.92,37.58h-3.81v1.53h3.5v1.25h-3.5v1.85h4V43.5h-5.45V36.3h5.28Z"/><path d="M139.88,36.49a1.78,1.78,0,0,1,.67.5,2.24,2.24,0,0,1,.36.61,2,2,0,0,1,.13.76,2.16,2.16,0,0,1-.26,1,1.45,1.45,0,0,1-.85.7,1.34,1.34,0,0,1,.71.57,2.37,2.37,0,0,1,.21,1.13v.48a3.65,3.65,0,0,0,0,.67.6.6,0,0,0,.28.41v.18H139.5q-.07-.24-.1-.39a3.56,3.56,0,0,1-.06-.62v-.67a1.36,1.36,0,0,0-.24-.92,1.21,1.21,0,0,0-.86-.23h-1.47V43.5H135.3V36.3h3.44A3.14,3.14,0,0,1,139.88,36.49Zm-3.11,1.06v1.93h1.62a1.72,1.72,0,0,0,.72-.12.81.81,0,0,0,.43-.81.91.91,0,0,0-.41-.88,1.5,1.5,0,0,0-.7-.13Z"/><path d="M163.87,36.49a1.78,1.78,0,0,1,.67.5,2.24,2.24,0,0,1,.36.61,2,2,0,0,1,.13.76,2.16,2.16,0,0,1-.26,1,1.45,1.45,0,0,1-.85.7,1.34,1.34,0,0,1,.71.57,2.37,2.37,0,0,1,.21,1.13v.48a3.65,3.65,0,0,0,0,.67.6.6,0,0,0,.28.41v.18H163.5q-.07-.24-.1-.39a3.56,3.56,0,0,1-.06-.62v-.67a1.36,1.36,0,0,0-.24-.92,1.21,1.21,0,0,0-.86-.23h-1.47V43.5H159.3V36.3h3.44A3.14,3.14,0,0,1,163.87,36.49Zm-3.11,1.06v1.93h1.62a1.72,1.72,0,0,0,.72-.12.81.81,0,0,0,.43-.81.91.91,0,0,0-.41-.88,1.5,1.5,0,0,0-.7-.13Z"/><path d="M171.81,37.58H168v1.53h3.5v1.25H168v1.85h4V43.5h-5.45V36.3h5.28Z"/><path d="M178.38,36.3v1.27h-2.15V43.5h-1.51V37.58h-2.16V36.3Z"/><path d="M183.87,36.49a1.78,1.78,0,0,1,.67.5,2.24,2.24,0,0,1,.36.61,2,2,0,0,1,.13.76,2.16,2.16,0,0,1-.26,1,1.45,1.45,0,0,1-.85.7,1.34,1.34,0,0,1,.71.57,2.37,2.37,0,0,1,.21,1.13v.48a3.65,3.65,0,0,0,0,.67.6.6,0,0,0,.28.41v.18H183.5q-.07-.24-.1-.39a3.56,3.56,0,0,1-.06-.62v-.67a1.36,1.36,0,0,0-.24-.92,1.21,1.21,0,0,0-.86-.23h-1.47V43.5H179.3V36.3h3.44A3.14,3.14,0,0,1,183.87,36.49Zm-3.11,1.06v1.93h1.62a1.72,1.72,0,0,0,.72-.12.81.81,0,0,0,.43-.81.91.91,0,0,0-.41-.88,1.5,1.5,0,0,0-.7-.13Z"/><path d="M192,42.86a3.73,3.73,0,0,1-4.72,0,3.88,3.88,0,0,1-1.09-3,3.81,3.81,0,0,1,1.09-3,3.73,3.73,0,0,1,4.72,0,3.82,3.82,0,0,1,1.09,3A3.89,3.89,0,0,1,192,42.86Zm-.94-1.09a3.61,3.61,0,0,0,0-3.75,1.72,1.72,0,0,0-1.42-.66,1.74,1.74,0,0,0-1.43.66,3.57,3.57,0,0,0,0,3.75,1.74,1.74,0,0,0,1.43.66A1.72,1.72,0,0,0,191.09,41.77Z"/><path d="M265.82,36.31H271v1.26h-3.64v1.66h3.19v1.25h-3.19v3h-1.49Z"/><path d="M273.3,43.5H271.8V36.3h1.49Z"/><path d="M278.92,36.46a2.38,2.38,0,0,1,1.23.91,3.2,3.2,0,0,1,.51,1.16,5.57,5.57,0,0,1,.14,1.19,4.78,4.78,0,0,1-.58,2.43,2.6,2.6,0,0,1-2.41,1.34h-3.1V36.3h3.1A3.78,3.78,0,0,1,278.92,36.46Zm-2.76,1.09v4.7h1.39a1.5,1.5,0,0,0,1.49-1,3.7,3.7,0,0,0,.23-1.37,3.37,3.37,0,0,0-.34-1.69,1.46,1.46,0,0,0-1.37-.59Z"/><path d="M287.47,42.86a3.73,3.73,0,0,1-4.72,0,3.88,3.88,0,0,1-1.09-3,3.81,3.81,0,0,1,1.09-3,3.73,3.73,0,0,1,4.72,0,3.82,3.82,0,0,1,1.09,3A3.89,3.89,0,0,1,287.47,42.86Zm-.94-1.09a3.61,3.61,0,0,0,0-3.75,1.72,1.72,0,0,0-1.42-.66,1.74,1.74,0,0,0-1.43.66,3.57,3.57,0,0,0,0,3.75,1.74,1.74,0,0,0,1.43.66A1.72,1.72,0,0,0,286.53,41.77Z"/><path d="M325.21,38.55a1.41,1.41,0,0,0-.83-1,2.06,2.06,0,0,0-.83-.16,1.8,1.8,0,0,0-1.43.66,3,3,0,0,0-.56,2,2.44,2.44,0,0,0,.61,1.88,2,2,0,0,0,1.38.55,1.79,1.79,0,0,0,1.24-.43,1.88,1.88,0,0,0,.6-1.14h-1.67v-1.2h3V43.5h-1l-.15-.9a3.48,3.48,0,0,1-.78.72,2.76,2.76,0,0,1-1.46.36,3,3,0,0,1-2.34-1A3.78,3.78,0,0,1,320,40a4,4,0,0,1,1-2.8,3.28,3.28,0,0,1,2.54-1.05,3.32,3.32,0,0,1,2.21.7,2.59,2.59,0,0,1,1,1.74Z"/><path d="M328.15,36.3h1.53v4.42a2.51,2.51,0,0,0,.17,1.08,1.46,1.46,0,0,0,2.37,0,2.51,2.51,0,0,0,.17-1.08V36.3h1.53v4.42a3.71,3.71,0,0,1-.36,1.79,3.32,3.32,0,0,1-5.07,0,3.71,3.71,0,0,1-.36-1.79Z"/><path d="M336.75,43.5h-1.49V36.3h1.49Z"/><path d="M342.37,36.46a2.38,2.38,0,0,1,1.23.91,3.21,3.21,0,0,1,.51,1.16,5.6,5.6,0,0,1,.14,1.19,4.79,4.79,0,0,1-.58,2.43,2.6,2.6,0,0,1-2.41,1.34h-3.1V36.3h3.1A3.77,3.77,0,0,1,342.37,36.46Zm-2.76,1.09v4.7H341a1.5,1.5,0,0,0,1.49-1,3.72,3.72,0,0,0,.23-1.37,3.38,3.38,0,0,0-.34-1.69,1.46,1.46,0,0,0-1.37-.59Z"/><path d="M350.92,42.86a3.73,3.73,0,0,1-4.72,0,3.88,3.88,0,0,1-1.09-3,3.81,3.81,0,0,1,1.09-3,3.73,3.73,0,0,1,4.72,0,3.82,3.82,0,0,1,1.09,3A3.89,3.89,0,0,1,350.92,42.86ZM350,41.77A3.6,3.6,0,0,0,350,38a1.71,1.71,0,0,0-1.42-.66,1.74,1.74,0,0,0-1.43.66,3.57,3.57,0,0,0,0,3.75,1.74,1.74,0,0,0,1.43.66A1.72,1.72,0,0,0,350,41.77Z"/><path d="M113.56,121.28a1.45,1.45,0,0,0,.27.74,1.59,1.59,0,0,0,1.28.44,2.76,2.76,0,0,0,.88-.12.84.84,0,0,0,.64-.83.61.61,0,0,0-.31-.55,3.42,3.42,0,0,0-1-.34l-.78-.17a4.86,4.86,0,0,1-1.58-.55,1.76,1.76,0,0,1-.73-1.56,2.07,2.07,0,0,1,.71-1.61,3,3,0,0,1,2.09-.64,3.21,3.21,0,0,1,2,.6,2.14,2.14,0,0,1,.85,1.75h-1.45a1,1,0,0,0-.58-.92,2,2,0,0,0-.9-.18,1.7,1.7,0,0,0-1,.23.74.74,0,0,0-.36.65.62.62,0,0,0,.35.58,4.35,4.35,0,0,0,1,.3l1.26.3a3.21,3.21,0,0,1,1.24.52,1.76,1.76,0,0,1,.64,1.47,2.06,2.06,0,0,1-.76,1.64,3.21,3.21,0,0,1-2.15.65,3.52,3.52,0,0,1-2.24-.64,2.12,2.12,0,0,1-.81-1.76Z"/><path d="M119.15,116.3h1.53v4.42a2.51,2.51,0,0,0,.18,1.08,1.46,1.46,0,0,0,2.37,0,2.51,2.51,0,0,0,.18-1.08V116.3h1.53v4.42a3.71,3.71,0,0,1-.36,1.79,3.32,3.32,0,0,1-5.06,0,3.71,3.71,0,0,1-.36-1.79Z"/><path d="M131,116.49a1.78,1.78,0,0,1,.67.5,2.24,2.24,0,0,1,.36.61,2,2,0,0,1,.13.76,2.16,2.16,0,0,1-.26,1,1.45,1.45,0,0,1-.85.7,1.34,1.34,0,0,1,.71.57,2.37,2.37,0,0,1,.21,1.13v.48a3.66,3.66,0,0,0,0,.67.6.6,0,0,0,.28.41v.18h-1.66c0-.16-.08-.29-.1-.39a3.57,3.57,0,0,1-.06-.62v-.67a1.36,1.36,0,0,0-.24-.92,1.21,1.21,0,0,0-.86-.23h-1.47v2.82h-1.47v-7.2h3.44A3.14,3.14,0,0,1,131,116.49Zm-3.11,1.06v1.93h1.62a1.72,1.72,0,0,0,.72-.12.81.81,0,0,0,.43-.81.91.91,0,0,0-.41-.88,1.5,1.5,0,0,0-.7-.13Z"/><path d="M138.43,118.55a1.41,1.41,0,0,0-.83-1,2.05,2.05,0,0,0-.83-.16,1.79,1.79,0,0,0-1.43.66,3,3,0,0,0-.56,2,2.44,2.44,0,0,0,.61,1.88,2,2,0,0,0,1.38.55A1.78,1.78,0,0,0,138,122a1.87,1.87,0,0,0,.6-1.14h-1.67v-1.2h3v3.86h-1l-.15-.9a3.43,3.43,0,0,1-.78.72,2.75,2.75,0,0,1-1.46.37,3,3,0,0,1-2.34-1,3.78,3.78,0,0,1-1-2.72,4,4,0,0,1,1-2.8,3.28,3.28,0,0,1,2.54-1.05,3.33,3.33,0,0,1,2.2.7,2.59,2.59,0,0,1,1,1.74Z"/><path d="M146.69,117.58h-3.81v1.53h3.5v1.25h-3.5v1.85h4v1.29h-5.45v-7.2h5.28Z"/><path d="M153.58,122.86a3.73,3.73,0,0,1-4.72,0,3.88,3.88,0,0,1-1.09-3,3.81,3.81,0,0,1,1.09-3,3.73,3.73,0,0,1,4.72,0,3.82,3.82,0,0,1,1.09,3A3.89,3.89,0,0,1,153.58,122.86Zm-.94-1.09a3.61,3.61,0,0,0,0-3.75,1.72,1.72,0,0,0-1.42-.66,1.74,1.74,0,0,0-1.43.66,3.57,3.57,0,0,0,0,3.75,1.74,1.74,0,0,0,1.43.66A1.72,1.72,0,0,0,152.64,121.77Z"/><path d="M155.8,116.3h1.58l2.86,5v-5h1.4v7.2h-1.5l-2.93-5.11v5.11h-1.4Z"/><path d="M175.23,117.05a3.36,3.36,0,0,1,4.84.3,2.59,2.59,0,0,1,.49,1.34h-1.5a2.05,2.05,0,0,0-.37-.78,1.48,1.48,0,0,0-1.19-.47,1.47,1.47,0,0,0-1.27.66,3.23,3.23,0,0,0-.46,1.87,2.84,2.84,0,0,0,.49,1.81,1.53,1.53,0,0,0,1.24.6,1.41,1.41,0,0,0,1.18-.52,2.27,2.27,0,0,0,.37-.83h1.49a3.24,3.24,0,0,1-1,1.91,2.87,2.87,0,0,1-2,.74,3.06,3.06,0,0,1-2.42-1,4.72,4.72,0,0,1,.12-5.65Z"/><path d="M183.82,116.3h1.7l2.55,7.2h-1.63L186,122h-2.65l-.49,1.48h-1.57Zm-.1,4.48h1.84l-.91-2.83Z"/><path d="M193.82,120.38a2.75,2.75,0,0,1-1.81.53h-1.5v2.59H189v-7.2h3.09a2.49,2.49,0,0,1,1.7.56,2.17,2.17,0,0,1,.64,1.72A2.23,2.23,0,0,1,193.82,120.38Zm-1.15-2.59a1.21,1.21,0,0,0-.8-.24h-1.36v2.12h1.36a1.15,1.15,0,0,0,.8-.26,1.06,1.06,0,0,0,.29-.82A1,1,0,0,0,192.67,117.79Z"/><path d="M196.34,117.05a3.36,3.36,0,0,1,4.84.3,2.59,2.59,0,0,1,.49,1.34h-1.5a2.05,2.05,0,0,0-.37-.78,1.48,1.48,0,0,0-1.19-.47,1.47,1.47,0,0,0-1.27.66,3.23,3.23,0,0,0-.46,1.87,2.84,2.84,0,0,0,.49,1.81,1.53,1.53,0,0,0,1.24.6,1.41,1.41,0,0,0,1.18-.52,2.27,2.27,0,0,0,.37-.83h1.49a3.24,3.24,0,0,1-1,1.91,2.87,2.87,0,0,1-2,.74,3.06,3.06,0,0,1-2.42-1,4.72,4.72,0,0,1,.12-5.65Z"/><path d="M208.42,122.86a3.73,3.73,0,0,1-4.72,0,3.88,3.88,0,0,1-1.09-3,3.81,3.81,0,0,1,1.09-3,3.73,3.73,0,0,1,4.72,0,3.82,3.82,0,0,1,1.09,3A3.89,3.89,0,0,1,208.42,122.86Zm-.94-1.09a3.61,3.61,0,0,0,0-3.75,1.72,1.72,0,0,0-1.42-.66,1.74,1.74,0,0,0-1.43.66,3.57,3.57,0,0,0,0,3.75,1.74,1.74,0,0,0,1.43.66A1.72,1.72,0,0,0,207.48,121.77Z"/><path d="M215.43,116.3h2.16v7.2h-1.4v-4.87q0-.21,0-.59t0-.58l-1.36,6h-1.46l-1.35-6q0,.21,0,.58t0,.59v4.87h-1.4v-7.2h2.19l1.31,5.66Z"/><path d="M306.75,117.58h-3.81v1.53h3.5v1.25h-3.5v1.85h4v1.29h-5.45v-7.2h5.28Z"/><path d="M313.42,117.58h-3.81v1.53h3.5v1.25h-3.5v1.85h4v1.29h-5.45v-7.2h5.28Z"/><path d="M315.45,117.05a3.36,3.36,0,0,1,4.84.3,2.6,2.6,0,0,1,.49,1.34h-1.5a2.05,2.05,0,0,0-.37-.78,1.48,1.48,0,0,0-1.19-.47,1.47,1.47,0,0,0-1.27.66A3.23,3.23,0,0,0,316,120a2.83,2.83,0,0,0,.49,1.81,1.53,1.53,0,0,0,1.24.6,1.41,1.41,0,0,0,1.18-.52,2.29,2.29,0,0,0,.37-.83h1.49a3.24,3.24,0,0,1-1,1.91,2.87,2.87,0,0,1-2,.74,3.06,3.06,0,0,1-2.42-1,4.72,4.72,0,0,1,.12-5.65Z"/><path d="M327.53,122.86a3.73,3.73,0,0,1-4.72,0,3.88,3.88,0,0,1-1.09-3,3.81,3.81,0,0,1,1.09-3,3.73,3.73,0,0,1,4.72,0,3.82,3.82,0,0,1,1.09,3A3.89,3.89,0,0,1,327.53,122.86Zm-.94-1.09a3.6,3.6,0,0,0,0-3.75,1.71,1.71,0,0,0-1.42-.66,1.74,1.74,0,0,0-1.43.66,3.57,3.57,0,0,0,0,3.75,1.74,1.74,0,0,0,1.43.66A1.72,1.72,0,0,0,326.59,121.77Z"/><path d="M334.54,116.3h2.16v7.2h-1.4v-4.87q0-.21,0-.59t0-.58l-1.36,6h-1.46l-1.35-6q0,.21,0,.58t0,.59v4.87h-1.4v-7.2h2.19l1.31,5.66Z"/><path d="M372.49,118.55a1.41,1.41,0,0,0-.83-1,2,2,0,0,0-.83-.16,1.8,1.8,0,0,0-1.43.66,3,3,0,0,0-.56,2,2.45,2.45,0,0,0,.61,1.88,2,2,0,0,0,1.38.55,1.78,1.78,0,0,0,1.24-.43,1.87,1.87,0,0,0,.6-1.14H371v-1.2h3v3.86h-1l-.15-.9a3.43,3.43,0,0,1-.78.72,2.75,2.75,0,0,1-1.46.37,3,3,0,0,1-2.34-1,3.78,3.78,0,0,1-1-2.72,4,4,0,0,1,1-2.8,3.28,3.28,0,0,1,2.54-1.05,3.32,3.32,0,0,1,2.2.7,2.58,2.58,0,0,1,1,1.74Z"/><path d="M375.4,116.3H377l2.86,5v-5h1.4v7.2h-1.5l-2.93-5.11v5.11h-1.4Z"/><path d="M383.34,117.05a3.36,3.36,0,0,1,4.84.3,2.59,2.59,0,0,1,.49,1.34h-1.5a2.05,2.05,0,0,0-.37-.78,1.63,1.63,0,0,0-2.46.19,3.23,3.23,0,0,0-.46,1.87,2.84,2.84,0,0,0,.49,1.81,1.54,1.54,0,0,0,1.24.6,1.41,1.41,0,0,0,1.18-.52,2.27,2.27,0,0,0,.37-.83h1.49a3.24,3.24,0,0,1-1,1.91,2.87,2.87,0,0,1-2,.74,3.06,3.06,0,0,1-2.42-1,4.72,4.72,0,0,1,.12-5.65Z"/><path d="M425.77,116.3v1.27h-2.15v5.92h-1.51v-5.92h-2.16V116.3Z"/><path d="M432,117.58h-3.81v1.53h3.5v1.25h-3.5v1.85h4v1.29H426.7v-7.2H432Z"/><path d="M433.32,116.3h1.5v5.9h3.59v1.29h-5.1Z"/><path d="M444.2,116.3h2.16v7.2H445v-4.87q0-.21,0-.59t0-.58l-1.36,6h-1.46l-1.35-6q0,.21,0,.58t0,.59v4.87h-1.4v-7.2h2.19L442.9,122Z"/><path d="M447.76,116.3h1.53v4.42a2.52,2.52,0,0,0,.17,1.08,1.46,1.46,0,0,0,2.37,0,2.52,2.52,0,0,0,.17-1.08V116.3h1.53v4.42a3.71,3.71,0,0,1-.36,1.79,3.32,3.32,0,0,1-5.07,0,3.71,3.71,0,0,1-.36-1.79Z"/><path d="M472.82,117.05a3.36,3.36,0,0,1,4.84.3,2.59,2.59,0,0,1,.49,1.34h-1.5a2.05,2.05,0,0,0-.37-.78,1.63,1.63,0,0,0-2.46.19,3.23,3.23,0,0,0-.46,1.87,2.84,2.84,0,0,0,.49,1.81,1.54,1.54,0,0,0,1.24.6,1.41,1.41,0,0,0,1.18-.52,2.27,2.27,0,0,0,.37-.83h1.49a3.24,3.24,0,0,1-1,1.91,2.87,2.87,0,0,1-2,.74,3.06,3.06,0,0,1-2.42-1,4.72,4.72,0,0,1,.12-5.65Z"/><path d="M484.89,122.86a3.73,3.73,0,0,1-4.72,0,3.88,3.88,0,0,1-1.09-3,3.81,3.81,0,0,1,1.09-3,3.73,3.73,0,0,1,4.72,0,3.82,3.82,0,0,1,1.09,3A3.89,3.89,0,0,1,484.89,122.86Zm-.94-1.09a3.6,3.6,0,0,0,0-3.75,1.71,1.71,0,0,0-1.42-.66,1.74,1.74,0,0,0-1.43.66,3.57,3.57,0,0,0,0,3.75,1.74,1.74,0,0,0,1.43.66A1.72,1.72,0,0,0,484,121.77Z"/><path d="M487.11,116.3h1.58l2.86,5v-5h1.4v7.2h-1.5l-2.93-5.11v5.11h-1.4Z"/><path d="M499.58,116.3v1.27h-2.15v5.92h-1.51v-5.92h-2.16V116.3Z"/><path d="M505.07,116.49a1.78,1.78,0,0,1,.67.5,2.24,2.24,0,0,1,.36.61,2,2,0,0,1,.13.76,2.15,2.15,0,0,1-.26,1,1.45,1.45,0,0,1-.85.7,1.34,1.34,0,0,1,.71.57,2.36,2.36,0,0,1,.21,1.13v.48a3.64,3.64,0,0,0,0,.67.6.6,0,0,0,.28.41v.18H504.7c0-.16-.08-.29-.1-.39a3.52,3.52,0,0,1-.06-.62v-.67a1.35,1.35,0,0,0-.24-.92,1.21,1.21,0,0,0-.86-.23H502v2.82H500.5v-7.2h3.44A3.14,3.14,0,0,1,505.07,116.49ZM502,117.55v1.93h1.62a1.72,1.72,0,0,0,.72-.12.81.81,0,0,0,.43-.81.91.91,0,0,0-.41-.88,1.49,1.49,0,0,0-.7-.13Z"/><path d="M513.22,122.86a3.73,3.73,0,0,1-4.72,0,3.88,3.88,0,0,1-1.09-3,3.81,3.81,0,0,1,1.09-3,3.73,3.73,0,0,1,4.72,0,3.82,3.82,0,0,1,1.09,3A3.89,3.89,0,0,1,513.22,122.86Zm-.94-1.09a3.6,3.6,0,0,0,0-3.75,1.71,1.71,0,0,0-1.42-.66,1.74,1.74,0,0,0-1.43.66,3.57,3.57,0,0,0,0,3.75,1.74,1.74,0,0,0,1.43.66A1.72,1.72,0,0,0,512.28,121.77Z"/><path d="M515.46,116.3H517v5.9h3.59v1.29h-5.1Z"/><path d="M67.63,203.5H66.14v-7.2h1.49Z"/><path d="M69,196.3h1.58l2.86,5v-5h1.4v7.2h-1.5l-2.93-5.11v5.11H69Z"/><path d="M76.95,197.05a3.36,3.36,0,0,1,4.84.3,2.59,2.59,0,0,1,.49,1.34h-1.5a2.06,2.06,0,0,0-.37-.78,1.63,1.63,0,0,0-2.46.19,3.23,3.23,0,0,0-.46,1.87A2.84,2.84,0,0,0,78,201.8a1.53,1.53,0,0,0,1.24.6,1.41,1.41,0,0,0,1.18-.52,2.27,2.27,0,0,0,.37-.83h1.49a3.24,3.24,0,0,1-1,1.91,2.88,2.88,0,0,1-2,.74,3.06,3.06,0,0,1-2.42-1,4.72,4.72,0,0,1,.12-5.65Z"/><path d="M89,202.86a3.73,3.73,0,0,1-4.72,0,3.88,3.88,0,0,1-1.09-3,3.81,3.81,0,0,1,1.09-3,3.73,3.73,0,0,1,4.72,0,3.82,3.82,0,0,1,1.09,3A3.89,3.89,0,0,1,89,202.86Zm-.94-1.09a3.61,3.61,0,0,0,0-3.75,1.72,1.72,0,0,0-1.42-.66,1.74,1.74,0,0,0-1.43.66,3.57,3.57,0,0,0,0,3.75,1.74,1.74,0,0,0,1.43.66A1.72,1.72,0,0,0,88.09,201.77Z"/><path d="M119.54,194.38a2.75,2.75,0,0,1-1.81.53h-1.5v2.59h-1.49v-7.2h3.09a2.49,2.49,0,0,1,1.7.56,2.17,2.17,0,0,1,.64,1.72A2.23,2.23,0,0,1,119.54,194.38Zm-1.15-2.59a1.21,1.21,0,0,0-.8-.24h-1.36v2.12h1.36a1.15,1.15,0,0,0,.8-.26,1.06,1.06,0,0,0,.29-.82A1,1,0,0,0,118.39,191.79Z"/><path d="M126,190.49a1.78,1.78,0,0,1,.67.5,2.24,2.24,0,0,1,.36.61,2,2,0,0,1,.13.76,2.16,2.16,0,0,1-.26,1,1.44,1.44,0,0,1-.85.7,1.35,1.35,0,0,1,.71.57,2.37,2.37,0,0,1,.21,1.13v.48a3.65,3.65,0,0,0,0,.67.6.6,0,0,0,.28.41v.18h-1.66c0-.16-.08-.29-.1-.39a3.56,3.56,0,0,1-.06-.62v-.67a1.36,1.36,0,0,0-.24-.92,1.21,1.21,0,0,0-.86-.23h-1.47v2.82h-1.47v-7.2h3.44A3.13,3.13,0,0,1,126,190.49Zm-3.11,1.06v1.93h1.62a1.72,1.72,0,0,0,.72-.12.81.81,0,0,0,.43-.81.91.91,0,0,0-.41-.88,1.49,1.49,0,0,0-.7-.13Z"/><path d="M134.14,196.86a3.73,3.73,0,0,1-4.72,0,3.88,3.88,0,0,1-1.09-3,3.81,3.81,0,0,1,1.09-3,3.73,3.73,0,0,1,4.72,0,3.82,3.82,0,0,1,1.09,3A3.89,3.89,0,0,1,134.14,196.86Zm-.94-1.09a3.61,3.61,0,0,0,0-3.75,1.72,1.72,0,0,0-1.42-.66,1.74,1.74,0,0,0-1.43.66,3.57,3.57,0,0,0,0,3.75,1.74,1.74,0,0,0,1.43.66A1.72,1.72,0,0,0,133.2,195.77Z"/><path d="M137.06,191.05a3.36,3.36,0,0,1,4.84.3,2.59,2.59,0,0,1,.49,1.34h-1.5a2.06,2.06,0,0,0-.37-.78,1.63,1.63,0,0,0-2.46.19,3.23,3.23,0,0,0-.46,1.87,2.84,2.84,0,0,0,.49,1.81,1.53,1.53,0,0,0,1.24.6,1.41,1.41,0,0,0,1.18-.52,2.27,2.27,0,0,0,.37-.83h1.49a3.24,3.24,0,0,1-1,1.91,2.88,2.88,0,0,1-2,.74,3.06,3.06,0,0,1-2.42-1,4.72,4.72,0,0,1,.12-5.65Z"/><path d="M148.92,191.58h-3.81v1.53h3.5v1.25h-3.5v1.85h4v1.29h-5.45v-7.2h5.28Z"/><path d="M154.48,190.46a2.38,2.38,0,0,1,1.23.91,3.2,3.2,0,0,1,.51,1.16,5.57,5.57,0,0,1,.14,1.19,4.78,4.78,0,0,1-.58,2.43,2.6,2.6,0,0,1-2.41,1.34h-3.1v-7.2h3.1A3.8,3.8,0,0,1,154.48,190.46Zm-2.76,1.09v4.7h1.39a1.5,1.5,0,0,0,1.49-1,3.7,3.7,0,0,0,.23-1.37,3.37,3.37,0,0,0-.34-1.69,1.46,1.46,0,0,0-1.37-.59Z"/><path d="M157,194.05h2.72v1.32H157Z"/><path d="M123.87,202.3h1.53v4.42a2.5,2.5,0,0,0,.18,1.08,1.46,1.46,0,0,0,2.37,0,2.5,2.5,0,0,0,.18-1.08V202.3h1.53v4.42a3.71,3.71,0,0,1-.36,1.79,3.32,3.32,0,0,1-5.06,0,3.71,3.71,0,0,1-.36-1.79Z"/><path d="M135.7,202.49a1.78,1.78,0,0,1,.67.5,2.24,2.24,0,0,1,.36.61,2,2,0,0,1,.13.76,2.16,2.16,0,0,1-.26,1,1.44,1.44,0,0,1-.85.7,1.35,1.35,0,0,1,.71.57,2.37,2.37,0,0,1,.21,1.13v.48a3.65,3.65,0,0,0,0,.67.6.6,0,0,0,.28.41v.18h-1.66c0-.16-.08-.29-.1-.39a3.56,3.56,0,0,1-.06-.62v-.67a1.36,1.36,0,0,0-.24-.92,1.21,1.21,0,0,0-.86-.23H132.6v2.82h-1.47v-7.2h3.44A3.13,3.13,0,0,1,135.7,202.49Zm-3.11,1.06v1.93h1.62a1.72,1.72,0,0,0,.72-.12.81.81,0,0,0,.43-.81.91.91,0,0,0-.41-.88,1.49,1.49,0,0,0-.7-.13Z"/><path d="M143.64,203.58h-3.81v1.53h3.5v1.25h-3.5v1.85h4v1.29h-5.45v-7.2h5.28Z"/><path d="M146.07,207.28a1.45,1.45,0,0,0,.27.74,1.6,1.6,0,0,0,1.28.44,2.76,2.76,0,0,0,.88-.12.84.84,0,0,0,.64-.83.62.62,0,0,0-.31-.55,3.42,3.42,0,0,0-1-.34l-.78-.17a4.86,4.86,0,0,1-1.58-.55,1.76,1.76,0,0,1-.73-1.56,2.07,2.07,0,0,1,.71-1.61,3,3,0,0,1,2.09-.64,3.21,3.21,0,0,1,2,.6,2.15,2.15,0,0,1,.85,1.75h-1.45a1,1,0,0,0-.58-.92,2,2,0,0,0-.9-.18,1.7,1.7,0,0,0-1,.23.74.74,0,0,0-.36.65.62.62,0,0,0,.35.58,4.35,4.35,0,0,0,1,.3l1.26.3a3.21,3.21,0,0,1,1.24.52,1.76,1.76,0,0,1,.64,1.47,2.06,2.06,0,0,1-.76,1.64,3.21,3.21,0,0,1-2.15.65,3.52,3.52,0,0,1-2.24-.64,2.12,2.12,0,0,1-.81-1.76Z"/><path d="M188.54,196.3h1.7l2.55,7.2h-1.63l-.48-1.48H188l-.49,1.48H186Zm-.1,4.48h1.84l-.91-2.83Z"/><path d="M193.71,196.31h5.13v1.26H195.2v1.66h3.19v1.25H195.2v3h-1.49Z"/><path d="M204,196.46a2.38,2.38,0,0,1,1.23.91,3.2,3.2,0,0,1,.51,1.16,5.57,5.57,0,0,1,.14,1.19,4.78,4.78,0,0,1-.58,2.43,2.6,2.6,0,0,1-2.41,1.34h-3.1v-7.2h3.1A3.8,3.8,0,0,1,204,196.46Zm-2.76,1.09v4.7h1.39a1.5,1.5,0,0,0,1.49-1,3.7,3.7,0,0,0,.23-1.37,3.37,3.37,0,0,0-.34-1.69,1.46,1.46,0,0,0-1.37-.59Z"/><path d="M288.71,196.31h5.13v1.26H290.2v1.66h3.19v1.25H290.2v3h-1.49Z"/><path d="M294.82,196.3h1.5v5.9h3.59v1.29h-5.1Z"/><path d="M302.3,203.5H300.8v-7.2h1.49Z"/><path d="M308.54,198.55a1.41,1.41,0,0,0-.83-1,2.05,2.05,0,0,0-.83-.16,1.8,1.8,0,0,0-1.43.66,3,3,0,0,0-.56,2,2.44,2.44,0,0,0,.61,1.88,2,2,0,0,0,1.38.55,1.78,1.78,0,0,0,1.24-.43,1.87,1.87,0,0,0,.6-1.14H307v-1.2h3v3.86h-1l-.15-.9a3.46,3.46,0,0,1-.78.72,2.75,2.75,0,0,1-1.46.36,3,3,0,0,1-2.34-1,3.78,3.78,0,0,1-1-2.72,4,4,0,0,1,1-2.8,3.28,3.28,0,0,1,2.54-1.05,3.33,3.33,0,0,1,2.2.7,2.59,2.59,0,0,1,1,1.74Z"/><path d="M311.47,203.5v-7.2H313V199h2.8V196.3h1.49v7.2h-1.49v-3.21H313v3.21Z"/><path d="M323.93,196.3v1.27h-2.15v5.92h-1.51v-5.92H318.1V196.3Z"/><path d="M447.48,196.31h5.13v1.26H449v1.66h3.19v1.25H449v3h-1.49Z"/><path d="M455.1,196.3h1.7l2.55,7.2h-1.63l-.48-1.48h-2.65l-.49,1.48h-1.57Zm-.1,4.48h1.84l-.91-2.83Z"/><path d="M465.81,202.86a3.73,3.73,0,0,1-4.72,0,3.88,3.88,0,0,1-1.09-3,3.81,3.81,0,0,1,1.09-3,3.73,3.73,0,0,1,4.72,0,3.82,3.82,0,0,1,1.09,3A3.89,3.89,0,0,1,465.81,202.86Zm-.94-1.09a3.6,3.6,0,0,0,0-3.75,1.71,1.71,0,0,0-1.42-.66A1.74,1.74,0,0,0,462,198a3.57,3.57,0,0,0,0,3.75,1.74,1.74,0,0,0,1.43.66A1.72,1.72,0,0,0,464.87,201.77Z"/><path d="M490.91,196.3h1.58l2.86,5v-5h1.4v7.2h-1.5l-2.93-5.11v5.11h-1.4Z"/><path d="M503.48,197.58h-3.81v1.53h3.5v1.25h-3.5v1.85h4v1.29H498.2v-7.2h5.28Z"/><path d="M510.05,196.3v1.27H507.9v5.92h-1.51v-5.92h-2.16V196.3Z"/><path d="M511.91,196.3l1,4.12.21,1.15.21-1.12.81-4.15h1.59l.85,4.12.22,1.15.22-1.1,1-4.17h1.53l-2,7.2H516l-.87-4.21-.25-1.39-.25,1.39-.87,4.21h-1.4l-2-7.2Z"/><path d="M525.91,202.86a3.73,3.73,0,0,1-4.72,0,3.88,3.88,0,0,1-1.09-3,3.81,3.81,0,0,1,1.09-3,3.73,3.73,0,0,1,4.72,0,3.82,3.82,0,0,1,1.09,3A3.89,3.89,0,0,1,525.91,202.86Zm-.94-1.09a3.6,3.6,0,0,0,0-3.75,1.71,1.71,0,0,0-1.42-.66,1.74,1.74,0,0,0-1.43.66,3.57,3.57,0,0,0,0,3.75,1.74,1.74,0,0,0,1.43.66A1.72,1.72,0,0,0,525,201.77Z"/><path d="M532.76,196.49a1.78,1.78,0,0,1,.67.5,2.24,2.24,0,0,1,.36.61,2,2,0,0,1,.13.76,2.15,2.15,0,0,1-.26,1,1.44,1.44,0,0,1-.85.7,1.34,1.34,0,0,1,.71.57,2.37,2.37,0,0,1,.21,1.13v.48a3.64,3.64,0,0,0,0,.67.6.6,0,0,0,.28.41v.18h-1.66c0-.16-.08-.29-.1-.39a3.51,3.51,0,0,1-.06-.62v-.67a1.35,1.35,0,0,0-.24-.92,1.21,1.21,0,0,0-.86-.23h-1.47v2.82h-1.47v-7.2h3.44A3.13,3.13,0,0,1,532.76,196.49Zm-3.11,1.06v1.93h1.62a1.72,1.72,0,0,0,.72-.12.81.81,0,0,0,.43-.81.91.91,0,0,0-.41-.88,1.48,1.48,0,0,0-.7-.13Z"/><path d="M535.39,196.3h1.48v3l2.78-3h1.94l-3,3,3.1,4.24h-1.93l-2.22-3.14-.72.73v2.41h-1.48Z"/><path d="M201.13,280.38a2.75,2.75,0,0,1-1.81.53h-1.5v2.59h-1.49v-7.2h3.09a2.49,2.49,0,0,1,1.7.56,2.17,2.17,0,0,1,.64,1.72A2.23,2.23,0,0,1,201.13,280.38ZM200,277.79a1.21,1.21,0,0,0-.8-.24h-1.36v2.12h1.36a1.15,1.15,0,0,0,.8-.26,1.06,1.06,0,0,0,.29-.82A1,1,0,0,0,200,277.79Z"/><path d="M204.29,276.3H206l2.55,7.2H206.9l-.48-1.48h-2.65l-.49,1.48h-1.57Zm-.1,4.48H206l-.91-2.83Z"/><path d="M215,282.86a3.73,3.73,0,0,1-4.72,0,3.88,3.88,0,0,1-1.09-3,3.81,3.81,0,0,1,1.09-3,3.73,3.73,0,0,1,4.72,0,3.82,3.82,0,0,1,1.09,3A3.89,3.89,0,0,1,215,282.86Zm-.94-1.09a3.61,3.61,0,0,0,0-3.75,1.72,1.72,0,0,0-1.42-.66,1.74,1.74,0,0,0-1.43.66,3.57,3.57,0,0,0,0,3.75,1.74,1.74,0,0,0,1.43.66A1.72,1.72,0,0,0,214.05,281.77Z"/></svg>