<svg xmlns="http://www.w3.org/2000/svg" xmlns:xlink="http://www.w3.org/1999/xlink" viewBox="0 0 1450 615"><defs><style>.cls-1,.cls-15,.cls-18,.cls-2,.cls-23,.cls-27,.cls-28,.cls-29,.cls-31,.cls-9{fill:none;}.cls-2{stroke:#999;stroke-width:1.5px;}.cls-13,.cls-15,.cls-18,.cls-2,.cls-23,.cls-27,.cls-28,.cls-29,.cls-31,.cls-9{stroke-miterlimit:10;}.cls-3,.cls-5,.cls-8{fill:#ebc500;}.cls-4{fill:#00c1ed;}.cls-30,.cls-5{font-size:12px;}.cls-26,.cls-30,.cls-5,.cls-8{font-family:Helvetica-Bold, Helvetica;}.cls-22,.cls-25,.cls-26,.cls-30,.cls-5,.cls-8{font-weight:700;}.cls-6{letter-spacing:-0.05em;}.cls-7{letter-spacing:-0.04em;}.cls-26,.cls-8{font-size:10px;}.cls-27,.cls-9{stroke:#fff;}.cls-13,.cls-15,.cls-9{stroke-width:0.75px;}.cls-10{fill:#fff;}.cls-11{fill:#999;}.cls-12{fill:#f2f2f2;}.cls-13,.cls-24{fill:#ccc;}.cls-13,.cls-15,.cls-18,.cls-23,.cls-28,.cls-29,.cls-31{stroke:#000;}.cls-14{fill:#b3b3b3;}.cls-16{opacity:0.4;}.cls-17{clip-path:url(#clip-path);}.cls-19{clip-path:url(#clip-path-2);}.cls-20{clip-path:url(#clip-path-3);}.cls-21{clip-path:url(#clip-path-4);}.cls-22,.cls-25{font-size:8px;font-family:HelveticaNeue-Bold, Helvetica Neue;}.cls-22{letter-spacing:-0.04em;}.cls-23{stroke-width:0.5px;}.cls-25{letter-spacing:-0.04em;}.cls-27,.cls-28,.cls-29,.cls-31{stroke-width:2px;}.cls-27{opacity:0.8;}.cls-29{stroke-dasharray:11.82 11.82;}.cls-31{stroke-dasharray:12;}</style><clipPath id="clip-path"><rect class="cls-1" x="611" y="461" width="18" height="26" transform="translate(1240 948) rotate(180)"/></clipPath><clipPath id="clip-path-2"><rect class="cls-1" x="611" y="143" width="18" height="26" transform="translate(1240 312) rotate(180)"/></clipPath><clipPath id="clip-path-3"><rect class="cls-1" x="672" y="87" width="18" height="26" transform="translate(781 -581) rotate(90)"/></clipPath><clipPath id="clip-path-4"><rect class="cls-1" x="672" y="517" width="18" height="26" transform="translate(1211 -151) rotate(90)"/></clipPath></defs><title>o2-subsystem</title><g id="wiring"><line class="cls-2" x1="259.5" y1="454.5" x2="197.5" y2="454.5"/><polyline class="cls-2" points="259 179 146 179 146 454.5 163 454.5"/><line class="cls-2" x1="536" y1="515" x2="536" y2="441"/><polyline class="cls-2" points="860 431 684 431 684 363 429 363 429 115 516 115"/><polyline class="cls-2" points="449 363 449 433 508 433"/><polyline class="cls-2" points="1186 329 1186 427 1156 427"/></g><g id="lines"><polygon class="cls-3" points="1288.25 515.75 1288.25 415.75 1269.75 415.75 1269.75 435.75 1258.25 435.75 1258.25 415.75 1239.75 415.75 1239.75 515.75 1228.25 515.75 1228.25 404.25 1258.25 404.25 1258.25 320.75 1155.75 320.75 1155.75 340.75 1063.25 340.75 1063.25 329.25 1144.25 329.25 1144.25 300.75 1063.25 300.75 1063.25 289.25 1155.75 289.25 1155.75 309.25 1200.25 309.25 1200.25 279.25 1211.75 279.25 1211.75 309.25 1312.25 309.25 1312.25 251.25 1323.75 251.25 1323.75 309.25 1409.75 309.25 1409.75 399.75 1402.25 399.75 1402.25 320.75 1393.75 320.75 1393.75 399.75 1386.25 399.75 1386.25 320.75 1377.75 320.75 1377.75 344.75 1366.25 344.75 1366.25 320.75 1269.75 320.75 1269.75 404.25 1299.75 404.25 1299.75 515.75 1288.25 515.75"/><path d="M1323,252v58h86v89h-6V320h-10v79h-6V320h-10v24h-10V320h-98v85h30V515h-10V415h-20v20h-10V415h-20V515h-10V405h30V320H1155v20h-91V330h81V300h-81V290h91v20h46V280h10v30h102V252h10m1.5-1.5h-13v58h-99v-30h-13v30h-43v-20h-94v13h81v27h-81v13h94v-20h101v82h-30v113h13v-100h17v20h13v-20h17v100h13v-113h-30v-82h95v24h13v-24h7v79h9v-79h7v79h9v-92h-86v-58Z"/><polygon class="cls-3" points="1332.25 241.75 1332.25 230.25 1342.25 230.25 1342.25 140.25 1353.75 140.25 1353.75 218.25 1366.25 218.25 1366.25 195.75 1356.25 195.75 1356.25 190.25 1371.75 190.25 1371.75 223.75 1353.75 223.75 1353.75 241.75 1332.25 241.75"/><path d="M1353,141v78h14V195h-10v-4h14v32h-18v18h-20V231h10V141h10m1.5-1.5h-13v90h-10v13h23v-18h18v-35h-17v7h10v21h-11v-78Z"/><rect class="cls-4" x="723.25" y="74.25" width="11.5" height="481.5"/><path d="M734,75V555H724V75h10m1.5-1.5h-13v483h13V73.5Z"/><polygon class="cls-3" points="299.25 126.75 299.25 85.75 84.25 85.75 84.25 74.25 310.75 74.25 310.75 126.75 299.25 126.75"/><path d="M310,75v51H300V85H85V75H310m1.5-1.5H83.5v13h215v41h13v-54Z"/><polygon class="cls-3" points="279.25 126.75 279.25 105.75 84.25 105.75 84.25 94.25 290.75 94.25 290.75 126.75 279.25 126.75"/><path d="M290,95v31H280V105H85V95H290m1.5-1.5H83.5v13h195v21h13v-34Z"/><polygon class="cls-3" points="399.25 356.75 399.25 320.75 84.25 320.75 84.25 309.25 399.25 309.25 399.25 273.25 410.75 273.25 410.75 356.75 399.25 356.75"/><path d="M410,274v82H400V320H85V310H400V274h10m1.5-1.5h-13v36H83.5v13h315v36h13v-85Z"/><polygon class="cls-3" points="84.25 555.75 84.25 544.25 299.25 544.25 299.25 503.25 310.75 503.25 310.75 555.75 84.25 555.75"/><path d="M310,504v51H85V545H300V504h10m1.5-1.5h-13v41H83.5v13h228v-54Z"/><polygon class="cls-3" points="84.25 535.75 84.25 524.25 279.25 524.25 279.25 503.25 290.75 503.25 290.75 535.75 84.25 535.75"/><path d="M290,504v31H85V525H280V504h10m1.5-1.5h-13v21H83.5v13h208v-34Z"/><rect class="cls-3" x="80" y="75" width="7" height="10"/><rect class="cls-3" x="80" y="95" width="7" height="10"/><rect class="cls-3" x="80" y="310" width="7" height="10"/><rect class="cls-3" x="80" y="310" width="7" height="10"/><rect class="cls-3" x="80" y="525" width="7" height="10"/><rect class="cls-3" x="80" y="545" width="7" height="10"/><path class="cls-3" d="M734,123.75a5.71,5.71,0,0,1-2.38-.52l-11-5a5.75,5.75,0,1,1,4.76-10.47l11,5a5.75,5.75,0,0,1-2.38,11Z"/><path d="M723,108a5,5,0,0,1,2.07.45l11,5a5,5,0,1,1-4.14,9.1l-11-5A5,5,0,0,1,723,108m0-1.5h0a6.5,6.5,0,0,0-2.69,12.42l11,5a6.5,6.5,0,0,0,5.38-11.83l-11-5a6.46,6.46,0,0,0-2.69-.58Z"/><path class="cls-3" d="M734,136.75a5.71,5.71,0,0,1-2.38-.52l-11-5a5.75,5.75,0,1,1,4.76-10.47l11,5a5.75,5.75,0,0,1-2.38,11Z"/><path d="M723,121a5,5,0,0,1,2.07.45l11,5a5,5,0,1,1-4.14,9.1l-11-5A5,5,0,0,1,723,121m0-1.5h0a6.5,6.5,0,0,0-2.69,12.42l11,5a6.5,6.5,0,0,0,5.38-11.83l-11-5a6.46,6.46,0,0,0-2.69-.58Z"/><path class="cls-3" d="M734,149.75a5.71,5.71,0,0,1-2.38-.52l-11-5a5.75,5.75,0,1,1,4.76-10.47l11,5a5.75,5.75,0,0,1-2.38,11Z"/><path d="M723,134a5,5,0,0,1,2.07.45l11,5a5,5,0,1,1-4.14,9.1l-11-5A5,5,0,0,1,723,134m0-1.5h0a6.5,6.5,0,0,0-2.69,12.42l11,5a6.5,6.5,0,0,0,5.38-11.83l-11-5a6.46,6.46,0,0,0-2.69-.58Z"/><path class="cls-3" d="M723,495.75a5.75,5.75,0,0,1-2.38-11l11-5a5.75,5.75,0,0,1,4.76,10.47l-11,5A5.71,5.71,0,0,1,723,495.75Z"/><path d="M734,480a5,5,0,0,1,2.07,9.55l-11,5a5,5,0,0,1-4.14-9.1l11-5A5,5,0,0,1,734,480m0-1.5a6.46,6.46,0,0,0-2.69.58l-11,5a6.5,6.5,0,1,0,5.38,11.83l11-5A6.5,6.5,0,0,0,734,478.5Z"/><path class="cls-3" d="M723,508.75a5.75,5.75,0,0,1-2.38-11l11-5a5.75,5.75,0,0,1,4.76,10.47l-11,5A5.71,5.71,0,0,1,723,508.75Z"/><path d="M734,493a5,5,0,0,1,2.07,9.55l-11,5a5,5,0,0,1-4.14-9.1l11-5A5,5,0,0,1,734,493m0-1.5a6.46,6.46,0,0,0-2.69.58l-11,5a6.5,6.5,0,1,0,5.38,11.83l11-5A6.5,6.5,0,0,0,734,491.5Z"/><path class="cls-3" d="M723,521.75a5.75,5.75,0,0,1-2.38-11l11-5a5.75,5.75,0,0,1,4.76,10.47l-11,5A5.71,5.71,0,0,1,723,521.75Z"/><path d="M734,506a5,5,0,0,1,2.07,9.55l-11,5a5,5,0,0,1-4.14-9.1l11-5A5,5,0,0,1,734,506m0-1.5a6.46,6.46,0,0,0-2.69.58l-11,5a6.5,6.5,0,1,0,5.38,11.83l11-5A6.5,6.5,0,0,0,734,504.5Z"/><rect class="cls-3" x="84.25" y="564.25" width="21" height="11.5"/><path d="M104.5,565v10H85V565h19.5m1.5-1.5H83.5v13H106v-13Z"/><path class="cls-3" d="M132.75,575.75v-11.5h481.5v-28.5h-295v-32.5h11.5v21h68.5v-140h11.5v140h203.5V320.75h-18.5v20h-27.5v-11.5h16v-8.5h-16v-11.5h16v-8.5h-16v-11.5h27.5v20h18.5V105.75H410.75v140h-11.5v-140h-68.5v21h-11.5V94.25h404.5v.06a5.6,5.6,0,0,1,1.63.46l11,5a5.75,5.75,0,1,1-4.76,10.47l-9.87-4.48h-96v418.5h96l9.87-4.48a5.75,5.75,0,0,1,4.76,10.47l-11,5a5.71,5.71,0,0,1-2.38.52H625.75v40Z"/><path d="M723,95h0a5,5,0,0,1,2.07.44l11,5a5,5,0,1,1-4.14,9.1l-10-4.55H625V525h96.92l10-4.55a5,5,0,0,1,4.14,9.1l-11,5A5,5,0,0,1,723,535H625v40H133.5V565H615V535H320V504h10v21h70V385h10V525H615V320H595v20H569V330h16V320H569V310h16V300H569V290h26v20h20V105H410V245H400V105H330v21H320V95H723m0-1.5H318.5v34h13v-21h67v140h13v-140h202v202h-17v-20h-29v13h16v7h-16v13h16v7h-16v13h29v-20h17v202h-202v-140h-13v140h-67v-21h-13v34h295v27H132v13H626.5v-40H723a6.45,6.45,0,0,0,2.69-.58l11-5a6.5,6.5,0,1,0-5.38-11.83l-9.72,4.42H626.5v-417h95.09l9.72,4.42a6.5,6.5,0,0,0,5.38-11.83l-11-5a6.33,6.33,0,0,0-1.19-.4v-.17Z"/><rect class="cls-4" x="724" y="70" width="10" height="10"/><rect class="cls-4" x="724" y="550" width="10" height="10"/><rect class="cls-3" x="564" y="310" width="7" height="10"/><rect class="cls-3" x="564" y="290" width="7" height="10"/><rect class="cls-3" x="564" y="330" width="7" height="10"/><rect class="cls-3" x="80" y="565" width="7" height="10"/><path class="cls-3" d="M723,482.75a5.75,5.75,0,0,1-2.38-11l11-5a5.61,5.61,0,0,1,1.63-.46v0h55V162.75H734a5.71,5.71,0,0,1-2.39-.52l-11-5a5.75,5.75,0,1,1,4.76-10.47l9.87,4.48h64.5v158h28v11.5h-28v157h-64.5l-9.87,4.48A5.71,5.71,0,0,1,723,482.75Z"/><path d="M723,147a5,5,0,0,1,2.07.45l10,4.55H799V310h28v10H799V477H735.08l-10,4.55a5,5,0,0,1-4.14-9.1l11-5A5,5,0,0,1,734,467h55V162H734a5,5,0,0,1-2.07-.45l-11-5A5,5,0,0,1,723,147m0-1.5h0a6.5,6.5,0,0,0-2.69,12.42l11,5a6.46,6.46,0,0,0,2.69.58h53.5v302h-55v.18a6.33,6.33,0,0,0-1.19.4l-11,5a6.5,6.5,0,1,0,5.38,11.83l9.72-4.42H800.5v-157h28v-13h-28v-158H735.41l-9.72-4.42a6.46,6.46,0,0,0-2.69-.58Z"/><rect class="cls-3" x="869.25" y="500.25" width="11.5" height="51.5"/><path d="M880,501v50H870V501h10m1.5-1.5h-13v53h13v-53Z"/><rect class="cls-3" x="870" y="546" width="10" height="10"/><polygon class="cls-3" points="869.25 471.75 869.25 392.25 880.75 392.25 880.75 426.25 911.75 426.25 911.75 437.75 880.75 437.75 880.75 471.75 869.25 471.75"/><path d="M880,393v34h31v10H880v34H870V393h10m1.5-1.5h-13v81h13v-34h31v-13h-31v-34Z"/><rect class="cls-3" x="959.25" y="110.25" width="11.5" height="19.5"/><path d="M970,111v18H960V111h10m1.5-1.5h-13v21h13v-21Z"/><rect class="cls-3" x="960" y="106" width="10" height="10"/><polygon class="cls-3" points="956.25 277.75 956.25 266.25 975.25 266.25 975.25 217.75 946.75 217.75 946.75 257.75 935.25 257.75 935.25 158.75 911.25 158.75 911.25 147.25 935.25 147.25 935.25 118.75 911.25 118.75 911.25 107.25 935.25 107.25 935.25 78.75 911.25 78.75 911.25 67.25 935.25 67.25 935.25 42.25 966.75 42.25 966.75 53.75 946.75 53.75 946.75 169.25 959.25 169.25 959.25 157.25 970.75 157.25 970.75 169.25 984.75 169.25 984.75 180.75 946.75 180.75 946.75 206.25 986.75 206.25 986.75 277.75 956.25 277.75"/><path d="M966,43V53H946V170h14V158h10v12h14v10H946v27h40v70H957V267h19V217H946v40H936V158H912V148h24V118H912V108h24V78H912V68h24V43h30m1.5-1.5h-33v25h-24v13h24v27h-24v13h24v27h-24v13h24v99h13v-40h27v47h-19v13h32v-73h-40v-24h38v-13h-14v-12h-13v12h-11V54.5h20v-13Z"/><rect class="cls-3" x="994.25" y="42.25" width="26.5" height="11.5"/><path d="M1020,43V53H995V43h25m1.5-1.5h-28v13h28v-13Z"/><rect class="cls-3" x="1034.25" y="26.25" width="5.5" height="16.5"/><path d="M1039,27V42h-4V27h4m1.5-1.5h-7v18h7v-18Z"/><rect class="cls-3" x="1035" y="22" width="4" height="6"/><polygon class="cls-3" points="1075.25 73.75 1075.25 53.75 1050.25 53.75 1050.25 42.25 1075.25 42.25 1075.25 22.25 1111.75 22.25 1111.75 33.75 1086.75 33.75 1086.75 42.25 1111.75 42.25 1111.75 53.75 1086.75 53.75 1086.75 62.25 1111.75 62.25 1111.75 73.75 1075.25 73.75"/><path d="M1111,23V33h-25V43h25V53h-25V63h25V73h-35V53h-25V43h25V23h35m1.5-1.5h-38v20h-25v13h25v20h38v-13h-25v-7h25v-13h-25v-7h25v-13Z"/><rect class="cls-3" x="1106" y="43" width="10" height="10"/><rect class="cls-3" x="1106" y="63" width="10" height="10"/><rect class="cls-3" x="1106" y="23" width="10" height="10"/><polygon class="cls-3" points="869.25 363.75 869.25 320.75 855.25 320.75 855.25 309.25 935.25 309.25 935.25 286.25 946.75 286.25 946.75 309.25 1015.25 309.25 1015.25 289.25 1035.75 289.25 1035.75 300.75 1026.75 300.75 1026.75 329.25 1035.75 329.25 1035.75 340.75 1015.25 340.75 1015.25 320.75 880.75 320.75 880.75 363.75 869.25 363.75"/><path d="M946,287v23h70V290h19v10h-9v30h9v10h-19V320H880v43H870V320H856V310h80V287h10m1.5-1.5h-13v23h-80v13h14v43h13v-43h133v20h22v-13h-9v-27h9v-13h-22v20h-67v-23Z"/><rect class="cls-3" x="1090.25" y="273.25" width="5.5" height="16.5"/><path d="M1095,274v15h-4V274h4m1.5-1.5h-7v18h7v-18Z"/><rect class="cls-3" x="1091" y="269" width="4" height="6"/><rect class="cls-3" x="1090.25" y="340.25" width="5.5" height="16.5"/><path d="M1095,341v15h-4V341h4m1.5-1.5h-7v18h7v-18Z"/><rect class="cls-3" x="1091" y="355" width="4" height="6"/><rect class="cls-3" x="1201" y="275" width="10" height="10"/><rect class="cls-3" x="1229" y="510" width="10" height="10"/><rect class="cls-3" x="1258.25" y="462.25" width="11.5" height="53.5"/><path d="M1269,463v52h-10V463h10m1.5-1.5h-13v55h13v-55Z"/><rect class="cls-3" x="1259" y="510" width="10" height="10"/><rect class="cls-3" x="1289" y="510" width="10" height="10"/><polygon class="cls-3" points="1282.25 241.75 1282.25 223.75 1264.25 223.75 1264.25 190.25 1279.75 190.25 1279.75 195.75 1269.75 195.75 1269.75 218.25 1282.25 218.25 1282.25 140.25 1293.75 140.25 1293.75 230.25 1303.75 230.25 1303.75 241.75 1282.25 241.75"/><path d="M1293,141v90h10v10h-20V223h-18V191h14v4h-10v24h14V141h10m1.5-1.5h-13v78h-11v-21h10v-7h-17v35h18v18h23v-13h-10v-90Z"/><rect class="cls-3" x="1283" y="136" width="10" height="10"/><rect class="cls-3" x="1343" y="136" width="10" height="10"/><rect class="cls-3" x="1387" y="394" width="6" height="10"/><rect class="cls-3" x="1403" y="395" width="6" height="9"/><text class="cls-5" transform="translate(52.15 319.67)"><tspan class="cls-6">V</tspan><tspan x="7.35" y="0">ent</tspan></text><text class="cls-5" transform="translate(22.81 84.67)">GSE <tspan class="cls-6" x="28.68" y="0">V</tspan><tspan x="36.02" y="0">ent</tspan></text><text class="cls-5" transform="translate(31.82 104.67)">GSE Fill</text><text class="cls-5" transform="translate(503.31 299.67)">Fuel Cell 1</text><text class="cls-5" transform="translate(22.81 554.67)">GSE <tspan class="cls-6" x="28.68" y="0">V</tspan><tspan x="36.02" y="0">ent</tspan></text><text class="cls-5" transform="translate(31.82 534.67)">GSE Fill</text><text class="cls-5" transform="translate(14.48 574.67)">GSE Purge</text><text class="cls-5" transform="translate(501.81 319.67)">Fuel Cell 2</text><text class="cls-5" transform="translate(501.81 339.67)">Fuel Cell 3</text><text class="cls-5" transform="translate(878.93 584.08) rotate(-90)"><tspan class="cls-6">V</tspan><tspan x="7.35" y="0">ent</tspan></text><text class="cls-5" transform="translate(969.43 104.73) rotate(-90)">Cabin</text><text class="cls-5" transform="translate(1117.49 32.33)">Face Mask 1</text><text class="cls-5" transform="translate(1117.49 52.33)">Face Mask 2</text><text class="cls-5" transform="translate(1117.49 72.33)">Face Mask 3</text><text class="cls-5" transform="translate(1210.11 272.41) rotate(-90)"><tspan class="cls-7">W</tspan><tspan x="10.89" y="0">ater/Glycol Regulator</tspan></text><text class="cls-8" transform="translate(1409.11 498.41) rotate(-90)"><tspan class="cls-7">W</tspan><tspan x="9.07" y="0">ater</tspan><tspan class="cls-7" x="27.42" y="0"> </tspan><tspan x="29.83" y="0">Accumulator</tspan></text><text class="cls-5" transform="translate(1292.11 134.41) rotate(-90)">Cabin</text><text class="cls-5" transform="translate(1238.11 555.42) rotate(-90)">Cabin</text><text class="cls-5" transform="translate(1376.11 457.75) rotate(-90)">Suit Inlet</text><text class="cls-5" transform="translate(1352.11 134.41) rotate(-90)">Cabin</text><text class="cls-5" transform="translate(1268.11 555.42) rotate(-90)">Cabin</text><text class="cls-5" transform="translate(1298.11 555.42) rotate(-90)">Cabin</text><rect class="cls-3" x="1366.25" y="373.25" width="11.5" height="26.5"/><path d="M1377,374v25h-10V374h10m1.5-1.5h-13v28h13v-28Z"/><rect class="cls-3" x="1367" y="394" width="10" height="10"/><text class="cls-8" transform="translate(1393.35 517.65) rotate(-90)">Suit Demand Regulator</text></g><g id="arrows"><line class="cls-9" x1="83.5" y1="100" x2="91.5" y2="100"/><polygon class="cls-10" points="90.76 101.09 94.82 100 90.76 98.91 90.76 101.09"/><line class="cls-9" x1="94.5" y1="80" x2="86.5" y2="80"/><polygon class="cls-10" points="87.24 78.91 83.18 80 87.24 81.09 87.24 78.91"/><line class="cls-9" x1="94.5" y1="315" x2="86.5" y2="315"/><polygon class="cls-10" points="87.24 313.91 83.18 315 87.24 316.09 87.24 313.91"/><line class="cls-9" x1="84.5" y1="530" x2="92.5" y2="530"/><polygon class="cls-10" points="91.76 531.09 95.82 530 91.76 528.91 91.76 531.09"/><line class="cls-9" x1="95.5" y1="550" x2="87.5" y2="550"/><polygon class="cls-10" points="88.24 548.91 84.18 550 88.24 551.09 88.24 548.91"/><line class="cls-9" x1="95.5" y1="570" x2="87.5" y2="570"/><polygon class="cls-10" points="88.24 568.91 84.18 570 88.24 571.09 88.24 568.91"/><line class="cls-9" x1="325" y1="121" x2="325" y2="113"/><polygon class="cls-10" points="326.09 113.74 325 109.68 323.91 113.74 326.09 113.74"/><line class="cls-9" x1="305" y1="110" x2="305" y2="118"/><polygon class="cls-10" points="303.91 117.26 305 121.32 306.09 117.26 303.91 117.26"/><line class="cls-9" x1="285" y1="110" x2="285" y2="118"/><polygon class="cls-10" points="283.91 117.26 285 121.32 286.09 117.26 283.91 117.26"/><line class="cls-9" x1="305" y1="521" x2="305" y2="513"/><polygon class="cls-10" points="306.09 513.74 305 509.68 303.91 513.74 306.09 513.74"/><line class="cls-9" x1="325" y1="510" x2="325" y2="518"/><polygon class="cls-10" points="323.91 517.26 325 521.32 326.09 517.26 323.91 517.26"/><line class="cls-9" x1="285" y1="521" x2="285" y2="513"/><polygon class="cls-10" points="286.09 513.74 285 509.68 283.91 513.74 286.09 513.74"/><polyline class="cls-9" points="399 315 405 315 405 309"/><polygon class="cls-10" points="399.74 316.09 395.68 315 399.74 313.91 399.74 316.09"/><line class="cls-9" x1="405" y1="321" x2="405" y2="315"/><line class="cls-9" x1="401" y1="530" x2="409" y2="530"/><polygon class="cls-10" points="408.26 531.09 412.32 530 408.26 528.91 408.26 531.09"/><line class="cls-9" x1="405" y1="530" x2="405" y2="526"/><polygon class="cls-10" points="406.09 526.74 405 522.68 403.91 526.74 406.09 526.74"/><line class="cls-9" x1="401" y1="100" x2="409" y2="100"/><polygon class="cls-10" points="408.26 101.09 412.32 100 408.26 98.91 408.26 101.09"/><line class="cls-9" x1="405" y1="100" x2="405" y2="104"/><polygon class="cls-10" points="403.91 103.26 405 107.32 406.09 103.26 403.91 103.26"/><line class="cls-9" x1="616" y1="100" x2="624" y2="100"/><polygon class="cls-10" points="623.26 101.09 627.32 100 623.26 98.91 623.26 101.09"/><line class="cls-9" x1="620" y1="100" x2="620" y2="104"/><polygon class="cls-10" points="618.91 103.26 620 107.32 621.09 103.26 618.91 103.26"/><line class="cls-9" x1="616" y1="530" x2="624" y2="530"/><polygon class="cls-10" points="623.26 531.09 627.32 530 623.26 528.91 623.26 531.09"/><line class="cls-9" x1="620" y1="534" x2="620" y2="526"/><polygon class="cls-10" points="621.09 533.26 620 537.32 618.91 533.26 621.09 533.26"/><polygon class="cls-10" points="621.09 526.74 620 522.68 618.91 526.74 621.09 526.74"/><polyline class="cls-9" points="614 315 620 315 620 309"/><polygon class="cls-10" points="614.74 316.09 610.68 315 614.74 313.91 614.74 316.09"/><line class="cls-9" x1="620" y1="321" x2="620" y2="315"/><line class="cls-9" x1="578.5" y1="295" x2="570.5" y2="295"/><polygon class="cls-10" points="571.24 293.91 567.18 295 571.24 296.09 571.24 293.91"/><line class="cls-9" x1="578.5" y1="315" x2="570.5" y2="315"/><polygon class="cls-10" points="571.24 313.91 567.18 315 571.24 316.09 571.24 313.91"/><line class="cls-9" x1="578.5" y1="335" x2="570.5" y2="335"/><polygon class="cls-10" points="571.24 333.91 567.18 335 571.24 336.09 571.24 333.91"/><polyline class="cls-9" points="800 315 794 315 794 309"/><polygon class="cls-10" points="799.26 313.91 803.32 315 799.26 316.09 799.26 313.91"/><line class="cls-9" x1="794" y1="321" x2="794" y2="315"/><line class="cls-9" x1="869" y1="314" x2="877" y2="314"/><polygon class="cls-10" points="876.26 315.09 880.32 314 876.26 312.91 876.26 315.09"/><line class="cls-9" x1="873" y1="314" x2="873" y2="318"/><polygon class="cls-10" points="871.91 317.26 873 321.32 874.09 317.26 871.91 317.26"/><polyline class="cls-9" points="876 321 876 317 880 317"/><polygon class="cls-10" points="879.26 318.09 883.32 317 879.26 315.91 879.26 318.09"/><line class="cls-9" x1="885" y1="432" x2="893" y2="432"/><polygon class="cls-10" points="885.74 433.09 881.68 432 885.74 430.91 885.74 433.09"/><polygon class="cls-10" points="892.26 433.09 896.32 432 892.26 430.91 892.26 433.09"/><line class="cls-9" x1="875" y1="541" x2="875" y2="549"/><polygon class="cls-10" points="873.91 548.26 875 552.32 876.09 548.26 873.91 548.26"/><polyline class="cls-9" points="947 212 943 212 943 208"/><polygon class="cls-10" points="944.09 208.74 943 204.68 941.91 208.74 944.09 208.74"/><line class="cls-9" x1="940" y1="208" x2="940" y2="216"/><polygon class="cls-10" points="938.91 215.26 940 219.32 941.09 215.26 938.91 215.26"/><line class="cls-9" x1="961" y1="272" x2="969" y2="272"/><polygon class="cls-10" points="968.26 273.09 972.32 272 968.26 270.91 968.26 273.09"/><line class="cls-9" x1="936" y1="316" x2="944" y2="316"/><polygon class="cls-10" points="943.26 317.09 947.32 316 943.26 314.91 943.26 317.09"/><line class="cls-9" x1="940" y1="316" x2="940" y2="312"/><polygon class="cls-10" points="941.09 312.74 940 308.68 938.91 312.74 941.09 312.74"/><polyline class="cls-9" points="943 309 943 313 947 313"/><polygon class="cls-10" points="946.26 314.09 950.32 313 946.26 311.91 946.26 314.09"/><polyline class="cls-9" points="1015 315 1021 315 1021 321"/><polygon class="cls-10" points="1019.91 320.26 1021 324.32 1022.09 320.26 1019.91 320.26"/><line class="cls-9" x1="1021" y1="315" x2="1021" y2="309"/><polygon class="cls-10" points="1022.09 309.74 1021 305.68 1019.91 309.74 1022.09 309.74"/><line class="cls-9" x1="924" y1="73" x2="932" y2="73"/><polygon class="cls-10" points="924.74 74.09 920.68 73 924.74 71.91 924.74 74.09"/><polygon class="cls-10" points="931.26 74.09 935.32 73 931.26 71.91 931.26 74.09"/><line class="cls-9" x1="924" y1="113" x2="932" y2="113"/><polygon class="cls-10" points="924.74 114.09 920.68 113 924.74 111.91 924.74 114.09"/><polygon class="cls-10" points="931.26 114.09 935.32 113 931.26 111.91 931.26 114.09"/><line class="cls-9" x1="924" y1="153" x2="932" y2="153"/><polygon class="cls-10" points="924.74 154.09 920.68 153 924.74 151.91 924.74 154.09"/><polygon class="cls-10" points="931.26 154.09 935.32 153 931.26 151.91 931.26 154.09"/><line class="cls-9" x1="961" y1="175" x2="969" y2="175"/><polygon class="cls-10" points="968.26 176.09 972.32 175 968.26 173.91 968.26 176.09"/><line class="cls-9" x1="965" y1="175" x2="965" y2="171"/><polygon class="cls-10" points="966.09 171.74 965 167.68 963.91 171.74 966.09 171.74"/><line class="cls-9" x1="965" y1="121" x2="965" y2="113"/><polygon class="cls-10" points="966.09 113.74 965 109.68 963.91 113.74 966.09 113.74"/><line class="cls-9" x1="1101" y1="28" x2="1109" y2="28"/><polygon class="cls-10" points="1108.26 29.09 1112.32 28 1108.26 26.91 1108.26 29.09"/><line class="cls-9" x1="1101" y1="48" x2="1109" y2="48"/><polygon class="cls-10" points="1108.26 49.09 1112.32 48 1108.26 46.91 1108.26 49.09"/><line class="cls-9" x1="1101" y1="68" x2="1109" y2="68"/><polygon class="cls-10" points="1108.26 69.09 1112.32 68 1108.26 66.91 1108.26 69.09"/><line class="cls-9" x1="1002" y1="48" x2="1010" y2="48"/><polygon class="cls-10" points="1009.26 49.09 1013.32 48 1009.26 46.91 1009.26 49.09"/><polyline class="cls-9" points="1156 315 1150 315 1150 309"/><polygon class="cls-10" points="1155.26 313.91 1159.32 315 1155.26 316.09 1155.26 313.91"/><line class="cls-9" x1="1150" y1="321" x2="1150" y2="315"/><line class="cls-9" x1="1202" y1="315" x2="1210" y2="315"/><polygon class="cls-10" points="1209.26 316.09 1213.32 315 1209.26 313.91 1209.26 316.09"/><line class="cls-9" x1="1206" y1="315" x2="1206" y2="311"/><polygon class="cls-10" points="1207.09 311.74 1206 307.68 1204.91 311.74 1207.09 311.74"/><line class="cls-9" x1="1314" y1="315" x2="1322" y2="315"/><polygon class="cls-10" points="1321.26 316.09 1325.32 315 1321.26 313.91 1321.26 316.09"/><line class="cls-9" x1="1318" y1="315" x2="1318" y2="311"/><polygon class="cls-10" points="1319.09 311.74 1318 307.68 1316.91 311.74 1319.09 311.74"/><line class="cls-9" x1="1260" y1="315" x2="1268" y2="315"/><polygon class="cls-10" points="1267.26 316.09 1271.32 315 1267.26 313.91 1267.26 316.09"/><line class="cls-9" x1="1264" y1="315" x2="1264" y2="319"/><polygon class="cls-10" points="1262.91 318.26 1264 322.32 1265.09 318.26 1262.91 318.26"/><polyline class="cls-9" points="1368 315 1406 315 1406 319"/><polygon class="cls-10" points="1404.91 318.26 1406 322.32 1407.09 318.26 1404.91 318.26"/><line class="cls-9" x1="1372" y1="315" x2="1372" y2="319"/><polygon class="cls-10" points="1370.91 318.26 1372 322.32 1373.09 318.26 1370.91 318.26"/><line class="cls-9" x1="1390" y1="315" x2="1390" y2="319"/><polygon class="cls-10" points="1388.91 318.26 1390 322.32 1391.09 318.26 1388.91 318.26"/><line class="cls-9" x1="1348" y1="151" x2="1348" y2="143"/><polygon class="cls-10" points="1349.09 143.74 1348 139.68 1346.91 143.74 1349.09 143.74"/><line class="cls-9" x1="1288" y1="151" x2="1288" y2="143"/><polygon class="cls-10" points="1289.09 143.74 1288 139.68 1286.91 143.74 1289.09 143.74"/><line class="cls-9" x1="1372" y1="389" x2="1372" y2="397"/><polygon class="cls-10" points="1370.91 396.26 1372 400.32 1373.09 396.26 1370.91 396.26"/><line class="cls-9" x1="1390" y1="389" x2="1390" y2="397"/><polygon class="cls-10" points="1388.91 396.26 1390 400.32 1391.09 396.26 1388.91 396.26"/><line class="cls-9" x1="1294" y1="505" x2="1294" y2="513"/><polygon class="cls-10" points="1292.91 512.26 1294 516.32 1295.09 512.26 1292.91 512.26"/><line class="cls-9" x1="1264" y1="505" x2="1264" y2="513"/><polygon class="cls-10" points="1262.91 512.26 1264 516.32 1265.09 512.26 1262.91 512.26"/><line class="cls-9" x1="1234" y1="505" x2="1234" y2="513"/><polygon class="cls-10" points="1232.91 512.26 1234 516.32 1235.09 512.26 1232.91 512.26"/><line class="cls-9" x1="729" y1="311" x2="729" y2="319"/><polygon class="cls-10" points="727.91 318.26 729 322.32 730.09 318.26 727.91 318.26"/><line class="cls-9" x1="1406" y1="389" x2="1406" y2="397"/><polygon class="cls-10" points="1404.91 396.26 1406 400.32 1407.09 396.26 1404.91 396.26"/></g><g id="blocks"><path class="cls-11" d="M304.5,279.5a37,37,0,0,1-37-37v-74a36.81,36.81,0,0,1,5-18.51V124.5h64V150a36.81,36.81,0,0,1,5,18.51v74A37,37,0,0,1,304.5,279.5Z"/><path d="M335,126v24.4a35.2,35.2,0,0,1,5,18.1v74A35.6,35.6,0,0,1,304.5,278h0A35.6,35.6,0,0,1,269,242.5v-74a35.2,35.2,0,0,1,5-18.1V126h61m3-3H271v26.59a38.31,38.31,0,0,0-5,18.91v74a38.5,38.5,0,1,0,77,0v-74a38.31,38.31,0,0,0-5-18.91V123Z"/><path class="cls-12" d="M304.5,274.5a32,32,0,0,1-32-32v-74a32,32,0,0,1,64,0v74A32,32,0,0,1,304.5,274.5Z"/><path d="M304.5,137A31.5,31.5,0,0,1,336,168.5v74A31.5,31.5,0,0,1,304.5,274h0A31.5,31.5,0,0,1,273,242.5v-74A31.5,31.5,0,0,1,304.5,137h0m0-1A32.54,32.54,0,0,0,272,168.5v74a32.5,32.5,0,0,0,65,0v-74A32.54,32.54,0,0,0,304.5,136Z"/><path class="cls-11" d="M272.5,505.5V480a36.81,36.81,0,0,1-5-18.51v-74a37,37,0,0,1,74,0v74a36.81,36.81,0,0,1-5,18.51V505.5Z"/><path d="M304.5,352A35.6,35.6,0,0,1,340,387.5v74a35.2,35.2,0,0,1-5,18.1V504H274V479.6a35.2,35.2,0,0,1-5-18.1v-74A35.6,35.6,0,0,1,304.5,352h0m0-3A38.54,38.54,0,0,0,266,387.5v74a38.31,38.31,0,0,0,5,18.91V507h67V480.41a38.31,38.31,0,0,0,5-18.91v-74A38.54,38.54,0,0,0,304.5,349Z"/><path class="cls-12" d="M304.5,493.5a32,32,0,0,1-32-32v-74a32,32,0,0,1,64,0v74A32,32,0,0,1,304.5,493.5Z"/><path d="M304.5,356A31.5,31.5,0,0,1,336,387.5v74A31.5,31.5,0,0,1,304.5,493h0A31.5,31.5,0,0,1,273,461.5v-74A31.5,31.5,0,0,1,304.5,356h0m0-1A32.54,32.54,0,0,0,272,387.5v74a32.5,32.5,0,0,0,65,0v-74A32.54,32.54,0,0,0,304.5,355Z"/><polygon class="cls-13" points="414 276.5 396 242.5 414 242.5 396 276.5 414 276.5"/><polygon class="cls-13" points="414 387.5 396 353.5 414 353.5 396 387.5 414 387.5"/><rect class="cls-14" x="569.5" y="521.5" width="17" height="17"/><path d="M585,523v14H571V523h14m3-3H568v20h20V520Z"/><line class="cls-15" x1="573" y1="530" x2="578" y2="530"/><polygon points="576.81 531.74 583.32 530 576.81 528.26 576.81 531.74"/><rect class="cls-14" x="611.5" y="415.5" width="17" height="17"/><path d="M627,417v14H613V417h14m3-3H610v20h20V414Z"/><line class="cls-15" x1="620" y1="429" x2="620" y2="424"/><polygon points="621.74 425.19 620 418.68 618.26 425.19 621.74 425.19"/><rect class="cls-14" x="611.5" y="197.5" width="17" height="17"/><path d="M627,199v14H613V199h14m3-3H610v20h20V196Z"/><line class="cls-15" x1="620" y1="201" x2="620" y2="206"/><polygon points="618.26 204.81 620 211.32 621.74 204.81 618.26 204.81"/><rect class="cls-14" x="609.5" y="459.5" width="21" height="29"/><path d="M629,461v26H611V461h18m3-3H608v32h24V458Z"/><g class="cls-16"><g class="cls-17"><line class="cls-18" x1="607.5" y1="489.5" x2="632.5" y2="514.5"/><line class="cls-18" x1="607.5" y1="486.5" x2="632.5" y2="511.5"/><line class="cls-18" x1="607.5" y1="483.5" x2="632.5" y2="508.5"/><line class="cls-18" x1="607.5" y1="480.5" x2="632.5" y2="505.5"/><line class="cls-18" x1="607.5" y1="477.5" x2="632.5" y2="502.5"/><line class="cls-18" x1="607.5" y1="474.5" x2="632.5" y2="499.5"/><line class="cls-18" x1="607.5" y1="471.5" x2="632.5" y2="496.5"/><line class="cls-18" x1="607.5" y1="468.5" x2="632.5" y2="493.5"/><line class="cls-18" x1="607.5" y1="465.5" x2="632.5" y2="490.5"/><line class="cls-18" x1="607.5" y1="462.5" x2="632.5" y2="487.5"/><line class="cls-18" x1="607.5" y1="459.5" x2="632.5" y2="484.5"/><line class="cls-18" x1="607.5" y1="456.5" x2="632.5" y2="481.5"/><line class="cls-18" x1="607.5" y1="453.5" x2="632.5" y2="478.5"/><line class="cls-18" x1="607.5" y1="450.5" x2="632.5" y2="475.5"/><line class="cls-18" x1="607.5" y1="447.5" x2="632.5" y2="472.5"/><line class="cls-18" x1="607.5" y1="444.5" x2="632.5" y2="469.5"/><line class="cls-18" x1="607.5" y1="441.5" x2="632.5" y2="466.5"/><line class="cls-18" x1="607.5" y1="438.5" x2="632.5" y2="463.5"/><line class="cls-18" x1="632.5" y1="489.5" x2="607.5" y2="514.5"/><line class="cls-18" x1="632.5" y1="486.5" x2="607.5" y2="511.5"/><line class="cls-18" x1="632.5" y1="483.5" x2="607.5" y2="508.5"/><line class="cls-18" x1="632.5" y1="480.5" x2="607.5" y2="505.5"/><line class="cls-18" x1="632.5" y1="477.5" x2="607.5" y2="502.5"/><line class="cls-18" x1="632.5" y1="474.5" x2="607.5" y2="499.5"/><line class="cls-18" x1="632.5" y1="471.5" x2="607.5" y2="496.5"/><line class="cls-18" x1="632.5" y1="468.5" x2="607.5" y2="493.5"/><line class="cls-18" x1="632.5" y1="465.5" x2="607.5" y2="490.5"/><line class="cls-18" x1="632.5" y1="462.5" x2="607.5" y2="487.5"/><line class="cls-18" x1="632.5" y1="459.5" x2="607.5" y2="484.5"/><line class="cls-18" x1="632.5" y1="456.5" x2="607.5" y2="481.5"/><line class="cls-18" x1="632.5" y1="453.5" x2="607.5" y2="478.5"/><line class="cls-18" x1="632.5" y1="450.5" x2="607.5" y2="475.5"/><line class="cls-18" x1="632.5" y1="447.5" x2="607.5" y2="472.5"/><line class="cls-18" x1="632.5" y1="444.5" x2="607.5" y2="469.5"/><line class="cls-18" x1="632.5" y1="441.5" x2="607.5" y2="466.5"/><line class="cls-18" x1="632.5" y1="438.5" x2="607.5" y2="463.5"/></g></g><rect class="cls-14" x="609.5" y="141.5" width="21" height="29"/><path d="M629,143v26H611V143h18m3-3H608v32h24V140Z"/><g class="cls-16"><g class="cls-19"><line class="cls-18" x1="607.5" y1="171.5" x2="632.5" y2="196.5"/><line class="cls-18" x1="607.5" y1="168.5" x2="632.5" y2="193.5"/><line class="cls-18" x1="607.5" y1="165.5" x2="632.5" y2="190.5"/><line class="cls-18" x1="607.5" y1="162.5" x2="632.5" y2="187.5"/><line class="cls-18" x1="607.5" y1="159.5" x2="632.5" y2="184.5"/><line class="cls-18" x1="607.5" y1="156.5" x2="632.5" y2="181.5"/><line class="cls-18" x1="607.5" y1="153.5" x2="632.5" y2="178.5"/><line class="cls-18" x1="607.5" y1="150.5" x2="632.5" y2="175.5"/><line class="cls-18" x1="607.5" y1="147.5" x2="632.5" y2="172.5"/><line class="cls-18" x1="607.5" y1="144.5" x2="632.5" y2="169.5"/><line class="cls-18" x1="607.5" y1="141.5" x2="632.5" y2="166.5"/><line class="cls-18" x1="607.5" y1="138.5" x2="632.5" y2="163.5"/><line class="cls-18" x1="607.5" y1="135.5" x2="632.5" y2="160.5"/><line class="cls-18" x1="607.5" y1="132.5" x2="632.5" y2="157.5"/><line class="cls-18" x1="607.5" y1="129.5" x2="632.5" y2="154.5"/><line class="cls-18" x1="607.5" y1="126.5" x2="632.5" y2="151.5"/><line class="cls-18" x1="607.5" y1="123.5" x2="632.5" y2="148.5"/><line class="cls-18" x1="607.5" y1="120.5" x2="632.5" y2="145.5"/><line class="cls-18" x1="632.5" y1="171.5" x2="607.5" y2="196.5"/><line class="cls-18" x1="632.5" y1="168.5" x2="607.5" y2="193.5"/><line class="cls-18" x1="632.5" y1="165.5" x2="607.5" y2="190.5"/><line class="cls-18" x1="632.5" y1="162.5" x2="607.5" y2="187.5"/><line class="cls-18" x1="632.5" y1="159.5" x2="607.5" y2="184.5"/><line class="cls-18" x1="632.5" y1="156.5" x2="607.5" y2="181.5"/><line class="cls-18" x1="632.5" y1="153.5" x2="607.5" y2="178.5"/><line class="cls-18" x1="632.5" y1="150.5" x2="607.5" y2="175.5"/><line class="cls-18" x1="632.5" y1="147.5" x2="607.5" y2="172.5"/><line class="cls-18" x1="632.5" y1="144.5" x2="607.5" y2="169.5"/><line class="cls-18" x1="632.5" y1="141.5" x2="607.5" y2="166.5"/><line class="cls-18" x1="632.5" y1="138.5" x2="607.5" y2="163.5"/><line class="cls-18" x1="632.5" y1="135.5" x2="607.5" y2="160.5"/><line class="cls-18" x1="632.5" y1="132.5" x2="607.5" y2="157.5"/><line class="cls-18" x1="632.5" y1="129.5" x2="607.5" y2="154.5"/><line class="cls-18" x1="632.5" y1="126.5" x2="607.5" y2="151.5"/><line class="cls-18" x1="632.5" y1="123.5" x2="607.5" y2="148.5"/><line class="cls-18" x1="632.5" y1="120.5" x2="607.5" y2="145.5"/></g></g><polygon class="cls-13" points="136 561 102 579 102 561 136 579 136 561"/><rect class="cls-14" x="755.5" y="463.5" width="17" height="17"/><path d="M771,465v14H757V465h14m3-3H754v20h20V462Z"/><line class="cls-15" x1="759" y1="472" x2="764" y2="472"/><polygon points="762.81 473.74 769.32 472 762.81 470.26 762.81 473.74"/><rect class="cls-14" x="755.5" y="148.5" width="17" height="17"/><path d="M771,150v14H757V150h14m3-3H754v20h20V147Z"/><line class="cls-15" x1="759" y1="157" x2="764" y2="157"/><polygon points="762.81 158.74 769.32 157 762.81 155.26 762.81 158.74"/><polygon class="cls-13" points="824 324 858 306 858 324 824 306 824 324"/><polygon class="cls-13" points="963.5 57 997.5 39 997.5 57 963.5 39 963.5 57"/><polygon class="cls-13" points="1033.5 304 1067.5 286 1067.5 304 1033.5 286 1033.5 304"/><polygon class="cls-13" points="866 361 884 395 866 395 884 361 866 361"/><polygon class="cls-13" points="1255 431.5 1273 465.5 1255 465.5 1273 431.5 1255 431.5"/><polygon class="cls-13" points="1363 342.5 1381 376.5 1363 376.5 1381 342.5 1363 342.5"/><polygon class="cls-13" points="956 125.5 974 159.5 956 159.5 974 125.5 956 125.5"/><polygon class="cls-13" points="866 470 884 504 866 504 884 470 866 470"/><path class="cls-11" d="M934,465.5A33.5,33.5,0,1,1,967.5,432,33.54,33.54,0,0,1,934,465.5Z"/><path d="M934,400a32,32,0,1,1-32,32,32,32,0,0,1,32-32m0-3a35,35,0,1,0,35,35,35,35,0,0,0-35-35Z"/><path class="cls-12" d="M934,460.5A28.5,28.5,0,1,1,962.5,432,28.53,28.53,0,0,1,934,460.5Z"/><path d="M934,404a28,28,0,1,1-28,28,28,28,0,0,1,28-28m0-1a29,29,0,1,0,29,29,29,29,0,0,0-29-29Z"/><rect class="cls-14" x="892.5" y="306.5" width="17" height="17"/><path d="M908,308v14H894V308h14m3-3H891v20h20V305Z"/><line class="cls-15" x1="896" y1="315" x2="901" y2="315"/><polygon points="899.81 316.74 906.32 315 899.81 313.26 899.81 316.74"/><rect class="cls-14" x="666.5" y="89.5" width="29" height="21"/><path d="M694,91v18H668V91h26m3-3H665v24h32V88Z"/><g class="cls-16"><g class="cls-20"><line class="cls-18" x1="696.5" y1="112.5" x2="721.5" y2="87.5"/><line class="cls-18" x1="693.5" y1="112.5" x2="718.5" y2="87.5"/><line class="cls-18" x1="690.5" y1="112.5" x2="715.5" y2="87.5"/><line class="cls-18" x1="687.5" y1="112.5" x2="712.5" y2="87.5"/><line class="cls-18" x1="684.5" y1="112.5" x2="709.5" y2="87.5"/><line class="cls-18" x1="681.5" y1="112.5" x2="706.5" y2="87.5"/><line class="cls-18" x1="678.5" y1="112.5" x2="703.5" y2="87.5"/><line class="cls-18" x1="675.5" y1="112.5" x2="700.5" y2="87.5"/><line class="cls-18" x1="672.5" y1="112.5" x2="697.5" y2="87.5"/><line class="cls-18" x1="669.5" y1="112.5" x2="694.5" y2="87.5"/><line class="cls-18" x1="666.5" y1="112.5" x2="691.5" y2="87.5"/><line class="cls-18" x1="663.5" y1="112.5" x2="688.5" y2="87.5"/><line class="cls-18" x1="660.5" y1="112.5" x2="685.5" y2="87.5"/><line class="cls-18" x1="657.5" y1="112.5" x2="682.5" y2="87.5"/><line class="cls-18" x1="654.5" y1="112.5" x2="679.5" y2="87.5"/><line class="cls-18" x1="651.5" y1="112.5" x2="676.5" y2="87.5"/><line class="cls-18" x1="648.5" y1="112.5" x2="673.5" y2="87.5"/><line class="cls-18" x1="645.5" y1="112.5" x2="670.5" y2="87.5"/><line class="cls-18" x1="696.5" y1="87.5" x2="721.5" y2="112.5"/><line class="cls-18" x1="693.5" y1="87.5" x2="718.5" y2="112.5"/><line class="cls-18" x1="690.5" y1="87.5" x2="715.5" y2="112.5"/><line class="cls-18" x1="687.5" y1="87.5" x2="712.5" y2="112.5"/><line class="cls-18" x1="684.5" y1="87.5" x2="709.5" y2="112.5"/><line class="cls-18" x1="681.5" y1="87.5" x2="706.5" y2="112.5"/><line class="cls-18" x1="678.5" y1="87.5" x2="703.5" y2="112.5"/><line class="cls-18" x1="675.5" y1="87.5" x2="700.5" y2="112.5"/><line class="cls-18" x1="672.5" y1="87.5" x2="697.5" y2="112.5"/><line class="cls-18" x1="669.5" y1="87.5" x2="694.5" y2="112.5"/><line class="cls-18" x1="666.5" y1="87.5" x2="691.5" y2="112.5"/><line class="cls-18" x1="663.5" y1="87.5" x2="688.5" y2="112.5"/><line class="cls-18" x1="660.5" y1="87.5" x2="685.5" y2="112.5"/><line class="cls-18" x1="657.5" y1="87.5" x2="682.5" y2="112.5"/><line class="cls-18" x1="654.5" y1="87.5" x2="679.5" y2="112.5"/><line class="cls-18" x1="651.5" y1="87.5" x2="676.5" y2="112.5"/><line class="cls-18" x1="648.5" y1="87.5" x2="673.5" y2="112.5"/><line class="cls-18" x1="645.5" y1="87.5" x2="670.5" y2="112.5"/></g></g><rect class="cls-14" x="666.5" y="519.5" width="29" height="21"/><path d="M694,521v18H668V521h26m3-3H665v24h32V518Z"/><g class="cls-16"><g class="cls-21"><line class="cls-18" x1="696.5" y1="542.5" x2="721.5" y2="517.5"/><line class="cls-18" x1="693.5" y1="542.5" x2="718.5" y2="517.5"/><line class="cls-18" x1="690.5" y1="542.5" x2="715.5" y2="517.5"/><line class="cls-18" x1="687.5" y1="542.5" x2="712.5" y2="517.5"/><line class="cls-18" x1="684.5" y1="542.5" x2="709.5" y2="517.5"/><line class="cls-18" x1="681.5" y1="542.5" x2="706.5" y2="517.5"/><line class="cls-18" x1="678.5" y1="542.5" x2="703.5" y2="517.5"/><line class="cls-18" x1="675.5" y1="542.5" x2="700.5" y2="517.5"/><line class="cls-18" x1="672.5" y1="542.5" x2="697.5" y2="517.5"/><line class="cls-18" x1="669.5" y1="542.5" x2="694.5" y2="517.5"/><line class="cls-18" x1="666.5" y1="542.5" x2="691.5" y2="517.5"/><line class="cls-18" x1="663.5" y1="542.5" x2="688.5" y2="517.5"/><line class="cls-18" x1="660.5" y1="542.5" x2="685.5" y2="517.5"/><line class="cls-18" x1="657.5" y1="542.5" x2="682.5" y2="517.5"/><line class="cls-18" x1="654.5" y1="542.5" x2="679.5" y2="517.5"/><line class="cls-18" x1="651.5" y1="542.5" x2="676.5" y2="517.5"/><line class="cls-18" x1="648.5" y1="542.5" x2="673.5" y2="517.5"/><line class="cls-18" x1="645.5" y1="542.5" x2="670.5" y2="517.5"/><line class="cls-18" x1="696.5" y1="517.5" x2="721.5" y2="542.5"/><line class="cls-18" x1="693.5" y1="517.5" x2="718.5" y2="542.5"/><line class="cls-18" x1="690.5" y1="517.5" x2="715.5" y2="542.5"/><line class="cls-18" x1="687.5" y1="517.5" x2="712.5" y2="542.5"/><line class="cls-18" x1="684.5" y1="517.5" x2="709.5" y2="542.5"/><line class="cls-18" x1="681.5" y1="517.5" x2="706.5" y2="542.5"/><line class="cls-18" x1="678.5" y1="517.5" x2="703.5" y2="542.5"/><line class="cls-18" x1="675.5" y1="517.5" x2="700.5" y2="542.5"/><line class="cls-18" x1="672.5" y1="517.5" x2="697.5" y2="542.5"/><line class="cls-18" x1="669.5" y1="517.5" x2="694.5" y2="542.5"/><line class="cls-18" x1="666.5" y1="517.5" x2="691.5" y2="542.5"/><line class="cls-18" x1="663.5" y1="517.5" x2="688.5" y2="542.5"/><line class="cls-18" x1="660.5" y1="517.5" x2="685.5" y2="542.5"/><line class="cls-18" x1="657.5" y1="517.5" x2="682.5" y2="542.5"/><line class="cls-18" x1="654.5" y1="517.5" x2="679.5" y2="542.5"/><line class="cls-18" x1="651.5" y1="517.5" x2="676.5" y2="542.5"/><line class="cls-18" x1="648.5" y1="517.5" x2="673.5" y2="542.5"/><line class="cls-18" x1="645.5" y1="517.5" x2="670.5" y2="542.5"/></g></g><rect class="cls-14" x="932.5" y="227.5" width="17" height="17"/><path d="M948,229v14H934V229h14m3-3H931v20h20V226Z"/><line class="cls-15" x1="941" y1="231" x2="941" y2="236"/><polygon points="939.26 234.81 941 241.32 942.74 234.81 939.26 234.81"/><path class="cls-11" d="M899,170.5A17.5,17.5,0,1,1,916.5,153,17.52,17.52,0,0,1,899,170.5Z"/><path d="M899,137a16,16,0,1,1-16,16,16,16,0,0,1,16-16m0-3a19,19,0,1,0,19,19,19,19,0,0,0-19-19Z"/><path class="cls-12" d="M899,166.5A13.5,13.5,0,1,1,912.5,153,13.52,13.52,0,0,1,899,166.5Z"/><path d="M899,140a13,13,0,1,1-13,13,13,13,0,0,1,13-13m0-1a14,14,0,1,0,14,14,14,14,0,0,0-14-14Z"/><path class="cls-11" d="M899,130.5A17.5,17.5,0,1,1,916.5,113,17.52,17.52,0,0,1,899,130.5Z"/><path d="M899,97a16,16,0,1,1-16,16,16,16,0,0,1,16-16m0-3a19,19,0,1,0,19,19,19,19,0,0,0-19-19Z"/><path class="cls-12" d="M899,126.5A13.5,13.5,0,1,1,912.5,113,13.52,13.52,0,0,1,899,126.5Z"/><path d="M899,100a13,13,0,1,1-13,13,13,13,0,0,1,13-13m0-1a14,14,0,1,0,14,14,14,14,0,0,0-14-14Z"/><path class="cls-11" d="M899,90.5A17.5,17.5,0,1,1,916.5,73,17.52,17.52,0,0,1,899,90.5Z"/><path d="M899,57a16,16,0,1,1-16,16,16,16,0,0,1,16-16m0-3a19,19,0,1,0,19,19,19,19,0,0,0-19-19Z"/><path class="cls-12" d="M899,86.5A13.5,13.5,0,1,1,912.5,73,13.52,13.52,0,0,1,899,86.5Z"/><path d="M899,60a13,13,0,1,1-13,13,13,13,0,0,1,13-13m0-1a14,14,0,1,0,14,14,14,14,0,0,0-14-14Z"/><polygon class="cls-13" points="932 255 950 289 931.75 289 949.75 255 932 255"/><polygon class="cls-13" points="941.25 272 958.25 281 958.25 263 941.25 272"/><rect class="cls-14" x="985" y="167" width="16" height="16"/><path d="M1000,168v14H986V168h14m2-2H984v18h18V166Z"/><text class="cls-22" transform="translate(987.75 177.25)">psi</text><rect class="cls-14" x="1018.5" y="37.5" width="37" height="21"/><path d="M1054,39V57h-34V39h34m3-3h-40V60h40V36Z"/><line class="cls-23" x1="1027.5" y1="57.5" x2="1046.5" y2="38.5"/><line class="cls-23" x1="1046.5" y1="57.5" x2="1027.5" y2="38.5"/><polygon class="cls-13" points="1033.5 344 1067.5 326 1067.5 344 1033.5 326 1033.5 344"/><rect class="cls-14" x="1074.5" y="284.5" width="37" height="21"/><path d="M1110,286v18h-34V286h34m3-3h-40v24h40V283Z"/><line class="cls-23" x1="1083.5" y1="304.5" x2="1102.5" y2="285.5"/><line class="cls-23" x1="1102.5" y1="304.5" x2="1083.5" y2="285.5"/><rect class="cls-14" x="1074.5" y="324.5" width="37" height="21"/><path d="M1110,326v18h-34V326h34m3-3h-40v24h40V323Z"/><line class="cls-23" x1="1083.5" y1="344.5" x2="1102.5" y2="325.5"/><line class="cls-23" x1="1102.5" y1="344.5" x2="1083.5" y2="325.5"/><rect class="cls-14" x="1223.5" y="422.5" width="21" height="37"/><path d="M1243,424v34h-18V424h18m3-3h-24v40h24V421Z"/><line class="cls-23" x1="1224.5" y1="431.5" x2="1243.5" y2="450.5"/><line class="cls-23" x1="1224.5" y1="450.5" x2="1243.5" y2="431.5"/><rect class="cls-14" x="1119.5" y="286.5" width="17" height="17"/><path d="M1135,288v14h-14V288h14m3-3h-20v20h20V285Z"/><line class="cls-15" x1="1123" y1="295" x2="1128" y2="295"/><polygon points="1126.81 296.74 1133.32 295 1126.81 293.26 1126.81 296.74"/><rect class="cls-14" x="1119.5" y="326.5" width="17" height="17"/><path d="M1135,328v14h-14V328h14m3-3h-20v20h20V325Z"/><line class="cls-15" x1="1123" y1="335" x2="1128" y2="335"/><polygon points="1126.81 336.74 1133.32 335 1126.81 333.26 1126.81 336.74"/><rect class="cls-24" x="1179" y="322" width="14" height="14"/><path d="M1192,323v12h-12V323h12m2-2h-16v16h16V321Z"/><text class="cls-22" transform="translate(1180.25 329.25)">lb</text><text class="cls-25" transform="translate(1187.25 334.25)">h</text><line class="cls-15" x1="1183" y1="333" x2="1190.5" y2="325.5"/><rect class="cls-14" x="1283.5" y="422.5" width="21" height="37"/><path d="M1303,424v34h-18V424h18m3-3h-24v40h24V421Z"/><line class="cls-23" x1="1284.5" y1="431.5" x2="1303.5" y2="450.5"/><line class="cls-23" x1="1284.5" y1="450.5" x2="1303.5" y2="431.5"/><rect class="cls-14" x="1277.5" y="174.5" width="21" height="37"/><path d="M1297,176v34h-18V176h18m3-3h-24v40h24V173Z"/><line class="cls-23" x1="1278.5" y1="183.5" x2="1297.5" y2="202.5"/><line class="cls-23" x1="1278.5" y1="202.5" x2="1297.5" y2="183.5"/><rect class="cls-14" x="1249" y="292" width="16" height="16"/><path d="M1264,293v14h-14V293h14m2-2h-18v18h18V291Z"/><text class="cls-22" transform="translate(1251.75 302.25)">psi</text><rect class="cls-14" x="1337.5" y="174.5" width="21" height="37"/><path d="M1357,176v34h-18V176h18m3-3h-24v40h24V173Z"/><line class="cls-23" x1="1338.5" y1="183.5" x2="1357.5" y2="202.5"/><line class="cls-23" x1="1338.5" y1="202.5" x2="1357.5" y2="183.5"/><polygon class="cls-13" points="1335 227 1301 245 1301 226.75 1335 244.75 1335 227"/><polygon class="cls-13" points="1318 236.25 1309 253.25 1327 253.25 1318 236.25"/><text class="cls-26" transform="translate(920 436)">3.7lbs</text><text class="cls-26" transform="translate(289.5 208)">320lbs</text><text class="cls-26" transform="translate(892 76.5)">1lb</text><text class="cls-26" transform="translate(892 116.5)">1lb</text><text class="cls-26" transform="translate(892 156.5)">1lb</text><text class="cls-26" transform="translate(289.5 428)">320lbs</text><rect class="cls-14" x="251" y="171" width="16" height="16"/><path d="M266,172v14H252V172h14m2-2H250v18h18V170Z"/><text class="cls-25" transform="translate(256.25 181.75)">Q</text><rect class="cls-14" x="251" y="201" width="16" height="16"/><path d="M266,202v14H252V202h14m2-2H250v18h18V200Z"/><text class="cls-25" transform="translate(254.75 211.75)">°F</text><rect class="cls-14" x="251" y="446" width="16" height="16"/><path d="M266,447v14H252V447h14m2-2H250v18h18V445Z"/><text class="cls-25" transform="translate(256.25 456.75)">Q</text><rect class="cls-14" x="251" y="416" width="16" height="16"/><path d="M266,417v14H252V417h14m2-2H250v18h18V415Z"/><text class="cls-25" transform="translate(254.75 426.75)">°F</text><rect class="cls-14" x="508" y="107" width="16" height="16"/><path d="M523,108v14H509V108h14m2-2H507v18h18V106Z"/><text class="cls-22" transform="translate(510.75 117.25)">psi</text><rect class="cls-14" x="528" y="507" width="16" height="16"/><path d="M543,508v14H529V508h14m2-2H527v18h18V506Z"/><text class="cls-22" transform="translate(530.75 517.25)">psi</text><rect class="cls-14" x="852" y="423" width="16" height="16"/><path d="M867,424v14H853V424h14m2-2H851v18h18V422Z"/><text class="cls-22" transform="translate(854.75 433.25)">psi</text></g><g id="meta"><line class="cls-27" x1="642" y1="615" x2="642"/><line class="cls-28" x1="642" y1="615" x2="642" y2="609"/><line class="cls-29" x1="642" y1="597.18" x2="642" y2="11.91"/><line class="cls-28" x1="642" y1="6" x2="642"/><text class="cls-30" transform="translate(548 610)">Service Module</text><text class="cls-30" transform="translate(648 610)">Command Module</text><rect class="cls-31" x="1005" y="247" width="162" height="122"/><text class="cls-26" transform="translate(1010 260)">Main Regulator</text><rect class="cls-31" x="909" y="196" width="86" height="101"/><text class="cls-26" transform="translate(921.96 291.42) rotate(-90)">PLSS <tspan class="cls-6" x="28.9" y="0">V</tspan><tspan x="35.02" y="0">alve</tspan></text><rect class="cls-31" x="1202" y="362" width="116" height="135"/><text class="cls-26" transform="translate(1215.46 491.41) rotate(-90)">Cabin Pressure Regulator</text><text class="cls-26" transform="translate(1242.46 258.41) rotate(-90)">Emergency Cabin<tspan x="0" y="12">Pressure Regulator</tspan></text><rect class="cls-31" x="1230" y="155" width="153" height="109"/></g></svg>