<svg xmlns="http://www.w3.org/2000/svg" viewBox="0 0 300 524"><defs><style>.cls-1{fill:#fff;}.cls-1,.cls-2,.cls-3,.cls-4,.cls-5,.cls-6{stroke:#000;}.cls-1,.cls-2,.cls-3,.cls-6{stroke-miterlimit:10;}.cls-2,.cls-3,.cls-4,.cls-5,.cls-6{fill:none;}.cls-3,.cls-5{stroke-width:0.5px;}.cls-6{stroke-width:0.75px;}</style></defs><title>pad</title><g id="boxes"><rect class="cls-1" x="1" y="1" width="298" height="522"/><line class="cls-2" x1="1" y1="21" x2="299" y2="21"/><line class="cls-2" x1="129.5" y1="21.5" x2="129.5" y2="486"/><polygon class="cls-3" points="231.5 37.5 129.5 37.5 129.5 37.5 231.5 37.5 231.5 37.5"/><polygon class="cls-2" points="299.5 53.5 129.5 53.5 129.5 53.5 299.5 53.5 299.5 53.5"/><polygon class="cls-2" points="299.5 69.5 129.5 69.5 129.5 69.5 299.5 69.5 299.5 69.5"/><polygon class="cls-3" points="231.5 85.5 129.5 85.5 129.5 85.5 231.5 85.5 231.5 85.5"/><polygon class="cls-2" points="299.5 101.5 129.5 101.5 129.5 101.5 299.5 101.5 299.5 101.5"/><polygon class="cls-3" points="231.5 117.5 129.5 117.5 129.5 117.5 231.5 117.5 231.5 117.5"/><polygon class="cls-3" points="231.5 133.5 129.5 133.5 129.5 133.5 231.5 133.5 231.5 133.5"/><polygon class="cls-2" points="299.5 149.5 129.5 149.5 129.5 149.5 299.5 149.5 299.5 149.5"/><polygon class="cls-3" points="231.5 165.5 129.5 165.5 129.5 165.5 231.5 165.5 231.5 165.5"/><polygon class="cls-3" points="231.5 181.5 129.5 181.5 129.5 181.5 231.5 181.5 231.5 181.5"/><polygon class="cls-2" points="299.5 197.5 129.5 197.5 129.5 197.5 299.5 197.5 299.5 197.5"/><polygon class="cls-3" points="231.5 213.5 129.5 213.5 129.5 213.5 231.5 213.5 231.5 213.5"/><polygon class="cls-3" points="231.5 229.5 129.5 229.5 129.5 229.5 231.5 229.5 231.5 229.5"/><polygon class="cls-2" points="299.5 245.5 129.5 245.5 129.5 245.5 299.5 245.5 299.5 245.5"/><polygon class="cls-3" points="231.5 261.5 129.5 261.5 129.5 261.5 231.5 261.5 231.5 261.5"/><polygon class="cls-2" points="299.5 277.5 129.5 277.5 129.5 277.5 299.5 277.5 299.5 277.5"/><polygon class="cls-3" points="231.5 293.5 129.5 293.5 129.5 293.5 231.5 293.5 231.5 293.5"/><polygon class="cls-3" points="231.5 309.5 129.5 309.5 129.5 309.5 231.5 309.5 231.5 309.5"/><polygon class="cls-2" points="299.5 325.5 129.5 325.5 129.5 325.5 299.5 325.5 299.5 325.5"/><polygon class="cls-3" points="231.5 341.5 129.5 341.5 129.5 341.5 231.5 341.5 231.5 341.5"/><polygon class="cls-3" points="231.5 357.5 129.5 357.5 129.5 357.5 231.5 357.5 231.5 357.5"/><polygon class="cls-2" points="299.5 373.5 129.5 373.5 129.5 373.5 299.5 373.5 299.5 373.5"/><polygon class="cls-3" points="231.5 389.5 129.5 389.5 129.5 389.5 231.5 389.5 231.5 389.5"/><polygon class="cls-3" points="231.5 405.5 129.5 405.5 129.5 405.5 231.5 405.5 231.5 405.5"/><polygon class="cls-2" points="299.5 421.5 129.5 421.5 129.5 421.5 299.5 421.5 299.5 421.5"/><polygon class="cls-3" points="231.5 437.5 129.5 437.5 129.5 437.5 231.5 437.5 231.5 437.5"/><polygon class="cls-2" points="299.5 453.5 129.5 453.5 129.5 453.5 299.5 453.5 299.5 453.5"/><polygon class="cls-3" points="231.5 469.5 129.5 469.5 129.5 469.5 231.5 469.5 231.5 469.5"/><polygon class="cls-2" points="299.5 485.5 129.5 485.5 129.5 485.5 299.5 485.5 299.5 485.5"/><polygon class="cls-2" points="299.5 501.5 129.5 501.5 129.5 501.5 299.5 501.5 299.5 501.5"/><line class="cls-2" x1="231.5" y1="21.5" x2="231.5" y2="502"/><line class="cls-3" x1="146.5" y1="21.5" x2="146.5" y2="502"/><line class="cls-3" x1="163.5" y1="21.5" x2="163.5" y2="502"/><line class="cls-3" x1="180.5" y1="21.5" x2="180.5" y2="502"/><line class="cls-3" x1="197.5" y1="21.5" x2="197.5" y2="502"/><line class="cls-3" x1="214.5" y1="21.5" x2="214.5" y2="502"/><polyline class="cls-4" points="129.5 501.5 112.5 501.5 112.5 485.5 129.5 485.5"/><line class="cls-5" x1="129.5" y1="485.5" x2="129.5" y2="501.5"/></g><g id="box_text" data-name="box text"><path d="M135.2,61.31h2V59.41H138v1.89h2V62h-2v1.89h-.79V62h-2Z"/><path d="M135.2,109.31h2v-1.89H138v1.89h2V110h-2v1.89h-.79V110h-2Z"/><path d="M135.2,125.31h2v-1.89H138v1.89h2V126h-2v1.89h-.79V126h-2Z"/><path d="M135.2,141.31h2v-1.89H138v1.89h2V142h-2v1.89h-.79V142h-2Z"/><path d="M135.2,253.31h2v-1.89H138v1.89h2V254h-2v1.89h-.79V254h-2Z"/><path d="M135.2,285.31h2v-1.89H138v1.89h2V286h-2v1.89h-.79V286h-2Z"/><path d="M135.2,349.31h2v-1.89H138v1.89h2V350h-2v1.89h-.79V350h-2Z"/><path d="M135.2,365.31h2v-1.89H138v1.89h2V366h-2v1.89h-.79V366h-2Z"/><path d="M135.2,461.31h2v-1.89H138v1.89h2V462h-2v1.89h-.79V462h-2Z"/><path d="M135.2,477.31h2v-1.89H138v1.89h2V478h-2v1.89h-.79V478h-2Z"/><path d="M137.61,205.54l-2-3.54h.92l1.52,2.76,1.56-2.76h.92l-2,3.54,2.12,3.8h-.92l-1.68-3-1.71,3h-.92Z"/><path d="M137.61,221.54l-2-3.54h.92l1.52,2.76,1.56-2.76h.92l-2,3.54,2.12,3.8h-.92l-1.68-3-1.71,3h-.92Z"/><path d="M137.61,237.54l-2-3.54h.92l1.52,2.76,1.56-2.76h.92l-2,3.54,2.12,3.8h-.92l-1.68-3-1.71,3h-.92Z"/><path d="M137.61,301.54l-2-3.54h.92l1.52,2.76,1.56-2.76h.92l-2,3.54,2.12,3.8h-.92l-1.68-3-1.71,3h-.92Z"/><path d="M137.61,317.54l-2-3.54h.92l1.52,2.76,1.56-2.76h.92l-2,3.54,2.12,3.8h-.92l-1.68-3-1.71,3h-.92Z"/><path d="M137.61,333.54l-2-3.54h.92l1.52,2.76,1.56-2.76h.92l-2,3.54,2.12,3.8h-.92l-1.68-3-1.71,3h-.92Z"/><path d="M137.61,381.54l-2-3.54h.92l1.52,2.76,1.56-2.76h.92l-2,3.54,2.12,3.8h-.92l-1.68-3-1.71,3h-.92Z"/><path d="M137.61,397.54l-2-3.54h.92l1.52,2.76,1.56-2.76h.92l-2,3.54,2.12,3.8h-.92l-1.68-3-1.71,3h-.92Z"/><path d="M137.61,413.54l-2-3.54h.92l1.52,2.76,1.56-2.76h.92l-2,3.54,2.12,3.8h-.92l-1.68-3-1.71,3h-.92Z"/><path d="M154.61,205.54l-2-3.54h.92l1.52,2.76,1.56-2.76h.92l-2,3.54,2.12,3.8h-.92l-1.68-3-1.71,3h-.92Z"/><path d="M154.61,221.54l-2-3.54h.92l1.52,2.76,1.56-2.76h.92l-2,3.54,2.12,3.8h-.92l-1.68-3-1.71,3h-.92Z"/><path d="M154.61,237.54l-2-3.54h.92l1.52,2.76,1.56-2.76h.92l-2,3.54,2.12,3.8h-.92l-1.68-3-1.71,3h-.92Z"/><path d="M154.61,301.54l-2-3.54h.92l1.52,2.76,1.56-2.76h.92l-2,3.54,2.12,3.8h-.92l-1.68-3-1.71,3h-.92Z"/><path d="M154.61,333.54l-2-3.54h.92l1.52,2.76,1.56-2.76h.92l-2,3.54,2.12,3.8h-.92l-1.68-3-1.71,3h-.92Z"/><path d="M154.61,381.54l-2-3.54h.92l1.52,2.76,1.56-2.76h.92l-2,3.54,2.12,3.8h-.92l-1.68-3-1.71,3h-.92Z"/><path d="M154.61,413.54l-2-3.54h.92l1.52,2.76,1.56-2.76h.92l-2,3.54,2.12,3.8h-.92l-1.68-3-1.71,3h-.92Z"/><path d="M171.61,205.54l-2-3.54h.92l1.52,2.76,1.56-2.76h.92l-2,3.54,2.12,3.8h-.92l-1.68-3-1.71,3h-.92Z"/><path d="M171.61,221.54l-2-3.54h.92l1.52,2.76,1.56-2.76h.92l-2,3.54,2.12,3.8h-.92l-1.68-3-1.71,3h-.92Z"/><path d="M171.61,237.54l-2-3.54h.92l1.52,2.76,1.56-2.76h.92l-2,3.54,2.12,3.8h-.92l-1.68-3-1.71,3h-.92Z"/><path d="M171.61,301.54l-2-3.54h.92l1.52,2.76,1.56-2.76h.92l-2,3.54,2.12,3.8h-.92l-1.68-3-1.71,3h-.92Z"/><path d="M171.61,333.54l-2-3.54h.92l1.52,2.76,1.56-2.76h.92l-2,3.54,2.12,3.8h-.92l-1.68-3-1.71,3h-.92Z"/><path d="M171.61,381.54l-2-3.54h.92l1.52,2.76,1.56-2.76h.92l-2,3.54,2.12,3.8h-.92l-1.68-3-1.71,3h-.92Z"/><path d="M171.61,413.54l-2-3.54h.92l1.52,2.76,1.56-2.76h.92l-2,3.54,2.12,3.8h-.92l-1.68-3-1.71,3h-.92Z"/><path d="M188.61,333.54l-2-3.54h.92l1.52,2.76,1.56-2.76h.92l-2,3.54,2.12,3.8h-.92l-1.68-3-1.71,3h-.92Z"/><path d="M154.61,397.54l-2-3.54h.92l1.52,2.76,1.56-2.76h.92l-2,3.54,2.12,3.8h-.92l-1.68-3-1.71,3h-.92Z"/><path d="M153,80.37A5.3,5.3,0,0,1,153,75a2.16,2.16,0,0,1,3.76,0,5.3,5.3,0,0,1,0,5.39,2.16,2.16,0,0,1-3.76,0Zm.62-4.93a4.9,4.9,0,0,0,0,4.47,1.39,1.39,0,0,0,2.53,0,4.9,4.9,0,0,0,0-4.47,1.39,1.39,0,0,0-2.53,0Z"/><path d="M170,80.37A5.3,5.3,0,0,1,170,75a2.16,2.16,0,0,1,3.76,0,5.3,5.3,0,0,1,0,5.39,2.16,2.16,0,0,1-3.76,0Zm.62-4.93a4.9,4.9,0,0,0,0,4.47,1.39,1.39,0,0,0,2.53,0,4.9,4.9,0,0,0,0-4.47,1.39,1.39,0,0,0-2.53,0Z"/><path d="M153,96.37A5.3,5.3,0,0,1,153,91a2.16,2.16,0,0,1,3.76,0,5.3,5.3,0,0,1,0,5.39,2.16,2.16,0,0,1-3.76,0Zm.62-4.93a4.9,4.9,0,0,0,0,4.47,1.39,1.39,0,0,0,2.53,0,4.9,4.9,0,0,0,0-4.47,1.39,1.39,0,0,0-2.53,0Z"/><path d="M170,96.37A5.3,5.3,0,0,1,170,91a2.16,2.16,0,0,1,3.76,0,5.3,5.3,0,0,1,0,5.39,2.16,2.16,0,0,1-3.76,0Zm.62-4.93a4.9,4.9,0,0,0,0,4.47,1.39,1.39,0,0,0,2.53,0,4.9,4.9,0,0,0,0-4.47,1.39,1.39,0,0,0-2.53,0Z"/><path d="M153,112.37a5.3,5.3,0,0,1,0-5.39,2.16,2.16,0,0,1,3.76,0,5.3,5.3,0,0,1,0,5.39,2.16,2.16,0,0,1-3.76,0Zm.62-4.93a4.9,4.9,0,0,0,0,4.47,1.39,1.39,0,0,0,2.53,0,4.9,4.9,0,0,0,0-4.47,1.39,1.39,0,0,0-2.53,0Z"/><path d="M170,112.37a5.3,5.3,0,0,1,0-5.39,2.16,2.16,0,0,1,3.76,0,5.3,5.3,0,0,1,0,5.39,2.16,2.16,0,0,1-3.76,0Zm.62-4.93a4.9,4.9,0,0,0,0,4.47,1.39,1.39,0,0,0,2.53,0,4.9,4.9,0,0,0,0-4.47,1.39,1.39,0,0,0-2.53,0Z"/><path d="M153,128.37a5.3,5.3,0,0,1,0-5.39,2.16,2.16,0,0,1,3.76,0,5.3,5.3,0,0,1,0,5.39,2.16,2.16,0,0,1-3.76,0Zm.62-4.93a4.9,4.9,0,0,0,0,4.47,1.39,1.39,0,0,0,2.53,0,4.9,4.9,0,0,0,0-4.47,1.39,1.39,0,0,0-2.53,0Z"/><path d="M170,128.37a5.3,5.3,0,0,1,0-5.39,2.16,2.16,0,0,1,3.76,0,5.3,5.3,0,0,1,0,5.39,2.16,2.16,0,0,1-3.76,0Zm.62-4.93a4.9,4.9,0,0,0,0,4.47,1.39,1.39,0,0,0,2.53,0,4.9,4.9,0,0,0,0-4.47,1.39,1.39,0,0,0-2.53,0Z"/><path d="M153,144.37a5.3,5.3,0,0,1,0-5.39,2.16,2.16,0,0,1,3.76,0,5.3,5.3,0,0,1,0,5.39,2.16,2.16,0,0,1-3.76,0Zm.62-4.93a4.9,4.9,0,0,0,0,4.47,1.39,1.39,0,0,0,2.53,0,4.9,4.9,0,0,0,0-4.47,1.39,1.39,0,0,0-2.53,0Z"/><path d="M187,128.37a5.3,5.3,0,0,1,0-5.39,2.16,2.16,0,0,1,3.76,0,5.3,5.3,0,0,1,0,5.39,2.16,2.16,0,0,1-3.76,0Zm.62-4.93a4.9,4.9,0,0,0,0,4.47,1.39,1.39,0,0,0,2.53,0,4.9,4.9,0,0,0,0-4.47,1.39,1.39,0,0,0-2.53,0Z"/><path d="M153,432.37a5.3,5.3,0,0,1,0-5.39,2.16,2.16,0,0,1,3.76,0,5.3,5.3,0,0,1,0,5.39,2.16,2.16,0,0,1-3.76,0Zm.62-4.93a4.9,4.9,0,0,0,0,4.47,1.39,1.39,0,0,0,2.53,0,4.9,4.9,0,0,0,0-4.47,1.39,1.39,0,0,0-2.53,0Z"/><path d="M221,352.37a5.3,5.3,0,0,1,0-5.39,2.16,2.16,0,0,1,3.76,0,5.3,5.3,0,0,1,0,5.39,2.16,2.16,0,0,1-3.76,0Zm.62-4.93a4.9,4.9,0,0,0,0,4.47,1.39,1.39,0,0,0,2.53,0,4.9,4.9,0,0,0,0-4.47,1.39,1.39,0,0,0-2.53,0Z"/><path d="M221,368.37a5.3,5.3,0,0,1,0-5.39,2.16,2.16,0,0,1,3.76,0,5.3,5.3,0,0,1,0,5.39,2.16,2.16,0,0,1-3.76,0Zm.62-4.93a4.9,4.9,0,0,0,0,4.47,1.39,1.39,0,0,0,2.53,0,4.9,4.9,0,0,0,0-4.47,1.39,1.39,0,0,0-2.53,0Z"/><path d="M204,368.37a5.3,5.3,0,0,1,0-5.39,2.16,2.16,0,0,1,3.76,0,5.3,5.3,0,0,1,0,5.39,2.16,2.16,0,0,1-3.76,0Zm.62-4.93a4.9,4.9,0,0,0,0,4.47,1.39,1.39,0,0,0,2.53,0,4.9,4.9,0,0,0,0-4.47,1.39,1.39,0,0,0-2.53,0Z"/></g><g id="box_symbols" data-name="box symbols"><line class="cls-5" x1="177.25" y1="48" x2="183.75" y2="41.5"/><circle cx="197.5" cy="81.5" r="1.5"/><circle cx="197.5" cy="97.5" r="1.5"/><circle cx="197.5" cy="145.5" r="1.5"/><circle cx="214.5" cy="161.5" r="1.5"/><circle cx="214.5" cy="177.5" r="1.5"/><circle cx="214.5" cy="193.5" r="1.5"/><circle cx="214.5" cy="257.5" r="1.5"/><circle cx="214.5" cy="273.5" r="1.5"/><circle cx="214.5" cy="289.5" r="1.5"/><circle cx="214.5" cy="321.5" r="1.5"/><circle cx="197.5" cy="305.5" r="1.5"/><circle cx="197.5" cy="353.5" r="1.5"/><circle cx="180.5" cy="369.5" r="1.5"/><circle cx="214.5" cy="401.5" r="1.5"/><circle cx="214.5" cy="417.5" r="1.5"/><circle cx="197.5" cy="433.5" r="1.5"/><circle cx="197.5" cy="449.5" r="1.5"/><circle cx="214.5" cy="465.5" r="1.5"/><circle cx="197.5" cy="297.5" r="1.5"/><circle cx="197.5" cy="497.5" r="1.5"/><circle cx="197.5" cy="489.5" r="1.5"/><circle cx="163.5" cy="497.5" r="1.5"/><circle cx="163.5" cy="489.5" r="1.5"/><path d="M145.5,70.5v14h-15v-14h15m1-1h-17v16h17v-16Z"/><path d="M145.5,86.5v14h-15v-14h15m1-1h-17v16h17v-16Z"/><path d="M145.5,150.5v14h-15v-14h15m1-1h-17v16h17v-16Z"/><path d="M145.5,166.5v14h-15v-14h15m1-1h-17v16h17v-16Z"/><path d="M145.5,182.5v14h-15v-14h15m1-1h-17v16h17v-16Z"/><path d="M145.5,262.5v14h-15v-14h15m1-1h-17v16h17v-16Z"/><path d="M145.5,422.5v14h-15v-14h15m1-1h-17v16h17v-16Z"/><path d="M145.5,438.5v14h-15v-14h15m1-1h-17v16h17v-16Z"/><path d="M179.5,390.5v14h-15v-14h15m1-1h-17v16h17v-16Z"/><path d="M196.5,406.5v14h-15v-14h15m1-1h-17v16h17v-16Z"/></g><g id="label_text" data-name="label text"><path d="M238.94,41.83a2.65,2.65,0,0,1,1.85.52A2.1,2.1,0,0,1,239.14,46h-.72v3.19h-.81V41.83Zm-.52,3.38h.67c1,0,1.55-.48,1.55-1.33,0-1.17-1.09-1.28-1.62-1.28h-.6Z"/><path d="M243.81,41.83a3.22,3.22,0,0,1,1.78.41,2,2,0,0,1-1,3.65l2.33,3.28h-1L243.65,46h-.21v3.21h-.81V41.83Zm-.36,3.4H244c1,0,1.62-.48,1.62-1.34a1.14,1.14,0,0,0-.58-1.08,2.09,2.09,0,0,0-1.06-.21h-.49Z"/><path d="M247.75,45.5a3.82,3.82,0,1,1,3.82,3.8A3.75,3.75,0,0,1,247.75,45.5Zm.84,0a3,3,0,1,0,3-3A3,3,0,0,0,248.59,45.5Z"/><path d="M256.88,41.83h1.5a4,4,0,0,1,2.71.86,3.58,3.58,0,0,1,1.25,2.82,3.5,3.5,0,0,1-1.29,2.82,3.68,3.68,0,0,1-2.69.85h-1.48Zm.81,6.57h.71a3.14,3.14,0,0,0,2.1-.66,2.94,2.94,0,0,0-2.1-5.14h-.71Z"/><path d="M268.54,40.82l.64.33-5.65,10.2-.64-.31Z"/><path d="M274.13,45.48h3.06v.18a4,4,0,0,1-.7,2.32,3.29,3.29,0,0,1-2.73,1.32,3.8,3.8,0,1,1,0-7.59,3.65,3.65,0,0,1,2.24.73,4.48,4.48,0,0,1,.85.87l-.6.55a3.87,3.87,0,0,0-.69-.76,2.69,2.69,0,0,0-1.78-.62,3,3,0,0,0,0,6.05A2.55,2.55,0,0,0,276,47.3a2.33,2.33,0,0,0,.3-1h-2.18Z"/><path d="M279.5,46.33a2.09,2.09,0,0,0,.58,1.78,2,2,0,0,0,2.42,0,2.09,2.09,0,0,0,.58-1.78v-4.5h.81v4.72a2.84,2.84,0,0,1-.46,1.76,2.82,2.82,0,0,1-4.29,0,2.83,2.83,0,0,1-.46-1.76V41.83h.81Z"/><path d="M286.61,41.83v7.34h-.81V41.83Z"/><path d="M288.5,41.83H290a4,4,0,0,1,2.71.86A3.57,3.57,0,0,1,294,45.5a3.5,3.5,0,0,1-1.29,2.82,3.68,3.68,0,0,1-2.68.85H288.5Zm.81,6.57H290a3.14,3.14,0,0,0,2.1-.66A2.94,2.94,0,0,0,290,42.6h-.71Z"/><path d="M238.94,25.83a2.65,2.65,0,0,1,1.85.52A2.1,2.1,0,0,1,239.14,30h-.72v3.19h-.81V25.83Zm-.52,3.38h.67c1,0,1.55-.48,1.55-1.33,0-1.17-1.09-1.28-1.62-1.28h-.6Z"/><path d="M243.44,30.33a2.09,2.09,0,0,0,.58,1.78,2,2,0,0,0,2.42,0,2.09,2.09,0,0,0,.58-1.78v-4.5h.81v4.72a2.83,2.83,0,0,1-.46,1.76,2.82,2.82,0,0,1-4.29,0,2.84,2.84,0,0,1-.46-1.76V25.83h.81Z"/><path d="M250.91,25.83a3.22,3.22,0,0,1,1.78.41,2,2,0,0,1-1,3.65L254,33.17h-1L250.76,30h-.21v3.21h-.81V25.83Zm-.36,3.4h.52c1,0,1.62-.48,1.62-1.34a1.14,1.14,0,0,0-.58-1.08A2.09,2.09,0,0,0,251,26.6h-.5Z"/><path d="M256.59,25.83a2.65,2.65,0,0,1,1.85.52A2.1,2.1,0,0,1,256.79,30h-.72v3.19h-.81V25.83Zm-.52,3.38h.67c1,0,1.55-.48,1.55-1.33,0-1.17-1.09-1.28-1.62-1.28h-.61Z"/><path d="M259.88,29.5a3.82,3.82,0,1,1,3.82,3.8A3.75,3.75,0,0,1,259.88,29.5Zm.84,0a3,3,0,1,0,3-3A3,3,0,0,0,260.71,29.5Z"/><path d="M272.29,27.28a1.76,1.76,0,0,0-.43-.55,1.32,1.32,0,0,0-.83-.25,1.13,1.13,0,0,0-1.23,1.13.77.77,0,0,0,.28.64,2.4,2.4,0,0,0,.77.46l.7.31a3.56,3.56,0,0,1,1.13.69,1.77,1.77,0,0,1,.53,1.33,2.35,2.35,0,0,1-3.92,1.66,2.66,2.66,0,0,1-.68-1.3l.79-.22a1.74,1.74,0,0,0,.44.94,1.4,1.4,0,0,0,1.06.41,1.39,1.39,0,0,0,1.47-1.45,1.09,1.09,0,0,0-.36-.86,3.2,3.2,0,0,0-.88-.51l-.66-.31a3.22,3.22,0,0,1-1-.6,1.52,1.52,0,0,1-.51-1.2A1.9,1.9,0,0,1,271,25.71a2,2,0,0,1,1.18.33,2.21,2.21,0,0,1,.72.81Z"/><path d="M278.51,26.6h-3v2.18h2.91v.77h-2.91V32.4h3v.77H274.7V25.83h3.81Z"/><path d="M237.66,57.83l1.94,5.5,2.3-5.87,2.18,5.87,2.15-5.5h.9L244,65.55l-2.16-5.87-2.31,5.88-2.82-7.72Z"/><path d="M250,58.6v6.57h-.81V58.6h-1.78v-.77h4.38v.77Z"/><path d="M238.94,73.83a2.65,2.65,0,0,1,1.85.52A2.1,2.1,0,0,1,239.14,78h-.72v3.19h-.81V73.83Zm-.52,3.38h.67c1,0,1.55-.48,1.55-1.33,0-1.17-1.09-1.28-1.62-1.28h-.6Z"/><path d="M243.29,80v3.83h-.47V80h-1v-.45h2.55V80Z"/><path d="M245.65,79.56a1.87,1.87,0,0,1,1,.24,1.19,1.19,0,0,1-.61,2.13l1.36,1.91h-.58L245.56,82h-.12v1.87H245V79.56Zm-.21,2h.3c.59,0,.94-.28.94-.78a.66.66,0,0,0-.34-.63,1.22,1.22,0,0,0-.62-.12h-.29Z"/><path d="M248.66,79.56v4.27h-.47V79.56Z"/><path d="M249.62,83.83l.71-4.51L252,82.93l1.67-3.61.67,4.52h-.49l-.4-3L252,84l-1.44-3.15-.42,3Z"/><path d="M239.16,94l-2.41-4.18h.95l1.87,3.28,1.89-3.28h.95L240,94v3.16h-.81Z"/><path d="M244.1,96v3.83h-.47V96h-1v-.45h2.55V96Z"/><path d="M246.46,95.56a1.88,1.88,0,0,1,1,.24,1.19,1.19,0,0,1-.61,2.13l1.36,1.91h-.58L246.38,98h-.12v1.87h-.47V95.56Zm-.21,2h.3c.59,0,.94-.28.94-.78a.66.66,0,0,0-.34-.63,1.22,1.22,0,0,0-.62-.12h-.29Z"/><path d="M249.47,95.56v4.27H249V95.56Z"/><path d="M250.43,99.83l.71-4.51,1.64,3.61,1.67-3.61.67,4.52h-.49l-.4-3L252.78,100l-1.44-3.15-.42,3Z"/><path d="M238.43,108.81h3.76v-3H243v7.34h-.81v-3.59h-3.76v3.59h-.81v-7.34h.81Z"/><path d="M246.07,105.83a3.22,3.22,0,0,1,1.78.41,2,2,0,0,1-1,3.65l2.33,3.28h-1L245.92,110h-.21v3.21h-.81v-7.34Zm-.36,3.4h.52c1,0,1.62-.48,1.62-1.34a1.14,1.14,0,0,0-.58-1.08,2.09,2.09,0,0,0-1.06-.21h-.49Z"/><path d="M253.7,107.28a1.78,1.78,0,0,0-.43-.55,1.32,1.32,0,0,0-.83-.25,1.13,1.13,0,0,0-1.23,1.13.77.77,0,0,0,.27.64,2.4,2.4,0,0,0,.77.46l.7.31a3.55,3.55,0,0,1,1.13.69,1.77,1.77,0,0,1,.53,1.33,2.36,2.36,0,0,1-3.92,1.66,2.66,2.66,0,0,1-.68-1.3l.79-.22a1.73,1.73,0,0,0,.44.94,1.4,1.4,0,0,0,1.06.41,1.39,1.39,0,0,0,1.47-1.45,1.1,1.1,0,0,0-.36-.86,3.2,3.2,0,0,0-.88-.51l-.66-.31a3.25,3.25,0,0,1-1-.6,1.53,1.53,0,0,1-.51-1.2,1.9,1.9,0,0,1,2.06-1.89,2,2,0,0,1,1.18.33,2.22,2.22,0,0,1,.71.81Z"/><path d="M237.36,129.17l1.22-7.75,2.82,6.19,2.87-6.21,1.14,7.76h-.84l-.69-5.1-2.5,5.41-2.46-5.41-.73,5.1Z"/><path d="M247.92,121.83v7.34h-.81v-7.34Z"/><path d="M249.81,129.17v-7.65l5.72,6v-5.69h.81v7.67l-5.72-6v5.67Z"/><path d="M240.89,139.28a1.76,1.76,0,0,0-.43-.55,1.32,1.32,0,0,0-.83-.25,1.13,1.13,0,0,0-1.23,1.13.77.77,0,0,0,.28.64,2.41,2.41,0,0,0,.77.46l.71.31a3.57,3.57,0,0,1,1.13.69,1.77,1.77,0,0,1,.53,1.33,2.36,2.36,0,0,1-3.92,1.66,2.66,2.66,0,0,1-.68-1.3l.79-.22a1.73,1.73,0,0,0,.44.94,1.5,1.5,0,0,0,2.53-1,1.09,1.09,0,0,0-.36-.86,3.2,3.2,0,0,0-.88-.51l-.66-.31a3.24,3.24,0,0,1-1-.6,1.52,1.52,0,0,1-.51-1.2,1.9,1.9,0,0,1,2.06-1.89,2,2,0,0,1,1.18.33,2.22,2.22,0,0,1,.71.81Z"/><path d="M247.12,138.6h-3v2.18H247v.77h-2.9v2.85h3v.77h-3.81v-7.34h3.81Z"/><path d="M254.22,139.45a3.61,3.61,0,0,0-1-.68,3.12,3.12,0,0,0-1.26-.29,3,3,0,0,0,0,6.05,3.06,3.06,0,0,0,1.37-.34,3.33,3.33,0,0,0,.85-.62v1a3.82,3.82,0,0,1-2.21.71,3.8,3.8,0,1,1,0-7.59,3.46,3.46,0,0,1,2.17.73Z"/><path d="M237,161.17l2.95-7.34h.84l2.95,7.34Zm1.17-.77h4.4l-2.2-5.54Z"/><path d="M245,153.83l2.07,5.6,2.07-5.6h.9l-3,7.78-3-7.78Z"/><path d="M251.48,161.62l-1.15-2.06h.54l.88,1.61.91-1.61h.54L252,161.62l1.24,2.21h-.54l-1-1.76-1,1.76h-.54Z"/><path d="M237,177.17l2.95-7.34h.84l2.95,7.34Zm1.17-.77h4.4l-2.2-5.54Z"/><path d="M245,169.83l2.07,5.6,2.07-5.6h.9l-3,7.78-3-7.78Z"/><path d="M251.58,178l-1.4-2.44h.55l1.09,1.91,1.1-1.91h.55L252.06,178v1.84h-.47Z"/><path d="M237,193.17l2.95-7.34h.84l2.95,7.34Zm1.17-.77h4.4l-2.2-5.54Z"/><path d="M245,185.83l2.07,5.6,2.07-5.6h.9l-3,7.78-3-7.78Z"/><path d="M251.08,195.38h2.27v.45h-3.06l2.33-3.83h-2v-.45h2.83Z"/><path d="M238.79,201.83a3.22,3.22,0,0,1,1.78.41,2,2,0,0,1-1,3.65l2.33,3.28h-1L238.64,206h-.21v3.21h-.81v-7.34Zm-.36,3.4h.52c1,0,1.62-.48,1.62-1.34a1.14,1.14,0,0,0-.58-1.08,2.1,2.1,0,0,0-1.06-.21h-.5Z"/><path d="M238.94,217.83a2.65,2.65,0,0,1,1.85.52,2.1,2.1,0,0,1-1.65,3.63h-.72v3.19h-.81v-7.34Zm-.52,3.38h.67c1,0,1.55-.48,1.55-1.33,0-1.17-1.09-1.28-1.62-1.28h-.6Z"/><path d="M239.16,238l-2.41-4.18h.95l1.87,3.28,1.89-3.28h.95L240,238v3.16h-.81Z"/><path d="M238.43,252.81h3.76v-3H243v7.34h-.81v-3.59h-3.76v3.59h-.81v-7.34h.81Z"/><path d="M246.86,258.63H245l-.51,1.2H244l2-4.48,1.92,4.48h-.53Zm-.19-.45-.72-1.71-.73,1.71Z"/><path d="M238.43,268.81h3.76v-3H243v7.34h-.81v-3.59h-3.76v3.59h-.81v-7.34h.81Z"/><path d="M245.28,271.56a1.54,1.54,0,0,1,1.08.3,1.22,1.22,0,0,1-1,2.11H245v1.86h-.47v-4.27Zm-.3,2h.39c.56,0,.9-.28.9-.78,0-.68-.63-.74-.94-.74H245Z"/><path d="M237,289.17l2.95-7.34h.84l2.95,7.34Zm1.17-.77h4.4l-2.2-5.54Z"/><path d="M245,281.83l2.07,5.6,2.07-5.6h.9l-3,7.78-3-7.78Z"/><path d="M252.88,282.6v6.57h-.81V282.6h-1.78v-.77h4.38v.77Z"/><path d="M238.93,297.83a2.72,2.72,0,0,1,1.68.46,1.82,1.82,0,0,1,.66,1.52,1.66,1.66,0,0,1-.73,1.44,1.84,1.84,0,0,1,1.4,1.85,2,2,0,0,1-.75,1.58,2.68,2.68,0,0,1-1.76.48h-1.83v-7.34Zm-.51,3.22H239c.43,0,1.44-.09,1.44-1.22s-1.19-1.23-1.42-1.23h-.64Zm0,3.34h.93a2,2,0,0,0,1.29-.31,1.23,1.23,0,0,0,.48-1,1.19,1.19,0,0,0-.63-1.08,2.56,2.56,0,0,0-1.24-.22h-.84Z"/><path d="M245.25,298.6v6.57h-.81V298.6h-1.78v-.77H247v.77Z"/><path d="M237,321.17l2.95-7.34h.84l2.95,7.34Zm1.17-.77h4.4l-2.2-5.54Z"/><path d="M245,313.83l2.07,5.6,2.07-5.6h.9l-3,7.78-3-7.78Z"/><path d="M256.69,315.45a3.64,3.64,0,0,0-1-.68,3.12,3.12,0,0,0-1.27-.29,3,3,0,0,0,0,6.05,3.05,3.05,0,0,0,1.36-.34,3.36,3.36,0,0,0,.85-.62v1a3.82,3.82,0,0,1-2.21.71,3.8,3.8,0,1,1,0-7.59,3.46,3.46,0,0,1,2.17.73Z"/><path d="M240.89,331.28a1.76,1.76,0,0,0-.43-.55,1.32,1.32,0,0,0-.83-.25,1.13,1.13,0,0,0-1.23,1.13.77.77,0,0,0,.28.64,2.41,2.41,0,0,0,.77.46l.71.31a3.57,3.57,0,0,1,1.13.69,1.77,1.77,0,0,1,.53,1.33,2.36,2.36,0,0,1-3.92,1.66,2.66,2.66,0,0,1-.68-1.3l.79-.22a1.73,1.73,0,0,0,.44.94,1.5,1.5,0,0,0,2.53-1,1.09,1.09,0,0,0-.36-.86,3.2,3.2,0,0,0-.88-.51l-.66-.31a3.24,3.24,0,0,1-1-.6,1.52,1.52,0,0,1-.51-1.2,1.9,1.9,0,0,1,2.06-1.89,2,2,0,0,1,1.18.33,2.22,2.22,0,0,1,.71.81Z"/><path d="M244.34,333.37l-2-3.54h.92l1.52,2.76,1.56-2.76h.92l-2,3.54,2.12,3.8h-.92l-1.68-3-1.71,3h-.92Z"/><path d="M250.32,330.6v6.57h-.81V330.6h-1.78v-.77h4.38v.77Z"/><path d="M256.18,331.28a1.78,1.78,0,0,0-.43-.55,1.32,1.32,0,0,0-.83-.25,1.13,1.13,0,0,0-1.23,1.13.77.77,0,0,0,.27.64,2.4,2.4,0,0,0,.77.46l.7.31a3.55,3.55,0,0,1,1.13.69,1.77,1.77,0,0,1,.53,1.33,2.36,2.36,0,0,1-3.92,1.66,2.66,2.66,0,0,1-.68-1.3l.79-.22a1.73,1.73,0,0,0,.44.94,1.4,1.4,0,0,0,1.06.41,1.39,1.39,0,0,0,1.47-1.45,1.1,1.1,0,0,0-.36-.86,3.2,3.2,0,0,0-.88-.51l-.66-.31a3.25,3.25,0,0,1-1-.6,1.53,1.53,0,0,1-.51-1.2,1.9,1.9,0,0,1,2.06-1.89,2,2,0,0,1,1.18.33,2.22,2.22,0,0,1,.71.81Z"/><path d="M240.89,347.28a1.76,1.76,0,0,0-.43-.55,1.32,1.32,0,0,0-.83-.25,1.13,1.13,0,0,0-1.23,1.13.77.77,0,0,0,.28.64,2.41,2.41,0,0,0,.77.46l.71.31a3.57,3.57,0,0,1,1.13.69,1.77,1.77,0,0,1,.53,1.33,2.36,2.36,0,0,1-3.92,1.66,2.66,2.66,0,0,1-.68-1.3l.79-.22a1.73,1.73,0,0,0,.44.94,1.5,1.5,0,0,0,2.53-1,1.09,1.09,0,0,0-.36-.86,3.2,3.2,0,0,0-.88-.51l-.66-.31a3.24,3.24,0,0,1-1-.6,1.52,1.52,0,0,1-.51-1.2,1.9,1.9,0,0,1,2.06-1.89,2,2,0,0,1,1.18.33,2.22,2.22,0,0,1,.71.81Z"/><path d="M246.65,346.6h-2.53v2.17h2.44v.77h-2.44v3.63h-.81v-7.34h3.34Z"/><path d="M249.89,346.6v6.57h-.81V346.6h-1.78v-.77h4.38v.77Z"/><path d="M239.42,362.6v6.57h-.81V362.6h-1.78v-.77h4.38v.77Z"/><path d="M243.48,361.83a3.22,3.22,0,0,1,1.78.41,2,2,0,0,1-1,3.65l2.33,3.28h-1L243.32,366h-.21v3.21h-.81v-7.34Zm-.36,3.4h.52c1,0,1.62-.48,1.62-1.34a1.14,1.14,0,0,0-.58-1.08,2.09,2.09,0,0,0-1.06-.21h-.49Z"/><path d="M247.82,369.17v-7.65l5.72,6v-5.69h.81v7.67l-5.72-6v5.67Z"/><path d="M238.93,377.83a2.72,2.72,0,0,1,1.68.46,1.82,1.82,0,0,1,.66,1.52,1.66,1.66,0,0,1-.73,1.44,1.84,1.84,0,0,1,1.4,1.85,2,2,0,0,1-.75,1.58,2.68,2.68,0,0,1-1.76.48h-1.83v-7.34Zm-.51,3.22H239c.43,0,1.44-.09,1.44-1.22s-1.19-1.23-1.42-1.23h-.64Zm0,3.34h.93a2,2,0,0,0,1.29-.31,1.23,1.23,0,0,0,.48-1,1.19,1.19,0,0,0-.63-1.08,2.56,2.56,0,0,0-1.24-.22h-.84Z"/><path d="M246.72,379.28a1.76,1.76,0,0,0-.43-.55,1.32,1.32,0,0,0-.83-.25,1.13,1.13,0,0,0-1.23,1.13.77.77,0,0,0,.28.64,2.41,2.41,0,0,0,.77.46l.71.31a3.57,3.57,0,0,1,1.13.69,1.77,1.77,0,0,1,.53,1.33,2.36,2.36,0,0,1-3.92,1.66,2.66,2.66,0,0,1-.68-1.3l.79-.22a1.73,1.73,0,0,0,.44.94,1.5,1.5,0,0,0,2.53-1,1.09,1.09,0,0,0-.36-.86,3.2,3.2,0,0,0-.88-.51l-.66-.31a3.24,3.24,0,0,1-1-.6,1.52,1.52,0,0,1-.51-1.2,1.9,1.9,0,0,1,2.06-1.89,2,2,0,0,1,1.18.33,2.22,2.22,0,0,1,.71.81Z"/><path d="M252.19,379.28a1.76,1.76,0,0,0-.43-.55,1.32,1.32,0,0,0-.83-.25,1.13,1.13,0,0,0-1.23,1.13.77.77,0,0,0,.28.64,2.41,2.41,0,0,0,.77.46l.71.31a3.57,3.57,0,0,1,1.13.69,1.77,1.77,0,0,1,.53,1.33,2.36,2.36,0,0,1-3.92,1.66,2.66,2.66,0,0,1-.68-1.3l.79-.22a1.73,1.73,0,0,0,.44.94,1.5,1.5,0,0,0,2.53-1,1.09,1.09,0,0,0-.36-.86,3.2,3.2,0,0,0-.88-.51l-.66-.31a3.24,3.24,0,0,1-1-.6,1.52,1.52,0,0,1-.51-1.2,1.9,1.9,0,0,1,2.06-1.89,2,2,0,0,1,1.18.33,2.22,2.22,0,0,1,.71.81Z"/><path d="M240.89,395.28a1.76,1.76,0,0,0-.43-.55,1.32,1.32,0,0,0-.83-.25,1.13,1.13,0,0,0-1.23,1.13.77.77,0,0,0,.28.64,2.41,2.41,0,0,0,.77.46l.71.31a3.57,3.57,0,0,1,1.13.69,1.77,1.77,0,0,1,.53,1.33,2.36,2.36,0,0,1-3.92,1.66,2.66,2.66,0,0,1-.68-1.3l.79-.22a1.73,1.73,0,0,0,.44.94,1.5,1.5,0,0,0,2.53-1,1.09,1.09,0,0,0-.36-.86,3.2,3.2,0,0,0-.88-.51l-.66-.31a3.24,3.24,0,0,1-1-.6,1.52,1.52,0,0,1-.51-1.2,1.9,1.9,0,0,1,2.06-1.89,2,2,0,0,1,1.18.33,2.22,2.22,0,0,1,.71.81Z"/><path d="M244.64,393.83a2.65,2.65,0,0,1,1.85.52,2.1,2.1,0,0,1-1.65,3.63h-.71v3.19h-.81v-7.34Zm-.52,3.38h.67c1,0,1.55-.48,1.55-1.33,0-1.17-1.09-1.28-1.62-1.28h-.6Z"/><path d="M251.8,399.1h-3.12l-.88,2.07h-.9l3.38-7.69,3.29,7.69h-.9Zm-.32-.77-1.23-2.94L249,398.33Z"/><path d="M240.89,411.28a1.76,1.76,0,0,0-.43-.55,1.32,1.32,0,0,0-.83-.25,1.13,1.13,0,0,0-1.23,1.13.77.77,0,0,0,.28.64,2.41,2.41,0,0,0,.77.46l.71.31a3.57,3.57,0,0,1,1.13.69,1.77,1.77,0,0,1,.53,1.33,2.36,2.36,0,0,1-3.92,1.66,2.66,2.66,0,0,1-.68-1.3l.79-.22a1.73,1.73,0,0,0,.44.94,1.5,1.5,0,0,0,2.53-1,1.09,1.09,0,0,0-.36-.86,3.2,3.2,0,0,0-.88-.51l-.66-.31a3.24,3.24,0,0,1-1-.6,1.52,1.52,0,0,1-.51-1.2,1.9,1.9,0,0,1,2.06-1.89,2,2,0,0,1,1.18.33,2.22,2.22,0,0,1,.71.81Z"/><path d="M244.34,413.37l-2-3.54h.92l1.52,2.76,1.56-2.76h.92l-2,3.54,2.12,3.8h-.92l-1.68-3-1.71,3h-.92Z"/><path d="M249.84,409.83a2.65,2.65,0,0,1,1.85.52A2.1,2.1,0,0,1,250,414h-.71v3.19h-.81v-7.34Zm-.52,3.38H250c1,0,1.55-.48,1.55-1.33,0-1.17-1.09-1.28-1.62-1.28h-.6Z"/><path d="M238.43,425.83v6.57h2v.77h-2.84v-7.34Z"/><path d="M245.6,431.1h-3.12l-.88,2.07h-.9l3.38-7.69,3.29,7.69h-.9Zm-.32-.77L244,427.39l-1.25,2.94Z"/><path d="M249.7,426.6v6.57h-.81V426.6h-1.78v-.77h4.38v.77Z"/><path d="M238.43,441.83v6.57h2v.77h-2.84v-7.34Z"/><path d="M240.78,445.5a3.82,3.82,0,1,1,3.82,3.8A3.75,3.75,0,0,1,240.78,445.5Zm.84,0a3,3,0,1,0,3-3A3,3,0,0,0,241.62,445.5Z"/><path d="M249.91,449.17v-7.65l5.72,6v-5.69h.81v7.67l-5.72-6v5.67Z"/><path d="M262.12,445.48h3.06v.18a4,4,0,0,1-.71,2.32,3.29,3.29,0,0,1-2.73,1.32,3.8,3.8,0,1,1,0-7.59,3.66,3.66,0,0,1,2.25.73,4.48,4.48,0,0,1,.85.87l-.61.55a3.86,3.86,0,0,0-.69-.76,2.7,2.7,0,0,0-1.78-.62,3,3,0,0,0,0,6.05A2.55,2.55,0,0,0,264,447.3a2.3,2.3,0,0,0,.3-1h-2.18Z"/><path d="M238.79,457.83a3.22,3.22,0,0,1,1.78.41,2,2,0,0,1-1,3.65l2.33,3.28h-1L238.64,462h-.21v3.21h-.81v-7.34Zm-.36,3.4h.52c1,0,1.62-.48,1.62-1.34a1.14,1.14,0,0,0-.58-1.08,2.1,2.1,0,0,0-1.06-.21h-.5Z"/><path d="M244.94,458.6v6.57h-.81V458.6h-1.78v-.77h4.38v.77Z"/><path d="M251.24,461.48h3.06v.18a4,4,0,0,1-.7,2.32,3.29,3.29,0,0,1-2.73,1.32,3.8,3.8,0,1,1,0-7.59,3.65,3.65,0,0,1,2.24.73,4.49,4.49,0,0,1,.85.87l-.61.55a3.87,3.87,0,0,0-.69-.76,2.69,2.69,0,0,0-1.78-.62,3,3,0,0,0,0,6.05,2.55,2.55,0,0,0,2.24-1.23,2.32,2.32,0,0,0,.3-1h-2.18Z"/><path d="M255.4,461.5a3.82,3.82,0,1,1,3.82,3.8A3.75,3.75,0,0,1,255.4,461.5Zm.84,0a3,3,0,1,0,3-3A3,3,0,0,0,256.24,461.5Z"/><path d="M237.66,473.83l2.07,5.6,2.07-5.6h.9l-3,7.78-3-7.78Z"/><path d="M245.42,473.83v7.34h-.81v-7.34Z"/><path d="M248.49,480.2a5.29,5.29,0,0,1,0-5.39,2.16,2.16,0,0,1,3.76,0,5.3,5.3,0,0,1,0,5.39,2.16,2.16,0,0,1-3.76,0Zm.62-4.93a4.9,4.9,0,0,0,0,4.47,1.39,1.39,0,0,0,2.53,0,4.9,4.9,0,0,0,0-4.47,1.39,1.39,0,0,0-2.53,0Z"/><path d="M241.4,493.48h3.06v.18a4.05,4.05,0,0,1-.7,2.32A3.29,3.29,0,0,1,241,497.3a3.8,3.8,0,1,1,0-7.59,3.65,3.65,0,0,1,2.24.73,4.49,4.49,0,0,1,.85.87l-.61.55a3.87,3.87,0,0,0-.69-.76,2.69,2.69,0,0,0-1.78-.62,3,3,0,0,0,0,6.05,2.55,2.55,0,0,0,2.24-1.23,2.33,2.33,0,0,0,.3-1H241.4Z"/><path d="M249.76,490.6h-3v2.18h2.9v.77h-2.9v2.85h3v.77H246v-7.34h3.81Z"/><path d="M253.06,490.6v6.57h-.81V490.6h-1.78v-.77h4.38v.77Z"/><path d="M274,65.17V57.52l5.72,6V57.83h.81V65.5l-5.72-6v5.67Z"/><path d="M286.24,63h.9v.75h-.9v1.39h-.81V63.78h-3.76l4.58-6.36Zm-.81,0V59.79L283.11,63Z"/><path d="M292.16,58.58h-4v-.75h5.39l-4.91,7.51-.64-.43Z"/><path d="M273.69,81.17V73.52l5.72,6V73.83h.81V81.5l-5.72-6v5.67Z"/><path d="M286,79h.9v.75H286v1.39h-.81V79.78h-3.76L286,73.42Zm-.81,0V75.79L282.83,79Z"/><path d="M292.79,79.14a2.25,2.25,0,0,1-4.49,0,1.85,1.85,0,0,1,1.11-1.79,1.79,1.79,0,0,1-.89-1.61,2,2,0,1,1,4,0,1.79,1.79,0,0,1-.89,1.61A1.85,1.85,0,0,1,292.79,79.14Zm-.81,0a1.43,1.43,0,0,0-2.86,0,1.43,1.43,0,1,0,2.86,0Zm-.18-3.37A1.25,1.25,0,1,0,290.54,77,1.24,1.24,0,0,0,291.8,75.75Z"/><path d="M277.37,109.48h3.06v.18a4,4,0,0,1-.7,2.32A3.29,3.29,0,0,1,277,113.3a3.8,3.8,0,1,1,0-7.59,3.65,3.65,0,0,1,2.24.73,4.49,4.49,0,0,1,.85.87l-.61.55a3.87,3.87,0,0,0-.69-.76,2.69,2.69,0,0,0-1.78-.62,3,3,0,0,0,0,6.05,2.55,2.55,0,0,0,2.24-1.23,2.32,2.32,0,0,0,.3-1h-2.18Z"/><path d="M285.73,106.6h-3v2.18h2.9v.77h-2.9v2.85h3v.77h-3.81v-7.34h3.81Z"/><path d="M289,106.6v6.57h-.81V106.6h-1.78v-.77h4.38v.77Z"/><path d="M292.72,105.83v7.34h-.81v-7.34Z"/><path d="M274.24,129.17v-7.65l5.72,6v-5.69h.81v7.67l-5.72-6v5.67Z"/><path d="M282.67,123.64a2.27,2.27,0,0,1,.34-1.08,2.09,2.09,0,0,1,3.77,1.12,1.76,1.76,0,0,1-.95,1.63,1.75,1.75,0,0,1,1.06,1.77,2.27,2.27,0,0,1-4.3.95,2.16,2.16,0,0,1-.17-.77h.81a1.66,1.66,0,0,0,.26.74,1.36,1.36,0,0,0,1.13.55,1.46,1.46,0,0,0,1.44-1.48,1.3,1.3,0,0,0-.73-1.23,1.89,1.89,0,0,0-.84-.15V125a1.63,1.63,0,0,0,.84-.15,1.26,1.26,0,0,0-.64-2.34,1.11,1.11,0,0,0-.95.42,1.46,1.46,0,0,0-.29.77Z"/><path d="M288.37,123.64a2.27,2.27,0,0,1,.34-1.08,2.09,2.09,0,0,1,3.77,1.12,1.75,1.75,0,0,1-.95,1.63,1.75,1.75,0,0,1,1.06,1.77,2.24,2.24,0,1,1-4.47.18h.81a1.64,1.64,0,0,0,.26.74,1.36,1.36,0,0,0,1.13.55,1.46,1.46,0,0,0,1.44-1.48,1.3,1.3,0,0,0-.73-1.23,1.89,1.89,0,0,0-.84-.15V125a1.62,1.62,0,0,0,.84-.15,1.26,1.26,0,0,0-.64-2.34,1.11,1.11,0,0,0-.95.42,1.48,1.48,0,0,0-.29.77Z"/><path d="M275.2,161.17v-7.65l5.72,6v-5.69h.81v7.67l-5.72-6v5.67Z"/><path d="M288,159.14a2.25,2.25,0,0,1-4.49,0,1.85,1.85,0,0,1,1.11-1.79,1.79,1.79,0,0,1-.89-1.61,2,2,0,1,1,4,0,1.79,1.79,0,0,1-.89,1.61A1.85,1.85,0,0,1,288,159.14Zm-.81,0a1.43,1.43,0,0,0-2.86,0,1.43,1.43,0,0,0,2.86,0Zm-.18-3.37A1.25,1.25,0,1,0,285.8,157,1.24,1.24,0,0,0,287.06,155.75Z"/><path d="M290.34,154.6h-1.23l.43-.77h1.62v7.34h-.81Z"/><path d="M274.24,257.17v-7.65l5.72,6v-5.69h.81v7.67l-5.72-6v5.67Z"/><path d="M286.52,255h.9v.75h-.9v1.39h-.81v-1.39h-3.76l4.58-6.36Zm-.81,0v-3.25L283.38,255Z"/><path d="M288,257.17l2.67-3.09c.19-.22.68-.8.86-1.07a1.89,1.89,0,0,0,.41-1.12,1.39,1.39,0,0,0-1.46-1.43,1.41,1.41,0,0,0-1.22.65,1.64,1.64,0,0,0-.24.87h-.81a2.34,2.34,0,0,1,.55-1.52,2.31,2.31,0,0,1,4,1.44,2.59,2.59,0,0,1-.58,1.57c-.31.43-.71.88-1,1.22l-1.53,1.73h3.1v.75Z"/><path d="M274.93,433.17v-7.65l5.72,6v-5.69h.81v7.67l-5.72-6v5.67Z"/><path d="M286.73,426.11,285,428.46a2.09,2.09,0,0,1,.65-.1,2.32,2.32,0,0,1,2.38,2.42,2.53,2.53,0,0,1-5.06,0,2.89,2.89,0,0,1,.61-1.68l2.5-3.47Zm.53,4.69a1.72,1.72,0,0,0-3.43,0,1.72,1.72,0,1,0,3.43,0Z"/><path d="M290.35,426.6h-1.23l.43-.77h1.62v7.34h-.81Z"/><path d="M277.93,458.6h-3v2.18h2.9v.77h-2.9v2.85h3v.77h-3.81v-7.34h3.81Z"/><path d="M279.17,465.17l1.22-7.75,2.82,6.19,2.87-6.21,1.14,7.76h-.84l-.69-5.1-2.5,5.41-2.46-5.41-.73,5.1Z"/><path d="M292.19,459.28a1.77,1.77,0,0,0-.43-.55,1.32,1.32,0,0,0-.82-.25,1.13,1.13,0,0,0-1.23,1.13.77.77,0,0,0,.28.64,2.39,2.39,0,0,0,.77.46l.7.31a3.58,3.58,0,0,1,1.13.69,1.77,1.77,0,0,1,.53,1.33,2.35,2.35,0,0,1-3.92,1.66,2.65,2.65,0,0,1-.68-1.3l.79-.22a1.73,1.73,0,0,0,.44.94,1.4,1.4,0,0,0,1.06.41,1.39,1.39,0,0,0,1.47-1.45,1.1,1.1,0,0,0-.36-.86,3.19,3.19,0,0,0-.88-.51l-.66-.31a3.24,3.24,0,0,1-1-.6,1.53,1.53,0,0,1-.51-1.2,1.9,1.9,0,0,1,2.06-1.89,2,2,0,0,1,1.18.33,2.21,2.21,0,0,1,.71.81Z"/><path d="M265.32,496.2a5.29,5.29,0,0,1,0-5.39,2.16,2.16,0,0,1,3.76,0,5.3,5.3,0,0,1,0,5.39,2.16,2.16,0,0,1-3.76,0Zm.62-4.93a4.9,4.9,0,0,0,0,4.47,1.39,1.39,0,0,0,2.53,0,4.9,4.9,0,0,0,0-4.47,1.39,1.39,0,0,0-2.53,0Z"/><path d="M271.58,496.18a.55.55,0,1,1-.55.55A.56.56,0,0,1,271.58,496.18Z"/><path d="M274.08,496.2a5.29,5.29,0,0,1,0-5.39,2.16,2.16,0,0,1,3.76,0,5.3,5.3,0,0,1,0,5.39,2.16,2.16,0,0,1-3.76,0Zm.62-4.93a4.9,4.9,0,0,0,0,4.47,1.39,1.39,0,0,0,2.53,0,4.9,4.9,0,0,0,0-4.47,1.39,1.39,0,0,0-2.53,0Z"/><path d="M284.35,490.58H282l-.47,1.58a2,2,0,0,1,.46,0,2.38,2.38,0,0,1,2.42,2.54,2.57,2.57,0,0,1-2.67,2.64,2.49,2.49,0,0,1-1.64-.57,3,3,0,0,1-.64-.75l.65-.46a1.71,1.71,0,0,0,.5.59,1.8,1.8,0,0,0,1.19.44,1.82,1.82,0,0,0,1.8-1.88,1.74,1.74,0,0,0-1.8-1.8,2.4,2.4,0,0,0-1.42.51l1.07-3.54h2.91Z"/><path d="M290.06,493.48h3.06v.18a4.05,4.05,0,0,1-.7,2.32,3.29,3.29,0,0,1-2.73,1.32,3.8,3.8,0,1,1,0-7.59,3.65,3.65,0,0,1,2.24.73,4.49,4.49,0,0,1,.85.87l-.61.55a3.87,3.87,0,0,0-.69-.76,2.69,2.69,0,0,0-1.78-.62,3,3,0,0,0,0,6.05,2.55,2.55,0,0,0,2.24-1.23,2.33,2.33,0,0,0,.3-1h-2.18Z"/><line class="cls-6" x1="243.5" y1="474.2" x2="246.5" y2="474.2"/><line class="cls-6" x1="243.5" y1="480.9" x2="246.5" y2="480.9"/></g><g id="note_lines" data-name="note lines"><line class="cls-5" x1="42" y1="37" x2="87" y2="37"/><line class="cls-5" x1="95.5" y1="85.5" x2="121.5" y2="85.5"/><line class="cls-5" x1="64.5" y1="85.5" x2="90.5" y2="85.5"/><line class="cls-5" x1="33.5" y1="85.5" x2="59.5" y2="85.5"/><line class="cls-5" x1="95.5" y1="101.5" x2="121.5" y2="101.5"/><line class="cls-5" x1="64.5" y1="101.5" x2="90.5" y2="101.5"/><line class="cls-5" x1="33.5" y1="101.5" x2="59.5" y2="101.5"/><line class="cls-5" x1="95.5" y1="117.5" x2="121.5" y2="117.5"/><line class="cls-5" x1="64.5" y1="117.5" x2="90.5" y2="117.5"/><line class="cls-5" x1="33.5" y1="117.5" x2="59.5" y2="117.5"/><line class="cls-5" x1="43.5" y1="165.5" x2="121.5" y2="165.5"/><line class="cls-5" x1="8.5" y1="181.5" x2="121.5" y2="181.5"/><line class="cls-5" x1="8.5" y1="197.5" x2="121.5" y2="197.5"/><line class="cls-5" x1="8.5" y1="213.5" x2="121.5" y2="213.5"/><line class="cls-5" x1="108.5" y1="309.5" x2="121.5" y2="309.5"/><line class="cls-5" x1="8.5" y1="325.5" x2="121.5" y2="325.5"/><line class="cls-5" x1="8.5" y1="341.5" x2="121.5" y2="341.5"/><line class="cls-5" x1="8.5" y1="357.5" x2="121.5" y2="357.5"/><line class="cls-5" x1="39.5" y1="437.5" x2="121.5" y2="437.5"/><line class="cls-5" x1="8.5" y1="453.5" x2="121.5" y2="453.5"/><line class="cls-5" x1="8.5" y1="469.5" x2="121.5" y2="469.5"/></g><g id="note_text" data-name="note text"><path d="M45.82,43.78a1.77,1.77,0,0,0-.43-.55,1.32,1.32,0,0,0-.83-.25,1.13,1.13,0,0,0-1.23,1.13.77.77,0,0,0,.27.64,2.41,2.41,0,0,0,.77.46l.7.31a3.56,3.56,0,0,1,1.13.69,1.77,1.77,0,0,1,.53,1.33,2.36,2.36,0,0,1-3.92,1.66,2.66,2.66,0,0,1-.68-1.3l.79-.22a1.73,1.73,0,0,0,.44.94,1.5,1.5,0,0,0,2.53-1,1.09,1.09,0,0,0-.36-.86,3.2,3.2,0,0,0-.88-.51L44,45.9a3.24,3.24,0,0,1-1-.6,1.52,1.52,0,0,1-.51-1.2,1.9,1.9,0,0,1,2.06-1.89,2,2,0,0,1,1.18.33,2.22,2.22,0,0,1,.71.81Z"/><path d="M52,43.1h-3v2.18H52V46h-2.9V48.9h3v.77H48.24V42.33H52Z"/><path d="M55.35,43.1v6.57h-.81V43.1H52.75v-.77h4.38v.77Z"/><path d="M64.07,43.78a1.77,1.77,0,0,0-.43-.55,1.32,1.32,0,0,0-.83-.25,1.13,1.13,0,0,0-1.23,1.13.77.77,0,0,0,.27.64,2.41,2.41,0,0,0,.77.46l.7.31a3.56,3.56,0,0,1,1.13.69A1.77,1.77,0,0,1,65,47.54a2.36,2.36,0,0,1-3.92,1.66,2.66,2.66,0,0,1-.68-1.3l.79-.22a1.73,1.73,0,0,0,.44.94,1.5,1.5,0,0,0,2.53-1,1.09,1.09,0,0,0-.36-.86,3.2,3.2,0,0,0-.88-.51l-.66-.31a3.24,3.24,0,0,1-1-.6,1.52,1.52,0,0,1-.51-1.2,1.9,1.9,0,0,1,2.06-1.89,2,2,0,0,1,1.18.33,2.22,2.22,0,0,1,.71.81Z"/><path d="M67.83,43.1v6.57H67V43.1H65.23v-.77h4.38v.77Z"/><path d="M74.27,47.6H71.14l-.88,2.07h-.9L72.74,42,76,49.67h-.9Zm-.32-.77-1.23-2.94-1.25,2.94Z"/><path d="M78.24,42.33a3.22,3.22,0,0,1,1.78.41,2,2,0,0,1-1,3.65l2.33,3.28h-1l-2.23-3.21h-.21v3.21h-.81V42.33Zm-.36,3.4h.52c1,0,1.62-.48,1.62-1.34a1.14,1.14,0,0,0-.58-1.08,2.09,2.09,0,0,0-1.06-.21h-.5Z"/><path d="M85.86,43.78a1.77,1.77,0,0,0-.43-.55,1.32,1.32,0,0,0-.83-.25,1.13,1.13,0,0,0-1.23,1.13.77.77,0,0,0,.27.64,2.41,2.41,0,0,0,.77.46l.7.31a3.56,3.56,0,0,1,1.13.69,1.77,1.77,0,0,1,.53,1.33,2.36,2.36,0,0,1-3.92,1.66,2.66,2.66,0,0,1-.68-1.3l.79-.22a1.73,1.73,0,0,0,.44.94,1.5,1.5,0,0,0,2.53-1,1.09,1.09,0,0,0-.36-.86,3.2,3.2,0,0,0-.88-.51L84,45.9a3.24,3.24,0,0,1-1-.6,1.52,1.52,0,0,1-.51-1.2,1.9,1.9,0,0,1,2.06-1.89,2,2,0,0,1,1.18.33,2.22,2.22,0,0,1,.71.81Z"/><path d="M8.46,74.33a3.22,3.22,0,0,1,1.78.41,2,2,0,0,1-1,3.65l2.33,3.28h-1L8.3,78.45H8.09v3.21H7.28V74.33Zm-.36,3.4h.52c1,0,1.62-.48,1.62-1.34a1.14,1.14,0,0,0-.58-1.08,2.09,2.09,0,0,0-1.06-.21h-.5Z"/><path d="M14.77,83.13H12.94l-.51,1.2h-.53l2-4.48,1.92,4.48h-.53Zm-.19-.45L13.86,81l-.73,1.71Z"/><path d="M16.87,80.06v3.83H18v.45H16.4V80.06Z"/><path d="M19.17,80.06v4.27h-.47V80.06Z"/><path d="M22.47,82.18h1.78v.1a2.35,2.35,0,0,1-.41,1.35,1.92,1.92,0,0,1-1.59.77,2.21,2.21,0,1,1,0-4.42,2.13,2.13,0,0,1,1.31.42,2.63,2.63,0,0,1,.49.51l-.35.32a2.24,2.24,0,0,0-.4-.44,1.57,1.57,0,0,0-1-.36,1.76,1.76,0,0,0,0,3.52,1.49,1.49,0,0,0,1.31-.72,1.35,1.35,0,0,0,.17-.61H22.47Z"/><path d="M25.13,84.33V79.88l3.33,3.49V80.06h.47v4.47L25.6,81v3.3Z"/><path d="M8.61,90.33a2.65,2.65,0,0,1,1.85.52,2.1,2.1,0,0,1-1.65,3.63H8.09v3.19H7.28V90.33Zm-.52,3.38h.67c1,0,1.55-.48,1.55-1.33,0-1.17-1.09-1.28-1.62-1.28h-.6Z"/><path d="M14.26,99.13H12.44l-.51,1.2H11.4l2-4.48,1.92,4.48h-.53Zm-.19-.45L13.36,97l-.73,1.71Z"/><path d="M16.36,96.06v3.83h1.18v.45H15.89V96.06Z"/><path d="M18.66,96.06v4.27h-.47V96.06Z"/><path d="M22,98.18h1.78v.1a2.36,2.36,0,0,1-.41,1.35,1.92,1.92,0,0,1-1.59.77,2.21,2.21,0,1,1,0-4.42,2.13,2.13,0,0,1,1.31.42,2.61,2.61,0,0,1,.49.51l-.35.32a2.24,2.24,0,0,0-.4-.44,1.57,1.57,0,0,0-1-.36,1.76,1.76,0,0,0,0,3.52,1.49,1.49,0,0,0,1.31-.72,1.35,1.35,0,0,0,.17-.61H22Z"/><path d="M24.62,100.33V95.88L28,99.37V96.06h.47v4.47L25.1,97v3.3Z"/><path d="M8.83,110.51l-2.41-4.18h.95l1.87,3.28,1.89-3.28h.95l-2.43,4.18v3.16H8.83Z"/><path d="M15.07,115.13H13.25l-.51,1.2h-.53l2-4.48,1.92,4.48h-.53Zm-.19-.45L14.17,113l-.73,1.71Z"/><path d="M17.18,112.06v3.83h1.18v.45H16.7v-4.27Z"/><path d="M19.47,112.06v4.27H19v-4.27Z"/><path d="M22.78,114.18h1.78v.1a2.35,2.35,0,0,1-.41,1.35,1.92,1.92,0,0,1-1.59.77,2.21,2.21,0,1,1,0-4.42,2.13,2.13,0,0,1,1.31.42,2.63,2.63,0,0,1,.49.51l-.35.32a2.24,2.24,0,0,0-.4-.44,1.57,1.57,0,0,0-1-.36,1.76,1.76,0,0,0,0,3.52,1.49,1.49,0,0,0,1.31-.72,1.35,1.35,0,0,0,.17-.61H22.78Z"/><path d="M25.44,116.33v-4.45l3.33,3.49v-3.31h.47v4.47L25.91,113v3.3Z"/><path d="M8.09,158.83a2.09,2.09,0,0,0,.58,1.78,2,2,0,0,0,2.42,0,2.09,2.09,0,0,0,.58-1.78v-4.5h.81V159a2.84,2.84,0,0,1-.46,1.76,2.59,2.59,0,0,1-2.15,1,2.59,2.59,0,0,1-2.15-1A2.84,2.84,0,0,1,7.28,159v-4.72h.81Z"/><path d="M15.2,154.33v6.57h2v.77H14.39v-7.34Z"/><path d="M19.14,154.33v6.57h2v.77H18.32v-7.34Z"/><path d="M26.31,159.6H23.19l-.88,2.07h-.9L24.78,154l3.29,7.69h-.9Zm-.32-.77-1.23-2.94-1.25,2.94Z"/><path d="M32.67,158h3.06v.18a4,4,0,0,1-.7,2.32,3.29,3.29,0,0,1-2.73,1.32,3.8,3.8,0,1,1,0-7.59,3.65,3.65,0,0,1,2.24.73,4.48,4.48,0,0,1,.85.87l-.61.55a3.86,3.86,0,0,0-.69-.76,2.69,2.69,0,0,0-1.78-.62,3,3,0,0,0,0,6.05,2.55,2.55,0,0,0,2.24-1.23,2.32,2.32,0,0,0,.3-1H32.67Z"/><path d="M41,155.1H38v2.18h2.9V158H38v2.85h3v.77H37.22v-7.34H41Z"/><path d="M8.09,301.31h3.76v-3h.81v7.34h-.81v-3.59H8.09v3.59H7.28v-7.34h.81Z"/><path d="M14.17,302A3.82,3.82,0,1,1,18,305.8,3.75,3.75,0,0,1,14.17,302Zm.84,0a3,3,0,1,0,3-3A3,3,0,0,0,15,302Z"/><path d="M24.47,298.33a3.22,3.22,0,0,1,1.78.41,2,2,0,0,1-1,3.65l2.33,3.28h-1l-2.23-3.21h-.21v3.21H23.3v-7.34Zm-.36,3.4h.52c1,0,1.62-.48,1.62-1.34a1.14,1.14,0,0,0-.58-1.08,2.09,2.09,0,0,0-1.06-.21h-.5Z"/><path d="M29.63,298.33v7.34h-.81v-7.34Z"/><path d="M32.21,304.9H36.1v.77H30.84l4-6.57H31.36v-.77h4.85Z"/><path d="M36.8,302a3.82,3.82,0,1,1,3.82,3.8A3.75,3.75,0,0,1,36.8,302Zm.84,0a3,3,0,1,0,3-3A3,3,0,0,0,37.64,302Z"/><path d="M45.93,305.67V298l5.72,6v-5.69h.81V306l-5.72-6v5.67Z"/><path d="M59.07,297.32l.64.33-5.65,10.2-.64-.31Z"/><path d="M60.92,298.33l1.94,5.5,2.3-5.87,2.18,5.87,2.15-5.5h.9l-3.08,7.72-2.16-5.87-2.31,5.88L60,298.33Z"/><path d="M72.22,298.33v7.34h-.81v-7.34Z"/><path d="M74.12,305.67V298l5.72,6v-5.69h.81V306l-5.72-6v5.67Z"/><path d="M82.54,298.33H84a4,4,0,0,1,2.71.86A3.58,3.58,0,0,1,88,302a3.49,3.49,0,0,1-1.29,2.82,3.67,3.67,0,0,1-2.68.85H82.54Zm.81,6.57h.72a3.13,3.13,0,0,0,2.1-.66,2.94,2.94,0,0,0-2.1-5.14h-.72Z"/><path d="M89.1,302a3.82,3.82,0,1,1,3.82,3.8A3.75,3.75,0,0,1,89.1,302Zm.84,0a3,3,0,1,0,3-3A3,3,0,0,0,89.93,302Z"/><path d="M98,298.33l1.94,5.5,2.3-5.87,2.18,5.87,2.15-5.5h.9l-3.08,7.72-2.16-5.87L100,306.05l-2.82-7.72Z"/><path d="M6.88,430a3.75,3.75,0,0,1,3.82-3.8,3.8,3.8,0,1,1,0,7.59A3.75,3.75,0,0,1,6.88,430Zm.84,0a3,3,0,1,0,3-3A3,3,0,0,0,7.72,430Z"/><path d="M17.43,427.1v6.57h-.81V427.1H14.84v-.77h4.38v.77Z"/><path d="M21.13,429.31h3.76v-3h.81v7.34h-.81v-3.59H21.13v3.59h-.81v-7.34h.81Z"/><path d="M31.4,427.1h-3v2.18h2.9V430h-2.9v2.85h3v.77H27.6v-7.34H31.4Z"/><path d="M34.08,426.33a3.22,3.22,0,0,1,1.78.41,2,2,0,0,1-1,3.65l2.33,3.28h-1l-2.23-3.21h-.21v3.21H32.9v-7.34Zm-.36,3.4h.52c1,0,1.62-.48,1.62-1.34a1.14,1.14,0,0,0-.58-1.08,2.09,2.09,0,0,0-1.06-.21h-.5Z"/></g><g id="title_text" data-name="title text"><path d="M111.69,7.17a2.89,2.89,0,0,1,2,.56,2.23,2.23,0,0,1,.73,1.72,2.22,2.22,0,0,1-2.53,2.24h-.78v3.48h-.89v-8Zm-.56,3.68h.73c1.06,0,1.69-.53,1.69-1.45,0-1.27-1.19-1.39-1.76-1.39h-.66Z"/><path d="M115.71,9.15A2.48,2.48,0,0,1,116.08,8a2.28,2.28,0,0,1,4.11,1.22,1.91,1.91,0,0,1-1,1.77,1.91,1.91,0,0,1,1.15,1.93,2.47,2.47,0,0,1-4.69,1,2.36,2.36,0,0,1-.18-.84h.89a1.79,1.79,0,0,0,.29.8,1.48,1.48,0,0,0,1.24.6,1.59,1.59,0,0,0,1.57-1.62,1.42,1.42,0,0,0-.79-1.34,2.06,2.06,0,0,0-.91-.17v-.79a1.78,1.78,0,0,0,.91-.17,1.27,1.27,0,0,0,.67-1.19,1.26,1.26,0,0,0-1.37-1.37,1.21,1.21,0,0,0-1,.46,1.6,1.6,0,0,0-.31.84Z"/><path d="M122.85,14.11a5.19,5.19,0,0,1-.8-2.94,5.19,5.19,0,0,1,.8-2.94,2.35,2.35,0,0,1,4.1,0,5.19,5.19,0,0,1,.8,2.94,5.19,5.19,0,0,1-.8,2.94,2.35,2.35,0,0,1-4.1,0Zm.67-5.37a4.67,4.67,0,0,0-.59,2.43,4.67,4.67,0,0,0,.59,2.43,1.52,1.52,0,0,0,2.76,0,4.66,4.66,0,0,0,.59-2.43,4.66,4.66,0,0,0-.59-2.43,1.52,1.52,0,0,0-2.76,0Z"/><path d="M131.86,15.17l1.33-8.44,3.07,6.75,3.13-6.76,1.25,8.46h-.91L139,9.6l-2.72,5.9-2.69-5.9-.79,5.56Z"/><path d="M146.9,12.91H143.5l-1,2.25h-1l3.68-8.38,3.59,8.38h-1Zm-.35-.84-1.34-3.2-1.37,3.2Z"/><path d="M150,15.17V6.83l6.24,6.54V7.17h.89v8.36L150.84,9v6.18Z"/><path d="M163.29,8H160v2.38h3.17v.84H160v3.11h3.26v.84h-4.15v-8h4.15Z"/><path d="M165.82,12.07a2.28,2.28,0,0,0,.64,1.94,2.14,2.14,0,0,0,2.64,0,2.28,2.28,0,0,0,.63-1.94V7.17h.89v5.15a3.09,3.09,0,0,1-.5,1.92,3.07,3.07,0,0,1-4.68,0,3.09,3.09,0,0,1-.5-1.92V7.17h.89Z"/><path d="M172.73,7.17l2.25,6.1,2.25-6.1h1L175,15.65l-3.24-8.48Z"/><path d="M183.5,8h-3.26v2.38h3.17v.84h-3.17v3.11h3.26v.84h-4.15v-8h4.15Z"/><path d="M186.42,7.17a3.51,3.51,0,0,1,1.94.44,2.09,2.09,0,0,1,.88,1.77,2.1,2.1,0,0,1-2,2.21l2.54,3.57h-1.08l-2.43-3.5H186v3.5h-.89v-8Zm-.4,3.71h.56c1.1,0,1.76-.53,1.76-1.46a1.25,1.25,0,0,0-.64-1.18A2.28,2.28,0,0,0,186.57,8H186Z"/></g></svg>