<svg xmlns="http://www.w3.org/2000/svg" viewBox="0 0 5000 2026"><defs><style>.cls-1{fill:#f2f2f2;}.cls-10,.cls-15,.cls-16,.cls-18,.cls-19,.cls-2,.cls-20,.cls-21,.cls-23,.cls-4,.cls-5,.cls-7{fill:none;}.cls-15,.cls-16,.cls-18,.cls-2,.cls-4{stroke:#000;}.cls-10,.cls-11,.cls-12,.cls-14,.cls-15,.cls-16,.cls-18,.cls-19,.cls-2,.cls-20,.cls-21,.cls-23,.cls-4,.cls-5,.cls-6,.cls-7,.cls-8{stroke-miterlimit:10;}.cls-2{stroke-width:5px;}.cls-3,.cls-6{fill:#e6e6e6;}.cls-4,.cls-5,.cls-6{stroke-width:3px;}.cls-5,.cls-6,.cls-7,.cls-8{stroke:gray;}.cls-15,.cls-20,.cls-21,.cls-23,.cls-7{stroke-width:2px;}.cls-17,.cls-8{fill:#ccc;}.cls-11,.cls-9{fill:#ddd;}.cls-10,.cls-11,.cls-12{stroke:#b3b3b3;}.cls-12,.cls-13,.cls-14{fill:#4d4d4d;}.cls-14{stroke:#c1272d;stroke-width:8px;}.cls-18{stroke-width:0.5px;}.cls-19,.cls-21{stroke:#999;}.cls-20{stroke:#4d4d4d;}.cls-22{fill:#666;}.cls-23{stroke:#00bf00;}.cls-24,.cls-25{fill:#00bf00;}.cls-25,.cls-26{opacity:0.15;}</style></defs><title>panel-cm-mdc</title><g id="main_panels" data-name="main panels"><path class="cls-1" d="M371.5,1869h1117a10,10,0,0,0,10-10v-40c0-5.5-3.62-12.67-8-15.94l-25.91-19.12c-4.43-3.27-8-10.44-8-15.94v-30c0-5.5,3.87-12.3,8.59-15.11l24.81-14.77c4.73-2.81,8.59-9.61,8.59-15.11v-38c0-5.5-3.73-12.52-8.29-15.59l-26.42-17.82c-4.56-3.08-8.29-10.09-8.29-15.59v-28c0-5.5,3.65-12.63,8.11-15.85l26.78-19.3c4.46-3.22,8.11-10.35,8.11-15.85v-34c0-5.5-3.67-12.6-8.16-15.79l-14.69-10.43c-4.49-3.18-8.16-10.29-8.16-15.79v-49c0-5.5,3.89-12.26,8.65-15l13.7-8c4.76-2.76,8.65-9.52,8.65-15v-35c0-5.5-3.72-12.54-8.26-15.63l-27.48-18.73c-4.54-3.1-8.26-10.13-8.26-15.63v-34c0-5.5,3.76-12.48,8.35-15.5l27.3-18c4.59-3,8.35-10,8.35-15.5v-33c0-5.5-3.76-12.48-8.35-15.5l-27.3-18c-4.59-3-8.35-10-8.35-15.5v-36c0-5.5,3.91-12.22,8.69-14.94l26.61-15.12c4.78-2.72,8.69-9.44,8.69-14.94V999c0-5.5-3.72-12.54-8.26-15.63l-27.48-18.73c-4.54-3.1-8.26-10.13-8.26-15.63V915c0-5.5,3.8-12.42,8.44-15.37l27.13-17.26c4.64-3,8.44-9.87,8.44-15.37V833c0-5.5-3.77-12.46-8.38-15.46l-29.25-19.07c-4.61-3-8.38-10-8.38-15.46V751c0-5.5,3.81-12.4,8.46-15.33L1490,717.33c4.65-2.93,8.46-9.83,8.46-15.33V670c0-5.5-3.8-12.41-8.45-15.35L1458,634.35c-4.65-2.94-8.45-9.85-8.45-15.35V586c0-5.5,3.77-12.46,8.37-15.47l32.25-21.06c4.6-3,8.37-10,8.37-15.47V504c0-5.5-3.78-12.44-8.4-15.43l-31.2-20.15c-4.62-3-8.4-9.93-8.4-15.43V407a10,10,0,0,1,10-10h28a10,10,0,0,0,10-10V193a10,10,0,0,0-10-10h-141a37.65,37.65,0,0,0-18.22,5.69L1007.72,411.31a56.56,56.56,0,0,1-18,7.57L800.32,455.12a43.3,43.3,0,0,0-17.32,8.5l-36,31.77a9.25,9.25,0,0,0-.4,13.66L850.4,612a9.55,9.55,0,0,1-.22,13.85l-99.35,92.38a14.66,14.66,0,0,1-16,1.92l-7.55-4.23a12.55,12.55,0,0,0-15.13,2.79L271.91,1246.32a43.48,43.48,0,0,0-8,17.55l-57.75,350.27A147.71,147.71,0,0,0,204.5,1634v225a10,10,0,0,0,10,10Z"/><path class="cls-2" d="M371.5,1869h1117a10,10,0,0,0,10-10v-40c0-5.5-3.62-12.67-8-15.94l-25.91-19.12c-4.43-3.27-8-10.44-8-15.94v-30c0-5.5,3.87-12.3,8.59-15.11l24.81-14.77c4.73-2.81,8.59-9.61,8.59-15.11v-38c0-5.5-3.73-12.52-8.29-15.59l-26.42-17.82c-4.56-3.08-8.29-10.09-8.29-15.59v-28c0-5.5,3.65-12.63,8.11-15.85l26.78-19.3c4.46-3.22,8.11-10.35,8.11-15.85v-34c0-5.5-3.67-12.6-8.16-15.79l-14.69-10.43c-4.49-3.18-8.16-10.29-8.16-15.79v-49c0-5.5,3.89-12.26,8.65-15l13.7-8c4.76-2.76,8.65-9.52,8.65-15v-35c0-5.5-3.72-12.54-8.26-15.63l-27.48-18.73c-4.54-3.1-8.26-10.13-8.26-15.63v-34c0-5.5,3.76-12.48,8.35-15.5l27.3-18c4.59-3,8.35-10,8.35-15.5v-33c0-5.5-3.76-12.48-8.35-15.5l-27.3-18c-4.59-3-8.35-10-8.35-15.5v-36c0-5.5,3.91-12.22,8.69-14.94l26.61-15.12c4.78-2.72,8.69-9.44,8.69-14.94V999c0-5.5-3.72-12.54-8.26-15.63l-27.48-18.73c-4.54-3.1-8.26-10.13-8.26-15.63V915c0-5.5,3.8-12.42,8.44-15.37l27.13-17.26c4.64-3,8.44-9.87,8.44-15.37V833c0-5.5-3.77-12.46-8.38-15.46l-29.25-19.07c-4.61-3-8.38-10-8.38-15.46V751c0-5.5,3.81-12.4,8.46-15.33L1490,717.33c4.65-2.93,8.46-9.83,8.46-15.33V670c0-5.5-3.8-12.41-8.45-15.35L1458,634.35c-4.65-2.94-8.45-9.85-8.45-15.35V586c0-5.5,3.77-12.46,8.37-15.47l32.25-21.06c4.6-3,8.37-10,8.37-15.47V504c0-5.5-3.78-12.44-8.4-15.43l-31.2-20.15c-4.62-3-8.4-9.93-8.4-15.43V407a10,10,0,0,1,10-10h28a10,10,0,0,0,10-10V193a10,10,0,0,0-10-10h-141a37.65,37.65,0,0,0-18.22,5.69L1007.72,411.31a56.56,56.56,0,0,1-18,7.57L800.32,455.12a43.3,43.3,0,0,0-17.32,8.5l-36,31.77a9.25,9.25,0,0,0-.4,13.66L850.4,612a9.55,9.55,0,0,1-.22,13.85l-99.35,92.38a14.66,14.66,0,0,1-16,1.92l-7.55-4.23a12.55,12.55,0,0,0-15.13,2.79L271.91,1246.32a43.48,43.48,0,0,0-8,17.55l-57.75,350.27A147.71,147.71,0,0,0,204.5,1634v225a10,10,0,0,0,10,10Z"/><path class="cls-3" d="M216,363.5c0-5.5,3.18-13.18,7.07-17.07l52.86-52.86c3.89-3.89,11.57-7.07,17.07-7.07H756c5.5,0,8.77,4.33,7.27,9.62L728.73,417.88A14,14,0,0,1,716,427.5H705c-5.5,0-11.9,4.08-14.21,9.07l-4.58,9.86c-2.32,5-8.71,9.07-14.21,9.07h-6c-5.5,0-13.18-3.18-17.07-7.07l-14.86-14.86c-3.89-3.89-11.57-7.07-17.07-7.07H476c-5.5,0-12.72,3.59-16,8L450,447.53c-3.32,4.38-10.54,8-16,8H422c-5.5,0-12.34-3.84-15.2-8.54L403.2,441c-2.86-4.7-9.7-8.54-15.2-8.54H226a10,10,0,0,1-10-10Z"/><path class="cls-2" d="M216,363.5c0-5.5,3.18-13.18,7.07-17.07l52.86-52.86c3.89-3.89,11.57-7.07,17.07-7.07H756c5.5,0,8.77,4.33,7.27,9.62L728.73,417.88A14,14,0,0,1,716,427.5H705c-5.5,0-11.9,4.08-14.21,9.07l-4.58,9.86c-2.32,5-8.71,9.07-14.21,9.07h-6c-5.5,0-13.18-3.18-17.07-7.07l-14.86-14.86c-3.89-3.89-11.57-7.07-17.07-7.07H476c-5.5,0-12.72,3.59-16,8L450,447.53c-3.32,4.38-10.54,8-16,8H422c-5.5,0-12.34-3.84-15.2-8.54L403.2,441c-2.86-4.7-9.7-8.54-15.2-8.54H226a10,10,0,0,1-10-10Z"/><path class="cls-1" d="M2704.5,1361.89c-5.5.06-14.5.11-20,.11h-521c-5.5,0-13.28,3.08-17.29,6.84l-525.42,493.31c-4,3.76-11.79,6.84-17.29,6.84h-74a10,10,0,0,1-10-10v-38c0-5.5-3.7-12.56-8.22-15.69l-22.56-15.62c-4.52-3.13-8.22-10.19-8.22-15.69v-37c0-5.5,3.79-12.43,8.42-15.4l22.16-14.21c4.63-3,8.42-9.9,8.42-15.4v-35c0-5.5-3.7-12.56-8.22-15.69l-22.56-15.62c-4.52-3.13-8.22-10.19-8.22-15.69v-36c0-5.5,3.79-12.43,8.42-15.4l22.16-14.21c4.63-3,8.42-9.9,8.42-15.4v-34c0-5.5-3.66-12.62-8.12-15.83l-22.75-16.34c-4.47-3.21-8.12-10.33-8.12-15.83v-37c0-5.5,3.79-12.43,8.42-15.4l22.16-14.21c4.63-3,8.42-9.9,8.42-15.4v-36c0-5.5-3.83-12.36-8.52-15.24l-22-13.52c-4.68-2.88-8.52-9.74-8.52-15.24v-40c0-5.5,3.72-12.54,8.26-15.64l24.48-16.72c4.54-3.1,8.26-10.14,8.26-15.64v-36c0-5.5-3.88-12.27-8.63-15.05l-23.74-13.9c-4.75-2.78-8.63-9.55-8.63-15.05v-36c0-5.5,3.74-12.5,8.32-15.55l25.36-16.91c4.58-3.05,8.32-10,8.32-15.55V999c0-5.5-3.83-12.37-8.5-15.26l-25-15.47c-4.68-2.89-8.5-9.76-8.5-15.26V914c0-5.5,3.84-12.34,8.54-15.21L1513,884.21c4.7-2.86,8.54-9.71,8.54-15.21V835c0-5.5-3.76-12.47-8.35-15.5l-24.3-16c-4.59-3-8.35-10-8.35-15.5V749c0-5.5,3.79-12.43,8.41-15.41l25.18-16.18c4.63-3,8.41-9.91,8.41-15.41V669c0-5.5-3.87-12.3-8.59-15.11l-24.81-14.77c-4.73-2.81-8.59-9.61-8.59-15.11V587c0-5.5,3.65-12.63,8.11-15.85l26.78-19.3c4.46-3.22,8.11-10.35,8.11-15.85V502c0-5.5-3.81-12.39-8.47-15.32L1489,470.32c-4.66-2.92-8.47-9.82-8.47-15.32V415a10,10,0,0,1,10-10h399a10,10,0,0,0,10-10V157c0-5.5,4.14-11.77,9.19-13.94,0,0,249.81-107.06,588.81-107.06s594,126.56,594,126.56c4.93,2.44,9,8.94,9,14.44V393.5a10,10,0,0,0,10,10H3516a10,10,0,0,1,10,10v45c0,5.5-3.64,12.65-8.08,15.89l-31.84,23.22c-4.44,3.24-8.08,10.39-8.08,15.89v30c0,5.5,3.78,12.44,8.4,15.43l31.2,20.15c4.62,3,8.4,9.93,8.4,15.43v29c0,5.5-3.58,12.72-8,16.06L3488,662.44c-4.38,3.33-8,10.56-8,16.06v35c0,5.5,3.84,12.34,8.54,15.2l28.92,17.6c4.7,2.86,8.54,9.7,8.54,15.2v24c0,5.5-3.61,12.69-8,16l-31,23.05c-4.41,3.28-8,10.47-8,16v37c0,5.5,3.78,12.45,8.39,15.44l20.22,13.12c4.61,3,8.39,9.94,8.39,15.44v38c0,5.5-3.76,12.47-8.35,15.5l-24.3,16c-4.59,3-8.35,10-8.35,15.5v36c0,5.5,3.82,12.38,8.48,15.3l23,14.4c4.66,2.91,8.48,9.8,8.48,15.3v38c0,5.5-3.83,12.37-8.5,15.26l-25,15.47c-4.68,2.89-8.5,9.76-8.5,15.26v37c0,5.5,3.74,12.5,8.32,15.55l22.36,14.91c4.58,3.05,8.32,10,8.32,15.55v31c0,5.5-3.66,12.62-8.14,15.81l-25.73,18.38c-4.48,3.2-8.14,10.31-8.14,15.81v34c0,5.5,3.7,12.56,8.22,15.69l22.56,15.62c4.52,3.13,8.22,10.19,8.22,15.69v32c0,5.5-3.79,12.43-8.41,15.41l-25.18,16.18c-4.63,3-8.41,9.91-8.41,15.41v40c0,5.5,3.79,12.43,8.42,15.4l22.16,14.21c4.63,3,8.42,9.9,8.42,15.4v32c0,5.5-3.64,12.64-8.1,15.87l-23.81,17.26c-4.45,3.23-8.1,10.37-8.1,15.87v33c0,5.5,3.57,12.73,7.94,16.07l18.11,13.85c4.37,3.34,7.94,10.57,7.94,16.07v17a10,10,0,0,1-10,10H3272c-5.5,0-13.26-3.1-17.25-6.89l-413.51-393.22c-4-3.79-11.75-6.84-17.25-6.78Z"/><path class="cls-2" d="M2704.5,1361.89c-5.5.06-14.5.11-20,.11h-521c-5.5,0-13.28,3.08-17.29,6.84l-525.42,493.31c-4,3.76-11.79,6.84-17.29,6.84h-74a10,10,0,0,1-10-10v-38c0-5.5-3.7-12.56-8.22-15.69l-22.56-15.62c-4.52-3.13-8.22-10.19-8.22-15.69v-37c0-5.5,3.79-12.43,8.42-15.4l22.16-14.21c4.63-3,8.42-9.9,8.42-15.4v-35c0-5.5-3.7-12.56-8.22-15.69l-22.56-15.62c-4.52-3.13-8.22-10.19-8.22-15.69v-36c0-5.5,3.79-12.43,8.42-15.4l22.16-14.21c4.63-3,8.42-9.9,8.42-15.4v-34c0-5.5-3.66-12.62-8.12-15.83l-22.75-16.34c-4.47-3.21-8.12-10.33-8.12-15.83v-37c0-5.5,3.79-12.43,8.42-15.4l22.16-14.21c4.63-3,8.42-9.9,8.42-15.4v-36c0-5.5-3.83-12.36-8.52-15.24l-22-13.52c-4.68-2.88-8.52-9.74-8.52-15.24v-40c0-5.5,3.72-12.54,8.26-15.64l24.48-16.72c4.54-3.1,8.26-10.14,8.26-15.64v-36c0-5.5-3.88-12.27-8.63-15.05l-23.74-13.9c-4.75-2.78-8.63-9.55-8.63-15.05v-36c0-5.5,3.74-12.5,8.32-15.55l25.36-16.91c4.58-3.05,8.32-10,8.32-15.55V999c0-5.5-3.83-12.37-8.5-15.26l-25-15.47c-4.68-2.89-8.5-9.76-8.5-15.26V914c0-5.5,3.84-12.34,8.54-15.21L1513,884.21c4.7-2.86,8.54-9.71,8.54-15.21V835c0-5.5-3.76-12.47-8.35-15.5l-24.3-16c-4.59-3-8.35-10-8.35-15.5V749c0-5.5,3.79-12.43,8.41-15.41l25.18-16.18c4.63-3,8.41-9.91,8.41-15.41V669c0-5.5-3.87-12.3-8.59-15.11l-24.81-14.77c-4.73-2.81-8.59-9.61-8.59-15.11V587c0-5.5,3.65-12.63,8.11-15.85l26.78-19.3c4.46-3.22,8.11-10.35,8.11-15.85V502c0-5.5-3.81-12.39-8.47-15.32L1489,470.32c-4.66-2.92-8.47-9.82-8.47-15.32V415a10,10,0,0,1,10-10h399a10,10,0,0,0,10-10V157c0-5.5,4.14-11.77,9.19-13.94,0,0,249.81-107.06,588.81-107.06s594,126.56,594,126.56c4.93,2.44,9,8.94,9,14.44V393.5a10,10,0,0,0,10,10H3516a10,10,0,0,1,10,10v45c0,5.5-3.64,12.65-8.08,15.89l-31.84,23.22c-4.44,3.24-8.08,10.39-8.08,15.89v30c0,5.5,3.78,12.44,8.4,15.43l31.2,20.15c4.62,3,8.4,9.93,8.4,15.43v29c0,5.5-3.58,12.72-8,16.06L3488,662.44c-4.38,3.33-8,10.56-8,16.06v35c0,5.5,3.84,12.34,8.54,15.2l28.92,17.6c4.7,2.86,8.54,9.7,8.54,15.2v24c0,5.5-3.61,12.69-8,16l-31,23.05c-4.41,3.28-8,10.47-8,16v37c0,5.5,3.78,12.45,8.39,15.44l20.22,13.12c4.61,3,8.39,9.94,8.39,15.44v38c0,5.5-3.76,12.47-8.35,15.5l-24.3,16c-4.59,3-8.35,10-8.35,15.5v36c0,5.5,3.82,12.38,8.48,15.3l23,14.4c4.66,2.91,8.48,9.8,8.48,15.3v38c0,5.5-3.83,12.37-8.5,15.26l-25,15.47c-4.68,2.89-8.5,9.76-8.5,15.26v37c0,5.5,3.74,12.5,8.32,15.55l22.36,14.91c4.58,3.05,8.32,10,8.32,15.55v31c0,5.5-3.66,12.62-8.14,15.81l-25.73,18.38c-4.48,3.2-8.14,10.31-8.14,15.81v34c0,5.5,3.7,12.56,8.22,15.69l22.56,15.62c4.52,3.13,8.22,10.19,8.22,15.69v32c0,5.5-3.79,12.43-8.41,15.41l-25.18,16.18c-4.63,3-8.41,9.91-8.41,15.41v40c0,5.5,3.79,12.43,8.42,15.4l22.16,14.21c4.63,3,8.42,9.9,8.42,15.4v32c0,5.5-3.64,12.64-8.1,15.87l-23.81,17.26c-4.45,3.23-8.1,10.37-8.1,15.87v33c0,5.5,3.57,12.73,7.94,16.07l18.11,13.85c4.37,3.34,7.94,10.57,7.94,16.07v17a10,10,0,0,1-10,10H3272c-5.5,0-13.26-3.1-17.25-6.89l-413.51-393.22c-4-3.79-11.75-6.84-17.25-6.78Z"/><path class="cls-1" d="M3483.5,323v60a10,10,0,0,0,10,10h34a10,10,0,0,1,10,10v65c0,5.5-3.79,12.43-8.42,15.4l-22.16,14.21c-4.63,3-8.42,9.9-8.42,15.4v34c0,5.5,3.7,12.56,8.22,15.69l22.56,15.62c4.52,3.13,8.22,10.19,8.22,15.69v39c0,5.5-3.7,12.56-8.22,15.69l-22.56,15.62c-4.52,3.13-8.22,10.19-8.22,15.69v34c0,5.5,3.79,12.43,8.42,15.4l22.16,14.21c4.63,3,8.42,9.9,8.42,15.4v34c0,5.5-3.66,12.62-8.12,15.83l-22.75,16.34c-4.47,3.21-8.12,10.33-8.12,15.83v38c0,5.5,3.83,12.36,8.52,15.24l22,13.52c4.68,2.88,8.52,9.74,8.52,15.24v38c0,5.5-3.82,12.38-8.48,15.3l-23,14.4c-4.66,2.91-8.48,9.8-8.48,15.3v36c0,5.5,3.73,12.52,8.29,15.59l23.42,15.81c4.56,3.08,8.29,10.09,8.29,15.59v34c0,5.5-3.66,12.62-8.14,15.81l-25.73,18.38c-4.48,3.2-8.14,10.31-8.14,15.81v35c0,5.5,3.67,12.61,8.15,15.79l21.7,15.42c4.48,3.19,8.15,10.29,8.15,15.79v28c0,5.5-3.44,12.9-7.65,16.44l-22.7,19.12c-4.21,3.54-7.65,10.94-7.65,16.44v36c0,5.5,3.71,12.54,8.25,15.65l21.49,14.71c4.54,3.11,8.25,10.15,8.25,15.65v35c0,5.5-3.82,12.38-8.48,15.3l-23,14.4c-4.66,2.91-8.48,9.8-8.48,15.3v38c0,5.5,3.8,12.4,8.45,15.34l21.09,13.32c4.65,2.94,8.45,9.84,8.45,15.34v38c0,5.5-3.85,12.33-8.56,15.18l-20.89,12.64c-4.71,2.85-8.56,9.68-8.56,15.18v37c0,5.5,3.67,12.61,8.15,15.79l21.7,15.42c4.48,3.19,8.15,10.29,8.15,15.79v32c0,5.5-3.61,12.69-8,16l-23,17.07c-4.41,3.28-8,10.47-8,16v34a10,10,0,0,0,10,10h1287a10,10,0,0,0,10-10V1635a123.34,123.34,0,0,0-1.94-19.81l-69.12-349.38a46.82,46.82,0,0,0-8.32-17.51L4276.88,713.7a11,11,0,0,0-14.54-1.92l-7.68,5.44a13.33,13.33,0,0,1-15.68-.81l-107-93.81a9.08,9.08,0,0,1-.33-13.54l104.62-101.1a9.27,9.27,0,0,0-.21-13.68l-40.2-36.55a40.53,40.53,0,0,0-17.25-8.43l-177.29-30.6a54.1,54.1,0,0,1-18.08-7.39L3746.72,247.69A37.68,37.68,0,0,0,3728.5,242h-235a10,10,0,0,0-10,10Z"/><path class="cls-2" d="M3483.5,323v60a10,10,0,0,0,10,10h34a10,10,0,0,1,10,10v65c0,5.5-3.79,12.43-8.42,15.4l-22.16,14.21c-4.63,3-8.42,9.9-8.42,15.4v34c0,5.5,3.7,12.56,8.22,15.69l22.56,15.62c4.52,3.13,8.22,10.19,8.22,15.69v39c0,5.5-3.7,12.56-8.22,15.69l-22.56,15.62c-4.52,3.13-8.22,10.19-8.22,15.69v34c0,5.5,3.79,12.43,8.42,15.4l22.16,14.21c4.63,3,8.42,9.9,8.42,15.4v34c0,5.5-3.66,12.62-8.12,15.83l-22.75,16.34c-4.47,3.21-8.12,10.33-8.12,15.83v38c0,5.5,3.83,12.36,8.52,15.24l22,13.52c4.68,2.88,8.52,9.74,8.52,15.24v38c0,5.5-3.82,12.38-8.48,15.3l-23,14.4c-4.66,2.91-8.48,9.8-8.48,15.3v36c0,5.5,3.73,12.52,8.29,15.59l23.42,15.81c4.56,3.08,8.29,10.09,8.29,15.59v34c0,5.5-3.66,12.62-8.14,15.81l-25.73,18.38c-4.48,3.2-8.14,10.31-8.14,15.81v35c0,5.5,3.67,12.61,8.15,15.79l21.7,15.42c4.48,3.19,8.15,10.29,8.15,15.79v28c0,5.5-3.44,12.9-7.65,16.44l-22.7,19.12c-4.21,3.54-7.65,10.94-7.65,16.44v36c0,5.5,3.71,12.54,8.25,15.65l21.49,14.71c4.54,3.11,8.25,10.15,8.25,15.65v35c0,5.5-3.82,12.38-8.48,15.3l-23,14.4c-4.66,2.91-8.48,9.8-8.48,15.3v38c0,5.5,3.8,12.4,8.45,15.34l21.09,13.32c4.65,2.94,8.45,9.84,8.45,15.34v38c0,5.5-3.85,12.33-8.56,15.18l-20.89,12.64c-4.71,2.85-8.56,9.68-8.56,15.18v37c0,5.5,3.67,12.61,8.15,15.79l21.7,15.42c4.48,3.19,8.15,10.29,8.15,15.79v32c0,5.5-3.61,12.69-8,16l-23,17.07c-4.41,3.28-8,10.47-8,16v34a10,10,0,0,0,10,10h1287a10,10,0,0,0,10-10V1635a123.34,123.34,0,0,0-1.94-19.81l-69.12-349.38a46.82,46.82,0,0,0-8.32-17.51L4276.88,713.7a11,11,0,0,0-14.54-1.92l-7.68,5.44a13.33,13.33,0,0,1-15.68-.81l-107-93.81a9.08,9.08,0,0,1-.33-13.54l104.62-101.1a9.27,9.27,0,0,0-.21-13.68l-40.2-36.55a40.53,40.53,0,0,0-17.25-8.43l-177.29-30.6a54.1,54.1,0,0,1-18.08-7.39L3746.72,247.69A37.68,37.68,0,0,0,3728.5,242h-235a10,10,0,0,0-10,10Z"/><path class="cls-3" d="M4170.39,294.21c-1.31-5.34,2.11-9.71,7.61-9.71h463c5.5,0,12.83,3.5,16.29,7.77l51.41,63.46A32.94,32.94,0,0,1,4715,373.5v54a10,10,0,0,1-10,10H4554c-5.5,0-13.18,3.18-17.07,7.07l-11.36,11.36c-3.89,3.89-11.57,7.07-17.07,7.07H4507c-5.5,0-13.18-3.18-17.07-7.07l-24.61-24.61c-3.89-3.89-11.57-7.07-17.07-7.07H4319c-5.5,0-13.18,3.18-17.07,7.07l-25,25c-3.89,3.89-10.19,7.07-14,7.07s-10.12-3.18-14-7.07l-14.3-14.3c-3.89-3.89-11.57-7.07-17.07-7.07H4215a13.44,13.44,0,0,1-12.39-9.71Z"/><path class="cls-4" d="M4170.39,294.21c-1.31-5.34,2.11-9.71,7.61-9.71h463c5.5,0,12.83,3.5,16.29,7.77l51.41,63.46A32.94,32.94,0,0,1,4715,373.5v54a10,10,0,0,1-10,10H4554c-5.5,0-13.18,3.18-17.07,7.07l-11.36,11.36c-3.89,3.89-11.57,7.07-17.07,7.07H4507c-5.5,0-13.18-3.18-17.07-7.07l-24.61-24.61c-3.89-3.89-11.57-7.07-17.07-7.07H4319c-5.5,0-13.18,3.18-17.07,7.07l-25,25c-3.89,3.89-10.19,7.07-14,7.07s-10.12-3.18-14-7.07l-14.3-14.3c-3.89-3.89-11.57-7.07-17.07-7.07H4215a13.44,13.44,0,0,1-12.39-9.71Z"/></g><g id="subpanels"><rect class="cls-3" x="313.5" y="1542" width="199" height="261" rx="10" ry="10"/><rect class="cls-5" x="313.5" y="1542" width="199" height="261" rx="10" ry="10"/><path class="cls-3" d="M466.88,1047.92l12.68-15.46L564.5,928.87a10.6,10.6,0,0,1,14.36-1.75s.51.38,6.14.38a19,19,0,0,0,19-19c0-7-2.31-9.29-2.31-9.29a11.31,11.31,0,0,1-.73-14.81l2.19-2.67a78.3,78.3,0,0,1,14.71-13.2l9.26-6.06A39.58,39.58,0,0,1,645.5,857h28a10,10,0,0,1,10,10v48a10,10,0,0,1-10,10h-50a10,10,0,0,0-10,10v46a10,10,0,0,0,10,10h50a10,10,0,0,1,10,10v15a10,10,0,0,0,10,10H827.22a8.74,8.74,0,0,1,8.87,9.94s-1.09,9.54-1.09,19.56c0,107.7,87.3,195,195,195h1l10,0,188.5.45a10.06,10.06,0,0,1,10,10v16a10,10,0,0,1-10,10h-240a10,10,0,0,0-10,10v235a10,10,0,0,0,10,10h232a34.81,34.81,0,0,1,18,6l13.07,9.91a34.81,34.81,0,0,0,18,6h169a10,10,0,0,1,10,10v256a10,10,0,0,1-10,10H1339c-5.5,0-10-.15-10-.33v-.17a19,19,0,0,0-38,0v.17c0,.18-4.47.33-10,.33H1171c-5.5,0-10-.15-10-.33v-.17a19,19,0,0,0-38,0v.17c0,.18-4.47.33-10,.33H1004c-5.5,0-10-.15-10-.33v-.17a19,19,0,0,0-38,0v.17c0,.18-4.47.33-10,.33H836c-5.5,0-10-.15-10-.33v-.17a19,19,0,0,0-38,0v.17c0,.18-4.47.33-10,.33H669c-5.5,0-10-.15-10-.33v-.17a19,19,0,0,0-38,0v.17c0,.18-4.47.33-10,.33H529.5c-5.5,0-10-3.15-10-7V1545a10,10,0,0,0-10-10h-257a8.12,8.12,0,0,1-8.26-9.85l3.25-18.43c1-5.42,3.14-9.57,4.86-9.22H254a19,19,0,0,0,19-19c0-9.88-8.34-14.26-8.34-14.26a14.61,14.61,0,0,1-7.12-14.5L275.68,1347c1-5.42,2.8-9.69,4.1-9.5H281a19,19,0,0,0,19-19,16.29,16.29,0,0,0-7.34-13.72,15.4,15.4,0,0,1-6.91-14.87l3-17.07a45.31,45.31,0,0,1,8.08-17.58l23.47-28.62c3.49-4.25,9.78-5.67,14-3.15H339a19,19,0,0,0,19-19c0-6.07-.93-7.21-.93-7.21a12.73,12.73,0,0,1,0-15.46l85.78-104.6,12.68-15.46Z"/><path class="cls-5" d="M466.88,1047.92l12.68-15.46L564.5,928.87a10.6,10.6,0,0,1,14.36-1.75s.51.38,6.14.38a19,19,0,0,0,19-19c0-7-2.31-9.29-2.31-9.29a11.31,11.31,0,0,1-.73-14.81l2.19-2.67a78.3,78.3,0,0,1,14.71-13.2l9.26-6.06A39.58,39.58,0,0,1,645.5,857h28a10,10,0,0,1,10,10v48a10,10,0,0,1-10,10h-50a10,10,0,0,0-10,10v46a10,10,0,0,0,10,10h50a10,10,0,0,1,10,10v15a10,10,0,0,0,10,10H827.22a8.74,8.74,0,0,1,8.87,9.94s-1.09,9.54-1.09,19.56c0,107.7,87.3,195,195,195h1l10,0,188.5.45a10.06,10.06,0,0,1,10,10v16a10,10,0,0,1-10,10h-240a10,10,0,0,0-10,10v235a10,10,0,0,0,10,10h232a34.81,34.81,0,0,1,18,6l13.07,9.91a34.81,34.81,0,0,0,18,6h169a10,10,0,0,1,10,10v256a10,10,0,0,1-10,10H1339c-5.5,0-10-.15-10-.33v-.17a19,19,0,0,0-38,0v.17c0,.18-4.47.33-10,.33H1171c-5.5,0-10-.15-10-.33v-.17a19,19,0,0,0-38,0v.17c0,.18-4.47.33-10,.33H1004c-5.5,0-10-.15-10-.33v-.17a19,19,0,0,0-38,0v.17c0,.18-4.47.33-10,.33H836c-5.5,0-10-.15-10-.33v-.17a19,19,0,0,0-38,0v.17c0,.18-4.47.33-10,.33H669c-5.5,0-10-.15-10-.33v-.17a19,19,0,0,0-38,0v.17c0,.18-4.47.33-10,.33H529.5c-5.5,0-10-3.15-10-7V1545a10,10,0,0,0-10-10h-257a8.12,8.12,0,0,1-8.26-9.85l3.25-18.43c1-5.42,3.14-9.57,4.86-9.22H254a19,19,0,0,0,19-19c0-9.88-8.34-14.26-8.34-14.26a14.61,14.61,0,0,1-7.12-14.5L275.68,1347c1-5.42,2.8-9.69,4.1-9.5H281a19,19,0,0,0,19-19,16.29,16.29,0,0,0-7.34-13.72,15.4,15.4,0,0,1-6.91-14.87l3-17.07a45.31,45.31,0,0,1,8.08-17.58l23.47-28.62c3.49-4.25,9.78-5.67,14-3.15H339a19,19,0,0,0,19-19c0-6.07-.93-7.21-.93-7.21a12.73,12.73,0,0,1,0-15.46l85.78-104.6,12.68-15.46Z"/><rect class="cls-3" x="690" y="883.5" width="133" height="126" rx="10" ry="10"/><rect class="cls-5" x="690" y="883.5" width="133" height="126" rx="10" ry="10"/><path class="cls-3" d="M690,966.67v42.83a10,10,0,0,0,10,10H813a10,10,0,0,0,10-10v-43"/><path class="cls-5" d="M690,966.67v42.83a10,10,0,0,0,10,10H813a10,10,0,0,0,10-10v-43"/><circle class="cls-6" cx="1033" cy="1053.5" r="190"/><circle class="cls-6" cx="1774" cy="623.5" r="190"/><path class="cls-6" d="M815,548.5c1.65,0,3-4.5,3-10v-55c0-5.5,0-10-6-10a.73.73,0,0,1-.5-.17,7,7,0,0,1-5.5-6.83c0-3.87,3-6,7-7l81.2-17a7.86,7.86,0,0,1,9.8,8v68c0,5.5-3.18,13.18-7.07,17.07l-49.86,49.86a10,10,0,0,1-14.14,0l-24.41-24.56A7,7,0,0,1,813,548.5Z"/><path class="cls-3" d="M1009,448.5h155c5.5,0,13.37-3,17.48-6.64L1202,423.64c4.11-3.65,12-6.64,17.48-6.64h1.5c5.5,0,13.38,3,17.52,6.6l17.72,15.56c4.13,3.63,12,6.6,17.52,6.6H1419a10,10,0,0,1,10,10V832.5a10,10,0,0,1-10,10h-89c-5.5,0-12.14,2.14-14.75,4.75S1306,852,1300.5,852H1134c-5.5,0-11.63-1.63-13.62-3.62s-8.12-3.62-13.62-3.62H929a10,10,0,0,1-10-10V619.5a10,10,0,0,0-10-10H885c-5.5,0-13.26-2.14-17.25-4.75s-7.7-8.91-8.25-14,2.18-12.43,6.07-16.32l22.27-22.27L902,538l8.19-8.19c3.89-3.89,7.07-11.57,7.07-17.07V458.5a10,10,0,0,1,10-10Z"/><path class="cls-5" d="M1009,448.5h155c5.5,0,13.37-3,17.48-6.64L1202,423.64c4.11-3.65,12-6.64,17.48-6.64h1.5c5.5,0,13.38,3,17.52,6.6l17.72,15.56c4.13,3.63,12,6.6,17.52,6.6H1419a10,10,0,0,1,10,10V832.5a10,10,0,0,1-10,10h-89c-5.5,0-12.14,2.14-14.75,4.75S1306,852,1300.5,852H1134c-5.5,0-11.63-1.63-13.62-3.62s-8.12-3.62-13.62-3.62H929a10,10,0,0,1-10-10V619.5a10,10,0,0,0-10-10H885c-5.5,0-13.26-2.14-17.25-4.75s-7.7-8.91-8.25-14,2.18-12.43,6.07-16.32l22.27-22.27L902,538l8.19-8.19c3.89-3.89,7.07-11.57,7.07-17.07V458.5a10,10,0,0,1,10-10Z"/><rect class="cls-3" x="1275" y="1059.5" width="125" height="184" rx="10" ry="10"/><rect class="cls-5" x="1275" y="1059.5" width="125" height="184" rx="10" ry="10"/><path class="cls-6" d="M1289,1264.5h145a10,10,0,0,1,10,10v274a10,10,0,0,1-10,10H1273.17c-5.5,0-15-9.5-15-15v-269a10,10,0,0,1,10-10Z"/><path class="cls-3" d="M1634,1282.5h307a10,10,0,0,1,10,10v182c0,5.5-3.28,13.08-7.28,16.86l-362.44,341.29c-4,3.77-11.78,6.86-17.28,6.86h-28a10,10,0,0,1-10-10v-43a10,10,0,0,1,10-10h59a10,10,0,0,0,10-10v-46a10,10,0,0,0-10-10h-59a10,10,0,0,1-10-10v-34a10,10,0,0,1,10-10h175a10,10,0,0,0,10-10v-46a10,10,0,0,0-10-10H1536a10,10,0,0,1-10-10v-51a10,10,0,0,1,10-10h291a10,10,0,0,0,10-10v-46a10,10,0,0,0-10-10H1536a10,10,0,0,1-10-10v-151a10,10,0,0,1,10-10Z"/><path class="cls-5" d="M1634,1282.5h307a10,10,0,0,1,10,10v182c0,5.5-3.28,13.08-7.28,16.86l-362.44,341.29c-4,3.77-11.78,6.86-17.28,6.86h-28a10,10,0,0,1-10-10v-43a10,10,0,0,1,10-10h59a10,10,0,0,0,10-10v-46a10,10,0,0,0-10-10h-59a10,10,0,0,1-10-10v-34a10,10,0,0,1,10-10h175a10,10,0,0,0,10-10v-46a10,10,0,0,0-10-10H1536a10,10,0,0,1-10-10v-51a10,10,0,0,1,10-10h291a10,10,0,0,0,10-10v-46a10,10,0,0,0-10-10H1536a10,10,0,0,1-10-10v-151a10,10,0,0,1,10-10Z"/><rect class="cls-3" x="1575" y="835.5" width="393" height="441" rx="10" ry="10"/><rect class="cls-5" x="1575" y="835.5" width="393" height="441" rx="10" ry="10"/><path class="cls-3" d="M3455,862.5a10,10,0,0,0,10-10v-422a10,10,0,0,0-10-10H3051a10,10,0,0,1-10-10v-23a10,10,0,0,0-10-10h-12a10,10,0,0,0-10,10v8a10,10,0,0,1-10,10H2864c-5.5,0-12-2-14.5-4.5s-9-4.5-14.5-4.5H2174a10,10,0,0,1-10-10v-48a10,10,0,0,0-10-10h-54.5c-21.48,0-44.46-20.37-44.46-20.37-4.12-3.65-12-6.63-17.48-6.63H1955a10,10,0,0,0-10,10v174a10,10,0,0,0,10,10h6a10,10,0,0,1,10,10v266a10,10,0,0,1-10,10h-10a10,10,0,0,0-10,10v24a10,10,0,0,0,10,10h42a10,10,0,0,1,10,10v44a10,10,0,0,1-10,10h-10a10,10,0,0,0-10,10v22a10,10,0,0,0,10,10h9a10,10,0,0,1,10,10v70a10,10,0,0,1-10,10h-9a10,10,0,0,0-10,10v54a10,10,0,0,0,10,10h8a10,10,0,0,1,10,10v155a10,10,0,0,1-10,10h-10a10,10,0,0,0-10,10v22a10,10,0,0,0,10,10h960c5.5,0,11.13-1.12,12.5-2.5s7-2.5,12.5-2.5h42c5.5,0,11.13,1.13,12.5,2.5s7,2.5,12.5,2.5h104c5.5,0,10-2.25,10-5s4.5-5,10-5h291a10,10,0,0,0,10-10v-144a10,10,0,0,0-10-10H3291a10,10,0,0,1-10-10v-28a10,10,0,0,0-10-10H3141a10,10,0,0,0-10,10v30a10,10,0,0,1-10,10H2849a10,10,0,0,1-10-10v-3a10,10,0,0,0-10-10H2517a10,10,0,0,1-10-10v-46a10,10,0,0,1,10-10h313a10,10,0,0,0,10-10v-24a10,10,0,0,1,10-10h270a10,10,0,0,0,10-10v-6a10,10,0,0,0-10-10H2689a10,10,0,0,1-10-10v-114a10,10,0,0,1,10-10h427c5.5,0,10,3.38,10,7.5s4.5,7.5,10,7.5Z"/><path class="cls-5" d="M3455,862.5a10,10,0,0,0,10-10v-422a10,10,0,0,0-10-10H3051a10,10,0,0,1-10-10v-23a10,10,0,0,0-10-10h-12a10,10,0,0,0-10,10v8a10,10,0,0,1-10,10H2864c-5.5,0-12-2-14.5-4.5s-9-4.5-14.5-4.5H2174a10,10,0,0,1-10-10v-48a10,10,0,0,0-10-10h-54.5c-21.48,0-44.46-20.37-44.46-20.37-4.12-3.65-12-6.63-17.48-6.63H1955a10,10,0,0,0-10,10v174a10,10,0,0,0,10,10h6a10,10,0,0,1,10,10v266a10,10,0,0,1-10,10h-10a10,10,0,0,0-10,10v24a10,10,0,0,0,10,10h42a10,10,0,0,1,10,10v44a10,10,0,0,1-10,10h-10a10,10,0,0,0-10,10v22a10,10,0,0,0,10,10h9a10,10,0,0,1,10,10v70a10,10,0,0,1-10,10h-9a10,10,0,0,0-10,10v54a10,10,0,0,0,10,10h8a10,10,0,0,1,10,10v155a10,10,0,0,1-10,10h-10a10,10,0,0,0-10,10v22a10,10,0,0,0,10,10h960c5.5,0,11.13-1.12,12.5-2.5s7-2.5,12.5-2.5h42c5.5,0,11.13,1.13,12.5,2.5s7,2.5,12.5,2.5h104c5.5,0,10-2.25,10-5s4.5-5,10-5h291a10,10,0,0,0,10-10v-144a10,10,0,0,0-10-10H3291a10,10,0,0,1-10-10v-28a10,10,0,0,0-10-10H3141a10,10,0,0,0-10,10v30a10,10,0,0,1-10,10H2849a10,10,0,0,1-10-10v-3a10,10,0,0,0-10-10H2517a10,10,0,0,1-10-10v-46a10,10,0,0,1,10-10h313a10,10,0,0,0,10-10v-24a10,10,0,0,1,10-10h270a10,10,0,0,0,10-10v-6a10,10,0,0,0-10-10H2689a10,10,0,0,1-10-10v-114a10,10,0,0,1,10-10h427c5.5,0,10,3.38,10,7.5s4.5,7.5,10,7.5Z"/><path class="cls-3" d="M3397,1124.5v-62a10,10,0,0,0-10-10H3257a10,10,0,0,0-10,10v13a10,10,0,0,0,10,10h19a10,10,0,0,1,10,10v28a10,10,0,0,0,10,10h91C3392.5,1133.5,3397,1129.45,3397,1124.5Z"/><path class="cls-5" d="M3397,1124.5v-62a10,10,0,0,0-10-10H3257a10,10,0,0,0-10,10v13a10,10,0,0,0,10,10h19a10,10,0,0,1,10,10v28a10,10,0,0,0,10,10h91C3392.5,1133.5,3397,1129.45,3397,1124.5Z"/><path class="cls-3" d="M3410,1706.5H3282c-5.5,0-13.26-3.1-17.25-6.89l-292.51-278.22c-4-3.79-7.25-11.39-7.25-16.89v-79a10,10,0,0,1,10-10h23a10,10,0,0,1,10,10v43a10,10,0,0,0,10,10h117a9.79,9.79,0,0,1,10,9.5,9.79,9.79,0,0,0,10,9.5h295a10,10,0,0,1,10,10v289a10,10,0,0,1-10,10Z"/><path class="cls-5" d="M3410,1706.5H3282c-5.5,0-13.26-3.1-17.25-6.89l-292.51-278.22c-4-3.79-7.25-11.39-7.25-16.89v-79a10,10,0,0,1,10-10h23a10,10,0,0,1,10,10v43a10,10,0,0,0,10,10h117a9.79,9.79,0,0,1,10,9.5,9.79,9.79,0,0,0,10,9.5h295a10,10,0,0,1,10,10v289a10,10,0,0,1-10,10Z"/><path class="cls-3" d="M3584,278.5h164a38.08,38.08,0,0,1,18.26,5.64l261.49,178.71c4.54,3.1,8.26,10.14,8.26,15.64v22a10,10,0,0,1-10,10H3558a10,10,0,0,1-10-10v-212a10,10,0,0,1,10-10Z"/><path class="cls-5" d="M3584,278.5h164a38.08,38.08,0,0,1,18.26,5.64l261.49,178.71c4.54,3.1,8.26,10.14,8.26,15.64v22a10,10,0,0,1-10,10H3558a10,10,0,0,1-10-10v-212a10,10,0,0,1,10-10Z"/><path class="cls-3" d="M3591,912.5a10,10,0,0,1,10-10h192a10,10,0,0,1,10,10v165c0,5.5,2.93,10,6.5,10s6.5,4.5,6.5,10v78c0,5.5-3.18,13.18-7.07,17.07l-21.36,21.36c-3.89,3.89-11.57,7.07-17.07,7.07H3616c-5.5,0-13.18-3.18-17.07-7.07l-16.61-16.61c-3.89-3.89-7.07-11.57-7.07-17.07V1098.5c0-5.5,3.54-10,7.88-10s7.88-4.5,7.88-10Z"/><path class="cls-5" d="M3591,912.5a10,10,0,0,1,10-10h192a10,10,0,0,1,10,10v165c0,5.5,2.93,10,6.5,10s6.5,4.5,6.5,10v78c0,5.5-3.18,13.18-7.07,17.07l-21.36,21.36c-3.89,3.89-11.57,7.07-17.07,7.07H3616c-5.5,0-13.18-3.18-17.07-7.07l-16.61-16.61c-3.89-3.89-7.07-11.57-7.07-17.07V1098.5c0-5.5,3.54-10,7.88-10s7.88-4.5,7.88-10Z"/><path class="cls-3" d="M4455,1149.5c0-5.5,3.18-13.18,7.07-17.07l23.36-23.36c3.89-3.89,9.88-7.07,13.32-7.07s9.43,3.18,13.32,7.07l51.11,51.11c3.89,3.89,3.14,9.26-1.66,11.94l-88.78,49.51c-4.8,2.68-10.76,1.5-13.23-2.63s-4.5-12-4.5-17.5Z"/><path class="cls-5" d="M4455,1149.5c0-5.5,3.18-13.18,7.07-17.07l23.36-23.36c3.89-3.89,9.88-7.07,13.32-7.07s9.43,3.18,13.32,7.07l51.11,51.11c3.89,3.89,3.14,9.26-1.66,11.94l-88.78,49.51c-4.8,2.68-10.76,1.5-13.23-2.63s-4.5-12-4.5-17.5Z"/><path class="cls-3" d="M4772.21,1668.37c-1-5.41-3.35-9.41-5.29-8.87H4765a16,16,0,0,1-16-16,12.91,12.91,0,0,1,6.8-11.88,13.55,13.55,0,0,0,7.36-14l-19.41-108.84c-1-5.41-2.93-9.61-4.37-9.32H4738a16,16,0,0,1-16-16c0-8.3,5.56-11.24,5.56-11.24a14.64,14.64,0,0,0,7.08-14.52l-19.89-111.53c-1-5.41-2.35-9.78-3.07-9.71H4711a16,16,0,0,1-16-16c0-7.59,4-10.16,4-10.16,4.62-3,7.62-9.85,6.65-15.26l-3.88-21.74a43.25,43.25,0,0,0-8.28-17.42l-25.08-29.13c-3.59-4.17-9.53-5.65-13.19-3.3H4651a16,16,0,0,1-16-16v-5.06c3.31-4.09,3.08-10.84-.51-15l-21-24.35a13,13,0,0,0-15.3-2.78l-123.45,67.41a46.52,46.52,0,0,1-18.78,4.79H4310a10,10,0,0,1-10-10v-94a46.73,46.73,0,0,0-4.78-18.79l-15.45-28.43a46.73,46.73,0,0,1-4.78-18.79v-277c0-5.5-3.37-13-7.49-16.62l-97-85.75c-4.12-3.64-12-6.62-17.49-6.62H4027c-5.5,0-10,3.6-10,8s-4.5,8-10,8H3556a10,10,0,0,0-10,10v185a10,10,0,0,0,10,10h271.13a10,10,0,0,1,10,10v152.13c0,5.5-3.18,13.18-7.07,17.07l-1.73,1.73c-3.89,3.89-7.07,11.57-7.07,17.07v86.25c0,5.5-3.18,13.18-7.07,17.07l-28.11,28.11c-3.89,3.89-11.57,7.07-17.07,7.07H3618.5c-5.5,0-13.18-3.18-17.07-7.07l-19.36-19.36c-3.89-3.89-11.57-7.07-17.07-7.07h-14a10,10,0,0,0-10,10v608a10,10,0,0,0,10,10H4702c5.5,0,12.74-3.57,16.08-7.94l59.84-78.12c3.34-4.37,5.29-12.37,4.33-17.78Z"/><path class="cls-5" d="M4772.21,1668.37c-1-5.41-3.35-9.41-5.29-8.87H4765a16,16,0,0,1-16-16,12.91,12.91,0,0,1,6.8-11.88,13.55,13.55,0,0,0,7.36-14l-19.41-108.84c-1-5.41-2.93-9.61-4.37-9.32H4738a16,16,0,0,1-16-16c0-8.3,5.56-11.24,5.56-11.24a14.64,14.64,0,0,0,7.08-14.52l-19.89-111.53c-1-5.41-2.35-9.78-3.07-9.71H4711a16,16,0,0,1-16-16c0-7.59,4-10.16,4-10.16,4.62-3,7.62-9.85,6.65-15.26l-3.88-21.74a43.25,43.25,0,0,0-8.28-17.42l-25.08-29.13c-3.59-4.17-9.53-5.65-13.19-3.3H4651a16,16,0,0,1-16-16v-5.06c3.31-4.09,3.08-10.84-.51-15l-21-24.35a13,13,0,0,0-15.3-2.78l-123.45,67.41a46.52,46.52,0,0,1-18.78,4.79H4310a10,10,0,0,1-10-10v-94a46.73,46.73,0,0,0-4.78-18.79l-15.45-28.43a46.73,46.73,0,0,1-4.78-18.79v-277c0-5.5-3.37-13-7.49-16.62l-97-85.75c-4.12-3.64-12-6.62-17.49-6.62H4027c-5.5,0-10,3.6-10,8s-4.5,8-10,8H3556a10,10,0,0,0-10,10v185a10,10,0,0,0,10,10h271.13a10,10,0,0,1,10,10v152.13c0,5.5-3.18,13.18-7.07,17.07l-1.73,1.73c-3.89,3.89-7.07,11.57-7.07,17.07v86.25c0,5.5-3.18,13.18-7.07,17.07l-28.11,28.11c-3.89,3.89-11.57,7.07-17.07,7.07H3618.5c-5.5,0-13.18-3.18-17.07-7.07l-19.36-19.36c-3.89-3.89-11.57-7.07-17.07-7.07h-14a10,10,0,0,0-10,10v608a10,10,0,0,0,10,10H4702c5.5,0,12.74-3.57,16.08-7.94l59.84-78.12c3.34-4.37,5.29-12.37,4.33-17.78Z"/><rect class="cls-3" x="3556.5" y="516" width="456" height="170" rx="10" ry="10"/><rect class="cls-7" x="3556.5" y="516" width="456" height="170" rx="10" ry="10"/><rect class="cls-3" x="3266.5" y="870" width="188" height="170" rx="10" ry="10"/><rect class="cls-7" x="3266.5" y="870" width="188" height="170" rx="10" ry="10"/><rect class="cls-3" x="3135.5" y="870" width="117" height="170" rx="10" ry="10"/><rect class="cls-7" x="3135.5" y="870" width="117" height="170" rx="10" ry="10"/><rect class="cls-3" x="2175.5" y="213" width="328" height="173" rx="10" ry="10"/><rect class="cls-7" x="2175.5" y="213" width="328" height="173" rx="10" ry="10"/><rect class="cls-3" x="2512.5" y="213" width="328" height="173" rx="10" ry="10"/><rect class="cls-7" x="2512.5" y="213" width="328" height="173" rx="10" ry="10"/><rect class="cls-8" x="1327" y="1290.5" width="49" height="242" rx="12.5" ry="12.5"/></g><g id="panels"><path class="cls-9" d="M3852.5,888.5a10,10,0,0,1,10-10h162a39.88,39.88,0,0,1,18.39,5.44l74.22,48.12c4.61,3,8.39,9.94,8.39,15.44v75a10,10,0,0,1-10,10h-66a10,10,0,0,0-10,10v9a10,10,0,0,1-10,10h-167a10,10,0,0,1-10-10v-47a10,10,0,0,1,10-10h166a10,10,0,0,0,10-10v-29a10,10,0,0,0-10-10h-166a10,10,0,0,1-10-10Z"/><path class="cls-10" d="M3852.5,888.5a10,10,0,0,1,10-10h162a39.88,39.88,0,0,1,18.39,5.44l74.22,48.12c4.61,3,8.39,9.94,8.39,15.44v75a10,10,0,0,1-10,10h-66a10,10,0,0,0-10,10v9a10,10,0,0,1-10,10h-167a10,10,0,0,1-10-10v-47a10,10,0,0,1,10-10h166a10,10,0,0,0,10-10v-29a10,10,0,0,0-10-10h-166a10,10,0,0,1-10-10Z"/><path class="cls-9" d="M4321,1470.5a10,10,0,0,1,10-10h358a12.24,12.24,0,0,1,11.63,9.87l25.73,155.27a8.22,8.22,0,0,1-8.37,9.87H4575a10,10,0,0,0-10,10v2a10,10,0,0,1-10,10H4331a10,10,0,0,1-10-10v-46a10,10,0,0,1,10-10h225a10,10,0,0,0,10-10v-45a10,10,0,0,0-10-10H4331a10,10,0,0,1-10-10Z"/><path class="cls-10" d="M4321,1470.5a10,10,0,0,1,10-10h358a12.24,12.24,0,0,1,11.63,9.87l25.73,155.27a8.22,8.22,0,0,1-8.37,9.87H4575a10,10,0,0,0-10,10v2a10,10,0,0,1-10,10H4331a10,10,0,0,1-10-10v-46a10,10,0,0,1,10-10h225a10,10,0,0,0,10-10v-45a10,10,0,0,0-10-10H4331a10,10,0,0,1-10-10Z"/><path class="cls-9" d="M4240.5,1591a10.06,10.06,0,0,1,10,10v46a10,10,0,0,1-10,10h-347c-5.5,0-12.25,2.25-15,5s-9.5,5-15,5h-70a10,10,0,0,1-10-10v-68a10,10,0,0,1,10-10h70c5.5,0,12.47,2.47,15.5,5.5s10,5.51,15.5,5.53Z"/><path class="cls-10" d="M4240.5,1591a10.06,10.06,0,0,1,10,10v46a10,10,0,0,1-10,10h-347c-5.5,0-12.25,2.25-15,5s-9.5,5-15,5h-70a10,10,0,0,1-10-10v-68a10,10,0,0,1,10-10h70c5.5,0,12.47,2.47,15.5,5.5s10,5.51,15.5,5.53Z"/><path class="cls-9" d="M4272.5,1716a10.06,10.06,0,0,1,10,10v46a10,10,0,0,1-10,10h-379c-5.5,0-12.25,2.25-15,5s-9.5,5-15,5h-70a10,10,0,0,1-10-10v-68a10,10,0,0,1,10-10h70c5.5,0,12.47,2.47,15.5,5.5s10,5.51,15.5,5.53Z"/><path class="cls-10" d="M4272.5,1716a10.06,10.06,0,0,1,10,10v46a10,10,0,0,1-10,10h-379c-5.5,0-12.25,2.25-15,5s-9.5,5-15,5h-70a10,10,0,0,1-10-10v-68a10,10,0,0,1,10-10h70c5.5,0,12.47,2.47,15.5,5.5s10,5.51,15.5,5.53Z"/><rect class="cls-9" x="4320.5" y="1716" width="244" height="66" rx="10" ry="10"/><rect class="cls-10" x="4320.5" y="1716" width="244" height="66" rx="10" ry="10"/><rect class="cls-9" x="3556.5" y="1716" width="181" height="66" rx="10" ry="10"/><rect class="cls-10" x="3556.5" y="1716" width="181" height="66" rx="10" ry="10"/><rect class="cls-9" x="3556.5" y="1460" width="185" height="66" rx="10" ry="10"/><rect class="cls-10" x="3556.5" y="1460" width="185" height="66" rx="10" ry="10"/><rect class="cls-9" x="3788.5" y="1460" width="417" height="66" rx="10" ry="10"/><rect class="cls-10" x="3788.5" y="1460" width="417" height="66" rx="10" ry="10"/><rect class="cls-9" x="3556.5" y="1331" width="185" height="66" rx="10" ry="10"/><rect class="cls-10" x="3556.5" y="1331" width="185" height="66" rx="10" ry="10"/><rect class="cls-9" x="3268.5" y="1604" width="184" height="66" rx="10" ry="10"/><rect class="cls-10" x="3268.5" y="1604" width="184" height="66" rx="10" ry="10"/><rect class="cls-9" x="2511.5" y="1189" width="731" height="66" rx="10" ry="10"/><rect class="cls-10" x="2511.5" y="1189" width="731" height="66" rx="10" ry="10"/><rect class="cls-9" x="2008.5" y="1189" width="475" height="66" rx="10" ry="10"/><rect class="cls-10" x="2008.5" y="1189" width="475" height="66" rx="10" ry="10"/><rect class="cls-9" x="2008.5" y="1016" width="475" height="66" rx="10" ry="10"/><rect class="cls-10" x="2008.5" y="1016" width="475" height="66" rx="10" ry="10"/><rect class="cls-9" x="2008.5" y="846" width="475" height="66" rx="10" ry="10"/><rect class="cls-10" x="2008.5" y="846" width="475" height="66" rx="10" ry="10"/><rect class="cls-9" x="2012.5" y="447" width="417" height="66" rx="10" ry="10"/><rect class="cls-10" x="2012.5" y="447" width="417" height="66" rx="10" ry="10"/><rect class="cls-9" x="2240.5" y="643" width="243" height="66" rx="10" ry="10"/><rect class="cls-10" x="2240.5" y="643" width="243" height="66" rx="10" ry="10"/><rect class="cls-9" x="2676.5" y="723" width="764" height="66" rx="10" ry="10"/><rect class="cls-10" x="2676.5" y="723" width="764" height="66" rx="10" ry="10"/><rect class="cls-9" x="2676.5" y="604" width="301" height="66" rx="10" ry="10"/><rect class="cls-10" x="2676.5" y="604" width="301" height="66" rx="10" ry="10"/><rect class="cls-9" x="2802.5" y="475" width="186" height="66" rx="10" ry="10"/><rect class="cls-10" x="2802.5" y="475" width="186" height="66" rx="10" ry="10"/><rect class="cls-9" x="3784.5" y="1331" width="485" height="66" rx="10" ry="10"/><rect class="cls-10" x="3784.5" y="1331" width="485" height="66" rx="10" ry="10"/><rect class="cls-9" x="3853" y="1156" width="417" height="66" rx="10" ry="10"/><rect class="cls-10" x="3853" y="1156" width="417" height="66" rx="10" ry="10"/><rect class="cls-9" x="4228.5" y="330" width="419" height="66" rx="10" ry="10"/><rect class="cls-10" x="4228.5" y="330" width="419" height="66" rx="10" ry="10"/><rect class="cls-9" x="3571.5" y="776" width="254" height="62" rx="10" ry="10"/><rect class="cls-10" x="3571.5" y="776" width="254" height="62" rx="10" ry="10"/><rect class="cls-9" x="3556.5" y="1591" width="127" height="66" rx="10" ry="10"/><rect class="cls-10" x="3556.5" y="1591" width="127" height="66" rx="10" ry="10"/><rect class="cls-11" x="3846.5" y="740" width="314" height="38" rx="19" ry="19"/><rect class="cls-11" x="3847" y="804.5" width="190" height="38" rx="19" ry="19"/><rect class="cls-11" x="4023" y="1090.5" width="192" height="38" rx="19" ry="19"/><rect class="cls-11" x="3550.5" y="1259" width="139" height="38" rx="19" ry="19"/><rect class="cls-11" x="2240.5" y="952" width="246" height="38" rx="19" ry="19"/><rect class="cls-11" x="2240.5" y="777" width="246" height="38" rx="19" ry="19"/><rect class="cls-11" x="2240.5" y="572" width="246" height="38" rx="19" ry="19"/><rect class="cls-11" x="2125.5" y="1120" width="357" height="38" rx="19" ry="19"/><rect class="cls-11" x="2524.5" y="984" width="77" height="38" rx="19" ry="19"/><rect class="cls-11" x="3849.5" y="1259" width="365" height="38" rx="19" ry="19"/><rect class="cls-9" x="3270.5" y="1179" width="134" height="86" rx="10" ry="10"/><rect class="cls-10" x="3270.5" y="1179" width="134" height="86" rx="10" ry="10"/><rect class="cls-9" x="2996.5" y="508" width="456" height="170" rx="10" ry="10"/><rect class="cls-10" x="2996.5" y="508" width="456" height="170" rx="10" ry="10"/><rect class="cls-9" x="1982.5" y="596" width="228" height="170" rx="10" ry="10"/><rect class="cls-10" x="1982.5" y="596" width="228" height="170" rx="10" ry="10"/><rect class="cls-9" x="2000.5" y="325" width="41" height="77" rx="10" ry="10"/><rect class="cls-10" x="2000.5" y="325" width="41" height="77" rx="10" ry="10"/><rect class="cls-9" x="1090.5" y="464" width="246" height="288" rx="10" ry="10"/><rect class="cls-10" x="1090.5" y="464" width="246" height="288" rx="10" ry="10"/><rect class="cls-9" x="932.5" y="622" width="69" height="66" rx="10" ry="10"/><rect class="cls-10" x="932.5" y="622" width="69" height="66" rx="10" ry="10"/><rect class="cls-12" x="1123.5" y="771" width="181" height="50" rx="16" ry="16"/><line class="cls-11" x1="1127.12" y1="776.89" x2="1300.88" y2="776.89"/><line class="cls-11" x1="1127.12" y1="815.89" x2="1300.88" y2="815.89"/><rect class="cls-13" x="2553.5" y="480" width="227" height="56" rx="10" ry="10"/><rect class="cls-10" x="2553.5" y="480" width="227" height="56" rx="10" ry="10"/><rect class="cls-9" x="1076.5" y="1611" width="359" height="66" rx="10" ry="10"/><rect class="cls-10" x="1076.5" y="1611" width="359" height="66" rx="10" ry="10"/><rect class="cls-9" x="1570.5" y="1327" width="359" height="66" rx="10" ry="10"/><rect class="cls-10" x="1570.5" y="1327" width="359" height="66" rx="10" ry="10"/><rect class="cls-9" x="288.5" y="328" width="414" height="66" rx="10" ry="10"/><rect class="cls-10" x="288.5" y="328" width="414" height="66" rx="10" ry="10"/><rect class="cls-9" x="688.5" y="1611" width="359" height="66" rx="10" ry="10"/><rect class="cls-10" x="688.5" y="1611" width="359" height="66" rx="10" ry="10"/><rect class="cls-9" x="746.5" y="1477" width="204" height="66" rx="10" ry="10"/><rect class="cls-10" x="746.5" y="1477" width="204" height="66" rx="10" ry="10"/><rect class="cls-9" x="342.5" y="1438" width="185" height="66" rx="10" ry="10"/><rect class="cls-10" x="342.5" y="1438" width="185" height="66" rx="10" ry="10"/><rect class="cls-9" x="355.5" y="1327" width="243" height="66" rx="10" ry="10"/><rect class="cls-10" x="355.5" y="1327" width="243" height="66" rx="10" ry="10"/><rect class="cls-9" x="415.5" y="1185" width="417" height="66" rx="10" ry="10"/><rect class="cls-10" x="415.5" y="1185" width="417" height="66" rx="10" ry="10"/><rect class="cls-9" x="669.5" y="1327" width="127" height="66" rx="10" ry="10"/><rect class="cls-10" x="669.5" y="1327" width="127" height="66" rx="10" ry="10"/><rect class="cls-9" x="515.5" y="1061" width="127" height="66" rx="10" ry="10"/><rect class="cls-10" x="515.5" y="1061" width="127" height="66" rx="10" ry="10"/><rect class="cls-9" x="695.5" y="1061" width="127" height="66" rx="10" ry="10"/><rect class="cls-10" x="695.5" y="1061" width="127" height="66" rx="10" ry="10"/><rect class="cls-9" x="545.5" y="1720" width="417" height="66" rx="10" ry="10"/><rect class="cls-10" x="545.5" y="1720" width="417" height="66" rx="10" ry="10"/><rect class="cls-9" x="1076.5" y="1720" width="359" height="66" rx="10" ry="10"/><rect class="cls-10" x="1076.5" y="1720" width="359" height="66" rx="10" ry="10"/><path class="cls-9" d="M1054.5,1781a14,14,0,0,0,14-14v-3a14,14,0,0,0-14-14h0c-7.7,0-14-5.4-14-12s6.3-12,14-12h0a14,14,0,0,0,14-14v-1a14,14,0,0,0-14-14h-59a14,14,0,0,0-14,14v56a14,14,0,0,0,14,14Z"/><path class="cls-10" d="M1054.5,1781a14,14,0,0,0,14-14v-3a14,14,0,0,0-14-14h0c-7.7,0-14-5.4-14-12s6.3-12,14-12h0a14,14,0,0,0,14-14v-1a14,14,0,0,0-14-14h-59a14,14,0,0,0-14,14v56a14,14,0,0,0,14,14Z"/><rect class="cls-9" x="552.5" y="1449" width="96" height="114" rx="10" ry="10"/><rect class="cls-10" x="552.5" y="1449" width="96" height="114" rx="10" ry="10"/><rect class="cls-9" x="828.5" y="1291" width="137" height="132" rx="10" ry="10"/><rect class="cls-10" x="828.5" y="1291" width="137" height="132" rx="10" ry="10"/><rect class="cls-9" x="563.5" y="1620" width="56" height="56" rx="10" ry="10"/><rect class="cls-10" x="563.5" y="1620" width="56" height="56" rx="10" ry="10"/><rect class="cls-9" x="669" y="1517.5" width="56" height="56" rx="10" ry="10"/><rect class="cls-10" x="669" y="1517.5" width="56" height="56" rx="10" ry="10"/><rect class="cls-9" x="669" y="1448.5" width="56" height="56" rx="10" ry="10"/><rect class="cls-10" x="669" y="1448.5" width="56" height="56" rx="10" ry="10"/><rect class="cls-9" x="783.5" y="756" width="56" height="56" rx="10" ry="10"/><rect class="cls-10" x="783.5" y="756" width="56" height="56" rx="10" ry="10"/><rect class="cls-9" x="1285.5" y="881" width="94" height="52" rx="10" ry="10"/><rect class="cls-10" x="1285.5" y="881" width="94" height="52" rx="10" ry="10"/><rect class="cls-9" x="1295.5" y="955" width="102" height="48" rx="10" ry="10"/><rect class="cls-10" x="1295.5" y="955" width="102" height="48" rx="10" ry="10"/><circle class="cls-10" cx="1344.5" cy="318" r="88"/><circle class="cls-10" cx="2105.5" cy="262" r="62"/><circle class="cls-10" cx="2757.5" cy="915" r="62"/><circle class="cls-10" cx="2907.5" cy="915" r="62"/><circle class="cls-10" cx="3057.5" cy="915" r="62"/><circle class="cls-10" cx="2908.5" cy="1075" r="62"/><circle class="cls-10" cx="3058.5" cy="1075" r="62"/><circle class="cls-10" cx="4344.5" cy="1026" r="62"/><circle class="cls-10" cx="4368.5" cy="1165" r="62"/><circle class="cls-10" cx="4641.5" cy="1569" r="62"/><rect class="cls-9" x="4253" y="1460.5" width="36" height="36" rx="10" ry="10"/><rect class="cls-10" x="4253" y="1460.5" width="36" height="36" rx="10" ry="10"/><rect class="cls-9" x="4253" y="1525.5" width="36" height="36" rx="10" ry="10"/><rect class="cls-10" x="4253" y="1525.5" width="36" height="36" rx="10" ry="10"/><rect class="cls-9" x="4055.5" y="950" width="56" height="56" rx="10" ry="10"/><rect class="cls-10" x="4055.5" y="950" width="56" height="56" rx="10" ry="10"/></g><g id="details"><circle class="cls-14" cx="4499" cy="1172.5" r="16.5"/><circle class="cls-14" cx="3315" cy="1091.5" r="16.5"/><rect class="cls-15" x="2850.5" y="201" width="153" height="198" rx="10" ry="10"/><circle class="cls-15" cx="2928" cy="298.5" r="18.5"/><path class="cls-15" d="M1347.5,490h64V597c0,9-3,11-11,11h-18c-9,0-11,3-11,9,0,8-7,10-12,10-7,0-12-5-12-15Z"/><line class="cls-16" x1="1347.5" y1="519" x2="1411.5" y2="519"/><line class="cls-16" x1="1389.17" y1="608" x2="1347.5" y2="608"/><rect class="cls-15" x="1347.5" y="667" width="64" height="116"/><polyline class="cls-15" points="1347.5 718 1372.5 718 1372.5 667"/><polyline class="cls-15" points="1390.83 667 1390.83 718 1411.5 718"/><polyline class="cls-15" points="1347.5 743 1372.5 743 1372.5 783"/><polyline class="cls-15" points="1390.83 783 1390.83 743 1411.5 743"/><rect class="cls-15" x="1121.5" y="500" width="181" height="188" rx="10" ry="10"/><rect class="cls-15" x="1125.35" y="504" width="173.3" height="180" rx="10" ry="10"/><line class="cls-15" x1="1134" y1="504" x2="1136" y2="684"/><path class="cls-16" d="M1298.65,632.5c-97.15,0-153.15-83.5-162.15-128.5"/><path class="cls-16" d="M1298.65,649.25C1260.5,642,1157.5,616,1136.5,597"/><path class="cls-16" d="M1298.65,616c-54.15-29-84.15-61-96.15-105"/><path class="cls-16" d="M1264.5,511c3,17,18,40,34.15,57.25L1148.5,653"/><path class="cls-16" d="M1135.28,619.5S1192.5,647,1245.5,648"/><path class="cls-16" d="M1135.52,640.5c17,4.5,39,7.5,53,8.5"/><line class="cls-16" x1="1206.5" y1="652" x2="1298.65" y2="589"/><line class="cls-16" x1="1298.65" y1="556.25" x2="1140.5" y2="631"/><path class="cls-16" d="M1298.65,545.75S1167.5,601,1138.5,605"/><path class="cls-16" d="M1298.65,538.25S1192.5,574,1140.5,582"/><path class="cls-16" d="M1298.65,534.5S1200.5,560,1140.5,561"/><path class="cls-16" d="M1298.65,529c-39.15,10-111.15,18-147.15,5"/><path class="cls-16" d="M1298.65,518s-128.15,21-160.15,22"/><rect class="cls-15" x="1135" y="718.5" width="161" height="25" rx="10" ry="10"/><line class="cls-16" x1="1153.5" y1="718.5" x2="1153.5" y2="743.5"/><line class="cls-16" x1="1190.5" y1="718.5" x2="1190.5" y2="743.5"/><line class="cls-16" x1="1230.5" y1="718.5" x2="1230.5" y2="743.5"/><line class="cls-16" x1="1278.5" y1="718.5" x2="1278.5" y2="743.5"/><rect class="cls-17" x="1606" y="855.5" width="142" height="240" rx="10" ry="10"/><rect class="cls-16" x="1606" y="855.5" width="142" height="240" rx="10" ry="10"/><rect class="cls-13" x="1797" y="855.5" width="142" height="240" rx="10" ry="10"/><rect class="cls-16" x="1797" y="855.5" width="142" height="240" rx="10" ry="10"/><line class="cls-18" x1="1347.5" y1="669.5" x2="1372.5" y2="669.5"/><line class="cls-18" x1="1347.5" y1="672.5" x2="1372.5" y2="672.5"/><line class="cls-18" x1="1347.5" y1="675.5" x2="1372.5" y2="675.5"/><line class="cls-18" x1="1347.5" y1="678.5" x2="1372.5" y2="678.5"/><line class="cls-18" x1="1347.5" y1="681.5" x2="1372.5" y2="681.5"/><line class="cls-18" x1="1347.5" y1="684.5" x2="1372.5" y2="684.5"/><line class="cls-18" x1="1347.5" y1="687.5" x2="1372.5" y2="687.5"/><line class="cls-18" x1="1347.5" y1="690.5" x2="1372.5" y2="690.5"/><line class="cls-18" x1="1347.5" y1="693.5" x2="1372.5" y2="693.5"/><line class="cls-18" x1="1347.5" y1="696.5" x2="1372.5" y2="696.5"/><line class="cls-18" x1="1347.5" y1="699.5" x2="1372.5" y2="699.5"/><line class="cls-18" x1="1347.5" y1="702.5" x2="1372.5" y2="702.5"/><line class="cls-18" x1="1347.5" y1="705.5" x2="1372.5" y2="705.5"/><line class="cls-18" x1="1347.5" y1="708.5" x2="1372.5" y2="708.5"/><line class="cls-18" x1="1347.5" y1="711.5" x2="1372.5" y2="711.5"/><line class="cls-18" x1="1347.5" y1="714.5" x2="1372.5" y2="714.5"/><line class="cls-18" x1="1347.5" y1="746.5" x2="1372.5" y2="746.5"/><line class="cls-18" x1="1347.5" y1="749.5" x2="1372.5" y2="749.5"/><line class="cls-18" x1="1347.5" y1="752.5" x2="1372.5" y2="752.5"/><line class="cls-18" x1="1347.5" y1="755.5" x2="1372.5" y2="755.5"/><line class="cls-18" x1="1347.5" y1="758.5" x2="1372.5" y2="758.5"/><line class="cls-18" x1="1347.5" y1="761.5" x2="1372.5" y2="761.5"/><line class="cls-18" x1="1347.5" y1="764.5" x2="1372.5" y2="764.5"/><line class="cls-18" x1="1347.5" y1="767.5" x2="1372.5" y2="767.5"/><line class="cls-18" x1="1347.5" y1="770.5" x2="1372.5" y2="770.5"/><line class="cls-18" x1="1347.5" y1="773.5" x2="1372.5" y2="773.5"/><line class="cls-18" x1="1347.5" y1="776.5" x2="1372.5" y2="776.5"/><line class="cls-18" x1="1347.5" y1="779.5" x2="1372.5" y2="779.5"/><line class="cls-18" x1="1390.5" y1="746.5" x2="1411.5" y2="746.5"/><line class="cls-18" x1="1390.5" y1="749.5" x2="1411.5" y2="749.5"/><line class="cls-18" x1="1390.5" y1="752.5" x2="1411.5" y2="752.5"/><line class="cls-18" x1="1390.5" y1="755.5" x2="1411.5" y2="755.5"/><line class="cls-18" x1="1390.5" y1="758.5" x2="1411.5" y2="758.5"/><line class="cls-18" x1="1390.5" y1="761.5" x2="1411.5" y2="761.5"/><line class="cls-18" x1="1390.5" y1="764.5" x2="1411.5" y2="764.5"/><line class="cls-18" x1="1390.5" y1="767.5" x2="1411.5" y2="767.5"/><line class="cls-18" x1="1390.5" y1="770.5" x2="1411.5" y2="770.5"/><line class="cls-18" x1="1390.5" y1="773.5" x2="1411.5" y2="773.5"/><line class="cls-18" x1="1390.5" y1="776.5" x2="1411.5" y2="776.5"/><line class="cls-18" x1="1390.5" y1="779.5" x2="1411.5" y2="779.5"/><line class="cls-18" x1="1390.5" y1="669.5" x2="1411.5" y2="669.5"/><line class="cls-18" x1="1390.5" y1="672.5" x2="1411.5" y2="672.5"/><line class="cls-18" x1="1390.5" y1="675.5" x2="1411.5" y2="675.5"/><line class="cls-18" x1="1390.5" y1="678.5" x2="1411.5" y2="678.5"/><line class="cls-18" x1="1390.5" y1="681.5" x2="1411.5" y2="681.5"/><line class="cls-18" x1="1390.5" y1="684.5" x2="1411.5" y2="684.5"/><line class="cls-18" x1="1390.5" y1="687.5" x2="1411.5" y2="687.5"/><line class="cls-18" x1="1390.5" y1="690.5" x2="1411.5" y2="690.5"/><line class="cls-18" x1="1390.5" y1="693.5" x2="1411.5" y2="693.5"/><line class="cls-18" x1="1390.5" y1="696.5" x2="1411.5" y2="696.5"/><line class="cls-18" x1="1390.5" y1="699.5" x2="1411.5" y2="699.5"/><line class="cls-18" x1="1390.5" y1="702.5" x2="1411.5" y2="702.5"/><line class="cls-18" x1="1390.5" y1="705.5" x2="1411.5" y2="705.5"/><line class="cls-18" x1="1390.5" y1="708.5" x2="1411.5" y2="708.5"/><line class="cls-18" x1="1390.5" y1="711.5" x2="1411.5" y2="711.5"/><line class="cls-18" x1="1390.5" y1="714.5" x2="1411.5" y2="714.5"/><circle class="cls-14" cx="1013" cy="1737.5" r="16.5"/><circle class="cls-19" cx="364.5" cy="1597" r="36.5"/><circle class="cls-19" cx="364.5" cy="1674" r="36.5"/><circle class="cls-19" cx="364.5" cy="1751" r="36.5"/><rect class="cls-20" x="443.5" y="1572" width="53" height="41"/><rect class="cls-20" x="443.5" y="1649" width="53" height="41"/><rect class="cls-20" x="443.5" y="1726" width="53" height="41"/><path class="cls-16" d="M4434.78,1266.2a77.12,77.12,0,0,0-39.28-10.7h-.5v34a42.79,42.79,0,0,1,22.12,6.13Z"/><path class="cls-16" d="M4352,1332.5h-34c0,.17,0,.33,0,.5a77.43,77.43,0,0,0,36.3,65.63l18.16-29.51A43,43,0,0,1,4352,1332.5Z"/><path class="cls-16" d="M4432.15,1354.14a43.19,43.19,0,0,1-15.31,15.4l17.87,30.3a77.85,77.85,0,0,0,27.84-28Z"/><path class="cls-16" d="M4372.88,1295.63l-17.39-29a77.85,77.85,0,0,0-27.93,29.07l29.69,16.19A43.21,43.21,0,0,1,4372.88,1295.63Z"/><path class="cls-16" d="M4681.28,1655.59,4659,1734.5l79-21.81A82.13,82.13,0,0,0,4681.28,1655.59Z"/><path class="cls-16" d="M4638.45,1655.1a82.13,82.13,0,0,0-58.36,57.12L4659,1734.5Z"/><line class="cls-16" x1="4501" y1="1663.5" x2="4501" y2="1711.5"/><path class="cls-16" d="M3717,359.63a85.94,85.94,0,0,0-74-42.13v86Z"/><line class="cls-16" x1="3643" y1="403.5" x2="3587" y2="371.5"/><line class="cls-16" x1="3360" y1="1545.5" x2="3360" y2="1415.5"/><line class="cls-16" x1="3327.5" y1="1536.79" x2="3392.5" y2="1424.21"/><line class="cls-16" x1="3303.71" y1="1513" x2="3416.29" y2="1448"/><line class="cls-16" x1="3295" y1="1480.5" x2="3425" y2="1480.5"/><line class="cls-16" x1="3303.71" y1="1448" x2="3416.29" y2="1513"/><line class="cls-16" x1="3327.5" y1="1424.21" x2="3392.5" y2="1536.79"/><line class="cls-16" x1="3193" y1="1545.5" x2="3193" y2="1415.5"/><line class="cls-16" x1="3193" y1="1480.5" x2="3225.5" y2="1424.21"/><line class="cls-16" x1="3193" y1="1480.5" x2="3249.29" y2="1448"/><line class="cls-16" x1="3193.5" y1="1480.5" x2="3258" y2="1480.5"/><line class="cls-16" x1="3193" y1="1480.5" x2="3249.29" y2="1513"/><line class="cls-16" x1="3193" y1="1480.5" x2="3225.5" y2="1536.79"/><polyline class="cls-16" points="2588 854.5 2569 915.5 2554 853.5"/><path class="cls-16" d="M2638.87,732.4l8-.48a77,77,0,0,0-104-67.49l2.82,7.49"/><path class="cls-16" d="M2531.73,679.09l-4.43-6.65a77,77,0,0,0-33.83,55.66l8,.87"/><line class="cls-16" x1="1047.28" y1="471.93" x2="1044.71" y2="476.24"/><line class="cls-16" x1="1071.28" y1="496.43" x2="1066.93" y2="498.9"/><line class="cls-16" x1="1080" y1="529.5" x2="1075" y2="529.5"/><line class="cls-16" x1="1071.69" y1="561.84" x2="1067.31" y2="559.43"/><line class="cls-16" x1="1046.5" y1="587.07" x2="1044" y2="582.78"/><path class="cls-16" d="M1038.43,591.5l-1.91-4.65a62,62,0,0,0,1.18-114.22l2-4.6"/><circle class="cls-21" cx="1013" cy="767.5" r="61.5"/><path class="cls-22" d="M1013.5,726a41,41,0,0,1,40,40h16a57,57,0,0,0-56-56Z"/><path class="cls-22" d="M971.53,766a41,41,0,0,1,40-40V710a57,57,0,0,0-56,56Z"/><path class="cls-22" d="M1011.5,808a41,41,0,0,1-40-40h-16a57,57,0,0,0,56,56Z"/><path class="cls-22" d="M1053.47,768a41,41,0,0,1-40,40v16a57,57,0,0,0,56-56Z"/><polygon class="cls-22" points="1012.5 729 1020.5 789 1004.5 789 1012.5 729"/><line class="cls-15" x1="1149.5" y1="684" x2="1149.5" y2="672"/><line class="cls-15" x1="1165.5" y1="684" x2="1165.5" y2="672"/><line class="cls-15" x1="1181.5" y1="684" x2="1181.5" y2="672"/><line class="cls-15" x1="1197.5" y1="684" x2="1197.5" y2="672"/><line class="cls-15" x1="1213.5" y1="684" x2="1213.5" y2="672"/><line class="cls-15" x1="1229.5" y1="684" x2="1229.5" y2="672"/><line class="cls-15" x1="1245.5" y1="684" x2="1245.5" y2="672"/><line class="cls-15" x1="1261.5" y1="684" x2="1261.5" y2="672"/><line class="cls-15" x1="1277.5" y1="684" x2="1277.5" y2="672"/><line class="cls-15" x1="1293.5" y1="682.5" x2="1293.5" y2="672"/><line class="cls-16" x1="1153.17" y1="684" x2="1153.17" y2="680"/><line class="cls-16" x1="1156.17" y1="684" x2="1156.17" y2="680"/><line class="cls-16" x1="1159.17" y1="684" x2="1159.17" y2="680"/><line class="cls-16" x1="1162.17" y1="684" x2="1162.17" y2="680"/><line class="cls-16" x1="1169.17" y1="684" x2="1169.17" y2="680"/><line class="cls-16" x1="1172.17" y1="684" x2="1172.17" y2="680"/><line class="cls-16" x1="1175.17" y1="684" x2="1175.17" y2="680"/><line class="cls-16" x1="1178.17" y1="684" x2="1178.17" y2="680"/><line class="cls-16" x1="1185.17" y1="684" x2="1185.17" y2="680"/><line class="cls-16" x1="1188.17" y1="684" x2="1188.17" y2="680"/><line class="cls-16" x1="1191.17" y1="684" x2="1191.17" y2="680"/><line class="cls-16" x1="1194.17" y1="684" x2="1194.17" y2="680"/><line class="cls-16" x1="1201.17" y1="684" x2="1201.17" y2="680"/><line class="cls-16" x1="1204.17" y1="684" x2="1204.17" y2="680"/><line class="cls-16" x1="1207.17" y1="684" x2="1207.17" y2="680"/><line class="cls-16" x1="1210.17" y1="684" x2="1210.17" y2="680"/><line class="cls-16" x1="1217.17" y1="684" x2="1217.17" y2="680"/><line class="cls-16" x1="1220.17" y1="684" x2="1220.17" y2="680"/><line class="cls-16" x1="1223.17" y1="684" x2="1223.17" y2="680"/><line class="cls-16" x1="1226.17" y1="684" x2="1226.17" y2="680"/><line class="cls-16" x1="1233.17" y1="684" x2="1233.17" y2="680"/><line class="cls-16" x1="1236.17" y1="684" x2="1236.17" y2="680"/><line class="cls-16" x1="1239.17" y1="684" x2="1239.17" y2="680"/><line class="cls-16" x1="1242.17" y1="684" x2="1242.17" y2="680"/><line class="cls-16" x1="1249.17" y1="684" x2="1249.17" y2="680"/><line class="cls-16" x1="1252.17" y1="684" x2="1252.17" y2="680"/><line class="cls-16" x1="1255.17" y1="684" x2="1255.17" y2="680"/><line class="cls-16" x1="1258.17" y1="684" x2="1258.17" y2="680"/><line class="cls-16" x1="1265.17" y1="684" x2="1265.17" y2="680"/><line class="cls-16" x1="1268.17" y1="684" x2="1268.17" y2="680"/><line class="cls-16" x1="1271.17" y1="684" x2="1271.17" y2="680"/><line class="cls-16" x1="1274.17" y1="684" x2="1274.17" y2="680"/><line class="cls-16" x1="1281.17" y1="684" x2="1281.17" y2="680"/><line class="cls-16" x1="1284.17" y1="684" x2="1284.17" y2="680"/><line class="cls-16" x1="1287.17" y1="684" x2="1287.17" y2="680"/><line class="cls-16" x1="1290.17" y1="684" x2="1290.17" y2="680"/><line class="cls-23" x1="1801.5" y1="1054" x2="1932.5" y2="1054"/><line class="cls-23" x1="1801.5" y1="1011" x2="1932.5" y2="1011"/><line class="cls-23" x1="1801.5" y1="968" x2="1932.5" y2="968"/><line class="cls-16" x1="1012.5" y1="594" x2="1012.5" y2="466"/><line class="cls-16" x1="1013" y1="530.21" x2="981" y2="474.79"/><line class="cls-16" x1="956.55" y1="498.9" x2="1013" y2="529.5"/><line class="cls-16" x1="948" y1="529.5" x2="1013" y2="529.5"/><line class="cls-16" x1="980.5" y1="587.07" x2="1013" y2="529.5"/><line class="cls-16" x1="2569" y1="735.5" x2="2631.42" y2="719.77"/><line class="cls-16" x1="2615.74" y1="691.76" x2="2569" y2="735.5"/><line class="cls-16" x1="2589" y1="675.03" x2="2569" y2="735.5"/><line class="cls-16" x1="2554" y1="673.89" x2="2569" y2="735.5"/><line class="cls-16" x1="2524.25" y1="690.75" x2="2569" y2="735.5"/><line class="cls-16" x1="2507.84" y1="718.82" x2="2569" y2="735.5"/><line class="cls-16" x1="4164.72" y1="927.45" x2="4199" y2="981.5"/><line class="cls-16" x1="4199" y1="917.5" x2="4199" y2="981.5"/><line class="cls-16" x1="4231.93" y1="926.61" x2="4199" y2="981.5"/><line class="cls-16" x1="4395" y1="1332.5" x2="4339.28" y2="1364"/><line class="cls-16" x1="4451.17" y1="1301.8" x2="4395" y2="1332.5"/><line class="cls-16" x1="4459" y1="1332.5" x2="4395" y2="1332.5"/><line class="cls-16" x1="4542.07" y1="1300.64" x2="4597" y2="1333.5"/><line class="cls-16" x1="4566.88" y1="1277.02" x2="4597" y2="1333.5"/><line class="cls-16" x1="4597" y1="1269.5" x2="4597" y2="1333.5"/><line class="cls-16" x1="4629.45" y1="1278.33" x2="4597" y2="1333.5"/><polyline class="cls-16" points="4613.87 1689.12 4659 1734.5 4705.73 1690.77"/><circle class="cls-19" cx="1053.5" cy="1498" r="36.5"/><circle class="cls-19" cx="1163.5" cy="1498" r="36.5"/></g><g id="lettering"><polygon class="cls-24" points="1835 1074.16 1823.76 1074.16 1822.03 1075.55 1823 1076.84 1834.24 1076.84 1835.98 1075.45 1835 1074.16"/><path class="cls-24" d="M1826.5,1062.58h11.34l2.4-1.93a2,2,0,0,0-1.55-.65h-11.78a3.23,3.23,0,0,0-1.87.65Z"/><path class="cls-24" d="M1824.77,1060.87a3.41,3.41,0,0,0-1.07,1.71l-2.81,11.46,1,1.29,1.61-1.29,2.76-11.24Z"/><path class="cls-24" d="M1840.41,1060.87l-2.4,1.93-2.74,11.13,1,1.29,1.61-1.29,2.79-11.35A2.17,2.17,0,0,0,1840.41,1060.87Z"/><path class="cls-24" d="M1820,1088.2l2.74-11.13-1-1.29-1.61,1.29-2.79,11.35a2.17,2.17,0,0,0,.23,1.71Z"/><path class="cls-24" d="M1831.5,1088.42h-11.34l-2.4,1.93a2,2,0,0,0,1.55.65h11.78a3.23,3.23,0,0,0,1.87-.65Z"/><path class="cls-24" d="M1836.14,1075.67l-1.61,1.29-2.76,11.24,1.46,1.93a3.41,3.41,0,0,0,1.07-1.71l2.81-11.46Z"/><polygon class="cls-24" points="1858 1074.16 1846.76 1074.16 1845.03 1075.55 1846 1076.84 1857.24 1076.84 1858.98 1075.45 1858 1074.16"/><path class="cls-24" d="M1849.5,1062.58h11.34l2.4-1.93a2,2,0,0,0-1.55-.65h-11.78a3.23,3.23,0,0,0-1.87.65Z"/><path class="cls-25" d="M1847.77,1060.87a3.41,3.41,0,0,0-1.07,1.71l-2.81,11.46,1,1.29,1.61-1.29,2.76-11.24Z"/><path class="cls-24" d="M1863.41,1060.87l-2.4,1.93-2.74,11.13,1,1.29,1.61-1.29,2.79-11.35A2.17,2.17,0,0,0,1863.41,1060.87Z"/><path class="cls-25" d="M1843,1088.2l2.74-11.13-1-1.29-1.61,1.29-2.79,11.35a2.17,2.17,0,0,0,.23,1.71Z"/><path class="cls-24" d="M1854.5,1088.42h-11.34l-2.4,1.93a2,2,0,0,0,1.55.65h11.78a3.23,3.23,0,0,0,1.87-.65Z"/><path class="cls-24" d="M1859.14,1075.67l-1.61,1.29-2.76,11.24,1.46,1.93a3.41,3.41,0,0,0,1.07-1.71l2.81-11.46Z"/><polygon class="cls-24" points="1881 1074.16 1869.76 1074.16 1868.03 1075.55 1869 1076.84 1880.24 1076.84 1881.98 1075.45 1881 1074.16"/><path class="cls-24" d="M1872.5,1062.58h11.34l2.4-1.93a2,2,0,0,0-1.55-.65h-11.78a3.23,3.23,0,0,0-1.87.65Z"/><path class="cls-24" d="M1870.77,1060.87a3.41,3.41,0,0,0-1.07,1.71l-2.81,11.46,1,1.29,1.61-1.29,2.76-11.24Z"/><path class="cls-25" d="M1886.41,1060.87l-2.4,1.93-2.74,11.13,1,1.29,1.61-1.29,2.79-11.35A2.17,2.17,0,0,0,1886.41,1060.87Z"/><path class="cls-24" d="M1866,1088.2l2.74-11.13-1-1.29-1.61,1.29-2.79,11.35a2.17,2.17,0,0,0,.23,1.71Z"/><path class="cls-24" d="M1877.5,1088.42h-11.34l-2.4,1.93a2,2,0,0,0,1.55.65h11.78a3.23,3.23,0,0,0,1.87-.65Z"/><path class="cls-24" d="M1882.14,1075.67l-1.61,1.29-2.76,11.24,1.46,1.93a3.41,3.41,0,0,0,1.07-1.71l2.81-11.46Z"/><polygon class="cls-25" points="1904 1074.16 1892.76 1074.16 1891.03 1075.55 1892 1076.84 1903.24 1076.84 1904.98 1075.45 1904 1074.16"/><path class="cls-25" d="M1895.5,1062.58h11.34l2.4-1.93a2,2,0,0,0-1.55-.65h-11.78a3.23,3.23,0,0,0-1.87.65Z"/><path class="cls-25" d="M1893.77,1060.87a3.41,3.41,0,0,0-1.07,1.71l-2.81,11.46,1,1.29,1.61-1.29,2.76-11.24Z"/><path class="cls-24" d="M1909.41,1060.87l-2.4,1.93-2.74,11.13,1,1.29,1.61-1.29,2.79-11.35A2.17,2.17,0,0,0,1909.41,1060.87Z"/><path class="cls-25" d="M1889,1088.2l2.74-11.13-1-1.29-1.61,1.29-2.79,11.35a2.17,2.17,0,0,0,.23,1.71Z"/><path class="cls-25" d="M1900.5,1088.42h-11.34l-2.4,1.93a2,2,0,0,0,1.55.65h11.78a3.23,3.23,0,0,0,1.87-.65Z"/><path class="cls-24" d="M1905.14,1075.67l-1.61,1.29-2.76,11.24,1.46,1.93a3.41,3.41,0,0,0,1.07-1.71l2.81-11.46Z"/><polygon class="cls-24" points="1927 1074.16 1915.76 1074.16 1914.03 1075.55 1915 1076.84 1926.24 1076.84 1927.98 1075.45 1927 1074.16"/><path class="cls-25" d="M1918.5,1062.58h11.34l2.4-1.93a2,2,0,0,0-1.55-.65h-11.78a3.23,3.23,0,0,0-1.87.65Z"/><path class="cls-24" d="M1916.77,1060.87a3.41,3.41,0,0,0-1.07,1.71l-2.81,11.46,1,1.29,1.61-1.29,2.76-11.24Z"/><path class="cls-24" d="M1932.41,1060.87l-2.4,1.93-2.74,11.13,1,1.29,1.61-1.29,2.79-11.35A2.17,2.17,0,0,0,1932.41,1060.87Z"/><path class="cls-25" d="M1912,1088.2l2.74-11.13-1-1.29-1.61,1.29-2.79,11.35a2.17,2.17,0,0,0,.23,1.71Z"/><path class="cls-25" d="M1923.5,1088.42h-11.34l-2.4,1.93a2,2,0,0,0,1.55.65h11.78a3.23,3.23,0,0,0,1.87-.65Z"/><path class="cls-24" d="M1928.14,1075.67l-1.61,1.29-2.76,11.24,1.46,1.93a3.41,3.41,0,0,0,1.07-1.71l2.81-11.46Z"/><polygon class="cls-24" points="1835 1031.16 1823.76 1031.16 1822.03 1032.55 1823 1033.84 1834.24 1033.84 1835.98 1032.45 1835 1031.16"/><path class="cls-24" d="M1826.5,1019.58h11.34l2.4-1.93a2,2,0,0,0-1.55-.65h-11.78a3.23,3.23,0,0,0-1.87.65Z"/><path class="cls-25" d="M1824.77,1017.87a3.41,3.41,0,0,0-1.07,1.71l-2.81,11.46,1,1.29,1.61-1.29,2.76-11.24Z"/><path class="cls-24" d="M1840.41,1017.87l-2.4,1.93-2.74,11.13,1,1.29,1.61-1.29,2.79-11.35A2.17,2.17,0,0,0,1840.41,1017.87Z"/><path class="cls-25" d="M1820,1045.2l2.74-11.13-1-1.29-1.61,1.29-2.79,11.35a2.17,2.17,0,0,0,.23,1.71Z"/><path class="cls-24" d="M1831.5,1045.42h-11.34l-2.4,1.93a2,2,0,0,0,1.55.65h11.78a3.23,3.23,0,0,0,1.87-.65Z"/><path class="cls-24" d="M1836.14,1032.67l-1.61,1.29-2.76,11.24,1.46,1.93a3.41,3.41,0,0,0,1.07-1.71l2.81-11.46Z"/><polygon class="cls-24" points="1858 1031.16 1846.76 1031.16 1845.03 1032.55 1846 1033.84 1857.24 1033.84 1858.98 1032.45 1858 1031.16"/><path class="cls-24" d="M1849.5,1019.58h11.34l2.4-1.93a2,2,0,0,0-1.55-.65h-11.78a3.23,3.23,0,0,0-1.87.65Z"/><path class="cls-24" d="M1847.77,1017.87a3.41,3.41,0,0,0-1.07,1.71l-2.81,11.46,1,1.29,1.61-1.29,2.76-11.24Z"/><path class="cls-25" d="M1863.41,1017.87l-2.4,1.93-2.74,11.13,1,1.29,1.61-1.29,2.79-11.35A2.17,2.17,0,0,0,1863.41,1017.87Z"/><path class="cls-25" d="M1843,1045.2l2.74-11.13-1-1.29-1.61,1.29-2.79,11.35a2.17,2.17,0,0,0,.23,1.71Z"/><path class="cls-24" d="M1854.5,1045.42h-11.34l-2.4,1.93a2,2,0,0,0,1.55.65h11.78a3.23,3.23,0,0,0,1.87-.65Z"/><path class="cls-24" d="M1859.14,1032.67l-1.61,1.29-2.76,11.24,1.46,1.93a3.41,3.41,0,0,0,1.07-1.71l2.81-11.46Z"/><polygon class="cls-24" points="1881 1031.16 1869.76 1031.16 1868.03 1032.55 1869 1033.84 1880.24 1033.84 1881.98 1032.45 1881 1031.16"/><path class="cls-24" d="M1872.5,1019.58h11.34l2.4-1.93a2,2,0,0,0-1.55-.65h-11.78a3.23,3.23,0,0,0-1.87.65Z"/><path class="cls-24" d="M1870.77,1017.87a3.41,3.41,0,0,0-1.07,1.71l-2.81,11.46,1,1.29,1.61-1.29,2.76-11.24Z"/><path class="cls-24" d="M1886.41,1017.87l-2.4,1.93-2.74,11.13,1,1.29,1.61-1.29,2.79-11.35A2.17,2.17,0,0,0,1886.41,1017.87Z"/><path class="cls-24" d="M1866,1045.2l2.74-11.13-1-1.29-1.61,1.29-2.79,11.35a2.17,2.17,0,0,0,.23,1.71Z"/><path class="cls-24" d="M1877.5,1045.42h-11.34l-2.4,1.93a2,2,0,0,0,1.55.65h11.78a3.23,3.23,0,0,0,1.87-.65Z"/><path class="cls-24" d="M1882.14,1032.67l-1.61,1.29-2.76,11.24,1.46,1.93a3.41,3.41,0,0,0,1.07-1.71l2.81-11.46Z"/><polygon class="cls-25" points="1904 1031.16 1892.76 1031.16 1891.03 1032.55 1892 1033.84 1903.24 1033.84 1904.98 1032.45 1904 1031.16"/><path class="cls-24" d="M1895.5,1019.58h11.34l2.4-1.93a2,2,0,0,0-1.55-.65h-11.78a3.23,3.23,0,0,0-1.87.65Z"/><path class="cls-25" d="M1893.77,1017.87a3.41,3.41,0,0,0-1.07,1.71l-2.81,11.46,1,1.29,1.61-1.29,2.76-11.24Z"/><path class="cls-24" d="M1909.41,1017.87l-2.4,1.93-2.74,11.13,1,1.29,1.61-1.29,2.79-11.35A2.17,2.17,0,0,0,1909.41,1017.87Z"/><path class="cls-25" d="M1889,1045.2l2.74-11.13-1-1.29-1.61,1.29-2.79,11.35a2.17,2.17,0,0,0,.23,1.71Z"/><path class="cls-25" d="M1900.5,1045.42h-11.34l-2.4,1.93a2,2,0,0,0,1.55.65h11.78a3.23,3.23,0,0,0,1.87-.65Z"/><path class="cls-24" d="M1905.14,1032.67l-1.61,1.29-2.76,11.24,1.46,1.93a3.41,3.41,0,0,0,1.07-1.71l2.81-11.46Z"/><polygon class="cls-25" points="1927 1031.16 1915.76 1031.16 1914.03 1032.55 1915 1033.84 1926.24 1033.84 1927.98 1032.45 1927 1031.16"/><path class="cls-24" d="M1918.5,1019.58h11.34l2.4-1.93a2,2,0,0,0-1.55-.65h-11.78a3.23,3.23,0,0,0-1.87.65Z"/><path class="cls-24" d="M1916.77,1017.87a3.41,3.41,0,0,0-1.07,1.71l-2.81,11.46,1,1.29,1.61-1.29,2.76-11.24Z"/><path class="cls-24" d="M1932.41,1017.87l-2.4,1.93-2.74,11.13,1,1.29,1.61-1.29,2.79-11.35A2.17,2.17,0,0,0,1932.41,1017.87Z"/><path class="cls-24" d="M1912,1045.2l2.74-11.13-1-1.29-1.61,1.29-2.79,11.35a2.17,2.17,0,0,0,.23,1.71Z"/><path class="cls-24" d="M1923.5,1045.42h-11.34l-2.4,1.93a2,2,0,0,0,1.55.65h11.78a3.23,3.23,0,0,0,1.87-.65Z"/><path class="cls-24" d="M1928.14,1032.67l-1.61,1.29-2.76,11.24,1.46,1.93a3.41,3.41,0,0,0,1.07-1.71l2.81-11.46Z"/><polygon class="cls-24" points="1835 988.16 1823.76 988.16 1822.03 989.55 1823 990.84 1834.24 990.84 1835.98 989.45 1835 988.16"/><path class="cls-24" d="M1826.5,976.58h11.34l2.4-1.93a2,2,0,0,0-1.55-.65h-11.78a3.23,3.23,0,0,0-1.87.65Z"/><path class="cls-24" d="M1824.77,974.87a3.41,3.41,0,0,0-1.07,1.71L1820.89,988l1,1.29,1.61-1.29,2.76-11.24Z"/><path class="cls-25" d="M1840.41,974.87l-2.4,1.93-2.74,11.13,1,1.29,1.61-1.29,2.79-11.35A2.17,2.17,0,0,0,1840.41,974.87Z"/><path class="cls-25" d="M1820,1002.2l2.74-11.13-1-1.29-1.61,1.29-2.79,11.35a2.17,2.17,0,0,0,.23,1.71Z"/><path class="cls-24" d="M1831.5,1002.42h-11.34l-2.4,1.93a2,2,0,0,0,1.55.65h11.78a3.23,3.23,0,0,0,1.87-.65Z"/><path class="cls-24" d="M1836.14,989.67l-1.61,1.29-2.76,11.24,1.46,1.93a3.41,3.41,0,0,0,1.07-1.71l2.81-11.46Z"/><polygon class="cls-24" points="1858 988.16 1846.76 988.16 1845.03 989.55 1846 990.84 1857.24 990.84 1858.98 989.45 1858 988.16"/><path class="cls-24" d="M1849.5,976.58h11.34l2.4-1.93a2,2,0,0,0-1.55-.65h-11.78a3.23,3.23,0,0,0-1.87.65Z"/><path class="cls-24" d="M1847.77,974.87a3.41,3.41,0,0,0-1.07,1.71L1843.89,988l1,1.29,1.61-1.29,2.76-11.24Z"/><path class="cls-24" d="M1863.41,974.87l-2.4,1.93-2.74,11.13,1,1.29,1.61-1.29,2.79-11.35A2.17,2.17,0,0,0,1863.41,974.87Z"/><path class="cls-24" d="M1843,1002.2l2.74-11.13-1-1.29-1.61,1.29-2.79,11.35a2.17,2.17,0,0,0,.23,1.71Z"/><path class="cls-24" d="M1854.5,1002.42h-11.34l-2.4,1.93a2,2,0,0,0,1.55.65h11.78a3.23,3.23,0,0,0,1.87-.65Z"/><path class="cls-24" d="M1859.14,989.67l-1.61,1.29-2.76,11.24,1.46,1.93a3.41,3.41,0,0,0,1.07-1.71l2.81-11.46Z"/><polygon class="cls-24" points="1881 988.16 1869.76 988.16 1868.03 989.55 1869 990.84 1880.24 990.84 1881.98 989.45 1881 988.16"/><path class="cls-24" d="M1872.5,976.58h11.34l2.4-1.93a2,2,0,0,0-1.55-.65h-11.78a3.23,3.23,0,0,0-1.87.65Z"/><path class="cls-24" d="M1870.77,974.87a3.41,3.41,0,0,0-1.07,1.71L1866.89,988l1,1.29,1.61-1.29,2.76-11.24Z"/><path class="cls-24" d="M1886.41,974.87l-2.4,1.93-2.74,11.13,1,1.29,1.61-1.29,2.79-11.35A2.17,2.17,0,0,0,1886.41,974.87Z"/><path class="cls-25" d="M1866,1002.2l2.74-11.13-1-1.29-1.61,1.29-2.79,11.35a2.17,2.17,0,0,0,.23,1.71Z"/><path class="cls-24" d="M1877.5,1002.42h-11.34l-2.4,1.93a2,2,0,0,0,1.55.65h11.78a3.23,3.23,0,0,0,1.87-.65Z"/><path class="cls-24" d="M1882.14,989.67l-1.61,1.29-2.76,11.24,1.46,1.93a3.41,3.41,0,0,0,1.07-1.71l2.81-11.46Z"/><polygon class="cls-24" points="1904 988.16 1892.76 988.16 1891.03 989.55 1892 990.84 1903.24 990.84 1904.98 989.45 1904 988.16"/><path class="cls-25" d="M1895.5,976.58h11.34l2.4-1.93a2,2,0,0,0-1.55-.65h-11.78a3.23,3.23,0,0,0-1.87.65Z"/><path class="cls-24" d="M1893.77,974.87a3.41,3.41,0,0,0-1.07,1.71L1889.89,988l1,1.29,1.61-1.29,2.76-11.24Z"/><path class="cls-24" d="M1909.41,974.87l-2.4,1.93-2.74,11.13,1,1.29,1.61-1.29,2.79-11.35A2.17,2.17,0,0,0,1909.41,974.87Z"/><path class="cls-25" d="M1889,1002.2l2.74-11.13-1-1.29-1.61,1.29-2.79,11.35a2.17,2.17,0,0,0,.23,1.71Z"/><path class="cls-25" d="M1900.5,1002.42h-11.34l-2.4,1.93a2,2,0,0,0,1.55.65h11.78a3.23,3.23,0,0,0,1.87-.65Z"/><path class="cls-24" d="M1905.14,989.67l-1.61,1.29-2.76,11.24,1.46,1.93a3.41,3.41,0,0,0,1.07-1.71l2.81-11.46Z"/><polygon class="cls-24" points="1927 988.16 1915.76 988.16 1914.03 989.55 1915 990.84 1926.24 990.84 1927.98 989.45 1927 988.16"/><path class="cls-25" d="M1918.5,976.58h11.34l2.4-1.93a2,2,0,0,0-1.55-.65h-11.78a3.23,3.23,0,0,0-1.87.65Z"/><path class="cls-24" d="M1916.77,974.87a3.41,3.41,0,0,0-1.07,1.71L1912.89,988l1,1.29,1.61-1.29,2.76-11.24Z"/><path class="cls-24" d="M1932.41,974.87l-2.4,1.93-2.74,11.13,1,1.29,1.61-1.29,2.79-11.35A2.17,2.17,0,0,0,1932.41,974.87Z"/><path class="cls-25" d="M1912,1002.2l2.74-11.13-1-1.29-1.61,1.29-2.79,11.35a2.17,2.17,0,0,0,.23,1.71Z"/><path class="cls-25" d="M1923.5,1002.42h-11.34l-2.4,1.93a2,2,0,0,0,1.55.65h11.78a3.23,3.23,0,0,0,1.87-.65Z"/><path class="cls-24" d="M1928.14,989.67l-1.61,1.29-2.76,11.24,1.46,1.93a3.41,3.41,0,0,0,1.07-1.71l2.81-11.46Z"/><polygon class="cls-24" points="1904 946.16 1892.76 946.16 1891.03 947.55 1892 948.84 1903.24 948.84 1904.98 947.45 1904 946.16"/><path class="cls-24" d="M1895.5,934.58h11.34l2.4-1.93a2,2,0,0,0-1.55-.65h-11.78a3.23,3.23,0,0,0-1.87.65Z"/><path class="cls-25" d="M1893.77,932.87a3.41,3.41,0,0,0-1.07,1.71L1889.89,946l1,1.29,1.61-1.29,2.76-11.24Z"/><path class="cls-24" d="M1909.41,932.87l-2.4,1.93-2.74,11.13,1,1.29,1.61-1.29,2.79-11.35A2.17,2.17,0,0,0,1909.41,932.87Z"/><path class="cls-25" d="M1889,960.2l2.74-11.13-1-1.29-1.61,1.29-2.79,11.35a2.17,2.17,0,0,0,.23,1.71Z"/><path class="cls-24" d="M1900.5,960.42h-11.34l-2.4,1.93a2,2,0,0,0,1.55.65h11.78a3.23,3.23,0,0,0,1.87-.65Z"/><path class="cls-24" d="M1905.14,947.67l-1.61,1.29-2.76,11.24,1.46,1.93a3.41,3.41,0,0,0,1.07-1.71l2.81-11.46Z"/><polygon class="cls-24" points="1927 946.16 1915.76 946.16 1914.03 947.55 1915 948.84 1926.24 948.84 1927.98 947.45 1927 946.16"/><path class="cls-24" d="M1918.5,934.58h11.34l2.4-1.93a2,2,0,0,0-1.55-.65h-11.78a3.23,3.23,0,0,0-1.87.65Z"/><path class="cls-25" d="M1916.77,932.87a3.41,3.41,0,0,0-1.07,1.71L1912.89,946l1,1.29,1.61-1.29,2.76-11.24Z"/><path class="cls-24" d="M1932.41,932.87l-2.4,1.93-2.74,11.13,1,1.29,1.61-1.29,2.79-11.35A2.17,2.17,0,0,0,1932.41,932.87Z"/><path class="cls-25" d="M1912,960.2l2.74-11.13-1-1.29-1.61,1.29-2.79,11.35a2.17,2.17,0,0,0,.23,1.71Z"/><path class="cls-24" d="M1923.5,960.42h-11.34l-2.4,1.93a2,2,0,0,0,1.55.65h11.78a3.23,3.23,0,0,0,1.87-.65Z"/><path class="cls-24" d="M1928.14,947.67l-1.61,1.29-2.76,11.24,1.46,1.93a3.41,3.41,0,0,0,1.07-1.71l2.81-11.46Z"/><polygon class="cls-25" points="1904 894.16 1892.76 894.16 1891.03 895.55 1892 896.84 1903.24 896.84 1904.98 895.45 1904 894.16"/><path class="cls-24" d="M1895.5,882.58h11.34l2.4-1.93a2,2,0,0,0-1.55-.65h-11.78a3.23,3.23,0,0,0-1.87.65Z"/><path class="cls-25" d="M1893.77,880.87a3.41,3.41,0,0,0-1.07,1.71L1889.89,894l1,1.29,1.61-1.29,2.76-11.24Z"/><path class="cls-24" d="M1909.41,880.87l-2.4,1.93-2.74,11.13,1,1.29,1.61-1.29,2.79-11.35A2.17,2.17,0,0,0,1909.41,880.87Z"/><path class="cls-25" d="M1889,908.2l2.74-11.13-1-1.29-1.61,1.29-2.79,11.35a2.17,2.17,0,0,0,.23,1.71Z"/><path class="cls-25" d="M1900.5,908.42h-11.34l-2.4,1.93a2,2,0,0,0,1.55.65h11.78a3.23,3.23,0,0,0,1.87-.65Z"/><path class="cls-24" d="M1905.14,895.67l-1.61,1.29-2.76,11.24,1.46,1.93a3.41,3.41,0,0,0,1.07-1.71l2.81-11.46Z"/><polygon class="cls-25" points="1927 894.16 1915.76 894.16 1914.03 895.55 1915 896.84 1926.24 896.84 1927.98 895.45 1927 894.16"/><path class="cls-24" d="M1918.5,882.58h11.34l2.4-1.93a2,2,0,0,0-1.55-.65h-11.78a3.23,3.23,0,0,0-1.87.65Z"/><path class="cls-25" d="M1916.77,880.87a3.41,3.41,0,0,0-1.07,1.71L1912.89,894l1,1.29,1.61-1.29,2.76-11.24Z"/><path class="cls-24" d="M1932.41,880.87l-2.4,1.93-2.74,11.13,1,1.29,1.61-1.29,2.79-11.35A2.17,2.17,0,0,0,1932.41,880.87Z"/><path class="cls-25" d="M1912,908.2l2.74-11.13-1-1.29-1.61,1.29-2.79,11.35a2.17,2.17,0,0,0,.23,1.71Z"/><path class="cls-25" d="M1923.5,908.42h-11.34l-2.4,1.93a2,2,0,0,0,1.55.65h11.78a3.23,3.23,0,0,0,1.87-.65Z"/><path class="cls-24" d="M1928.14,895.67l-1.61,1.29-2.76,11.24,1.46,1.93a3.41,3.41,0,0,0,1.07-1.71l2.81-11.46Z"/><polygon class="cls-24" points="1823 946.16 1811.76 946.16 1810.03 947.55 1811 948.84 1822.24 948.84 1823.98 947.45 1823 946.16"/><path class="cls-24" d="M1814.5,934.58h11.34l2.4-1.93a2,2,0,0,0-1.55-.65h-11.78a3.23,3.23,0,0,0-1.87.65Z"/><path class="cls-25" d="M1812.77,932.87a3.41,3.41,0,0,0-1.07,1.71L1808.89,946l1,1.29,1.61-1.29,2.76-11.24Z"/><path class="cls-24" d="M1828.41,932.87l-2.4,1.93-2.74,11.13,1,1.29,1.61-1.29,2.79-11.35A2.17,2.17,0,0,0,1828.41,932.87Z"/><path class="cls-25" d="M1808,960.2l2.74-11.13-1-1.29-1.61,1.29-2.79,11.35a2.17,2.17,0,0,0,.23,1.71Z"/><path class="cls-24" d="M1819.5,960.42h-11.34l-2.4,1.93a2,2,0,0,0,1.55.65h11.78a3.23,3.23,0,0,0,1.87-.65Z"/><path class="cls-24" d="M1824.14,947.67l-1.61,1.29-2.76,11.24,1.46,1.93a3.41,3.41,0,0,0,1.07-1.71l2.81-11.46Z"/><polygon class="cls-25" points="1846 946.16 1834.76 946.16 1833.03 947.55 1834 948.84 1845.24 948.84 1846.98 947.45 1846 946.16"/><path class="cls-25" d="M1837.5,934.58h11.34l2.4-1.93a2,2,0,0,0-1.55-.65h-11.78a3.23,3.23,0,0,0-1.87.65Z"/><path class="cls-25" d="M1835.77,932.87a3.41,3.41,0,0,0-1.07,1.71L1831.89,946l1,1.29,1.61-1.29,2.76-11.24Z"/><path class="cls-24" d="M1851.41,932.87l-2.4,1.93-2.74,11.13,1,1.29,1.61-1.29,2.79-11.35A2.17,2.17,0,0,0,1851.41,932.87Z"/><path class="cls-25" d="M1831,960.2l2.74-11.13-1-1.29-1.61,1.29-2.79,11.35a2.17,2.17,0,0,0,.23,1.71Z"/><path class="cls-25" d="M1842.5,960.42h-11.34l-2.4,1.93a2,2,0,0,0,1.55.65h11.78a3.23,3.23,0,0,0,1.87-.65Z"/><path class="cls-24" d="M1847.14,947.67l-1.61,1.29-2.76,11.24,1.46,1.93a3.41,3.41,0,0,0,1.07-1.71l2.81-11.46Z"/><rect class="cls-24" x="1806.66" y="983" width="2.69" height="4.91"/><rect class="cls-24" x="1806.66" y="991.09" width="2.69" height="4.91"/><polygon class="cls-24" points="1814.65 988.16 1801.41 988.16 1801.35 990.84 1814.59 990.84 1814.65 988.16"/><rect class="cls-24" x="1806.66" y="1026" width="2.69" height="4.91"/><rect class="cls-24" x="1806.66" y="1034.09" width="2.69" height="4.91"/><polygon class="cls-24" points="1814.65 1031.16 1801.41 1031.16 1801.35 1033.84 1814.59 1033.84 1814.65 1031.16"/><g class="cls-26"><rect class="cls-24" x="1806.66" y="1069" width="2.69" height="4.91"/><rect class="cls-24" x="1806.66" y="1077.09" width="2.69" height="4.91"/></g><polygon class="cls-24" points="1814.65 1074.16 1801.41 1074.16 1801.35 1076.84 1814.59 1076.84 1814.65 1074.16"/><polygon class="cls-24" points="2636 506.16 2624.76 506.16 2623.03 507.55 2624 508.84 2635.24 508.84 2636.98 507.45 2636 506.16"/><path class="cls-24" d="M2627.5,494.58h11.34l2.4-1.93a2,2,0,0,0-1.55-.65h-11.78a3.23,3.23,0,0,0-1.87.65Z"/><path class="cls-24" d="M2625.77,492.87a3.41,3.41,0,0,0-1.07,1.71L2621.89,506l1,1.29,1.61-1.29,2.76-11.24Z"/><path class="cls-25" d="M2641.41,492.87l-2.4,1.93-2.74,11.13,1,1.29,1.61-1.29,2.79-11.35A2.17,2.17,0,0,0,2641.41,492.87Z"/><path class="cls-25" d="M2621,520.2l2.74-11.13-1-1.29-1.61,1.29-2.79,11.35a2.17,2.17,0,0,0,.23,1.71Z"/><path class="cls-24" d="M2632.5,520.42h-11.34l-2.4,1.93a2,2,0,0,0,1.55.65h11.78a3.23,3.23,0,0,0,1.87-.65Z"/><path class="cls-24" d="M2637.14,507.67l-1.61,1.29-2.76,11.24,1.46,1.93a3.41,3.41,0,0,0,1.07-1.71l2.81-11.46Z"/><polygon class="cls-24" points="2613 506.16 2601.76 506.16 2600.03 507.55 2601 508.84 2612.24 508.84 2613.98 507.45 2613 506.16"/><path class="cls-24" d="M2604.5,494.58h11.34l2.4-1.93a2,2,0,0,0-1.55-.65h-11.78a3.23,3.23,0,0,0-1.87.65Z"/><path class="cls-24" d="M2602.77,492.87a3.41,3.41,0,0,0-1.07,1.71L2598.89,506l1,1.29,1.61-1.29,2.76-11.24Z"/><path class="cls-25" d="M2618.41,492.87l-2.4,1.93-2.74,11.13,1,1.29,1.61-1.29,2.79-11.35A2.17,2.17,0,0,0,2618.41,492.87Z"/><path class="cls-25" d="M2598,520.2l2.74-11.13-1-1.29-1.61,1.29-2.79,11.35a2.17,2.17,0,0,0,.23,1.71Z"/><path class="cls-24" d="M2609.5,520.42h-11.34l-2.4,1.93a2,2,0,0,0,1.55.65h11.78a3.23,3.23,0,0,0,1.87-.65Z"/><path class="cls-24" d="M2614.14,507.67l-1.61,1.29-2.76,11.24,1.46,1.93a3.41,3.41,0,0,0,1.07-1.71l2.81-11.46Z"/><polygon class="cls-25" points="2590 506.16 2578.76 506.16 2577.03 507.55 2578 508.84 2589.24 508.84 2590.98 507.45 2590 506.16"/><path class="cls-24" d="M2581.5,494.58h11.34l2.4-1.93a2,2,0,0,0-1.55-.65h-11.78a3.23,3.23,0,0,0-1.87.65Z"/><path class="cls-24" d="M2579.77,492.87a3.41,3.41,0,0,0-1.07,1.71L2575.89,506l1,1.29,1.61-1.29,2.76-11.24Z"/><path class="cls-24" d="M2595.41,492.87l-2.4,1.93-2.74,11.13,1,1.29,1.61-1.29,2.79-11.35A2.17,2.17,0,0,0,2595.41,492.87Z"/><path class="cls-24" d="M2575,520.2l2.74-11.13-1-1.29-1.61,1.29-2.79,11.35a2.17,2.17,0,0,0,.23,1.71Z"/><path class="cls-24" d="M2586.5,520.42h-11.34l-2.4,1.93a2,2,0,0,0,1.55.65h11.78a3.23,3.23,0,0,0,1.87-.65Z"/><path class="cls-24" d="M2591.14,507.67l-1.61,1.29-2.76,11.24,1.46,1.93a3.41,3.41,0,0,0,1.07-1.71l2.81-11.46Z"/><polygon class="cls-24" points="2673 506.16 2661.76 506.16 2660.03 507.55 2661 508.84 2672.24 508.84 2673.98 507.45 2673 506.16"/><path class="cls-24" d="M2664.5,494.58h11.34l2.4-1.93a2,2,0,0,0-1.55-.65h-11.78a3.23,3.23,0,0,0-1.87.65Z"/><path class="cls-24" d="M2662.77,492.87a3.41,3.41,0,0,0-1.07,1.71L2658.89,506l1,1.29,1.61-1.29,2.76-11.24Z"/><path class="cls-25" d="M2678.41,492.87l-2.4,1.93-2.74,11.13,1,1.29,1.61-1.29,2.79-11.35A2.17,2.17,0,0,0,2678.41,492.87Z"/><path class="cls-25" d="M2658,520.2l2.74-11.13-1-1.29-1.61,1.29-2.79,11.35a2.17,2.17,0,0,0,.23,1.71Z"/><path class="cls-24" d="M2669.5,520.42h-11.34l-2.4,1.93a2,2,0,0,0,1.55.65h11.78a3.23,3.23,0,0,0,1.87-.65Z"/><path class="cls-24" d="M2674.14,507.67l-1.61,1.29-2.76,11.24,1.46,1.93a3.41,3.41,0,0,0,1.07-1.71l2.81-11.46Z"/><polygon class="cls-24" points="2696 506.16 2684.76 506.16 2683.03 507.55 2684 508.84 2695.24 508.84 2696.98 507.45 2696 506.16"/><path class="cls-25" d="M2687.5,494.58h11.34l2.4-1.93a2,2,0,0,0-1.55-.65h-11.78a3.23,3.23,0,0,0-1.87.65Z"/><path class="cls-24" d="M2685.77,492.87a3.41,3.41,0,0,0-1.07,1.71L2681.89,506l1,1.29,1.61-1.29,2.76-11.24Z"/><path class="cls-24" d="M2701.41,492.87l-2.4,1.93-2.74,11.13,1,1.29,1.61-1.29,2.79-11.35A2.17,2.17,0,0,0,2701.41,492.87Z"/><path class="cls-25" d="M2681,520.2l2.74-11.13-1-1.29-1.61,1.29-2.79,11.35a2.17,2.17,0,0,0,.23,1.71Z"/><path class="cls-25" d="M2692.5,520.42h-11.34l-2.4,1.93a2,2,0,0,0,1.55.65h11.78a3.23,3.23,0,0,0,1.87-.65Z"/><path class="cls-24" d="M2697.14,507.67l-1.61,1.29-2.76,11.24,1.46,1.93a3.41,3.41,0,0,0,1.07-1.71l2.81-11.46Z"/><polygon class="cls-24" points="2733 506.16 2721.76 506.16 2720.03 507.55 2721 508.84 2732.24 508.84 2733.98 507.45 2733 506.16"/><path class="cls-24" d="M2724.5,494.58h11.34l2.4-1.93a2,2,0,0,0-1.55-.65h-11.78a3.23,3.23,0,0,0-1.87.65Z"/><path class="cls-24" d="M2722.77,492.87a3.41,3.41,0,0,0-1.07,1.71L2718.89,506l1,1.29,1.61-1.29,2.76-11.24Z"/><path class="cls-25" d="M2738.41,492.87l-2.4,1.93-2.74,11.13,1,1.29,1.61-1.29,2.79-11.35A2.17,2.17,0,0,0,2738.41,492.87Z"/><path class="cls-25" d="M2718,520.2l2.74-11.13-1-1.29-1.61,1.29-2.79,11.35a2.17,2.17,0,0,0,.23,1.71Z"/><path class="cls-24" d="M2729.5,520.42h-11.34l-2.4,1.93a2,2,0,0,0,1.55.65h11.78a3.23,3.23,0,0,0,1.87-.65Z"/><path class="cls-24" d="M2734.14,507.67l-1.61,1.29-2.76,11.24,1.46,1.93a3.41,3.41,0,0,0,1.07-1.71l2.81-11.46Z"/><polygon class="cls-24" points="2756 506.16 2744.76 506.16 2743.03 507.55 2744 508.84 2755.24 508.84 2756.98 507.45 2756 506.16"/><path class="cls-24" d="M2747.5,494.58h11.34l2.4-1.93a2,2,0,0,0-1.55-.65h-11.78a3.23,3.23,0,0,0-1.87.65Z"/><path class="cls-25" d="M2745.77,492.87a3.41,3.41,0,0,0-1.07,1.71L2741.89,506l1,1.29,1.61-1.29,2.76-11.24Z"/><path class="cls-24" d="M2761.41,492.87l-2.4,1.93-2.74,11.13,1,1.29,1.61-1.29,2.79-11.35A2.17,2.17,0,0,0,2761.41,492.87Z"/><path class="cls-25" d="M2741,520.2l2.74-11.13-1-1.29-1.61,1.29-2.79,11.35a2.17,2.17,0,0,0,.23,1.71Z"/><path class="cls-24" d="M2752.5,520.42h-11.34l-2.4,1.93a2,2,0,0,0,1.55.65h11.78a3.23,3.23,0,0,0,1.87-.65Z"/><path class="cls-24" d="M2757.14,507.67l-1.61,1.29-2.76,11.24,1.46,1.93a3.41,3.41,0,0,0,1.07-1.71l2.81-11.46Z"/><polygon class="cls-25" points="1158 795.16 1146.76 795.16 1145.03 796.55 1146 797.84 1157.24 797.84 1158.98 796.45 1158 795.16"/><path class="cls-25" d="M1149.5,783.58h11.34l2.4-1.93a2,2,0,0,0-1.55-.65h-11.78a3.23,3.23,0,0,0-1.87.65Z"/><path class="cls-25" d="M1147.77,781.87a3.41,3.41,0,0,0-1.07,1.71L1143.89,795l1,1.29,1.61-1.29,2.76-11.24Z"/><path class="cls-24" d="M1163.41,781.87l-2.4,1.93-2.74,11.13,1,1.29,1.61-1.29,2.79-11.35A2.17,2.17,0,0,0,1163.41,781.87Z"/><path class="cls-25" d="M1143,809.2l2.74-11.13-1-1.29-1.61,1.29-2.79,11.35a2.17,2.17,0,0,0,.23,1.71Z"/><path class="cls-25" d="M1154.5,809.42h-11.34l-2.4,1.93a2,2,0,0,0,1.55.65h11.78a3.23,3.23,0,0,0,1.87-.65Z"/><path class="cls-24" d="M1159.14,796.67l-1.61,1.29-2.76,11.24,1.46,1.93a3.41,3.41,0,0,0,1.07-1.71l2.81-11.46Z"/><polygon class="cls-24" points="1181 795.16 1169.76 795.16 1168.03 796.55 1169 797.84 1180.24 797.84 1181.98 796.45 1181 795.16"/><path class="cls-25" d="M1172.5,783.58h11.34l2.4-1.93a2,2,0,0,0-1.55-.65h-11.78a3.23,3.23,0,0,0-1.87.65Z"/><path class="cls-24" d="M1170.77,781.87a3.41,3.41,0,0,0-1.07,1.71L1166.89,795l1,1.29,1.61-1.29,2.76-11.24Z"/><path class="cls-24" d="M1186.41,781.87l-2.4,1.93-2.74,11.13,1,1.29,1.61-1.29,2.79-11.35A2.17,2.17,0,0,0,1186.41,781.87Z"/><path class="cls-25" d="M1166,809.2l2.74-11.13-1-1.29-1.61,1.29-2.79,11.35a2.17,2.17,0,0,0,.23,1.71Z"/><path class="cls-25" d="M1177.5,809.42h-11.34l-2.4,1.93a2,2,0,0,0,1.55.65h11.78a3.23,3.23,0,0,0,1.87-.65Z"/><path class="cls-24" d="M1182.14,796.67l-1.61,1.29-2.76,11.24,1.46,1.93a3.41,3.41,0,0,0,1.07-1.71l2.81-11.46Z"/><polygon class="cls-25" points="1204 795.16 1192.76 795.16 1191.03 796.55 1192 797.84 1203.24 797.84 1204.98 796.45 1204 795.16"/><path class="cls-24" d="M1195.5,783.58h11.34l2.4-1.93a2,2,0,0,0-1.55-.65h-11.78a3.23,3.23,0,0,0-1.87.65Z"/><path class="cls-24" d="M1193.77,781.87a3.41,3.41,0,0,0-1.07,1.71L1189.89,795l1,1.29,1.61-1.29,2.76-11.24Z"/><path class="cls-24" d="M1209.41,781.87l-2.4,1.93-2.74,11.13,1,1.29,1.61-1.29,2.79-11.35A2.17,2.17,0,0,0,1209.41,781.87Z"/><path class="cls-24" d="M1189,809.2l2.74-11.13-1-1.29-1.61,1.29-2.79,11.35a2.17,2.17,0,0,0,.23,1.71Z"/><path class="cls-24" d="M1200.5,809.42h-11.34l-2.4,1.93a2,2,0,0,0,1.55.65h11.78a3.23,3.23,0,0,0,1.87-.65Z"/><path class="cls-24" d="M1205.14,796.67l-1.61,1.29-2.76,11.24,1.46,1.93a3.41,3.41,0,0,0,1.07-1.71l2.81-11.46Z"/><polygon class="cls-25" points="1227 795.16 1215.76 795.16 1214.03 796.55 1215 797.84 1226.24 797.84 1227.98 796.45 1227 795.16"/><path class="cls-24" d="M1218.5,783.58h11.34l2.4-1.93a2,2,0,0,0-1.55-.65h-11.78a3.23,3.23,0,0,0-1.87.65Z"/><path class="cls-24" d="M1216.77,781.87a3.41,3.41,0,0,0-1.07,1.71L1212.89,795l1,1.29,1.61-1.29,2.76-11.24Z"/><path class="cls-24" d="M1232.41,781.87l-2.4,1.93-2.74,11.13,1,1.29,1.61-1.29,2.79-11.35A2.17,2.17,0,0,0,1232.41,781.87Z"/><path class="cls-24" d="M1212,809.2l2.74-11.13-1-1.29-1.61,1.29-2.79,11.35a2.17,2.17,0,0,0,.23,1.71Z"/><path class="cls-24" d="M1223.5,809.42h-11.34l-2.4,1.93a2,2,0,0,0,1.55.65h11.78a3.23,3.23,0,0,0,1.87-.65Z"/><path class="cls-24" d="M1228.14,796.67l-1.61,1.29-2.76,11.24,1.46,1.93a3.41,3.41,0,0,0,1.07-1.71l2.81-11.46Z"/><polygon class="cls-25" points="1250 795.16 1238.76 795.16 1237.03 796.55 1238 797.84 1249.24 797.84 1250.98 796.45 1250 795.16"/><path class="cls-24" d="M1241.5,783.58h11.34l2.4-1.93a2,2,0,0,0-1.55-.65h-11.78a3.23,3.23,0,0,0-1.87.65Z"/><path class="cls-24" d="M1239.77,781.87a3.41,3.41,0,0,0-1.07,1.71L1235.89,795l1,1.29,1.61-1.29,2.76-11.24Z"/><path class="cls-24" d="M1255.41,781.87l-2.4,1.93-2.74,11.13,1,1.29,1.61-1.29,2.79-11.35A2.17,2.17,0,0,0,1255.41,781.87Z"/><path class="cls-24" d="M1235,809.2l2.74-11.13-1-1.29-1.61,1.29-2.79,11.35a2.17,2.17,0,0,0,.23,1.71Z"/><path class="cls-24" d="M1246.5,809.42h-11.34l-2.4,1.93a2,2,0,0,0,1.55.65h11.78a3.23,3.23,0,0,0,1.87-.65Z"/><path class="cls-24" d="M1251.14,796.67l-1.61,1.29-2.76,11.24,1.46,1.93a3.41,3.41,0,0,0,1.07-1.71l2.81-11.46Z"/><polygon class="cls-25" points="1280 795.16 1268.76 795.16 1267.03 796.55 1268 797.84 1279.24 797.84 1280.98 796.45 1280 795.16"/><path class="cls-24" d="M1271.5,783.58h11.34l2.4-1.93a2,2,0,0,0-1.55-.65h-11.78a3.23,3.23,0,0,0-1.87.65Z"/><path class="cls-24" d="M1269.77,781.87a3.41,3.41,0,0,0-1.07,1.71L1265.89,795l1,1.29,1.61-1.29,2.76-11.24Z"/><path class="cls-24" d="M1285.41,781.87l-2.4,1.93-2.74,11.13,1,1.29,1.61-1.29,2.79-11.35A2.17,2.17,0,0,0,1285.41,781.87Z"/><path class="cls-24" d="M1265,809.2l2.74-11.13-1-1.29-1.61,1.29-2.79,11.35a2.17,2.17,0,0,0,.23,1.71Z"/><path class="cls-24" d="M1276.5,809.42h-11.34l-2.4,1.93a2,2,0,0,0,1.55.65h11.78a3.23,3.23,0,0,0,1.87-.65Z"/><path class="cls-24" d="M1281.14,796.67l-1.61,1.29-2.76,11.24,1.46,1.93a3.41,3.41,0,0,0,1.07-1.71l2.81-11.46Z"/><circle class="cls-24" cx="1256" cy="810.5" r="1.5"/></g><g id="labels"><path d="M1365.37,158.36h5.19v17.27h-3.36V163.95q0-.5,0-1.41t0-1.4l-3.27,14.5h-3.51l-3.25-14.5q0,.49,0,1.4t0,1.41v11.68h-3.36V158.36h5.25l3.14,13.58Z"/><path d="M1384,158.73a5.71,5.71,0,0,1,2.94,2.19,7.71,7.71,0,0,1,1.23,2.79,13.39,13.39,0,0,1,.33,2.86,11.47,11.47,0,0,1-1.38,5.84,6.25,6.25,0,0,1-5.79,3.22h-7.45V158.36h7.45A9.09,9.09,0,0,1,1384,158.73Zm-6.62,2.63v11.27h3.33a3.6,3.6,0,0,0,3.57-2.52,8.87,8.87,0,0,0,.55-3.29,8.11,8.11,0,0,0-.83-4q-.83-1.41-3.29-1.41Z"/><path d="M1392.88,160.16a7.11,7.11,0,0,1,5.31-2.13q4.31,0,6.31,2.86a6.24,6.24,0,0,1,1.18,3.22h-3.61a4.92,4.92,0,0,0-.88-1.87,3.56,3.56,0,0,0-2.86-1.12,3.52,3.52,0,0,0-3,1.59,7.76,7.76,0,0,0-1.11,4.49,6.81,6.81,0,0,0,1.17,4.35,3.68,3.68,0,0,0,3,1.45,3.38,3.38,0,0,0,2.83-1.24,5.45,5.45,0,0,0,.89-2h3.59a7.78,7.78,0,0,1-2.37,4.59,6.9,6.9,0,0,1-4.89,1.77,7.33,7.33,0,0,1-5.8-2.39,9.63,9.63,0,0,1-2.11-6.59Q1390.48,162.61,1392.88,160.16Z"/><path d="M1407.29,167.36h6.54v3.16h-6.54Z"/><path d="M1416.39,163.91v-2.27a14.73,14.73,0,0,0,2.21-.21,3.12,3.12,0,0,0,1.64-.89,2.93,2.93,0,0,0,.65-1.22,2.8,2.8,0,0,0,.13-.68h2.79v17h-3.42V163.91Z"/><path d="M1535.37,380.36h5.19v17.27h-3.36V385.95q0-.5,0-1.41t0-1.4l-3.27,14.5h-3.51l-3.25-14.5q0,.49,0,1.4t0,1.41v11.68h-3.36V380.36h5.25l3.14,13.58Z"/><path d="M1554,380.73a5.71,5.71,0,0,1,2.94,2.19,7.71,7.71,0,0,1,1.23,2.79,13.39,13.39,0,0,1,.33,2.86,11.47,11.47,0,0,1-1.38,5.84,6.25,6.25,0,0,1-5.79,3.22h-7.45V380.36h7.45A9.09,9.09,0,0,1,1554,380.73Zm-6.62,2.63v11.27h3.33a3.6,3.6,0,0,0,3.57-2.52,8.87,8.87,0,0,0,.55-3.29,8.11,8.11,0,0,0-.83-4q-.83-1.41-3.29-1.41Z"/><path d="M1562.88,382.16a7.11,7.11,0,0,1,5.31-2.13q4.31,0,6.31,2.86a6.24,6.24,0,0,1,1.18,3.22h-3.61a4.92,4.92,0,0,0-.88-1.87,3.56,3.56,0,0,0-2.86-1.12,3.52,3.52,0,0,0-3,1.59,7.76,7.76,0,0,0-1.11,4.49,6.81,6.81,0,0,0,1.17,4.35,3.68,3.68,0,0,0,3,1.45,3.38,3.38,0,0,0,2.83-1.24,5.45,5.45,0,0,0,.89-2h3.59a7.78,7.78,0,0,1-2.37,4.59,6.9,6.9,0,0,1-4.89,1.77,7.33,7.33,0,0,1-5.8-2.39,9.63,9.63,0,0,1-2.11-6.59Q1560.48,384.61,1562.88,382.16Z"/><path d="M1577.29,389.36h6.54v3.16h-6.54Z"/><path d="M1586.26,394.29a9.44,9.44,0,0,1,3.38-3.6,24.75,24.75,0,0,0,3-2.37,3.5,3.5,0,0,0,1-2.44,2.7,2.7,0,0,0-.6-1.79,2.44,2.44,0,0,0-3.79.42,5.64,5.64,0,0,0-.37,2.09h-3.25a8.19,8.19,0,0,1,.79-3.5,4.9,4.9,0,0,1,4.75-2.54,6,6,0,0,1,4.29,1.49,5.16,5.16,0,0,1,1.6,4,5.35,5.35,0,0,1-1.13,3.35,11.23,11.23,0,0,1-2.43,2.17l-1.34.95q-1.26.89-1.72,1.29a3.78,3.78,0,0,0-.78.93h7.42v2.94h-11.64A8,8,0,0,1,1586.26,394.29Z"/><path d="M3505.37,217.36h5.19v17.27h-3.36V222.95q0-.5,0-1.41t0-1.4l-3.27,14.5h-3.51l-3.25-14.5q0,.49,0,1.4t0,1.41v11.68h-3.36V217.36h5.25l3.14,13.58Z"/><path d="M3524,217.73a5.71,5.71,0,0,1,2.94,2.19,7.71,7.71,0,0,1,1.23,2.79,13.39,13.39,0,0,1,.33,2.86,11.47,11.47,0,0,1-1.38,5.84,6.25,6.25,0,0,1-5.79,3.22h-7.45V217.36h7.45A9.09,9.09,0,0,1,3524,217.73Zm-6.62,2.63v11.27h3.33a3.6,3.6,0,0,0,3.57-2.52,8.87,8.87,0,0,0,.55-3.29,8.11,8.11,0,0,0-.83-4q-.83-1.41-3.29-1.41Z"/><path d="M3532.88,219.16a7.11,7.11,0,0,1,5.31-2.13q4.31,0,6.31,2.86a6.24,6.24,0,0,1,1.18,3.22h-3.61a4.92,4.92,0,0,0-.88-1.87,3.56,3.56,0,0,0-2.86-1.12,3.52,3.52,0,0,0-3,1.59,7.76,7.76,0,0,0-1.11,4.49,6.81,6.81,0,0,0,1.17,4.35,3.68,3.68,0,0,0,3,1.45,3.38,3.38,0,0,0,2.83-1.24,5.45,5.45,0,0,0,.89-2h3.59a7.78,7.78,0,0,1-2.37,4.59,6.9,6.9,0,0,1-4.89,1.77,7.33,7.33,0,0,1-5.8-2.39,9.63,9.63,0,0,1-2.11-6.59Q3530.48,221.61,3532.88,219.16Z"/><path d="M3547.29,226.36h6.54v3.16h-6.54Z"/><path d="M3558.64,229.42a3.83,3.83,0,0,0,.33,1.69,2.24,2.24,0,0,0,2.21,1.23,2.45,2.45,0,0,0,1.71-.67,2.51,2.51,0,0,0,.73-1.94,2.19,2.19,0,0,0-1.36-2.24,6.86,6.86,0,0,0-2.43-.32v-2.39a6.29,6.29,0,0,0,2.27-.32,2,2,0,0,0,1.11-2,2.23,2.23,0,0,0-.57-1.58,2.07,2.07,0,0,0-1.6-.61,2,2,0,0,0-1.74.75,3.19,3.19,0,0,0-.53,2h-3.12a8.41,8.41,0,0,1,.43-2.4,5.42,5.42,0,0,1,1.29-1.84,4.49,4.49,0,0,1,1.56-.91,6.74,6.74,0,0,1,2.21-.32,5.89,5.89,0,0,1,3.93,1.26,4.2,4.2,0,0,1,1.49,3.38,3.74,3.74,0,0,1-.89,2.53,3,3,0,0,1-1.17.88,2.41,2.41,0,0,1,1.31.79,4.19,4.19,0,0,1,1.28,3.23,5.45,5.45,0,0,1-1.49,3.79,5.69,5.69,0,0,1-4.42,1.63q-3.61,0-5-2.36a7,7,0,0,1-.82-3.28Z"/><path d="M306.5,271.15a6.59,6.59,0,0,1-4.33,1.27h-3.6v6.21H295V261.36h7.42a6,6,0,0,1,4.09,1.34,5.21,5.21,0,0,1,1.53,4.14Q308,269.89,306.5,271.15Zm-2.75-6.22a2.91,2.91,0,0,0-1.92-.57h-3.25v5.09h3.25a2.76,2.76,0,0,0,1.92-.62,2.54,2.54,0,0,0,.69-2A2.38,2.38,0,0,0,303.75,264.93Z"/><path d="M315.71,270.86a5.3,5.3,0,0,0,1.33-.29,1,1,0,0,0,.72-.95,1.12,1.12,0,0,0-.55-1.08,3.49,3.49,0,0,0-1.62-.3,2.13,2.13,0,0,0-1.7.59,2.41,2.41,0,0,0-.48,1.17h-3.22a4.89,4.89,0,0,1,.94-2.75q1.33-1.69,4.57-1.69a8.15,8.15,0,0,1,3.74.83,3.19,3.19,0,0,1,1.64,3.14v5.86q0,.61,0,1.48a1.86,1.86,0,0,0,.2.89,1.2,1.2,0,0,0,.49.39v.49h-3.63a3.72,3.72,0,0,1-.21-.73q-.06-.34-.09-.77a6.89,6.89,0,0,1-1.6,1.28,4.84,4.84,0,0,1-2.45.62,4.23,4.23,0,0,1-2.88-1,3.52,3.52,0,0,1-1.14-2.81,3.64,3.64,0,0,1,1.83-3.41,8.17,8.17,0,0,1,3-.82Zm2,1.56a3.7,3.7,0,0,1-.65.32,5.46,5.46,0,0,1-.9.23l-.76.14a5,5,0,0,0-1.54.46,1.52,1.52,0,0,0-.79,1.42,1.48,1.48,0,0,0,.48,1.24,1.83,1.83,0,0,0,1.17.38,3.49,3.49,0,0,0,2-.63,2.68,2.68,0,0,0,1-2.31Z"/><path d="M334.29,266.59a4.22,4.22,0,0,1,1.25,3.44v8.6h-3.42v-7.77a3.56,3.56,0,0,0-.27-1.55,1.88,1.88,0,0,0-1.86-1,2.31,2.31,0,0,0-2.31,1.44,5,5,0,0,0-.33,1.95v6.91H324V265.88h3.23v1.86a5.65,5.65,0,0,1,1.21-1.42,4.2,4.2,0,0,1,2.6-.77A4.89,4.89,0,0,1,334.29,266.59Z"/><path d="M347,266.12a5.19,5.19,0,0,1,2.21,1.89,6.29,6.29,0,0,1,1,2.64,16.34,16.34,0,0,1,.11,2.54H341a3.06,3.06,0,0,0,1.34,2.7,3.39,3.39,0,0,0,1.84.48,2.82,2.82,0,0,0,1.85-.59,2.79,2.79,0,0,0,.69-.88h3.41a4.17,4.17,0,0,1-1.24,2.31,6.21,6.21,0,0,1-4.81,1.86,7,7,0,0,1-4.5-1.57q-1.95-1.57-1.95-5.11a6.92,6.92,0,0,1,1.76-5.09,6.16,6.16,0,0,1,4.57-1.77A7.27,7.27,0,0,1,347,266.12ZM342,269a3.47,3.47,0,0,0-.89,2h5.75a2.79,2.79,0,0,0-.89-2,2.93,2.93,0,0,0-2-.69A2.65,2.65,0,0,0,342,269Z"/><path d="M355.41,278.63h-3.34V261.36h3.34Z"/><path d="M365.44,266.91v-2.27a14.73,14.73,0,0,0,2.21-.21,3.12,3.12,0,0,0,1.64-.89,2.93,2.93,0,0,0,.65-1.22,2.8,2.8,0,0,0,.13-.68h2.79v17h-3.42V266.91Z"/><path d="M381.09,274.08a3.23,3.23,0,0,0,.76,1.68,2.15,2.15,0,0,0,1.64.59,2.21,2.21,0,0,0,1.89-.87,3.59,3.59,0,0,0,.65-2.2,3.83,3.83,0,0,0-.61-2.2,2.13,2.13,0,0,0-1.89-.9,3.25,3.25,0,0,0-1.05.15,2.1,2.1,0,0,0-1.18,1l-3-.14,1.19-9.39h9.35v2.84h-6.94l-.61,3.71a7,7,0,0,1,1.21-.67,5.09,5.09,0,0,1,1.77-.27A5.13,5.13,0,0,1,389.5,273a6.48,6.48,0,0,1-1.51,4.21,5.49,5.49,0,0,1-4.52,1.85,6,6,0,0,1-4-1.3,5.06,5.06,0,0,1-1.73-3.69Z"/><path d="M4187.5,271.15a6.59,6.59,0,0,1-4.33,1.27h-3.6v6.21H4176V261.36h7.42a6,6,0,0,1,4.09,1.34,5.21,5.21,0,0,1,1.53,4.14Q4189,269.89,4187.5,271.15Zm-2.75-6.22a2.91,2.91,0,0,0-1.92-.57h-3.25v5.09h3.25a2.76,2.76,0,0,0,1.92-.62,2.54,2.54,0,0,0,.69-2A2.38,2.38,0,0,0,4184.75,264.93Z"/><path d="M4196.71,270.86a5.3,5.3,0,0,0,1.33-.29,1,1,0,0,0,.72-.95,1.12,1.12,0,0,0-.55-1.08,3.49,3.49,0,0,0-1.62-.3,2.13,2.13,0,0,0-1.7.59,2.41,2.41,0,0,0-.48,1.17h-3.22a4.89,4.89,0,0,1,.94-2.75q1.33-1.69,4.57-1.69a8.15,8.15,0,0,1,3.74.83,3.19,3.19,0,0,1,1.64,3.14v5.86q0,.61,0,1.48a1.86,1.86,0,0,0,.2.89,1.2,1.2,0,0,0,.49.39v.49h-3.63a3.72,3.72,0,0,1-.21-.73q-.06-.34-.09-.77a6.89,6.89,0,0,1-1.6,1.28,4.84,4.84,0,0,1-2.45.62,4.23,4.23,0,0,1-2.88-1,3.52,3.52,0,0,1-1.14-2.81,3.64,3.64,0,0,1,1.83-3.41,8.17,8.17,0,0,1,3-.82Zm2,1.56a3.7,3.7,0,0,1-.65.32,5.46,5.46,0,0,1-.9.23l-.76.14a5,5,0,0,0-1.54.46,1.52,1.52,0,0,0-.79,1.42,1.48,1.48,0,0,0,.48,1.24,1.83,1.83,0,0,0,1.17.38,3.49,3.49,0,0,0,2-.63,2.68,2.68,0,0,0,1-2.31Z"/><path d="M4215.29,266.59a4.22,4.22,0,0,1,1.25,3.44v8.6h-3.42v-7.77a3.56,3.56,0,0,0-.27-1.55,1.88,1.88,0,0,0-1.86-1,2.31,2.31,0,0,0-2.31,1.44,5,5,0,0,0-.33,1.95v6.91H4205V265.88h3.23v1.86a5.65,5.65,0,0,1,1.21-1.42,4.2,4.2,0,0,1,2.6-.77A4.89,4.89,0,0,1,4215.29,266.59Z"/><path d="M4228,266.12a5.19,5.19,0,0,1,2.21,1.89,6.29,6.29,0,0,1,1,2.64,16.34,16.34,0,0,1,.11,2.54H4222a3.06,3.06,0,0,0,1.34,2.7,3.39,3.39,0,0,0,1.84.48,2.82,2.82,0,0,0,1.85-.59,2.79,2.79,0,0,0,.69-.88h3.41a4.17,4.17,0,0,1-1.24,2.31,6.21,6.21,0,0,1-4.81,1.86,7,7,0,0,1-4.5-1.57q-1.95-1.57-1.95-5.11a6.92,6.92,0,0,1,1.76-5.09,6.16,6.16,0,0,1,4.57-1.77A7.27,7.27,0,0,1,4228,266.12Zm-5,2.89a3.47,3.47,0,0,0-.89,2h5.75a2.79,2.79,0,0,0-.89-2,2.93,2.93,0,0,0-2-.69A2.65,2.65,0,0,0,4223,269Z"/><path d="M4236.41,278.63h-3.34V261.36h3.34Z"/><path d="M4246.44,266.91v-2.27a14.73,14.73,0,0,0,2.21-.21,3.12,3.12,0,0,0,1.64-.89,2.93,2.93,0,0,0,.65-1.22,2.8,2.8,0,0,0,.13-.68h2.79v17h-3.42V266.91Z"/><path d="M4266.93,265.92a1.7,1.7,0,0,0-.32-.9,1.83,1.83,0,0,0-1.63-.8,2.41,2.41,0,0,0-2.32,1.83,11.34,11.34,0,0,0-.52,3,3.75,3.75,0,0,1,1.44-1.08,5.28,5.28,0,0,1,5.58,1.2,5.49,5.49,0,0,1,1.45,3.93,6.63,6.63,0,0,1-1.42,4.2,5.24,5.24,0,0,1-4.41,1.82,5.07,5.07,0,0,1-4.73-2.68,10.94,10.94,0,0,1-1.18-5.41,24.62,24.62,0,0,1,.16-3.16,9.68,9.68,0,0,1,1.14-3.61,5.82,5.82,0,0,1,1.9-2,5.14,5.14,0,0,1,2.82-.75,5.58,5.58,0,0,1,3.77,1.21,4.61,4.61,0,0,1,1.58,3.23Zm-4,9.57a2.36,2.36,0,0,0,1.88.87,2.08,2.08,0,0,0,1.75-.84,3.49,3.49,0,0,0,.64-2.17,3.25,3.25,0,0,0-.73-2.28,2.33,2.33,0,0,0-1.78-.79,2.38,2.38,0,0,0-1.51.52,2.92,2.92,0,0,0-1,2.46A3.33,3.33,0,0,0,4263,275.49Z"/></g></svg>