<svg xmlns="http://www.w3.org/2000/svg" viewBox="0 0 120 55"><defs><style>.cls-1,.cls-5{fill:#b3b3b3;}.cls-2,.cls-3{fill:#1a1a1a;}.cls-2{opacity:0.3;}.cls-3{opacity:0.2;}.cls-4,.cls-6{fill:none;}.cls-4,.cls-5,.cls-6{stroke:#333;stroke-miterlimit:10;}.cls-4,.cls-5{stroke-width:2px;}</style></defs><title>panel-flipcover</title><g id="sprites"><path class="cls-1" d="M115,11H90V5a3,3,0,0,0-3-3H81V53h6a3,3,0,0,0,3-3V44h25a3,3,0,0,0,3-3V14A3,3,0,0,0,115,11Z"/><path class="cls-2" d="M81,2H31a3,3,0,0,0-3,3V50a3,3,0,0,0,3,3H81Z"/><path class="cls-3" d="M31,53H81V37.23L28,48.63V50A3,3,0,0,0,31,53Z"/><path class="cls-4" d="M115,11H90V5a3,3,0,0,0-3-3H31a3,3,0,0,0-3,3V50a3,3,0,0,0,3,3H87a3,3,0,0,0,3-3V44h25a3,3,0,0,0,3-3V14A3,3,0,0,0,115,11Z"/><rect class="cls-5" x="2.5" y="5.5" width="31" height="44" rx="3" ry="3"/><line class="cls-6" x1="12.5" y1="5.5" x2="12.5" y2="49.5"/></g></svg>