<svg xmlns="http://www.w3.org/2000/svg" xmlns:xlink="http://www.w3.org/1999/xlink" viewBox="0 0 164 118"><defs><style>.cls-1,.cls-3{fill:none;}.cls-2{opacity:0.05;}.cls-3{stroke:#333;stroke-miterlimit:10;stroke-width:2px;opacity:0.6;}.cls-4{opacity:0.1;}.cls-5{opacity:0.4;}.cls-6{clip-path:url(#clip-path);}.cls-7{fill:#ff0;}.cls-8{fill:red;}</style><clipPath id="clip-path"><path class="cls-1" d="M38,4,3.5,38.5v55l128,1v21h29V4ZM154.5,109.5h-17v-21l-128-1V41l31-31h114Z"/></clipPath></defs><title>panel-lmabort-cover</title><g id="sprites"><polygon class="cls-2" points="3.5 93.5 3.5 38.5 38 4 160.5 4 160.5 115.5 131.5 115.5 131.5 94.5 3.5 93.5"/><polygon class="cls-3" points="3.5 93.5 3.5 38.5 38 4 160.5 4 160.5 115.5 131.5 115.5 131.5 94.5 3.5 93.5"/><polygon class="cls-4" points="160.5 115.5 160.5 4 167.54 4 53.65 90.89 56.52 93.76 131.5 94.5 131.5 115.5 160.5 115.5"/><g class="cls-5"><g class="cls-6"><rect class="cls-7" x="-111" y="-12" width="316" height="145"/><rect class="cls-8" x="40.88" y="-119.5" width="10" height="398.95" transform="translate(69.99 -9.01) rotate(45)"/><rect class="cls-8" x="55.02" y="-105.36" width="10" height="398.95" transform="translate(84.13 -14.87) rotate(45)"/><rect class="cls-8" x="69.16" y="-91.21" width="10" height="398.95" transform="translate(98.27 -20.73) rotate(45)"/><rect class="cls-8" x="83.3" y="-77.07" width="10" height="398.95" transform="translate(112.42 -26.59) rotate(45)"/><rect class="cls-8" x="97.44" y="-62.93" width="10" height="398.95" transform="translate(126.56 -32.45) rotate(45)"/><rect class="cls-8" x="111.59" y="-48.79" width="10" height="398.95" transform="translate(140.7 -38.3) rotate(45)"/><rect class="cls-8" x="125.73" y="-34.65" width="10" height="398.95" transform="translate(154.84 -44.16) rotate(45)"/><rect class="cls-8" x="139.87" y="-20.5" width="10" height="398.95" transform="translate(168.98 -50.02) rotate(45)"/><rect class="cls-8" x="154.01" y="-6.36" width="10" height="398.95" transform="translate(183.13 -55.88) rotate(45)"/><rect class="cls-8" x="26.73" y="-133.64" width="10" height="398.95" transform="translate(55.85 -3.16) rotate(45)"/><rect class="cls-8" x="12.59" y="-147.78" width="10" height="398.95" transform="translate(41.7 2.7) rotate(45)"/><rect class="cls-8" x="-1.55" y="-161.93" width="10" height="398.95" transform="translate(27.56 8.56) rotate(45)"/><rect class="cls-8" x="-15.69" y="-176.07" width="10" height="398.95" transform="translate(13.42 14.42) rotate(45)"/><rect class="cls-8" x="-29.84" y="-190.21" width="10" height="398.95" transform="translate(-0.72 20.28) rotate(45)"/><rect class="cls-8" x="-43.98" y="-204.35" width="10" height="398.95" transform="translate(-14.86 26.13) rotate(45)"/></g></g></g></svg>