<svg xmlns="http://www.w3.org/2000/svg" viewBox="0 0 60 60"><defs><style>.cls-1{fill:#f2f2f2;}.cls-1,.cls-3,.cls-4{stroke:#333;stroke-miterlimit:10;stroke-width:2px;}.cls-1,.cls-4{stroke-linecap:round;}.cls-2{fill:#333;}.cls-3,.cls-4{fill:none;}</style></defs><title>panel-oxid-gauge</title><g id="sprites"><circle class="cls-1" cx="30" cy="30" r="28"/><path class="cls-2" d="M5,30a24.92,24.92,0,0,1,1.9-9.57L4.13,19.28a28,28,0,0,0,0,21.43L6.9,39.57A24.92,24.92,0,0,1,5,30Z"/><line class="cls-3" x1="45.55" y1="45.55" x2="49.8" y2="49.8"/><line class="cls-3" x1="10.2" y1="10.2" x2="14.45" y2="14.45"/><line class="cls-3" x1="39.08" y1="51.92" x2="40.71" y2="55.87"/><line class="cls-3" x1="19.28" y1="4.13" x2="20.71" y2="7.58"/><line class="cls-3" x1="30" y1="51.49" x2="30" y2="58"/><line class="cls-3" x1="30" y1="2" x2="30" y2="7.5"/><line class="cls-3" x1="21.1" y1="51.49" x2="19.28" y2="55.87"/><line class="cls-3" x1="40.72" y1="4.12" x2="39.44" y2="7.22"/><line class="cls-3" x1="14.94" y1="45.06" x2="10.2" y2="49.8"/><line class="cls-3" x1="49.8" y1="10.2" x2="46.06" y2="13.94"/><line class="cls-4" x1="30" y1="30" x2="13" y2="39"/><circle class="cls-2" cx="30" cy="30" r="2"/></g></svg>