<svg xmlns="http://www.w3.org/2000/svg" viewBox="0 0 50 65"><defs><style>.cls-1{fill:#e6e6e6;}.cls-2{fill:#999;}.cls-3,.cls-6{fill:none;}.cls-3{stroke:#4d4d4d;stroke-width:2px;}.cls-3,.cls-4,.cls-5,.cls-6{stroke-miterlimit:10;}.cls-4{fill:#f2f2f2;stroke:#ccc;}.cls-5{fill:#666;}.cls-5,.cls-6{stroke:#333;}.cls-6{stroke-linecap:round;stroke-width:3px;}.cls-7{fill:gray;}</style></defs><title>panel-plug</title><g id="sprites"><path class="cls-1" d="M25,6.31A18,18,0,0,0,11.91,36.64L41,16.16A18,18,0,0,0,25,6.31Z"/><path class="cls-2" d="M11.91,36.64A18,18,0,0,0,41,16.16Z"/><circle class="cls-3" cx="25" cy="24.31" r="18"/><circle class="cls-4" cx="25" cy="24.31" r="13.5"/><circle class="cls-5" cx="7.5" cy="43.81" r="3"/><path class="cls-6" d="M7.5,44s4,15,11,15,10-28,7-34"/><path class="cls-2" d="M8,43.87a.5.5,0,1,0-1,.26A44.74,44.74,0,0,0,9.4,50.65l.79-.72A45.81,45.81,0,0,1,8,43.87Z"/><path class="cls-7" d="M26.12,35.36c-.28,7.41-1.91,16.49-4.53,20.73-1,1.6-2,2.41-3.09,2.41-3.66,0-6.51-4.55-8.31-8.57l-.79.72c1.93,4.19,5,8.85,9.1,8.85,1.43,0,2.76-1,3.94-2.88C25.3,52,27,42.17,27.15,34.42Z"/><path class="cls-2" d="M25.95,24.78a.5.5,0,0,0-.89.45C26,27,26.29,30.89,26.12,35.36l1-.94C27.23,30.19,26.85,26.58,25.95,24.78Z"/></g></svg>