<svg xmlns="http://www.w3.org/2000/svg" viewBox="0 0 125 125"><defs><style>.cls-1,.cls-7{fill:#b3b3b3;}.cls-1,.cls-6,.cls-8{stroke:#4d4d4d;stroke-miterlimit:10;}.cls-1,.cls-8{stroke-width:2px;}.cls-2{fill:#c4c4c4;}.cls-3{fill:#4d4d4d;}.cls-4{fill:#ccc;}.cls-5{fill:#e6e6e6;}.cls-6,.cls-8{fill:none;}.cls-6{stroke-width:3px;}</style></defs><title>panel-dial</title><g id="sprites"><circle class="cls-1" cx="62.48" cy="62" r="58"/><circle class="cls-2" cx="62.48" cy="62" r="55"/><circle class="cls-3" cx="62.48" cy="14" r="4"/><polygon class="cls-4" points="40.48 62 84.48 62 69.48 22 55.48 22 40.48 62"/><polygon class="cls-5" points="40.48 62 84.48 62 73.48 115 51.48 115 40.48 62"/><polygon class="cls-4" points="54.73 115 46.48 62 40.48 62 51.48 115 54.73 115"/><polygon class="cls-4" points="70.35 115 78.48 62 84.6 62 73.6 115 70.35 115"/><line class="cls-6" x1="62.48" y1="21.5" x2="62.48" y2="43.5"/><polygon class="cls-7" points="46.48 62 56.98 22 55.48 22 40.48 62 46.48 62"/><polygon class="cls-7" points="78.48 62 68.23 22 69.73 22 84.73 62 78.48 62"/><polyline class="cls-8" points="62.48 115 73.48 115 84.48 62 69.48 22 62.48 22 55.48 22 40.48 62 51.48 115 62.48 115"/></g></svg>