<svg xmlns="http://www.w3.org/2000/svg" viewBox="0 0 130 130"><defs><style>.cls-1{fill:#e6e6e6;stroke:#4d4d4d;}.cls-1,.cls-3,.cls-4,.cls-5{stroke-miterlimit:10;}.cls-2{fill:#4d4d4d;}.cls-3,.cls-4,.cls-5{fill:none;}.cls-3,.cls-4{stroke:#e6e6e6;}.cls-3,.cls-5{stroke-width:2px;}.cls-5{stroke:#333;stroke-linecap:round;}</style></defs><title>panel-gauge</title><g id="sprites"><circle class="cls-1" cx="64.5" cy="64.5" r="61"/><circle class="cls-2" cx="64" cy="64" r="13"/><path class="cls-2" d="M64.5,12.5a52,52,0,1,0,52,52A52,52,0,0,0,64.5,12.5ZM64,93A29,29,0,1,1,93,64,29,29,0,0,1,64,93Z"/><line class="cls-3" x1="38.48" y1="76.7" x2="30.9" y2="80.55"/><line class="cls-3" x1="30.11" y1="49.14" x2="37.9" y2="52.55"/><line class="cls-3" x1="52.2" y1="28.93" x2="54.91" y2="36.97"/><line class="cls-3" x1="81.28" y1="31.28" x2="77.31" y2="38.79"/><line class="cls-3" x1="99.52" y1="53.61" x2="91.36" y2="56"/><line class="cls-3" x1="95.37" y1="83.63" x2="88.17" y2="79.12"/><line class="cls-4" x1="31.47" y1="72.02" x2="36.32" y2="70.83"/><line class="cls-4" x1="35.5" y1="61.58" x2="30.62" y2="61.25"/><line class="cls-4" x1="30.62" y1="66.75" x2="35.5" y2="66.27"/><line class="cls-4" x1="31.47" y1="55.99" x2="36.2" y2="57.1"/><line class="cls-4" x1="36.2" y1="45.3" x2="40.36" y2="48.07"/><line class="cls-4" x1="39.82" y1="40.82" x2="43.43" y2="44.28"/><line class="cls-4" x1="43.82" y1="37.26" x2="46.78" y2="41.2"/><line class="cls-4" x1="48.71" y1="34.19" x2="50.97" y2="38.65"/><line class="cls-4" x1="59.88" y1="30.76" x2="60.43" y2="35.72"/><line class="cls-4" x1="70.11" y1="31.06" x2="69.16" y2="35.72"/><line class="cls-4" x1="74.93" y1="32.33" x2="73.21" y2="37.02"/><line class="cls-4" x1="65.31" y1="30.53" x2="65.03" y2="35.5"/><line class="cls-4" x1="84.58" y1="37.57" x2="81.43" y2="41.45"/><line class="cls-4" x1="88.55" y1="41.2" x2="84.81" y2="44.53"/><line class="cls-4" x1="91.8" y1="45.3" x2="87.59" y2="48.01"/><line class="cls-4" x1="94.25" y1="49.59" x2="89.69" y2="51.65"/><line class="cls-4" x1="97.35" y1="60.85" x2="92.37" y2="61.24"/><line class="cls-4" x1="97.46" y1="65.63" x2="92.47" y2="65.3"/><line class="cls-4" x1="96.73" y1="71.16" x2="91.86" y2="70.04"/><line class="cls-4" x1="94.88" y1="77" x2="90.29" y2="75.02"/><line class="cls-5" x1="64.5" y1="64.5" x2="46.5" y2="48.5"/></g></svg>