<svg xmlns="http://www.w3.org/2000/svg" xmlns:xlink="http://www.w3.org/1999/xlink" viewBox="0 0 78 78"><defs><style>.cls-1,.cls-6{fill:none;}.cls-2{fill:#b3b3b3;}.cls-2,.cls-5,.cls-6{stroke:#4d4d4d;stroke-miterlimit:10;}.cls-3{fill:#ccc;}.cls-4,.cls-5{fill:#e6e6e6;}.cls-7{opacity:0.4;}.cls-8{clip-path:url(#clip-path);}.cls-9{fill:#ff0;}.cls-10{fill:red;}</style><clipPath id="clip-path"><path class="cls-1" d="M199,30,164.5,64.5v55l128,1v21h29V30ZM315.5,135.5h-17v-21l-128-1V67l31-31h114Z"/></clipPath></defs><title>panel-o2-dial</title><g id="sprites"><circle class="cls-2" cx="38.5" cy="39.5" r="31"/><circle class="cls-3" cx="38.5" cy="39.5" r="27.5"/><rect class="cls-4" x="27.5" y="48.5" width="22" height="24"/><polygon class="cls-5" points="45.5 2.5 31.5 2.5 25.5 26.5 51.5 26.5 45.5 2.5"/><polygon class="cls-2" points="39.31 2.5 37.69 2.5 37 26.5 40 26.5 39.31 2.5"/><polygon class="cls-3" points="49.5 59 47.13 70.31 27.5 71 27.5 72.5 49.5 72.5 49.5 59"/><rect class="cls-6" x="27.5" y="48.5" width="22" height="24"/><circle class="cls-2" cx="38.5" cy="39.5" r="21"/><circle class="cls-3" cx="38.5" cy="39.5" r="19"/><g class="cls-7"><g class="cls-8"><rect class="cls-9" x="50" y="14" width="316" height="145"/><rect class="cls-10" x="201.88" y="-93.5" width="10" height="398.95" transform="translate(135.53 -115.24) rotate(45)"/><rect class="cls-10" x="216.02" y="-79.36" width="10" height="398.95" transform="translate(149.67 -121.1) rotate(45)"/><rect class="cls-10" x="187.73" y="-107.64" width="10" height="398.95" transform="translate(121.39 -109.39) rotate(45)"/><rect class="cls-10" x="173.59" y="-121.78" width="10" height="398.95" transform="translate(107.25 -103.53) rotate(45)"/><rect class="cls-10" x="159.45" y="-135.93" width="10" height="398.95" transform="translate(93.1 -97.67) rotate(45)"/><rect class="cls-10" x="145.31" y="-150.07" width="10" height="398.95" transform="translate(78.96 -91.81) rotate(45)"/><rect class="cls-10" x="131.16" y="-164.21" width="10" height="398.95" transform="translate(64.82 -85.95) rotate(45)"/><rect class="cls-10" x="117.02" y="-178.35" width="10" height="398.95" transform="translate(50.68 -80.1) rotate(45)"/></g></g></g></svg>