<svg id="Layer_1" data-name="Layer 1" xmlns="http://www.w3.org/2000/svg" viewBox="0 0 188.89 72.56"><title>s-ivb</title><rect x="30.14" y="33.22" width="4" height="6.5" transform="translate(68.61 4.33) rotate(90)" style="fill:#818181;stroke:#010101;stroke-miterlimit:10;stroke-width:2px"/><path d="M5.64,26.22v21c7,0,23.5-8.5,23.5-8.5v-4S13.64,26.22,5.64,26.22Z" style="fill:#818181;stroke:#010101;stroke-miterlimit:10;stroke-width:2px"/><line x1="23.89" y1="32.07" x2="23.89" y2="41.25" style="fill:none;stroke:#010101;stroke-miterlimit:10;stroke-width:0.5px"/><line x1="22.89" y1="31.59" x2="22.89" y2="41.71" style="fill:none;stroke:#010101;stroke-miterlimit:10;stroke-width:0.5px"/><line x1="24.89" y1="32.55" x2="24.89" y2="40.79" style="fill:none;stroke:#010101;stroke-miterlimit:10;stroke-width:0.5px"/><line x1="25.89" y1="33.04" x2="25.89" y2="40.32" style="fill:none;stroke:#010101;stroke-miterlimit:10;stroke-width:0.5px"/><line x1="26.89" y1="33.54" x2="26.89" y2="39.84" style="fill:none;stroke:#010101;stroke-miterlimit:10;stroke-width:0.5px"/><line x1="27.89" y1="34.06" x2="27.89" y2="39.35" style="fill:none;stroke:#010101;stroke-miterlimit:10;stroke-width:0.75px"/><path d="M7.52,48V25.4A.36.36,0,0,1,7.89,25a.37.37,0,0,1,.38.37V48a.37.37,0,0,1-.38.37A.36.36,0,0,1,7.52,48Z" style="fill:#b4b4b4;stroke:#010101;stroke-miterlimit:10;stroke-width:0.25px"/><path d="M9,47.69v-22a.37.37,0,0,1,.37-.37.38.38,0,0,1,.38.37v22a.38.38,0,0,1-.38.38A.37.37,0,0,1,9,47.69Z" style="fill:#b4b4b4;stroke:#010101;stroke-miterlimit:10;stroke-width:0.25px"/><path d="M10.52,47.3V26a.37.37,0,0,1,.37-.37.38.38,0,0,1,.38.37V47.3a.38.38,0,0,1-.38.38A.37.37,0,0,1,10.52,47.3Z" style="fill:#b4b4b4;stroke:#010101;stroke-miterlimit:10;stroke-width:0.25px"/><path d="M12,46.85V26.46a.37.37,0,0,1,.37-.38.38.38,0,0,1,.38.38V46.85a.38.38,0,0,1-.38.38A.37.37,0,0,1,12,46.85Z" style="fill:#b4b4b4;stroke:#010101;stroke-miterlimit:10;stroke-width:0.25px"/><path d="M13.52,46.35V26.93a.37.37,0,0,1,.37-.37.38.38,0,0,1,.38.37V46.35a.38.38,0,0,1-.38.38A.37.37,0,0,1,13.52,46.35Z" style="fill:#b4b4b4;stroke:#010101;stroke-miterlimit:10;stroke-width:0.25px"/><path d="M15,45.81V27.46a.37.37,0,0,1,.37-.38.38.38,0,0,1,.38.38V45.81a.38.38,0,0,1-.38.38A.37.37,0,0,1,15,45.81Z" style="fill:#b4b4b4;stroke:#010101;stroke-miterlimit:10;stroke-width:0.25px"/><path d="M16.52,45.24V28a.37.37,0,0,1,.37-.37.38.38,0,0,1,.38.37V45.24a.38.38,0,0,1-.38.38A.37.37,0,0,1,16.52,45.24Z" style="fill:#b4b4b4;stroke:#010101;stroke-miterlimit:10;stroke-width:0.25px"/><polygon points="20.39 43.47 21.89 43.47 25.89 42.97 26.39 42.47 26.39 41.97 25.39 41.47 22.39 41.97 20.86 42.47 20.39 43.47" style="fill:#ccc;stroke:#010101;stroke-miterlimit:10;stroke-width:0.5px"/><path d="M28.89,31c0-.55-1.35-1.1-3-1.22l-1-.07c-1.64-.12-3.21-.55-3.49-1s-.72-.53-1-.25a2.84,2.84,0,0,0-.25,2c.14.82,1.6,1.5,3.25,1.5h2.5C27.54,32,28.89,31.52,28.89,31Z" style="fill:#ccc"/><path d="M28.89,31c0-.55-1.35-1.1-3-1.22l-1-.07c-1.64-.12-3.21-.55-3.49-1s-.72-.53-1-.25a2.84,2.84,0,0,0-.25,2c.14.82,1.6,1.5,3.25,1.5h2.5C27.54,32,28.89,31.52,28.89,31Z" style="fill:none;stroke:#010101;stroke-miterlimit:10;stroke-width:0.5px"/><path d="M20.89,43V39.83h0c.06-1.49.49-4.2.49-6.09V29a1,1,0,0,0-2,0v5c0,1.75.5,3.75.5,5.86h0V43a.51.51,0,0,0,.5.5A.5.5,0,0,0,20.89,43Z" style="fill:#ccc;stroke:#010101;stroke-miterlimit:10;stroke-width:0.5px"/><line x1="21.89" y1="42.13" x2="21.89" y2="43.47" style="fill:none;stroke:#010101;stroke-miterlimit:10;stroke-width:0.25px"/><line x1="23.39" y1="41.8" x2="23.39" y2="43.28" style="fill:none;stroke:#010101;stroke-miterlimit:10;stroke-width:0.25px"/><line x1="23.89" y1="41.72" x2="23.89" y2="43.22" style="fill:none;stroke:#010101;stroke-miterlimit:10;stroke-width:0.25px"/><path d="M33.39,40.09v-.25h1a1.21,1.21,0,0,0,1.38-1.37H36a1.46,1.46,0,0,1-1.63,1.62Z" style="fill:#818181;stroke:#010101;stroke-miterlimit:10;stroke-width:0.25px"/><rect x="31.89" y="38.47" width="1.5" height="2.5" transform="translate(72.36 7.08) rotate(90)" style="fill:#818181;stroke:#010101;stroke-miterlimit:10;stroke-width:0.5px"/><path d="M31.89,38.47v3h-2a1.62,1.62,0,0,1,0-3Z" style="fill:#989898;stroke:#010101;stroke-miterlimit:10;stroke-width:0.5px"/><polygon points="34.39 42.99 34.39 41.47 33.89 40.97 29.39 40.97 29.39 43.47 33.89 43.47 34.39 42.99" style="fill:#b4b4b4;stroke:#010101;stroke-miterlimit:10;stroke-width:0.5px"/><circle cx="27.89" cy="41.97" r="2.5" style="fill:#ccc;stroke:#010101;stroke-miterlimit:10;stroke-width:0.5px"/><path d="M20.39,37.72a.71.71,0,0,1,.07-.32.75.75,0,0,1,1-.36L30,41a.74.74,0,0,1,.36,1,.76.76,0,0,1-1,.36l-8.5-4A.76.76,0,0,1,20.39,37.72Z" style="fill:#989898;stroke:#010101;stroke-miterlimit:10;stroke-width:0.5px"/><path d="M31.64,33a36.51,36.51,0,0,1,5.5-.5c1.51,0,2.75-.56,2.75-1.25S38.65,30,37.14,30a26.21,26.21,0,0,1-5.56-.74c-1.55-.4-2.78.39-2.75,1.75A2.21,2.21,0,0,0,31.64,33Z" style="fill:#b4b4b4"/><path d="M31.64,33a36.51,36.51,0,0,1,5.5-.5c1.51,0,2.75-.56,2.75-1.25S38.65,30,37.14,30a26.21,26.21,0,0,1-5.56-.74c-1.55-.4-2.78.39-2.75,1.75A2.21,2.21,0,0,0,31.64,33Z" style="fill:none;stroke:#010101;stroke-miterlimit:10;stroke-width:0.5px"/><circle cx="28.89" cy="30.97" r="2.5" style="fill:#ccc;stroke:#010101;stroke-miterlimit:10;stroke-width:0.5px"/><path d="M28.89,36.47a.47.47,0,0,1,.15-.35l3.5-3.5a.5.5,0,0,1,.71,0,.5.5,0,0,1,0,.7l-3.5,3.5a.5.5,0,0,1-.71,0A.49.49,0,0,1,28.89,36.47Z" style="fill:#989898;stroke:#010101;stroke-miterlimit:10;stroke-width:0.75px"/><path d="M32.39,33.22a.75.75,0,0,1,1.32-.5l3.5,4a.76.76,0,0,1-.07,1.06.75.75,0,0,1-1.06-.07l-3.5-4A.72.72,0,0,1,32.39,33.22Z" style="fill:#989898;stroke:#010101;stroke-miterlimit:10;stroke-width:0.75px"/><polygon points="40.39 43.47 40.39 40.47 34.39 40.97 34.39 43.47 40.39 43.47" style="fill:#b4b4b4;stroke:#010101;stroke-miterlimit:10;stroke-width:0.5px"/><path d="M59.14,7.22a3,3,0,0,0-3,3v52.5a3,3,0,0,0,3,3h104a42.55,42.55,0,0,0,6-.51l11.58-2a3.7,3.7,0,0,0,3-3.51V13.22a3.7,3.7,0,0,0-3-3.51l-11.58-2a42.55,42.55,0,0,0-6-.51Z" style="fill:#fff"/><polygon points="84.64 7.22 70.14 7.22 70.14 38.72 56.14 38.72 56.14 65.72 70.14 65.72 84.64 65.72 84.64 7.22" style="fill:#333"/><polygon points="56.14 14.8 35.64 35.22 35.64 37.72 56.14 59.55 56.14 14.8" style="fill:#989898"/><rect x="131.39" y="30.97" width="58.5" height="11" transform="translate(197.11 -124.17) rotate(90)" style="fill:#333"/><polygon points="132.12 48.74 132.12 43.2 133.6 41.72 143.45 41.72 143.45 43.13 134.19 43.13 133.54 43.78 133.54 48.15 134.19 48.8 143.45 48.8 143.45 50.22 133.6 50.22 132.12 48.74" style="fill:#c1282d"/><polygon points="104.77 46.72 104.77 45.22 94.14 41.72 94.14 42.43 94.14 43.17 102.53 45.97 94.14 48.76 94.14 49.51 94.14 50.22 104.77 46.72" style="fill:#c1282d"/><rect x="96.09" y="43.14" width="1.42" height="5.49" style="fill:#c1282d"/><polygon points="112.42 48.74 112.42 43.2 113.9 41.72 115.79 41.72 115.79 43.13 114.49 43.13 113.84 43.78 113.84 48.15 114.49 48.8 117.09 48.8 117.73 48.15 117.73 43.2 119.21 41.72 122.99 41.72 124.46 43.2 124.46 48.74 122.99 50.22 121.1 50.22 121.1 48.8 122.4 48.8 123.05 48.15 123.05 43.78 122.4 43.13 119.8 43.13 119.15 43.78 119.15 48.74 117.67 50.22 113.9 50.22 112.42 48.74" style="fill:#c1282d"/><line x1="84.64" y1="10.22" x2="56.14" y2="10.22" style="fill:none;stroke:#010101;stroke-miterlimit:10;opacity:0.15"/><line x1="84.64" y1="12.72" x2="56.14" y2="12.72" style="fill:none;stroke:#010101;stroke-miterlimit:10;opacity:0.15"/><line x1="84.64" y1="15.22" x2="56.14" y2="15.22" style="fill:none;stroke:#010101;stroke-miterlimit:10;opacity:0.15"/><line x1="84.64" y1="17.72" x2="56.14" y2="17.72" style="fill:none;stroke:#010101;stroke-miterlimit:10;opacity:0.15"/><line x1="84.64" y1="20.22" x2="56.14" y2="20.22" style="fill:none;stroke:#010101;stroke-miterlimit:10;opacity:0.15"/><line x1="84.64" y1="22.72" x2="56.14" y2="22.72" style="fill:none;stroke:#010101;stroke-miterlimit:10;opacity:0.15"/><line x1="84.64" y1="25.22" x2="56.14" y2="25.22" style="fill:none;stroke:#010101;stroke-miterlimit:10;opacity:0.15"/><line x1="84.64" y1="27.72" x2="56.14" y2="27.72" style="fill:none;stroke:#010101;stroke-miterlimit:10;opacity:0.15"/><line x1="84.64" y1="30.22" x2="56.14" y2="30.22" style="fill:none;stroke:#010101;stroke-miterlimit:10;opacity:0.15"/><line x1="84.64" y1="32.72" x2="56.14" y2="32.72" style="fill:none;stroke:#010101;stroke-miterlimit:10;opacity:0.15"/><line x1="84.64" y1="35.22" x2="56.14" y2="35.22" style="fill:none;stroke:#010101;stroke-miterlimit:10;opacity:0.15"/><line x1="84.64" y1="37.72" x2="56.14" y2="37.72" style="fill:none;stroke:#010101;stroke-miterlimit:10;opacity:0.15"/><line x1="84.64" y1="40.22" x2="56.14" y2="40.22" style="fill:none;stroke:#010101;stroke-miterlimit:10;opacity:0.15"/><line x1="84.64" y1="42.72" x2="56.14" y2="42.72" style="fill:none;stroke:#010101;stroke-miterlimit:10;opacity:0.15"/><line x1="84.64" y1="45.22" x2="56.14" y2="45.22" style="fill:none;stroke:#010101;stroke-miterlimit:10;opacity:0.15"/><line x1="84.64" y1="47.72" x2="56.14" y2="47.72" style="fill:none;stroke:#010101;stroke-miterlimit:10;opacity:0.15"/><line x1="84.64" y1="50.22" x2="56.14" y2="50.22" style="fill:none;stroke:#010101;stroke-miterlimit:10;opacity:0.15"/><line x1="84.64" y1="52.72" x2="56.14" y2="52.72" style="fill:none;stroke:#010101;stroke-miterlimit:10;opacity:0.15"/><line x1="84.64" y1="55.22" x2="56.14" y2="55.22" style="fill:none;stroke:#010101;stroke-miterlimit:10;opacity:0.15"/><line x1="84.64" y1="57.72" x2="56.14" y2="57.72" style="fill:none;stroke:#010101;stroke-miterlimit:10;opacity:0.15"/><line x1="84.64" y1="60.22" x2="56.14" y2="60.22" style="fill:none;stroke:#010101;stroke-miterlimit:10;opacity:0.15"/><line x1="84.64" y1="62.72" x2="56.14" y2="62.72" style="fill:none;stroke:#010101;stroke-miterlimit:10;opacity:0.15"/><line x1="165.64" y1="10.22" x2="148.64" y2="10.22" style="fill:none;stroke:#010101;stroke-miterlimit:10;opacity:0.15"/><line x1="165.64" y1="12.72" x2="148.64" y2="12.72" style="fill:none;stroke:#010101;stroke-miterlimit:10;opacity:0.15"/><line x1="165.64" y1="15.22" x2="148.64" y2="15.22" style="fill:none;stroke:#010101;stroke-miterlimit:10;opacity:0.15"/><line x1="165.64" y1="17.72" x2="148.64" y2="17.72" style="fill:none;stroke:#010101;stroke-miterlimit:10;opacity:0.15"/><line x1="165.64" y1="20.22" x2="148.64" y2="20.22" style="fill:none;stroke:#010101;stroke-miterlimit:10;opacity:0.15"/><line x1="165.64" y1="22.72" x2="148.64" y2="22.72" style="fill:none;stroke:#010101;stroke-miterlimit:10;opacity:0.15"/><line x1="165.64" y1="25.22" x2="148.64" y2="25.22" style="fill:none;stroke:#010101;stroke-miterlimit:10;opacity:0.15"/><line x1="165.64" y1="27.72" x2="148.64" y2="27.72" style="fill:none;stroke:#010101;stroke-miterlimit:10;opacity:0.15"/><line x1="165.64" y1="30.22" x2="148.64" y2="30.22" style="fill:none;stroke:#010101;stroke-miterlimit:10;opacity:0.15"/><line x1="165.64" y1="32.72" x2="148.64" y2="32.72" style="fill:none;stroke:#010101;stroke-miterlimit:10;opacity:0.15"/><line x1="165.64" y1="35.22" x2="148.64" y2="35.22" style="fill:none;stroke:#010101;stroke-miterlimit:10;opacity:0.15"/><line x1="165.64" y1="37.72" x2="148.64" y2="37.72" style="fill:none;stroke:#010101;stroke-miterlimit:10;opacity:0.15"/><line x1="165.64" y1="40.22" x2="148.64" y2="40.22" style="fill:none;stroke:#010101;stroke-miterlimit:10;opacity:0.15"/><line x1="165.64" y1="42.72" x2="148.64" y2="42.72" style="fill:none;stroke:#010101;stroke-miterlimit:10;opacity:0.15"/><line x1="165.64" y1="45.22" x2="148.64" y2="45.22" style="fill:none;stroke:#010101;stroke-miterlimit:10;opacity:0.15"/><line x1="165.64" y1="47.72" x2="148.64" y2="47.72" style="fill:none;stroke:#010101;stroke-miterlimit:10;opacity:0.15"/><line x1="165.64" y1="50.22" x2="148.64" y2="50.22" style="fill:none;stroke:#010101;stroke-miterlimit:10;opacity:0.15"/><line x1="165.64" y1="52.72" x2="148.64" y2="52.72" style="fill:none;stroke:#010101;stroke-miterlimit:10;opacity:0.15"/><line x1="165.64" y1="55.22" x2="148.64" y2="55.22" style="fill:none;stroke:#010101;stroke-miterlimit:10;opacity:0.15"/><line x1="165.64" y1="57.72" x2="148.64" y2="57.72" style="fill:none;stroke:#010101;stroke-miterlimit:10;opacity:0.15"/><line x1="165.64" y1="60.22" x2="148.64" y2="60.22" style="fill:none;stroke:#010101;stroke-miterlimit:10;opacity:0.15"/><line x1="165.64" y1="62.72" x2="148.64" y2="62.72" style="fill:none;stroke:#010101;stroke-miterlimit:10;opacity:0.15"/><line x1="183.64" y1="12.91" x2="166.14" y2="10.22" style="fill:none;stroke:#010101;stroke-miterlimit:10;opacity:0.15"/><line x1="183.64" y1="15.16" x2="166.14" y2="12.72" style="fill:none;stroke:#010101;stroke-miterlimit:10;opacity:0.15"/><line x1="183.64" y1="17.41" x2="166.14" y2="15.22" style="fill:none;stroke:#010101;stroke-miterlimit:10;opacity:0.15"/><line x1="183.64" y1="19.66" x2="166.14" y2="17.72" style="fill:none;stroke:#010101;stroke-miterlimit:10;opacity:0.15"/><line x1="183.64" y1="21.91" x2="166.14" y2="20.22" style="fill:none;stroke:#010101;stroke-miterlimit:10;opacity:0.15"/><line x1="183.64" y1="24.16" x2="166.14" y2="22.72" style="fill:none;stroke:#010101;stroke-miterlimit:10;opacity:0.15"/><line x1="183.64" y1="26.41" x2="166.14" y2="25.22" style="fill:none;stroke:#010101;stroke-miterlimit:10;opacity:0.15"/><line x1="183.64" y1="28.66" x2="166.14" y2="27.72" style="fill:none;stroke:#010101;stroke-miterlimit:10;opacity:0.15"/><line x1="183.64" y1="30.91" x2="166.14" y2="30.22" style="fill:none;stroke:#010101;stroke-miterlimit:10;opacity:0.15"/><line x1="183.64" y1="33.16" x2="166.14" y2="32.72" style="fill:none;stroke:#010101;stroke-miterlimit:10;opacity:0.15"/><line x1="183.64" y1="35.41" x2="166.14" y2="35.22" style="fill:none;stroke:#010101;stroke-miterlimit:10;opacity:0.15"/><line x1="183.64" y1="37.66" x2="166.14" y2="37.72" style="fill:none;stroke:#010101;stroke-miterlimit:10;opacity:0.15"/><line x1="183.64" y1="39.91" x2="166.14" y2="40.22" style="fill:none;stroke:#010101;stroke-miterlimit:10;opacity:0.15"/><line x1="183.64" y1="42.16" x2="166.14" y2="42.72" style="fill:none;stroke:#010101;stroke-miterlimit:10;opacity:0.15"/><line x1="183.64" y1="44.41" x2="166.14" y2="45.22" style="fill:none;stroke:#010101;stroke-miterlimit:10;opacity:0.15"/><line x1="183.64" y1="46.66" x2="166.14" y2="47.72" style="fill:none;stroke:#010101;stroke-miterlimit:10;opacity:0.15"/><line x1="183.64" y1="48.91" x2="166.14" y2="50.22" style="fill:none;stroke:#010101;stroke-miterlimit:10;opacity:0.15"/><line x1="183.64" y1="51.16" x2="166.14" y2="52.72" style="fill:none;stroke:#010101;stroke-miterlimit:10;opacity:0.15"/><line x1="183.64" y1="53.41" x2="166.14" y2="55.22" style="fill:none;stroke:#010101;stroke-miterlimit:10;opacity:0.15"/><line x1="183.64" y1="55.66" x2="166.14" y2="57.72" style="fill:none;stroke:#010101;stroke-miterlimit:10;opacity:0.15"/><line x1="183.64" y1="57.91" x2="166.14" y2="60.22" style="fill:none;stroke:#010101;stroke-miterlimit:10;opacity:0.15"/><line x1="183.64" y1="60.15" x2="166.14" y2="62.72" style="fill:none;stroke:#010101;stroke-miterlimit:10;opacity:0.15"/><polygon points="56.14 65.72 56.14 52.72 166.14 52.72 183.64 51.22 183.64 63.72 166.14 65.72 56.14 65.72" style="fill:#010101;opacity:0.07"/><polygon points="56.14 65.72 56.14 61.22 166.14 61.22 183.64 58.72 183.64 62.72 166.14 65.72 56.14 65.72" style="fill:#010101;opacity:0.12"/><polygon points="55.64 58.72 35.64 37.72 35.64 35.72 55.64 47.22 55.64 58.72" style="fill:#010101;opacity:0.07"/><polygon points="55.64 58.72 35.64 37.72 35.64 35.72 55.64 54.22 55.64 58.72" style="fill:#010101;opacity:0.12"/><path d="M59.14,7.22a3,3,0,0,0-3,3v52.5a3,3,0,0,0,3,3h104a42.55,42.55,0,0,0,6-.51l11.58-2a3.7,3.7,0,0,0,3-3.51V13.22a3.7,3.7,0,0,0-3-3.51l-11.58-2a42.55,42.55,0,0,0-6-.51Z" style="fill:none;stroke:#010101;stroke-miterlimit:10;stroke-width:2px"/><polygon points="56.14 14.8 35.64 35.22 35.64 37.72 56.14 59.55 56.14 14.8" style="fill:none;stroke:#010101;stroke-miterlimit:10;stroke-width:2px"/><line x1="166.14" y1="7.22" x2="166.14" y2="65.72" style="fill:none;stroke:#010101;stroke-miterlimit:10"/><path d="M61.14,38.72a2,2,0,0,1,2-2h25.5l3.5,2-3.5,2H63.14A2,2,0,0,1,61.14,38.72Z" style="fill:#ccc;stroke:#010101;stroke-miterlimit:10"/><line x1="36.14" y1="35.72" x2="56.14" y2="24.22" style="fill:none;stroke:#010101;stroke-miterlimit:10;stroke-width:0.5px"/><line x1="54.64" y1="38.72" x2="36.14" y2="36.22" style="fill:#b4b4b4;stroke:#010101;stroke-miterlimit:10;stroke-width:0.75px"/><path d="M35.14,36.22a.34.34,0,0,1,0-.1,1,1,0,0,1,1.09-.9l18.5,2.5a1,1,0,1,1-.2,2L36,37.21A1,1,0,0,1,35.14,36.22Z" style="fill:#b4b4b4;stroke:#010101;stroke-miterlimit:10;stroke-width:0.75px"/><line x1="36.14" y1="37.22" x2="56.14" y2="48.72" style="fill:none;stroke:#010101;stroke-miterlimit:10;stroke-width:0.5px"/><path d="M64.14,38.72l-2.43-1.39a2,2,0,0,0,1.43,3.39h25.5l-3-1Z" style="fill:#010101;opacity:0.09"/><path d="M54.68,39.71l-1-1.12L38,36.47l-.87-1.13-.88-.12a1,1,0,0,0-1.09.9.34.34,0,0,0,0,.1,1,1,0,0,0,.9,1l18.5,2.5Z" style="fill:#010101;opacity:0.09"/></svg>