<svg id="Layer_1" data-name="Layer 1" xmlns="http://www.w3.org/2000/svg" viewBox="0 0 150 128"><title>sm</title><path d="M5.64,40.5V88c22,0,49.25-17,49.25-17V58S24.14,40.5,5.64,40.5Z" style="fill:#676767"/><path d="M32.2,47.16C23.31,43.58,13.4,40.5,5.64,40.5V88c8.71,0,18.23-2.66,26.56-5.88Z" style="fill:#4e4e4e"/><line x1="32.2" y1="47.16" x2="32.2" y2="82.26" style="fill:none;stroke:#010101;stroke-miterlimit:10"/><path d="M5.64,40.5V88c22,0,49.25-17,49.25-17V58S24.14,40.5,5.64,40.5Z" style="fill:none;stroke:#010101;stroke-miterlimit:10;stroke-width:3px"/><path d="M58.56,37.12S54,37.75,54,43.37v42.5c0,5.13,4.54,4.5,4.54,4.5Z" style="fill:#818181"/><rect x="65.89" y="21.5" width="70" height="85" transform="translate(164.89 -36.89) rotate(90)" style="fill:#b4b4b4"/><rect x="50.39" y="44" width="51" height="28" transform="translate(133.89 -17.89) rotate(90)" style="fill:#d7d7d7"/><rect x="129.89" y="37.5" width="13" height="13" transform="translate(180.39 -92.39) rotate(90)" style="fill:#d7d7d7"/><rect x="129.89" y="64.5" width="13" height="13" transform="translate(207.39 -65.39) rotate(90)" style="fill:#d7d7d7"/><rect x="129.89" y="81.5" width="13" height="13" transform="translate(224.39 -48.39) rotate(90)" style="fill:#d7d7d7"/><line x1="84.89" y1="36.5" x2="84.89" y2="79.5" style="fill:none;stroke:#010101;stroke-miterlimit:10;stroke-width:3px;opacity:0.5"/><line x1="138.89" y1="39.5" x2="138.89" y2="48.5" style="fill:none;stroke:#010101;stroke-miterlimit:10;stroke-width:2px;opacity:0.5"/><line x1="135.89" y1="39.5" x2="135.89" y2="48.5" style="fill:none;stroke:#010101;stroke-miterlimit:10;stroke-width:2px;opacity:0.5"/><line x1="132.89" y1="39.5" x2="132.89" y2="48.5" style="fill:none;stroke:#010101;stroke-miterlimit:10;stroke-width:2px;opacity:0.5"/><line x1="138.89" y1="66.5" x2="138.89" y2="75.5" style="fill:none;stroke:#010101;stroke-miterlimit:10;stroke-width:2px;opacity:0.5"/><line x1="135.89" y1="66.5" x2="135.89" y2="75.5" style="fill:none;stroke:#010101;stroke-miterlimit:10;stroke-width:2px;opacity:0.5"/><line x1="132.89" y1="66.5" x2="132.89" y2="75.5" style="fill:none;stroke:#010101;stroke-miterlimit:10;stroke-width:2px;opacity:0.5"/><line x1="138.89" y1="83.5" x2="138.89" y2="92.5" style="fill:none;stroke:#010101;stroke-miterlimit:10;stroke-width:2px;opacity:0.5"/><line x1="135.89" y1="83.5" x2="135.89" y2="92.5" style="fill:none;stroke:#010101;stroke-miterlimit:10;stroke-width:2px;opacity:0.5"/><line x1="132.89" y1="83.5" x2="132.89" y2="92.5" style="fill:none;stroke:#010101;stroke-miterlimit:10;stroke-width:2px;opacity:0.5"/><line x1="78.89" y1="36.5" x2="78.89" y2="79.5" style="fill:none;stroke:#010101;stroke-miterlimit:10;stroke-width:3px;opacity:0.5"/><line x1="72.89" y1="36.5" x2="72.89" y2="79.5" style="fill:none;stroke:#010101;stroke-miterlimit:10;stroke-width:3px;opacity:0.5"/><line x1="66.89" y1="36.5" x2="66.89" y2="79.5" style="fill:none;stroke:#010101;stroke-miterlimit:10;stroke-width:3px;opacity:0.5"/><rect x="87.89" y="43.5" width="26" height="85" transform="translate(186.89 -14.89) rotate(90)" style="fill:#010101;opacity:0.07"/><rect x="97.14" y="52.75" width="7.5" height="85" transform="translate(196.14 -5.64) rotate(90)" style="fill:#010101;opacity:0.12"/><path d="M58.56,90.37V63.5H54V85.87C54,91,58.56,90.37,58.56,90.37Z" style="fill:#010101;opacity:0.07"/><path d="M58.56,90.37V78.5H54v7.37C54,91,58.56,90.37,58.56,90.37Z" style="fill:#010101;opacity:0.12"/><path d="M54,63.75S31.89,75.5,5.89,75.5v12c22,1,48.13-16,48.13-16Z" style="fill:#010101;opacity:0.07"/><path d="M54,69.75S31.89,81.5,5.89,81.5v6c22,1,48.13-16,48.13-16Z" style="fill:#010101;opacity:0.12"/><rect x="93.39" y="-2" width="14" height="85" transform="translate(140.89 -59.89) rotate(90)" style="fill:#fff;opacity:0.21"/><rect x="97.39" y="-3" width="6" height="85" transform="translate(139.89 -60.89) rotate(90)" style="fill:#fff;opacity:0.2"/><rect x="58.39" y="29" width="85" height="70" rx="1" style="fill:none;stroke:#010101;stroke-miterlimit:10;stroke-width:3px"/><path d="M57.89,36.5s-4,1.37-4,7v42c0,5.12,4,5,4,5Z" style="fill:none;stroke:#010101;stroke-miterlimit:10;stroke-width:3px"/><line x1="129.89" y1="87.5" x2="61.89" y2="87.5" style="fill:none;stroke:#010101;stroke-miterlimit:10"/><line x1="129.39" y1="29" x2="129.39" y2="99" style="fill:none;stroke:#010101;stroke-miterlimit:10"/><polygon points="116.39 64 122.39 66 123.39 66 123.39 62 122.39 62 116.39 64" style="fill:#989898;stroke:#010101;stroke-miterlimit:10"/><polygon points="116.39 27 122.39 29 123.39 29 123.39 25 122.39 25 116.39 27" style="fill:#989898;stroke:#010101;stroke-miterlimit:10"/><polygon points="112.39 27 106.39 29 105.39 29 105.39 25 106.39 25 112.39 27" style="fill:#989898;stroke:#010101;stroke-miterlimit:10"/><polygon points="113.39 64 107.39 66 106.39 66 106.39 62 107.39 62 113.39 64" style="fill:#989898;stroke:#010101;stroke-miterlimit:10"/><polygon points="114.89 64.5 116.89 70.5 116.89 71.5 112.89 71.5 112.89 70.5 114.89 64.5" style="fill:#989898;stroke:#010101;stroke-miterlimit:10"/><polygon points="114.89 63.5 116.89 57.5 116.89 56.5 112.89 56.5 112.89 57.5 114.89 63.5" style="fill:#989898;stroke:#010101;stroke-miterlimit:10"/><rect x="112.39" y="60" width="5" height="8" transform="translate(178.89 -50.89) rotate(90)" style="fill:#ccc;stroke:#010101;stroke-miterlimit:10"/><polygon points="109.89 28.5 110.89 25.5 117.89 25.5 118.89 28.5 109.89 28.5" style="fill:#ccc;stroke:#010101;stroke-miterlimit:10"/><circle cx="114.39" cy="27" r="2" style="fill:#676767;stroke:#010101;stroke-miterlimit:10"/><polygon points="116.39 101 122.39 99 123.39 99 123.39 103 122.39 103 116.39 101" style="fill:#989898;stroke:#010101;stroke-miterlimit:10"/><polygon points="112.39 101 106.39 99 105.39 99 105.39 103 106.39 103 112.39 101" style="fill:#989898;stroke:#010101;stroke-miterlimit:10"/><polygon points="109.89 99.5 110.89 102.5 117.89 102.5 118.89 99.5 109.89 99.5" style="fill:#ccc;stroke:#010101;stroke-miterlimit:10"/><circle cx="114.39" cy="101" r="2" style="fill:#676767;stroke:#010101;stroke-miterlimit:10"/><polygon points="110.89 63.5 118.89 65.5 118.89 66.5 110.89 66.5 110.89 63.5" style="fill:#010101;opacity:0.09"/></svg>