<?xml version="1.0" standalone="no"?>
<!DOCTYPE svg PUBLIC "-//W3C//DTD SVG 1.1//EN" "http://www.w3.org/Graphics/SVG/1.1/DTD/svg11.dtd" >
<svg xmlns="http://www.w3.org/2000/svg">
<metadata>Generated by IcoMoon</metadata>
<defs>
<font id="icons" horiz-adv-x="1024">
<font-face units-per-em="1024" ascent="960" descent="-64" />
<missing-glyph horiz-adv-x="1024" />
<glyph unicode="&#x20;" horiz-adv-x="512" d="" />
<glyph unicode="&#xe900;" glyph-name="icons_play" d="M336 130.72l414.72 318.72-414.72 318.88v-637.6z" />
<glyph unicode="&#xe901;" glyph-name="icons_pause" d="M224 736h208v-576h-208v576zM592 736h208v-576h-208v576z" />
<glyph unicode="&#xe902;" glyph-name="icons_hopback" d="M290.080 637.44l64-49.44c-53.796-45.298-87.741-112.685-87.741-188 0-135.464 109.816-245.28 245.28-245.28s245.28 109.816 245.28 245.28c0 135.33-109.598 245.063-244.878 245.28h-8.821v-114.56l-205.12 157.28 205.12 157.6v-120.64h8.8c0.196 0 0.428 0.001 0.66 0.001 180.001 0 325.92-145.919 325.92-325.92s-145.919-325.92-325.92-325.92c-180.001 0-325.92 145.919-325.92 325.92 0 93.854 39.671 178.443 103.159 237.912l0.18 0.167z" />
<glyph unicode="&#xe903;" glyph-name="icons_leapback" d="M615.2 708.32v137.28l-112-86.080v86.080l-205.12-157.6 205.12-157.6v86.080l112-86.080v91.84c84.405-39.936 141.749-124.4 141.749-222.257 0-135.376-109.744-245.12-245.12-245.12s-245.12 109.744-245.12 245.12c0 75.343 33.992 142.746 87.477 187.71l0.374 0.307-64 49.44c-63.498-59.488-103.062-143.86-103.062-237.473 0-179.559 145.561-325.12 325.12-325.12s325.12 145.561 325.12 325.12c0 142.687-91.918 263.905-219.77 307.672l-2.288 0.681z" />
<glyph unicode="&#xe904;" glyph-name="icons_hopforward" d="M733.92 637.44l-64-49.44c53.796-45.298 87.741-112.685 87.741-188 0-135.464-109.816-245.28-245.28-245.28s-245.28 109.816-245.28 245.28c0 135.33 109.598 245.063 244.878 245.28h8.821v-114.56l205.12 157.28-205.12 157.6v-120.64h-8.8c-0.196 0-0.428 0.001-0.66 0.001-180.001 0-325.92-145.919-325.92-325.92s145.919-325.92 325.92-325.92c180.001 0 325.92 145.919 325.92 325.92 0 93.854-39.671 178.443-103.159 237.912l-0.18 0.167z" />
<glyph unicode="&#xe905;" glyph-name="icons_leapforward" d="M733.92 637.44l-64-49.44c54.021-45.333 88.122-112.88 88.122-188.393 0-135.553-109.887-245.44-245.44-245.44s-245.44 109.887-245.44 245.44c0 98.056 57.502 182.683 140.625 221.998l1.493 0.635v-91.84l112 86.080v-86.080l204.64 157.6-205.12 157.6v-86.080l-112 86.080v-137.28c-130.363-44.438-222.457-165.822-222.457-308.716 0-179.736 145.704-325.44 325.44-325.44s325.44 145.704 325.44 325.44c0 93.771-39.659 178.28-103.12 237.667l-0.183 0.169z" />
<glyph unicode="&#xe906;" glyph-name="icons_edit" d="M228.48 204.48l-14.080-56 56 13.92-41.92 42.080zM673.641 720.746l62.452 62.452 113.137-113.137-62.452-62.452-113.137 113.137zM365.28 186.24l396.16 396-113.12 113.12-396.16-396-20-79.84 53.28-53.28 79.84 20z" />
<glyph unicode="&#xe907;" glyph-name="icons_link" d="M375.343 340.974l237.588 237.588c12.497 12.497 32.758 12.497 45.255 0s12.497-32.758 0-45.255l-237.588-237.588c-12.497-12.497-32.758-12.497-45.255 0s-12.497 32.758 0 45.255zM450.4 302.88c-1.015-16.117-7.85-30.467-18.405-41.125l-88.635-88.635c-12.030-12.425-28.862-20.138-47.496-20.138-12.665 0-24.498 3.563-34.551 9.742l0.287-0.164c-17.799 11.564-29.406 31.349-29.406 53.845 0 17.723 7.204 33.764 18.844 45.353l88.642 88.642c11.004 11.010 25.73 18.299 42.129 19.82l0.271 0.020 65.92 65.92c-14.739 6.416-31.909 10.149-49.952 10.149-35.355 0-67.363-14.334-90.528-37.509l-113.121-113.121c-23.146-23.161-37.461-55.149-37.461-90.48s14.315-67.319 37.461-90.481l-0.001 0.001c23.168-23.193 55.189-37.541 90.56-37.541s67.391 14.347 90.559 37.539l113.121 113.121c23.051 23.144 37.302 55.068 37.302 90.321 0 17.999-3.715 35.131-10.421 50.67l0.319-0.831zM643.2 744.48l-113.12-113.12c-23.079-23.149-37.349-55.092-37.349-90.368 0-18.042 3.733-35.213 10.468-50.781l-0.319 0.829 65.28 65.28c0.967 16.155 7.878 30.532 18.555 41.115l0.005 0.005 88.48 88.64c12.051 12.4 28.888 20.095 47.522 20.095 12.651 0 24.474-3.547 34.528-9.7l-0.29 0.165c17.855-11.555 29.503-31.371 29.503-53.907 0-17.692-7.179-33.707-18.782-45.292l-88.641-88.641c-11.019-10.988-25.737-18.271-42.124-19.819l-0.276-0.021-65.92-65.92c14.708-6.386 31.84-10.101 49.839-10.101 35.332 0 67.32 14.315 90.482 37.462l113.119 113.119c24.561 23.368 39.837 56.299 39.837 92.797 0 70.692-57.308 128-128 128-36.499 0-69.429-15.276-92.747-39.784l-0.051-0.054z" />
<glyph unicode="&#xe908;" glyph-name="icons_close" d="M837.12 716.48l-56.64 56.64-268.48-268.48-268.48 268.48-56.64-56.64 268.48-268.48-268.48-268.48 56.64-56.64 268.48 268.48 268.48-268.48 56.64 56.64-268.48 268.48 268.48 268.48z" />
<glyph unicode="&#xe909;" glyph-name="icons_off" d="M712 648h-394.24c-0.799 0.011-1.742 0.018-2.686 0.018-99.002 0-181.519-70.578-199.981-164.164l-0.213-1.293c-1.838-10.198-2.888-21.937-2.888-33.921 0-110.588 89.47-200.28 199.974-200.639h394.274c0.76-0.010 1.656-0.016 2.554-0.016 99.032 0 181.583 70.567 200.112 164.16l0.214 1.296c1.856 10.246 2.918 22.039 2.918 34.080 0 110.567-89.506 200.228-200.014 200.479h-0.024zM452 448c0-75.111-60.889-136-136-136s-136 60.889-136 136c0 75.111 60.889 136 136 136v0c75.074-0.091 135.909-60.926 136-135.991v-0.009zM708 312h-245.76c33.307 35.472 53.769 83.346 53.769 136s-20.462 100.528-53.867 136.106l0.098-0.106h249.76c75.167-0.043 136.085-60.987 136.085-136.16 0-7.171-0.554-14.213-1.623-21.085l0.098 0.765c-11.634-66.019-68.554-115.532-137.038-115.532-0.648 0-1.294 0.004-1.94 0.013l0.098-0.001z" />
<glyph unicode="&#xe90a;" glyph-name="icons_on" d="M712 648h-394.24c-0.799 0.011-1.742 0.018-2.686 0.018-99.002 0-181.519-70.578-199.981-164.164l-0.213-1.293c-1.838-10.198-2.888-21.937-2.888-33.921 0-110.588 89.47-200.28 199.974-200.639h394.274c0.76-0.010 1.656-0.016 2.554-0.016 99.032 0 181.583 70.567 200.112 164.16l0.214 1.296c1.856 10.246 2.918 22.039 2.918 34.080 0 110.567-89.506 200.228-200.014 200.479h-0.024zM712 312c-75.111 0-136 60.889-136 136s60.889 136 136 136c75.111 0 136-60.889 136-136v0c-0.091-75.074-60.926-135.909-135.991-136h-0.009z" />
<glyph unicode="&#xe90b;" glyph-name="icons_sync" d="M528 202.080v0c-2.576-0.097-5.602-0.152-8.641-0.152-135.413 0-245.231 109.59-245.599 244.917v0.035c0 4.96 0 9.76 0 14.56v0c1.421 18.591 4.658 35.812 9.568 52.314l-0.448-1.754c13.871 49.421 41.449 91.199 78.349 122.256l0.371 0.304-64 49.6c-47.728-44.8-81.801-103.632-95.633-169.896l-0.367-2.104c-0.8-3.52-1.44-6.88-2.080-10.4s-1.44-8.48-2.080-12.8q-1.76-12.96-2.4-26.4c-0.037-0.216-0.058-0.466-0.058-0.72s0.021-0.504 0.062-0.746l-0.004 0.026c0-4.8 0-9.6 0-14.56 0.271-179.080 145.143-324.233 324.090-324.96h8.87v-120.64l205.12 157.6-205.12 157.92zM839.84 524.8v0 0c-36.144 144.903-165.16 250.56-318.853 250.56-0.009 0-0.019 0-0.028 0h-8.959v121.6l-207.040-160 207.040-158.4v115.68c2.566 0.095 5.581 0.15 8.608 0.15 131.64 0 239.309-102.631 247.357-232.243l0.035-0.706c0-4.96 0-9.76 0-14.72-0.049-76.091-34.47-144.132-88.574-189.445l-0.386-0.315 65.12-50.080c64.818 59.602 105.292 144.809 105.292 239.468 0 27.858-3.506 54.898-10.1 80.702l0.488-2.25z" />
<glyph unicode="&#xe90c;" glyph-name="icons_rocket" d="M563.84 877.44h-103.68l-143.2-248.16h390.080l-143.2 248.16zM577.6 191.2h-131.2l-60.64-160.48h252.48l-60.64 160.48zM316.96 629.28h390.080v-438.080h-390.080v438.080z" />
<glyph unicode="&#xe90d;" glyph-name="icons_expand" d="M677.92 307.040s-2.24-2.4-2.080-2.4l77.6 77.6 38.24-251.84-251.84 38.24 81.76 81.76-113.28 113.12 56.64 56.48zM359.2 515.84s2.24 2.4 2.080 2.4l-77.6-77.6-38.24 251.84 251.84-38.080-81.28-81.76 112-113.12-56.48-56.64z" />
<glyph unicode="&#xe90e;" glyph-name="icons_facebook" d="M825.12 800h-626.24c-21.473 0-38.88-17.407-38.88-38.88v0-626.24c0-21.473 17.407-38.88 38.88-38.88v0h337.12v272h-91.68v106.88h91.68v78.4c0 90.88 55.52 140.32 136.64 140.32 0.761 0.003 1.662 0.004 2.562 0.004 28.009 0 55.666-1.513 82.891-4.461l-3.374 0.296v-95.040h-56.32c-44.16 0-52.64-20.96-52.64-51.68v-67.84h105.12l-13.6-106.88h-91.52v-272h179.36c21.473 0 38.88 17.407 38.88 38.88v0 626.24c0 21.473-17.407 38.88-38.88 38.88v0z" />
<glyph unicode="&#xe90f;" glyph-name="icons_twitter" d="M368 144c286.4 0 443.2 237.28 443.2 443.040 0 6.88 0 13.44 0 20.16 30.509 22.151 56.247 48.652 76.894 78.904l0.706 1.096c-25.878-11.615-55.894-20.019-87.352-23.702l-1.448-0.138c32.184 19.495 56.388 49.404 68.163 84.976l0.317 1.104c-28.466-17.151-61.589-30.249-96.867-37.418l-2.013-0.342c-28.581 30.805-69.284 50.021-114.475 50.021-86.156 0-156-69.844-156-156 0-12.809 1.544-25.258 4.455-37.17l-0.221 1.069c-129.696 6.821-243.76 68.435-320.337 161.936l-0.623 0.784c-13.323-22.482-21.196-49.555-21.196-78.467 0-53.765 27.227-101.172 68.646-129.183l0.55-0.351c-25.993 0.893-50.124 8.082-71.159 20.079l0.759-0.399v-2.080c0.055-75.093 53.213-137.755 123.949-152.464l1.011-0.176c-12.187-3.469-26.183-5.463-40.645-5.463-10.528 0-20.809 1.057-30.743 3.071l0.988-0.167c20.45-62.439 77.67-106.964 145.46-108.158l0.14-0.002c-52.707-41.686-120.132-66.872-193.439-66.88h-0.001c-13.11 0.026-26.001 0.839-38.663 2.395l1.543-0.155c67.385-43.846 149.832-69.92 238.369-69.92 0.011 0 0.022 0 0.033 0h-0.002z" />
<glyph unicode="&#xe910;" glyph-name="icons_github" d="M512 821.28c-0.529 0.003-1.154 0.004-1.779 0.004-211.282 0-382.56-171.278-382.56-382.56 0-168.492 108.927-311.542 260.202-362.575l2.697-0.79c19.2-3.52 26.24 8.32 26.24 18.56s0 33.12 0 64.96c-106.88-23.040-129.44 51.36-129.44 51.36-17.44 44.16-42.56 56-42.56 56-34.88 23.68 2.72 23.2 2.72 23.2 25.222-3.464 46.398-18.252 58.515-38.981l0.205-0.379c34.24-58.56 89.92-41.6 112-32 1.696 20.231 10.684 38.089 24.294 51.175l0.026 0.025c-85.28 9.6-174.88 42.4-174.88 189.12-0.011 0.677-0.018 1.475-0.018 2.275 0 38.858 15.040 74.203 39.617 100.531l-0.079-0.086c-5.037 13.697-7.951 29.515-7.951 46.014 0 20 4.282 39 11.979 56.134l-0.348-0.867s31.68 9.6 105.12-38.4c28.79 8.091 61.852 12.742 96 12.742s67.21-4.651 98.586-13.354l-2.586 0.612c73.28 49.44 105.44 39.2 105.44 39.2 7.427-16.31 11.756-35.374 11.756-55.448 0-16.433-2.901-32.188-8.219-46.782l0.303 0.95c24.497-26.242 39.538-61.588 39.538-100.445 0-0.8-0.006-1.598-0.019-2.395l0.002 0.12c0-147.040-89.76-179.36-176-188.8 16.924-16.595 27.415-39.698 27.415-65.251 0-2.206-0.078-4.393-0.232-6.56l0.017 0.291c0-51.2 0-92.48 0-104.96s6.88-22.24 26.4-18.4c153.724 51.964 262.422 194.891 262.422 363.207 0 211.282-171.278 382.56-382.56 382.56-0.795 0-1.59-0.002-2.384-0.007l0.122 0.001z" />
<glyph unicode="&#xe911;" glyph-name="icons_bookmark" d="M696 8l-192 192-192-192v880h384v-880z" />
<glyph unicode="&#xe912;" glyph-name="icons_cm" d="M610.080 875.52l-397.92-398.080 43.2-43.2c-0.827-3.334-1.301-7.162-1.301-11.1 0-14.799 6.697-28.033 17.225-36.838l0.076-0.062 64.64-64.16c-60.386-17.663-109.834-35.685-157.864-56.372l8.904 3.412c-7.36-3.2-14.56-6.24-21.76-9.6v0c-14.080-6.4-28.16-13.28-41.76-20.48l-2.24-1.12c-6.4-3.36-12.64-6.88-18.72-10.4l-2.24-1.28c-6.24-3.68-12.48-7.36-18.24-11.040v0c-5.6-3.68-11.040-7.52-16-11.36l-2.72-1.92c-5.12-3.68-9.92-7.52-14.56-11.2l-2.4-2.24c-4.64-3.84-9.12-7.84-13.28-12l220.16-221.12c4.48 4.64 8.96 9.44 13.28 14.24 0.96 1.12 1.76 2.24 2.72 3.2 4.16 4.96 8.32 9.92 12.32 16l1.6 2.080c3.68 4.96 7.36 9.92 10.88 15.040l1.76 2.56c3.36 4.96 6.56 9.92 9.76 14.88 42.042 66.888 75.107 144.542 94.93 227.343l1.070 5.297 64-64c21.92-21.92 38.88-7.68 41.44-5.12l32-32 396.96 394.72 56 298.4-93.28 92.64z" />
<glyph unicode="&#xe913;" glyph-name="icons_lm" d="M982.88 388l-48 4.32v1.76l-25.92 67.36h-0.8l-99.52 258.56c-2.096 5.634-7.428 9.575-13.68 9.575s-11.584-3.941-13.647-9.474l-0.033-0.101-4.64-2.56h-1.44c-2.379-0.669-4.364-2.083-5.739-3.97l-0.021-0.030-93.28-50.72c-3.738-1.955-6.244-5.805-6.244-10.241 0-0.112 0.002-0.224 0.005-0.335v0.016l-51.2-51.2-37.92 39.040 34.24-34.24 1.12 66.24-107.040 105.28h-66.080l-47.040 46.88c1.281 1.384 2.070 3.239 2.080 5.278v43.522l13.44 13.44c1.286 1.226 2.085 2.953 2.085 4.866 0 0.089-0.002 0.179-0.005 0.267v-0.013 18.56l16-16c-4.897-8.121-7.793-17.927-7.793-28.41 0-1.94 0.099-3.858 0.293-5.747l-0.020 0.237 56.96 56.96c-1.652 0.174-3.57 0.273-5.51 0.273-10.483 0-20.289-2.897-28.661-7.934l0.251 0.14-31.040 31.2c-2.047 2.047-4.876 3.314-8 3.314-6.248 0-11.314-5.065-11.314-11.314 0-3.124 1.266-5.953 3.314-8v0 0-30.24l-13.44-13.44c-0.601-0.654-1.132-1.389-1.57-2.182l-0.030-0.058c-0.073-0.433-0.114-0.932-0.114-1.44s0.042-1.007 0.122-1.493l-0.007 0.053v-39.36l-3.040 3.040-35.84 36.32-274.56-274.56 36.16-36.32 5.28-5.12 18.88-19.040-31.040-32 9.6-60.96 124.32-124.32 44-18.080 32 14.080 21.92 19.68 12.96-13.12-53.76-53.76c-0.212 0.015-0.459 0.023-0.708 0.023-4.332 0-8.073-2.532-9.824-6.197l-0.028-0.066-50.88-93.12c-1.82-1.447-3.168-3.416-3.82-5.681l-0.020-0.079s0-1.12 0-1.6l-2.4-4.64c-3.984-1.401-7.096-4.408-8.606-8.224l-0.034-0.096c-0.618-1.555-0.977-3.358-0.977-5.244 0-6.208 3.885-11.509 9.357-13.603l0.1-0.034 328.16-126.24 4.32-48c0.812-7.523 7.127-13.329 14.799-13.329 0.423 0 0.841 0.018 1.255 0.052l-0.054-0.004c7.532 0.894 13.317 7.242 13.317 14.941 0 0.373-0.014 0.742-0.040 1.108l0.003-0.049-5.12 56.96-10.56 63.2c-1.187 7.040-7.238 12.337-14.526 12.337-0.803 0-1.591-0.064-2.359-0.188l0.084 0.011c-7.053-1.256-12.339-7.341-12.339-14.661 0-0.811 0.065-1.608 0.19-2.384l-0.011 0.085 6.24-36.8-49.44 19.36 30.080 106.88 43.84 43.84 7.040-17.76s0 0 0-0.8v-0.96l1.44-1.6 1.76-1.28 1.92-0.8h8.32l29.44 16.96 37.6-74.72 147.68 147.68-73.28 38.24 18.080 32s0 0 0 0 0 0 0 0 0 0.96 0 1.44c0.042 0.312 0.067 0.673 0.067 1.040s-0.024 0.728-0.071 1.082l0.004-0.042c0.075 0.312 0.118 0.671 0.118 1.040s-0.043 0.728-0.124 1.071l0.006-0.031c0.031 0.312 0.049 0.674 0.049 1.040s-0.018 0.728-0.053 1.085l0.004-0.045 2.080 2.4c-0.295 0.676-0.671 1.257-1.126 1.767l0.006-0.007-1.76 1.44-0.96 0.96-17.92 7.040 46.4 46.4 107.040 30.080 18.88-49.12-38.56 6.72c-0.722 0.126-1.552 0.199-2.4 0.199-8.063 0-14.599-6.536-14.599-14.599 0-7.215 5.234-13.207 12.112-14.388l0.087-0.012 64-10.56 56.96-5.12c0.408-0.040 0.881-0.063 1.361-0.063 4.021 0 7.665 1.612 10.322 4.225l-0.002-0.002c2.366 2.356 3.908 5.537 4.157 9.075l0.003 0.045c0.040 0.403 0.062 0.872 0.062 1.345 0 7.556-5.756 13.768-13.122 14.49l-0.060 0.005zM694.88 648.8l75.2 40.96 38.4-154.56zM400.8 135.36l-147.52 36.8 39.040 71.68zM475.84 68.16l-190.24 73.28 145.44-36.16 16-16 47.040 47.040zM593.28 213.12l-5.92 14.88 16 16 9.76-19.2zM695.52 336l16.8 16.8 14.88-5.76-12.16-21.12zM807.52 448l44.48 44.48-12.64 12.48-37.76 152.48 36.8-96-2.080 3.68 27.68-69.12 11.36-29.6z" />
<glyph unicode="&#xe914;" glyph-name="icons_comms" d="M624 448c0-61.856-50.144-112-112-112s-112 50.144-112 112c0 61.856 50.144 112 112 112s112-50.144 112-112zM376.16 583.84l-45.12 45.12c-46.292-46.321-74.921-110.297-74.921-180.96s28.63-134.639 74.923-180.961l-0.001 0.001 45.12 45.12c-34.79 34.753-56.311 82.783-56.311 135.84s21.521 101.087 56.309 135.838l0.002 0.002zM647.84 312.16l45.12-45.12c46.292 46.321 74.921 110.297 74.921 180.96s-28.63 134.639-74.923 180.961l0.001-0.001-45.12-45.12c34.79-34.753 56.311-82.783 56.311-135.84s-21.521-101.087-56.309-135.838l-0.002-0.002zM274.4 685.6l-45.28 45.28c-72.408-72.389-117.195-172.404-117.195-282.88s44.786-210.49 117.193-282.879l0.001-0.001 45.28 45.28c-60.811 60.805-98.424 144.81-98.424 237.6s37.613 176.795 98.424 237.6v0zM749.6 210.4l45.28-45.28c72.408 72.389 117.195 172.404 117.195 282.88s-44.786 210.49-117.193 282.879l-0.001 0.001-45.28-45.28c60.811-60.805 98.424-144.81 98.424-237.6s-37.613-176.795-98.424-237.6v0z" />
<glyph unicode="&#xe915;" glyph-name="icons_trajectory" d="M544 304c0-106.039-85.961-192-192-192s-192 85.961-192 192c0 106.039 85.961 192 192 192s192-85.961 192-192zM897.92 784c0-36.407-29.513-65.92-65.92-65.92s-65.92 29.513-65.92 65.92c0 36.407 29.513 65.92 65.92 65.92s65.92-29.513 65.92-65.92zM350.56 40v0c-17.966 0.025-35.483 1.888-52.39 5.411l1.67-0.291c-7.532 1.546-13.117 8.121-13.117 16 0 9.012 7.305 16.317 16.317 16.317 1.132 0 2.238-0.115 3.305-0.335l-0.105 0.018c13.35-2.799 28.709-4.428 44.439-4.48h0.041c8.837 0 16-7.163 16-16s-7.163-16-16-16v0zM398.56 44.32c-0.432-0.041-0.933-0.065-1.44-0.065-8.872 0-16.065 7.192-16.065 16.065 0 8.365 6.394 15.237 14.561 15.995l0.063 0.005c16.41 3.225 30.776 7.537 44.523 13.063l-1.643-0.583c2.097 1.080 4.577 1.714 7.204 1.714 8.837 0 16-7.163 16-16 0-7.183-4.733-13.26-11.251-15.283l-0.113-0.030c-13.811-5.687-30.162-10.609-47.079-13.956l-1.721-0.284zM257.6 58.72c-2.202 0.027-4.288 0.496-6.183 1.32l0.103-0.040c-17.34 7.183-32.177 15.172-46.086 24.446l0.966-0.606c-4.288 2.915-7.068 7.77-7.068 13.275 0 3.346 1.027 6.452 2.783 9.020l-0.035-0.055c2.917 4.268 7.761 7.032 13.251 7.032 3.221 0 6.22-0.952 8.731-2.59l-0.061 0.038c11.34-7.654 24.332-14.726 37.988-20.54l1.532-0.58c5.769-2.502 9.732-8.149 9.732-14.721 0-8.77-7.057-15.893-15.802-15.999h-0.010zM486.72 80c-5.617 0.010-10.555 2.913-13.402 7.298l-0.038 0.062c-1.615 2.457-2.576 5.47-2.576 8.707 0 5.567 2.843 10.471 7.157 13.337l0.059 0.037c13.143 8.6 24.598 17.769 35.111 27.908l-0.071-0.068c2.876 2.779 6.798 4.491 11.12 4.491 8.843 0 16.011-7.169 16.011-16.011 0-4.521-1.874-8.604-4.887-11.516l-0.005-0.004c-11.873-11.618-24.901-22.155-38.863-31.393l-0.977-0.607c-2.337-1.412-5.159-2.247-8.176-2.247-0.163 0-0.326 0.002-0.488 0.007l0.024-0.001zM177.92 112c-0.027 0-0.060 0-0.093 0-4.395 0-8.377 1.772-11.269 4.641l-1.279 1.279c-11.502 11.384-22.011 23.72-31.416 36.899l-0.584 0.861c-2.061 2.666-3.303 6.056-3.303 9.736 0 8.837 7.163 16 16 16 6.010 0 11.247-3.314 13.982-8.215l0.042-0.081c8.548-12.365 17.648-23.192 27.66-33.101l0.020-0.019 1.28-1.28c2.923-2.9 4.733-6.919 4.733-11.36s-1.81-8.46-4.732-11.359l-0.001-0.001c-2.807-2.487-6.521-4.006-10.59-4.006-0.158 0-0.316 0.002-0.473 0.007l0.023-0.001zM555.2 145.76c-3.415 0.008-6.577 1.085-9.171 2.914l0.051-0.034c-4.206 2.925-6.925 7.734-6.925 13.178 0 3.456 1.096 6.656 2.958 9.271l-0.033-0.049c8.025 11.218 15.4 23.984 21.5 37.45l0.58 1.43c2.551 5.661 8.144 9.53 14.64 9.53 8.842 0 16.010-7.168 16.010-16.010 0-2.346-0.504-4.573-1.411-6.581l0.041 0.101c-7.632-16.989-16.022-31.54-25.669-45.135l0.549 0.815c-2.923-4.173-7.705-6.871-13.119-6.88h-0.001zM124.16 189.92c-6.578 0.006-12.226 3.979-14.68 9.656l-0.040 0.104c-6.289 13.616-11.786 29.632-15.661 46.271l-0.339 1.729c-0.222 1.010-0.349 2.17-0.349 3.36 0 9.029 7.32 16.349 16.349 16.349 7.839 0 14.39-5.518 15.981-12.881l0.019-0.108c3.498-16.277 8.127-30.502 14.017-44.051l-0.577 1.491c0.567-1.572 0.895-3.386 0.895-5.276 0-6.435-3.799-11.983-9.276-14.523l-0.099-0.041c-1.786-1.105-3.906-1.848-6.179-2.075l-0.061-0.005zM593.76 232.8h-3.52c-7.163 1.69-12.412 8.028-12.412 15.593 0 1.279 0.15 2.524 0.434 3.716l-0.022-0.109 10.88 46.72c1.103 7.856 7.78 13.835 15.853 13.835 8.837 0 16-7.163 16-16 0-1.801-0.298-3.532-0.846-5.148l0.033 0.113-10.72-46.72c-1.839-6.956-8.077-12.001-15.492-12.001-0.066 0-0.132 0-0.198 0.001h0.010zM104 283.040c-8.837 0-16 7.163-16 16v0 4.96c0 0.033 0 0.073 0 0.113 0 16.013 1.397 31.7 4.075 46.945l-0.235-1.618c1.31 7.63 7.876 13.363 15.781 13.363 0.982 0 1.943-0.088 2.876-0.258l-0.098 0.015c7.555-1.375 13.208-7.905 13.208-15.754 0-0.992-0.090-1.962-0.263-2.904l0.015 0.098c-2.137-12.025-3.359-25.869-3.36-39.999v-4.641c0-8.837-7.163-16-16-16v0zM616 326.24h-3.68c-7.087 1.746-12.26 8.047-12.26 15.557 0 1.292 0.153 2.549 0.442 3.752l-0.022-0.109 10.88 46.72c1.103 7.856 7.78 13.835 15.853 13.835 8.837 0 16-7.163 16-16 0-1.801-0.298-3.532-0.846-5.148l0.033 0.113-10.88-46.72c-1.837-6.96-8.076-12.008-15.494-12.008-0.178 0-0.355 0.003-0.532 0.009l0.026-0.001zM120.48 376.96c-2.064 0.006-4.043 0.357-5.887 0.998l0.127-0.038c-6.086 2.357-10.323 8.163-10.323 14.959 0 2.042 0.383 3.995 1.080 5.79l-0.037-0.109c6.728 17.553 14.313 32.574 23.202 46.692l-0.642-1.092c2.878 4.561 7.89 7.547 13.6 7.547 8.852 0 16.027-7.176 16.027-16.027 0-3.142-0.904-6.072-2.466-8.546l0.039 0.066c-7.379-11.456-14.104-24.633-19.482-38.483l-0.518-1.517c-2.352-5.978-8.038-10.15-14.709-10.24h-0.011zM637.28 419.52c-0.553-0.074-1.191-0.117-1.84-0.117s-1.287 0.042-1.914 0.125l0.074-0.008c-7.163 1.69-12.412 8.028-12.412 15.593 0 1.279 0.15 2.524 0.434 3.716l-0.022-0.109 10.88 46.56c1.695 7.163 8.035 12.41 15.6 12.41 8.842 0 16.010-7.168 16.010-16.010 0-1.277-0.149-2.518-0.432-3.709l0.022 0.109-10.88-46.080c-1.658-7.168-7.967-12.437-15.515-12.48h-0.005zM171.040 457.6c-0.031 0-0.068 0-0.104 0-4.233 0-8.083 1.644-10.944 4.328l0.009-0.008c-2.875 2.892-4.653 6.878-4.653 11.28s1.777 8.388 4.653 11.281l-0.001-0.001 5.92 6.24c9.718 9.688 20.163 18.661 31.241 26.826l0.759 0.534c2.591 1.882 5.835 3.011 9.343 3.011 5.274 0 9.952-2.552 12.867-6.488l0.031-0.043c1.929-2.611 3.087-5.894 3.087-9.447 0-5.307-2.584-10.010-6.562-12.921l-0.045-0.031c-10.485-7.658-19.731-15.584-28.323-24.163l0.003 0.003c-1.885-1.701-3.611-3.477-5.214-5.361l-0.066-0.079c-2.92-3.062-7.031-4.965-11.586-4.965-0.146 0-0.291 0.002-0.435 0.006h0.021zM659.040 512c-0.553-0.074-1.191-0.117-1.84-0.117s-1.287 0.042-1.914 0.125l0.074-0.008c-7.163 1.69-12.412 8.028-12.412 15.593 0 1.279 0.15 2.524 0.434 3.716l-0.022-0.109 10.88 46.72c1.703 7.381 8.219 12.8 16 12.8 9.057 0 16.4-7.343 16.4-16.4 0-1.276-0.146-2.518-0.422-3.711l0.022 0.111-10.88-46.72c-1.832-6.967-8.075-12.021-15.497-12.021-0.289 0-0.577 0.008-0.862 0.023l0.040-0.002zM248.16 512c-0.986-0.212-2.119-0.333-3.28-0.333-9.020 0-16.333 7.312-16.333 16.333 0 7.859 5.551 14.422 12.946 15.981l0.107 0.019c13.57 6.457 29.554 12.21 46.158 16.406l1.842 0.394 5.12-16 3.68-16h-1.28c-16.238-4.027-30.305-9.068-43.688-15.328l1.448 0.608c-1.553-0.552-3.343-0.872-5.209-0.872-0.532 0-1.058 0.026-1.577 0.077l0.066-0.005zM341.44 538.88c-0.552-0.067-1.192-0.105-1.84-0.105-8.895 0-16.105 7.211-16.105 16.105 0 8.246 6.198 15.045 14.189 15.993l0.076 0.007 46.24 11.68c1.094 0.267 2.351 0.42 3.643 0.42 7.509 0 13.811-5.173 15.534-12.15l0.023-0.11c0.285-1.129 0.448-2.425 0.448-3.759 0-7.577-5.267-13.924-12.34-15.579l-0.108-0.021-46.72-10.72c-0.899-0.262-1.94-0.434-3.013-0.479l-0.027-0.001zM434.72 560.64c-0.552-0.067-1.192-0.105-1.84-0.105-8.895 0-16.105 7.211-16.105 16.105 0 8.246 6.198 15.045 14.189 15.993l0.076 0.007 46.72 10.88c1.082 0.261 2.323 0.41 3.6 0.41 8.842 0 16.010-7.168 16.010-16.010 0-7.565-5.247-13.905-12.301-15.578l-0.109-0.022-46.56-10.88c-1.309 0.001-2.576 0.176-3.781 0.503l0.101-0.023zM528 583.52c-0.528-0.061-1.14-0.097-1.76-0.097-8.89 0-16.097 7.207-16.097 16.097 0 8.27 6.236 15.083 14.263 15.993l0.074 0.007 46.72 10.72c1.094 0.267 2.351 0.42 3.643 0.42 7.509 0 13.811-5.173 15.534-12.15l0.023-0.11c0.262-1.084 0.412-2.328 0.412-3.607 0-7.564-5.249-13.902-12.303-15.571l-0.109-0.022-46.72-10.88c-1.080-0.411-2.331-0.696-3.633-0.797l-0.047-0.003zM621.44 605.28c-0.552-0.067-1.192-0.105-1.84-0.105-8.895 0-16.105 7.211-16.105 16.105 0 8.246 6.198 15.045 14.189 15.993l0.076 0.007 46.72 10.88c0.866 0.15 1.863 0.235 2.88 0.235s2.014-0.085 2.985-0.25l-0.105 0.015 5.76 23.84c1.703 7.381 8.219 12.8 16 12.8 9.057 0 16.4-7.343 16.4-16.4 0-1.276-0.146-2.518-0.422-3.711l0.022 0.111-2.24-9.76c1.75 1.402 3.844 2.455 6.13 3.017l0.11 0.023 46.56 10.88c1.105 0.272 2.374 0.428 3.68 0.428 8.852 0 16.028-7.176 16.028-16.028 0-7.547-5.215-13.875-12.239-15.578l-0.11-0.022-46.72-10.88c-1.1-0.27-2.362-0.425-3.661-0.425-6.314 0-11.775 3.658-14.377 8.97l-0.042 0.094-4-17.44c-1.691-7.162-8.029-12.41-15.592-12.41-6.371 0-11.873 3.724-14.446 9.114l-0.042 0.097-41.12-9.6zM808.16 648.64c-0.552-0.067-1.192-0.105-1.84-0.105-8.895 0-16.105 7.211-16.105 16.105 0 8.246 6.198 15.045 14.189 15.993l0.076 0.007 46.72 10.72c1.094 0.267 2.351 0.42 3.643 0.42 7.509 0 13.811-5.173 15.534-12.15l0.023-0.11c0.262-1.084 0.412-2.328 0.412-3.607 0-7.564-5.249-13.902-12.303-15.571l-0.109-0.022-46.72-10.88c-1.030-0.401-2.225-0.684-3.469-0.796l-0.051-0.004zM898.56 677.92c-0.047-0.001-0.103-0.001-0.159-0.001-5.217 0-9.851 2.497-12.771 6.361l-0.029 0.040c-1.963 2.626-3.143 5.937-3.143 9.523 0 5.262 2.54 9.93 6.46 12.846l0.043 0.030c4.027 2.964 7.58 6.061 10.863 9.423l0.017 0.017c6.161 6.104 11.474 13.049 15.757 20.651l0.243 0.469c2.824 4.848 7.997 8.055 13.92 8.055 8.867 0 16.055-7.188 16.055-16.055 0-2.944-0.793-5.704-2.176-8.076l0.041 0.076c-6.090-10.796-13.151-20.099-21.292-28.332l0.012 0.012c-4.447-4.325-9.195-8.413-14.181-12.204l-0.379-0.276c-2.455-1.612-5.465-2.571-8.698-2.571-0.205 0-0.409 0.004-0.611 0.011l0.029-0.001zM702.4 699.52c-0.529-0.075-1.139-0.117-1.76-0.117s-1.231 0.043-1.829 0.125l0.069-0.008c-7.163 1.69-12.412 8.028-12.412 15.593 0 1.279 0.15 2.524 0.434 3.716l-0.022-0.109 10.88 46.72c1.734 7.351 8.238 12.738 16 12.738 9.067 0 16.418-7.35 16.418-16.418 0-1.305-0.152-2.574-0.44-3.791l0.022 0.111-10.88-46.56c-1.829-6.971-8.074-12.030-15.5-12.030-0.345 0-0.687 0.011-1.027 0.032l0.046-0.002zM944 759.040h-1.6c-8.148 0.812-14.457 7.632-14.457 15.925 0 0.477 0.021 0.949 0.062 1.415l-0.004-0.060c0 2.56 0 5.12 0 7.68-0.094 11.506-2.198 22.492-5.976 32.664l0.216-0.664c-0.603 1.617-0.952 3.486-0.952 5.436 0 6.882 4.345 12.749 10.441 15.008l0.111 0.036c1.617 0.603 3.486 0.952 5.436 0.952 6.882 0 12.749-4.345 15.008-10.441l0.036-0.111c4.774-12.744 7.581-27.469 7.68-42.837v-0.043c0-3.36 0-6.72 0-10.24-0.683-8.268-7.563-14.72-15.949-14.72-0.018 0-0.036 0-0.054 0h0.003zM724.16 792.96c-0.529-0.075-1.139-0.119-1.76-0.119s-1.231 0.043-1.829 0.126l0.069-0.008c-7.163 1.69-12.412 8.028-12.412 15.593 0 1.279 0.15 2.524 0.434 3.716l-0.022-0.109 4.8 19.84c4.748 11.424 10.494 21.281 17.354 30.238l-0.234-0.318c2.948 3.354 7.247 5.459 12.037 5.459 8.837 0 16-7.163 16-16 0-3.352-1.031-6.463-2.793-9.034l0.035 0.055c-4.693-6.155-8.819-13.156-12.067-20.628l-0.253-0.652-3.68-16c-1.783-7.037-8.059-12.161-15.533-12.161-0.052 0-0.104 0-0.155 0.001h0.008zM912 846.56c-0.003 0-0.007 0-0.011 0-4.19 0-7.98 1.714-10.708 4.478l-0.002 0.002c-9.552 9.705-21.134 17.379-34.063 22.338l-0.657 0.222c-6.059 2.38-10.271 8.178-10.271 14.96 0 8.853 7.177 16.031 16.031 16.031 2.072 0 4.051-0.393 5.869-1.108l-0.109 0.038c17.355-6.805 32.167-16.633 44.479-28.959l0.001-0.001c3.329-2.946 5.417-7.229 5.417-12 0-8.828-7.15-15.987-15.976-16h-0.001zM779.52 867.040c-8.802 0.045-15.921 7.191-15.921 16 0 6.052 3.361 11.32 8.318 14.038l0.083 0.042c15.146 8.265 32.98 13.627 51.94 14.86l0.38 0.020c0.287 0.018 0.622 0.029 0.96 0.029 8.837 0 16-7.163 16-16 0-0.010 0-0.020 0-0.030v0.002c0-0.009 0-0.019 0-0.029 0-8.499-6.626-15.45-14.994-15.969l-0.046-0.002c-14.479-0.8-27.863-4.794-39.683-11.283l0.483 0.243c-2.174-1.196-4.763-1.906-7.516-1.92h-0.004z" />
</font>
</defs>
</svg>
